ISO-10303-21;
HEADER;
FILE_DESCRIPTION(('FreeCAD Model'),'2;1');
FILE_NAME('Open CASCADE Shape Model','2026-09-19T21:37:11',('FreeCAD'),(
    'FreeCAD'),'Open CASCADE STEP processor 7.9','FreeCAD','Unknown');
FILE_SCHEMA(('AUTOMOTIVE_DESIGN { 1 0 10303 214 1 1 1 1 }'));
ENDSEC;
DATA;
#1 = APPLICATION_PROTOCOL_DEFINITION('international standard',
  'automotive_design',2000,#2);
#2 = APPLICATION_CONTEXT(
  'core data for automotive mechanical design processes');
#3 = SHAPE_DEFINITION_REPRESENTATION(#4,#10);
#4 = PRODUCT_DEFINITION_SHAPE('','',#5);
#5 = PRODUCT_DEFINITION('design','',#6,#9);
#6 = PRODUCT_DEFINITION_FORMATION('','',#7);
#7 = PRODUCT('Open CASCADE STEP translator 7.9 10',
  'Open CASCADE STEP translator 7.9 10','',(#8));
#8 = PRODUCT_CONTEXT('',#2,'mechanical');
#9 = PRODUCT_DEFINITION_CONTEXT('part definition',#2,'design');
#10 = ADVANCED_BREP_SHAPE_REPRESENTATION('',(#11,#15),#992);
#11 = AXIS2_PLACEMENT_3D('',#12,#13,#14);
#12 = CARTESIAN_POINT('',(0.,0.,0.));
#13 = DIRECTION('',(0.,0.,1.));
#14 = DIRECTION('',(1.,0.,-0.));
#15 = MANIFOLD_SOLID_BREP('',#16);
#16 = CLOSED_SHELL('',(#17,#91,#138,#194,#230,#263,#294,#340,#364,#403,
    #422,#451,#463,#522,#539,#551,#568,#585,#610,#652,#676,#701,#718,
    #738,#763,#775,#800,#856,#881,#906,#931,#956,#965,#974,#983));
#17 = ADVANCED_FACE('',(#18,#52),#86,.F.);
#18 = FACE_BOUND('',#19,.T.);
#19 = EDGE_LOOP('',(#20,#30,#38,#46));
#20 = ORIENTED_EDGE('',*,*,#21,.T.);
#21 = EDGE_CURVE('',#22,#24,#26,.T.);
#22 = VERTEX_POINT('',#23);
#23 = CARTESIAN_POINT('',(-60.,-40.,450.));
#24 = VERTEX_POINT('',#25);
#25 = CARTESIAN_POINT('',(-90.,-40.,450.));
#26 = LINE('',#27,#28);
#27 = CARTESIAN_POINT('',(-60.,-40.,450.));
#28 = VECTOR('',#29,1.);
#29 = DIRECTION('',(-1.,-0.,-0.));
#30 = ORIENTED_EDGE('',*,*,#31,.T.);
#31 = EDGE_CURVE('',#24,#32,#34,.T.);
#32 = VERTEX_POINT('',#33);
#33 = CARTESIAN_POINT('',(-90.,40.,450.));
#34 = LINE('',#35,#36);
#35 = CARTESIAN_POINT('',(-90.,-40.,450.));
#36 = VECTOR('',#37,1.);
#37 = DIRECTION('',(0.,1.,0.));
#38 = ORIENTED_EDGE('',*,*,#39,.F.);
#39 = EDGE_CURVE('',#40,#32,#42,.T.);
#40 = VERTEX_POINT('',#41);
#41 = CARTESIAN_POINT('',(-60.,40.,450.));
#42 = LINE('',#43,#44);
#43 = CARTESIAN_POINT('',(-60.,40.,450.));
#44 = VECTOR('',#45,1.);
#45 = DIRECTION('',(-1.,-0.,-0.));
#46 = ORIENTED_EDGE('',*,*,#47,.F.);
#47 = EDGE_CURVE('',#22,#40,#48,.T.);
#48 = LINE('',#49,#50);
#49 = CARTESIAN_POINT('',(-60.,-40.,450.));
#50 = VECTOR('',#51,1.);
#51 = DIRECTION('',(0.,1.,0.));
#52 = FACE_BOUND('',#53,.T.);
#53 = EDGE_LOOP('',(#54,#64,#72,#80));
#54 = ORIENTED_EDGE('',*,*,#55,.F.);
#55 = EDGE_CURVE('',#56,#58,#60,.T.);
#56 = VERTEX_POINT('',#57);
#57 = CARTESIAN_POINT('',(-68.,-28.,450.));
#58 = VERTEX_POINT('',#59);
#59 = CARTESIAN_POINT('',(-82.,-28.,450.));
#60 = LINE('',#61,#62);
#61 = CARTESIAN_POINT('',(-68.,-28.,450.));
#62 = VECTOR('',#63,1.);
#63 = DIRECTION('',(-1.,-0.,-0.));
#64 = ORIENTED_EDGE('',*,*,#65,.T.);
#65 = EDGE_CURVE('',#56,#66,#68,.T.);
#66 = VERTEX_POINT('',#67);
#67 = CARTESIAN_POINT('',(-68.,28.,450.));
#68 = LINE('',#69,#70);
#69 = CARTESIAN_POINT('',(-68.,-28.,450.));
#70 = VECTOR('',#71,1.);
#71 = DIRECTION('',(0.,1.,0.));
#72 = ORIENTED_EDGE('',*,*,#73,.T.);
#73 = EDGE_CURVE('',#66,#74,#76,.T.);
#74 = VERTEX_POINT('',#75);
#75 = CARTESIAN_POINT('',(-82.,28.,450.));
#76 = LINE('',#77,#78);
#77 = CARTESIAN_POINT('',(-68.,28.,450.));
#78 = VECTOR('',#79,1.);
#79 = DIRECTION('',(-1.,-0.,-0.));
#80 = ORIENTED_EDGE('',*,*,#81,.F.);
#81 = EDGE_CURVE('',#58,#74,#82,.T.);
#82 = LINE('',#83,#84);
#83 = CARTESIAN_POINT('',(-82.,-28.,450.));
#84 = VECTOR('',#85,1.);
#85 = DIRECTION('',(0.,1.,0.));
#86 = PLANE('',#87);
#87 = AXIS2_PLACEMENT_3D('',#88,#89,#90);
#88 = CARTESIAN_POINT('',(-60.,-40.,450.));
#89 = DIRECTION('',(0.,0.,1.));
#90 = DIRECTION('',(0.,-1.,0.));
#91 = ADVANCED_FACE('',(#92),#133,.T.);
#92 = FACE_BOUND('',#93,.F.);
#93 = EDGE_LOOP('',(#94,#102,#103,#111,#119,#127));
#94 = ORIENTED_EDGE('',*,*,#95,.T.);
#95 = EDGE_CURVE('',#96,#22,#98,.T.);
#96 = VERTEX_POINT('',#97);
#97 = CARTESIAN_POINT('',(-60.,-40.,535.27864045));
#98 = LINE('',#99,#100);
#99 = CARTESIAN_POINT('',(-60.,-40.,454.33333333333));
#100 = VECTOR('',#101,1.);
#101 = DIRECTION('',(-0.,-0.,-1.));
#102 = ORIENTED_EDGE('',*,*,#21,.T.);
#103 = ORIENTED_EDGE('',*,*,#104,.F.);
#104 = EDGE_CURVE('',#105,#24,#107,.T.);
#105 = VERTEX_POINT('',#106);
#106 = CARTESIAN_POINT('',(-90.,-40.,533.94568424132));
#107 = LINE('',#108,#109);
#108 = CARTESIAN_POINT('',(-90.,-40.,536.66666666666));
#109 = VECTOR('',#110,1.);
#110 = DIRECTION('',(-0.,-0.,-1.));
#111 = ORIENTED_EDGE('',*,*,#112,.F.);
#112 = EDGE_CURVE('',#113,#105,#115,.T.);
#113 = VERTEX_POINT('',#114);
#114 = CARTESIAN_POINT('',(-88.,-40.,533.94568424132));
#115 = LINE('',#116,#117);
#116 = CARTESIAN_POINT('',(-88.,-40.,533.94568424132));
#117 = VECTOR('',#118,1.);
#118 = DIRECTION('',(-1.,-0.,-0.));
#119 = ORIENTED_EDGE('',*,*,#120,.T.);
#120 = EDGE_CURVE('',#113,#121,#123,.T.);
#121 = VERTEX_POINT('',#122);
#122 = CARTESIAN_POINT('',(-88.,-40.,535.27864045));
#123 = LINE('',#124,#125);
#124 = CARTESIAN_POINT('',(-88.,-40.,536.3196601125));
#125 = VECTOR('',#126,1.);
#126 = DIRECTION('',(0.,0.,1.));
#127 = ORIENTED_EDGE('',*,*,#128,.F.);
#128 = EDGE_CURVE('',#96,#121,#129,.T.);
#129 = LINE('',#130,#131);
#130 = CARTESIAN_POINT('',(-60.,-40.,535.27864045));
#131 = VECTOR('',#132,1.);
#132 = DIRECTION('',(-1.,-0.,-0.));
#133 = PLANE('',#134);
#134 = AXIS2_PLACEMENT_3D('',#135,#136,#137);
#135 = CARTESIAN_POINT('',(-75.,-40.,492.639320225));
#136 = DIRECTION('',(0.,-1.,0.));
#137 = DIRECTION('',(0.,0.,1.));
#138 = ADVANCED_FACE('',(#139,#167,#178),#189,.T.);
#139 = FACE_BOUND('',#140,.F.);
#140 = EDGE_LOOP('',(#141,#142,#143,#152,#161));
#141 = ORIENTED_EDGE('',*,*,#47,.F.);
#142 = ORIENTED_EDGE('',*,*,#95,.F.);
#143 = ORIENTED_EDGE('',*,*,#144,.F.);
#144 = EDGE_CURVE('',#145,#96,#147,.T.);
#145 = VERTEX_POINT('',#146);
#146 = CARTESIAN_POINT('',(-60.,1.469576158977E-14,640.));
#147 = CIRCLE('',#148,60.);
#148 = AXIS2_PLACEMENT_3D('',#149,#150,#151);
#149 = CARTESIAN_POINT('',(-60.,0.,580.));
#150 = DIRECTION('',(1.,0.,0.));
#151 = DIRECTION('',(0.,0.,1.));
#152 = ORIENTED_EDGE('',*,*,#153,.F.);
#153 = EDGE_CURVE('',#154,#145,#156,.T.);
#154 = VERTEX_POINT('',#155);
#155 = CARTESIAN_POINT('',(-60.,40.000000000001,535.27864045));
#156 = CIRCLE('',#157,60.);
#157 = AXIS2_PLACEMENT_3D('',#158,#159,#160);
#158 = CARTESIAN_POINT('',(-60.,0.,580.));
#159 = DIRECTION('',(1.,0.,0.));
#160 = DIRECTION('',(0.,0.,1.));
#161 = ORIENTED_EDGE('',*,*,#162,.F.);
#162 = EDGE_CURVE('',#40,#154,#163,.T.);
#163 = LINE('',#164,#165);
#164 = CARTESIAN_POINT('',(-60.,40.,450.));
#165 = VECTOR('',#166,1.);
#166 = DIRECTION('',(0.,0.,1.));
#167 = FACE_BOUND('',#168,.F.);
#168 = EDGE_LOOP('',(#169));
#169 = ORIENTED_EDGE('',*,*,#170,.T.);
#170 = EDGE_CURVE('',#171,#171,#173,.T.);
#171 = VERTEX_POINT('',#172);
#172 = CARTESIAN_POINT('',(-60.,3.747419205391E-15,595.3));
#173 = CIRCLE('',#174,15.3);
#174 = AXIS2_PLACEMENT_3D('',#175,#176,#177);
#175 = CARTESIAN_POINT('',(-60.,0.,580.));
#176 = DIRECTION('',(1.,0.,0.));
#177 = DIRECTION('',(0.,0.,1.));
#178 = FACE_BOUND('',#179,.F.);
#179 = EDGE_LOOP('',(#180));
#180 = ORIENTED_EDGE('',*,*,#181,.T.);
#181 = EDGE_CURVE('',#182,#182,#184,.T.);
#182 = VERTEX_POINT('',#183);
#183 = CARTESIAN_POINT('',(-60.,2.277843046414E-15,469.3));
#184 = CIRCLE('',#185,9.3);
#185 = AXIS2_PLACEMENT_3D('',#186,#187,#188);
#186 = CARTESIAN_POINT('',(-60.,0.,460.));
#187 = DIRECTION('',(1.,0.,0.));
#188 = DIRECTION('',(0.,0.,1.));
#189 = PLANE('',#190);
#190 = AXIS2_PLACEMENT_3D('',#191,#192,#193);
#191 = CARTESIAN_POINT('',(-60.,0.,540.76535849415));
#192 = DIRECTION('',(1.,0.,0.));
#193 = DIRECTION('',(0.,0.,1.));
#194 = ADVANCED_FACE('',(#195,#214),#225,.T.);
#195 = FACE_BOUND('',#196,.F.);
#196 = EDGE_LOOP('',(#197,#198,#199,#207));
#197 = ORIENTED_EDGE('',*,*,#104,.T.);
#198 = ORIENTED_EDGE('',*,*,#31,.T.);
#199 = ORIENTED_EDGE('',*,*,#200,.T.);
#200 = EDGE_CURVE('',#32,#201,#203,.T.);
#201 = VERTEX_POINT('',#202);
#202 = CARTESIAN_POINT('',(-90.,40.,533.94568424132));
#203 = LINE('',#204,#205);
#204 = CARTESIAN_POINT('',(-90.,40.,532.33333333333));
#205 = VECTOR('',#206,1.);
#206 = DIRECTION('',(0.,0.,1.));
#207 = ORIENTED_EDGE('',*,*,#208,.F.);
#208 = EDGE_CURVE('',#105,#201,#209,.T.);
#209 = CIRCLE('',#210,61.);
#210 = AXIS2_PLACEMENT_3D('',#211,#212,#213);
#211 = CARTESIAN_POINT('',(-90.,0.,580.));
#212 = DIRECTION('',(1.,0.,0.));
#213 = DIRECTION('',(0.,0.,1.));
#214 = FACE_BOUND('',#215,.F.);
#215 = EDGE_LOOP('',(#216));
#216 = ORIENTED_EDGE('',*,*,#217,.F.);
#217 = EDGE_CURVE('',#218,#218,#220,.T.);
#218 = VERTEX_POINT('',#219);
#219 = CARTESIAN_POINT('',(-90.,2.277843046414E-15,469.3));
#220 = CIRCLE('',#221,9.3);
#221 = AXIS2_PLACEMENT_3D('',#222,#223,#224);
#222 = CARTESIAN_POINT('',(-90.,0.,460.));
#223 = DIRECTION('',(1.,0.,0.));
#224 = DIRECTION('',(0.,0.,1.));
#225 = PLANE('',#226);
#226 = AXIS2_PLACEMENT_3D('',#227,#228,#229);
#227 = CARTESIAN_POINT('',(-90.,0.,540.76535849415));
#228 = DIRECTION('',(-1.,-0.,-0.));
#229 = DIRECTION('',(0.,0.,-1.));
#230 = ADVANCED_FACE('',(#231),#258,.T.);
#231 = FACE_BOUND('',#232,.F.);
#232 = EDGE_LOOP('',(#233,#234,#235,#243,#251,#257));
#233 = ORIENTED_EDGE('',*,*,#39,.F.);
#234 = ORIENTED_EDGE('',*,*,#162,.T.);
#235 = ORIENTED_EDGE('',*,*,#236,.T.);
#236 = EDGE_CURVE('',#154,#237,#239,.T.);
#237 = VERTEX_POINT('',#238);
#238 = CARTESIAN_POINT('',(-88.,40.,535.27864045));
#239 = LINE('',#240,#241);
#240 = CARTESIAN_POINT('',(-60.,40.,535.27864045));
#241 = VECTOR('',#242,1.);
#242 = DIRECTION('',(-1.,-0.,-0.));
#243 = ORIENTED_EDGE('',*,*,#244,.T.);
#244 = EDGE_CURVE('',#237,#245,#247,.T.);
#245 = VERTEX_POINT('',#246);
#246 = CARTESIAN_POINT('',(-88.,40.,533.94568424132));
#247 = LINE('',#248,#249);
#248 = CARTESIAN_POINT('',(-88.,40.,536.3196601125));
#249 = VECTOR('',#250,1.);
#250 = DIRECTION('',(-0.,-0.,-1.));
#251 = ORIENTED_EDGE('',*,*,#252,.T.);
#252 = EDGE_CURVE('',#245,#201,#253,.T.);
#253 = LINE('',#254,#255);
#254 = CARTESIAN_POINT('',(-88.,40.,533.94568424132));
#255 = VECTOR('',#256,1.);
#256 = DIRECTION('',(-1.,-0.,-0.));
#257 = ORIENTED_EDGE('',*,*,#200,.F.);
#258 = PLANE('',#259);
#259 = AXIS2_PLACEMENT_3D('',#260,#261,#262);
#260 = CARTESIAN_POINT('',(-75.,40.,492.639320225));
#261 = DIRECTION('',(0.,1.,0.));
#262 = DIRECTION('',(0.,0.,-1.));
#263 = ADVANCED_FACE('',(#264),#289,.F.);
#264 = FACE_BOUND('',#265,.T.);
#265 = EDGE_LOOP('',(#266,#276,#282,#283));
#266 = ORIENTED_EDGE('',*,*,#267,.F.);
#267 = EDGE_CURVE('',#268,#270,#272,.T.);
#268 = VERTEX_POINT('',#269);
#269 = CARTESIAN_POINT('',(-68.,-28.,425.));
#270 = VERTEX_POINT('',#271);
#271 = CARTESIAN_POINT('',(-82.,-28.,425.));
#272 = LINE('',#273,#274);
#273 = CARTESIAN_POINT('',(-68.,-28.,425.));
#274 = VECTOR('',#275,1.);
#275 = DIRECTION('',(-1.,-0.,-0.));
#276 = ORIENTED_EDGE('',*,*,#277,.T.);
#277 = EDGE_CURVE('',#268,#56,#278,.T.);
#278 = LINE('',#279,#280);
#279 = CARTESIAN_POINT('',(-68.,-28.,425.));
#280 = VECTOR('',#281,1.);
#281 = DIRECTION('',(0.,0.,1.));
#282 = ORIENTED_EDGE('',*,*,#55,.T.);
#283 = ORIENTED_EDGE('',*,*,#284,.F.);
#284 = EDGE_CURVE('',#270,#58,#285,.T.);
#285 = LINE('',#286,#287);
#286 = CARTESIAN_POINT('',(-82.,-28.,425.));
#287 = VECTOR('',#288,1.);
#288 = DIRECTION('',(0.,0.,1.));
#289 = PLANE('',#290);
#290 = AXIS2_PLACEMENT_3D('',#291,#292,#293);
#291 = CARTESIAN_POINT('',(-68.,-28.,425.));
#292 = DIRECTION('',(0.,1.,0.));
#293 = DIRECTION('',(0.,0.,-1.));
#294 = ADVANCED_FACE('',(#295,#313,#324),#335,.T.);
#295 = FACE_BOUND('',#296,.F.);
#296 = EDGE_LOOP('',(#297,#298,#306,#312));
#297 = ORIENTED_EDGE('',*,*,#284,.F.);
#298 = ORIENTED_EDGE('',*,*,#299,.T.);
#299 = EDGE_CURVE('',#270,#300,#302,.T.);
#300 = VERTEX_POINT('',#301);
#301 = CARTESIAN_POINT('',(-82.,28.,425.));
#302 = LINE('',#303,#304);
#303 = CARTESIAN_POINT('',(-82.,-28.,425.));
#304 = VECTOR('',#305,1.);
#305 = DIRECTION('',(0.,1.,0.));
#306 = ORIENTED_EDGE('',*,*,#307,.T.);
#307 = EDGE_CURVE('',#300,#74,#308,.T.);
#308 = LINE('',#309,#310);
#309 = CARTESIAN_POINT('',(-82.,28.,425.));
#310 = VECTOR('',#311,1.);
#311 = DIRECTION('',(0.,0.,1.));
#312 = ORIENTED_EDGE('',*,*,#81,.F.);
#313 = FACE_BOUND('',#314,.F.);
#314 = EDGE_LOOP('',(#315));
#315 = ORIENTED_EDGE('',*,*,#316,.T.);
#316 = EDGE_CURVE('',#317,#317,#319,.T.);
#317 = VERTEX_POINT('',#318);
#318 = CARTESIAN_POINT('',(-82.,21.,435.75));
#319 = CIRCLE('',#320,2.25);
#320 = AXIS2_PLACEMENT_3D('',#321,#322,#323);
#321 = CARTESIAN_POINT('',(-82.,21.,438.));
#322 = DIRECTION('',(-1.,0.,0.));
#323 = DIRECTION('',(-0.,-0.,-1.));
#324 = FACE_BOUND('',#325,.F.);
#325 = EDGE_LOOP('',(#326));
#326 = ORIENTED_EDGE('',*,*,#327,.T.);
#327 = EDGE_CURVE('',#328,#328,#330,.T.);
#328 = VERTEX_POINT('',#329);
#329 = CARTESIAN_POINT('',(-82.,-21.,435.75));
#330 = CIRCLE('',#331,2.25);
#331 = AXIS2_PLACEMENT_3D('',#332,#333,#334);
#332 = CARTESIAN_POINT('',(-82.,-21.,438.));
#333 = DIRECTION('',(-1.,0.,0.));
#334 = DIRECTION('',(-0.,-0.,-1.));
#335 = PLANE('',#336);
#336 = AXIS2_PLACEMENT_3D('',#337,#338,#339);
#337 = CARTESIAN_POINT('',(-82.,-28.,425.));
#338 = DIRECTION('',(-1.,-0.,-0.));
#339 = DIRECTION('',(0.,0.,-1.));
#340 = ADVANCED_FACE('',(#341),#359,.T.);
#341 = FACE_BOUND('',#342,.F.);
#342 = EDGE_LOOP('',(#343,#351,#357,#358));
#343 = ORIENTED_EDGE('',*,*,#344,.F.);
#344 = EDGE_CURVE('',#345,#300,#347,.T.);
#345 = VERTEX_POINT('',#346);
#346 = CARTESIAN_POINT('',(-68.,28.,425.));
#347 = LINE('',#348,#349);
#348 = CARTESIAN_POINT('',(-68.,28.,425.));
#349 = VECTOR('',#350,1.);
#350 = DIRECTION('',(-1.,-0.,-0.));
#351 = ORIENTED_EDGE('',*,*,#352,.T.);
#352 = EDGE_CURVE('',#345,#66,#353,.T.);
#353 = LINE('',#354,#355);
#354 = CARTESIAN_POINT('',(-68.,28.,425.));
#355 = VECTOR('',#356,1.);
#356 = DIRECTION('',(0.,0.,1.));
#357 = ORIENTED_EDGE('',*,*,#73,.T.);
#358 = ORIENTED_EDGE('',*,*,#307,.F.);
#359 = PLANE('',#360);
#360 = AXIS2_PLACEMENT_3D('',#361,#362,#363);
#361 = CARTESIAN_POINT('',(-68.,28.,425.));
#362 = DIRECTION('',(0.,1.,0.));
#363 = DIRECTION('',(0.,0.,-1.));
#364 = ADVANCED_FACE('',(#365,#376,#387),#398,.F.);
#365 = FACE_BOUND('',#366,.T.);
#366 = EDGE_LOOP('',(#367,#368,#374,#375));
#367 = ORIENTED_EDGE('',*,*,#277,.F.);
#368 = ORIENTED_EDGE('',*,*,#369,.T.);
#369 = EDGE_CURVE('',#268,#345,#370,.T.);
#370 = LINE('',#371,#372);
#371 = CARTESIAN_POINT('',(-68.,-28.,425.));
#372 = VECTOR('',#373,1.);
#373 = DIRECTION('',(0.,1.,0.));
#374 = ORIENTED_EDGE('',*,*,#352,.T.);
#375 = ORIENTED_EDGE('',*,*,#65,.F.);
#376 = FACE_BOUND('',#377,.T.);
#377 = EDGE_LOOP('',(#378));
#378 = ORIENTED_EDGE('',*,*,#379,.T.);
#379 = EDGE_CURVE('',#380,#380,#382,.T.);
#380 = VERTEX_POINT('',#381);
#381 = CARTESIAN_POINT('',(-68.,21.,435.75));
#382 = CIRCLE('',#383,2.25);
#383 = AXIS2_PLACEMENT_3D('',#384,#385,#386);
#384 = CARTESIAN_POINT('',(-68.,21.,438.));
#385 = DIRECTION('',(-1.,0.,0.));
#386 = DIRECTION('',(-0.,-0.,-1.));
#387 = FACE_BOUND('',#388,.T.);
#388 = EDGE_LOOP('',(#389));
#389 = ORIENTED_EDGE('',*,*,#390,.T.);
#390 = EDGE_CURVE('',#391,#391,#393,.T.);
#391 = VERTEX_POINT('',#392);
#392 = CARTESIAN_POINT('',(-68.,-21.,435.75));
#393 = CIRCLE('',#394,2.25);
#394 = AXIS2_PLACEMENT_3D('',#395,#396,#397);
#395 = CARTESIAN_POINT('',(-68.,-21.,438.));
#396 = DIRECTION('',(-1.,0.,0.));
#397 = DIRECTION('',(-0.,-0.,-1.));
#398 = PLANE('',#399);
#399 = AXIS2_PLACEMENT_3D('',#400,#401,#402);
#400 = CARTESIAN_POINT('',(-68.,-28.,425.));
#401 = DIRECTION('',(-1.,-0.,-0.));
#402 = DIRECTION('',(0.,0.,-1.));
#403 = ADVANCED_FACE('',(#404),#417,.T.);
#404 = FACE_BOUND('',#405,.F.);
#405 = EDGE_LOOP('',(#406,#413,#414,#415,#416));
#406 = ORIENTED_EDGE('',*,*,#407,.F.);
#407 = EDGE_CURVE('',#237,#121,#408,.T.);
#408 = CIRCLE('',#409,60.);
#409 = AXIS2_PLACEMENT_3D('',#410,#411,#412);
#410 = CARTESIAN_POINT('',(-88.,0.,580.));
#411 = DIRECTION('',(1.,0.,0.));
#412 = DIRECTION('',(0.,0.,1.));
#413 = ORIENTED_EDGE('',*,*,#236,.F.);
#414 = ORIENTED_EDGE('',*,*,#153,.T.);
#415 = ORIENTED_EDGE('',*,*,#144,.T.);
#416 = ORIENTED_EDGE('',*,*,#128,.T.);
#417 = CYLINDRICAL_SURFACE('',#418,60.);
#418 = AXIS2_PLACEMENT_3D('',#419,#420,#421);
#419 = CARTESIAN_POINT('',(-60.,0.,580.));
#420 = DIRECTION('',(-1.,-0.,-0.));
#421 = DIRECTION('',(0.,0.,1.));
#422 = ADVANCED_FACE('',(#423,#435),#446,.T.);
#423 = FACE_BOUND('',#424,.F.);
#424 = EDGE_LOOP('',(#425,#426,#433,#434));
#425 = ORIENTED_EDGE('',*,*,#120,.F.);
#426 = ORIENTED_EDGE('',*,*,#427,.T.);
#427 = EDGE_CURVE('',#113,#245,#428,.T.);
#428 = CIRCLE('',#429,61.);
#429 = AXIS2_PLACEMENT_3D('',#430,#431,#432);
#430 = CARTESIAN_POINT('',(-88.,0.,580.));
#431 = DIRECTION('',(1.,0.,0.));
#432 = DIRECTION('',(0.,0.,1.));
#433 = ORIENTED_EDGE('',*,*,#244,.F.);
#434 = ORIENTED_EDGE('',*,*,#407,.T.);
#435 = FACE_BOUND('',#436,.F.);
#436 = EDGE_LOOP('',(#437));
#437 = ORIENTED_EDGE('',*,*,#438,.F.);
#438 = EDGE_CURVE('',#439,#439,#441,.T.);
#439 = VERTEX_POINT('',#440);
#440 = CARTESIAN_POINT('',(-88.,1.408343819019E-14,637.5));
#441 = CIRCLE('',#442,57.5);
#442 = AXIS2_PLACEMENT_3D('',#443,#444,#445);
#443 = CARTESIAN_POINT('',(-88.,0.,580.));
#444 = DIRECTION('',(1.,0.,0.));
#445 = DIRECTION('',(0.,0.,1.));
#446 = PLANE('',#447);
#447 = AXIS2_PLACEMENT_3D('',#448,#449,#450);
#448 = CARTESIAN_POINT('',(-88.,0.,580.));
#449 = DIRECTION('',(-1.,-0.,-0.));
#450 = DIRECTION('',(0.,0.,-1.));
#451 = ADVANCED_FACE('',(#452),#458,.F.);
#452 = FACE_BOUND('',#453,.T.);
#453 = EDGE_LOOP('',(#454,#455,#456,#457));
#454 = ORIENTED_EDGE('',*,*,#208,.F.);
#455 = ORIENTED_EDGE('',*,*,#112,.F.);
#456 = ORIENTED_EDGE('',*,*,#427,.T.);
#457 = ORIENTED_EDGE('',*,*,#252,.T.);
#458 = CYLINDRICAL_SURFACE('',#459,61.);
#459 = AXIS2_PLACEMENT_3D('',#460,#461,#462);
#460 = CARTESIAN_POINT('',(-88.,0.,580.));
#461 = DIRECTION('',(-1.,-0.,-0.));
#462 = DIRECTION('',(0.,0.,1.));
#463 = ADVANCED_FACE('',(#464),#517,.F.);
#464 = FACE_BOUND('',#465,.T.);
#465 = EDGE_LOOP('',(#466,#477,#485,#494,#500,#501,#502,#511));
#466 = ORIENTED_EDGE('',*,*,#467,.F.);
#467 = EDGE_CURVE('',#468,#470,#472,.T.);
#468 = VERTEX_POINT('',#469);
#469 = CARTESIAN_POINT('',(-90.,-3.,595.00299970006));
#470 = VERTEX_POINT('',#471);
#471 = CARTESIAN_POINT('',(-90.,3.,595.00299970006));
#472 = CIRCLE('',#473,15.3);
#473 = AXIS2_PLACEMENT_3D('',#474,#475,#476);
#474 = CARTESIAN_POINT('',(-90.,0.,580.));
#475 = DIRECTION('',(1.,0.,0.));
#476 = DIRECTION('',(0.,0.,1.));
#477 = ORIENTED_EDGE('',*,*,#478,.F.);
#478 = EDGE_CURVE('',#479,#468,#481,.T.);
#479 = VERTEX_POINT('',#480);
#480 = CARTESIAN_POINT('',(-85.01,-3.,595.00299970006));
#481 = LINE('',#482,#483);
#482 = CARTESIAN_POINT('',(-59.,-3.,595.00299970006));
#483 = VECTOR('',#484,1.);
#484 = DIRECTION('',(-1.,-0.,-0.));
#485 = ORIENTED_EDGE('',*,*,#486,.T.);
#486 = EDGE_CURVE('',#479,#487,#489,.T.);
#487 = VERTEX_POINT('',#488);
#488 = CARTESIAN_POINT('',(-85.01,3.747419205391E-15,595.3));
#489 = CIRCLE('',#490,15.3);
#490 = AXIS2_PLACEMENT_3D('',#491,#492,#493);
#491 = CARTESIAN_POINT('',(-85.01,0.,580.));
#492 = DIRECTION('',(-1.,0.,0.));
#493 = DIRECTION('',(0.,0.,1.));
#494 = ORIENTED_EDGE('',*,*,#495,.F.);
#495 = EDGE_CURVE('',#171,#487,#496,.T.);
#496 = LINE('',#497,#498);
#497 = CARTESIAN_POINT('',(-59.,3.747419205391E-15,595.3));
#498 = VECTOR('',#499,1.);
#499 = DIRECTION('',(-1.,-0.,-0.));
#500 = ORIENTED_EDGE('',*,*,#170,.T.);
#501 = ORIENTED_EDGE('',*,*,#495,.T.);
#502 = ORIENTED_EDGE('',*,*,#503,.T.);
#503 = EDGE_CURVE('',#487,#504,#506,.T.);
#504 = VERTEX_POINT('',#505);
#505 = CARTESIAN_POINT('',(-85.01,3.,595.00299970006));
#506 = CIRCLE('',#507,15.3);
#507 = AXIS2_PLACEMENT_3D('',#508,#509,#510);
#508 = CARTESIAN_POINT('',(-85.01,0.,580.));
#509 = DIRECTION('',(-1.,0.,0.));
#510 = DIRECTION('',(0.,0.,1.));
#511 = ORIENTED_EDGE('',*,*,#512,.T.);
#512 = EDGE_CURVE('',#504,#470,#513,.T.);
#513 = LINE('',#514,#515);
#514 = CARTESIAN_POINT('',(-59.,3.,595.00299970006));
#515 = VECTOR('',#516,1.);
#516 = DIRECTION('',(-1.,-0.,-0.));
#517 = CYLINDRICAL_SURFACE('',#518,15.3);
#518 = AXIS2_PLACEMENT_3D('',#519,#520,#521);
#519 = CARTESIAN_POINT('',(-59.,0.,580.));
#520 = DIRECTION('',(-1.,-0.,-0.));
#521 = DIRECTION('',(0.,0.,1.));
#522 = ADVANCED_FACE('',(#523),#534,.F.);
#523 = FACE_BOUND('',#524,.T.);
#524 = EDGE_LOOP('',(#525,#526,#532,#533));
#525 = ORIENTED_EDGE('',*,*,#217,.F.);
#526 = ORIENTED_EDGE('',*,*,#527,.F.);
#527 = EDGE_CURVE('',#182,#218,#528,.T.);
#528 = LINE('',#529,#530);
#529 = CARTESIAN_POINT('',(-59.,2.277843046414E-15,469.3));
#530 = VECTOR('',#531,1.);
#531 = DIRECTION('',(-1.,-0.,-0.));
#532 = ORIENTED_EDGE('',*,*,#181,.T.);
#533 = ORIENTED_EDGE('',*,*,#527,.T.);
#534 = CYLINDRICAL_SURFACE('',#535,9.3);
#535 = AXIS2_PLACEMENT_3D('',#536,#537,#538);
#536 = CARTESIAN_POINT('',(-59.,0.,460.));
#537 = DIRECTION('',(-1.,-0.,-0.));
#538 = DIRECTION('',(0.,0.,1.));
#539 = ADVANCED_FACE('',(#540),#546,.F.);
#540 = FACE_BOUND('',#541,.T.);
#541 = EDGE_LOOP('',(#542,#543,#544,#545));
#542 = ORIENTED_EDGE('',*,*,#369,.F.);
#543 = ORIENTED_EDGE('',*,*,#267,.T.);
#544 = ORIENTED_EDGE('',*,*,#299,.T.);
#545 = ORIENTED_EDGE('',*,*,#344,.F.);
#546 = PLANE('',#547);
#547 = AXIS2_PLACEMENT_3D('',#548,#549,#550);
#548 = CARTESIAN_POINT('',(-68.,-28.,425.));
#549 = DIRECTION('',(0.,0.,1.));
#550 = DIRECTION('',(1.,0.,0.));
#551 = ADVANCED_FACE('',(#552),#563,.F.);
#552 = FACE_BOUND('',#553,.T.);
#553 = EDGE_LOOP('',(#554,#555,#561,#562));
#554 = ORIENTED_EDGE('',*,*,#379,.F.);
#555 = ORIENTED_EDGE('',*,*,#556,.F.);
#556 = EDGE_CURVE('',#317,#380,#557,.T.);
#557 = LINE('',#558,#559);
#558 = CARTESIAN_POINT('',(-91.01,21.,435.75));
#559 = VECTOR('',#560,1.);
#560 = DIRECTION('',(1.,0.,0.));
#561 = ORIENTED_EDGE('',*,*,#316,.T.);
#562 = ORIENTED_EDGE('',*,*,#556,.T.);
#563 = CYLINDRICAL_SURFACE('',#564,2.25);
#564 = AXIS2_PLACEMENT_3D('',#565,#566,#567);
#565 = CARTESIAN_POINT('',(-91.01,21.,438.));
#566 = DIRECTION('',(1.,0.,0.));
#567 = DIRECTION('',(-0.,-0.,-1.));
#568 = ADVANCED_FACE('',(#569),#580,.F.);
#569 = FACE_BOUND('',#570,.T.);
#570 = EDGE_LOOP('',(#571,#572,#578,#579));
#571 = ORIENTED_EDGE('',*,*,#390,.F.);
#572 = ORIENTED_EDGE('',*,*,#573,.F.);
#573 = EDGE_CURVE('',#328,#391,#574,.T.);
#574 = LINE('',#575,#576);
#575 = CARTESIAN_POINT('',(-91.01,-21.,435.75));
#576 = VECTOR('',#577,1.);
#577 = DIRECTION('',(1.,0.,0.));
#578 = ORIENTED_EDGE('',*,*,#327,.T.);
#579 = ORIENTED_EDGE('',*,*,#573,.T.);
#580 = CYLINDRICAL_SURFACE('',#581,2.25);
#581 = AXIS2_PLACEMENT_3D('',#582,#583,#584);
#582 = CARTESIAN_POINT('',(-91.01,-21.,438.));
#583 = DIRECTION('',(1.,0.,0.));
#584 = DIRECTION('',(-0.,-0.,-1.));
#585 = ADVANCED_FACE('',(#586),#605,.T.);
#586 = FACE_BOUND('',#587,.F.);
#587 = EDGE_LOOP('',(#588,#597,#603,#604));
#588 = ORIENTED_EDGE('',*,*,#589,.F.);
#589 = EDGE_CURVE('',#590,#590,#592,.T.);
#590 = VERTEX_POINT('',#591);
#591 = CARTESIAN_POINT('',(-90.,1.408343819019E-14,637.5));
#592 = CIRCLE('',#593,57.5);
#593 = AXIS2_PLACEMENT_3D('',#594,#595,#596);
#594 = CARTESIAN_POINT('',(-90.,0.,580.));
#595 = DIRECTION('',(1.,0.,0.));
#596 = DIRECTION('',(0.,0.,1.));
#597 = ORIENTED_EDGE('',*,*,#598,.F.);
#598 = EDGE_CURVE('',#439,#590,#599,.T.);
#599 = LINE('',#600,#601);
#600 = CARTESIAN_POINT('',(-88.,1.408343819019E-14,637.5));
#601 = VECTOR('',#602,1.);
#602 = DIRECTION('',(-1.,-0.,-0.));
#603 = ORIENTED_EDGE('',*,*,#438,.T.);
#604 = ORIENTED_EDGE('',*,*,#598,.T.);
#605 = CYLINDRICAL_SURFACE('',#606,57.5);
#606 = AXIS2_PLACEMENT_3D('',#607,#608,#609);
#607 = CARTESIAN_POINT('',(-88.,0.,580.));
#608 = DIRECTION('',(-1.,-0.,-0.));
#609 = DIRECTION('',(0.,0.,1.));
#610 = ADVANCED_FACE('',(#611,#622),#647,.T.);
#611 = FACE_BOUND('',#612,.F.);
#612 = EDGE_LOOP('',(#613));
#613 = ORIENTED_EDGE('',*,*,#614,.T.);
#614 = EDGE_CURVE('',#615,#615,#617,.T.);
#615 = VERTEX_POINT('',#616);
#616 = CARTESIAN_POINT('',(-90.,8.327598234202E-15,614.));
#617 = CIRCLE('',#618,34.);
#618 = AXIS2_PLACEMENT_3D('',#619,#620,#621);
#619 = CARTESIAN_POINT('',(-90.,0.,580.));
#620 = DIRECTION('',(1.,0.,0.));
#621 = DIRECTION('',(0.,0.,1.));
#622 = FACE_BOUND('',#623,.F.);
#623 = EDGE_LOOP('',(#624,#625,#633,#641));
#624 = ORIENTED_EDGE('',*,*,#467,.F.);
#625 = ORIENTED_EDGE('',*,*,#626,.T.);
#626 = EDGE_CURVE('',#468,#627,#629,.T.);
#627 = VERTEX_POINT('',#628);
#628 = CARTESIAN_POINT('',(-90.,-3.,596.));
#629 = LINE('',#630,#631);
#630 = CARTESIAN_POINT('',(-90.,-3.,562.38267924707));
#631 = VECTOR('',#632,1.);
#632 = DIRECTION('',(0.,0.,1.));
#633 = ORIENTED_EDGE('',*,*,#634,.F.);
#634 = EDGE_CURVE('',#635,#627,#637,.T.);
#635 = VERTEX_POINT('',#636);
#636 = CARTESIAN_POINT('',(-90.,3.,596.));
#637 = LINE('',#638,#639);
#638 = CARTESIAN_POINT('',(-90.,-1.5,596.));
#639 = VECTOR('',#640,1.);
#640 = DIRECTION('',(0.,-1.,0.));
#641 = ORIENTED_EDGE('',*,*,#642,.F.);
#642 = EDGE_CURVE('',#470,#635,#643,.T.);
#643 = LINE('',#644,#645);
#644 = CARTESIAN_POINT('',(-90.,3.,562.38267924707));
#645 = VECTOR('',#646,1.);
#646 = DIRECTION('',(0.,0.,1.));
#647 = PLANE('',#648);
#648 = AXIS2_PLACEMENT_3D('',#649,#650,#651);
#649 = CARTESIAN_POINT('',(-90.,0.,540.76535849415));
#650 = DIRECTION('',(-1.,-0.,-0.));
#651 = DIRECTION('',(0.,0.,-1.));
#652 = ADVANCED_FACE('',(#653),#671,.F.);
#653 = FACE_BOUND('',#654,.F.);
#654 = EDGE_LOOP('',(#655,#663,#664,#665));
#655 = ORIENTED_EDGE('',*,*,#656,.F.);
#656 = EDGE_CURVE('',#504,#657,#659,.T.);
#657 = VERTEX_POINT('',#658);
#658 = CARTESIAN_POINT('',(-85.01,3.,596.));
#659 = LINE('',#660,#661);
#660 = CARTESIAN_POINT('',(-85.01,3.,584.));
#661 = VECTOR('',#662,1.);
#662 = DIRECTION('',(0.,0.,1.));
#663 = ORIENTED_EDGE('',*,*,#512,.T.);
#664 = ORIENTED_EDGE('',*,*,#642,.T.);
#665 = ORIENTED_EDGE('',*,*,#666,.T.);
#666 = EDGE_CURVE('',#635,#657,#667,.T.);
#667 = LINE('',#668,#669);
#668 = CARTESIAN_POINT('',(-90.01,3.,596.));
#669 = VECTOR('',#670,1.);
#670 = DIRECTION('',(1.,0.,0.));
#671 = PLANE('',#672);
#672 = AXIS2_PLACEMENT_3D('',#673,#674,#675);
#673 = CARTESIAN_POINT('',(-90.01,3.,584.));
#674 = DIRECTION('',(0.,1.,0.));
#675 = DIRECTION('',(0.,0.,1.));
#676 = ADVANCED_FACE('',(#677),#696,.F.);
#677 = FACE_BOUND('',#678,.F.);
#678 = EDGE_LOOP('',(#679,#687,#688,#689,#690));
#679 = ORIENTED_EDGE('',*,*,#680,.F.);
#680 = EDGE_CURVE('',#479,#681,#683,.T.);
#681 = VERTEX_POINT('',#682);
#682 = CARTESIAN_POINT('',(-85.01,-3.,596.));
#683 = LINE('',#684,#685);
#684 = CARTESIAN_POINT('',(-85.01,-3.,584.));
#685 = VECTOR('',#686,1.);
#686 = DIRECTION('',(0.,0.,1.));
#687 = ORIENTED_EDGE('',*,*,#486,.T.);
#688 = ORIENTED_EDGE('',*,*,#503,.T.);
#689 = ORIENTED_EDGE('',*,*,#656,.T.);
#690 = ORIENTED_EDGE('',*,*,#691,.F.);
#691 = EDGE_CURVE('',#681,#657,#692,.T.);
#692 = LINE('',#693,#694);
#693 = CARTESIAN_POINT('',(-85.01,-3.,596.));
#694 = VECTOR('',#695,1.);
#695 = DIRECTION('',(0.,1.,0.));
#696 = PLANE('',#697);
#697 = AXIS2_PLACEMENT_3D('',#698,#699,#700);
#698 = CARTESIAN_POINT('',(-85.01,-3.,584.));
#699 = DIRECTION('',(1.,0.,0.));
#700 = DIRECTION('',(0.,0.,1.));
#701 = ADVANCED_FACE('',(#702),#713,.T.);
#702 = FACE_BOUND('',#703,.T.);
#703 = EDGE_LOOP('',(#704,#705,#706,#707));
#704 = ORIENTED_EDGE('',*,*,#680,.F.);
#705 = ORIENTED_EDGE('',*,*,#478,.T.);
#706 = ORIENTED_EDGE('',*,*,#626,.T.);
#707 = ORIENTED_EDGE('',*,*,#708,.T.);
#708 = EDGE_CURVE('',#627,#681,#709,.T.);
#709 = LINE('',#710,#711);
#710 = CARTESIAN_POINT('',(-90.01,-3.,596.));
#711 = VECTOR('',#712,1.);
#712 = DIRECTION('',(1.,0.,0.));
#713 = PLANE('',#714);
#714 = AXIS2_PLACEMENT_3D('',#715,#716,#717);
#715 = CARTESIAN_POINT('',(-90.01,-3.,584.));
#716 = DIRECTION('',(0.,1.,0.));
#717 = DIRECTION('',(0.,0.,1.));
#718 = ADVANCED_FACE('',(#719,#722),#733,.T.);
#719 = FACE_BOUND('',#720,.F.);
#720 = EDGE_LOOP('',(#721));
#721 = ORIENTED_EDGE('',*,*,#589,.T.);
#722 = FACE_BOUND('',#723,.F.);
#723 = EDGE_LOOP('',(#724));
#724 = ORIENTED_EDGE('',*,*,#725,.F.);
#725 = EDGE_CURVE('',#726,#726,#728,.T.);
#726 = VERTEX_POINT('',#727);
#727 = CARTESIAN_POINT('',(-90.,1.322618543079E-14,634.));
#728 = CIRCLE('',#729,54.);
#729 = AXIS2_PLACEMENT_3D('',#730,#731,#732);
#730 = CARTESIAN_POINT('',(-90.,0.,580.));
#731 = DIRECTION('',(1.,0.,0.));
#732 = DIRECTION('',(0.,0.,1.));
#733 = PLANE('',#734);
#734 = AXIS2_PLACEMENT_3D('',#735,#736,#737);
#735 = CARTESIAN_POINT('',(-90.,0.,540.76535849415));
#736 = DIRECTION('',(-1.,-0.,-0.));
#737 = DIRECTION('',(0.,0.,-1.));
#738 = ADVANCED_FACE('',(#739),#758,.T.);
#739 = FACE_BOUND('',#740,.F.);
#740 = EDGE_LOOP('',(#741,#742,#750,#757));
#741 = ORIENTED_EDGE('',*,*,#614,.F.);
#742 = ORIENTED_EDGE('',*,*,#743,.F.);
#743 = EDGE_CURVE('',#744,#615,#746,.T.);
#744 = VERTEX_POINT('',#745);
#745 = CARTESIAN_POINT('',(-88.5,8.327598234202E-15,614.));
#746 = LINE('',#747,#748);
#747 = CARTESIAN_POINT('',(-88.5,8.327598234202E-15,614.));
#748 = VECTOR('',#749,1.);
#749 = DIRECTION('',(-1.,-0.,-0.));
#750 = ORIENTED_EDGE('',*,*,#751,.T.);
#751 = EDGE_CURVE('',#744,#744,#752,.T.);
#752 = CIRCLE('',#753,34.);
#753 = AXIS2_PLACEMENT_3D('',#754,#755,#756);
#754 = CARTESIAN_POINT('',(-88.5,0.,580.));
#755 = DIRECTION('',(1.,0.,0.));
#756 = DIRECTION('',(0.,0.,1.));
#757 = ORIENTED_EDGE('',*,*,#743,.T.);
#758 = CYLINDRICAL_SURFACE('',#759,34.);
#759 = AXIS2_PLACEMENT_3D('',#760,#761,#762);
#760 = CARTESIAN_POINT('',(-88.5,0.,580.));
#761 = DIRECTION('',(-1.,-0.,-0.));
#762 = DIRECTION('',(0.,0.,1.));
#763 = ADVANCED_FACE('',(#764),#770,.F.);
#764 = FACE_BOUND('',#765,.F.);
#765 = EDGE_LOOP('',(#766,#767,#768,#769));
#766 = ORIENTED_EDGE('',*,*,#666,.F.);
#767 = ORIENTED_EDGE('',*,*,#634,.T.);
#768 = ORIENTED_EDGE('',*,*,#708,.T.);
#769 = ORIENTED_EDGE('',*,*,#691,.T.);
#770 = PLANE('',#771);
#771 = AXIS2_PLACEMENT_3D('',#772,#773,#774);
#772 = CARTESIAN_POINT('',(-90.01,-3.,596.));
#773 = DIRECTION('',(0.,0.,1.));
#774 = DIRECTION('',(1.,0.,0.));
#775 = ADVANCED_FACE('',(#776),#795,.F.);
#776 = FACE_BOUND('',#777,.T.);
#777 = EDGE_LOOP('',(#778,#779,#787,#794));
#778 = ORIENTED_EDGE('',*,*,#725,.F.);
#779 = ORIENTED_EDGE('',*,*,#780,.F.);
#780 = EDGE_CURVE('',#781,#726,#783,.T.);
#781 = VERTEX_POINT('',#782);
#782 = CARTESIAN_POINT('',(-88.5,1.322618543079E-14,634.));
#783 = LINE('',#784,#785);
#784 = CARTESIAN_POINT('',(-88.5,1.322618543079E-14,634.));
#785 = VECTOR('',#786,1.);
#786 = DIRECTION('',(-1.,-0.,-0.));
#787 = ORIENTED_EDGE('',*,*,#788,.T.);
#788 = EDGE_CURVE('',#781,#781,#789,.T.);
#789 = CIRCLE('',#790,54.);
#790 = AXIS2_PLACEMENT_3D('',#791,#792,#793);
#791 = CARTESIAN_POINT('',(-88.5,0.,580.));
#792 = DIRECTION('',(1.,0.,0.));
#793 = DIRECTION('',(0.,0.,1.));
#794 = ORIENTED_EDGE('',*,*,#780,.T.);
#795 = CYLINDRICAL_SURFACE('',#796,54.);
#796 = AXIS2_PLACEMENT_3D('',#797,#798,#799);
#797 = CARTESIAN_POINT('',(-88.5,0.,580.));
#798 = DIRECTION('',(-1.,-0.,-0.));
#799 = DIRECTION('',(0.,0.,1.));
#800 = ADVANCED_FACE('',(#801,#804,#815,#826,#837,#840),#851,.T.);
#801 = FACE_BOUND('',#802,.F.);
#802 = EDGE_LOOP('',(#803));
#803 = ORIENTED_EDGE('',*,*,#788,.T.);
#804 = FACE_BOUND('',#805,.F.);
#805 = EDGE_LOOP('',(#806));
#806 = ORIENTED_EDGE('',*,*,#807,.F.);
#807 = EDGE_CURVE('',#808,#808,#810,.T.);
#808 = VERTEX_POINT('',#809);
#809 = CARTESIAN_POINT('',(-88.5,31.112698372208,551.68730162779));
#810 = CIRCLE('',#811,2.8);
#811 = AXIS2_PLACEMENT_3D('',#812,#813,#814);
#812 = CARTESIAN_POINT('',(-88.5,31.112698372208,548.88730162779));
#813 = DIRECTION('',(1.,0.,-0.));
#814 = DIRECTION('',(0.,0.,1.));
#815 = FACE_BOUND('',#816,.F.);
#816 = EDGE_LOOP('',(#817));
#817 = ORIENTED_EDGE('',*,*,#818,.F.);
#818 = EDGE_CURVE('',#819,#819,#821,.T.);
#819 = VERTEX_POINT('',#820);
#820 = CARTESIAN_POINT('',(-88.5,31.112698372208,613.9126983722));
#821 = CIRCLE('',#822,2.8);
#822 = AXIS2_PLACEMENT_3D('',#823,#824,#825);
#823 = CARTESIAN_POINT('',(-88.5,31.112698372208,611.1126983722));
#824 = DIRECTION('',(1.,0.,-0.));
#825 = DIRECTION('',(0.,0.,1.));
#826 = FACE_BOUND('',#827,.F.);
#827 = EDGE_LOOP('',(#828));
#828 = ORIENTED_EDGE('',*,*,#829,.F.);
#829 = EDGE_CURVE('',#830,#830,#832,.T.);
#830 = VERTEX_POINT('',#831);
#831 = CARTESIAN_POINT('',(-88.5,-31.1126983722,551.68730162779));
#832 = CIRCLE('',#833,2.8);
#833 = AXIS2_PLACEMENT_3D('',#834,#835,#836);
#834 = CARTESIAN_POINT('',(-88.5,-31.1126983722,548.88730162779));
#835 = DIRECTION('',(1.,0.,-0.));
#836 = DIRECTION('',(0.,0.,1.));
#837 = FACE_BOUND('',#838,.F.);
#838 = EDGE_LOOP('',(#839));
#839 = ORIENTED_EDGE('',*,*,#751,.F.);
#840 = FACE_BOUND('',#841,.F.);
#841 = EDGE_LOOP('',(#842));
#842 = ORIENTED_EDGE('',*,*,#843,.F.);
#843 = EDGE_CURVE('',#844,#844,#846,.T.);
#844 = VERTEX_POINT('',#845);
#845 = CARTESIAN_POINT('',(-88.5,-31.1126983722,613.9126983722));
#846 = CIRCLE('',#847,2.8);
#847 = AXIS2_PLACEMENT_3D('',#848,#849,#850);
#848 = CARTESIAN_POINT('',(-88.5,-31.1126983722,611.1126983722));
#849 = DIRECTION('',(1.,0.,-0.));
#850 = DIRECTION('',(0.,0.,1.));
#851 = PLANE('',#852);
#852 = AXIS2_PLACEMENT_3D('',#853,#854,#855);
#853 = CARTESIAN_POINT('',(-88.5,0.,580.));
#854 = DIRECTION('',(-1.,-0.,-0.));
#855 = DIRECTION('',(0.,0.,-1.));
#856 = ADVANCED_FACE('',(#857),#876,.F.);
#857 = FACE_BOUND('',#858,.F.);
#858 = EDGE_LOOP('',(#859,#867,#874,#875));
#859 = ORIENTED_EDGE('',*,*,#860,.T.);
#860 = EDGE_CURVE('',#808,#861,#863,.T.);
#861 = VERTEX_POINT('',#862);
#862 = CARTESIAN_POINT('',(-80.51,31.112698372208,551.68730162779));
#863 = LINE('',#864,#865);
#864 = CARTESIAN_POINT('',(-90.01,31.112698372208,551.68730162779));
#865 = VECTOR('',#866,1.);
#866 = DIRECTION('',(1.,0.,0.));
#867 = ORIENTED_EDGE('',*,*,#868,.F.);
#868 = EDGE_CURVE('',#861,#861,#869,.T.);
#869 = CIRCLE('',#870,2.8);
#870 = AXIS2_PLACEMENT_3D('',#871,#872,#873);
#871 = CARTESIAN_POINT('',(-80.51,31.112698372208,548.88730162779));
#872 = DIRECTION('',(1.,0.,-0.));
#873 = DIRECTION('',(0.,0.,1.));
#874 = ORIENTED_EDGE('',*,*,#860,.F.);
#875 = ORIENTED_EDGE('',*,*,#807,.T.);
#876 = CYLINDRICAL_SURFACE('',#877,2.8);
#877 = AXIS2_PLACEMENT_3D('',#878,#879,#880);
#878 = CARTESIAN_POINT('',(-90.01,31.112698372208,548.88730162779));
#879 = DIRECTION('',(1.,0.,0.));
#880 = DIRECTION('',(0.,0.,1.));
#881 = ADVANCED_FACE('',(#882),#901,.F.);
#882 = FACE_BOUND('',#883,.F.);
#883 = EDGE_LOOP('',(#884,#892,#899,#900));
#884 = ORIENTED_EDGE('',*,*,#885,.T.);
#885 = EDGE_CURVE('',#819,#886,#888,.T.);
#886 = VERTEX_POINT('',#887);
#887 = CARTESIAN_POINT('',(-80.51,31.112698372208,613.9126983722));
#888 = LINE('',#889,#890);
#889 = CARTESIAN_POINT('',(-90.01,31.112698372208,613.9126983722));
#890 = VECTOR('',#891,1.);
#891 = DIRECTION('',(1.,0.,0.));
#892 = ORIENTED_EDGE('',*,*,#893,.F.);
#893 = EDGE_CURVE('',#886,#886,#894,.T.);
#894 = CIRCLE('',#895,2.8);
#895 = AXIS2_PLACEMENT_3D('',#896,#897,#898);
#896 = CARTESIAN_POINT('',(-80.51,31.112698372208,611.1126983722));
#897 = DIRECTION('',(1.,0.,-0.));
#898 = DIRECTION('',(0.,0.,1.));
#899 = ORIENTED_EDGE('',*,*,#885,.F.);
#900 = ORIENTED_EDGE('',*,*,#818,.T.);
#901 = CYLINDRICAL_SURFACE('',#902,2.8);
#902 = AXIS2_PLACEMENT_3D('',#903,#904,#905);
#903 = CARTESIAN_POINT('',(-90.01,31.112698372208,611.1126983722));
#904 = DIRECTION('',(1.,0.,0.));
#905 = DIRECTION('',(0.,0.,1.));
#906 = ADVANCED_FACE('',(#907),#926,.F.);
#907 = FACE_BOUND('',#908,.F.);
#908 = EDGE_LOOP('',(#909,#917,#924,#925));
#909 = ORIENTED_EDGE('',*,*,#910,.T.);
#910 = EDGE_CURVE('',#830,#911,#913,.T.);
#911 = VERTEX_POINT('',#912);
#912 = CARTESIAN_POINT('',(-80.51,-31.1126983722,551.68730162779));
#913 = LINE('',#914,#915);
#914 = CARTESIAN_POINT('',(-90.01,-31.1126983722,551.68730162779));
#915 = VECTOR('',#916,1.);
#916 = DIRECTION('',(1.,0.,0.));
#917 = ORIENTED_EDGE('',*,*,#918,.F.);
#918 = EDGE_CURVE('',#911,#911,#919,.T.);
#919 = CIRCLE('',#920,2.8);
#920 = AXIS2_PLACEMENT_3D('',#921,#922,#923);
#921 = CARTESIAN_POINT('',(-80.51,-31.1126983722,548.88730162779));
#922 = DIRECTION('',(1.,0.,-0.));
#923 = DIRECTION('',(0.,0.,1.));
#924 = ORIENTED_EDGE('',*,*,#910,.F.);
#925 = ORIENTED_EDGE('',*,*,#829,.T.);
#926 = CYLINDRICAL_SURFACE('',#927,2.8);
#927 = AXIS2_PLACEMENT_3D('',#928,#929,#930);
#928 = CARTESIAN_POINT('',(-90.01,-31.1126983722,548.88730162779));
#929 = DIRECTION('',(1.,0.,0.));
#930 = DIRECTION('',(0.,0.,1.));
#931 = ADVANCED_FACE('',(#932),#951,.F.);
#932 = FACE_BOUND('',#933,.F.);
#933 = EDGE_LOOP('',(#934,#942,#949,#950));
#934 = ORIENTED_EDGE('',*,*,#935,.T.);
#935 = EDGE_CURVE('',#844,#936,#938,.T.);
#936 = VERTEX_POINT('',#937);
#937 = CARTESIAN_POINT('',(-80.51,-31.1126983722,613.9126983722));
#938 = LINE('',#939,#940);
#939 = CARTESIAN_POINT('',(-90.01,-31.1126983722,613.9126983722));
#940 = VECTOR('',#941,1.);
#941 = DIRECTION('',(1.,0.,0.));
#942 = ORIENTED_EDGE('',*,*,#943,.F.);
#943 = EDGE_CURVE('',#936,#936,#944,.T.);
#944 = CIRCLE('',#945,2.8);
#945 = AXIS2_PLACEMENT_3D('',#946,#947,#948);
#946 = CARTESIAN_POINT('',(-80.51,-31.1126983722,611.1126983722));
#947 = DIRECTION('',(1.,0.,-0.));
#948 = DIRECTION('',(0.,0.,1.));
#949 = ORIENTED_EDGE('',*,*,#935,.F.);
#950 = ORIENTED_EDGE('',*,*,#843,.T.);
#951 = CYLINDRICAL_SURFACE('',#952,2.8);
#952 = AXIS2_PLACEMENT_3D('',#953,#954,#955);
#953 = CARTESIAN_POINT('',(-90.01,-31.1126983722,611.1126983722));
#954 = DIRECTION('',(1.,0.,0.));
#955 = DIRECTION('',(0.,0.,1.));
#956 = ADVANCED_FACE('',(#957),#960,.F.);
#957 = FACE_BOUND('',#958,.F.);
#958 = EDGE_LOOP('',(#959));
#959 = ORIENTED_EDGE('',*,*,#868,.T.);
#960 = PLANE('',#961);
#961 = AXIS2_PLACEMENT_3D('',#962,#963,#964);
#962 = CARTESIAN_POINT('',(-80.51,31.112698372208,548.88730162779));
#963 = DIRECTION('',(1.,0.,0.));
#964 = DIRECTION('',(0.,0.,1.));
#965 = ADVANCED_FACE('',(#966),#969,.F.);
#966 = FACE_BOUND('',#967,.F.);
#967 = EDGE_LOOP('',(#968));
#968 = ORIENTED_EDGE('',*,*,#893,.T.);
#969 = PLANE('',#970);
#970 = AXIS2_PLACEMENT_3D('',#971,#972,#973);
#971 = CARTESIAN_POINT('',(-80.51,31.112698372208,611.1126983722));
#972 = DIRECTION('',(1.,0.,0.));
#973 = DIRECTION('',(0.,0.,1.));
#974 = ADVANCED_FACE('',(#975),#978,.F.);
#975 = FACE_BOUND('',#976,.F.);
#976 = EDGE_LOOP('',(#977));
#977 = ORIENTED_EDGE('',*,*,#918,.T.);
#978 = PLANE('',#979);
#979 = AXIS2_PLACEMENT_3D('',#980,#981,#982);
#980 = CARTESIAN_POINT('',(-80.51,-31.1126983722,548.88730162779));
#981 = DIRECTION('',(1.,0.,0.));
#982 = DIRECTION('',(0.,0.,1.));
#983 = ADVANCED_FACE('',(#984),#987,.F.);
#984 = FACE_BOUND('',#985,.F.);
#985 = EDGE_LOOP('',(#986));
#986 = ORIENTED_EDGE('',*,*,#943,.T.);
#987 = PLANE('',#988);
#988 = AXIS2_PLACEMENT_3D('',#989,#990,#991);
#989 = CARTESIAN_POINT('',(-80.51,-31.1126983722,611.1126983722));
#990 = DIRECTION('',(1.,0.,0.));
#991 = DIRECTION('',(0.,0.,1.));
#992 = ( GEOMETRIC_REPRESENTATION_CONTEXT(3) 
GLOBAL_UNCERTAINTY_ASSIGNED_CONTEXT((#996)) GLOBAL_UNIT_ASSIGNED_CONTEXT
((#993,#994,#995)) REPRESENTATION_CONTEXT('Context #1',
  '3D Context with UNIT and UNCERTAINTY') );
#993 = ( LENGTH_UNIT() NAMED_UNIT(*) SI_UNIT(.MILLI.,.METRE.) );
#994 = ( NAMED_UNIT(*) PLANE_ANGLE_UNIT() SI_UNIT($,.RADIAN.) );
#995 = ( NAMED_UNIT(*) SI_UNIT($,.STERADIAN.) SOLID_ANGLE_UNIT() );
#996 = UNCERTAINTY_MEASURE_WITH_UNIT(LENGTH_MEASURE(1.E-07),#993,
  'distance_accuracy_value','confusion accuracy');
#997 = PRODUCT_RELATED_PRODUCT_CATEGORY('part',$,(#7));
ENDSEC;
END-ISO-10303-21;
