ISO-10303-21;
HEADER;
FILE_DESCRIPTION(('FreeCAD Model'),'2;1');
FILE_NAME('Open CASCADE Shape Model','2026-09-19T23:10:24',('FreeCAD'),(
    'FreeCAD'),'Open CASCADE STEP processor 7.9','FreeCAD','Unknown');
FILE_SCHEMA(('AUTOMOTIVE_DESIGN { 1 0 10303 214 1 1 1 1 }'));
ENDSEC;
DATA;
#1 = APPLICATION_PROTOCOL_DEFINITION('international standard',
  'automotive_design',2000,#2);
#2 = APPLICATION_CONTEXT(
  'core data for automotive mechanical design processes');
#3 = SHAPE_DEFINITION_REPRESENTATION(#4,#10);
#4 = PRODUCT_DEFINITION_SHAPE('','',#5);
#5 = PRODUCT_DEFINITION('design','',#6,#9);
#6 = PRODUCT_DEFINITION_FORMATION('','',#7);
#7 = PRODUCT('Open CASCADE STEP translator 7.9 40',
  'Open CASCADE STEP translator 7.9 40','',(#8));
#8 = PRODUCT_CONTEXT('',#2,'mechanical');
#9 = PRODUCT_DEFINITION_CONTEXT('part definition',#2,'design');
#10 = ADVANCED_BREP_SHAPE_REPRESENTATION('',(#11,#15),#1943);
#11 = AXIS2_PLACEMENT_3D('',#12,#13,#14);
#12 = CARTESIAN_POINT('',(0.,0.,0.));
#13 = DIRECTION('',(0.,0.,1.));
#14 = DIRECTION('',(1.,0.,-0.));
#15 = MANIFOLD_SOLID_BREP('',#16);
#16 = CLOSED_SHELL('',(#17,#440,#460,#503,#534,#558,#582,#599,#630,#654,
    #678,#695,#726,#750,#774,#791,#822,#846,#870,#887,#918,#942,#966,
    #983,#1014,#1038,#1062,#1079,#1110,#1134,#1158,#1175,#1206,#1230,
    #1254,#1271,#1336,#1401,#1432,#1463,#1509,#1533,#1572,#1584,#1596,
    #1608,#1620,#1632,#1644,#1656,#1668,#1677,#1723,#1748,#1773,#1798,
    #1823,#1854,#1884,#1908,#1931));
#17 = ADVANCED_FACE('',(#18,#45,#81,#117,#153,#189,#225,#261,#297,#333,
    #384),#435,.T.);
#18 = FACE_BOUND('',#19,.T.);
#19 = EDGE_LOOP('',(#20,#29,#37,#44));
#20 = ORIENTED_EDGE('',*,*,#21,.F.);
#21 = EDGE_CURVE('',#22,#22,#24,.T.);
#22 = VERTEX_POINT('',#23);
#23 = CARTESIAN_POINT('',(-1.224646799147E-14,-385.,530.));
#24 = CIRCLE('',#25,50.);
#25 = AXIS2_PLACEMENT_3D('',#26,#27,#28);
#26 = CARTESIAN_POINT('',(0.,-385.,580.));
#27 = DIRECTION('',(0.,-1.,0.));
#28 = DIRECTION('',(0.,0.,-1.));
#29 = ORIENTED_EDGE('',*,*,#30,.F.);
#30 = EDGE_CURVE('',#31,#22,#33,.T.);
#31 = VERTEX_POINT('',#32);
#32 = CARTESIAN_POINT('',(-1.224646799147E-14,-220.,530.));
#33 = LINE('',#34,#35);
#34 = CARTESIAN_POINT('',(-1.224646799147E-14,-220.,530.));
#35 = VECTOR('',#36,1.);
#36 = DIRECTION('',(0.,-1.,0.));
#37 = ORIENTED_EDGE('',*,*,#38,.T.);
#38 = EDGE_CURVE('',#31,#31,#39,.T.);
#39 = CIRCLE('',#40,50.);
#40 = AXIS2_PLACEMENT_3D('',#41,#42,#43);
#41 = CARTESIAN_POINT('',(0.,-220.,580.));
#42 = DIRECTION('',(0.,-1.,0.));
#43 = DIRECTION('',(0.,0.,-1.));
#44 = ORIENTED_EDGE('',*,*,#30,.T.);
#45 = FACE_BOUND('',#46,.T.);
#46 = EDGE_LOOP('',(#47,#57,#66,#74));
#47 = ORIENTED_EDGE('',*,*,#48,.F.);
#48 = EDGE_CURVE('',#49,#51,#53,.T.);
#49 = VERTEX_POINT('',#50);
#50 = CARTESIAN_POINT('',(20.511378601586,-235.,534.40084049171));
#51 = VERTEX_POINT('',#52);
#52 = CARTESIAN_POINT('',(20.511378601586,-370.,534.40084049171));
#53 = LINE('',#54,#55);
#54 = CARTESIAN_POINT('',(20.511378601586,-220.,534.40084049171));
#55 = VECTOR('',#56,1.);
#56 = DIRECTION('',(0.,-1.,0.));
#57 = ORIENTED_EDGE('',*,*,#58,.F.);
#58 = EDGE_CURVE('',#59,#49,#61,.T.);
#59 = VERTEX_POINT('',#60);
#60 = CARTESIAN_POINT('',(17.739740004053,-235.,533.25279019461));
#61 = CIRCLE('',#62,50.);
#62 = AXIS2_PLACEMENT_3D('',#63,#64,#65);
#63 = CARTESIAN_POINT('',(0.,-235.,580.));
#64 = DIRECTION('',(0.,-1.,0.));
#65 = DIRECTION('',(0.,0.,-1.));
#66 = ORIENTED_EDGE('',*,*,#67,.T.);
#67 = EDGE_CURVE('',#59,#68,#70,.T.);
#68 = VERTEX_POINT('',#69);
#69 = CARTESIAN_POINT('',(17.739740004053,-370.,533.25279019461));
#70 = LINE('',#71,#72);
#71 = CARTESIAN_POINT('',(17.739740004052,-220.,533.25279019461));
#72 = VECTOR('',#73,1.);
#73 = DIRECTION('',(0.,-1.,0.));
#74 = ORIENTED_EDGE('',*,*,#75,.T.);
#75 = EDGE_CURVE('',#68,#51,#76,.T.);
#76 = CIRCLE('',#77,50.);
#77 = AXIS2_PLACEMENT_3D('',#78,#79,#80);
#78 = CARTESIAN_POINT('',(0.,-370.,580.));
#79 = DIRECTION('',(0.,-1.,0.));
#80 = DIRECTION('',(0.,0.,-1.));
#81 = FACE_BOUND('',#82,.T.);
#82 = EDGE_LOOP('',(#83,#93,#102,#110));
#83 = ORIENTED_EDGE('',*,*,#84,.F.);
#84 = EDGE_CURVE('',#85,#87,#89,.T.);
#85 = VERTEX_POINT('',#86);
#86 = CARTESIAN_POINT('',(46.747209805383,-235.,562.26025999594));
#87 = VERTEX_POINT('',#88);
#88 = CARTESIAN_POINT('',(46.747209805383,-370.,562.26025999594));
#89 = LINE('',#90,#91);
#90 = CARTESIAN_POINT('',(46.747209805384,-220.,562.26025999594));
#91 = VECTOR('',#92,1.);
#92 = DIRECTION('',(0.,-1.,0.));
#93 = ORIENTED_EDGE('',*,*,#94,.F.);
#94 = EDGE_CURVE('',#95,#85,#97,.T.);
#95 = VERTEX_POINT('',#96);
#96 = CARTESIAN_POINT('',(45.599159508289,-235.,559.48862139841));
#97 = CIRCLE('',#98,50.);
#98 = AXIS2_PLACEMENT_3D('',#99,#100,#101);
#99 = CARTESIAN_POINT('',(0.,-235.,580.));
#100 = DIRECTION('',(0.,-1.,0.));
#101 = DIRECTION('',(0.,0.,-1.));
#102 = ORIENTED_EDGE('',*,*,#103,.T.);
#103 = EDGE_CURVE('',#95,#104,#106,.T.);
#104 = VERTEX_POINT('',#105);
#105 = CARTESIAN_POINT('',(45.599159508289,-370.,559.48862139841));
#106 = LINE('',#107,#108);
#107 = CARTESIAN_POINT('',(45.599159508289,-220.,559.48862139841));
#108 = VECTOR('',#109,1.);
#109 = DIRECTION('',(0.,-1.,0.));
#110 = ORIENTED_EDGE('',*,*,#111,.T.);
#111 = EDGE_CURVE('',#104,#87,#112,.T.);
#112 = CIRCLE('',#113,50.);
#113 = AXIS2_PLACEMENT_3D('',#114,#115,#116);
#114 = CARTESIAN_POINT('',(0.,-370.,580.));
#115 = DIRECTION('',(0.,-1.,0.));
#116 = DIRECTION('',(0.,0.,-1.));
#117 = FACE_BOUND('',#118,.T.);
#118 = EDGE_LOOP('',(#119,#129,#138,#146));
#119 = ORIENTED_EDGE('',*,*,#120,.F.);
#120 = EDGE_CURVE('',#121,#123,#125,.T.);
#121 = VERTEX_POINT('',#122);
#122 = CARTESIAN_POINT('',(45.599159508289,-235.,600.51137860158));
#123 = VERTEX_POINT('',#124);
#124 = CARTESIAN_POINT('',(45.599159508289,-370.,600.51137860158));
#125 = LINE('',#126,#127);
#126 = CARTESIAN_POINT('',(45.599159508289,-220.,600.51137860158));
#127 = VECTOR('',#128,1.);
#128 = DIRECTION('',(0.,-1.,0.));
#129 = ORIENTED_EDGE('',*,*,#130,.F.);
#130 = EDGE_CURVE('',#131,#121,#133,.T.);
#131 = VERTEX_POINT('',#132);
#132 = CARTESIAN_POINT('',(46.747209805385,-235.,597.73974000405));
#133 = CIRCLE('',#134,50.);
#134 = AXIS2_PLACEMENT_3D('',#135,#136,#137);
#135 = CARTESIAN_POINT('',(0.,-235.,580.));
#136 = DIRECTION('',(0.,-1.,0.));
#137 = DIRECTION('',(0.,0.,-1.));
#138 = ORIENTED_EDGE('',*,*,#139,.T.);
#139 = EDGE_CURVE('',#131,#140,#142,.T.);
#140 = VERTEX_POINT('',#141);
#141 = CARTESIAN_POINT('',(46.747209805385,-370.,597.73974000405));
#142 = LINE('',#143,#144);
#143 = CARTESIAN_POINT('',(46.747209805384,-220.,597.73974000405));
#144 = VECTOR('',#145,1.);
#145 = DIRECTION('',(0.,-1.,0.));
#146 = ORIENTED_EDGE('',*,*,#147,.T.);
#147 = EDGE_CURVE('',#140,#123,#148,.T.);
#148 = CIRCLE('',#149,50.);
#149 = AXIS2_PLACEMENT_3D('',#150,#151,#152);
#150 = CARTESIAN_POINT('',(0.,-370.,580.));
#151 = DIRECTION('',(0.,-1.,0.));
#152 = DIRECTION('',(0.,0.,-1.));
#153 = FACE_BOUND('',#154,.T.);
#154 = EDGE_LOOP('',(#155,#165,#174,#182));
#155 = ORIENTED_EDGE('',*,*,#156,.F.);
#156 = EDGE_CURVE('',#157,#159,#161,.T.);
#157 = VERTEX_POINT('',#158);
#158 = CARTESIAN_POINT('',(17.739740004052,-235.,626.74720980538));
#159 = VERTEX_POINT('',#160);
#160 = CARTESIAN_POINT('',(17.739740004052,-370.,626.74720980538));
#161 = LINE('',#162,#163);
#162 = CARTESIAN_POINT('',(17.739740004052,-220.,626.74720980538));
#163 = VECTOR('',#164,1.);
#164 = DIRECTION('',(0.,-1.,0.));
#165 = ORIENTED_EDGE('',*,*,#166,.F.);
#166 = EDGE_CURVE('',#167,#157,#169,.T.);
#167 = VERTEX_POINT('',#168);
#168 = CARTESIAN_POINT('',(20.511378601586,-235.,625.59915950828));
#169 = CIRCLE('',#170,50.);
#170 = AXIS2_PLACEMENT_3D('',#171,#172,#173);
#171 = CARTESIAN_POINT('',(0.,-235.,580.));
#172 = DIRECTION('',(0.,-1.,0.));
#173 = DIRECTION('',(0.,0.,-1.));
#174 = ORIENTED_EDGE('',*,*,#175,.T.);
#175 = EDGE_CURVE('',#167,#176,#178,.T.);
#176 = VERTEX_POINT('',#177);
#177 = CARTESIAN_POINT('',(20.511378601586,-370.,625.59915950828));
#178 = LINE('',#179,#180);
#179 = CARTESIAN_POINT('',(20.511378601586,-220.,625.59915950828));
#180 = VECTOR('',#181,1.);
#181 = DIRECTION('',(0.,-1.,0.));
#182 = ORIENTED_EDGE('',*,*,#183,.T.);
#183 = EDGE_CURVE('',#176,#159,#184,.T.);
#184 = CIRCLE('',#185,50.);
#185 = AXIS2_PLACEMENT_3D('',#186,#187,#188);
#186 = CARTESIAN_POINT('',(0.,-370.,580.));
#187 = DIRECTION('',(0.,-1.,0.));
#188 = DIRECTION('',(0.,0.,-1.));
#189 = FACE_BOUND('',#190,.T.);
#190 = EDGE_LOOP('',(#191,#201,#210,#218));
#191 = ORIENTED_EDGE('',*,*,#192,.F.);
#192 = EDGE_CURVE('',#193,#195,#197,.T.);
#193 = VERTEX_POINT('',#194);
#194 = CARTESIAN_POINT('',(-20.51137860158,-235.,625.59915950828));
#195 = VERTEX_POINT('',#196);
#196 = CARTESIAN_POINT('',(-20.51137860158,-370.,625.59915950828));
#197 = LINE('',#198,#199);
#198 = CARTESIAN_POINT('',(-20.51137860158,-220.,625.59915950828));
#199 = VECTOR('',#200,1.);
#200 = DIRECTION('',(0.,-1.,0.));
#201 = ORIENTED_EDGE('',*,*,#202,.F.);
#202 = EDGE_CURVE('',#203,#193,#205,.T.);
#203 = VERTEX_POINT('',#204);
#204 = CARTESIAN_POINT('',(-17.73974000405,-235.,626.74720980538));
#205 = CIRCLE('',#206,50.);
#206 = AXIS2_PLACEMENT_3D('',#207,#208,#209);
#207 = CARTESIAN_POINT('',(0.,-235.,580.));
#208 = DIRECTION('',(0.,-1.,0.));
#209 = DIRECTION('',(0.,0.,-1.));
#210 = ORIENTED_EDGE('',*,*,#211,.T.);
#211 = EDGE_CURVE('',#203,#212,#214,.T.);
#212 = VERTEX_POINT('',#213);
#213 = CARTESIAN_POINT('',(-17.73974000405,-370.,626.74720980538));
#214 = LINE('',#215,#216);
#215 = CARTESIAN_POINT('',(-17.73974000405,-220.,626.74720980538));
#216 = VECTOR('',#217,1.);
#217 = DIRECTION('',(0.,-1.,0.));
#218 = ORIENTED_EDGE('',*,*,#219,.T.);
#219 = EDGE_CURVE('',#212,#195,#220,.T.);
#220 = CIRCLE('',#221,50.);
#221 = AXIS2_PLACEMENT_3D('',#222,#223,#224);
#222 = CARTESIAN_POINT('',(0.,-370.,580.));
#223 = DIRECTION('',(0.,-1.,0.));
#224 = DIRECTION('',(0.,0.,-1.));
#225 = FACE_BOUND('',#226,.T.);
#226 = EDGE_LOOP('',(#227,#237,#246,#254));
#227 = ORIENTED_EDGE('',*,*,#228,.F.);
#228 = EDGE_CURVE('',#229,#231,#233,.T.);
#229 = VERTEX_POINT('',#230);
#230 = CARTESIAN_POINT('',(-46.74720980538,-235.,597.73974000405));
#231 = VERTEX_POINT('',#232);
#232 = CARTESIAN_POINT('',(-46.74720980538,-370.,597.73974000405));
#233 = LINE('',#234,#235);
#234 = CARTESIAN_POINT('',(-46.74720980538,-220.,597.73974000405));
#235 = VECTOR('',#236,1.);
#236 = DIRECTION('',(0.,-1.,0.));
#237 = ORIENTED_EDGE('',*,*,#238,.F.);
#238 = EDGE_CURVE('',#239,#229,#241,.T.);
#239 = VERTEX_POINT('',#240);
#240 = CARTESIAN_POINT('',(-45.59915950828,-235.,600.51137860158));
#241 = CIRCLE('',#242,50.);
#242 = AXIS2_PLACEMENT_3D('',#243,#244,#245);
#243 = CARTESIAN_POINT('',(0.,-235.,580.));
#244 = DIRECTION('',(0.,-1.,0.));
#245 = DIRECTION('',(0.,0.,-1.));
#246 = ORIENTED_EDGE('',*,*,#247,.T.);
#247 = EDGE_CURVE('',#239,#248,#250,.T.);
#248 = VERTEX_POINT('',#249);
#249 = CARTESIAN_POINT('',(-45.59915950828,-370.,600.51137860158));
#250 = LINE('',#251,#252);
#251 = CARTESIAN_POINT('',(-45.59915950828,-220.,600.51137860158));
#252 = VECTOR('',#253,1.);
#253 = DIRECTION('',(0.,-1.,0.));
#254 = ORIENTED_EDGE('',*,*,#255,.T.);
#255 = EDGE_CURVE('',#248,#231,#256,.T.);
#256 = CIRCLE('',#257,50.);
#257 = AXIS2_PLACEMENT_3D('',#258,#259,#260);
#258 = CARTESIAN_POINT('',(0.,-370.,580.));
#259 = DIRECTION('',(0.,-1.,0.));
#260 = DIRECTION('',(0.,0.,-1.));
#261 = FACE_BOUND('',#262,.T.);
#262 = EDGE_LOOP('',(#263,#273,#282,#290));
#263 = ORIENTED_EDGE('',*,*,#264,.F.);
#264 = EDGE_CURVE('',#265,#267,#269,.T.);
#265 = VERTEX_POINT('',#266);
#266 = CARTESIAN_POINT('',(-45.59915950828,-235.,559.48862139841));
#267 = VERTEX_POINT('',#268);
#268 = CARTESIAN_POINT('',(-45.59915950828,-370.,559.48862139841));
#269 = LINE('',#270,#271);
#270 = CARTESIAN_POINT('',(-45.59915950828,-220.,559.48862139841));
#271 = VECTOR('',#272,1.);
#272 = DIRECTION('',(0.,-1.,0.));
#273 = ORIENTED_EDGE('',*,*,#274,.F.);
#274 = EDGE_CURVE('',#275,#265,#277,.T.);
#275 = VERTEX_POINT('',#276);
#276 = CARTESIAN_POINT('',(-46.74720980538,-235.,562.26025999594));
#277 = CIRCLE('',#278,50.);
#278 = AXIS2_PLACEMENT_3D('',#279,#280,#281);
#279 = CARTESIAN_POINT('',(0.,-235.,580.));
#280 = DIRECTION('',(0.,-1.,0.));
#281 = DIRECTION('',(0.,0.,-1.));
#282 = ORIENTED_EDGE('',*,*,#283,.T.);
#283 = EDGE_CURVE('',#275,#284,#286,.T.);
#284 = VERTEX_POINT('',#285);
#285 = CARTESIAN_POINT('',(-46.74720980538,-370.,562.26025999594));
#286 = LINE('',#287,#288);
#287 = CARTESIAN_POINT('',(-46.74720980538,-220.,562.26025999594));
#288 = VECTOR('',#289,1.);
#289 = DIRECTION('',(0.,-1.,0.));
#290 = ORIENTED_EDGE('',*,*,#291,.T.);
#291 = EDGE_CURVE('',#284,#267,#292,.T.);
#292 = CIRCLE('',#293,50.);
#293 = AXIS2_PLACEMENT_3D('',#294,#295,#296);
#294 = CARTESIAN_POINT('',(0.,-370.,580.));
#295 = DIRECTION('',(0.,-1.,0.));
#296 = DIRECTION('',(0.,0.,-1.));
#297 = FACE_BOUND('',#298,.T.);
#298 = EDGE_LOOP('',(#299,#309,#318,#326));
#299 = ORIENTED_EDGE('',*,*,#300,.F.);
#300 = EDGE_CURVE('',#301,#303,#305,.T.);
#301 = VERTEX_POINT('',#302);
#302 = CARTESIAN_POINT('',(-17.73974000405,-235.,533.25279019461));
#303 = VERTEX_POINT('',#304);
#304 = CARTESIAN_POINT('',(-17.73974000405,-370.,533.25279019461));
#305 = LINE('',#306,#307);
#306 = CARTESIAN_POINT('',(-17.73974000405,-220.,533.25279019461));
#307 = VECTOR('',#308,1.);
#308 = DIRECTION('',(0.,-1.,0.));
#309 = ORIENTED_EDGE('',*,*,#310,.F.);
#310 = EDGE_CURVE('',#311,#301,#313,.T.);
#311 = VERTEX_POINT('',#312);
#312 = CARTESIAN_POINT('',(-20.51137860158,-235.,534.40084049171));
#313 = CIRCLE('',#314,50.);
#314 = AXIS2_PLACEMENT_3D('',#315,#316,#317);
#315 = CARTESIAN_POINT('',(0.,-235.,580.));
#316 = DIRECTION('',(0.,-1.,0.));
#317 = DIRECTION('',(0.,0.,-1.));
#318 = ORIENTED_EDGE('',*,*,#319,.T.);
#319 = EDGE_CURVE('',#311,#320,#322,.T.);
#320 = VERTEX_POINT('',#321);
#321 = CARTESIAN_POINT('',(-20.51137860158,-370.,534.40084049171));
#322 = LINE('',#323,#324);
#323 = CARTESIAN_POINT('',(-20.51137860158,-220.,534.40084049171));
#324 = VECTOR('',#325,1.);
#325 = DIRECTION('',(0.,-1.,0.));
#326 = ORIENTED_EDGE('',*,*,#327,.T.);
#327 = EDGE_CURVE('',#320,#303,#328,.T.);
#328 = CIRCLE('',#329,50.);
#329 = AXIS2_PLACEMENT_3D('',#330,#331,#332);
#330 = CARTESIAN_POINT('',(0.,-370.,580.));
#331 = DIRECTION('',(0.,-1.,0.));
#332 = DIRECTION('',(0.,0.,-1.));
#333 = FACE_BOUND('',#334,.T.);
#334 = EDGE_LOOP('',(#335));
#335 = ORIENTED_EDGE('',*,*,#336,.T.);
#336 = EDGE_CURVE('',#337,#337,#339,.T.);
#337 = VERTEX_POINT('',#338);
#338 = CARTESIAN_POINT('',(49.971091643069,-380.,578.3));
#339 = B_SPLINE_CURVE_WITH_KNOTS('',7,(#340,#341,#342,#343,#344,#345,
    #346,#347,#348,#349,#350,#351,#352,#353,#354,#355,#356,#357,#358,
    #359,#360,#361,#362,#363,#364,#365,#366,#367,#368,#369,#370,#371,
    #372,#373,#374,#375,#376,#377,#378,#379,#380,#381,#382,#383),
  .UNSPECIFIED.,.T.,.F.,(8,6,6,6,6,6,6,8),(0.,0.152728466203,
    0.285701517794,0.421895665944,0.5887090125,0.714482110222,
    0.837883431012,1.),.UNSPECIFIED.);
#340 = CARTESIAN_POINT('',(49.971091643069,-380.,578.3));
#341 = CARTESIAN_POINT('',(49.971091643069,-380.2031363697,578.3));
#342 = CARTESIAN_POINT('',(49.972054943352,-380.4061776809,
    578.3283174529));
#343 = CARTESIAN_POINT('',(49.973980581855,-380.6066716823,
    578.38491349565));
#344 = CARTESIAN_POINT('',(49.976794767762,-380.8018232145,
    578.47063066394));
#345 = CARTESIAN_POINT('',(49.980345206414,-380.9879510178,
    578.58683684714));
#346 = CARTESIAN_POINT('',(49.984326526232,-381.1599025126,
    578.73509662858));
#347 = CARTESIAN_POINT('',(49.991677722023,-381.4404439055,
    579.07421291823));
#348 = CARTESIAN_POINT('',(49.995179202809,-381.5589104832,
    579.2625887065));
#349 = CARTESIAN_POINT('',(49.998276630256,-381.651754883,
    579.47774184419));
#350 = CARTESIAN_POINT('',(50.000353683262,-381.7096506743,
    579.71190383744));
#351 = CARTESIAN_POINT('',(50.000959037322,-381.727576469,
    579.95466842011));
#352 = CARTESIAN_POINT('',(50.000139099092,-381.7050889063,
    580.19493996187));
#353 = CARTESIAN_POINT('',(49.996239433159,-381.586676816,
    580.65612460429));
#354 = CARTESIAN_POINT('',(49.993174469203,-381.4910716545,
    580.86831345497));
#355 = CARTESIAN_POINT('',(49.989464328385,-381.3678715672,
    581.05559282374));
#356 = CARTESIAN_POINT('',(49.985602751282,-381.2238757087,
    581.21629288582));
#357 = CARTESIAN_POINT('',(49.98197467032,-381.065082189,581.34989547653
    ));
#358 = CARTESIAN_POINT('',(49.978839289134,-380.8968280399,
    581.45679684188));
#359 = CARTESIAN_POINT('',(49.97326463106,-380.5119269238,
    581.63791755894));
#360 = CARTESIAN_POINT('',(49.971098374521,-380.2900018675,
    581.70075156801));
#361 = CARTESIAN_POINT('',(49.970085790074,-380.063031003,
    581.72859992675));
#362 = CARTESIAN_POINT('',(49.970320789365,-379.8344927832,
    581.72204357871));
#363 = CARTESIAN_POINT('',(49.971805962562,-379.6081158704,
    581.68071644778));
#364 = CARTESIAN_POINT('',(49.974406230799,-379.3882662922,
    581.60365665435));
#365 = CARTESIAN_POINT('',(49.98036298374,-379.0247592855,581.4038169863
    ));
#366 = CARTESIAN_POINT('',(49.983410067079,-378.8735849168,
    581.29580713498));
#367 = CARTESIAN_POINT('',(49.98680910478,-378.7316349194,
    581.16485206461));
#368 = CARTESIAN_POINT('',(49.99033099222,-378.6034407015,
    581.01085883565));
#369 = CARTESIAN_POINT('',(49.993655453748,-378.4939342632,
    580.8345191139));
#370 = CARTESIAN_POINT('',(49.996397307368,-378.4085293848,
    580.63745398945));
#371 = CARTESIAN_POINT('',(49.999993659761,-378.2993273117,
    580.21213999561));
#372 = CARTESIAN_POINT('',(50.000836094943,-378.2758085681,
    579.99003695756));
#373 = CARTESIAN_POINT('',(50.000469880614,-378.286903938,
    579.76467396179));
#374 = CARTESIAN_POINT('',(49.998831322078,-378.3327367348,
    579.54527658739));
#375 = CARTESIAN_POINT('',(49.996232487123,-378.4096830068,
    579.34067933482));
#376 = CARTESIAN_POINT('',(49.993153911145,-378.5105534713,
    579.15783452509));
#377 = CARTESIAN_POINT('',(49.98588968097,-378.7745913846,
    578.79441751492));
#378 = CARTESIAN_POINT('',(49.981519916203,-378.9524678757,
    578.62554690993));
#379 = CARTESIAN_POINT('',(49.977541476485,-379.1480101362,
    578.49343639461));
#380 = CARTESIAN_POINT('',(49.974363723614,-379.3546750571,
    578.39616803415));
#381 = CARTESIAN_POINT('',(49.972182579509,-379.567727974,
    578.33207127196));
#382 = CARTESIAN_POINT('',(49.971091643069,-379.7838248283,578.3));
#383 = CARTESIAN_POINT('',(49.971091643069,-380.,578.3));
#384 = FACE_BOUND('',#385,.T.);
#385 = EDGE_LOOP('',(#386));
#386 = ORIENTED_EDGE('',*,*,#387,.T.);
#387 = EDGE_CURVE('',#388,#388,#390,.T.);
#388 = VERTEX_POINT('',#389);
#389 = CARTESIAN_POINT('',(-49.97109164306,-380.,581.7));
#390 = B_SPLINE_CURVE_WITH_KNOTS('',7,(#391,#392,#393,#394,#395,#396,
    #397,#398,#399,#400,#401,#402,#403,#404,#405,#406,#407,#408,#409,
    #410,#411,#412,#413,#414,#415,#416,#417,#418,#419,#420,#421,#422,
    #423,#424,#425,#426,#427,#428,#429,#430,#431,#432,#433,#434),
  .UNSPECIFIED.,.T.,.F.,(8,6,6,6,6,6,6,8),(0.,0.152728466683,
    0.28570151869,0.421895667268,0.588709011447,0.714482109536,
    0.837883430511,1.),.UNSPECIFIED.);
#391 = CARTESIAN_POINT('',(-49.97109164306,-380.,581.7));
#392 = CARTESIAN_POINT('',(-49.97109164306,-380.2031363697,581.7));
#393 = CARTESIAN_POINT('',(-49.97205494335,-380.4061776809,
    581.67168254709));
#394 = CARTESIAN_POINT('',(-49.97398058185,-380.6066716823,
    581.61508650434));
#395 = CARTESIAN_POINT('',(-49.97679476776,-380.8018232145,
    581.52936933605));
#396 = CARTESIAN_POINT('',(-49.98034520641,-380.9879510178,
    581.41316315285));
#397 = CARTESIAN_POINT('',(-49.98432652623,-381.1599025126,
    581.26490337142));
#398 = CARTESIAN_POINT('',(-49.99167772202,-381.4404439055,
    580.92578708176));
#399 = CARTESIAN_POINT('',(-49.9951792028,-381.5589104832,
    580.73741129349));
#400 = CARTESIAN_POINT('',(-49.99827663025,-381.651754883,580.5222581558
    ));
#401 = CARTESIAN_POINT('',(-50.00035368326,-381.7096506743,
    580.28809616255));
#402 = CARTESIAN_POINT('',(-50.00095903732,-381.7275764691,
    580.04533157988));
#403 = CARTESIAN_POINT('',(-50.00013909909,-381.7050889063,
    579.80506003812));
#404 = CARTESIAN_POINT('',(-49.99623943315,-381.586676816,
    579.34387539571));
#405 = CARTESIAN_POINT('',(-49.9931744692,-381.4910716545,
    579.13168654502));
#406 = CARTESIAN_POINT('',(-49.98946432838,-381.3678715672,
    578.94440717625));
#407 = CARTESIAN_POINT('',(-49.98560275128,-381.2238757087,
    578.78370711418));
#408 = CARTESIAN_POINT('',(-49.98197467032,-381.065082189,
    578.65010452346));
#409 = CARTESIAN_POINT('',(-49.97883928913,-380.8968280399,
    578.54320315812));
#410 = CARTESIAN_POINT('',(-49.97326463111,-380.5119269275,
    578.36208244278));
#411 = CARTESIAN_POINT('',(-49.97109837441,-380.290001853,
    578.29924842852));
#412 = CARTESIAN_POINT('',(-49.97008579012,-380.0630310291,
    578.27140007467));
#413 = CARTESIAN_POINT('',(-49.97032078945,-379.8344927573,
    578.27795642435));
#414 = CARTESIAN_POINT('',(-49.97180596243,-379.6081158846,
    578.31928354785));
#415 = CARTESIAN_POINT('',(-49.97440623085,-379.3882662886,
    578.39634334759));
#416 = CARTESIAN_POINT('',(-49.98036298374,-379.0247592855,
    578.59618301369));
#417 = CARTESIAN_POINT('',(-49.98341006707,-378.8735849168,
    578.70419286501));
#418 = CARTESIAN_POINT('',(-49.98680910478,-378.7316349194,
    578.83514793538));
#419 = CARTESIAN_POINT('',(-49.99033099222,-378.6034407015,
    578.98914116434));
#420 = CARTESIAN_POINT('',(-49.99365545374,-378.4939342632,
    579.16548088609));
#421 = CARTESIAN_POINT('',(-49.99639730736,-378.4085293848,
    579.36254601054));
#422 = CARTESIAN_POINT('',(-49.99999365975,-378.2993273118,
    579.78786000408));
#423 = CARTESIAN_POINT('',(-50.00083609494,-378.275808568,
    580.00996304271));
#424 = CARTESIAN_POINT('',(-50.0004698806,-378.2869039381,
    580.23532603847));
#425 = CARTESIAN_POINT('',(-49.99883132207,-378.3327367349,
    580.45472341232));
#426 = CARTESIAN_POINT('',(-49.99623248713,-378.4096830065,
    580.65932066494));
#427 = CARTESIAN_POINT('',(-49.99315391114,-378.5105534715,
    580.84216547515));
#428 = CARTESIAN_POINT('',(-49.98588968097,-378.7745913846,
    581.20558248507));
#429 = CARTESIAN_POINT('',(-49.9815199162,-378.9524678757,
    581.37445309006));
#430 = CARTESIAN_POINT('',(-49.97754147648,-379.1480101362,
    581.50656360538));
#431 = CARTESIAN_POINT('',(-49.97436372361,-379.3546750571,
    581.60383196584));
#432 = CARTESIAN_POINT('',(-49.9721825795,-379.567727974,581.66792872803
    ));
#433 = CARTESIAN_POINT('',(-49.97109164306,-379.7838248283,581.7));
#434 = CARTESIAN_POINT('',(-49.97109164306,-380.,581.7));
#435 = CYLINDRICAL_SURFACE('',#436,50.);
#436 = AXIS2_PLACEMENT_3D('',#437,#438,#439);
#437 = CARTESIAN_POINT('',(0.,-220.,580.));
#438 = DIRECTION('',(0.,-1.,0.));
#439 = DIRECTION('',(0.,0.,-1.));
#440 = ADVANCED_FACE('',(#441,#444),#455,.T.);
#441 = FACE_BOUND('',#442,.T.);
#442 = EDGE_LOOP('',(#443));
#443 = ORIENTED_EDGE('',*,*,#21,.T.);
#444 = FACE_BOUND('',#445,.T.);
#445 = EDGE_LOOP('',(#446));
#446 = ORIENTED_EDGE('',*,*,#447,.F.);
#447 = EDGE_CURVE('',#448,#448,#450,.T.);
#448 = VERTEX_POINT('',#449);
#449 = CARTESIAN_POINT('',(-1.16341445919E-14,-385.,532.5));
#450 = CIRCLE('',#451,47.5);
#451 = AXIS2_PLACEMENT_3D('',#452,#453,#454);
#452 = CARTESIAN_POINT('',(0.,-385.,580.));
#453 = DIRECTION('',(0.,-1.,0.));
#454 = DIRECTION('',(0.,0.,-1.));
#455 = PLANE('',#456);
#456 = AXIS2_PLACEMENT_3D('',#457,#458,#459);
#457 = CARTESIAN_POINT('',(0.,-385.,580.));
#458 = DIRECTION('',(0.,-1.,0.));
#459 = DIRECTION('',(0.,0.,-1.));
#460 = ADVANCED_FACE('',(#461,#464),#498,.F.);
#461 = FACE_BOUND('',#462,.F.);
#462 = EDGE_LOOP('',(#463));
#463 = ORIENTED_EDGE('',*,*,#38,.T.);
#464 = FACE_BOUND('',#465,.F.);
#465 = EDGE_LOOP('',(#466,#476,#484,#492));
#466 = ORIENTED_EDGE('',*,*,#467,.T.);
#467 = EDGE_CURVE('',#468,#470,#472,.T.);
#468 = VERTEX_POINT('',#469);
#469 = CARTESIAN_POINT('',(24.,-220.,556.));
#470 = VERTEX_POINT('',#471);
#471 = CARTESIAN_POINT('',(-24.,-220.,556.));
#472 = LINE('',#473,#474);
#473 = CARTESIAN_POINT('',(-12.,-220.,556.));
#474 = VECTOR('',#475,1.);
#475 = DIRECTION('',(-1.,0.,0.));
#476 = ORIENTED_EDGE('',*,*,#477,.T.);
#477 = EDGE_CURVE('',#470,#478,#480,.T.);
#478 = VERTEX_POINT('',#479);
#479 = CARTESIAN_POINT('',(-24.,-220.,604.));
#480 = LINE('',#481,#482);
#481 = CARTESIAN_POINT('',(-24.,-220.,568.));
#482 = VECTOR('',#483,1.);
#483 = DIRECTION('',(0.,0.,1.));
#484 = ORIENTED_EDGE('',*,*,#485,.F.);
#485 = EDGE_CURVE('',#486,#478,#488,.T.);
#486 = VERTEX_POINT('',#487);
#487 = CARTESIAN_POINT('',(24.,-220.,604.));
#488 = LINE('',#489,#490);
#489 = CARTESIAN_POINT('',(-12.,-220.,604.));
#490 = VECTOR('',#491,1.);
#491 = DIRECTION('',(-1.,0.,0.));
#492 = ORIENTED_EDGE('',*,*,#493,.F.);
#493 = EDGE_CURVE('',#468,#486,#494,.T.);
#494 = LINE('',#495,#496);
#495 = CARTESIAN_POINT('',(24.,-220.,568.));
#496 = VECTOR('',#497,1.);
#497 = DIRECTION('',(0.,0.,1.));
#498 = PLANE('',#499);
#499 = AXIS2_PLACEMENT_3D('',#500,#501,#502);
#500 = CARTESIAN_POINT('',(0.,-220.,580.));
#501 = DIRECTION('',(0.,-1.,0.));
#502 = DIRECTION('',(0.,0.,-1.));
#503 = ADVANCED_FACE('',(#504),#529,.F.);
#504 = FACE_BOUND('',#505,.F.);
#505 = EDGE_LOOP('',(#506,#514,#515,#523));
#506 = ORIENTED_EDGE('',*,*,#507,.F.);
#507 = EDGE_CURVE('',#51,#508,#510,.T.);
#508 = VERTEX_POINT('',#509);
#509 = CARTESIAN_POINT('',(20.902674349387,-370.,533.45616899047));
#510 = LINE('',#511,#512);
#511 = CARTESIAN_POINT('',(20.137307484656,-370.,535.30392805549));
#512 = VECTOR('',#513,1.);
#513 = DIRECTION('',(0.382683432365,0.,-0.923879532511));
#514 = ORIENTED_EDGE('',*,*,#48,.F.);
#515 = ORIENTED_EDGE('',*,*,#516,.T.);
#516 = EDGE_CURVE('',#49,#517,#519,.T.);
#517 = VERTEX_POINT('',#518);
#518 = CARTESIAN_POINT('',(20.902674349387,-235.,533.45616899047));
#519 = LINE('',#520,#521);
#520 = CARTESIAN_POINT('',(20.137307484656,-235.,535.30392805549));
#521 = VECTOR('',#522,1.);
#522 = DIRECTION('',(0.382683432365,0.,-0.923879532511));
#523 = ORIENTED_EDGE('',*,*,#524,.F.);
#524 = EDGE_CURVE('',#508,#517,#525,.T.);
#525 = LINE('',#526,#527);
#526 = CARTESIAN_POINT('',(20.902674349387,-370.,533.45616899047));
#527 = VECTOR('',#528,1.);
#528 = DIRECTION('',(0.,1.,0.));
#529 = PLANE('',#530);
#530 = AXIS2_PLACEMENT_3D('',#531,#532,#533);
#531 = CARTESIAN_POINT('',(20.137307484656,-370.,535.30392805549));
#532 = DIRECTION('',(-0.923879532511,0.,-0.382683432365));
#533 = DIRECTION('',(0.382683432365,0.,-0.923879532511));
#534 = ADVANCED_FACE('',(#535),#553,.T.);
#535 = FACE_BOUND('',#536,.T.);
#536 = EDGE_LOOP('',(#537,#545,#546,#547));
#537 = ORIENTED_EDGE('',*,*,#538,.F.);
#538 = EDGE_CURVE('',#59,#539,#541,.T.);
#539 = VERTEX_POINT('',#540);
#540 = CARTESIAN_POINT('',(18.131035751853,-235.,532.30811869337));
#541 = LINE('',#542,#543);
#542 = CARTESIAN_POINT('',(17.365668887122,-235.,534.15587775839));
#543 = VECTOR('',#544,1.);
#544 = DIRECTION('',(0.382683432365,0.,-0.923879532511));
#545 = ORIENTED_EDGE('',*,*,#58,.T.);
#546 = ORIENTED_EDGE('',*,*,#516,.T.);
#547 = ORIENTED_EDGE('',*,*,#548,.T.);
#548 = EDGE_CURVE('',#517,#539,#549,.T.);
#549 = LINE('',#550,#551);
#550 = CARTESIAN_POINT('',(20.902674349387,-235.,533.45616899047));
#551 = VECTOR('',#552,1.);
#552 = DIRECTION('',(-0.923879532511,0.,-0.382683432365));
#553 = PLANE('',#554);
#554 = AXIS2_PLACEMENT_3D('',#555,#556,#557);
#555 = CARTESIAN_POINT('',(20.137307484656,-235.,535.30392805549));
#556 = DIRECTION('',(0.,1.,0.));
#557 = DIRECTION('',(0.382683432365,0.,-0.923879532511));
#558 = ADVANCED_FACE('',(#559),#577,.F.);
#559 = FACE_BOUND('',#560,.F.);
#560 = EDGE_LOOP('',(#561,#569,#570,#571));
#561 = ORIENTED_EDGE('',*,*,#562,.F.);
#562 = EDGE_CURVE('',#68,#563,#565,.T.);
#563 = VERTEX_POINT('',#564);
#564 = CARTESIAN_POINT('',(18.131035751853,-370.,532.30811869337));
#565 = LINE('',#566,#567);
#566 = CARTESIAN_POINT('',(17.365668887122,-370.,534.15587775839));
#567 = VECTOR('',#568,1.);
#568 = DIRECTION('',(0.382683432365,0.,-0.923879532511));
#569 = ORIENTED_EDGE('',*,*,#75,.T.);
#570 = ORIENTED_EDGE('',*,*,#507,.T.);
#571 = ORIENTED_EDGE('',*,*,#572,.T.);
#572 = EDGE_CURVE('',#508,#563,#573,.T.);
#573 = LINE('',#574,#575);
#574 = CARTESIAN_POINT('',(20.902674349387,-370.,533.45616899047));
#575 = VECTOR('',#576,1.);
#576 = DIRECTION('',(-0.923879532511,0.,-0.382683432365));
#577 = PLANE('',#578);
#578 = AXIS2_PLACEMENT_3D('',#579,#580,#581);
#579 = CARTESIAN_POINT('',(20.137307484656,-370.,535.30392805549));
#580 = DIRECTION('',(0.,1.,0.));
#581 = DIRECTION('',(0.382683432365,0.,-0.923879532511));
#582 = ADVANCED_FACE('',(#583),#594,.T.);
#583 = FACE_BOUND('',#584,.T.);
#584 = EDGE_LOOP('',(#585,#586,#587,#588));
#585 = ORIENTED_EDGE('',*,*,#562,.F.);
#586 = ORIENTED_EDGE('',*,*,#67,.F.);
#587 = ORIENTED_EDGE('',*,*,#538,.T.);
#588 = ORIENTED_EDGE('',*,*,#589,.F.);
#589 = EDGE_CURVE('',#563,#539,#590,.T.);
#590 = LINE('',#591,#592);
#591 = CARTESIAN_POINT('',(18.131035751853,-370.,532.30811869337));
#592 = VECTOR('',#593,1.);
#593 = DIRECTION('',(0.,1.,0.));
#594 = PLANE('',#595);
#595 = AXIS2_PLACEMENT_3D('',#596,#597,#598);
#596 = CARTESIAN_POINT('',(17.365668887122,-370.,534.15587775839));
#597 = DIRECTION('',(-0.923879532511,0.,-0.382683432365));
#598 = DIRECTION('',(0.382683432365,0.,-0.923879532511));
#599 = ADVANCED_FACE('',(#600),#625,.F.);
#600 = FACE_BOUND('',#601,.F.);
#601 = EDGE_LOOP('',(#602,#610,#611,#619));
#602 = ORIENTED_EDGE('',*,*,#603,.F.);
#603 = EDGE_CURVE('',#87,#604,#606,.T.);
#604 = VERTEX_POINT('',#605);
#605 = CARTESIAN_POINT('',(47.691881306623,-370.,561.86896424814));
#606 = LINE('',#607,#608);
#607 = CARTESIAN_POINT('',(45.844122241601,-370.,562.63433111287));
#608 = VECTOR('',#609,1.);
#609 = DIRECTION('',(0.923879532511,0.,-0.382683432365));
#610 = ORIENTED_EDGE('',*,*,#84,.F.);
#611 = ORIENTED_EDGE('',*,*,#612,.T.);
#612 = EDGE_CURVE('',#85,#613,#615,.T.);
#613 = VERTEX_POINT('',#614);
#614 = CARTESIAN_POINT('',(47.691881306623,-235.,561.86896424814));
#615 = LINE('',#616,#617);
#616 = CARTESIAN_POINT('',(45.844122241601,-235.,562.63433111287));
#617 = VECTOR('',#618,1.);
#618 = DIRECTION('',(0.923879532511,0.,-0.382683432365));
#619 = ORIENTED_EDGE('',*,*,#620,.F.);
#620 = EDGE_CURVE('',#604,#613,#621,.T.);
#621 = LINE('',#622,#623);
#622 = CARTESIAN_POINT('',(47.691881306623,-370.,561.86896424814));
#623 = VECTOR('',#624,1.);
#624 = DIRECTION('',(0.,1.,0.));
#625 = PLANE('',#626);
#626 = AXIS2_PLACEMENT_3D('',#627,#628,#629);
#627 = CARTESIAN_POINT('',(45.844122241601,-370.,562.63433111287));
#628 = DIRECTION('',(-0.382683432365,0.,-0.923879532511));
#629 = DIRECTION('',(0.923879532511,0.,-0.382683432365));
#630 = ADVANCED_FACE('',(#631),#649,.T.);
#631 = FACE_BOUND('',#632,.T.);
#632 = EDGE_LOOP('',(#633,#641,#642,#643));
#633 = ORIENTED_EDGE('',*,*,#634,.F.);
#634 = EDGE_CURVE('',#95,#635,#637,.T.);
#635 = VERTEX_POINT('',#636);
#636 = CARTESIAN_POINT('',(46.543831009528,-235.,559.09732565061));
#637 = LINE('',#638,#639);
#638 = CARTESIAN_POINT('',(44.696071944505,-235.,559.86269251534));
#639 = VECTOR('',#640,1.);
#640 = DIRECTION('',(0.923879532511,0.,-0.382683432365));
#641 = ORIENTED_EDGE('',*,*,#94,.T.);
#642 = ORIENTED_EDGE('',*,*,#612,.T.);
#643 = ORIENTED_EDGE('',*,*,#644,.T.);
#644 = EDGE_CURVE('',#613,#635,#645,.T.);
#645 = LINE('',#646,#647);
#646 = CARTESIAN_POINT('',(47.691881306623,-235.,561.86896424814));
#647 = VECTOR('',#648,1.);
#648 = DIRECTION('',(-0.382683432365,0.,-0.923879532511));
#649 = PLANE('',#650);
#650 = AXIS2_PLACEMENT_3D('',#651,#652,#653);
#651 = CARTESIAN_POINT('',(45.844122241601,-235.,562.63433111287));
#652 = DIRECTION('',(0.,1.,0.));
#653 = DIRECTION('',(0.923879532511,0.,-0.382683432365));
#654 = ADVANCED_FACE('',(#655),#673,.F.);
#655 = FACE_BOUND('',#656,.F.);
#656 = EDGE_LOOP('',(#657,#665,#666,#667));
#657 = ORIENTED_EDGE('',*,*,#658,.F.);
#658 = EDGE_CURVE('',#104,#659,#661,.T.);
#659 = VERTEX_POINT('',#660);
#660 = CARTESIAN_POINT('',(46.543831009528,-370.,559.09732565061));
#661 = LINE('',#662,#663);
#662 = CARTESIAN_POINT('',(44.696071944505,-370.,559.86269251534));
#663 = VECTOR('',#664,1.);
#664 = DIRECTION('',(0.923879532511,0.,-0.382683432365));
#665 = ORIENTED_EDGE('',*,*,#111,.T.);
#666 = ORIENTED_EDGE('',*,*,#603,.T.);
#667 = ORIENTED_EDGE('',*,*,#668,.T.);
#668 = EDGE_CURVE('',#604,#659,#669,.T.);
#669 = LINE('',#670,#671);
#670 = CARTESIAN_POINT('',(47.691881306623,-370.,561.86896424814));
#671 = VECTOR('',#672,1.);
#672 = DIRECTION('',(-0.382683432365,0.,-0.923879532511));
#673 = PLANE('',#674);
#674 = AXIS2_PLACEMENT_3D('',#675,#676,#677);
#675 = CARTESIAN_POINT('',(45.844122241601,-370.,562.63433111287));
#676 = DIRECTION('',(0.,1.,0.));
#677 = DIRECTION('',(0.923879532511,0.,-0.382683432365));
#678 = ADVANCED_FACE('',(#679),#690,.T.);
#679 = FACE_BOUND('',#680,.T.);
#680 = EDGE_LOOP('',(#681,#682,#683,#684));
#681 = ORIENTED_EDGE('',*,*,#658,.F.);
#682 = ORIENTED_EDGE('',*,*,#103,.F.);
#683 = ORIENTED_EDGE('',*,*,#634,.T.);
#684 = ORIENTED_EDGE('',*,*,#685,.F.);
#685 = EDGE_CURVE('',#659,#635,#686,.T.);
#686 = LINE('',#687,#688);
#687 = CARTESIAN_POINT('',(46.543831009528,-370.,559.09732565061));
#688 = VECTOR('',#689,1.);
#689 = DIRECTION('',(0.,1.,0.));
#690 = PLANE('',#691);
#691 = AXIS2_PLACEMENT_3D('',#692,#693,#694);
#692 = CARTESIAN_POINT('',(44.696071944505,-370.,559.86269251534));
#693 = DIRECTION('',(-0.382683432365,0.,-0.923879532511));
#694 = DIRECTION('',(0.923879532511,0.,-0.382683432365));
#695 = ADVANCED_FACE('',(#696),#721,.F.);
#696 = FACE_BOUND('',#697,.F.);
#697 = EDGE_LOOP('',(#698,#706,#707,#715));
#698 = ORIENTED_EDGE('',*,*,#699,.F.);
#699 = EDGE_CURVE('',#123,#700,#702,.T.);
#700 = VERTEX_POINT('',#701);
#701 = CARTESIAN_POINT('',(46.543831009528,-370.,600.90267434938));
#702 = LINE('',#703,#704);
#703 = CARTESIAN_POINT('',(44.696071944505,-370.,600.13730748465));
#704 = VECTOR('',#705,1.);
#705 = DIRECTION('',(0.923879532511,0.,0.382683432365));
#706 = ORIENTED_EDGE('',*,*,#120,.F.);
#707 = ORIENTED_EDGE('',*,*,#708,.T.);
#708 = EDGE_CURVE('',#121,#709,#711,.T.);
#709 = VERTEX_POINT('',#710);
#710 = CARTESIAN_POINT('',(46.543831009528,-235.,600.90267434938));
#711 = LINE('',#712,#713);
#712 = CARTESIAN_POINT('',(44.696071944505,-235.,600.13730748465));
#713 = VECTOR('',#714,1.);
#714 = DIRECTION('',(0.923879532511,0.,0.382683432365));
#715 = ORIENTED_EDGE('',*,*,#716,.F.);
#716 = EDGE_CURVE('',#700,#709,#717,.T.);
#717 = LINE('',#718,#719);
#718 = CARTESIAN_POINT('',(46.543831009528,-370.,600.90267434938));
#719 = VECTOR('',#720,1.);
#720 = DIRECTION('',(0.,1.,0.));
#721 = PLANE('',#722);
#722 = AXIS2_PLACEMENT_3D('',#723,#724,#725);
#723 = CARTESIAN_POINT('',(44.696071944505,-370.,600.13730748465));
#724 = DIRECTION('',(0.382683432365,0.,-0.923879532511));
#725 = DIRECTION('',(0.923879532511,0.,0.382683432365));
#726 = ADVANCED_FACE('',(#727),#745,.T.);
#727 = FACE_BOUND('',#728,.T.);
#728 = EDGE_LOOP('',(#729,#737,#738,#739));
#729 = ORIENTED_EDGE('',*,*,#730,.F.);
#730 = EDGE_CURVE('',#131,#731,#733,.T.);
#731 = VERTEX_POINT('',#732);
#732 = CARTESIAN_POINT('',(47.691881306623,-235.,598.13103575185));
#733 = LINE('',#734,#735);
#734 = CARTESIAN_POINT('',(45.844122241601,-235.,597.36566888712));
#735 = VECTOR('',#736,1.);
#736 = DIRECTION('',(0.923879532511,0.,0.382683432365));
#737 = ORIENTED_EDGE('',*,*,#130,.T.);
#738 = ORIENTED_EDGE('',*,*,#708,.T.);
#739 = ORIENTED_EDGE('',*,*,#740,.T.);
#740 = EDGE_CURVE('',#709,#731,#741,.T.);
#741 = LINE('',#742,#743);
#742 = CARTESIAN_POINT('',(46.543831009528,-235.,600.90267434938));
#743 = VECTOR('',#744,1.);
#744 = DIRECTION('',(0.382683432365,0.,-0.923879532511));
#745 = PLANE('',#746);
#746 = AXIS2_PLACEMENT_3D('',#747,#748,#749);
#747 = CARTESIAN_POINT('',(44.696071944505,-235.,600.13730748465));
#748 = DIRECTION('',(0.,1.,0.));
#749 = DIRECTION('',(0.923879532511,0.,0.382683432365));
#750 = ADVANCED_FACE('',(#751),#769,.F.);
#751 = FACE_BOUND('',#752,.F.);
#752 = EDGE_LOOP('',(#753,#761,#762,#763));
#753 = ORIENTED_EDGE('',*,*,#754,.F.);
#754 = EDGE_CURVE('',#140,#755,#757,.T.);
#755 = VERTEX_POINT('',#756);
#756 = CARTESIAN_POINT('',(47.691881306623,-370.,598.13103575185));
#757 = LINE('',#758,#759);
#758 = CARTESIAN_POINT('',(45.844122241601,-370.,597.36566888712));
#759 = VECTOR('',#760,1.);
#760 = DIRECTION('',(0.923879532511,0.,0.382683432365));
#761 = ORIENTED_EDGE('',*,*,#147,.T.);
#762 = ORIENTED_EDGE('',*,*,#699,.T.);
#763 = ORIENTED_EDGE('',*,*,#764,.T.);
#764 = EDGE_CURVE('',#700,#755,#765,.T.);
#765 = LINE('',#766,#767);
#766 = CARTESIAN_POINT('',(46.543831009528,-370.,600.90267434938));
#767 = VECTOR('',#768,1.);
#768 = DIRECTION('',(0.382683432365,0.,-0.923879532511));
#769 = PLANE('',#770);
#770 = AXIS2_PLACEMENT_3D('',#771,#772,#773);
#771 = CARTESIAN_POINT('',(44.696071944505,-370.,600.13730748465));
#772 = DIRECTION('',(0.,1.,0.));
#773 = DIRECTION('',(0.923879532511,0.,0.382683432365));
#774 = ADVANCED_FACE('',(#775),#786,.T.);
#775 = FACE_BOUND('',#776,.T.);
#776 = EDGE_LOOP('',(#777,#778,#779,#780));
#777 = ORIENTED_EDGE('',*,*,#754,.F.);
#778 = ORIENTED_EDGE('',*,*,#139,.F.);
#779 = ORIENTED_EDGE('',*,*,#730,.T.);
#780 = ORIENTED_EDGE('',*,*,#781,.F.);
#781 = EDGE_CURVE('',#755,#731,#782,.T.);
#782 = LINE('',#783,#784);
#783 = CARTESIAN_POINT('',(47.691881306623,-370.,598.13103575185));
#784 = VECTOR('',#785,1.);
#785 = DIRECTION('',(0.,1.,0.));
#786 = PLANE('',#787);
#787 = AXIS2_PLACEMENT_3D('',#788,#789,#790);
#788 = CARTESIAN_POINT('',(45.844122241601,-370.,597.36566888712));
#789 = DIRECTION('',(0.382683432365,0.,-0.923879532511));
#790 = DIRECTION('',(0.923879532511,0.,0.382683432365));
#791 = ADVANCED_FACE('',(#792),#817,.F.);
#792 = FACE_BOUND('',#793,.F.);
#793 = EDGE_LOOP('',(#794,#802,#803,#811));
#794 = ORIENTED_EDGE('',*,*,#795,.F.);
#795 = EDGE_CURVE('',#159,#796,#798,.T.);
#796 = VERTEX_POINT('',#797);
#797 = CARTESIAN_POINT('',(18.131035751853,-370.,627.69188130662));
#798 = LINE('',#799,#800);
#799 = CARTESIAN_POINT('',(17.365668887122,-370.,625.8441222416));
#800 = VECTOR('',#801,1.);
#801 = DIRECTION('',(0.382683432365,0.,0.923879532511));
#802 = ORIENTED_EDGE('',*,*,#156,.F.);
#803 = ORIENTED_EDGE('',*,*,#804,.T.);
#804 = EDGE_CURVE('',#157,#805,#807,.T.);
#805 = VERTEX_POINT('',#806);
#806 = CARTESIAN_POINT('',(18.131035751853,-235.,627.69188130662));
#807 = LINE('',#808,#809);
#808 = CARTESIAN_POINT('',(17.365668887122,-235.,625.8441222416));
#809 = VECTOR('',#810,1.);
#810 = DIRECTION('',(0.382683432365,0.,0.923879532511));
#811 = ORIENTED_EDGE('',*,*,#812,.F.);
#812 = EDGE_CURVE('',#796,#805,#813,.T.);
#813 = LINE('',#814,#815);
#814 = CARTESIAN_POINT('',(18.131035751853,-370.,627.69188130662));
#815 = VECTOR('',#816,1.);
#816 = DIRECTION('',(0.,1.,0.));
#817 = PLANE('',#818);
#818 = AXIS2_PLACEMENT_3D('',#819,#820,#821);
#819 = CARTESIAN_POINT('',(17.365668887122,-370.,625.8441222416));
#820 = DIRECTION('',(0.923879532511,0.,-0.382683432365));
#821 = DIRECTION('',(0.382683432365,0.,0.923879532511));
#822 = ADVANCED_FACE('',(#823),#841,.T.);
#823 = FACE_BOUND('',#824,.T.);
#824 = EDGE_LOOP('',(#825,#833,#834,#835));
#825 = ORIENTED_EDGE('',*,*,#826,.F.);
#826 = EDGE_CURVE('',#167,#827,#829,.T.);
#827 = VERTEX_POINT('',#828);
#828 = CARTESIAN_POINT('',(20.902674349387,-235.,626.54383100952));
#829 = LINE('',#830,#831);
#830 = CARTESIAN_POINT('',(20.137307484656,-235.,624.6960719445));
#831 = VECTOR('',#832,1.);
#832 = DIRECTION('',(0.382683432365,0.,0.923879532511));
#833 = ORIENTED_EDGE('',*,*,#166,.T.);
#834 = ORIENTED_EDGE('',*,*,#804,.T.);
#835 = ORIENTED_EDGE('',*,*,#836,.T.);
#836 = EDGE_CURVE('',#805,#827,#837,.T.);
#837 = LINE('',#838,#839);
#838 = CARTESIAN_POINT('',(18.131035751853,-235.,627.69188130662));
#839 = VECTOR('',#840,1.);
#840 = DIRECTION('',(0.923879532511,0.,-0.382683432365));
#841 = PLANE('',#842);
#842 = AXIS2_PLACEMENT_3D('',#843,#844,#845);
#843 = CARTESIAN_POINT('',(17.365668887122,-235.,625.8441222416));
#844 = DIRECTION('',(0.,1.,0.));
#845 = DIRECTION('',(0.382683432365,0.,0.923879532511));
#846 = ADVANCED_FACE('',(#847),#865,.F.);
#847 = FACE_BOUND('',#848,.F.);
#848 = EDGE_LOOP('',(#849,#857,#858,#859));
#849 = ORIENTED_EDGE('',*,*,#850,.F.);
#850 = EDGE_CURVE('',#176,#851,#853,.T.);
#851 = VERTEX_POINT('',#852);
#852 = CARTESIAN_POINT('',(20.902674349387,-370.,626.54383100952));
#853 = LINE('',#854,#855);
#854 = CARTESIAN_POINT('',(20.137307484656,-370.,624.6960719445));
#855 = VECTOR('',#856,1.);
#856 = DIRECTION('',(0.382683432365,0.,0.923879532511));
#857 = ORIENTED_EDGE('',*,*,#183,.T.);
#858 = ORIENTED_EDGE('',*,*,#795,.T.);
#859 = ORIENTED_EDGE('',*,*,#860,.T.);
#860 = EDGE_CURVE('',#796,#851,#861,.T.);
#861 = LINE('',#862,#863);
#862 = CARTESIAN_POINT('',(18.131035751853,-370.,627.69188130662));
#863 = VECTOR('',#864,1.);
#864 = DIRECTION('',(0.923879532511,0.,-0.382683432365));
#865 = PLANE('',#866);
#866 = AXIS2_PLACEMENT_3D('',#867,#868,#869);
#867 = CARTESIAN_POINT('',(17.365668887122,-370.,625.8441222416));
#868 = DIRECTION('',(0.,1.,0.));
#869 = DIRECTION('',(0.382683432365,0.,0.923879532511));
#870 = ADVANCED_FACE('',(#871),#882,.T.);
#871 = FACE_BOUND('',#872,.T.);
#872 = EDGE_LOOP('',(#873,#874,#875,#876));
#873 = ORIENTED_EDGE('',*,*,#850,.F.);
#874 = ORIENTED_EDGE('',*,*,#175,.F.);
#875 = ORIENTED_EDGE('',*,*,#826,.T.);
#876 = ORIENTED_EDGE('',*,*,#877,.F.);
#877 = EDGE_CURVE('',#851,#827,#878,.T.);
#878 = LINE('',#879,#880);
#879 = CARTESIAN_POINT('',(20.902674349387,-370.,626.54383100952));
#880 = VECTOR('',#881,1.);
#881 = DIRECTION('',(0.,1.,0.));
#882 = PLANE('',#883);
#883 = AXIS2_PLACEMENT_3D('',#884,#885,#886);
#884 = CARTESIAN_POINT('',(20.137307484656,-370.,624.6960719445));
#885 = DIRECTION('',(0.923879532511,0.,-0.382683432365));
#886 = DIRECTION('',(0.382683432365,0.,0.923879532511));
#887 = ADVANCED_FACE('',(#888),#913,.F.);
#888 = FACE_BOUND('',#889,.F.);
#889 = EDGE_LOOP('',(#890,#898,#899,#907));
#890 = ORIENTED_EDGE('',*,*,#891,.F.);
#891 = EDGE_CURVE('',#195,#892,#894,.T.);
#892 = VERTEX_POINT('',#893);
#893 = CARTESIAN_POINT('',(-20.90267434938,-370.,626.54383100952));
#894 = LINE('',#895,#896);
#895 = CARTESIAN_POINT('',(-20.13730748465,-370.,624.6960719445));
#896 = VECTOR('',#897,1.);
#897 = DIRECTION('',(-0.382683432365,0.,0.923879532511));
#898 = ORIENTED_EDGE('',*,*,#192,.F.);
#899 = ORIENTED_EDGE('',*,*,#900,.T.);
#900 = EDGE_CURVE('',#193,#901,#903,.T.);
#901 = VERTEX_POINT('',#902);
#902 = CARTESIAN_POINT('',(-20.90267434938,-235.,626.54383100952));
#903 = LINE('',#904,#905);
#904 = CARTESIAN_POINT('',(-20.13730748465,-235.,624.6960719445));
#905 = VECTOR('',#906,1.);
#906 = DIRECTION('',(-0.382683432365,0.,0.923879532511));
#907 = ORIENTED_EDGE('',*,*,#908,.F.);
#908 = EDGE_CURVE('',#892,#901,#909,.T.);
#909 = LINE('',#910,#911);
#910 = CARTESIAN_POINT('',(-20.90267434938,-370.,626.54383100952));
#911 = VECTOR('',#912,1.);
#912 = DIRECTION('',(0.,1.,0.));
#913 = PLANE('',#914);
#914 = AXIS2_PLACEMENT_3D('',#915,#916,#917);
#915 = CARTESIAN_POINT('',(-20.13730748465,-370.,624.6960719445));
#916 = DIRECTION('',(0.923879532511,0.,0.382683432365));
#917 = DIRECTION('',(-0.382683432365,0.,0.923879532511));
#918 = ADVANCED_FACE('',(#919),#937,.T.);
#919 = FACE_BOUND('',#920,.T.);
#920 = EDGE_LOOP('',(#921,#929,#930,#931));
#921 = ORIENTED_EDGE('',*,*,#922,.F.);
#922 = EDGE_CURVE('',#203,#923,#925,.T.);
#923 = VERTEX_POINT('',#924);
#924 = CARTESIAN_POINT('',(-18.13103575185,-235.,627.69188130662));
#925 = LINE('',#926,#927);
#926 = CARTESIAN_POINT('',(-17.36566888712,-235.,625.8441222416));
#927 = VECTOR('',#928,1.);
#928 = DIRECTION('',(-0.382683432365,0.,0.923879532511));
#929 = ORIENTED_EDGE('',*,*,#202,.T.);
#930 = ORIENTED_EDGE('',*,*,#900,.T.);
#931 = ORIENTED_EDGE('',*,*,#932,.T.);
#932 = EDGE_CURVE('',#901,#923,#933,.T.);
#933 = LINE('',#934,#935);
#934 = CARTESIAN_POINT('',(-20.90267434938,-235.,626.54383100952));
#935 = VECTOR('',#936,1.);
#936 = DIRECTION('',(0.923879532511,0.,0.382683432365));
#937 = PLANE('',#938);
#938 = AXIS2_PLACEMENT_3D('',#939,#940,#941);
#939 = CARTESIAN_POINT('',(-20.13730748465,-235.,624.6960719445));
#940 = DIRECTION('',(0.,1.,0.));
#941 = DIRECTION('',(-0.382683432365,0.,0.923879532511));
#942 = ADVANCED_FACE('',(#943),#961,.F.);
#943 = FACE_BOUND('',#944,.F.);
#944 = EDGE_LOOP('',(#945,#953,#954,#955));
#945 = ORIENTED_EDGE('',*,*,#946,.F.);
#946 = EDGE_CURVE('',#212,#947,#949,.T.);
#947 = VERTEX_POINT('',#948);
#948 = CARTESIAN_POINT('',(-18.13103575185,-370.,627.69188130662));
#949 = LINE('',#950,#951);
#950 = CARTESIAN_POINT('',(-17.36566888712,-370.,625.8441222416));
#951 = VECTOR('',#952,1.);
#952 = DIRECTION('',(-0.382683432365,0.,0.923879532511));
#953 = ORIENTED_EDGE('',*,*,#219,.T.);
#954 = ORIENTED_EDGE('',*,*,#891,.T.);
#955 = ORIENTED_EDGE('',*,*,#956,.T.);
#956 = EDGE_CURVE('',#892,#947,#957,.T.);
#957 = LINE('',#958,#959);
#958 = CARTESIAN_POINT('',(-20.90267434938,-370.,626.54383100952));
#959 = VECTOR('',#960,1.);
#960 = DIRECTION('',(0.923879532511,0.,0.382683432365));
#961 = PLANE('',#962);
#962 = AXIS2_PLACEMENT_3D('',#963,#964,#965);
#963 = CARTESIAN_POINT('',(-20.13730748465,-370.,624.6960719445));
#964 = DIRECTION('',(0.,1.,0.));
#965 = DIRECTION('',(-0.382683432365,0.,0.923879532511));
#966 = ADVANCED_FACE('',(#967),#978,.T.);
#967 = FACE_BOUND('',#968,.T.);
#968 = EDGE_LOOP('',(#969,#970,#971,#972));
#969 = ORIENTED_EDGE('',*,*,#946,.F.);
#970 = ORIENTED_EDGE('',*,*,#211,.F.);
#971 = ORIENTED_EDGE('',*,*,#922,.T.);
#972 = ORIENTED_EDGE('',*,*,#973,.F.);
#973 = EDGE_CURVE('',#947,#923,#974,.T.);
#974 = LINE('',#975,#976);
#975 = CARTESIAN_POINT('',(-18.13103575185,-370.,627.69188130662));
#976 = VECTOR('',#977,1.);
#977 = DIRECTION('',(0.,1.,0.));
#978 = PLANE('',#979);
#979 = AXIS2_PLACEMENT_3D('',#980,#981,#982);
#980 = CARTESIAN_POINT('',(-17.36566888712,-370.,625.8441222416));
#981 = DIRECTION('',(0.923879532511,0.,0.382683432365));
#982 = DIRECTION('',(-0.382683432365,0.,0.923879532511));
#983 = ADVANCED_FACE('',(#984),#1009,.F.);
#984 = FACE_BOUND('',#985,.F.);
#985 = EDGE_LOOP('',(#986,#994,#995,#1003));
#986 = ORIENTED_EDGE('',*,*,#987,.F.);
#987 = EDGE_CURVE('',#231,#988,#990,.T.);
#988 = VERTEX_POINT('',#989);
#989 = CARTESIAN_POINT('',(-47.69188130662,-370.,598.13103575185));
#990 = LINE('',#991,#992);
#991 = CARTESIAN_POINT('',(-45.8441222416,-370.,597.36566888712));
#992 = VECTOR('',#993,1.);
#993 = DIRECTION('',(-0.923879532511,0.,0.382683432365));
#994 = ORIENTED_EDGE('',*,*,#228,.F.);
#995 = ORIENTED_EDGE('',*,*,#996,.T.);
#996 = EDGE_CURVE('',#229,#997,#999,.T.);
#997 = VERTEX_POINT('',#998);
#998 = CARTESIAN_POINT('',(-47.69188130662,-235.,598.13103575185));
#999 = LINE('',#1000,#1001);
#1000 = CARTESIAN_POINT('',(-45.8441222416,-235.,597.36566888712));
#1001 = VECTOR('',#1002,1.);
#1002 = DIRECTION('',(-0.923879532511,0.,0.382683432365));
#1003 = ORIENTED_EDGE('',*,*,#1004,.F.);
#1004 = EDGE_CURVE('',#988,#997,#1005,.T.);
#1005 = LINE('',#1006,#1007);
#1006 = CARTESIAN_POINT('',(-47.69188130662,-370.,598.13103575185));
#1007 = VECTOR('',#1008,1.);
#1008 = DIRECTION('',(0.,1.,0.));
#1009 = PLANE('',#1010);
#1010 = AXIS2_PLACEMENT_3D('',#1011,#1012,#1013);
#1011 = CARTESIAN_POINT('',(-45.8441222416,-370.,597.36566888712));
#1012 = DIRECTION('',(0.382683432365,0.,0.923879532511));
#1013 = DIRECTION('',(-0.923879532511,0.,0.382683432365));
#1014 = ADVANCED_FACE('',(#1015),#1033,.T.);
#1015 = FACE_BOUND('',#1016,.T.);
#1016 = EDGE_LOOP('',(#1017,#1025,#1026,#1027));
#1017 = ORIENTED_EDGE('',*,*,#1018,.F.);
#1018 = EDGE_CURVE('',#239,#1019,#1021,.T.);
#1019 = VERTEX_POINT('',#1020);
#1020 = CARTESIAN_POINT('',(-46.54383100952,-235.,600.90267434938));
#1021 = LINE('',#1022,#1023);
#1022 = CARTESIAN_POINT('',(-44.6960719445,-235.,600.13730748465));
#1023 = VECTOR('',#1024,1.);
#1024 = DIRECTION('',(-0.923879532511,0.,0.382683432365));
#1025 = ORIENTED_EDGE('',*,*,#238,.T.);
#1026 = ORIENTED_EDGE('',*,*,#996,.T.);
#1027 = ORIENTED_EDGE('',*,*,#1028,.T.);
#1028 = EDGE_CURVE('',#997,#1019,#1029,.T.);
#1029 = LINE('',#1030,#1031);
#1030 = CARTESIAN_POINT('',(-47.69188130662,-235.,598.13103575185));
#1031 = VECTOR('',#1032,1.);
#1032 = DIRECTION('',(0.382683432365,0.,0.923879532511));
#1033 = PLANE('',#1034);
#1034 = AXIS2_PLACEMENT_3D('',#1035,#1036,#1037);
#1035 = CARTESIAN_POINT('',(-45.8441222416,-235.,597.36566888712));
#1036 = DIRECTION('',(0.,1.,0.));
#1037 = DIRECTION('',(-0.923879532511,0.,0.382683432365));
#1038 = ADVANCED_FACE('',(#1039),#1057,.F.);
#1039 = FACE_BOUND('',#1040,.F.);
#1040 = EDGE_LOOP('',(#1041,#1049,#1050,#1051));
#1041 = ORIENTED_EDGE('',*,*,#1042,.F.);
#1042 = EDGE_CURVE('',#248,#1043,#1045,.T.);
#1043 = VERTEX_POINT('',#1044);
#1044 = CARTESIAN_POINT('',(-46.54383100952,-370.,600.90267434938));
#1045 = LINE('',#1046,#1047);
#1046 = CARTESIAN_POINT('',(-44.6960719445,-370.,600.13730748465));
#1047 = VECTOR('',#1048,1.);
#1048 = DIRECTION('',(-0.923879532511,0.,0.382683432365));
#1049 = ORIENTED_EDGE('',*,*,#255,.T.);
#1050 = ORIENTED_EDGE('',*,*,#987,.T.);
#1051 = ORIENTED_EDGE('',*,*,#1052,.T.);
#1052 = EDGE_CURVE('',#988,#1043,#1053,.T.);
#1053 = LINE('',#1054,#1055);
#1054 = CARTESIAN_POINT('',(-47.69188130662,-370.,598.13103575185));
#1055 = VECTOR('',#1056,1.);
#1056 = DIRECTION('',(0.382683432365,0.,0.923879532511));
#1057 = PLANE('',#1058);
#1058 = AXIS2_PLACEMENT_3D('',#1059,#1060,#1061);
#1059 = CARTESIAN_POINT('',(-45.8441222416,-370.,597.36566888712));
#1060 = DIRECTION('',(0.,1.,0.));
#1061 = DIRECTION('',(-0.923879532511,0.,0.382683432365));
#1062 = ADVANCED_FACE('',(#1063),#1074,.T.);
#1063 = FACE_BOUND('',#1064,.T.);
#1064 = EDGE_LOOP('',(#1065,#1066,#1067,#1068));
#1065 = ORIENTED_EDGE('',*,*,#1042,.F.);
#1066 = ORIENTED_EDGE('',*,*,#247,.F.);
#1067 = ORIENTED_EDGE('',*,*,#1018,.T.);
#1068 = ORIENTED_EDGE('',*,*,#1069,.F.);
#1069 = EDGE_CURVE('',#1043,#1019,#1070,.T.);
#1070 = LINE('',#1071,#1072);
#1071 = CARTESIAN_POINT('',(-46.54383100952,-370.,600.90267434938));
#1072 = VECTOR('',#1073,1.);
#1073 = DIRECTION('',(0.,1.,0.));
#1074 = PLANE('',#1075);
#1075 = AXIS2_PLACEMENT_3D('',#1076,#1077,#1078);
#1076 = CARTESIAN_POINT('',(-44.6960719445,-370.,600.13730748465));
#1077 = DIRECTION('',(0.382683432365,0.,0.923879532511));
#1078 = DIRECTION('',(-0.923879532511,0.,0.382683432365));
#1079 = ADVANCED_FACE('',(#1080),#1105,.F.);
#1080 = FACE_BOUND('',#1081,.F.);
#1081 = EDGE_LOOP('',(#1082,#1090,#1091,#1099));
#1082 = ORIENTED_EDGE('',*,*,#1083,.F.);
#1083 = EDGE_CURVE('',#267,#1084,#1086,.T.);
#1084 = VERTEX_POINT('',#1085);
#1085 = CARTESIAN_POINT('',(-46.54383100952,-370.,559.09732565061));
#1086 = LINE('',#1087,#1088);
#1087 = CARTESIAN_POINT('',(-44.6960719445,-370.,559.86269251534));
#1088 = VECTOR('',#1089,1.);
#1089 = DIRECTION('',(-0.923879532511,0.,-0.382683432365));
#1090 = ORIENTED_EDGE('',*,*,#264,.F.);
#1091 = ORIENTED_EDGE('',*,*,#1092,.T.);
#1092 = EDGE_CURVE('',#265,#1093,#1095,.T.);
#1093 = VERTEX_POINT('',#1094);
#1094 = CARTESIAN_POINT('',(-46.54383100952,-235.,559.09732565061));
#1095 = LINE('',#1096,#1097);
#1096 = CARTESIAN_POINT('',(-44.6960719445,-235.,559.86269251534));
#1097 = VECTOR('',#1098,1.);
#1098 = DIRECTION('',(-0.923879532511,0.,-0.382683432365));
#1099 = ORIENTED_EDGE('',*,*,#1100,.F.);
#1100 = EDGE_CURVE('',#1084,#1093,#1101,.T.);
#1101 = LINE('',#1102,#1103);
#1102 = CARTESIAN_POINT('',(-46.54383100952,-370.,559.09732565061));
#1103 = VECTOR('',#1104,1.);
#1104 = DIRECTION('',(0.,1.,0.));
#1105 = PLANE('',#1106);
#1106 = AXIS2_PLACEMENT_3D('',#1107,#1108,#1109);
#1107 = CARTESIAN_POINT('',(-44.6960719445,-370.,559.86269251534));
#1108 = DIRECTION('',(-0.382683432365,0.,0.923879532511));
#1109 = DIRECTION('',(-0.923879532511,0.,-0.382683432365));
#1110 = ADVANCED_FACE('',(#1111),#1129,.T.);
#1111 = FACE_BOUND('',#1112,.T.);
#1112 = EDGE_LOOP('',(#1113,#1121,#1122,#1123));
#1113 = ORIENTED_EDGE('',*,*,#1114,.F.);
#1114 = EDGE_CURVE('',#275,#1115,#1117,.T.);
#1115 = VERTEX_POINT('',#1116);
#1116 = CARTESIAN_POINT('',(-47.69188130662,-235.,561.86896424814));
#1117 = LINE('',#1118,#1119);
#1118 = CARTESIAN_POINT('',(-45.8441222416,-235.,562.63433111287));
#1119 = VECTOR('',#1120,1.);
#1120 = DIRECTION('',(-0.923879532511,0.,-0.382683432365));
#1121 = ORIENTED_EDGE('',*,*,#274,.T.);
#1122 = ORIENTED_EDGE('',*,*,#1092,.T.);
#1123 = ORIENTED_EDGE('',*,*,#1124,.T.);
#1124 = EDGE_CURVE('',#1093,#1115,#1125,.T.);
#1125 = LINE('',#1126,#1127);
#1126 = CARTESIAN_POINT('',(-46.54383100952,-235.,559.09732565061));
#1127 = VECTOR('',#1128,1.);
#1128 = DIRECTION('',(-0.382683432365,0.,0.923879532511));
#1129 = PLANE('',#1130);
#1130 = AXIS2_PLACEMENT_3D('',#1131,#1132,#1133);
#1131 = CARTESIAN_POINT('',(-44.6960719445,-235.,559.86269251534));
#1132 = DIRECTION('',(0.,1.,0.));
#1133 = DIRECTION('',(-0.923879532511,0.,-0.382683432365));
#1134 = ADVANCED_FACE('',(#1135),#1153,.F.);
#1135 = FACE_BOUND('',#1136,.F.);
#1136 = EDGE_LOOP('',(#1137,#1145,#1146,#1147));
#1137 = ORIENTED_EDGE('',*,*,#1138,.F.);
#1138 = EDGE_CURVE('',#284,#1139,#1141,.T.);
#1139 = VERTEX_POINT('',#1140);
#1140 = CARTESIAN_POINT('',(-47.69188130662,-370.,561.86896424814));
#1141 = LINE('',#1142,#1143);
#1142 = CARTESIAN_POINT('',(-45.8441222416,-370.,562.63433111287));
#1143 = VECTOR('',#1144,1.);
#1144 = DIRECTION('',(-0.923879532511,0.,-0.382683432365));
#1145 = ORIENTED_EDGE('',*,*,#291,.T.);
#1146 = ORIENTED_EDGE('',*,*,#1083,.T.);
#1147 = ORIENTED_EDGE('',*,*,#1148,.T.);
#1148 = EDGE_CURVE('',#1084,#1139,#1149,.T.);
#1149 = LINE('',#1150,#1151);
#1150 = CARTESIAN_POINT('',(-46.54383100952,-370.,559.09732565061));
#1151 = VECTOR('',#1152,1.);
#1152 = DIRECTION('',(-0.382683432365,0.,0.923879532511));
#1153 = PLANE('',#1154);
#1154 = AXIS2_PLACEMENT_3D('',#1155,#1156,#1157);
#1155 = CARTESIAN_POINT('',(-44.6960719445,-370.,559.86269251534));
#1156 = DIRECTION('',(0.,1.,0.));
#1157 = DIRECTION('',(-0.923879532511,0.,-0.382683432365));
#1158 = ADVANCED_FACE('',(#1159),#1170,.T.);
#1159 = FACE_BOUND('',#1160,.T.);
#1160 = EDGE_LOOP('',(#1161,#1162,#1163,#1164));
#1161 = ORIENTED_EDGE('',*,*,#1138,.F.);
#1162 = ORIENTED_EDGE('',*,*,#283,.F.);
#1163 = ORIENTED_EDGE('',*,*,#1114,.T.);
#1164 = ORIENTED_EDGE('',*,*,#1165,.F.);
#1165 = EDGE_CURVE('',#1139,#1115,#1166,.T.);
#1166 = LINE('',#1167,#1168);
#1167 = CARTESIAN_POINT('',(-47.69188130662,-370.,561.86896424814));
#1168 = VECTOR('',#1169,1.);
#1169 = DIRECTION('',(0.,1.,0.));
#1170 = PLANE('',#1171);
#1171 = AXIS2_PLACEMENT_3D('',#1172,#1173,#1174);
#1172 = CARTESIAN_POINT('',(-45.8441222416,-370.,562.63433111287));
#1173 = DIRECTION('',(-0.382683432365,0.,0.923879532511));
#1174 = DIRECTION('',(-0.923879532511,0.,-0.382683432365));
#1175 = ADVANCED_FACE('',(#1176),#1201,.F.);
#1176 = FACE_BOUND('',#1177,.F.);
#1177 = EDGE_LOOP('',(#1178,#1186,#1187,#1195));
#1178 = ORIENTED_EDGE('',*,*,#1179,.F.);
#1179 = EDGE_CURVE('',#303,#1180,#1182,.T.);
#1180 = VERTEX_POINT('',#1181);
#1181 = CARTESIAN_POINT('',(-18.13103575185,-370.,532.30811869337));
#1182 = LINE('',#1183,#1184);
#1183 = CARTESIAN_POINT('',(-17.36566888712,-370.,534.15587775839));
#1184 = VECTOR('',#1185,1.);
#1185 = DIRECTION('',(-0.382683432365,0.,-0.923879532511));
#1186 = ORIENTED_EDGE('',*,*,#300,.F.);
#1187 = ORIENTED_EDGE('',*,*,#1188,.T.);
#1188 = EDGE_CURVE('',#301,#1189,#1191,.T.);
#1189 = VERTEX_POINT('',#1190);
#1190 = CARTESIAN_POINT('',(-18.13103575185,-235.,532.30811869337));
#1191 = LINE('',#1192,#1193);
#1192 = CARTESIAN_POINT('',(-17.36566888712,-235.,534.15587775839));
#1193 = VECTOR('',#1194,1.);
#1194 = DIRECTION('',(-0.382683432365,0.,-0.923879532511));
#1195 = ORIENTED_EDGE('',*,*,#1196,.F.);
#1196 = EDGE_CURVE('',#1180,#1189,#1197,.T.);
#1197 = LINE('',#1198,#1199);
#1198 = CARTESIAN_POINT('',(-18.13103575185,-370.,532.30811869337));
#1199 = VECTOR('',#1200,1.);
#1200 = DIRECTION('',(0.,1.,0.));
#1201 = PLANE('',#1202);
#1202 = AXIS2_PLACEMENT_3D('',#1203,#1204,#1205);
#1203 = CARTESIAN_POINT('',(-17.36566888712,-370.,534.15587775839));
#1204 = DIRECTION('',(-0.923879532511,0.,0.382683432365));
#1205 = DIRECTION('',(-0.382683432365,0.,-0.923879532511));
#1206 = ADVANCED_FACE('',(#1207),#1225,.T.);
#1207 = FACE_BOUND('',#1208,.T.);
#1208 = EDGE_LOOP('',(#1209,#1217,#1218,#1219));
#1209 = ORIENTED_EDGE('',*,*,#1210,.F.);
#1210 = EDGE_CURVE('',#311,#1211,#1213,.T.);
#1211 = VERTEX_POINT('',#1212);
#1212 = CARTESIAN_POINT('',(-20.90267434938,-235.,533.45616899047));
#1213 = LINE('',#1214,#1215);
#1214 = CARTESIAN_POINT('',(-20.13730748465,-235.,535.30392805549));
#1215 = VECTOR('',#1216,1.);
#1216 = DIRECTION('',(-0.382683432365,0.,-0.923879532511));
#1217 = ORIENTED_EDGE('',*,*,#310,.T.);
#1218 = ORIENTED_EDGE('',*,*,#1188,.T.);
#1219 = ORIENTED_EDGE('',*,*,#1220,.T.);
#1220 = EDGE_CURVE('',#1189,#1211,#1221,.T.);
#1221 = LINE('',#1222,#1223);
#1222 = CARTESIAN_POINT('',(-18.13103575185,-235.,532.30811869337));
#1223 = VECTOR('',#1224,1.);
#1224 = DIRECTION('',(-0.923879532511,0.,0.382683432365));
#1225 = PLANE('',#1226);
#1226 = AXIS2_PLACEMENT_3D('',#1227,#1228,#1229);
#1227 = CARTESIAN_POINT('',(-17.36566888712,-235.,534.15587775839));
#1228 = DIRECTION('',(0.,1.,0.));
#1229 = DIRECTION('',(-0.382683432365,0.,-0.923879532511));
#1230 = ADVANCED_FACE('',(#1231),#1249,.F.);
#1231 = FACE_BOUND('',#1232,.F.);
#1232 = EDGE_LOOP('',(#1233,#1241,#1242,#1243));
#1233 = ORIENTED_EDGE('',*,*,#1234,.F.);
#1234 = EDGE_CURVE('',#320,#1235,#1237,.T.);
#1235 = VERTEX_POINT('',#1236);
#1236 = CARTESIAN_POINT('',(-20.90267434938,-370.,533.45616899047));
#1237 = LINE('',#1238,#1239);
#1238 = CARTESIAN_POINT('',(-20.13730748465,-370.,535.30392805549));
#1239 = VECTOR('',#1240,1.);
#1240 = DIRECTION('',(-0.382683432365,0.,-0.923879532511));
#1241 = ORIENTED_EDGE('',*,*,#327,.T.);
#1242 = ORIENTED_EDGE('',*,*,#1179,.T.);
#1243 = ORIENTED_EDGE('',*,*,#1244,.T.);
#1244 = EDGE_CURVE('',#1180,#1235,#1245,.T.);
#1245 = LINE('',#1246,#1247);
#1246 = CARTESIAN_POINT('',(-18.13103575185,-370.,532.30811869337));
#1247 = VECTOR('',#1248,1.);
#1248 = DIRECTION('',(-0.923879532511,0.,0.382683432365));
#1249 = PLANE('',#1250);
#1250 = AXIS2_PLACEMENT_3D('',#1251,#1252,#1253);
#1251 = CARTESIAN_POINT('',(-17.36566888712,-370.,534.15587775839));
#1252 = DIRECTION('',(0.,1.,0.));
#1253 = DIRECTION('',(-0.382683432365,0.,-0.923879532511));
#1254 = ADVANCED_FACE('',(#1255),#1266,.T.);
#1255 = FACE_BOUND('',#1256,.T.);
#1256 = EDGE_LOOP('',(#1257,#1258,#1259,#1260));
#1257 = ORIENTED_EDGE('',*,*,#1234,.F.);
#1258 = ORIENTED_EDGE('',*,*,#319,.F.);
#1259 = ORIENTED_EDGE('',*,*,#1210,.T.);
#1260 = ORIENTED_EDGE('',*,*,#1261,.F.);
#1261 = EDGE_CURVE('',#1235,#1211,#1262,.T.);
#1262 = LINE('',#1263,#1264);
#1263 = CARTESIAN_POINT('',(-20.90267434938,-370.,533.45616899047));
#1264 = VECTOR('',#1265,1.);
#1265 = DIRECTION('',(0.,1.,0.));
#1266 = PLANE('',#1267);
#1267 = AXIS2_PLACEMENT_3D('',#1268,#1269,#1270);
#1268 = CARTESIAN_POINT('',(-20.13730748465,-370.,535.30392805549));
#1269 = DIRECTION('',(-0.923879532511,0.,0.382683432365));
#1270 = DIRECTION('',(-0.382683432365,0.,-0.923879532511));
#1271 = ADVANCED_FACE('',(#1272),#1331,.F.);
#1272 = FACE_BOUND('',#1273,.F.);
#1273 = EDGE_LOOP('',(#1274,#1323,#1329,#1330));
#1274 = ORIENTED_EDGE('',*,*,#1275,.F.);
#1275 = EDGE_CURVE('',#1276,#1276,#1278,.T.);
#1276 = VERTEX_POINT('',#1277);
#1277 = CARTESIAN_POINT('',(47.469569199646,-380.,578.3));
#1278 = B_SPLINE_CURVE_WITH_KNOTS('',7,(#1279,#1280,#1281,#1282,#1283,
    #1284,#1285,#1286,#1287,#1288,#1289,#1290,#1291,#1292,#1293,#1294,
    #1295,#1296,#1297,#1298,#1299,#1300,#1301,#1302,#1303,#1304,#1305,
    #1306,#1307,#1308,#1309,#1310,#1311,#1312,#1313,#1314,#1315,#1316,
    #1317,#1318,#1319,#1320,#1321,#1322),.UNSPECIFIED.,.T.,.F.,(8,6,6,6,
    6,6,6,8),(0.,0.152728894687,0.28570298528,0.421897526975,
    0.588708479713,0.714481803028,0.837883614235,1.),.UNSPECIFIED.);
#1279 = CARTESIAN_POINT('',(47.469569199646,-380.,578.3));
#1280 = CARTESIAN_POINT('',(47.469569199646,-380.2031385897,578.3));
#1281 = CARTESIAN_POINT('',(47.470583285582,-380.4061820926,
    578.32831807248));
#1282 = CARTESIAN_POINT('',(47.47261044364,-380.6066774777,
    578.38491533541));
#1283 = CARTESIAN_POINT('',(47.475572958181,-380.8018290509,
    578.47063377955));
#1284 = CARTESIAN_POINT('',(47.479310441808,-380.9879555157,
    578.58684048566));
#1285 = CARTESIAN_POINT('',(47.483501407138,-381.159904777,
    578.7350993657));
#1286 = CARTESIAN_POINT('',(47.491239605595,-381.4404425879,
    579.07421132558));
#1287 = CARTESIAN_POINT('',(47.494925435949,-381.558909423,
    579.26258650616));
#1288 = CARTESIAN_POINT('',(47.498185918167,-381.6517542269,
    579.47773962137));
#1289 = CARTESIAN_POINT('',(47.500372279241,-381.7096503211,
    579.71190161221));
#1290 = CARTESIAN_POINT('',(47.501009514959,-381.7275765597,
    579.95466646147));
#1291 = CARTESIAN_POINT('',(47.500146435037,-381.7050892161,
    580.19493875501));
#1292 = CARTESIAN_POINT('',(47.496041496159,-381.5866767937,
    580.65612469135));
#1293 = CARTESIAN_POINT('',(47.492815200883,-381.4910717873,
    580.86831281871));
#1294 = CARTESIAN_POINT('',(47.48890975664,-381.3678723842,
    581.05559127379));
#1295 = CARTESIAN_POINT('',(47.484844852108,-381.2238775047,
    581.21629080751));
#1296 = CARTESIAN_POINT('',(47.481025676309,-381.0650847207,
    581.349893566));
#1297 = CARTESIAN_POINT('',(47.47772509942,-380.8968302835,
    581.45679578615));
#1298 = CARTESIAN_POINT('',(47.471856717585,-380.511927829,
    581.63791713298));
#1299 = CARTESIAN_POINT('',(47.469576293484,-380.2900025688,
    581.7007515887));
#1300 = CARTESIAN_POINT('',(47.46851032179,-380.0630307029,
    581.72860025739));
#1301 = CARTESIAN_POINT('',(47.468757718924,-379.8344913799,
    581.72204364608));
#1302 = CARTESIAN_POINT('',(47.470321189336,-379.6081141766,
    581.68071599858));
#1303 = CARTESIAN_POINT('',(47.47305847799,-379.3882651404,
    581.60365602113));
#1304 = CARTESIAN_POINT('',(47.479329053865,-379.0247576312,
    581.40381607689));
#1305 = CARTESIAN_POINT('',(47.482536661311,-378.8735831401,
    581.29580563099));
#1306 = CARTESIAN_POINT('',(47.486114713502,-378.731633773,
    581.16485057077));
#1307 = CARTESIAN_POINT('',(47.489822033377,-378.6034403106,
    581.01085789591));
#1308 = CARTESIAN_POINT('',(47.493321497106,-378.4939343332,
    580.83451895763));
#1309 = CARTESIAN_POINT('',(47.496207677928,-378.408529472,
    580.63745432935));
#1310 = CARTESIAN_POINT('',(47.499993336728,-378.2993271082,
    580.21213920284));
#1311 = CARTESIAN_POINT('',(47.500880103754,-378.2758084402,
    579.99003547884));
#1312 = CARTESIAN_POINT('',(47.500494599661,-378.2869041213,
    579.76467206873));
#1313 = CARTESIAN_POINT('',(47.498769804342,-378.3327372373,
    579.54527446912));
#1314 = CARTESIAN_POINT('',(47.4960341656,-378.4096839241,
    579.34067716835));
#1315 = CARTESIAN_POINT('',(47.492793514736,-378.5105546402,
    579.15783291622));
#1316 = CARTESIAN_POINT('',(47.485146892109,-378.7745890838,
    578.7944206818));
#1317 = CARTESIAN_POINT('',(47.480547050822,-378.9524630771,
    578.62555118407));
#1318 = CARTESIAN_POINT('',(47.476359033014,-379.1480037185,
    578.49344011971));
#1319 = CARTESIAN_POINT('',(47.473013790557,-379.3546685116,
    578.39617028734));
#1320 = CARTESIAN_POINT('',(47.470717653771,-379.5677228723,
    578.33207205591));
#1321 = CARTESIAN_POINT('',(47.469569199646,-379.783822187,578.3));
#1322 = CARTESIAN_POINT('',(47.469569199646,-380.,578.3));
#1323 = ORIENTED_EDGE('',*,*,#1324,.F.);
#1324 = EDGE_CURVE('',#337,#1276,#1325,.T.);
#1325 = LINE('',#1326,#1327);
#1326 = CARTESIAN_POINT('',(52.01,-380.,578.3));
#1327 = VECTOR('',#1328,1.);
#1328 = DIRECTION('',(-1.,0.,0.));
#1329 = ORIENTED_EDGE('',*,*,#336,.T.);
#1330 = ORIENTED_EDGE('',*,*,#1324,.T.);
#1331 = CYLINDRICAL_SURFACE('',#1332,1.7);
#1332 = AXIS2_PLACEMENT_3D('',#1333,#1334,#1335);
#1333 = CARTESIAN_POINT('',(52.01,-380.,580.));
#1334 = DIRECTION('',(-1.,0.,0.));
#1335 = DIRECTION('',(0.,0.,-1.));
#1336 = ADVANCED_FACE('',(#1337),#1396,.F.);
#1337 = FACE_BOUND('',#1338,.F.);
#1338 = EDGE_LOOP('',(#1339,#1388,#1394,#1395));
#1339 = ORIENTED_EDGE('',*,*,#1340,.F.);
#1340 = EDGE_CURVE('',#1341,#1341,#1343,.T.);
#1341 = VERTEX_POINT('',#1342);
#1342 = CARTESIAN_POINT('',(-47.46956919964,-380.,581.7));
#1343 = B_SPLINE_CURVE_WITH_KNOTS('',7,(#1344,#1345,#1346,#1347,#1348,
    #1349,#1350,#1351,#1352,#1353,#1354,#1355,#1356,#1357,#1358,#1359,
    #1360,#1361,#1362,#1363,#1364,#1365,#1366,#1367,#1368,#1369,#1370,
    #1371,#1372,#1373,#1374,#1375,#1376,#1377,#1378,#1379,#1380,#1381,
    #1382,#1383,#1384,#1385,#1386,#1387),.UNSPECIFIED.,.T.,.F.,(8,6,6,6,
    6,6,6,8),(0.,0.152728894928,0.285702984364,0.421897526177,
    0.58870847906,0.71448180257,0.837883613868,1.),.UNSPECIFIED.);
#1344 = CARTESIAN_POINT('',(-47.46956919964,-380.,581.7));
#1345 = CARTESIAN_POINT('',(-47.46956919964,-380.2031385897,581.7));
#1346 = CARTESIAN_POINT('',(-47.47058328558,-380.4061820926,
    581.67168192751));
#1347 = CARTESIAN_POINT('',(-47.47261044364,-380.6066774777,
    581.61508466458));
#1348 = CARTESIAN_POINT('',(-47.47557295818,-380.8018290509,
    581.52936622044));
#1349 = CARTESIAN_POINT('',(-47.4793104418,-380.9879555157,
    581.41315951433));
#1350 = CARTESIAN_POINT('',(-47.48350140713,-381.159904777,
    581.26490063429));
#1351 = CARTESIAN_POINT('',(-47.49123960555,-381.4404425866,
    580.92578867603));
#1352 = CARTESIAN_POINT('',(-47.49492543605,-381.5589094267,
    580.73741348652));
#1353 = CARTESIAN_POINT('',(-47.49818591805,-381.6517542227,
    580.5222603929));
#1354 = CARTESIAN_POINT('',(-47.50037227928,-381.709650323,
    580.28809837282));
#1355 = CARTESIAN_POINT('',(-47.50100951498,-381.7275765601,
    580.04533354701));
#1356 = CARTESIAN_POINT('',(-47.50014643501,-381.7050892156,
    579.8050612428));
#1357 = CARTESIAN_POINT('',(-47.49604149615,-381.5866767937,
    579.34387530864));
#1358 = CARTESIAN_POINT('',(-47.49281520088,-381.4910717873,
    579.13168718128));
#1359 = CARTESIAN_POINT('',(-47.48890975664,-381.3678723842,
    578.9444087262));
#1360 = CARTESIAN_POINT('',(-47.4848448521,-381.2238775047,
    578.78370919248));
#1361 = CARTESIAN_POINT('',(-47.4810256763,-381.0650847207,
    578.65010643399));
#1362 = CARTESIAN_POINT('',(-47.47772509942,-380.8968302835,
    578.54320421384));
#1363 = CARTESIAN_POINT('',(-47.47185671758,-380.511927829,
    578.36208286701));
#1364 = CARTESIAN_POINT('',(-47.46957629348,-380.2900025688,
    578.29924841129));
#1365 = CARTESIAN_POINT('',(-47.46851032179,-380.0630307029,
    578.2713997426));
#1366 = CARTESIAN_POINT('',(-47.46875771892,-379.8344913799,
    578.27795635391));
#1367 = CARTESIAN_POINT('',(-47.47032118933,-379.6081141766,
    578.31928400141));
#1368 = CARTESIAN_POINT('',(-47.47305847799,-379.3882651404,
    578.39634397886));
#1369 = CARTESIAN_POINT('',(-47.47932905386,-379.0247576311,
    578.59618392316));
#1370 = CARTESIAN_POINT('',(-47.48253666131,-378.8735831401,
    578.70419436903));
#1371 = CARTESIAN_POINT('',(-47.4861147135,-378.7316337731,
    578.83514942915));
#1372 = CARTESIAN_POINT('',(-47.48982203337,-378.6034403107,
    578.989142104));
#1373 = CARTESIAN_POINT('',(-47.4933214971,-378.4939343331,
    579.16548104237));
#1374 = CARTESIAN_POINT('',(-47.49620767792,-378.408529472,
    579.36254567076));
#1375 = CARTESIAN_POINT('',(-47.49999333672,-378.2993271082,
    579.78786079687));
#1376 = CARTESIAN_POINT('',(-47.50088010376,-378.2758084401,
    580.00996452142));
#1377 = CARTESIAN_POINT('',(-47.50049459965,-378.2869041215,
    580.23532793152));
#1378 = CARTESIAN_POINT('',(-47.49876980434,-378.3327372373,
    580.4547255306));
#1379 = CARTESIAN_POINT('',(-47.4960341656,-378.4096839239,
    580.65932283142));
#1380 = CARTESIAN_POINT('',(-47.49279351473,-378.5105546404,
    580.84216708401));
#1381 = CARTESIAN_POINT('',(-47.4851468921,-378.7745890838,
    581.20557931819));
#1382 = CARTESIAN_POINT('',(-47.48054705082,-378.9524630771,
    581.37444881592));
#1383 = CARTESIAN_POINT('',(-47.47635903301,-379.1480037185,
    581.50655988028));
#1384 = CARTESIAN_POINT('',(-47.47301379055,-379.3546685116,
    581.60382971265));
#1385 = CARTESIAN_POINT('',(-47.47071765377,-379.5677228723,
    581.66792794408));
#1386 = CARTESIAN_POINT('',(-47.46956919964,-379.783822187,581.7));
#1387 = CARTESIAN_POINT('',(-47.46956919964,-380.,581.7));
#1388 = ORIENTED_EDGE('',*,*,#1389,.F.);
#1389 = EDGE_CURVE('',#388,#1341,#1390,.T.);
#1390 = LINE('',#1391,#1392);
#1391 = CARTESIAN_POINT('',(-52.01,-380.,581.7));
#1392 = VECTOR('',#1393,1.);
#1393 = DIRECTION('',(1.,0.,-1.224646799147E-16));
#1394 = ORIENTED_EDGE('',*,*,#387,.T.);
#1395 = ORIENTED_EDGE('',*,*,#1389,.T.);
#1396 = CYLINDRICAL_SURFACE('',#1397,1.7);
#1397 = AXIS2_PLACEMENT_3D('',#1398,#1399,#1400);
#1398 = CARTESIAN_POINT('',(-52.01,-380.,580.));
#1399 = DIRECTION('',(1.,0.,-1.224646799147E-16));
#1400 = DIRECTION('',(1.224646799147E-16,0.,1.));
#1401 = ADVANCED_FACE('',(#1402,#1421,#1424),#1427,.F.);
#1402 = FACE_BOUND('',#1403,.F.);
#1403 = EDGE_LOOP('',(#1404,#1413,#1419,#1420));
#1404 = ORIENTED_EDGE('',*,*,#1405,.T.);
#1405 = EDGE_CURVE('',#1406,#1406,#1408,.T.);
#1406 = VERTEX_POINT('',#1407);
#1407 = CARTESIAN_POINT('',(-1.16341445919E-14,-224.,532.5));
#1408 = CIRCLE('',#1409,47.5);
#1409 = AXIS2_PLACEMENT_3D('',#1410,#1411,#1412);
#1410 = CARTESIAN_POINT('',(0.,-224.,580.));
#1411 = DIRECTION('',(0.,-1.,0.));
#1412 = DIRECTION('',(0.,0.,-1.));
#1413 = ORIENTED_EDGE('',*,*,#1414,.T.);
#1414 = EDGE_CURVE('',#1406,#448,#1415,.T.);
#1415 = LINE('',#1416,#1417);
#1416 = CARTESIAN_POINT('',(-1.16341445919E-14,-224.,532.5));
#1417 = VECTOR('',#1418,1.);
#1418 = DIRECTION('',(0.,-1.,0.));
#1419 = ORIENTED_EDGE('',*,*,#447,.F.);
#1420 = ORIENTED_EDGE('',*,*,#1414,.F.);
#1421 = FACE_BOUND('',#1422,.F.);
#1422 = EDGE_LOOP('',(#1423));
#1423 = ORIENTED_EDGE('',*,*,#1275,.T.);
#1424 = FACE_BOUND('',#1425,.F.);
#1425 = EDGE_LOOP('',(#1426));
#1426 = ORIENTED_EDGE('',*,*,#1340,.T.);
#1427 = CYLINDRICAL_SURFACE('',#1428,47.5);
#1428 = AXIS2_PLACEMENT_3D('',#1429,#1430,#1431);
#1429 = CARTESIAN_POINT('',(0.,-224.,580.));
#1430 = DIRECTION('',(0.,-1.,0.));
#1431 = DIRECTION('',(0.,0.,-1.));
#1432 = ADVANCED_FACE('',(#1433),#1458,.F.);
#1433 = FACE_BOUND('',#1434,.F.);
#1434 = EDGE_LOOP('',(#1435,#1443,#1444,#1452));
#1435 = ORIENTED_EDGE('',*,*,#1436,.F.);
#1436 = EDGE_CURVE('',#470,#1437,#1439,.T.);
#1437 = VERTEX_POINT('',#1438);
#1438 = CARTESIAN_POINT('',(-24.,-164.,556.));
#1439 = LINE('',#1440,#1441);
#1440 = CARTESIAN_POINT('',(-24.,-224.,556.));
#1441 = VECTOR('',#1442,1.);
#1442 = DIRECTION('',(0.,1.,0.));
#1443 = ORIENTED_EDGE('',*,*,#467,.F.);
#1444 = ORIENTED_EDGE('',*,*,#1445,.T.);
#1445 = EDGE_CURVE('',#468,#1446,#1448,.T.);
#1446 = VERTEX_POINT('',#1447);
#1447 = CARTESIAN_POINT('',(24.,-164.,556.));
#1448 = LINE('',#1449,#1450);
#1449 = CARTESIAN_POINT('',(24.,-224.,556.));
#1450 = VECTOR('',#1451,1.);
#1451 = DIRECTION('',(0.,1.,0.));
#1452 = ORIENTED_EDGE('',*,*,#1453,.F.);
#1453 = EDGE_CURVE('',#1437,#1446,#1454,.T.);
#1454 = LINE('',#1455,#1456);
#1455 = CARTESIAN_POINT('',(-24.,-164.,556.));
#1456 = VECTOR('',#1457,1.);
#1457 = DIRECTION('',(1.,0.,0.));
#1458 = PLANE('',#1459);
#1459 = AXIS2_PLACEMENT_3D('',#1460,#1461,#1462);
#1460 = CARTESIAN_POINT('',(-24.,-224.,556.));
#1461 = DIRECTION('',(0.,0.,1.));
#1462 = DIRECTION('',(1.,0.,0.));
#1463 = ADVANCED_FACE('',(#1464,#1482,#1493),#1504,.T.);
#1464 = FACE_BOUND('',#1465,.T.);
#1465 = EDGE_LOOP('',(#1466,#1467,#1468,#1476));
#1466 = ORIENTED_EDGE('',*,*,#493,.F.);
#1467 = ORIENTED_EDGE('',*,*,#1445,.T.);
#1468 = ORIENTED_EDGE('',*,*,#1469,.T.);
#1469 = EDGE_CURVE('',#1446,#1470,#1472,.T.);
#1470 = VERTEX_POINT('',#1471);
#1471 = CARTESIAN_POINT('',(24.,-164.,604.));
#1472 = LINE('',#1473,#1474);
#1473 = CARTESIAN_POINT('',(24.,-164.,556.));
#1474 = VECTOR('',#1475,1.);
#1475 = DIRECTION('',(0.,0.,1.));
#1476 = ORIENTED_EDGE('',*,*,#1477,.F.);
#1477 = EDGE_CURVE('',#486,#1470,#1478,.T.);
#1478 = LINE('',#1479,#1480);
#1479 = CARTESIAN_POINT('',(24.,-224.,604.));
#1480 = VECTOR('',#1481,1.);
#1481 = DIRECTION('',(0.,1.,0.));
#1482 = FACE_BOUND('',#1483,.T.);
#1483 = EDGE_LOOP('',(#1484));
#1484 = ORIENTED_EDGE('',*,*,#1485,.F.);
#1485 = EDGE_CURVE('',#1486,#1486,#1488,.T.);
#1486 = VERTEX_POINT('',#1487);
#1487 = CARTESIAN_POINT('',(24.,-178.,582.25));
#1488 = CIRCLE('',#1489,2.25);
#1489 = AXIS2_PLACEMENT_3D('',#1490,#1491,#1492);
#1490 = CARTESIAN_POINT('',(24.,-178.,580.));
#1491 = DIRECTION('',(1.,0.,-0.));
#1492 = DIRECTION('',(0.,0.,1.));
#1493 = FACE_BOUND('',#1494,.T.);
#1494 = EDGE_LOOP('',(#1495));
#1495 = ORIENTED_EDGE('',*,*,#1496,.F.);
#1496 = EDGE_CURVE('',#1497,#1497,#1499,.T.);
#1497 = VERTEX_POINT('',#1498);
#1498 = CARTESIAN_POINT('',(24.,-200.,582.25));
#1499 = CIRCLE('',#1500,2.25);
#1500 = AXIS2_PLACEMENT_3D('',#1501,#1502,#1503);
#1501 = CARTESIAN_POINT('',(24.,-200.,580.));
#1502 = DIRECTION('',(1.,0.,-0.));
#1503 = DIRECTION('',(0.,0.,1.));
#1504 = PLANE('',#1505);
#1505 = AXIS2_PLACEMENT_3D('',#1506,#1507,#1508);
#1506 = CARTESIAN_POINT('',(24.,-224.,556.));
#1507 = DIRECTION('',(1.,0.,0.));
#1508 = DIRECTION('',(0.,0.,1.));
#1509 = ADVANCED_FACE('',(#1510),#1528,.T.);
#1510 = FACE_BOUND('',#1511,.T.);
#1511 = EDGE_LOOP('',(#1512,#1520,#1521,#1522));
#1512 = ORIENTED_EDGE('',*,*,#1513,.F.);
#1513 = EDGE_CURVE('',#478,#1514,#1516,.T.);
#1514 = VERTEX_POINT('',#1515);
#1515 = CARTESIAN_POINT('',(-24.,-164.,604.));
#1516 = LINE('',#1517,#1518);
#1517 = CARTESIAN_POINT('',(-24.,-224.,604.));
#1518 = VECTOR('',#1519,1.);
#1519 = DIRECTION('',(0.,1.,0.));
#1520 = ORIENTED_EDGE('',*,*,#485,.F.);
#1521 = ORIENTED_EDGE('',*,*,#1477,.T.);
#1522 = ORIENTED_EDGE('',*,*,#1523,.F.);
#1523 = EDGE_CURVE('',#1514,#1470,#1524,.T.);
#1524 = LINE('',#1525,#1526);
#1525 = CARTESIAN_POINT('',(-24.,-164.,604.));
#1526 = VECTOR('',#1527,1.);
#1527 = DIRECTION('',(1.,0.,0.));
#1528 = PLANE('',#1529);
#1529 = AXIS2_PLACEMENT_3D('',#1530,#1531,#1532);
#1530 = CARTESIAN_POINT('',(-24.,-224.,604.));
#1531 = DIRECTION('',(0.,0.,1.));
#1532 = DIRECTION('',(1.,0.,0.));
#1533 = ADVANCED_FACE('',(#1534,#1545,#1556),#1567,.F.);
#1534 = FACE_BOUND('',#1535,.F.);
#1535 = EDGE_LOOP('',(#1536,#1537,#1538,#1544));
#1536 = ORIENTED_EDGE('',*,*,#477,.F.);
#1537 = ORIENTED_EDGE('',*,*,#1436,.T.);
#1538 = ORIENTED_EDGE('',*,*,#1539,.T.);
#1539 = EDGE_CURVE('',#1437,#1514,#1540,.T.);
#1540 = LINE('',#1541,#1542);
#1541 = CARTESIAN_POINT('',(-24.,-164.,556.));
#1542 = VECTOR('',#1543,1.);
#1543 = DIRECTION('',(0.,0.,1.));
#1544 = ORIENTED_EDGE('',*,*,#1513,.F.);
#1545 = FACE_BOUND('',#1546,.F.);
#1546 = EDGE_LOOP('',(#1547));
#1547 = ORIENTED_EDGE('',*,*,#1548,.F.);
#1548 = EDGE_CURVE('',#1549,#1549,#1551,.T.);
#1549 = VERTEX_POINT('',#1550);
#1550 = CARTESIAN_POINT('',(-24.,-178.,582.25));
#1551 = CIRCLE('',#1552,2.25);
#1552 = AXIS2_PLACEMENT_3D('',#1553,#1554,#1555);
#1553 = CARTESIAN_POINT('',(-24.,-178.,580.));
#1554 = DIRECTION('',(1.,0.,-0.));
#1555 = DIRECTION('',(0.,0.,1.));
#1556 = FACE_BOUND('',#1557,.F.);
#1557 = EDGE_LOOP('',(#1558));
#1558 = ORIENTED_EDGE('',*,*,#1559,.F.);
#1559 = EDGE_CURVE('',#1560,#1560,#1562,.T.);
#1560 = VERTEX_POINT('',#1561);
#1561 = CARTESIAN_POINT('',(-24.,-200.,582.25));
#1562 = CIRCLE('',#1563,2.25);
#1563 = AXIS2_PLACEMENT_3D('',#1564,#1565,#1566);
#1564 = CARTESIAN_POINT('',(-24.,-200.,580.));
#1565 = DIRECTION('',(1.,0.,-0.));
#1566 = DIRECTION('',(0.,0.,1.));
#1567 = PLANE('',#1568);
#1568 = AXIS2_PLACEMENT_3D('',#1569,#1570,#1571);
#1569 = CARTESIAN_POINT('',(-24.,-224.,556.));
#1570 = DIRECTION('',(1.,0.,0.));
#1571 = DIRECTION('',(0.,0.,1.));
#1572 = ADVANCED_FACE('',(#1573),#1579,.T.);
#1573 = FACE_BOUND('',#1574,.T.);
#1574 = EDGE_LOOP('',(#1575,#1576,#1577,#1578));
#1575 = ORIENTED_EDGE('',*,*,#524,.F.);
#1576 = ORIENTED_EDGE('',*,*,#572,.T.);
#1577 = ORIENTED_EDGE('',*,*,#589,.T.);
#1578 = ORIENTED_EDGE('',*,*,#548,.F.);
#1579 = PLANE('',#1580);
#1580 = AXIS2_PLACEMENT_3D('',#1581,#1582,#1583);
#1581 = CARTESIAN_POINT('',(20.902674349387,-370.,533.45616899047));
#1582 = DIRECTION('',(0.382683432365,0.,-0.923879532511));
#1583 = DIRECTION('',(-0.923879532511,0.,-0.382683432365));
#1584 = ADVANCED_FACE('',(#1585),#1591,.T.);
#1585 = FACE_BOUND('',#1586,.T.);
#1586 = EDGE_LOOP('',(#1587,#1588,#1589,#1590));
#1587 = ORIENTED_EDGE('',*,*,#620,.F.);
#1588 = ORIENTED_EDGE('',*,*,#668,.T.);
#1589 = ORIENTED_EDGE('',*,*,#685,.T.);
#1590 = ORIENTED_EDGE('',*,*,#644,.F.);
#1591 = PLANE('',#1592);
#1592 = AXIS2_PLACEMENT_3D('',#1593,#1594,#1595);
#1593 = CARTESIAN_POINT('',(47.691881306623,-370.,561.86896424814));
#1594 = DIRECTION('',(0.923879532511,0.,-0.382683432365));
#1595 = DIRECTION('',(-0.382683432365,0.,-0.923879532511));
#1596 = ADVANCED_FACE('',(#1597),#1603,.T.);
#1597 = FACE_BOUND('',#1598,.T.);
#1598 = EDGE_LOOP('',(#1599,#1600,#1601,#1602));
#1599 = ORIENTED_EDGE('',*,*,#716,.F.);
#1600 = ORIENTED_EDGE('',*,*,#764,.T.);
#1601 = ORIENTED_EDGE('',*,*,#781,.T.);
#1602 = ORIENTED_EDGE('',*,*,#740,.F.);
#1603 = PLANE('',#1604);
#1604 = AXIS2_PLACEMENT_3D('',#1605,#1606,#1607);
#1605 = CARTESIAN_POINT('',(46.543831009528,-370.,600.90267434938));
#1606 = DIRECTION('',(0.923879532511,0.,0.382683432365));
#1607 = DIRECTION('',(0.382683432365,0.,-0.923879532511));
#1608 = ADVANCED_FACE('',(#1609),#1615,.T.);
#1609 = FACE_BOUND('',#1610,.T.);
#1610 = EDGE_LOOP('',(#1611,#1612,#1613,#1614));
#1611 = ORIENTED_EDGE('',*,*,#812,.F.);
#1612 = ORIENTED_EDGE('',*,*,#860,.T.);
#1613 = ORIENTED_EDGE('',*,*,#877,.T.);
#1614 = ORIENTED_EDGE('',*,*,#836,.F.);
#1615 = PLANE('',#1616);
#1616 = AXIS2_PLACEMENT_3D('',#1617,#1618,#1619);
#1617 = CARTESIAN_POINT('',(18.131035751853,-370.,627.69188130662));
#1618 = DIRECTION('',(0.382683432365,0.,0.923879532511));
#1619 = DIRECTION('',(0.923879532511,0.,-0.382683432365));
#1620 = ADVANCED_FACE('',(#1621),#1627,.T.);
#1621 = FACE_BOUND('',#1622,.T.);
#1622 = EDGE_LOOP('',(#1623,#1624,#1625,#1626));
#1623 = ORIENTED_EDGE('',*,*,#908,.F.);
#1624 = ORIENTED_EDGE('',*,*,#956,.T.);
#1625 = ORIENTED_EDGE('',*,*,#973,.T.);
#1626 = ORIENTED_EDGE('',*,*,#932,.F.);
#1627 = PLANE('',#1628);
#1628 = AXIS2_PLACEMENT_3D('',#1629,#1630,#1631);
#1629 = CARTESIAN_POINT('',(-20.90267434938,-370.,626.54383100952));
#1630 = DIRECTION('',(-0.382683432365,0.,0.923879532511));
#1631 = DIRECTION('',(0.923879532511,0.,0.382683432365));
#1632 = ADVANCED_FACE('',(#1633),#1639,.T.);
#1633 = FACE_BOUND('',#1634,.T.);
#1634 = EDGE_LOOP('',(#1635,#1636,#1637,#1638));
#1635 = ORIENTED_EDGE('',*,*,#1004,.F.);
#1636 = ORIENTED_EDGE('',*,*,#1052,.T.);
#1637 = ORIENTED_EDGE('',*,*,#1069,.T.);
#1638 = ORIENTED_EDGE('',*,*,#1028,.F.);
#1639 = PLANE('',#1640);
#1640 = AXIS2_PLACEMENT_3D('',#1641,#1642,#1643);
#1641 = CARTESIAN_POINT('',(-47.69188130662,-370.,598.13103575185));
#1642 = DIRECTION('',(-0.923879532511,0.,0.382683432365));
#1643 = DIRECTION('',(0.382683432365,0.,0.923879532511));
#1644 = ADVANCED_FACE('',(#1645),#1651,.T.);
#1645 = FACE_BOUND('',#1646,.T.);
#1646 = EDGE_LOOP('',(#1647,#1648,#1649,#1650));
#1647 = ORIENTED_EDGE('',*,*,#1100,.F.);
#1648 = ORIENTED_EDGE('',*,*,#1148,.T.);
#1649 = ORIENTED_EDGE('',*,*,#1165,.T.);
#1650 = ORIENTED_EDGE('',*,*,#1124,.F.);
#1651 = PLANE('',#1652);
#1652 = AXIS2_PLACEMENT_3D('',#1653,#1654,#1655);
#1653 = CARTESIAN_POINT('',(-46.54383100952,-370.,559.09732565061));
#1654 = DIRECTION('',(-0.923879532511,0.,-0.382683432365));
#1655 = DIRECTION('',(-0.382683432365,0.,0.923879532511));
#1656 = ADVANCED_FACE('',(#1657),#1663,.T.);
#1657 = FACE_BOUND('',#1658,.T.);
#1658 = EDGE_LOOP('',(#1659,#1660,#1661,#1662));
#1659 = ORIENTED_EDGE('',*,*,#1196,.F.);
#1660 = ORIENTED_EDGE('',*,*,#1244,.T.);
#1661 = ORIENTED_EDGE('',*,*,#1261,.T.);
#1662 = ORIENTED_EDGE('',*,*,#1220,.F.);
#1663 = PLANE('',#1664);
#1664 = AXIS2_PLACEMENT_3D('',#1665,#1666,#1667);
#1665 = CARTESIAN_POINT('',(-18.13103575185,-370.,532.30811869337));
#1666 = DIRECTION('',(-0.382683432365,0.,-0.923879532511));
#1667 = DIRECTION('',(-0.923879532511,0.,0.382683432365));
#1668 = ADVANCED_FACE('',(#1669),#1672,.T.);
#1669 = FACE_BOUND('',#1670,.T.);
#1670 = EDGE_LOOP('',(#1671));
#1671 = ORIENTED_EDGE('',*,*,#1405,.T.);
#1672 = PLANE('',#1673);
#1673 = AXIS2_PLACEMENT_3D('',#1674,#1675,#1676);
#1674 = CARTESIAN_POINT('',(0.,-224.,580.));
#1675 = DIRECTION('',(0.,-1.,0.));
#1676 = DIRECTION('',(0.,0.,-1.));
#1677 = ADVANCED_FACE('',(#1678,#1684),#1718,.T.);
#1678 = FACE_BOUND('',#1679,.T.);
#1679 = EDGE_LOOP('',(#1680,#1681,#1682,#1683));
#1680 = ORIENTED_EDGE('',*,*,#1453,.F.);
#1681 = ORIENTED_EDGE('',*,*,#1539,.T.);
#1682 = ORIENTED_EDGE('',*,*,#1523,.T.);
#1683 = ORIENTED_EDGE('',*,*,#1469,.F.);
#1684 = FACE_BOUND('',#1685,.T.);
#1685 = EDGE_LOOP('',(#1686,#1696,#1704,#1712));
#1686 = ORIENTED_EDGE('',*,*,#1687,.F.);
#1687 = EDGE_CURVE('',#1688,#1690,#1692,.T.);
#1688 = VERTEX_POINT('',#1689);
#1689 = CARTESIAN_POINT('',(-20.25,-164.,600.25));
#1690 = VERTEX_POINT('',#1691);
#1691 = CARTESIAN_POINT('',(20.25,-164.,600.25));
#1692 = LINE('',#1693,#1694);
#1693 = CARTESIAN_POINT('',(-22.125,-164.,600.25));
#1694 = VECTOR('',#1695,1.);
#1695 = DIRECTION('',(1.,0.,0.));
#1696 = ORIENTED_EDGE('',*,*,#1697,.T.);
#1697 = EDGE_CURVE('',#1688,#1698,#1700,.T.);
#1698 = VERTEX_POINT('',#1699);
#1699 = CARTESIAN_POINT('',(-20.25,-164.,559.75));
#1700 = LINE('',#1701,#1702);
#1701 = CARTESIAN_POINT('',(-20.25,-164.,557.875));
#1702 = VECTOR('',#1703,1.);
#1703 = DIRECTION('',(0.,0.,-1.));
#1704 = ORIENTED_EDGE('',*,*,#1705,.T.);
#1705 = EDGE_CURVE('',#1698,#1706,#1708,.T.);
#1706 = VERTEX_POINT('',#1707);
#1707 = CARTESIAN_POINT('',(20.25,-164.,559.75));
#1708 = LINE('',#1709,#1710);
#1709 = CARTESIAN_POINT('',(-22.125,-164.,559.75));
#1710 = VECTOR('',#1711,1.);
#1711 = DIRECTION('',(1.,0.,0.));
#1712 = ORIENTED_EDGE('',*,*,#1713,.F.);
#1713 = EDGE_CURVE('',#1690,#1706,#1714,.T.);
#1714 = LINE('',#1715,#1716);
#1715 = CARTESIAN_POINT('',(20.25,-164.,557.875));
#1716 = VECTOR('',#1717,1.);
#1717 = DIRECTION('',(0.,0.,-1.));
#1718 = PLANE('',#1719);
#1719 = AXIS2_PLACEMENT_3D('',#1720,#1721,#1722);
#1720 = CARTESIAN_POINT('',(-24.,-164.,556.));
#1721 = DIRECTION('',(0.,1.,0.));
#1722 = DIRECTION('',(0.,0.,1.));
#1723 = ADVANCED_FACE('',(#1724),#1743,.F.);
#1724 = FACE_BOUND('',#1725,.F.);
#1725 = EDGE_LOOP('',(#1726,#1727,#1735,#1742));
#1726 = ORIENTED_EDGE('',*,*,#1485,.F.);
#1727 = ORIENTED_EDGE('',*,*,#1728,.F.);
#1728 = EDGE_CURVE('',#1729,#1486,#1731,.T.);
#1729 = VERTEX_POINT('',#1730);
#1730 = CARTESIAN_POINT('',(20.25,-178.,582.25));
#1731 = LINE('',#1732,#1733);
#1732 = CARTESIAN_POINT('',(-25.01,-178.,582.25));
#1733 = VECTOR('',#1734,1.);
#1734 = DIRECTION('',(1.,0.,0.));
#1735 = ORIENTED_EDGE('',*,*,#1736,.T.);
#1736 = EDGE_CURVE('',#1729,#1729,#1737,.T.);
#1737 = CIRCLE('',#1738,2.25);
#1738 = AXIS2_PLACEMENT_3D('',#1739,#1740,#1741);
#1739 = CARTESIAN_POINT('',(20.25,-178.,580.));
#1740 = DIRECTION('',(1.,0.,-0.));
#1741 = DIRECTION('',(0.,0.,1.));
#1742 = ORIENTED_EDGE('',*,*,#1728,.T.);
#1743 = CYLINDRICAL_SURFACE('',#1744,2.25);
#1744 = AXIS2_PLACEMENT_3D('',#1745,#1746,#1747);
#1745 = CARTESIAN_POINT('',(-25.01,-178.,580.));
#1746 = DIRECTION('',(1.,0.,0.));
#1747 = DIRECTION('',(0.,0.,1.));
#1748 = ADVANCED_FACE('',(#1749),#1768,.F.);
#1749 = FACE_BOUND('',#1750,.F.);
#1750 = EDGE_LOOP('',(#1751,#1752,#1760,#1767));
#1751 = ORIENTED_EDGE('',*,*,#1496,.F.);
#1752 = ORIENTED_EDGE('',*,*,#1753,.F.);
#1753 = EDGE_CURVE('',#1754,#1497,#1756,.T.);
#1754 = VERTEX_POINT('',#1755);
#1755 = CARTESIAN_POINT('',(20.25,-200.,582.25));
#1756 = LINE('',#1757,#1758);
#1757 = CARTESIAN_POINT('',(-25.01,-200.,582.25));
#1758 = VECTOR('',#1759,1.);
#1759 = DIRECTION('',(1.,0.,0.));
#1760 = ORIENTED_EDGE('',*,*,#1761,.T.);
#1761 = EDGE_CURVE('',#1754,#1754,#1762,.T.);
#1762 = CIRCLE('',#1763,2.25);
#1763 = AXIS2_PLACEMENT_3D('',#1764,#1765,#1766);
#1764 = CARTESIAN_POINT('',(20.25,-200.,580.));
#1765 = DIRECTION('',(1.,0.,-0.));
#1766 = DIRECTION('',(0.,0.,1.));
#1767 = ORIENTED_EDGE('',*,*,#1753,.T.);
#1768 = CYLINDRICAL_SURFACE('',#1769,2.25);
#1769 = AXIS2_PLACEMENT_3D('',#1770,#1771,#1772);
#1770 = CARTESIAN_POINT('',(-25.01,-200.,580.));
#1771 = DIRECTION('',(1.,0.,0.));
#1772 = DIRECTION('',(0.,0.,1.));
#1773 = ADVANCED_FACE('',(#1774),#1793,.F.);
#1774 = FACE_BOUND('',#1775,.F.);
#1775 = EDGE_LOOP('',(#1776,#1785,#1791,#1792));
#1776 = ORIENTED_EDGE('',*,*,#1777,.F.);
#1777 = EDGE_CURVE('',#1778,#1778,#1780,.T.);
#1778 = VERTEX_POINT('',#1779);
#1779 = CARTESIAN_POINT('',(-20.25,-178.,582.25));
#1780 = CIRCLE('',#1781,2.25);
#1781 = AXIS2_PLACEMENT_3D('',#1782,#1783,#1784);
#1782 = CARTESIAN_POINT('',(-20.25,-178.,580.));
#1783 = DIRECTION('',(1.,0.,-0.));
#1784 = DIRECTION('',(0.,0.,1.));
#1785 = ORIENTED_EDGE('',*,*,#1786,.F.);
#1786 = EDGE_CURVE('',#1549,#1778,#1787,.T.);
#1787 = LINE('',#1788,#1789);
#1788 = CARTESIAN_POINT('',(-25.01,-178.,582.25));
#1789 = VECTOR('',#1790,1.);
#1790 = DIRECTION('',(1.,0.,0.));
#1791 = ORIENTED_EDGE('',*,*,#1548,.T.);
#1792 = ORIENTED_EDGE('',*,*,#1786,.T.);
#1793 = CYLINDRICAL_SURFACE('',#1794,2.25);
#1794 = AXIS2_PLACEMENT_3D('',#1795,#1796,#1797);
#1795 = CARTESIAN_POINT('',(-25.01,-178.,580.));
#1796 = DIRECTION('',(1.,0.,0.));
#1797 = DIRECTION('',(0.,0.,1.));
#1798 = ADVANCED_FACE('',(#1799),#1818,.F.);
#1799 = FACE_BOUND('',#1800,.F.);
#1800 = EDGE_LOOP('',(#1801,#1810,#1816,#1817));
#1801 = ORIENTED_EDGE('',*,*,#1802,.F.);
#1802 = EDGE_CURVE('',#1803,#1803,#1805,.T.);
#1803 = VERTEX_POINT('',#1804);
#1804 = CARTESIAN_POINT('',(-20.25,-200.,582.25));
#1805 = CIRCLE('',#1806,2.25);
#1806 = AXIS2_PLACEMENT_3D('',#1807,#1808,#1809);
#1807 = CARTESIAN_POINT('',(-20.25,-200.,580.));
#1808 = DIRECTION('',(1.,0.,-0.));
#1809 = DIRECTION('',(0.,0.,1.));
#1810 = ORIENTED_EDGE('',*,*,#1811,.F.);
#1811 = EDGE_CURVE('',#1560,#1803,#1812,.T.);
#1812 = LINE('',#1813,#1814);
#1813 = CARTESIAN_POINT('',(-25.01,-200.,582.25));
#1814 = VECTOR('',#1815,1.);
#1815 = DIRECTION('',(1.,0.,0.));
#1816 = ORIENTED_EDGE('',*,*,#1559,.T.);
#1817 = ORIENTED_EDGE('',*,*,#1811,.T.);
#1818 = CYLINDRICAL_SURFACE('',#1819,2.25);
#1819 = AXIS2_PLACEMENT_3D('',#1820,#1821,#1822);
#1820 = CARTESIAN_POINT('',(-25.01,-200.,580.));
#1821 = DIRECTION('',(1.,0.,0.));
#1822 = DIRECTION('',(0.,0.,1.));
#1823 = ADVANCED_FACE('',(#1824),#1849,.F.);
#1824 = FACE_BOUND('',#1825,.F.);
#1825 = EDGE_LOOP('',(#1826,#1834,#1842,#1848));
#1826 = ORIENTED_EDGE('',*,*,#1827,.F.);
#1827 = EDGE_CURVE('',#1828,#1688,#1830,.T.);
#1828 = VERTEX_POINT('',#1829);
#1829 = CARTESIAN_POINT('',(-20.25,-220.,600.25));
#1830 = LINE('',#1831,#1832);
#1831 = CARTESIAN_POINT('',(-20.25,-225.,600.25));
#1832 = VECTOR('',#1833,1.);
#1833 = DIRECTION('',(0.,1.,0.));
#1834 = ORIENTED_EDGE('',*,*,#1835,.F.);
#1835 = EDGE_CURVE('',#1836,#1828,#1838,.T.);
#1836 = VERTEX_POINT('',#1837);
#1837 = CARTESIAN_POINT('',(20.25,-220.,600.25));
#1838 = LINE('',#1839,#1840);
#1839 = CARTESIAN_POINT('',(-10.125,-220.,600.25));
#1840 = VECTOR('',#1841,1.);
#1841 = DIRECTION('',(-1.,0.,0.));
#1842 = ORIENTED_EDGE('',*,*,#1843,.T.);
#1843 = EDGE_CURVE('',#1836,#1690,#1844,.T.);
#1844 = LINE('',#1845,#1846);
#1845 = CARTESIAN_POINT('',(20.25,-225.,600.25));
#1846 = VECTOR('',#1847,1.);
#1847 = DIRECTION('',(0.,1.,0.));
#1848 = ORIENTED_EDGE('',*,*,#1687,.F.);
#1849 = PLANE('',#1850);
#1850 = AXIS2_PLACEMENT_3D('',#1851,#1852,#1853);
#1851 = CARTESIAN_POINT('',(-20.25,-225.,600.25));
#1852 = DIRECTION('',(0.,0.,1.));
#1853 = DIRECTION('',(1.,0.,0.));
#1854 = ADVANCED_FACE('',(#1855,#1873,#1876),#1879,.F.);
#1855 = FACE_BOUND('',#1856,.F.);
#1856 = EDGE_LOOP('',(#1857,#1858,#1866,#1872));
#1857 = ORIENTED_EDGE('',*,*,#1843,.F.);
#1858 = ORIENTED_EDGE('',*,*,#1859,.F.);
#1859 = EDGE_CURVE('',#1860,#1836,#1862,.T.);
#1860 = VERTEX_POINT('',#1861);
#1861 = CARTESIAN_POINT('',(20.25,-220.,559.75));
#1862 = LINE('',#1863,#1864);
#1863 = CARTESIAN_POINT('',(20.25,-220.,569.875));
#1864 = VECTOR('',#1865,1.);
#1865 = DIRECTION('',(0.,0.,1.));
#1866 = ORIENTED_EDGE('',*,*,#1867,.T.);
#1867 = EDGE_CURVE('',#1860,#1706,#1868,.T.);
#1868 = LINE('',#1869,#1870);
#1869 = CARTESIAN_POINT('',(20.25,-225.,559.75));
#1870 = VECTOR('',#1871,1.);
#1871 = DIRECTION('',(0.,1.,0.));
#1872 = ORIENTED_EDGE('',*,*,#1713,.F.);
#1873 = FACE_BOUND('',#1874,.F.);
#1874 = EDGE_LOOP('',(#1875));
#1875 = ORIENTED_EDGE('',*,*,#1736,.F.);
#1876 = FACE_BOUND('',#1877,.F.);
#1877 = EDGE_LOOP('',(#1878));
#1878 = ORIENTED_EDGE('',*,*,#1761,.F.);
#1879 = PLANE('',#1880);
#1880 = AXIS2_PLACEMENT_3D('',#1881,#1882,#1883);
#1881 = CARTESIAN_POINT('',(20.25,-225.,559.75));
#1882 = DIRECTION('',(1.,0.,0.));
#1883 = DIRECTION('',(0.,0.,1.));
#1884 = ADVANCED_FACE('',(#1885),#1903,.T.);
#1885 = FACE_BOUND('',#1886,.T.);
#1886 = EDGE_LOOP('',(#1887,#1895,#1901,#1902));
#1887 = ORIENTED_EDGE('',*,*,#1888,.F.);
#1888 = EDGE_CURVE('',#1889,#1698,#1891,.T.);
#1889 = VERTEX_POINT('',#1890);
#1890 = CARTESIAN_POINT('',(-20.25,-220.,559.75));
#1891 = LINE('',#1892,#1893);
#1892 = CARTESIAN_POINT('',(-20.25,-225.,559.75));
#1893 = VECTOR('',#1894,1.);
#1894 = DIRECTION('',(0.,1.,0.));
#1895 = ORIENTED_EDGE('',*,*,#1896,.F.);
#1896 = EDGE_CURVE('',#1860,#1889,#1897,.T.);
#1897 = LINE('',#1898,#1899);
#1898 = CARTESIAN_POINT('',(-10.125,-220.,559.75));
#1899 = VECTOR('',#1900,1.);
#1900 = DIRECTION('',(-1.,0.,0.));
#1901 = ORIENTED_EDGE('',*,*,#1867,.T.);
#1902 = ORIENTED_EDGE('',*,*,#1705,.F.);
#1903 = PLANE('',#1904);
#1904 = AXIS2_PLACEMENT_3D('',#1905,#1906,#1907);
#1905 = CARTESIAN_POINT('',(-20.25,-225.,559.75));
#1906 = DIRECTION('',(0.,0.,1.));
#1907 = DIRECTION('',(1.,0.,0.));
#1908 = ADVANCED_FACE('',(#1909,#1920,#1923),#1926,.T.);
#1909 = FACE_BOUND('',#1910,.T.);
#1910 = EDGE_LOOP('',(#1911,#1912,#1918,#1919));
#1911 = ORIENTED_EDGE('',*,*,#1827,.F.);
#1912 = ORIENTED_EDGE('',*,*,#1913,.F.);
#1913 = EDGE_CURVE('',#1889,#1828,#1914,.T.);
#1914 = LINE('',#1915,#1916);
#1915 = CARTESIAN_POINT('',(-20.25,-220.,569.875));
#1916 = VECTOR('',#1917,1.);
#1917 = DIRECTION('',(0.,0.,1.));
#1918 = ORIENTED_EDGE('',*,*,#1888,.T.);
#1919 = ORIENTED_EDGE('',*,*,#1697,.F.);
#1920 = FACE_BOUND('',#1921,.T.);
#1921 = EDGE_LOOP('',(#1922));
#1922 = ORIENTED_EDGE('',*,*,#1777,.F.);
#1923 = FACE_BOUND('',#1924,.T.);
#1924 = EDGE_LOOP('',(#1925));
#1925 = ORIENTED_EDGE('',*,*,#1802,.F.);
#1926 = PLANE('',#1927);
#1927 = AXIS2_PLACEMENT_3D('',#1928,#1929,#1930);
#1928 = CARTESIAN_POINT('',(-20.25,-225.,559.75));
#1929 = DIRECTION('',(1.,0.,0.));
#1930 = DIRECTION('',(0.,0.,1.));
#1931 = ADVANCED_FACE('',(#1932),#1938,.F.);
#1932 = FACE_BOUND('',#1933,.F.);
#1933 = EDGE_LOOP('',(#1934,#1935,#1936,#1937));
#1934 = ORIENTED_EDGE('',*,*,#1859,.T.);
#1935 = ORIENTED_EDGE('',*,*,#1835,.T.);
#1936 = ORIENTED_EDGE('',*,*,#1913,.F.);
#1937 = ORIENTED_EDGE('',*,*,#1896,.F.);
#1938 = PLANE('',#1939);
#1939 = AXIS2_PLACEMENT_3D('',#1940,#1941,#1942);
#1940 = CARTESIAN_POINT('',(0.,-220.,580.));
#1941 = DIRECTION('',(0.,-1.,0.));
#1942 = DIRECTION('',(0.,0.,-1.));
#1943 = ( GEOMETRIC_REPRESENTATION_CONTEXT(3) 
GLOBAL_UNCERTAINTY_ASSIGNED_CONTEXT((#1947)) 
GLOBAL_UNIT_ASSIGNED_CONTEXT((#1944,#1945,#1946)) REPRESENTATION_CONTEXT
('Context #1','3D Context with UNIT and UNCERTAINTY') );
#1944 = ( LENGTH_UNIT() NAMED_UNIT(*) SI_UNIT(.MILLI.,.METRE.) );
#1945 = ( NAMED_UNIT(*) PLANE_ANGLE_UNIT() SI_UNIT($,.RADIAN.) );
#1946 = ( NAMED_UNIT(*) SI_UNIT($,.STERADIAN.) SOLID_ANGLE_UNIT() );
#1947 = UNCERTAINTY_MEASURE_WITH_UNIT(LENGTH_MEASURE(1.E-07),#1944,
  'distance_accuracy_value','confusion accuracy');
#1948 = PRODUCT_RELATED_PRODUCT_CATEGORY('part',$,(#7));
ENDSEC;
END-ISO-10303-21;
