ISO-10303-21;
HEADER;
FILE_DESCRIPTION(('FreeCAD Model'),'2;1');
FILE_NAME('Open CASCADE Shape Model','2026-09-19T23:10:22',('FreeCAD'),(
    'FreeCAD'),'Open CASCADE STEP processor 7.9','FreeCAD','Unknown');
FILE_SCHEMA(('AUTOMOTIVE_DESIGN { 1 0 10303 214 1 1 1 1 }'));
ENDSEC;
DATA;
#1 = APPLICATION_PROTOCOL_DEFINITION('international standard',
  'automotive_design',2000,#2);
#2 = APPLICATION_CONTEXT(
  'core data for automotive mechanical design processes');
#3 = SHAPE_DEFINITION_REPRESENTATION(#4,#10);
#4 = PRODUCT_DEFINITION_SHAPE('','',#5);
#5 = PRODUCT_DEFINITION('design','',#6,#9);
#6 = PRODUCT_DEFINITION_FORMATION('','',#7);
#7 = PRODUCT('Open CASCADE STEP translator 7.9 15',
  'Open CASCADE STEP translator 7.9 15','',(#8));
#8 = PRODUCT_CONTEXT('',#2,'mechanical');
#9 = PRODUCT_DEFINITION_CONTEXT('part definition',#2,'design');
#10 = ADVANCED_BREP_SHAPE_REPRESENTATION('',(#11,#15),#449);
#11 = AXIS2_PLACEMENT_3D('',#12,#13,#14);
#12 = CARTESIAN_POINT('',(0.,0.,0.));
#13 = DIRECTION('',(0.,0.,1.));
#14 = DIRECTION('',(1.,0.,-0.));
#15 = MANIFOLD_SOLID_BREP('',#16);
#16 = CLOSED_SHELL('',(#17,#50,#70,#123,#148,#173,#198,#223,#248,#301,
    #321,#341,#361,#381,#398,#415,#432));
#17 = ADVANCED_FACE('',(#18),#45,.T.);
#18 = FACE_BOUND('',#19,.T.);
#19 = EDGE_LOOP('',(#20,#29,#37,#44));
#20 = ORIENTED_EDGE('',*,*,#21,.F.);
#21 = EDGE_CURVE('',#22,#22,#24,.T.);
#22 = VERTEX_POINT('',#23);
#23 = CARTESIAN_POINT('',(126.8,9.797174393179E-15,620.));
#24 = CIRCLE('',#25,40.);
#25 = AXIS2_PLACEMENT_3D('',#26,#27,#28);
#26 = CARTESIAN_POINT('',(126.8,0.,580.));
#27 = DIRECTION('',(1.,0.,-0.));
#28 = DIRECTION('',(0.,0.,1.));
#29 = ORIENTED_EDGE('',*,*,#30,.F.);
#30 = EDGE_CURVE('',#31,#22,#33,.T.);
#31 = VERTEX_POINT('',#32);
#32 = CARTESIAN_POINT('',(121.,9.797174393179E-15,620.));
#33 = LINE('',#34,#35);
#34 = CARTESIAN_POINT('',(121.,9.797174393179E-15,620.));
#35 = VECTOR('',#36,1.);
#36 = DIRECTION('',(1.,0.,0.));
#37 = ORIENTED_EDGE('',*,*,#38,.T.);
#38 = EDGE_CURVE('',#31,#31,#39,.T.);
#39 = CIRCLE('',#40,40.);
#40 = AXIS2_PLACEMENT_3D('',#41,#42,#43);
#41 = CARTESIAN_POINT('',(121.,0.,580.));
#42 = DIRECTION('',(1.,0.,-0.));
#43 = DIRECTION('',(0.,0.,1.));
#44 = ORIENTED_EDGE('',*,*,#30,.T.);
#45 = CYLINDRICAL_SURFACE('',#46,40.);
#46 = AXIS2_PLACEMENT_3D('',#47,#48,#49);
#47 = CARTESIAN_POINT('',(121.,0.,580.));
#48 = DIRECTION('',(1.,0.,0.));
#49 = DIRECTION('',(0.,0.,1.));
#50 = ADVANCED_FACE('',(#51,#54),#65,.T.);
#51 = FACE_BOUND('',#52,.T.);
#52 = EDGE_LOOP('',(#53));
#53 = ORIENTED_EDGE('',*,*,#21,.T.);
#54 = FACE_BOUND('',#55,.T.);
#55 = EDGE_LOOP('',(#56));
#56 = ORIENTED_EDGE('',*,*,#57,.F.);
#57 = EDGE_CURVE('',#58,#58,#60,.T.);
#58 = VERTEX_POINT('',#59);
#59 = CARTESIAN_POINT('',(126.8,9.429780353435E-15,618.5));
#60 = CIRCLE('',#61,38.5);
#61 = AXIS2_PLACEMENT_3D('',#62,#63,#64);
#62 = CARTESIAN_POINT('',(126.8,0.,580.));
#63 = DIRECTION('',(1.,0.,-0.));
#64 = DIRECTION('',(0.,0.,1.));
#65 = PLANE('',#66);
#66 = AXIS2_PLACEMENT_3D('',#67,#68,#69);
#67 = CARTESIAN_POINT('',(126.8,0.,580.));
#68 = DIRECTION('',(1.,0.,0.));
#69 = DIRECTION('',(0.,0.,1.));
#70 = ADVANCED_FACE('',(#71,#74,#85,#96,#107),#118,.F.);
#71 = FACE_BOUND('',#72,.F.);
#72 = EDGE_LOOP('',(#73));
#73 = ORIENTED_EDGE('',*,*,#38,.T.);
#74 = FACE_BOUND('',#75,.F.);
#75 = EDGE_LOOP('',(#76));
#76 = ORIENTED_EDGE('',*,*,#77,.T.);
#77 = EDGE_CURVE('',#78,#78,#80,.T.);
#78 = VERTEX_POINT('',#79);
#79 = CARTESIAN_POINT('',(121.,13.946402637443,548.39184302779));
#80 = CIRCLE('',#81,1.7);
#81 = AXIS2_PLACEMENT_3D('',#82,#83,#84);
#82 = CARTESIAN_POINT('',(121.,13.946402637443,550.09184302779));
#83 = DIRECTION('',(-1.,0.,0.));
#84 = DIRECTION('',(0.,0.,-1.));
#85 = FACE_BOUND('',#86,.F.);
#86 = EDGE_LOOP('',(#87));
#87 = ORIENTED_EDGE('',*,*,#88,.T.);
#88 = EDGE_CURVE('',#89,#89,#91,.T.);
#89 = VERTEX_POINT('',#90);
#90 = CARTESIAN_POINT('',(121.,29.908156972209,564.35359736255));
#91 = CIRCLE('',#92,1.7);
#92 = AXIS2_PLACEMENT_3D('',#93,#94,#95);
#93 = CARTESIAN_POINT('',(121.,29.908156972209,566.05359736255));
#94 = DIRECTION('',(-1.,0.,0.));
#95 = DIRECTION('',(0.,0.,-1.));
#96 = FACE_BOUND('',#97,.F.);
#97 = EDGE_LOOP('',(#98));
#98 = ORIENTED_EDGE('',*,*,#99,.T.);
#99 = EDGE_CURVE('',#100,#100,#102,.T.);
#100 = VERTEX_POINT('',#101);
#101 = CARTESIAN_POINT('',(121.,-13.94640263744,548.39184302779));
#102 = CIRCLE('',#103,1.7);
#103 = AXIS2_PLACEMENT_3D('',#104,#105,#106);
#104 = CARTESIAN_POINT('',(121.,-13.94640263744,550.09184302779));
#105 = DIRECTION('',(-1.,0.,0.));
#106 = DIRECTION('',(0.,0.,-1.));
#107 = FACE_BOUND('',#108,.F.);
#108 = EDGE_LOOP('',(#109));
#109 = ORIENTED_EDGE('',*,*,#110,.T.);
#110 = EDGE_CURVE('',#111,#111,#113,.T.);
#111 = VERTEX_POINT('',#112);
#112 = CARTESIAN_POINT('',(121.,-29.9081569722,564.35359736255));
#113 = CIRCLE('',#114,1.7);
#114 = AXIS2_PLACEMENT_3D('',#115,#116,#117);
#115 = CARTESIAN_POINT('',(121.,-29.9081569722,566.05359736255));
#116 = DIRECTION('',(-1.,0.,0.));
#117 = DIRECTION('',(0.,0.,-1.));
#118 = PLANE('',#119);
#119 = AXIS2_PLACEMENT_3D('',#120,#121,#122);
#120 = CARTESIAN_POINT('',(121.,0.,580.));
#121 = DIRECTION('',(1.,0.,0.));
#122 = DIRECTION('',(0.,0.,1.));
#123 = ADVANCED_FACE('',(#124),#143,.T.);
#124 = FACE_BOUND('',#125,.T.);
#125 = EDGE_LOOP('',(#126,#135,#141,#142));
#126 = ORIENTED_EDGE('',*,*,#127,.F.);
#127 = EDGE_CURVE('',#128,#128,#130,.T.);
#128 = VERTEX_POINT('',#129);
#129 = CARTESIAN_POINT('',(128.,9.429780353435E-15,618.5));
#130 = CIRCLE('',#131,38.5);
#131 = AXIS2_PLACEMENT_3D('',#132,#133,#134);
#132 = CARTESIAN_POINT('',(128.,0.,580.));
#133 = DIRECTION('',(1.,0.,-0.));
#134 = DIRECTION('',(0.,0.,1.));
#135 = ORIENTED_EDGE('',*,*,#136,.F.);
#136 = EDGE_CURVE('',#58,#128,#137,.T.);
#137 = LINE('',#138,#139);
#138 = CARTESIAN_POINT('',(126.8,9.429780353435E-15,618.5));
#139 = VECTOR('',#140,1.);
#140 = DIRECTION('',(1.,0.,0.));
#141 = ORIENTED_EDGE('',*,*,#57,.T.);
#142 = ORIENTED_EDGE('',*,*,#136,.T.);
#143 = CYLINDRICAL_SURFACE('',#144,38.5);
#144 = AXIS2_PLACEMENT_3D('',#145,#146,#147);
#145 = CARTESIAN_POINT('',(126.8,0.,580.));
#146 = DIRECTION('',(1.,0.,0.));
#147 = DIRECTION('',(0.,0.,1.));
#148 = ADVANCED_FACE('',(#149),#168,.F.);
#149 = FACE_BOUND('',#150,.F.);
#150 = EDGE_LOOP('',(#151,#159,#160,#161));
#151 = ORIENTED_EDGE('',*,*,#152,.T.);
#152 = EDGE_CURVE('',#153,#78,#155,.T.);
#153 = VERTEX_POINT('',#154);
#154 = CARTESIAN_POINT('',(124.99,13.946402637443,548.39184302779));
#155 = LINE('',#156,#157);
#156 = CARTESIAN_POINT('',(125.01,13.946402637443,548.39184302779));
#157 = VECTOR('',#158,1.);
#158 = DIRECTION('',(-1.,0.,0.));
#159 = ORIENTED_EDGE('',*,*,#77,.F.);
#160 = ORIENTED_EDGE('',*,*,#152,.F.);
#161 = ORIENTED_EDGE('',*,*,#162,.T.);
#162 = EDGE_CURVE('',#153,#153,#163,.T.);
#163 = CIRCLE('',#164,1.7);
#164 = AXIS2_PLACEMENT_3D('',#165,#166,#167);
#165 = CARTESIAN_POINT('',(124.99,13.946402637443,550.09184302779));
#166 = DIRECTION('',(-1.,0.,0.));
#167 = DIRECTION('',(0.,0.,-1.));
#168 = CYLINDRICAL_SURFACE('',#169,1.7);
#169 = AXIS2_PLACEMENT_3D('',#170,#171,#172);
#170 = CARTESIAN_POINT('',(125.01,13.946402637443,550.09184302779));
#171 = DIRECTION('',(-1.,0.,0.));
#172 = DIRECTION('',(0.,0.,-1.));
#173 = ADVANCED_FACE('',(#174),#193,.F.);
#174 = FACE_BOUND('',#175,.F.);
#175 = EDGE_LOOP('',(#176,#184,#185,#186));
#176 = ORIENTED_EDGE('',*,*,#177,.T.);
#177 = EDGE_CURVE('',#178,#89,#180,.T.);
#178 = VERTEX_POINT('',#179);
#179 = CARTESIAN_POINT('',(124.99,29.908156972209,564.35359736255));
#180 = LINE('',#181,#182);
#181 = CARTESIAN_POINT('',(125.01,29.908156972209,564.35359736255));
#182 = VECTOR('',#183,1.);
#183 = DIRECTION('',(-1.,0.,0.));
#184 = ORIENTED_EDGE('',*,*,#88,.F.);
#185 = ORIENTED_EDGE('',*,*,#177,.F.);
#186 = ORIENTED_EDGE('',*,*,#187,.T.);
#187 = EDGE_CURVE('',#178,#178,#188,.T.);
#188 = CIRCLE('',#189,1.7);
#189 = AXIS2_PLACEMENT_3D('',#190,#191,#192);
#190 = CARTESIAN_POINT('',(124.99,29.908156972209,566.05359736255));
#191 = DIRECTION('',(-1.,0.,0.));
#192 = DIRECTION('',(0.,0.,-1.));
#193 = CYLINDRICAL_SURFACE('',#194,1.7);
#194 = AXIS2_PLACEMENT_3D('',#195,#196,#197);
#195 = CARTESIAN_POINT('',(125.01,29.908156972209,566.05359736255));
#196 = DIRECTION('',(-1.,0.,0.));
#197 = DIRECTION('',(0.,0.,-1.));
#198 = ADVANCED_FACE('',(#199),#218,.F.);
#199 = FACE_BOUND('',#200,.F.);
#200 = EDGE_LOOP('',(#201,#209,#210,#211));
#201 = ORIENTED_EDGE('',*,*,#202,.T.);
#202 = EDGE_CURVE('',#203,#100,#205,.T.);
#203 = VERTEX_POINT('',#204);
#204 = CARTESIAN_POINT('',(124.99,-13.94640263744,548.39184302779));
#205 = LINE('',#206,#207);
#206 = CARTESIAN_POINT('',(125.01,-13.94640263744,548.39184302779));
#207 = VECTOR('',#208,1.);
#208 = DIRECTION('',(-1.,0.,0.));
#209 = ORIENTED_EDGE('',*,*,#99,.F.);
#210 = ORIENTED_EDGE('',*,*,#202,.F.);
#211 = ORIENTED_EDGE('',*,*,#212,.T.);
#212 = EDGE_CURVE('',#203,#203,#213,.T.);
#213 = CIRCLE('',#214,1.7);
#214 = AXIS2_PLACEMENT_3D('',#215,#216,#217);
#215 = CARTESIAN_POINT('',(124.99,-13.94640263744,550.09184302779));
#216 = DIRECTION('',(-1.,0.,0.));
#217 = DIRECTION('',(0.,0.,-1.));
#218 = CYLINDRICAL_SURFACE('',#219,1.7);
#219 = AXIS2_PLACEMENT_3D('',#220,#221,#222);
#220 = CARTESIAN_POINT('',(125.01,-13.94640263744,550.09184302779));
#221 = DIRECTION('',(-1.,0.,0.));
#222 = DIRECTION('',(0.,0.,-1.));
#223 = ADVANCED_FACE('',(#224),#243,.F.);
#224 = FACE_BOUND('',#225,.F.);
#225 = EDGE_LOOP('',(#226,#234,#235,#236));
#226 = ORIENTED_EDGE('',*,*,#227,.T.);
#227 = EDGE_CURVE('',#228,#111,#230,.T.);
#228 = VERTEX_POINT('',#229);
#229 = CARTESIAN_POINT('',(124.99,-29.9081569722,564.35359736255));
#230 = LINE('',#231,#232);
#231 = CARTESIAN_POINT('',(125.01,-29.9081569722,564.35359736255));
#232 = VECTOR('',#233,1.);
#233 = DIRECTION('',(-1.,0.,0.));
#234 = ORIENTED_EDGE('',*,*,#110,.F.);
#235 = ORIENTED_EDGE('',*,*,#227,.F.);
#236 = ORIENTED_EDGE('',*,*,#237,.T.);
#237 = EDGE_CURVE('',#228,#228,#238,.T.);
#238 = CIRCLE('',#239,1.7);
#239 = AXIS2_PLACEMENT_3D('',#240,#241,#242);
#240 = CARTESIAN_POINT('',(124.99,-29.9081569722,566.05359736255));
#241 = DIRECTION('',(-1.,0.,0.));
#242 = DIRECTION('',(0.,0.,-1.));
#243 = CYLINDRICAL_SURFACE('',#244,1.7);
#244 = AXIS2_PLACEMENT_3D('',#245,#246,#247);
#245 = CARTESIAN_POINT('',(125.01,-29.9081569722,566.05359736255));
#246 = DIRECTION('',(-1.,0.,0.));
#247 = DIRECTION('',(0.,0.,-1.));
#248 = ADVANCED_FACE('',(#249,#252,#263,#274,#285),#296,.T.);
#249 = FACE_BOUND('',#250,.T.);
#250 = EDGE_LOOP('',(#251));
#251 = ORIENTED_EDGE('',*,*,#127,.T.);
#252 = FACE_BOUND('',#253,.T.);
#253 = EDGE_LOOP('',(#254));
#254 = ORIENTED_EDGE('',*,*,#255,.T.);
#255 = EDGE_CURVE('',#256,#256,#258,.T.);
#256 = VERTEX_POINT('',#257);
#257 = CARTESIAN_POINT('',(128.,13.946402637443,546.74184302779));
#258 = CIRCLE('',#259,3.35);
#259 = AXIS2_PLACEMENT_3D('',#260,#261,#262);
#260 = CARTESIAN_POINT('',(128.,13.946402637443,550.09184302779));
#261 = DIRECTION('',(-1.,0.,0.));
#262 = DIRECTION('',(0.,0.,-1.));
#263 = FACE_BOUND('',#264,.T.);
#264 = EDGE_LOOP('',(#265));
#265 = ORIENTED_EDGE('',*,*,#266,.T.);
#266 = EDGE_CURVE('',#267,#267,#269,.T.);
#267 = VERTEX_POINT('',#268);
#268 = CARTESIAN_POINT('',(128.,29.908156972209,562.70359736255));
#269 = CIRCLE('',#270,3.35);
#270 = AXIS2_PLACEMENT_3D('',#271,#272,#273);
#271 = CARTESIAN_POINT('',(128.,29.908156972209,566.05359736255));
#272 = DIRECTION('',(-1.,0.,0.));
#273 = DIRECTION('',(0.,0.,-1.));
#274 = FACE_BOUND('',#275,.T.);
#275 = EDGE_LOOP('',(#276));
#276 = ORIENTED_EDGE('',*,*,#277,.T.);
#277 = EDGE_CURVE('',#278,#278,#280,.T.);
#278 = VERTEX_POINT('',#279);
#279 = CARTESIAN_POINT('',(128.,-13.94640263744,546.74184302779));
#280 = CIRCLE('',#281,3.35);
#281 = AXIS2_PLACEMENT_3D('',#282,#283,#284);
#282 = CARTESIAN_POINT('',(128.,-13.94640263744,550.09184302779));
#283 = DIRECTION('',(-1.,0.,0.));
#284 = DIRECTION('',(0.,0.,-1.));
#285 = FACE_BOUND('',#286,.T.);
#286 = EDGE_LOOP('',(#287));
#287 = ORIENTED_EDGE('',*,*,#288,.T.);
#288 = EDGE_CURVE('',#289,#289,#291,.T.);
#289 = VERTEX_POINT('',#290);
#290 = CARTESIAN_POINT('',(128.,-29.9081569722,562.70359736255));
#291 = CIRCLE('',#292,3.35);
#292 = AXIS2_PLACEMENT_3D('',#293,#294,#295);
#293 = CARTESIAN_POINT('',(128.,-29.9081569722,566.05359736255));
#294 = DIRECTION('',(-1.,0.,0.));
#295 = DIRECTION('',(0.,0.,-1.));
#296 = PLANE('',#297);
#297 = AXIS2_PLACEMENT_3D('',#298,#299,#300);
#298 = CARTESIAN_POINT('',(128.,0.,580.));
#299 = DIRECTION('',(1.,0.,0.));
#300 = DIRECTION('',(0.,0.,1.));
#301 = ADVANCED_FACE('',(#302,#313),#316,.F.);
#302 = FACE_BOUND('',#303,.F.);
#303 = EDGE_LOOP('',(#304));
#304 = ORIENTED_EDGE('',*,*,#305,.T.);
#305 = EDGE_CURVE('',#306,#306,#308,.T.);
#306 = VERTEX_POINT('',#307);
#307 = CARTESIAN_POINT('',(124.99,13.946402637443,546.74184302779));
#308 = CIRCLE('',#309,3.35);
#309 = AXIS2_PLACEMENT_3D('',#310,#311,#312);
#310 = CARTESIAN_POINT('',(124.99,13.946402637443,550.09184302779));
#311 = DIRECTION('',(-1.,0.,0.));
#312 = DIRECTION('',(0.,0.,-1.));
#313 = FACE_BOUND('',#314,.F.);
#314 = EDGE_LOOP('',(#315));
#315 = ORIENTED_EDGE('',*,*,#162,.F.);
#316 = PLANE('',#317);
#317 = AXIS2_PLACEMENT_3D('',#318,#319,#320);
#318 = CARTESIAN_POINT('',(124.99,13.946402637443,550.09184302779));
#319 = DIRECTION('',(-1.,0.,0.));
#320 = DIRECTION('',(0.,0.,-1.));
#321 = ADVANCED_FACE('',(#322,#333),#336,.F.);
#322 = FACE_BOUND('',#323,.F.);
#323 = EDGE_LOOP('',(#324));
#324 = ORIENTED_EDGE('',*,*,#325,.T.);
#325 = EDGE_CURVE('',#326,#326,#328,.T.);
#326 = VERTEX_POINT('',#327);
#327 = CARTESIAN_POINT('',(124.99,29.908156972209,562.70359736255));
#328 = CIRCLE('',#329,3.35);
#329 = AXIS2_PLACEMENT_3D('',#330,#331,#332);
#330 = CARTESIAN_POINT('',(124.99,29.908156972209,566.05359736255));
#331 = DIRECTION('',(-1.,0.,0.));
#332 = DIRECTION('',(0.,0.,-1.));
#333 = FACE_BOUND('',#334,.F.);
#334 = EDGE_LOOP('',(#335));
#335 = ORIENTED_EDGE('',*,*,#187,.F.);
#336 = PLANE('',#337);
#337 = AXIS2_PLACEMENT_3D('',#338,#339,#340);
#338 = CARTESIAN_POINT('',(124.99,29.908156972209,566.05359736255));
#339 = DIRECTION('',(-1.,0.,0.));
#340 = DIRECTION('',(0.,0.,-1.));
#341 = ADVANCED_FACE('',(#342,#353),#356,.F.);
#342 = FACE_BOUND('',#343,.F.);
#343 = EDGE_LOOP('',(#344));
#344 = ORIENTED_EDGE('',*,*,#345,.T.);
#345 = EDGE_CURVE('',#346,#346,#348,.T.);
#346 = VERTEX_POINT('',#347);
#347 = CARTESIAN_POINT('',(124.99,-13.94640263744,546.74184302779));
#348 = CIRCLE('',#349,3.35);
#349 = AXIS2_PLACEMENT_3D('',#350,#351,#352);
#350 = CARTESIAN_POINT('',(124.99,-13.94640263744,550.09184302779));
#351 = DIRECTION('',(-1.,0.,0.));
#352 = DIRECTION('',(0.,0.,-1.));
#353 = FACE_BOUND('',#354,.F.);
#354 = EDGE_LOOP('',(#355));
#355 = ORIENTED_EDGE('',*,*,#212,.F.);
#356 = PLANE('',#357);
#357 = AXIS2_PLACEMENT_3D('',#358,#359,#360);
#358 = CARTESIAN_POINT('',(124.99,-13.94640263744,550.09184302779));
#359 = DIRECTION('',(-1.,0.,0.));
#360 = DIRECTION('',(0.,0.,-1.));
#361 = ADVANCED_FACE('',(#362,#373),#376,.F.);
#362 = FACE_BOUND('',#363,.F.);
#363 = EDGE_LOOP('',(#364));
#364 = ORIENTED_EDGE('',*,*,#365,.T.);
#365 = EDGE_CURVE('',#366,#366,#368,.T.);
#366 = VERTEX_POINT('',#367);
#367 = CARTESIAN_POINT('',(124.99,-29.9081569722,562.70359736255));
#368 = CIRCLE('',#369,3.35);
#369 = AXIS2_PLACEMENT_3D('',#370,#371,#372);
#370 = CARTESIAN_POINT('',(124.99,-29.9081569722,566.05359736255));
#371 = DIRECTION('',(-1.,0.,0.));
#372 = DIRECTION('',(0.,0.,-1.));
#373 = FACE_BOUND('',#374,.F.);
#374 = EDGE_LOOP('',(#375));
#375 = ORIENTED_EDGE('',*,*,#237,.F.);
#376 = PLANE('',#377);
#377 = AXIS2_PLACEMENT_3D('',#378,#379,#380);
#378 = CARTESIAN_POINT('',(124.99,-29.9081569722,566.05359736255));
#379 = DIRECTION('',(-1.,0.,0.));
#380 = DIRECTION('',(0.,0.,-1.));
#381 = ADVANCED_FACE('',(#382),#393,.F.);
#382 = FACE_BOUND('',#383,.F.);
#383 = EDGE_LOOP('',(#384,#385,#391,#392));
#384 = ORIENTED_EDGE('',*,*,#305,.F.);
#385 = ORIENTED_EDGE('',*,*,#386,.F.);
#386 = EDGE_CURVE('',#256,#306,#387,.T.);
#387 = LINE('',#388,#389);
#388 = CARTESIAN_POINT('',(128.,13.946402637443,546.74184302779));
#389 = VECTOR('',#390,1.);
#390 = DIRECTION('',(-1.,0.,0.));
#391 = ORIENTED_EDGE('',*,*,#255,.T.);
#392 = ORIENTED_EDGE('',*,*,#386,.T.);
#393 = CYLINDRICAL_SURFACE('',#394,3.35);
#394 = AXIS2_PLACEMENT_3D('',#395,#396,#397);
#395 = CARTESIAN_POINT('',(128.,13.946402637443,550.09184302779));
#396 = DIRECTION('',(-1.,0.,0.));
#397 = DIRECTION('',(0.,0.,-1.));
#398 = ADVANCED_FACE('',(#399),#410,.F.);
#399 = FACE_BOUND('',#400,.F.);
#400 = EDGE_LOOP('',(#401,#402,#408,#409));
#401 = ORIENTED_EDGE('',*,*,#325,.F.);
#402 = ORIENTED_EDGE('',*,*,#403,.F.);
#403 = EDGE_CURVE('',#267,#326,#404,.T.);
#404 = LINE('',#405,#406);
#405 = CARTESIAN_POINT('',(128.,29.908156972209,562.70359736255));
#406 = VECTOR('',#407,1.);
#407 = DIRECTION('',(-1.,0.,0.));
#408 = ORIENTED_EDGE('',*,*,#266,.T.);
#409 = ORIENTED_EDGE('',*,*,#403,.T.);
#410 = CYLINDRICAL_SURFACE('',#411,3.35);
#411 = AXIS2_PLACEMENT_3D('',#412,#413,#414);
#412 = CARTESIAN_POINT('',(128.,29.908156972209,566.05359736255));
#413 = DIRECTION('',(-1.,0.,0.));
#414 = DIRECTION('',(0.,0.,-1.));
#415 = ADVANCED_FACE('',(#416),#427,.F.);
#416 = FACE_BOUND('',#417,.F.);
#417 = EDGE_LOOP('',(#418,#419,#425,#426));
#418 = ORIENTED_EDGE('',*,*,#345,.F.);
#419 = ORIENTED_EDGE('',*,*,#420,.F.);
#420 = EDGE_CURVE('',#278,#346,#421,.T.);
#421 = LINE('',#422,#423);
#422 = CARTESIAN_POINT('',(128.,-13.94640263744,546.74184302779));
#423 = VECTOR('',#424,1.);
#424 = DIRECTION('',(-1.,0.,0.));
#425 = ORIENTED_EDGE('',*,*,#277,.T.);
#426 = ORIENTED_EDGE('',*,*,#420,.T.);
#427 = CYLINDRICAL_SURFACE('',#428,3.35);
#428 = AXIS2_PLACEMENT_3D('',#429,#430,#431);
#429 = CARTESIAN_POINT('',(128.,-13.94640263744,550.09184302779));
#430 = DIRECTION('',(-1.,0.,0.));
#431 = DIRECTION('',(0.,0.,-1.));
#432 = ADVANCED_FACE('',(#433),#444,.F.);
#433 = FACE_BOUND('',#434,.F.);
#434 = EDGE_LOOP('',(#435,#436,#442,#443));
#435 = ORIENTED_EDGE('',*,*,#365,.F.);
#436 = ORIENTED_EDGE('',*,*,#437,.F.);
#437 = EDGE_CURVE('',#289,#366,#438,.T.);
#438 = LINE('',#439,#440);
#439 = CARTESIAN_POINT('',(128.,-29.9081569722,562.70359736255));
#440 = VECTOR('',#441,1.);
#441 = DIRECTION('',(-1.,0.,0.));
#442 = ORIENTED_EDGE('',*,*,#288,.T.);
#443 = ORIENTED_EDGE('',*,*,#437,.T.);
#444 = CYLINDRICAL_SURFACE('',#445,3.35);
#445 = AXIS2_PLACEMENT_3D('',#446,#447,#448);
#446 = CARTESIAN_POINT('',(128.,-29.9081569722,566.05359736255));
#447 = DIRECTION('',(-1.,0.,0.));
#448 = DIRECTION('',(0.,0.,-1.));
#449 = ( GEOMETRIC_REPRESENTATION_CONTEXT(3) 
GLOBAL_UNCERTAINTY_ASSIGNED_CONTEXT((#453)) GLOBAL_UNIT_ASSIGNED_CONTEXT
((#450,#451,#452)) REPRESENTATION_CONTEXT('Context #1',
  '3D Context with UNIT and UNCERTAINTY') );
#450 = ( LENGTH_UNIT() NAMED_UNIT(*) SI_UNIT(.MILLI.,.METRE.) );
#451 = ( NAMED_UNIT(*) PLANE_ANGLE_UNIT() SI_UNIT($,.RADIAN.) );
#452 = ( NAMED_UNIT(*) SI_UNIT($,.STERADIAN.) SOLID_ANGLE_UNIT() );
#453 = UNCERTAINTY_MEASURE_WITH_UNIT(LENGTH_MEASURE(1.E-07),#450,
  'distance_accuracy_value','confusion accuracy');
#454 = PRODUCT_RELATED_PRODUCT_CATEGORY('part',$,(#7));
ENDSEC;
END-ISO-10303-21;
