ISO-10303-21;
HEADER;
FILE_DESCRIPTION(('FreeCAD Model'),'2;1');
FILE_NAME('Open CASCADE Shape Model','2026-09-19T23:10:22',('FreeCAD'),(
    'FreeCAD'),'Open CASCADE STEP processor 7.9','FreeCAD','Unknown');
FILE_SCHEMA(('AUTOMOTIVE_DESIGN { 1 0 10303 214 1 1 1 1 }'));
ENDSEC;
DATA;
#1 = APPLICATION_PROTOCOL_DEFINITION('international standard',
  'automotive_design',2000,#2);
#2 = APPLICATION_CONTEXT(
  'core data for automotive mechanical design processes');
#3 = SHAPE_DEFINITION_REPRESENTATION(#4,#10);
#4 = PRODUCT_DEFINITION_SHAPE('','',#5);
#5 = PRODUCT_DEFINITION('design','',#6,#9);
#6 = PRODUCT_DEFINITION_FORMATION('','',#7);
#7 = PRODUCT('Open CASCADE STEP translator 7.9 12',
  'Open CASCADE STEP translator 7.9 12','',(#8));
#8 = PRODUCT_CONTEXT('',#2,'mechanical');
#9 = PRODUCT_DEFINITION_CONTEXT('part definition',#2,'design');
#10 = ADVANCED_BREP_SHAPE_REPRESENTATION('',(#11,#15),#746);
#11 = AXIS2_PLACEMENT_3D('',#12,#13,#14);
#12 = CARTESIAN_POINT('',(0.,0.,0.));
#13 = DIRECTION('',(0.,0.,1.));
#14 = DIRECTION('',(1.,0.,-0.));
#15 = MANIFOLD_SOLID_BREP('',#16);
#16 = CLOSED_SHELL('',(#17,#188,#350,#392,#434,#478,#503,#547,#572,#597,
    #615,#640,#658,#672,#697,#709,#734));
#17 = ADVANCED_FACE('',(#18,#54),#183,.T.);
#18 = FACE_BOUND('',#19,.T.);
#19 = EDGE_LOOP('',(#20,#30,#39,#47));
#20 = ORIENTED_EDGE('',*,*,#21,.T.);
#21 = EDGE_CURVE('',#22,#24,#26,.T.);
#22 = VERTEX_POINT('',#23);
#23 = CARTESIAN_POINT('',(-124.,1.567547902909E-14,644.));
#24 = VERTEX_POINT('',#25);
#25 = CARTESIAN_POINT('',(-60.,1.567547902909E-14,644.));
#26 = LINE('',#27,#28);
#27 = CARTESIAN_POINT('',(-124.,1.567547902909E-14,644.));
#28 = VECTOR('',#29,1.);
#29 = DIRECTION('',(1.,0.,0.));
#30 = ORIENTED_EDGE('',*,*,#31,.F.);
#31 = EDGE_CURVE('',#32,#24,#34,.T.);
#32 = VERTEX_POINT('',#33);
#33 = CARTESIAN_POINT('',(-60.,64.,580.));
#34 = CIRCLE('',#35,64.);
#35 = AXIS2_PLACEMENT_3D('',#36,#37,#38);
#36 = CARTESIAN_POINT('',(-60.,0.,580.));
#37 = DIRECTION('',(1.,0.,-0.));
#38 = DIRECTION('',(0.,0.,1.));
#39 = ORIENTED_EDGE('',*,*,#40,.F.);
#40 = EDGE_CURVE('',#41,#32,#43,.T.);
#41 = VERTEX_POINT('',#42);
#42 = CARTESIAN_POINT('',(-124.,64.,580.));
#43 = LINE('',#44,#45);
#44 = CARTESIAN_POINT('',(-124.,64.,580.));
#45 = VECTOR('',#46,1.);
#46 = DIRECTION('',(1.,0.,0.));
#47 = ORIENTED_EDGE('',*,*,#48,.T.);
#48 = EDGE_CURVE('',#41,#22,#49,.T.);
#49 = CIRCLE('',#50,64.);
#50 = AXIS2_PLACEMENT_3D('',#51,#52,#53);
#51 = CARTESIAN_POINT('',(-124.,0.,580.));
#52 = DIRECTION('',(1.,0.,-0.));
#53 = DIRECTION('',(0.,0.,1.));
#54 = FACE_BOUND('',#55,.T.);
#55 = EDGE_LOOP('',(#56));
#56 = ORIENTED_EDGE('',*,*,#57,.T.);
#57 = EDGE_CURVE('',#58,#58,#60,.T.);
#58 = VERTEX_POINT('',#59);
#59 = CARTESIAN_POINT('',(-96.1,44.,626.47580015448));
#60 = B_SPLINE_CURVE_WITH_KNOTS('',6,(#61,#62,#63,#64,#65,#66,#67,#68,
    #69,#70,#71,#72,#73,#74,#75,#76,#77,#78,#79,#80,#81,#82,#83,#84,#85,
    #86,#87,#88,#89,#90,#91,#92,#93,#94,#95,#96,#97,#98,#99,#100,#101,
    #102,#103,#104,#105,#106,#107,#108,#109,#110,#111,#112,#113,#114,
    #115,#116,#117,#118,#119,#120,#121,#122,#123,#124,#125,#126,#127,
    #128,#129,#130,#131,#132,#133,#134,#135,#136,#137,#138,#139,#140,
    #141,#142,#143,#144,#145,#146,#147,#148,#149,#150,#151,#152,#153,
    #154,#155,#156,#157,#158,#159,#160,#161,#162,#163,#164,#165,#166,
    #167,#168,#169,#170,#171,#172,#173,#174,#175,#176,#177,#178,#179,
    #180,#181,#182),.UNSPECIFIED.,.T.,.F.,(7,5,5,5,5,5,5,5,5,5,5,5,5,5,5
    ,5,5,5,5,5,5,5,5,5,7),(0.,5.446790604579E-02,0.12239312629,
    0.147520644012,0.181125417584,0.208982528161,0.224521918764,
    0.256724513619,0.289156650917,0.333319390753,0.393096108958,
    0.458857247481,0.519120233593,0.588755139961,0.633540113806,
    0.683804520615,0.715749915638,0.755670257183,0.795918982942,
    0.808982592645,0.825842239177,0.847505350754,0.875264423543,
    0.916016453702,1.),.UNSPECIFIED.);
#61 = CARTESIAN_POINT('',(-96.1,44.,626.47580015448));
#62 = CARTESIAN_POINT('',(-96.1,44.217415169683,626.26996685125));
#63 = CARTESIAN_POINT('',(-96.08616507576,44.433234584915,
    626.06332980496));
#64 = CARTESIAN_POINT('',(-96.05887594387,44.646746217429,
    625.85658107698));
#65 = CARTESIAN_POINT('',(-96.01846097044,44.857293581409,
    625.65040963945));
#66 = CARTESIAN_POINT('',(-95.96520058873,45.064246134188,
    625.44552737221));
#67 = CARTESIAN_POINT('',(-95.81718870897,45.519779859842,
    624.98974923347));
#68 = CARTESIAN_POINT('',(-95.71543663237,45.766014818207,
    624.73998973777));
#69 = CARTESIAN_POINT('',(-95.59447060082,46.004642929478,
    624.49469526651));
#70 = CARTESIAN_POINT('',(-95.45448978324,46.234550735186,
    624.25531739991));
#71 = CARTESIAN_POINT('',(-95.29556681813,46.454431740242,624.0236113033
    ));
#72 = CARTESIAN_POINT('',(-95.0519254837,46.739710538926,623.71969954325
    ));
#73 = CARTESIAN_POINT('',(-94.98354299445,46.815154426853,
    623.63898097337));
#74 = CARTESIAN_POINT('',(-94.91256926131,46.888925543788,
    623.55972124847));
#75 = CARTESIAN_POINT('',(-94.83900637376,46.960934066295,
    623.48204215277));
#76 = CARTESIAN_POINT('',(-94.76285900978,47.031081679722,
    623.40607672264));
#77 = CARTESIAN_POINT('',(-94.57885059886,47.190443288857,
    623.23286017502));
#78 = CARTESIAN_POINT('',(-94.46893247878,47.2781276112,623.13705032111)
  );
#79 = CARTESIAN_POINT('',(-94.35442767483,47.362027633559,
    623.04491847897));
#80 = CARTESIAN_POINT('',(-94.23539801896,47.441843797526,
    622.95686534322));
#81 = CARTESIAN_POINT('',(-94.11191972303,47.517262352917,
    622.87331285531));
#82 = CARTESIAN_POINT('',(-93.8781120611,47.646554410306,622.72953935193
    ));
#83 = CARTESIAN_POINT('',(-93.76913606772,47.701912037932,
    622.66776599201));
#84 = CARTESIAN_POINT('',(-93.65728192292,47.753795943227,
    622.60968327621));
#85 = CARTESIAN_POINT('',(-93.54268849986,47.801987278826,
    622.55558012549));
#86 = CARTESIAN_POINT('',(-93.42550707977,47.846277456994,
    622.50573376627));
#87 = CARTESIAN_POINT('',(-93.23918215897,47.908884956463,
    622.43512559262));
#88 = CARTESIAN_POINT('',(-93.17171678631,47.930024514488,622.4112522815
    ));
#89 = CARTESIAN_POINT('',(-93.10354964663,47.949845852456,
    622.38884027074));
#90 = CARTESIAN_POINT('',(-93.03472646458,47.968312783859,
    622.36793687835));
#91 = CARTESIAN_POINT('',(-92.96529418892,47.985392261529,
    622.34858545723));
#92 = CARTESIAN_POINT('',(-92.75025266952,48.033511299056,
    622.29402085767));
#93 = CARTESIAN_POINT('',(-92.60274287428,48.059892764398,
    622.26403719881));
#94 = CARTESIAN_POINT('',(-92.45335789703,48.079889031485,
    622.24127388949));
#95 = CARTESIAN_POINT('',(-92.30269681602,48.093293505363,
    622.22600161541));
#96 = CARTESIAN_POINT('',(-92.15137039821,48.1,622.21836093455));
#97 = CARTESIAN_POINT('',(-91.84755062255,48.1,622.21836093455));
#98 = CARTESIAN_POINT('',(-91.69514680545,48.093197549142,
    622.22611093452));
#99 = CARTESIAN_POINT('',(-91.54342274396,48.079601528691,
    622.24160145522));
#100 = CARTESIAN_POINT('',(-91.3930016835,48.059321100469,
    622.26468796896));
#101 = CARTESIAN_POINT('',(-91.24449476906,48.032568558511,
    622.29509230001));
#102 = CARTESIAN_POINT('',(-90.89969913108,47.95485366912,
    622.38321128411));
#103 = CARTESIAN_POINT('',(-90.70572177976,47.898672397252,
    622.44678368253));
#104 = CARTESIAN_POINT('',(-90.51740700748,47.831813032212,
    622.52221076009));
#105 = CARTESIAN_POINT('',(-90.33553170396,47.75506616407,
    622.60843506519));
#106 = CARTESIAN_POINT('',(-90.16079146313,47.669330337566,
    622.70426877361));
#107 = CARTESIAN_POINT('',(-89.76772440194,47.448787471172,
    622.94937165014));
#108 = CARTESIAN_POINT('',(-89.55562725688,47.307234947038,
    623.1056804507));
#109 = CARTESIAN_POINT('',(-89.35783493364,47.152779709615,
    623.2748943742));
#110 = CARTESIAN_POINT('',(-89.17456175725,46.986997863828,
    623.45487397381));
#111 = CARTESIAN_POINT('',(-89.00593671945,46.811276479916,
    623.64374953431));
#112 = CARTESIAN_POINT('',(-88.68275434734,46.423984521861,
    624.05566227875));
#113 = CARTESIAN_POINT('',(-88.53114676586,46.210407665487,
    624.28041544868));
#114 = CARTESIAN_POINT('',(-88.39724071953,45.987559278735,
    624.5122070444));
#115 = CARTESIAN_POINT('',(-88.28110828149,45.756608587735,
    624.74946767391));
#116 = CARTESIAN_POINT('',(-88.18293491887,45.518561288473,
    624.99088746261));
#117 = CARTESIAN_POINT('',(-88.02989325409,45.050566266637,
    625.45928649179));
#118 = CARTESIAN_POINT('',(-87.97208429677,44.821586343232,
    625.68580453853));
#119 = CARTESIAN_POINT('',(-87.92997274843,44.588276911407,
    625.9138248702));
#120 = CARTESIAN_POINT('',(-87.90394406807,44.3514957031,626.14238519538
    ));
#121 = CARTESIAN_POINT('',(-87.89445162242,44.112144290186,
    626.37055343424));
#122 = CARTESIAN_POINT('',(-87.91077207662,43.592819017234,
    626.85949568917));
#123 = CARTESIAN_POINT('',(-87.9423112514,43.312130445935,627.1199978643
    ));
#124 = CARTESIAN_POINT('',(-87.99749315949,43.031238361727,
    627.37690404285));
#125 = CARTESIAN_POINT('',(-88.0770105154,42.752392182559,
    627.62826702991));
#126 = CARTESIAN_POINT('',(-88.1813863934,42.478039255105,
    627.87214768628));
#127 = CARTESIAN_POINT('',(-88.39430117097,42.039028962422,
    628.25735491103));
#128 = CARTESIAN_POINT('',(-88.48802987959,41.870231309921,
    628.40416199156));
#129 = CARTESIAN_POINT('',(-88.59213247206,41.705371249166,
    628.54631492952));
#130 = CARTESIAN_POINT('',(-88.70649080655,41.545352184211,
    628.68316557655));
#131 = CARTESIAN_POINT('',(-88.83088656529,41.391071060757,
    628.81410170883));
#132 = CARTESIAN_POINT('',(-89.11552465243,41.077685092403,
    629.07821063871));
#133 = CARTESIAN_POINT('',(-89.2782747425,40.920316887279,
    629.20968239931));
#134 = CARTESIAN_POINT('',(-89.45265904134,40.772702103989,
    629.33201507374));
#135 = CARTESIAN_POINT('',(-89.63786477922,40.636145116365,
    629.44438082816));
#136 = CARTESIAN_POINT('',(-89.83287995371,40.51182022445,
    629.54606884381));
#137 = CARTESIAN_POINT('',(-90.16593379484,40.330131465686,
    629.69395116805));
#138 = CARTESIAN_POINT('',(-90.29882218268,40.264883901555,
    629.74685790415));
#139 = CARTESIAN_POINT('',(-90.43486273041,40.205251281954,
    629.79505219359));
#140 = CARTESIAN_POINT('',(-90.57371451443,40.151461799637,
    629.83840309949));
#141 = CARTESIAN_POINT('',(-90.71501291944,40.103708589837,
    629.87680219863));
#142 = CARTESIAN_POINT('',(-91.03751509416,40.010211388588,
    629.95185101625));
#143 = CARTESIAN_POINT('',(-91.21988009518,39.967943781686,
    629.98567186502));
#144 = CARTESIAN_POINT('',(-91.40471592578,39.935645722989,
    630.01145886747));
#145 = CARTESIAN_POINT('',(-91.59124948552,39.913523241602,
    630.02910089716));
#146 = CARTESIAN_POINT('',(-91.77868523434,39.901684918548,
    630.03854059191));
#147 = CARTESIAN_POINT('',(-92.15527094635,39.898580903227,
    630.04101563598));
#148 = CARTESIAN_POINT('',(-92.34444269742,39.907485085869,
    630.03391552517));
#149 = CARTESIAN_POINT('',(-92.53288592694,39.926861483595,
    630.01846788753));
#150 = CARTESIAN_POINT('',(-92.7197835292,39.956616302457,
    629.99472211681));
#151 = CARTESIAN_POINT('',(-92.90433915484,39.996554735898,
    629.96278304724));
#152 = CARTESIAN_POINT('',(-93.14466920383,40.062556407553,
    629.90983874916));
#153 = CARTESIAN_POINT('',(-93.20323124279,40.079771275802,
    629.89601923903));
#154 = CARTESIAN_POINT('',(-93.26143870169,40.098017956225,
    629.88135919288));
#155 = CARTESIAN_POINT('',(-93.31926571657,40.117285324308,
    629.86586480267));
#156 = CARTESIAN_POINT('',(-93.37668690599,40.137561193165,
    629.84954290433));
#157 = CARTESIAN_POINT('',(-93.50722818282,40.186284417421,
    629.81027793306));
#158 = CARTESIAN_POINT('',(-93.58006170867,40.215394273569,
    629.78678903169));
#159 = CARTESIAN_POINT('',(-93.65212434005,40.246133336233,
    629.76195037201));
#160 = CARTESIAN_POINT('',(-93.72336433435,40.27847037238,
    629.73577981734));
#161 = CARTESIAN_POINT('',(-93.79373181503,40.312371461688,
    629.70829699598));
#162 = CARTESIAN_POINT('',(-93.95241179103,40.393322439858,
    629.64255172188));
#163 = CARTESIAN_POINT('',(-94.04012544369,40.441367022171,
    629.60344877505));
#164 = CARTESIAN_POINT('',(-94.12621769197,40.491855742555,
    629.5622600037));
#165 = CARTESIAN_POINT('',(-94.21059332925,40.544704833446,
    629.51903527338));
#166 = CARTESIAN_POINT('',(-94.29316397993,40.59982476065,
    629.47382877228));
#167 = CARTESIAN_POINT('',(-94.47723658699,40.730538527703,
    629.36630701889));
#168 = CARTESIAN_POINT('',(-94.57752403315,40.807526805883,
    629.3027590443));
#169 = CARTESIAN_POINT('',(-94.67454452305,40.887888354664,
    629.23617567563));
#170 = CARTESIAN_POINT('',(-94.76815085551,40.971414676951,
    629.16668726999));
#171 = CARTESIAN_POINT('',(-94.85821458409,41.057886641829,
    629.09443455223));
#172 = CARTESIAN_POINT('',(-95.07148342927,41.278010599105,
    628.90966228135));
#173 = CARTESIAN_POINT('',(-95.19045007605,41.414781388737,
    628.79414138418));
#174 = CARTESIAN_POINT('',(-95.30123926324,41.556717868705,
    628.67344209673));
#175 = CARTESIAN_POINT('',(-95.40363846042,41.703133310583,
    628.54802647684));
#176 = CARTESIAN_POINT('',(-95.49750931819,41.853329648482,
    628.4183856647));
#177 = CARTESIAN_POINT('',(-95.75853290734,42.322474510837,
    628.01024308388));
#178 = CARTESIAN_POINT('',(-95.89752232642,42.650939224257,
    627.72013189867));
#179 = CARTESIAN_POINT('',(-96.0001532029,42.987117459634,
    627.41819049984));
#180 = CARTESIAN_POINT('',(-96.06724365715,43.326616595764,
    627.10783223973));
#181 = CARTESIAN_POINT('',(-96.1,43.665462403701,626.79251668628));
#182 = CARTESIAN_POINT('',(-96.1,44.,626.47580015448));
#183 = CYLINDRICAL_SURFACE('',#184,64.);
#184 = AXIS2_PLACEMENT_3D('',#185,#186,#187);
#185 = CARTESIAN_POINT('',(-124.,0.,580.));
#186 = DIRECTION('',(1.,0.,0.));
#187 = DIRECTION('',(0.,0.,1.));
#188 = ADVANCED_FACE('',(#189,#216),#345,.T.);
#189 = FACE_BOUND('',#190,.T.);
#190 = EDGE_LOOP('',(#191,#200,#201,#210));
#191 = ORIENTED_EDGE('',*,*,#192,.F.);
#192 = EDGE_CURVE('',#24,#193,#195,.T.);
#193 = VERTEX_POINT('',#194);
#194 = CARTESIAN_POINT('',(-60.,-64.,580.));
#195 = CIRCLE('',#196,64.);
#196 = AXIS2_PLACEMENT_3D('',#197,#198,#199);
#197 = CARTESIAN_POINT('',(-60.,0.,580.));
#198 = DIRECTION('',(1.,0.,-0.));
#199 = DIRECTION('',(0.,0.,1.));
#200 = ORIENTED_EDGE('',*,*,#21,.F.);
#201 = ORIENTED_EDGE('',*,*,#202,.T.);
#202 = EDGE_CURVE('',#22,#203,#205,.T.);
#203 = VERTEX_POINT('',#204);
#204 = CARTESIAN_POINT('',(-124.,-64.,580.));
#205 = CIRCLE('',#206,64.);
#206 = AXIS2_PLACEMENT_3D('',#207,#208,#209);
#207 = CARTESIAN_POINT('',(-124.,0.,580.));
#208 = DIRECTION('',(1.,0.,-0.));
#209 = DIRECTION('',(0.,0.,1.));
#210 = ORIENTED_EDGE('',*,*,#211,.T.);
#211 = EDGE_CURVE('',#203,#193,#212,.T.);
#212 = LINE('',#213,#214);
#213 = CARTESIAN_POINT('',(-124.,-64.,580.));
#214 = VECTOR('',#215,1.);
#215 = DIRECTION('',(1.,0.,0.));
#216 = FACE_BOUND('',#217,.T.);
#217 = EDGE_LOOP('',(#218));
#218 = ORIENTED_EDGE('',*,*,#219,.T.);
#219 = EDGE_CURVE('',#220,#220,#222,.T.);
#220 = VERTEX_POINT('',#221);
#221 = CARTESIAN_POINT('',(-96.1,-44.,626.47580015448));
#222 = B_SPLINE_CURVE_WITH_KNOTS('',6,(#223,#224,#225,#226,#227,#228,
    #229,#230,#231,#232,#233,#234,#235,#236,#237,#238,#239,#240,#241,
    #242,#243,#244,#245,#246,#247,#248,#249,#250,#251,#252,#253,#254,
    #255,#256,#257,#258,#259,#260,#261,#262,#263,#264,#265,#266,#267,
    #268,#269,#270,#271,#272,#273,#274,#275,#276,#277,#278,#279,#280,
    #281,#282,#283,#284,#285,#286,#287,#288,#289,#290,#291,#292,#293,
    #294,#295,#296,#297,#298,#299,#300,#301,#302,#303,#304,#305,#306,
    #307,#308,#309,#310,#311,#312,#313,#314,#315,#316,#317,#318,#319,
    #320,#321,#322,#323,#324,#325,#326,#327,#328,#329,#330,#331,#332,
    #333,#334,#335,#336,#337,#338,#339,#340,#341,#342,#343,#344),
  .UNSPECIFIED.,.T.,.F.,(7,5,5,5,5,5,5,5,5,5,5,5,5,5,5,5,5,5,5,5,5,5,5,5
    ,7),(0.,8.432517034371E-02,0.124321228275,0.152441470281,
    0.173424754758,0.190403243113,0.204290749787,0.244582791973,
    0.284452685037,0.316268077925,0.368230521305,0.41122457846,
    0.480872255955,0.540802109646,0.60883519464,0.666740834612,
    0.711063537028,0.743266849137,0.774942455252,0.790410693282,
    0.818942850557,0.853330690191,0.878239970339,0.945198729245,1.),
  .UNSPECIFIED.);
#223 = CARTESIAN_POINT('',(-96.1,-44.,626.47580015448));
#224 = CARTESIAN_POINT('',(-96.1,-43.66410135184,626.7938052339));
#225 = CARTESIAN_POINT('',(-96.06697657517,-43.32386103763,
    627.11039632789));
#226 = CARTESIAN_POINT('',(-95.99933326943,-42.98297807557,
    627.42197426951));
#227 = CARTESIAN_POINT('',(-95.8958506103,-42.64547605552,
    627.72503811743));
#228 = CARTESIAN_POINT('',(-95.75570394564,-42.3158050308,628.0161329437
    ));
#229 = CARTESIAN_POINT('',(-95.49444605488,-41.84860438791,
    628.42245336799));
#230 = CARTESIAN_POINT('',(-95.40212013957,-41.70128461829,
    628.54959016022));
#231 = CARTESIAN_POINT('',(-95.3015814218,-41.55761650345,628.6726504794
    ));
#232 = CARTESIAN_POINT('',(-95.19296116543,-41.41826005694,
    628.79116999474));
#233 = CARTESIAN_POINT('',(-95.07645951148,-41.28386477153,
    628.90471138337));
#234 = CARTESIAN_POINT('',(-94.86508401366,-41.06450880416,
    629.08889995557));
#235 = CARTESIAN_POINT('',(-94.77406800844,-40.97672731411,
    629.16226588812));
#236 = CARTESIAN_POINT('',(-94.67941051829,-40.8919583281,
    629.23280167466));
#237 = CARTESIAN_POINT('',(-94.58124436277,-40.81042989056,
    629.30036076824));
#238 = CARTESIAN_POINT('',(-94.47972211135,-40.73235890724,629.364807516
    ));
#239 = CARTESIAN_POINT('',(-94.29688451781,-40.60242602012,
    629.47169059475));
#240 = CARTESIAN_POINT('',(-94.2169822387,-40.54894251009,629.5155606711
    ));
#241 = CARTESIAN_POINT('',(-94.13538322771,-40.49758598182,
    629.55757356611));
#242 = CARTESIAN_POINT('',(-94.05216755275,-40.44843799681,
    629.59767988639));
#243 = CARTESIAN_POINT('',(-93.96742132398,-40.40157507479,
    629.63583402997));
#244 = CARTESIAN_POINT('',(-93.81150096003,-40.32105664462,
    629.70125294198));
#245 = CARTESIAN_POINT('',(-93.74082324759,-40.28658725563,629.729206294
    ));
#246 = CARTESIAN_POINT('',(-93.66925230591,-40.25369824825,
    629.7558321627));
#247 = CARTESIAN_POINT('',(-93.59683882813,-40.22242459562,
    629.78111028071));
#248 = CARTESIAN_POINT('',(-93.52363545114,-40.19279852249,
    629.8050221929));
#249 = CARTESIAN_POINT('',(-93.38921880793,-40.14198868548,
    629.84597884049));
#250 = CARTESIAN_POINT('',(-93.32824881127,-40.12024983365,
    629.86348126021));
#251 = CARTESIAN_POINT('',(-93.26681659234,-40.0996490453,
    629.88004941971));
#252 = CARTESIAN_POINT('',(-93.20495259772,-40.08020106026,
    629.89567504567));
#253 = CARTESIAN_POINT('',(-93.14268789377,-40.06191926267,
    629.91035068735));
#254 = CARTESIAN_POINT('',(-92.89833394602,-39.99519278974,
    629.96387295276));
#255 = CARTESIAN_POINT('',(-92.71350725322,-39.95548798647,
    629.99562337811));
#256 = CARTESIAN_POINT('',(-92.52635111671,-39.92599405301,
    630.01915988035));
#257 = CARTESIAN_POINT('',(-92.33766487732,-39.9069047244,
    630.03437822669));
#258 = CARTESIAN_POINT('',(-92.14826846612,-39.89831225732,
    630.04122984976));
#259 = CARTESIAN_POINT('',(-91.77171590123,-39.90207790858,
    630.03822722993));
#260 = CARTESIAN_POINT('',(-91.58453714597,-39.91421765067,
    630.02854712394));
#261 = CARTESIAN_POINT('',(-91.39827774801,-39.93661383231,
    630.01068622778));
#262 = CARTESIAN_POINT('',(-91.21373007754,-39.96915650234,
    629.9847026469));
#263 = CARTESIAN_POINT('',(-91.03166393451,-40.01163878035,
    629.95070799502));
#264 = CARTESIAN_POINT('',(-90.71011492829,-40.10535078788,
    629.87548177917));
#265 = CARTESIAN_POINT('',(-90.56945672277,-40.15308036164,
    629.83709901295));
#266 = CARTESIAN_POINT('',(-90.43123325832,-40.20679332915,
    629.79380676204));
#267 = CARTESIAN_POINT('',(-90.29580442461,-40.26629834319,
    629.74571248578));
#268 = CARTESIAN_POINT('',(-90.16350675174,-40.33136959491,
    629.69294579268));
#269 = CARTESIAN_POINT('',(-89.82420305396,-40.51669558764,
    629.54209669979));
#270 = CARTESIAN_POINT('',(-89.62297645722,-40.64578123549,
    629.43649427617));
#271 = CARTESIAN_POINT('',(-89.43228451875,-40.7878943267,
    629.31950744486));
#272 = CARTESIAN_POINT('',(-89.25323512888,-40.94173197807,
    629.1919253467));
#273 = CARTESIAN_POINT('',(-89.08670842986,-41.10584549763,
    629.0546697027));
#274 = CARTESIAN_POINT('',(-88.80642807643,-41.42169537319,
    628.78809457554));
#275 = CARTESIAN_POINT('',(-88.68853123704,-41.57067428349,
    628.66149821825));
#276 = CARTESIAN_POINT('',(-88.57991069883,-41.72484071595,
    628.52952016657));
#277 = CARTESIAN_POINT('',(-88.48075077937,-41.88340228474,
    628.3927032945));
#278 = CARTESIAN_POINT('',(-88.39115138574,-42.04556200476,
    628.2516204776));
#279 = CARTESIAN_POINT('',(-88.18149542858,-42.47775220142,
    627.87240287618));
#280 = CARTESIAN_POINT('',(-88.07707700767,-42.75215911805,
    627.62847713277));
#281 = CARTESIAN_POINT('',(-87.99752795976,-43.03106181307,
    627.37706550227));
#282 = CARTESIAN_POINT('',(-87.94232460161,-43.31201218329,
    627.12010760062));
#283 = CARTESIAN_POINT('',(-87.91077393141,-43.59275999666,
    626.85955125674));
#284 = CARTESIAN_POINT('',(-87.89449326208,-44.11081929472,
    626.37180091111));
#285 = CARTESIAN_POINT('',(-87.90384015536,-44.34886376201,
    626.14489409031));
#286 = CARTESIAN_POINT('',(-87.92954495097,-44.58437179217,
    625.9175941512));
#287 = CARTESIAN_POINT('',(-87.97116128343,-44.8164556658,
    625.69081837865));
#288 = CARTESIAN_POINT('',(-88.02830906261,-45.044270895,625.46551332896
    ));
#289 = CARTESIAN_POINT('',(-88.18281133377,-45.51977999142,
    624.98974910181));
#290 = CARTESIAN_POINT('',(-88.28456335735,-45.7660147184,
    624.73998983449));
#291 = CARTESIAN_POINT('',(-88.40552925114,-46.00464261393,
    624.49469558931));
#292 = CARTESIAN_POINT('',(-88.54550997424,-46.23455038199,
    624.25531777136));
#293 = CARTESIAN_POINT('',(-88.7044330006,-46.454431528,624.0236115294)
  );
#294 = CARTESIAN_POINT('',(-89.03365772175,-46.8399196192,623.6129453151
    ));
#295 = CARTESIAN_POINT('',(-89.19886061359,-47.00887024565,
    623.43112280378));
#296 = CARTESIAN_POINT('',(-89.37780495013,-47.16837166871,
    623.25781406257));
#297 = CARTESIAN_POINT('',(-89.57036351649,-47.3171445368,
    623.09474275666));
#298 = CARTESIAN_POINT('',(-89.77633050771,-47.45374472943,
    622.94386808212));
#299 = CARTESIAN_POINT('',(-90.16305346398,-47.67050029435,
    622.70296409889));
#300 = CARTESIAN_POINT('',(-90.33850978815,-47.75644646491,
    622.60688935576));
#301 = CARTESIAN_POINT('',(-90.52114821802,-47.83332960619,
    622.52050535765));
#302 = CARTESIAN_POINT('',(-90.71026234679,-47.90024105405,
    622.44501332248));
#303 = CARTESIAN_POINT('',(-90.90506325728,-47.95638263153,
    622.38148093739));
#304 = CARTESIAN_POINT('',(-91.24974730152,-48.03351129257,
    622.29402086501));
#305 = CARTESIAN_POINT('',(-91.39725710671,-48.05989276287,
    622.26403720057));
#306 = CARTESIAN_POINT('',(-91.54664211447,-48.07988903513,
    622.24127388534));
#307 = CARTESIAN_POINT('',(-91.69730322361,-48.09329350916,
    622.22600161107));
#308 = CARTESIAN_POINT('',(-91.84862964394,-48.1,622.21836093455));
#309 = CARTESIAN_POINT('',(-92.14888989554,-48.1,622.21836093455));
#310 = CARTESIAN_POINT('',(-92.29773915061,-48.09351151716,
    622.22575324269));
#311 = CARTESIAN_POINT('',(-92.44595536418,-48.08054229265,
    622.24052959854));
#312 = CARTESIAN_POINT('',(-92.59295591738,-48.06119190295,
    622.26255825819));
#313 = CARTESIAN_POINT('',(-92.73816897513,-48.03565425025,
    622.2915852126));
#314 = CARTESIAN_POINT('',(-92.95080040604,-47.98886970262,
    622.34464456548));
#315 = CARTESIAN_POINT('',(-93.02001794223,-47.97211077034,
    622.36363599106));
#316 = CARTESIAN_POINT('',(-93.08863901484,-47.95397247158,
    622.38417121456));
#317 = CARTESIAN_POINT('',(-93.15661673815,-47.93448716505,
    622.4062077936));
#318 = CARTESIAN_POINT('',(-93.22390542201,-47.91369035264,
    622.42969931162));
#319 = CARTESIAN_POINT('',(-93.41322581504,-47.85091175144,
    622.50051776905));
#320 = CARTESIAN_POINT('',(-93.53346526444,-47.80588203261,
    622.55120785241));
#321 = CARTESIAN_POINT('',(-93.65100119174,-47.75674572958,
    622.60638213052));
#322 = CARTESIAN_POINT('',(-93.76566944975,-47.7037267344,
    622.66574298069));
#323 = CARTESIAN_POINT('',(-93.87731957622,-47.64706048823,
    622.72897957348));
#324 = CARTESIAN_POINT('',(-94.11657681921,-47.51460407679,
    622.87626522528));
#325 = CARTESIAN_POINT('',(-94.24277273839,-47.43726677262,
    622.96193227222));
#326 = CARTESIAN_POINT('',(-94.36430694057,-47.35533646893,
    623.05229635086));
#327 = CARTESIAN_POINT('',(-94.48109942084,-47.26914816453,
    623.14690680577));
#328 = CARTESIAN_POINT('',(-94.5930857132,-47.17902102124,
    623.24533661915));
#329 = CARTESIAN_POINT('',(-94.7778184618,-47.01734309263,
    623.42095696555));
#330 = CARTESIAN_POINT('',(-94.85288658562,-46.94750696792,
    623.49653708129));
#331 = CARTESIAN_POINT('',(-94.92541452134,-46.87585475904,
    623.57378418341));
#332 = CARTESIAN_POINT('',(-94.99539803581,-46.80248141541,
    623.65256975927));
#333 = CARTESIAN_POINT('',(-95.06283523266,-46.72747376722,
    623.73277606997));
#334 = CARTESIAN_POINT('',(-95.30216122904,-46.44510049723,
    624.0334306807));
#335 = CARTESIAN_POINT('',(-95.45820228106,-46.22804453913,
    624.26206384857));
#336 = CARTESIAN_POINT('',(-95.59583729661,-46.00127438664,
    624.49811352898));
#337 = CARTESIAN_POINT('',(-95.71499505415,-45.76603690894,
    624.73990447558));
#338 = CARTESIAN_POINT('',(-95.81548293691,-45.52339941943,
    624.98604515503));
#339 = CARTESIAN_POINT('',(-95.96357870079,-45.07052875608,
    625.43930676926));
#340 = CARTESIAN_POINT('',(-96.01747641062,-44.86240709403,
    625.64540189491));
#341 = CARTESIAN_POINT('',(-96.05837728038,-44.65063565797,
    625.85281456993));
#342 = CARTESIAN_POINT('',(-96.08599648704,-44.43585596144,
    626.06081986538));
#343 = CARTESIAN_POINT('',(-96.1,-44.21873585375,626.268716521));
#344 = CARTESIAN_POINT('',(-96.1,-44.,626.47580015448));
#345 = CYLINDRICAL_SURFACE('',#346,64.);
#346 = AXIS2_PLACEMENT_3D('',#347,#348,#349);
#347 = CARTESIAN_POINT('',(-124.,0.,580.));
#348 = DIRECTION('',(1.,0.,0.));
#349 = DIRECTION('',(0.,0.,1.));
#350 = ADVANCED_FACE('',(#351),#387,.F.);
#351 = FACE_BOUND('',#352,.F.);
#352 = EDGE_LOOP('',(#353,#364,#370,#371,#372,#380));
#353 = ORIENTED_EDGE('',*,*,#354,.F.);
#354 = EDGE_CURVE('',#355,#357,#359,.T.);
#355 = VERTEX_POINT('',#356);
#356 = CARTESIAN_POINT('',(-124.,40.2,580.));
#357 = VERTEX_POINT('',#358);
#358 = CARTESIAN_POINT('',(-124.,9.846160265145E-15,620.2));
#359 = CIRCLE('',#360,40.2);
#360 = AXIS2_PLACEMENT_3D('',#361,#362,#363);
#361 = CARTESIAN_POINT('',(-124.,0.,580.));
#362 = DIRECTION('',(1.,0.,-0.));
#363 = DIRECTION('',(0.,0.,1.));
#364 = ORIENTED_EDGE('',*,*,#365,.T.);
#365 = EDGE_CURVE('',#355,#41,#366,.T.);
#366 = LINE('',#367,#368);
#367 = CARTESIAN_POINT('',(-124.,-64.,580.));
#368 = VECTOR('',#369,1.);
#369 = DIRECTION('',(0.,1.,0.));
#370 = ORIENTED_EDGE('',*,*,#48,.T.);
#371 = ORIENTED_EDGE('',*,*,#202,.T.);
#372 = ORIENTED_EDGE('',*,*,#373,.T.);
#373 = EDGE_CURVE('',#203,#374,#376,.T.);
#374 = VERTEX_POINT('',#375);
#375 = CARTESIAN_POINT('',(-124.,-40.2,580.));
#376 = LINE('',#377,#378);
#377 = CARTESIAN_POINT('',(-124.,-64.,580.));
#378 = VECTOR('',#379,1.);
#379 = DIRECTION('',(0.,1.,0.));
#380 = ORIENTED_EDGE('',*,*,#381,.F.);
#381 = EDGE_CURVE('',#357,#374,#382,.T.);
#382 = CIRCLE('',#383,40.2);
#383 = AXIS2_PLACEMENT_3D('',#384,#385,#386);
#384 = CARTESIAN_POINT('',(-124.,0.,580.));
#385 = DIRECTION('',(1.,0.,-0.));
#386 = DIRECTION('',(0.,0.,1.));
#387 = PLANE('',#388);
#388 = AXIS2_PLACEMENT_3D('',#389,#390,#391);
#389 = CARTESIAN_POINT('',(-124.,0.,580.));
#390 = DIRECTION('',(1.,0.,0.));
#391 = DIRECTION('',(0.,0.,1.));
#392 = ADVANCED_FACE('',(#393),#429,.T.);
#393 = FACE_BOUND('',#394,.T.);
#394 = EDGE_LOOP('',(#395,#403,#404,#405,#413,#422));
#395 = ORIENTED_EDGE('',*,*,#396,.T.);
#396 = EDGE_CURVE('',#397,#32,#399,.T.);
#397 = VERTEX_POINT('',#398);
#398 = CARTESIAN_POINT('',(-60.,18.2,580.));
#399 = LINE('',#400,#401);
#400 = CARTESIAN_POINT('',(-60.,-64.,580.));
#401 = VECTOR('',#402,1.);
#402 = DIRECTION('',(0.,1.,0.));
#403 = ORIENTED_EDGE('',*,*,#31,.T.);
#404 = ORIENTED_EDGE('',*,*,#192,.T.);
#405 = ORIENTED_EDGE('',*,*,#406,.T.);
#406 = EDGE_CURVE('',#193,#407,#409,.T.);
#407 = VERTEX_POINT('',#408);
#408 = CARTESIAN_POINT('',(-60.,-18.2,580.));
#409 = LINE('',#410,#411);
#410 = CARTESIAN_POINT('',(-60.,-64.,580.));
#411 = VECTOR('',#412,1.);
#412 = DIRECTION('',(0.,1.,0.));
#413 = ORIENTED_EDGE('',*,*,#414,.F.);
#414 = EDGE_CURVE('',#415,#407,#417,.T.);
#415 = VERTEX_POINT('',#416);
#416 = CARTESIAN_POINT('',(-60.,4.457714348896E-15,598.2));
#417 = CIRCLE('',#418,18.2);
#418 = AXIS2_PLACEMENT_3D('',#419,#420,#421);
#419 = CARTESIAN_POINT('',(-60.,0.,580.));
#420 = DIRECTION('',(1.,0.,-0.));
#421 = DIRECTION('',(0.,0.,1.));
#422 = ORIENTED_EDGE('',*,*,#423,.F.);
#423 = EDGE_CURVE('',#397,#415,#424,.T.);
#424 = CIRCLE('',#425,18.2);
#425 = AXIS2_PLACEMENT_3D('',#426,#427,#428);
#426 = CARTESIAN_POINT('',(-60.,0.,580.));
#427 = DIRECTION('',(1.,0.,-0.));
#428 = DIRECTION('',(0.,0.,1.));
#429 = PLANE('',#430);
#430 = AXIS2_PLACEMENT_3D('',#431,#432,#433);
#431 = CARTESIAN_POINT('',(-60.,0.,580.));
#432 = DIRECTION('',(1.,0.,0.));
#433 = DIRECTION('',(0.,0.,1.));
#434 = ADVANCED_FACE('',(#435,#462),#473,.F.);
#435 = FACE_BOUND('',#436,.F.);
#436 = EDGE_LOOP('',(#437,#438,#446,#454,#460,#461));
#437 = ORIENTED_EDGE('',*,*,#365,.F.);
#438 = ORIENTED_EDGE('',*,*,#439,.T.);
#439 = EDGE_CURVE('',#355,#440,#442,.T.);
#440 = VERTEX_POINT('',#441);
#441 = CARTESIAN_POINT('',(-121.,40.2,580.));
#442 = LINE('',#443,#444);
#443 = CARTESIAN_POINT('',(-124.,40.2,580.));
#444 = VECTOR('',#445,1.);
#445 = DIRECTION('',(1.,0.,0.));
#446 = ORIENTED_EDGE('',*,*,#447,.F.);
#447 = EDGE_CURVE('',#448,#440,#450,.T.);
#448 = VERTEX_POINT('',#449);
#449 = CARTESIAN_POINT('',(-121.,18.2,580.));
#450 = LINE('',#451,#452);
#451 = CARTESIAN_POINT('',(-121.,-32.,580.));
#452 = VECTOR('',#453,1.);
#453 = DIRECTION('',(0.,1.,0.));
#454 = ORIENTED_EDGE('',*,*,#455,.T.);
#455 = EDGE_CURVE('',#448,#397,#456,.T.);
#456 = LINE('',#457,#458);
#457 = CARTESIAN_POINT('',(-125.,18.2,580.));
#458 = VECTOR('',#459,1.);
#459 = DIRECTION('',(1.,0.,0.));
#460 = ORIENTED_EDGE('',*,*,#396,.T.);
#461 = ORIENTED_EDGE('',*,*,#40,.F.);
#462 = FACE_BOUND('',#463,.F.);
#463 = EDGE_LOOP('',(#464));
#464 = ORIENTED_EDGE('',*,*,#465,.T.);
#465 = EDGE_CURVE('',#466,#466,#468,.T.);
#466 = VERTEX_POINT('',#467);
#467 = CARTESIAN_POINT('',(-94.25,44.,580.));
#468 = CIRCLE('',#469,2.25);
#469 = AXIS2_PLACEMENT_3D('',#470,#471,#472);
#470 = CARTESIAN_POINT('',(-92.,44.,580.));
#471 = DIRECTION('',(0.,0.,-1.));
#472 = DIRECTION('',(-1.,0.,0.));
#473 = PLANE('',#474);
#474 = AXIS2_PLACEMENT_3D('',#475,#476,#477);
#475 = CARTESIAN_POINT('',(-124.,-64.,580.));
#476 = DIRECTION('',(0.,0.,1.));
#477 = DIRECTION('',(1.,0.,0.));
#478 = ADVANCED_FACE('',(#479),#498,.F.);
#479 = FACE_BOUND('',#480,.F.);
#480 = EDGE_LOOP('',(#481,#489,#496,#497));
#481 = ORIENTED_EDGE('',*,*,#482,.T.);
#482 = EDGE_CURVE('',#58,#483,#485,.T.);
#483 = VERTEX_POINT('',#484);
#484 = CARTESIAN_POINT('',(-96.1,44.,588.99));
#485 = LINE('',#486,#487);
#486 = CARTESIAN_POINT('',(-96.1,44.,653.));
#487 = VECTOR('',#488,1.);
#488 = DIRECTION('',(0.,0.,-1.));
#489 = ORIENTED_EDGE('',*,*,#490,.F.);
#490 = EDGE_CURVE('',#483,#483,#491,.T.);
#491 = CIRCLE('',#492,4.1);
#492 = AXIS2_PLACEMENT_3D('',#493,#494,#495);
#493 = CARTESIAN_POINT('',(-92.,44.,588.99));
#494 = DIRECTION('',(0.,0.,-1.));
#495 = DIRECTION('',(-1.,0.,0.));
#496 = ORIENTED_EDGE('',*,*,#482,.F.);
#497 = ORIENTED_EDGE('',*,*,#57,.T.);
#498 = CYLINDRICAL_SURFACE('',#499,4.1);
#499 = AXIS2_PLACEMENT_3D('',#500,#501,#502);
#500 = CARTESIAN_POINT('',(-92.,44.,653.));
#501 = DIRECTION('',(0.,0.,-1.));
#502 = DIRECTION('',(-1.,0.,0.));
#503 = ADVANCED_FACE('',(#504,#531),#542,.F.);
#504 = FACE_BOUND('',#505,.F.);
#505 = EDGE_LOOP('',(#506,#507,#508,#509,#517,#525));
#506 = ORIENTED_EDGE('',*,*,#373,.F.);
#507 = ORIENTED_EDGE('',*,*,#211,.T.);
#508 = ORIENTED_EDGE('',*,*,#406,.T.);
#509 = ORIENTED_EDGE('',*,*,#510,.F.);
#510 = EDGE_CURVE('',#511,#407,#513,.T.);
#511 = VERTEX_POINT('',#512);
#512 = CARTESIAN_POINT('',(-121.,-18.2,580.));
#513 = LINE('',#514,#515);
#514 = CARTESIAN_POINT('',(-125.,-18.2,580.));
#515 = VECTOR('',#516,1.);
#516 = DIRECTION('',(1.,0.,0.));
#517 = ORIENTED_EDGE('',*,*,#518,.F.);
#518 = EDGE_CURVE('',#519,#511,#521,.T.);
#519 = VERTEX_POINT('',#520);
#520 = CARTESIAN_POINT('',(-121.,-40.2,580.));
#521 = LINE('',#522,#523);
#522 = CARTESIAN_POINT('',(-121.,-32.,580.));
#523 = VECTOR('',#524,1.);
#524 = DIRECTION('',(0.,1.,0.));
#525 = ORIENTED_EDGE('',*,*,#526,.F.);
#526 = EDGE_CURVE('',#374,#519,#527,.T.);
#527 = LINE('',#528,#529);
#528 = CARTESIAN_POINT('',(-124.,-40.2,580.));
#529 = VECTOR('',#530,1.);
#530 = DIRECTION('',(1.,0.,0.));
#531 = FACE_BOUND('',#532,.F.);
#532 = EDGE_LOOP('',(#533));
#533 = ORIENTED_EDGE('',*,*,#534,.T.);
#534 = EDGE_CURVE('',#535,#535,#537,.T.);
#535 = VERTEX_POINT('',#536);
#536 = CARTESIAN_POINT('',(-94.25,-44.,580.));
#537 = CIRCLE('',#538,2.25);
#538 = AXIS2_PLACEMENT_3D('',#539,#540,#541);
#539 = CARTESIAN_POINT('',(-92.,-44.,580.));
#540 = DIRECTION('',(0.,0.,-1.));
#541 = DIRECTION('',(-1.,0.,0.));
#542 = PLANE('',#543);
#543 = AXIS2_PLACEMENT_3D('',#544,#545,#546);
#544 = CARTESIAN_POINT('',(-124.,-64.,580.));
#545 = DIRECTION('',(0.,0.,1.));
#546 = DIRECTION('',(1.,0.,0.));
#547 = ADVANCED_FACE('',(#548),#567,.F.);
#548 = FACE_BOUND('',#549,.F.);
#549 = EDGE_LOOP('',(#550,#558,#565,#566));
#550 = ORIENTED_EDGE('',*,*,#551,.T.);
#551 = EDGE_CURVE('',#220,#552,#554,.T.);
#552 = VERTEX_POINT('',#553);
#553 = CARTESIAN_POINT('',(-96.1,-44.,588.99));
#554 = LINE('',#555,#556);
#555 = CARTESIAN_POINT('',(-96.1,-44.,653.));
#556 = VECTOR('',#557,1.);
#557 = DIRECTION('',(0.,0.,-1.));
#558 = ORIENTED_EDGE('',*,*,#559,.F.);
#559 = EDGE_CURVE('',#552,#552,#560,.T.);
#560 = CIRCLE('',#561,4.1);
#561 = AXIS2_PLACEMENT_3D('',#562,#563,#564);
#562 = CARTESIAN_POINT('',(-92.,-44.,588.99));
#563 = DIRECTION('',(0.,0.,-1.));
#564 = DIRECTION('',(-1.,0.,0.));
#565 = ORIENTED_EDGE('',*,*,#551,.F.);
#566 = ORIENTED_EDGE('',*,*,#219,.T.);
#567 = CYLINDRICAL_SURFACE('',#568,4.1);
#568 = AXIS2_PLACEMENT_3D('',#569,#570,#571);
#569 = CARTESIAN_POINT('',(-92.,-44.,653.));
#570 = DIRECTION('',(0.,0.,-1.));
#571 = DIRECTION('',(-1.,0.,0.));
#572 = ADVANCED_FACE('',(#573),#592,.F.);
#573 = FACE_BOUND('',#574,.F.);
#574 = EDGE_LOOP('',(#575,#583,#590,#591));
#575 = ORIENTED_EDGE('',*,*,#576,.T.);
#576 = EDGE_CURVE('',#357,#577,#579,.T.);
#577 = VERTEX_POINT('',#578);
#578 = CARTESIAN_POINT('',(-121.,9.846160265145E-15,620.2));
#579 = LINE('',#580,#581);
#580 = CARTESIAN_POINT('',(-124.,9.846160265145E-15,620.2));
#581 = VECTOR('',#582,1.);
#582 = DIRECTION('',(1.,0.,0.));
#583 = ORIENTED_EDGE('',*,*,#584,.F.);
#584 = EDGE_CURVE('',#440,#577,#585,.T.);
#585 = CIRCLE('',#586,40.2);
#586 = AXIS2_PLACEMENT_3D('',#587,#588,#589);
#587 = CARTESIAN_POINT('',(-121.,0.,580.));
#588 = DIRECTION('',(1.,0.,-0.));
#589 = DIRECTION('',(0.,0.,1.));
#590 = ORIENTED_EDGE('',*,*,#439,.F.);
#591 = ORIENTED_EDGE('',*,*,#354,.T.);
#592 = CYLINDRICAL_SURFACE('',#593,40.2);
#593 = AXIS2_PLACEMENT_3D('',#594,#595,#596);
#594 = CARTESIAN_POINT('',(-124.,0.,580.));
#595 = DIRECTION('',(1.,0.,0.));
#596 = DIRECTION('',(0.,0.,1.));
#597 = ADVANCED_FACE('',(#598),#610,.F.);
#598 = FACE_BOUND('',#599,.F.);
#599 = EDGE_LOOP('',(#600,#607,#608,#609));
#600 = ORIENTED_EDGE('',*,*,#601,.F.);
#601 = EDGE_CURVE('',#577,#519,#602,.T.);
#602 = CIRCLE('',#603,40.2);
#603 = AXIS2_PLACEMENT_3D('',#604,#605,#606);
#604 = CARTESIAN_POINT('',(-121.,0.,580.));
#605 = DIRECTION('',(1.,0.,-0.));
#606 = DIRECTION('',(0.,0.,1.));
#607 = ORIENTED_EDGE('',*,*,#576,.F.);
#608 = ORIENTED_EDGE('',*,*,#381,.T.);
#609 = ORIENTED_EDGE('',*,*,#526,.T.);
#610 = CYLINDRICAL_SURFACE('',#611,40.2);
#611 = AXIS2_PLACEMENT_3D('',#612,#613,#614);
#612 = CARTESIAN_POINT('',(-124.,0.,580.));
#613 = DIRECTION('',(1.,0.,0.));
#614 = DIRECTION('',(0.,0.,1.));
#615 = ADVANCED_FACE('',(#616),#635,.F.);
#616 = FACE_BOUND('',#617,.F.);
#617 = EDGE_LOOP('',(#618,#627,#633,#634));
#618 = ORIENTED_EDGE('',*,*,#619,.T.);
#619 = EDGE_CURVE('',#448,#620,#622,.T.);
#620 = VERTEX_POINT('',#621);
#621 = CARTESIAN_POINT('',(-121.,4.457714348896E-15,598.2));
#622 = CIRCLE('',#623,18.2);
#623 = AXIS2_PLACEMENT_3D('',#624,#625,#626);
#624 = CARTESIAN_POINT('',(-121.,0.,580.));
#625 = DIRECTION('',(1.,0.,-0.));
#626 = DIRECTION('',(0.,0.,1.));
#627 = ORIENTED_EDGE('',*,*,#628,.T.);
#628 = EDGE_CURVE('',#620,#415,#629,.T.);
#629 = LINE('',#630,#631);
#630 = CARTESIAN_POINT('',(-125.,4.457714348896E-15,598.2));
#631 = VECTOR('',#632,1.);
#632 = DIRECTION('',(1.,0.,0.));
#633 = ORIENTED_EDGE('',*,*,#423,.F.);
#634 = ORIENTED_EDGE('',*,*,#455,.F.);
#635 = CYLINDRICAL_SURFACE('',#636,18.2);
#636 = AXIS2_PLACEMENT_3D('',#637,#638,#639);
#637 = CARTESIAN_POINT('',(-125.,0.,580.));
#638 = DIRECTION('',(1.,0.,0.));
#639 = DIRECTION('',(0.,0.,1.));
#640 = ADVANCED_FACE('',(#641),#653,.F.);
#641 = FACE_BOUND('',#642,.F.);
#642 = EDGE_LOOP('',(#643,#644,#645,#652));
#643 = ORIENTED_EDGE('',*,*,#414,.F.);
#644 = ORIENTED_EDGE('',*,*,#628,.F.);
#645 = ORIENTED_EDGE('',*,*,#646,.T.);
#646 = EDGE_CURVE('',#620,#511,#647,.T.);
#647 = CIRCLE('',#648,18.2);
#648 = AXIS2_PLACEMENT_3D('',#649,#650,#651);
#649 = CARTESIAN_POINT('',(-121.,0.,580.));
#650 = DIRECTION('',(1.,0.,-0.));
#651 = DIRECTION('',(0.,0.,1.));
#652 = ORIENTED_EDGE('',*,*,#510,.T.);
#653 = CYLINDRICAL_SURFACE('',#654,18.2);
#654 = AXIS2_PLACEMENT_3D('',#655,#656,#657);
#655 = CARTESIAN_POINT('',(-125.,0.,580.));
#656 = DIRECTION('',(1.,0.,0.));
#657 = DIRECTION('',(0.,0.,1.));
#658 = ADVANCED_FACE('',(#659),#667,.F.);
#659 = FACE_BOUND('',#660,.F.);
#660 = EDGE_LOOP('',(#661,#662,#663,#664,#665,#666));
#661 = ORIENTED_EDGE('',*,*,#584,.T.);
#662 = ORIENTED_EDGE('',*,*,#601,.T.);
#663 = ORIENTED_EDGE('',*,*,#518,.T.);
#664 = ORIENTED_EDGE('',*,*,#646,.F.);
#665 = ORIENTED_EDGE('',*,*,#619,.F.);
#666 = ORIENTED_EDGE('',*,*,#447,.T.);
#667 = PLANE('',#668);
#668 = AXIS2_PLACEMENT_3D('',#669,#670,#671);
#669 = CARTESIAN_POINT('',(-121.,0.,580.));
#670 = DIRECTION('',(1.,0.,0.));
#671 = DIRECTION('',(0.,0.,1.));
#672 = ADVANCED_FACE('',(#673),#692,.F.);
#673 = FACE_BOUND('',#674,.F.);
#674 = EDGE_LOOP('',(#675,#683,#684,#685));
#675 = ORIENTED_EDGE('',*,*,#676,.T.);
#676 = EDGE_CURVE('',#677,#466,#679,.T.);
#677 = VERTEX_POINT('',#678);
#678 = CARTESIAN_POINT('',(-94.25,44.,588.99));
#679 = LINE('',#680,#681);
#680 = CARTESIAN_POINT('',(-94.25,44.,589.01));
#681 = VECTOR('',#682,1.);
#682 = DIRECTION('',(0.,0.,-1.));
#683 = ORIENTED_EDGE('',*,*,#465,.F.);
#684 = ORIENTED_EDGE('',*,*,#676,.F.);
#685 = ORIENTED_EDGE('',*,*,#686,.T.);
#686 = EDGE_CURVE('',#677,#677,#687,.T.);
#687 = CIRCLE('',#688,2.25);
#688 = AXIS2_PLACEMENT_3D('',#689,#690,#691);
#689 = CARTESIAN_POINT('',(-92.,44.,588.99));
#690 = DIRECTION('',(0.,0.,-1.));
#691 = DIRECTION('',(-1.,0.,0.));
#692 = CYLINDRICAL_SURFACE('',#693,2.25);
#693 = AXIS2_PLACEMENT_3D('',#694,#695,#696);
#694 = CARTESIAN_POINT('',(-92.,44.,589.01));
#695 = DIRECTION('',(0.,0.,-1.));
#696 = DIRECTION('',(-1.,0.,0.));
#697 = ADVANCED_FACE('',(#698,#701),#704,.F.);
#698 = FACE_BOUND('',#699,.F.);
#699 = EDGE_LOOP('',(#700));
#700 = ORIENTED_EDGE('',*,*,#490,.T.);
#701 = FACE_BOUND('',#702,.F.);
#702 = EDGE_LOOP('',(#703));
#703 = ORIENTED_EDGE('',*,*,#686,.F.);
#704 = PLANE('',#705);
#705 = AXIS2_PLACEMENT_3D('',#706,#707,#708);
#706 = CARTESIAN_POINT('',(-92.,44.,588.99));
#707 = DIRECTION('',(0.,0.,-1.));
#708 = DIRECTION('',(-1.,0.,0.));
#709 = ADVANCED_FACE('',(#710),#729,.F.);
#710 = FACE_BOUND('',#711,.F.);
#711 = EDGE_LOOP('',(#712,#720,#721,#722));
#712 = ORIENTED_EDGE('',*,*,#713,.T.);
#713 = EDGE_CURVE('',#714,#535,#716,.T.);
#714 = VERTEX_POINT('',#715);
#715 = CARTESIAN_POINT('',(-94.25,-44.,588.99));
#716 = LINE('',#717,#718);
#717 = CARTESIAN_POINT('',(-94.25,-44.,589.01));
#718 = VECTOR('',#719,1.);
#719 = DIRECTION('',(0.,0.,-1.));
#720 = ORIENTED_EDGE('',*,*,#534,.F.);
#721 = ORIENTED_EDGE('',*,*,#713,.F.);
#722 = ORIENTED_EDGE('',*,*,#723,.T.);
#723 = EDGE_CURVE('',#714,#714,#724,.T.);
#724 = CIRCLE('',#725,2.25);
#725 = AXIS2_PLACEMENT_3D('',#726,#727,#728);
#726 = CARTESIAN_POINT('',(-92.,-44.,588.99));
#727 = DIRECTION('',(0.,0.,-1.));
#728 = DIRECTION('',(-1.,0.,0.));
#729 = CYLINDRICAL_SURFACE('',#730,2.25);
#730 = AXIS2_PLACEMENT_3D('',#731,#732,#733);
#731 = CARTESIAN_POINT('',(-92.,-44.,589.01));
#732 = DIRECTION('',(0.,0.,-1.));
#733 = DIRECTION('',(-1.,0.,0.));
#734 = ADVANCED_FACE('',(#735,#738),#741,.F.);
#735 = FACE_BOUND('',#736,.F.);
#736 = EDGE_LOOP('',(#737));
#737 = ORIENTED_EDGE('',*,*,#559,.T.);
#738 = FACE_BOUND('',#739,.F.);
#739 = EDGE_LOOP('',(#740));
#740 = ORIENTED_EDGE('',*,*,#723,.F.);
#741 = PLANE('',#742);
#742 = AXIS2_PLACEMENT_3D('',#743,#744,#745);
#743 = CARTESIAN_POINT('',(-92.,-44.,588.99));
#744 = DIRECTION('',(0.,0.,-1.));
#745 = DIRECTION('',(-1.,0.,0.));
#746 = ( GEOMETRIC_REPRESENTATION_CONTEXT(3) 
GLOBAL_UNCERTAINTY_ASSIGNED_CONTEXT((#750)) GLOBAL_UNIT_ASSIGNED_CONTEXT
((#747,#748,#749)) REPRESENTATION_CONTEXT('Context #1',
  '3D Context with UNIT and UNCERTAINTY') );
#747 = ( LENGTH_UNIT() NAMED_UNIT(*) SI_UNIT(.MILLI.,.METRE.) );
#748 = ( NAMED_UNIT(*) PLANE_ANGLE_UNIT() SI_UNIT($,.RADIAN.) );
#749 = ( NAMED_UNIT(*) SI_UNIT($,.STERADIAN.) SOLID_ANGLE_UNIT() );
#750 = UNCERTAINTY_MEASURE_WITH_UNIT(LENGTH_MEASURE(1.E-07),#747,
  'distance_accuracy_value','confusion accuracy');
#751 = PRODUCT_RELATED_PRODUCT_CATEGORY('part',$,(#7));
ENDSEC;
END-ISO-10303-21;
