ISO-10303-21;
HEADER;
FILE_DESCRIPTION(('FreeCAD Model'),'2;1');
FILE_NAME('Open CASCADE Shape Model','2026-09-19T21:37:11',('FreeCAD'),(
    'FreeCAD'),'Open CASCADE STEP processor 7.9','FreeCAD','Unknown');
FILE_SCHEMA(('AUTOMOTIVE_DESIGN { 1 0 10303 214 1 1 1 1 }'));
ENDSEC;
DATA;
#1 = APPLICATION_PROTOCOL_DEFINITION('international standard',
  'automotive_design',2000,#2);
#2 = APPLICATION_CONTEXT(
  'core data for automotive mechanical design processes');
#3 = SHAPE_DEFINITION_REPRESENTATION(#4,#10);
#4 = PRODUCT_DEFINITION_SHAPE('','',#5);
#5 = PRODUCT_DEFINITION('design','',#6,#9);
#6 = PRODUCT_DEFINITION_FORMATION('','',#7);
#7 = PRODUCT('Open CASCADE STEP translator 7.9 21',
  'Open CASCADE STEP translator 7.9 21','',(#8));
#8 = PRODUCT_CONTEXT('',#2,'mechanical');
#9 = PRODUCT_DEFINITION_CONTEXT('part definition',#2,'design');
#10 = ADVANCED_BREP_SHAPE_REPRESENTATION('',(#11,#15),#470);
#11 = AXIS2_PLACEMENT_3D('',#12,#13,#14);
#12 = CARTESIAN_POINT('',(0.,0.,0.));
#13 = DIRECTION('',(0.,0.,1.));
#14 = DIRECTION('',(1.,0.,-0.));
#15 = MANIFOLD_SOLID_BREP('',#16);
#16 = CLOSED_SHELL('',(#17,#57,#104,#128,#179,#196,#213,#230,#242,#267,
    #287,#381,#407,#427,#436,#461));
#17 = ADVANCED_FACE('',(#18),#52,.F.);
#18 = FACE_BOUND('',#19,.F.);
#19 = EDGE_LOOP('',(#20,#30,#38,#46));
#20 = ORIENTED_EDGE('',*,*,#21,.F.);
#21 = EDGE_CURVE('',#22,#24,#26,.T.);
#22 = VERTEX_POINT('',#23);
#23 = CARTESIAN_POINT('',(44.,3.464101615138,454.));
#24 = VERTEX_POINT('',#25);
#25 = CARTESIAN_POINT('',(44.,6.928203230276,460.));
#26 = LINE('',#27,#28);
#27 = CARTESIAN_POINT('',(44.,3.464101615138,454.));
#28 = VECTOR('',#29,1.);
#29 = DIRECTION('',(-1.922962686384E-16,0.5,0.866025403784));
#30 = ORIENTED_EDGE('',*,*,#31,.T.);
#31 = EDGE_CURVE('',#22,#32,#34,.T.);
#32 = VERTEX_POINT('',#33);
#33 = CARTESIAN_POINT('',(57.,3.464101615138,454.));
#34 = LINE('',#35,#36);
#35 = CARTESIAN_POINT('',(44.,3.464101615138,454.));
#36 = VECTOR('',#37,1.);
#37 = DIRECTION('',(1.,0.,2.22044604925E-16));
#38 = ORIENTED_EDGE('',*,*,#39,.T.);
#39 = EDGE_CURVE('',#32,#40,#42,.T.);
#40 = VERTEX_POINT('',#41);
#41 = CARTESIAN_POINT('',(57.,6.928203230276,460.));
#42 = LINE('',#43,#44);
#43 = CARTESIAN_POINT('',(57.,4.330127018922,455.5));
#44 = VECTOR('',#45,1.);
#45 = DIRECTION('',(0.,0.5,0.866025403784));
#46 = ORIENTED_EDGE('',*,*,#47,.F.);
#47 = EDGE_CURVE('',#24,#40,#48,.T.);
#48 = LINE('',#49,#50);
#49 = CARTESIAN_POINT('',(44.,6.928203230276,460.));
#50 = VECTOR('',#51,1.);
#51 = DIRECTION('',(1.,0.,2.22044604925E-16));
#52 = PLANE('',#53);
#53 = AXIS2_PLACEMENT_3D('',#54,#55,#56);
#54 = CARTESIAN_POINT('',(44.,3.464101615138,454.));
#55 = DIRECTION('',(-1.110223024625E-16,-0.866025403784,0.5));
#56 = DIRECTION('',(-1.922962686384E-16,0.5,0.866025403784));
#57 = ADVANCED_FACE('',(#58),#99,.F.);
#58 = FACE_BOUND('',#59,.F.);
#59 = EDGE_LOOP('',(#60,#61,#69,#77,#85,#93));
#60 = ORIENTED_EDGE('',*,*,#21,.T.);
#61 = ORIENTED_EDGE('',*,*,#62,.T.);
#62 = EDGE_CURVE('',#24,#63,#65,.T.);
#63 = VERTEX_POINT('',#64);
#64 = CARTESIAN_POINT('',(44.,3.464101615138,466.));
#65 = LINE('',#66,#67);
#66 = CARTESIAN_POINT('',(44.,6.928203230276,460.));
#67 = VECTOR('',#68,1.);
#68 = DIRECTION('',(-1.922962686384E-16,-0.5,0.866025403784));
#69 = ORIENTED_EDGE('',*,*,#70,.T.);
#70 = EDGE_CURVE('',#63,#71,#73,.T.);
#71 = VERTEX_POINT('',#72);
#72 = CARTESIAN_POINT('',(44.,-3.464101615138,466.));
#73 = LINE('',#74,#75);
#74 = CARTESIAN_POINT('',(44.,3.464101615138,466.));
#75 = VECTOR('',#76,1.);
#76 = DIRECTION('',(2.846556599891E-32,-1.,-1.281975124256E-16));
#77 = ORIENTED_EDGE('',*,*,#78,.T.);
#78 = EDGE_CURVE('',#71,#79,#81,.T.);
#79 = VERTEX_POINT('',#80);
#80 = CARTESIAN_POINT('',(44.,-6.928203230276,460.));
#81 = LINE('',#82,#83);
#82 = CARTESIAN_POINT('',(44.,-3.464101615138,466.));
#83 = VECTOR('',#84,1.);
#84 = DIRECTION('',(1.922962686384E-16,-0.5,-0.866025403784));
#85 = ORIENTED_EDGE('',*,*,#86,.T.);
#86 = EDGE_CURVE('',#79,#87,#89,.T.);
#87 = VERTEX_POINT('',#88);
#88 = CARTESIAN_POINT('',(44.,-3.464101615138,454.));
#89 = LINE('',#90,#91);
#90 = CARTESIAN_POINT('',(44.,-6.928203230276,460.));
#91 = VECTOR('',#92,1.);
#92 = DIRECTION('',(1.922962686384E-16,0.5,-0.866025403784));
#93 = ORIENTED_EDGE('',*,*,#94,.T.);
#94 = EDGE_CURVE('',#87,#22,#95,.T.);
#95 = LINE('',#96,#97);
#96 = CARTESIAN_POINT('',(44.,-3.464101615138,454.));
#97 = VECTOR('',#98,1.);
#98 = DIRECTION('',(8.539669799672E-32,1.,-3.845925372767E-16));
#99 = PLANE('',#100);
#100 = AXIS2_PLACEMENT_3D('',#101,#102,#103);
#101 = CARTESIAN_POINT('',(44.,-2.99127528993E-16,460.));
#102 = DIRECTION('',(1.,0.,2.22044604925E-16));
#103 = DIRECTION('',(2.22044604925E-16,0.,-1.));
#104 = ADVANCED_FACE('',(#105),#123,.F.);
#105 = FACE_BOUND('',#106,.F.);
#106 = EDGE_LOOP('',(#107,#108,#109,#117));
#107 = ORIENTED_EDGE('',*,*,#62,.F.);
#108 = ORIENTED_EDGE('',*,*,#47,.T.);
#109 = ORIENTED_EDGE('',*,*,#110,.T.);
#110 = EDGE_CURVE('',#40,#111,#113,.T.);
#111 = VERTEX_POINT('',#112);
#112 = CARTESIAN_POINT('',(57.,3.464101615138,466.));
#113 = LINE('',#114,#115);
#114 = CARTESIAN_POINT('',(57.,6.062177826491,461.5));
#115 = VECTOR('',#116,1.);
#116 = DIRECTION('',(0.,-0.5,0.866025403784));
#117 = ORIENTED_EDGE('',*,*,#118,.F.);
#118 = EDGE_CURVE('',#63,#111,#119,.T.);
#119 = LINE('',#120,#121);
#120 = CARTESIAN_POINT('',(44.,3.464101615138,466.));
#121 = VECTOR('',#122,1.);
#122 = DIRECTION('',(1.,0.,2.22044604925E-16));
#123 = PLANE('',#124);
#124 = AXIS2_PLACEMENT_3D('',#125,#126,#127);
#125 = CARTESIAN_POINT('',(44.,6.928203230276,460.));
#126 = DIRECTION('',(1.110223024625E-16,-0.866025403784,-0.5));
#127 = DIRECTION('',(-1.922962686384E-16,-0.5,0.866025403784));
#128 = ADVANCED_FACE('',(#129,#140),#174,.F.);
#129 = FACE_BOUND('',#130,.F.);
#130 = EDGE_LOOP('',(#131));
#131 = ORIENTED_EDGE('',*,*,#132,.T.);
#132 = EDGE_CURVE('',#133,#133,#135,.T.);
#133 = VERTEX_POINT('',#134);
#134 = CARTESIAN_POINT('',(57.,1.714505518806E-15,467.));
#135 = CIRCLE('',#136,7.);
#136 = AXIS2_PLACEMENT_3D('',#137,#138,#139);
#137 = CARTESIAN_POINT('',(57.,0.,460.));
#138 = DIRECTION('',(1.,0.,-0.));
#139 = DIRECTION('',(0.,0.,1.));
#140 = FACE_BOUND('',#141,.F.);
#141 = EDGE_LOOP('',(#142,#143,#151,#159,#167,#173));
#142 = ORIENTED_EDGE('',*,*,#39,.F.);
#143 = ORIENTED_EDGE('',*,*,#144,.F.);
#144 = EDGE_CURVE('',#145,#32,#147,.T.);
#145 = VERTEX_POINT('',#146);
#146 = CARTESIAN_POINT('',(57.,-3.464101615138,454.));
#147 = LINE('',#148,#149);
#148 = CARTESIAN_POINT('',(57.,-1.732050807569,454.));
#149 = VECTOR('',#150,1.);
#150 = DIRECTION('',(0.,1.,-3.845925372767E-16));
#151 = ORIENTED_EDGE('',*,*,#152,.F.);
#152 = EDGE_CURVE('',#153,#145,#155,.T.);
#153 = VERTEX_POINT('',#154);
#154 = CARTESIAN_POINT('',(57.,-6.928203230276,460.));
#155 = LINE('',#156,#157);
#156 = CARTESIAN_POINT('',(57.,-6.062177826491,458.5));
#157 = VECTOR('',#158,1.);
#158 = DIRECTION('',(0.,0.5,-0.866025403784));
#159 = ORIENTED_EDGE('',*,*,#160,.F.);
#160 = EDGE_CURVE('',#161,#153,#163,.T.);
#161 = VERTEX_POINT('',#162);
#162 = CARTESIAN_POINT('',(57.,-3.464101615138,466.));
#163 = LINE('',#164,#165);
#164 = CARTESIAN_POINT('',(57.,-4.330127018922,464.5));
#165 = VECTOR('',#166,1.);
#166 = DIRECTION('',(0.,-0.5,-0.866025403784));
#167 = ORIENTED_EDGE('',*,*,#168,.F.);
#168 = EDGE_CURVE('',#111,#161,#169,.T.);
#169 = LINE('',#170,#171);
#170 = CARTESIAN_POINT('',(57.,1.732050807569,466.));
#171 = VECTOR('',#172,1.);
#172 = DIRECTION('',(0.,-1.,-1.281975124256E-16));
#173 = ORIENTED_EDGE('',*,*,#110,.F.);
#174 = PLANE('',#175);
#175 = AXIS2_PLACEMENT_3D('',#176,#177,#178);
#176 = CARTESIAN_POINT('',(57.,0.,460.));
#177 = DIRECTION('',(1.,0.,0.));
#178 = DIRECTION('',(0.,0.,1.));
#179 = ADVANCED_FACE('',(#180),#191,.F.);
#180 = FACE_BOUND('',#181,.F.);
#181 = EDGE_LOOP('',(#182,#183,#189,#190));
#182 = ORIENTED_EDGE('',*,*,#94,.F.);
#183 = ORIENTED_EDGE('',*,*,#184,.T.);
#184 = EDGE_CURVE('',#87,#145,#185,.T.);
#185 = LINE('',#186,#187);
#186 = CARTESIAN_POINT('',(44.,-3.464101615138,454.));
#187 = VECTOR('',#188,1.);
#188 = DIRECTION('',(1.,0.,2.22044604925E-16));
#189 = ORIENTED_EDGE('',*,*,#144,.T.);
#190 = ORIENTED_EDGE('',*,*,#31,.F.);
#191 = PLANE('',#192);
#192 = AXIS2_PLACEMENT_3D('',#193,#194,#195);
#193 = CARTESIAN_POINT('',(44.,-3.464101615138,454.));
#194 = DIRECTION('',(-2.22044604925E-16,3.845925372767E-16,1.));
#195 = DIRECTION('',(8.539669799672E-32,1.,-3.845925372767E-16));
#196 = ADVANCED_FACE('',(#197),#208,.F.);
#197 = FACE_BOUND('',#198,.F.);
#198 = EDGE_LOOP('',(#199,#200,#201,#202));
#199 = ORIENTED_EDGE('',*,*,#70,.F.);
#200 = ORIENTED_EDGE('',*,*,#118,.T.);
#201 = ORIENTED_EDGE('',*,*,#168,.T.);
#202 = ORIENTED_EDGE('',*,*,#203,.F.);
#203 = EDGE_CURVE('',#71,#161,#204,.T.);
#204 = LINE('',#205,#206);
#205 = CARTESIAN_POINT('',(44.,-3.464101615138,466.));
#206 = VECTOR('',#207,1.);
#207 = DIRECTION('',(1.,0.,2.22044604925E-16));
#208 = PLANE('',#209);
#209 = AXIS2_PLACEMENT_3D('',#210,#211,#212);
#210 = CARTESIAN_POINT('',(44.,3.464101615138,466.));
#211 = DIRECTION('',(2.22044604925E-16,1.281975124256E-16,-1.));
#212 = DIRECTION('',(2.846556599891E-32,-1.,-1.281975124256E-16));
#213 = ADVANCED_FACE('',(#214),#225,.F.);
#214 = FACE_BOUND('',#215,.F.);
#215 = EDGE_LOOP('',(#216,#217,#218,#219));
#216 = ORIENTED_EDGE('',*,*,#78,.F.);
#217 = ORIENTED_EDGE('',*,*,#203,.T.);
#218 = ORIENTED_EDGE('',*,*,#160,.T.);
#219 = ORIENTED_EDGE('',*,*,#220,.F.);
#220 = EDGE_CURVE('',#79,#153,#221,.T.);
#221 = LINE('',#222,#223);
#222 = CARTESIAN_POINT('',(44.,-6.928203230276,460.));
#223 = VECTOR('',#224,1.);
#224 = DIRECTION('',(1.,0.,2.22044604925E-16));
#225 = PLANE('',#226);
#226 = AXIS2_PLACEMENT_3D('',#227,#228,#229);
#227 = CARTESIAN_POINT('',(44.,-3.464101615138,466.));
#228 = DIRECTION('',(1.110223024625E-16,0.866025403784,-0.5));
#229 = DIRECTION('',(1.922962686384E-16,-0.5,-0.866025403784));
#230 = ADVANCED_FACE('',(#231),#237,.F.);
#231 = FACE_BOUND('',#232,.F.);
#232 = EDGE_LOOP('',(#233,#234,#235,#236));
#233 = ORIENTED_EDGE('',*,*,#86,.F.);
#234 = ORIENTED_EDGE('',*,*,#220,.T.);
#235 = ORIENTED_EDGE('',*,*,#152,.T.);
#236 = ORIENTED_EDGE('',*,*,#184,.F.);
#237 = PLANE('',#238);
#238 = AXIS2_PLACEMENT_3D('',#239,#240,#241);
#239 = CARTESIAN_POINT('',(44.,-6.928203230276,460.));
#240 = DIRECTION('',(-1.110223024625E-16,0.866025403784,0.5));
#241 = DIRECTION('',(1.922962686384E-16,0.5,-0.866025403784));
#242 = ADVANCED_FACE('',(#243),#262,.T.);
#243 = FACE_BOUND('',#244,.T.);
#244 = EDGE_LOOP('',(#245,#254,#260,#261));
#245 = ORIENTED_EDGE('',*,*,#246,.F.);
#246 = EDGE_CURVE('',#247,#247,#249,.T.);
#247 = VERTEX_POINT('',#248);
#248 = CARTESIAN_POINT('',(90.5,1.714505518806E-15,467.));
#249 = CIRCLE('',#250,7.);
#250 = AXIS2_PLACEMENT_3D('',#251,#252,#253);
#251 = CARTESIAN_POINT('',(90.5,0.,460.));
#252 = DIRECTION('',(1.,0.,-0.));
#253 = DIRECTION('',(0.,0.,1.));
#254 = ORIENTED_EDGE('',*,*,#255,.F.);
#255 = EDGE_CURVE('',#133,#247,#256,.T.);
#256 = LINE('',#257,#258);
#257 = CARTESIAN_POINT('',(57.,1.714505518806E-15,467.));
#258 = VECTOR('',#259,1.);
#259 = DIRECTION('',(1.,0.,0.));
#260 = ORIENTED_EDGE('',*,*,#132,.T.);
#261 = ORIENTED_EDGE('',*,*,#255,.T.);
#262 = CYLINDRICAL_SURFACE('',#263,7.);
#263 = AXIS2_PLACEMENT_3D('',#264,#265,#266);
#264 = CARTESIAN_POINT('',(57.,0.,460.));
#265 = DIRECTION('',(1.,0.,0.));
#266 = DIRECTION('',(0.,0.,1.));
#267 = ADVANCED_FACE('',(#268,#279),#282,.F.);
#268 = FACE_BOUND('',#269,.F.);
#269 = EDGE_LOOP('',(#270));
#270 = ORIENTED_EDGE('',*,*,#271,.T.);
#271 = EDGE_CURVE('',#272,#272,#274,.T.);
#272 = VERTEX_POINT('',#273);
#273 = CARTESIAN_POINT('',(90.5,2.694222958124E-15,471.));
#274 = CIRCLE('',#275,11.);
#275 = AXIS2_PLACEMENT_3D('',#276,#277,#278);
#276 = CARTESIAN_POINT('',(90.5,0.,460.));
#277 = DIRECTION('',(1.,0.,-0.));
#278 = DIRECTION('',(0.,0.,1.));
#279 = FACE_BOUND('',#280,.F.);
#280 = EDGE_LOOP('',(#281));
#281 = ORIENTED_EDGE('',*,*,#246,.F.);
#282 = PLANE('',#283);
#283 = AXIS2_PLACEMENT_3D('',#284,#285,#286);
#284 = CARTESIAN_POINT('',(90.5,0.,460.));
#285 = DIRECTION('',(1.,0.,0.));
#286 = DIRECTION('',(0.,0.,1.));
#287 = ADVANCED_FACE('',(#288),#376,.T.);
#288 = FACE_BOUND('',#289,.T.);
#289 = EDGE_LOOP('',(#290,#300,#307,#308,#339,#345,#346,#347));
#290 = ORIENTED_EDGE('',*,*,#291,.T.);
#291 = EDGE_CURVE('',#292,#294,#296,.T.);
#292 = VERTEX_POINT('',#293);
#293 = CARTESIAN_POINT('',(96.7,2.694222958124E-15,471.));
#294 = VERTEX_POINT('',#295);
#295 = CARTESIAN_POINT('',(99.,2.694222958124E-15,471.));
#296 = LINE('',#297,#298);
#297 = CARTESIAN_POINT('',(90.5,2.694222958124E-15,471.));
#298 = VECTOR('',#299,1.);
#299 = DIRECTION('',(1.,0.,0.));
#300 = ORIENTED_EDGE('',*,*,#301,.F.);
#301 = EDGE_CURVE('',#294,#294,#302,.T.);
#302 = CIRCLE('',#303,11.);
#303 = AXIS2_PLACEMENT_3D('',#304,#305,#306);
#304 = CARTESIAN_POINT('',(99.,0.,460.));
#305 = DIRECTION('',(1.,0.,-0.));
#306 = DIRECTION('',(0.,0.,1.));
#307 = ORIENTED_EDGE('',*,*,#291,.F.);
#308 = ORIENTED_EDGE('',*,*,#309,.T.);
#309 = EDGE_CURVE('',#292,#310,#312,.T.);
#310 = VERTEX_POINT('',#311);
#311 = CARTESIAN_POINT('',(93.3,1.138921523207E-15,471.));
#312 = B_SPLINE_CURVE_WITH_KNOTS('',7,(#313,#314,#315,#316,#317,#318,
    #319,#320,#321,#322,#323,#324,#325,#326,#327,#328,#329,#330,#331,
    #332,#333,#334,#335,#336,#337,#338),.UNSPECIFIED.,.F.,.F.,(8,6,6,6,8
    ),(0.,0.247191266821,0.500044261932,0.752896884367,1.),
  .UNSPECIFIED.);
#313 = CARTESIAN_POINT('',(96.7,2.22044604925E-16,471.));
#314 = CARTESIAN_POINT('',(96.7,-0.224216238567,471.));
#315 = CARTESIAN_POINT('',(96.665499269348,-0.442927654643,
    470.99466787331));
#316 = CARTESIAN_POINT('',(96.599545100307,-0.649908942193,
    470.98447600916));
#317 = CARTESIAN_POINT('',(96.506417887165,-0.839892951758,
    470.97074612724));
#318 = CARTESIAN_POINT('',(96.39158474255,-1.008781117823,
    470.95534066997));
#319 = CARTESIAN_POINT('',(96.261645210337,-1.154041164867,
    470.93997557903));
#320 = CARTESIAN_POINT('',(95.983667744619,-1.399111266901,
    470.91137267374));
#321 = CARTESIAN_POINT('',(95.83182150988,-1.500856001352,
    470.89783555184));
#322 = CARTESIAN_POINT('',(95.672220093963,-1.581136302928,
    470.88620330269));
#323 = CARTESIAN_POINT('',(95.507418448072,-1.64072111735,470.8771152446
    ));
#324 = CARTESIAN_POINT('',(95.339385797155,-1.680225895547,
    470.87093561224));
#325 = CARTESIAN_POINT('',(95.16974720973,-1.7,470.86784247217));
#326 = CARTESIAN_POINT('',(94.830253040458,-1.7,470.86784247217));
#327 = CARTESIAN_POINT('',(94.660614289283,-1.68022596714,
    470.87093560084));
#328 = CARTESIAN_POINT('',(94.492580537293,-1.640721092031,
    470.87711524715));
#329 = CARTESIAN_POINT('',(94.327777770002,-1.581135622055,
    470.88620341764));
#330 = CARTESIAN_POINT('',(94.168176396146,-1.500854659251,
    470.89783573635));
#331 = CARTESIAN_POINT('',(94.016331133966,-1.399110278241,
    470.91137278913));
#332 = CARTESIAN_POINT('',(93.738404686866,-1.154085155168,
    470.93997044478));
#333 = CARTESIAN_POINT('',(93.608436406764,-1.008822090404,
    470.9553370389));
#334 = CARTESIAN_POINT('',(93.493560213538,-0.839888298391,
    470.97074832577));
#335 = CARTESIAN_POINT('',(93.400412601982,-0.649841437369,
    470.98448256283));
#336 = CARTESIAN_POINT('',(93.334471080953,-0.442816785696,
    470.99467245282));
#337 = CARTESIAN_POINT('',(93.3,-0.224119886059,471.));
#338 = CARTESIAN_POINT('',(93.3,-2.22044604925E-16,471.));
#339 = ORIENTED_EDGE('',*,*,#340,.F.);
#340 = EDGE_CURVE('',#272,#310,#341,.T.);
#341 = LINE('',#342,#343);
#342 = CARTESIAN_POINT('',(90.5,2.694222958124E-15,471.));
#343 = VECTOR('',#344,1.);
#344 = DIRECTION('',(1.,0.,0.));
#345 = ORIENTED_EDGE('',*,*,#271,.T.);
#346 = ORIENTED_EDGE('',*,*,#340,.T.);
#347 = ORIENTED_EDGE('',*,*,#348,.T.);
#348 = EDGE_CURVE('',#310,#292,#349,.T.);
#349 = B_SPLINE_CURVE_WITH_KNOTS('',7,(#350,#351,#352,#353,#354,#355,
    #356,#357,#358,#359,#360,#361,#362,#363,#364,#365,#366,#367,#368,
    #369,#370,#371,#372,#373,#374,#375),.UNSPECIFIED.,.F.,.F.,(8,6,6,6,8
    ),(0.,0.247177020745,0.500012707513,0.752857430378,1.),
  .UNSPECIFIED.);
#350 = CARTESIAN_POINT('',(93.3,1.138921523207E-15,471.));
#351 = CARTESIAN_POINT('',(93.3,0.224216238567,471.));
#352 = CARTESIAN_POINT('',(93.334500730652,0.442927654643,
    470.99466787331));
#353 = CARTESIAN_POINT('',(93.400454899694,0.649908942193,
    470.98447600916));
#354 = CARTESIAN_POINT('',(93.493582112835,0.839892951758,
    470.97074612724));
#355 = CARTESIAN_POINT('',(93.60841525745,1.008781117823,470.95534066997
    ));
#356 = CARTESIAN_POINT('',(93.738354789663,1.154041164867,
    470.93997557903));
#357 = CARTESIAN_POINT('',(94.016330734351,1.399109925933,
    470.91137283025));
#358 = CARTESIAN_POINT('',(94.168174656212,1.500853333664,470.8978358997
    ));
#359 = CARTESIAN_POINT('',(94.327776033375,1.581135236933,
    470.88620351913));
#360 = CARTESIAN_POINT('',(94.492581370738,1.640722226528,
    470.87711506309));
#361 = CARTESIAN_POINT('',(94.660618873955,1.680227353947,
    470.87093538635));
#362 = CARTESIAN_POINT('',(94.830259110868,1.7,470.86784247217));
#363 = CARTESIAN_POINT('',(95.169746955504,1.7,470.86784247217));
#364 = CARTESIAN_POINT('',(95.339385720652,1.680225968152,
    470.87093560074));
#365 = CARTESIAN_POINT('',(95.50741945544,1.6407210872,470.87711524769)
  );
#366 = CARTESIAN_POINT('',(95.67222222651,1.581135631185,470.88620341657
    ));
#367 = CARTESIAN_POINT('',(95.831823611783,1.50085465102,470.89783573732
    ));
#368 = CARTESIAN_POINT('',(95.983668862469,1.399110281384,
    470.91137278877));
#369 = CARTESIAN_POINT('',(96.261621541526,1.15406203173,470.93997314359
    ));
#370 = CARTESIAN_POINT('',(96.391571169707,1.008803686137,
    470.95533858488));
#371 = CARTESIAN_POINT('',(96.506424859385,0.839896573516,
    470.97074662294));
#372 = CARTESIAN_POINT('',(96.599564649015,0.649881498437,
    470.98447902193));
#373 = CARTESIAN_POINT('',(96.665514594308,0.442874502387,
    470.99467024543));
#374 = CARTESIAN_POINT('',(96.7,0.224166445266,471.));
#375 = CARTESIAN_POINT('',(96.7,1.659396412845E-15,471.));
#376 = CYLINDRICAL_SURFACE('',#377,11.);
#377 = AXIS2_PLACEMENT_3D('',#378,#379,#380);
#378 = CARTESIAN_POINT('',(90.5,0.,460.));
#379 = DIRECTION('',(1.,0.,0.));
#380 = DIRECTION('',(0.,0.,1.));
#381 = ADVANCED_FACE('',(#382),#402,.F.);
#382 = FACE_BOUND('',#383,.F.);
#383 = EDGE_LOOP('',(#384,#392,#399,#400,#401));
#384 = ORIENTED_EDGE('',*,*,#385,.T.);
#385 = EDGE_CURVE('',#310,#386,#388,.T.);
#386 = VERTEX_POINT('',#387);
#387 = CARTESIAN_POINT('',(93.3,-4.163799117101E-16,463.99));
#388 = LINE('',#389,#390);
#389 = CARTESIAN_POINT('',(93.3,-4.163799117101E-16,472.01));
#390 = VECTOR('',#391,1.);
#391 = DIRECTION('',(0.,0.,-1.));
#392 = ORIENTED_EDGE('',*,*,#393,.F.);
#393 = EDGE_CURVE('',#386,#386,#394,.T.);
#394 = CIRCLE('',#395,1.7);
#395 = AXIS2_PLACEMENT_3D('',#396,#397,#398);
#396 = CARTESIAN_POINT('',(95.,0.,463.99));
#397 = DIRECTION('',(0.,0.,-1.));
#398 = DIRECTION('',(-1.,0.,0.));
#399 = ORIENTED_EDGE('',*,*,#385,.F.);
#400 = ORIENTED_EDGE('',*,*,#348,.T.);
#401 = ORIENTED_EDGE('',*,*,#309,.T.);
#402 = CYLINDRICAL_SURFACE('',#403,1.7);
#403 = AXIS2_PLACEMENT_3D('',#404,#405,#406);
#404 = CARTESIAN_POINT('',(95.,0.,472.01));
#405 = DIRECTION('',(0.,0.,-1.));
#406 = DIRECTION('',(-1.,0.,0.));
#407 = ADVANCED_FACE('',(#408,#411),#422,.T.);
#408 = FACE_BOUND('',#409,.T.);
#409 = EDGE_LOOP('',(#410));
#410 = ORIENTED_EDGE('',*,*,#301,.T.);
#411 = FACE_BOUND('',#412,.T.);
#412 = EDGE_LOOP('',(#413));
#413 = ORIENTED_EDGE('',*,*,#414,.F.);
#414 = EDGE_CURVE('',#415,#415,#417,.T.);
#415 = VERTEX_POINT('',#416);
#416 = CARTESIAN_POINT('',(99.,7.715274834628E-16,463.15));
#417 = CIRCLE('',#418,3.15);
#418 = AXIS2_PLACEMENT_3D('',#419,#420,#421);
#419 = CARTESIAN_POINT('',(99.,0.,460.));
#420 = DIRECTION('',(1.,0.,-0.));
#421 = DIRECTION('',(0.,0.,1.));
#422 = PLANE('',#423);
#423 = AXIS2_PLACEMENT_3D('',#424,#425,#426);
#424 = CARTESIAN_POINT('',(99.,0.,460.));
#425 = DIRECTION('',(1.,0.,0.));
#426 = DIRECTION('',(0.,0.,1.));
#427 = ADVANCED_FACE('',(#428),#431,.F.);
#428 = FACE_BOUND('',#429,.F.);
#429 = EDGE_LOOP('',(#430));
#430 = ORIENTED_EDGE('',*,*,#393,.T.);
#431 = PLANE('',#432);
#432 = AXIS2_PLACEMENT_3D('',#433,#434,#435);
#433 = CARTESIAN_POINT('',(95.,0.,463.99));
#434 = DIRECTION('',(0.,0.,-1.));
#435 = DIRECTION('',(-1.,0.,0.));
#436 = ADVANCED_FACE('',(#437),#456,.F.);
#437 = FACE_BOUND('',#438,.F.);
#438 = EDGE_LOOP('',(#439,#447,#448,#449));
#439 = ORIENTED_EDGE('',*,*,#440,.T.);
#440 = EDGE_CURVE('',#441,#415,#443,.T.);
#441 = VERTEX_POINT('',#442);
#442 = CARTESIAN_POINT('',(92.,7.715274834628E-16,463.15));
#443 = LINE('',#444,#445);
#444 = CARTESIAN_POINT('',(91.81,7.715274834628E-16,463.15));
#445 = VECTOR('',#446,1.);
#446 = DIRECTION('',(1.,0.,0.));
#447 = ORIENTED_EDGE('',*,*,#414,.F.);
#448 = ORIENTED_EDGE('',*,*,#440,.F.);
#449 = ORIENTED_EDGE('',*,*,#450,.T.);
#450 = EDGE_CURVE('',#441,#441,#451,.T.);
#451 = CIRCLE('',#452,3.15);
#452 = AXIS2_PLACEMENT_3D('',#453,#454,#455);
#453 = CARTESIAN_POINT('',(92.,0.,460.));
#454 = DIRECTION('',(1.,0.,-0.));
#455 = DIRECTION('',(0.,0.,1.));
#456 = CYLINDRICAL_SURFACE('',#457,3.15);
#457 = AXIS2_PLACEMENT_3D('',#458,#459,#460);
#458 = CARTESIAN_POINT('',(91.81,0.,460.));
#459 = DIRECTION('',(1.,0.,0.));
#460 = DIRECTION('',(0.,0.,1.));
#461 = ADVANCED_FACE('',(#462),#465,.T.);
#462 = FACE_BOUND('',#463,.T.);
#463 = EDGE_LOOP('',(#464));
#464 = ORIENTED_EDGE('',*,*,#450,.T.);
#465 = PLANE('',#466);
#466 = AXIS2_PLACEMENT_3D('',#467,#468,#469);
#467 = CARTESIAN_POINT('',(92.,0.,460.));
#468 = DIRECTION('',(1.,0.,0.));
#469 = DIRECTION('',(0.,0.,1.));
#470 = ( GEOMETRIC_REPRESENTATION_CONTEXT(3) 
GLOBAL_UNCERTAINTY_ASSIGNED_CONTEXT((#474)) GLOBAL_UNIT_ASSIGNED_CONTEXT
((#471,#472,#473)) REPRESENTATION_CONTEXT('Context #1',
  '3D Context with UNIT and UNCERTAINTY') );
#471 = ( LENGTH_UNIT() NAMED_UNIT(*) SI_UNIT(.MILLI.,.METRE.) );
#472 = ( NAMED_UNIT(*) PLANE_ANGLE_UNIT() SI_UNIT($,.RADIAN.) );
#473 = ( NAMED_UNIT(*) SI_UNIT($,.STERADIAN.) SOLID_ANGLE_UNIT() );
#474 = UNCERTAINTY_MEASURE_WITH_UNIT(LENGTH_MEASURE(1.E-07),#471,
  'distance_accuracy_value','confusion accuracy');
#475 = PRODUCT_RELATED_PRODUCT_CATEGORY('part',$,(#7));
ENDSEC;
END-ISO-10303-21;
