ISO-10303-21;
HEADER;
FILE_DESCRIPTION(('FreeCAD Model'),'2;1');
FILE_NAME('Open CASCADE Shape Model','2026-09-19T20:59:27',('FreeCAD'),(
    'FreeCAD'),'Open CASCADE STEP processor 7.9','FreeCAD','Unknown');
FILE_SCHEMA(('AUTOMOTIVE_DESIGN { 1 0 10303 214 1 1 1 1 }'));
ENDSEC;
DATA;
#1 = APPLICATION_PROTOCOL_DEFINITION('international standard',
  'automotive_design',2000,#2);
#2 = APPLICATION_CONTEXT(
  'core data for automotive mechanical design processes');
#3 = SHAPE_DEFINITION_REPRESENTATION(#4,#10);
#4 = PRODUCT_DEFINITION_SHAPE('','',#5);
#5 = PRODUCT_DEFINITION('design','',#6,#9);
#6 = PRODUCT_DEFINITION_FORMATION('','',#7);
#7 = PRODUCT('Open CASCADE STEP translator 7.9 27',
  'Open CASCADE STEP translator 7.9 27','',(#8));
#8 = PRODUCT_CONTEXT('',#2,'mechanical');
#9 = PRODUCT_DEFINITION_CONTEXT('part definition',#2,'design');
#10 = ADVANCED_BREP_SHAPE_REPRESENTATION('',(#11,#15),#2042);
#11 = AXIS2_PLACEMENT_3D('',#12,#13,#14);
#12 = CARTESIAN_POINT('',(0.,0.,0.));
#13 = DIRECTION('',(0.,0.,1.));
#14 = DIRECTION('',(1.,0.,-0.));
#15 = MANIFOLD_SOLID_BREP('',#16);
#16 = CLOSED_SHELL('',(#17,#57,#331,#362,#402,#426,#451,#482,#515,#546,
    #570,#594,#618,#642,#659,#690,#714,#738,#762,#786,#803,#834,#858,
    #882,#906,#930,#947,#978,#1002,#1026,#1050,#1074,#1091,#1113,#1138,
    #1163,#1188,#1213,#1238,#1263,#1288,#1313,#1346,#1386,#1417,#1439,
    #1470,#1501,#1581,#1623,#1655,#1677,#1698,#1740,#1772,#1794,#1815,
    #1870,#1895,#1915,#1940,#1949,#1974,#1994,#2019,#2028));
#17 = ADVANCED_FACE('',(#18),#52,.T.);
#18 = FACE_BOUND('',#19,.T.);
#19 = EDGE_LOOP('',(#20,#30,#38,#46));
#20 = ORIENTED_EDGE('',*,*,#21,.F.);
#21 = EDGE_CURVE('',#22,#24,#26,.T.);
#22 = VERTEX_POINT('',#23);
#23 = CARTESIAN_POINT('',(114.,-43.,490.));
#24 = VERTEX_POINT('',#25);
#25 = CARTESIAN_POINT('',(114.,43.,490.));
#26 = LINE('',#27,#28);
#27 = CARTESIAN_POINT('',(114.,-43.,490.));
#28 = VECTOR('',#29,1.);
#29 = DIRECTION('',(0.,1.,0.));
#30 = ORIENTED_EDGE('',*,*,#31,.T.);
#31 = EDGE_CURVE('',#22,#32,#34,.T.);
#32 = VERTEX_POINT('',#33);
#33 = CARTESIAN_POINT('',(118.,-43.,490.));
#34 = LINE('',#35,#36);
#35 = CARTESIAN_POINT('',(114.,-43.,490.));
#36 = VECTOR('',#37,1.);
#37 = DIRECTION('',(1.,0.,0.));
#38 = ORIENTED_EDGE('',*,*,#39,.T.);
#39 = EDGE_CURVE('',#32,#40,#42,.T.);
#40 = VERTEX_POINT('',#41);
#41 = CARTESIAN_POINT('',(118.,43.,490.));
#42 = LINE('',#43,#44);
#43 = CARTESIAN_POINT('',(118.,-43.,490.));
#44 = VECTOR('',#45,1.);
#45 = DIRECTION('',(0.,1.,0.));
#46 = ORIENTED_EDGE('',*,*,#47,.F.);
#47 = EDGE_CURVE('',#24,#40,#48,.T.);
#48 = LINE('',#49,#50);
#49 = CARTESIAN_POINT('',(114.,43.,490.));
#50 = VECTOR('',#51,1.);
#51 = DIRECTION('',(1.,0.,0.));
#52 = PLANE('',#53);
#53 = AXIS2_PLACEMENT_3D('',#54,#55,#56);
#54 = CARTESIAN_POINT('',(114.,-43.,490.));
#55 = DIRECTION('',(0.,0.,1.));
#56 = DIRECTION('',(1.,0.,0.));
#57 = ADVANCED_FACE('',(#58,#115,#165,#215,#265,#276),#326,.F.);
#58 = FACE_BOUND('',#59,.F.);
#59 = EDGE_LOOP('',(#60,#68,#76,#84,#92,#100,#108,#114));
#60 = ORIENTED_EDGE('',*,*,#61,.F.);
#61 = EDGE_CURVE('',#62,#22,#64,.T.);
#62 = VERTEX_POINT('',#63);
#63 = CARTESIAN_POINT('',(114.,-43.,443.5));
#64 = LINE('',#65,#66);
#65 = CARTESIAN_POINT('',(114.,-43.,430.));
#66 = VECTOR('',#67,1.);
#67 = DIRECTION('',(0.,0.,1.));
#68 = ORIENTED_EDGE('',*,*,#69,.F.);
#69 = EDGE_CURVE('',#70,#62,#72,.T.);
#70 = VERTEX_POINT('',#71);
#71 = CARTESIAN_POINT('',(114.,-33.,443.5));
#72 = LINE('',#73,#74);
#73 = CARTESIAN_POINT('',(114.,-43.,443.5));
#74 = VECTOR('',#75,1.);
#75 = DIRECTION('',(0.,-1.,0.));
#76 = ORIENTED_EDGE('',*,*,#77,.F.);
#77 = EDGE_CURVE('',#78,#70,#80,.T.);
#78 = VERTEX_POINT('',#79);
#79 = CARTESIAN_POINT('',(114.,-33.,430.));
#80 = LINE('',#81,#82);
#81 = CARTESIAN_POINT('',(114.,-33.,420.75));
#82 = VECTOR('',#83,1.);
#83 = DIRECTION('',(0.,0.,1.));
#84 = ORIENTED_EDGE('',*,*,#85,.T.);
#85 = EDGE_CURVE('',#78,#86,#88,.T.);
#86 = VERTEX_POINT('',#87);
#87 = CARTESIAN_POINT('',(114.,33.,430.));
#88 = LINE('',#89,#90);
#89 = CARTESIAN_POINT('',(114.,-43.,430.));
#90 = VECTOR('',#91,1.);
#91 = DIRECTION('',(0.,1.,0.));
#92 = ORIENTED_EDGE('',*,*,#93,.T.);
#93 = EDGE_CURVE('',#86,#94,#96,.T.);
#94 = VERTEX_POINT('',#95);
#95 = CARTESIAN_POINT('',(114.,33.,443.5));
#96 = LINE('',#97,#98);
#97 = CARTESIAN_POINT('',(114.,33.,420.75));
#98 = VECTOR('',#99,1.);
#99 = DIRECTION('',(0.,0.,1.));
#100 = ORIENTED_EDGE('',*,*,#101,.F.);
#101 = EDGE_CURVE('',#102,#94,#104,.T.);
#102 = VERTEX_POINT('',#103);
#103 = CARTESIAN_POINT('',(114.,43.,443.5));
#104 = LINE('',#105,#106);
#105 = CARTESIAN_POINT('',(114.,-5.,443.5));
#106 = VECTOR('',#107,1.);
#107 = DIRECTION('',(0.,-1.,0.));
#108 = ORIENTED_EDGE('',*,*,#109,.T.);
#109 = EDGE_CURVE('',#102,#24,#110,.T.);
#110 = LINE('',#111,#112);
#111 = CARTESIAN_POINT('',(114.,43.,430.));
#112 = VECTOR('',#113,1.);
#113 = DIRECTION('',(0.,0.,1.));
#114 = ORIENTED_EDGE('',*,*,#21,.F.);
#115 = FACE_BOUND('',#116,.F.);
#116 = EDGE_LOOP('',(#117,#127,#135,#143,#151,#159));
#117 = ORIENTED_EDGE('',*,*,#118,.T.);
#118 = EDGE_CURVE('',#119,#121,#123,.T.);
#119 = VERTEX_POINT('',#120);
#120 = CARTESIAN_POINT('',(114.,25.703183294109,438.95));
#121 = VERTEX_POINT('',#122);
#122 = CARTESIAN_POINT('',(114.,27.406366588219,436.));
#123 = LINE('',#124,#125);
#124 = CARTESIAN_POINT('',(114.,19.904608870368,448.99342551338));
#125 = VECTOR('',#126,1.);
#126 = DIRECTION('',(0.,0.5,-0.866025403784));
#127 = ORIENTED_EDGE('',*,*,#128,.T.);
#128 = EDGE_CURVE('',#121,#129,#131,.T.);
#129 = VERTEX_POINT('',#130);
#130 = CARTESIAN_POINT('',(114.,25.703183294109,433.05));
#131 = LINE('',#132,#133);
#132 = CARTESIAN_POINT('',(114.,16.45494101196,417.03157448661));
#133 = VECTOR('',#134,1.);
#134 = DIRECTION('',(0.,-0.5,-0.866025403784));
#135 = ORIENTED_EDGE('',*,*,#136,.T.);
#136 = EDGE_CURVE('',#129,#137,#139,.T.);
#137 = VERTEX_POINT('',#138);
#138 = CARTESIAN_POINT('',(114.,22.296816705891,433.05));
#139 = LINE('',#140,#141);
#140 = CARTESIAN_POINT('',(114.,-10.35159164705,433.05));
#141 = VECTOR('',#142,1.);
#142 = DIRECTION('',(0.,-1.,2.607407032384E-16));
#143 = ORIENTED_EDGE('',*,*,#144,.T.);
#144 = EDGE_CURVE('',#137,#145,#147,.T.);
#145 = VERTEX_POINT('',#146);
#146 = CARTESIAN_POINT('',(114.,20.593633411781,436.));
#147 = LINE('',#148,#149);
#148 = CARTESIAN_POINT('',(114.,13.943467340985,447.51842551338));
#149 = VECTOR('',#150,1.);
#150 = DIRECTION('',(0.,-0.5,0.866025403784));
#151 = ORIENTED_EDGE('',*,*,#152,.T.);
#152 = EDGE_CURVE('',#145,#153,#155,.T.);
#153 = VERTEX_POINT('',#154);
#154 = CARTESIAN_POINT('',(114.,22.296816705891,438.95));
#155 = LINE('',#156,#157);
#156 = CARTESIAN_POINT('',(114.,12.196982776687,421.45657448661));
#157 = VECTOR('',#158,1.);
#158 = DIRECTION('',(0.,0.5,0.866025403784));
#159 = ORIENTED_EDGE('',*,*,#160,.T.);
#160 = EDGE_CURVE('',#153,#119,#161,.T.);
#161 = LINE('',#162,#163);
#162 = CARTESIAN_POINT('',(114.,-8.648408352945,438.95));
#163 = VECTOR('',#164,1.);
#164 = DIRECTION('',(0.,1.,1.303703516192E-16));
#165 = FACE_BOUND('',#166,.F.);
#166 = EDGE_LOOP('',(#167,#177,#185,#193,#201,#209));
#167 = ORIENTED_EDGE('',*,*,#168,.T.);
#168 = EDGE_CURVE('',#169,#171,#173,.T.);
#169 = VERTEX_POINT('',#170);
#170 = CARTESIAN_POINT('',(114.,25.703183294109,486.95));
#171 = VERTEX_POINT('',#172);
#172 = CARTESIAN_POINT('',(114.,27.406366588219,484.));
#173 = LINE('',#174,#175);
#174 = CARTESIAN_POINT('',(114.,30.296913715781,478.99342551338));
#175 = VECTOR('',#176,1.);
#176 = DIRECTION('',(0.,0.5,-0.866025403784));
#177 = ORIENTED_EDGE('',*,*,#178,.T.);
#178 = EDGE_CURVE('',#171,#179,#181,.T.);
#179 = VERTEX_POINT('',#180);
#180 = CARTESIAN_POINT('',(114.,25.703183294109,481.05));
#181 = LINE('',#182,#183);
#182 = CARTESIAN_POINT('',(114.,6.062636166547,447.03157448661));
#183 = VECTOR('',#184,1.);
#184 = DIRECTION('',(0.,-0.5,-0.866025403784));
#185 = ORIENTED_EDGE('',*,*,#186,.T.);
#186 = EDGE_CURVE('',#179,#187,#189,.T.);
#187 = VERTEX_POINT('',#188);
#188 = CARTESIAN_POINT('',(114.,22.296816705891,481.05));
#189 = LINE('',#190,#191);
#190 = CARTESIAN_POINT('',(114.,-10.35159164705,481.05));
#191 = VECTOR('',#192,1.);
#192 = DIRECTION('',(0.,-1.,2.607407032384E-16));
#193 = ORIENTED_EDGE('',*,*,#194,.T.);
#194 = EDGE_CURVE('',#187,#195,#197,.T.);
#195 = VERTEX_POINT('',#196);
#196 = CARTESIAN_POINT('',(114.,20.593633411781,484.));
#197 = LINE('',#198,#199);
#198 = CARTESIAN_POINT('',(114.,24.335772186398,477.51842551338));
#199 = VECTOR('',#200,1.);
#200 = DIRECTION('',(0.,-0.5,0.866025403784));
#201 = ORIENTED_EDGE('',*,*,#202,.T.);
#202 = EDGE_CURVE('',#195,#203,#205,.T.);
#203 = VERTEX_POINT('',#204);
#204 = CARTESIAN_POINT('',(114.,22.296816705891,486.95));
#205 = LINE('',#206,#207);
#206 = CARTESIAN_POINT('',(114.,1.804677931273,451.45657448661));
#207 = VECTOR('',#208,1.);
#208 = DIRECTION('',(0.,0.5,0.866025403784));
#209 = ORIENTED_EDGE('',*,*,#210,.T.);
#210 = EDGE_CURVE('',#203,#169,#211,.T.);
#211 = LINE('',#212,#213);
#212 = CARTESIAN_POINT('',(114.,-8.648408352945,486.95));
#213 = VECTOR('',#214,1.);
#214 = DIRECTION('',(0.,1.,1.303703516192E-16));
#215 = FACE_BOUND('',#216,.F.);
#216 = EDGE_LOOP('',(#217,#227,#235,#243,#251,#259));
#217 = ORIENTED_EDGE('',*,*,#218,.T.);
#218 = EDGE_CURVE('',#219,#221,#223,.T.);
#219 = VERTEX_POINT('',#220);
#220 = CARTESIAN_POINT('',(114.,-22.29681670589,438.95));
#221 = VERTEX_POINT('',#222);
#222 = CARTESIAN_POINT('',(114.,-20.59363341178,436.));
#223 = LINE('',#224,#225);
#224 = CARTESIAN_POINT('',(114.,-22.09539112963,438.60112066797));
#225 = VECTOR('',#226,1.);
#226 = DIRECTION('',(0.,0.5,-0.866025403784));
#227 = ORIENTED_EDGE('',*,*,#228,.T.);
#228 = EDGE_CURVE('',#221,#229,#231,.T.);
#229 = VERTEX_POINT('',#230);
#230 = CARTESIAN_POINT('',(114.,-22.29681670589,433.05));
#231 = LINE('',#232,#233);
#232 = CARTESIAN_POINT('',(114.,-25.54505898804,427.42387933202));
#233 = VECTOR('',#234,1.);
#234 = DIRECTION('',(0.,-0.5,-0.866025403784));
#235 = ORIENTED_EDGE('',*,*,#236,.T.);
#236 = EDGE_CURVE('',#229,#237,#239,.T.);
#237 = VERTEX_POINT('',#238);
#238 = CARTESIAN_POINT('',(114.,-25.7031832941,433.05));
#239 = LINE('',#240,#241);
#240 = CARTESIAN_POINT('',(114.,-34.35159164705,433.05));
#241 = VECTOR('',#242,1.);
#242 = DIRECTION('',(0.,-1.,2.607407032384E-16));
#243 = ORIENTED_EDGE('',*,*,#244,.T.);
#244 = EDGE_CURVE('',#237,#245,#247,.T.);
#245 = VERTEX_POINT('',#246);
#246 = CARTESIAN_POINT('',(114.,-27.40636658821,436.));
#247 = LINE('',#248,#249);
#248 = CARTESIAN_POINT('',(114.,-28.05653265901,437.12612066797));
#249 = VECTOR('',#250,1.);
#250 = DIRECTION('',(0.,-0.5,0.866025403784));
#251 = ORIENTED_EDGE('',*,*,#252,.T.);
#252 = EDGE_CURVE('',#245,#253,#255,.T.);
#253 = VERTEX_POINT('',#254);
#254 = CARTESIAN_POINT('',(114.,-25.7031832941,438.95));
#255 = LINE('',#256,#257);
#256 = CARTESIAN_POINT('',(114.,-29.80301722331,431.84887933202));
#257 = VECTOR('',#258,1.);
#258 = DIRECTION('',(0.,0.5,0.866025403784));
#259 = ORIENTED_EDGE('',*,*,#260,.T.);
#260 = EDGE_CURVE('',#253,#219,#261,.T.);
#261 = LINE('',#262,#263);
#262 = CARTESIAN_POINT('',(114.,-32.64840835294,438.95));
#263 = VECTOR('',#264,1.);
#264 = DIRECTION('',(0.,1.,1.303703516192E-16));
#265 = FACE_BOUND('',#266,.F.);
#266 = EDGE_LOOP('',(#267));
#267 = ORIENTED_EDGE('',*,*,#268,.F.);
#268 = EDGE_CURVE('',#269,#269,#271,.T.);
#269 = VERTEX_POINT('',#270);
#270 = CARTESIAN_POINT('',(114.,1.836970198721E-15,467.5));
#271 = CIRCLE('',#272,7.5);
#272 = AXIS2_PLACEMENT_3D('',#273,#274,#275);
#273 = CARTESIAN_POINT('',(114.,0.,460.));
#274 = DIRECTION('',(1.,0.,-0.));
#275 = DIRECTION('',(0.,0.,1.));
#276 = FACE_BOUND('',#277,.F.);
#277 = EDGE_LOOP('',(#278,#288,#296,#304,#312,#320));
#278 = ORIENTED_EDGE('',*,*,#279,.T.);
#279 = EDGE_CURVE('',#280,#282,#284,.T.);
#280 = VERTEX_POINT('',#281);
#281 = CARTESIAN_POINT('',(114.,-22.29681670589,486.95));
#282 = VERTEX_POINT('',#283);
#283 = CARTESIAN_POINT('',(114.,-20.59363341178,484.));
#284 = LINE('',#285,#286);
#285 = CARTESIAN_POINT('',(114.,-11.70308628421,468.60112066797));
#286 = VECTOR('',#287,1.);
#287 = DIRECTION('',(0.,0.5,-0.866025403784));
#288 = ORIENTED_EDGE('',*,*,#289,.T.);
#289 = EDGE_CURVE('',#282,#290,#292,.T.);
#290 = VERTEX_POINT('',#291);
#291 = CARTESIAN_POINT('',(114.,-22.29681670589,481.05));
#292 = LINE('',#293,#294);
#293 = CARTESIAN_POINT('',(114.,-35.93736383345,457.42387933202));
#294 = VECTOR('',#295,1.);
#295 = DIRECTION('',(0.,-0.5,-0.866025403784));
#296 = ORIENTED_EDGE('',*,*,#297,.T.);
#297 = EDGE_CURVE('',#290,#298,#300,.T.);
#298 = VERTEX_POINT('',#299);
#299 = CARTESIAN_POINT('',(114.,-25.7031832941,481.05));
#300 = LINE('',#301,#302);
#301 = CARTESIAN_POINT('',(114.,-34.35159164705,481.05));
#302 = VECTOR('',#303,1.);
#303 = DIRECTION('',(0.,-1.,2.607407032384E-16));
#304 = ORIENTED_EDGE('',*,*,#305,.T.);
#305 = EDGE_CURVE('',#298,#306,#308,.T.);
#306 = VERTEX_POINT('',#307);
#307 = CARTESIAN_POINT('',(114.,-27.40636658821,484.));
#308 = LINE('',#309,#310);
#309 = CARTESIAN_POINT('',(114.,-17.6642278136,467.12612066797));
#310 = VECTOR('',#311,1.);
#311 = DIRECTION('',(0.,-0.5,0.866025403784));
#312 = ORIENTED_EDGE('',*,*,#313,.T.);
#313 = EDGE_CURVE('',#306,#314,#316,.T.);
#314 = VERTEX_POINT('',#315);
#315 = CARTESIAN_POINT('',(114.,-25.7031832941,486.95));
#316 = LINE('',#317,#318);
#317 = CARTESIAN_POINT('',(114.,-40.19532206872,461.84887933202));
#318 = VECTOR('',#319,1.);
#319 = DIRECTION('',(0.,0.5,0.866025403784));
#320 = ORIENTED_EDGE('',*,*,#321,.T.);
#321 = EDGE_CURVE('',#314,#280,#322,.T.);
#322 = LINE('',#323,#324);
#323 = CARTESIAN_POINT('',(114.,-32.64840835294,486.95));
#324 = VECTOR('',#325,1.);
#325 = DIRECTION('',(0.,1.,1.303703516192E-16));
#326 = PLANE('',#327);
#327 = AXIS2_PLACEMENT_3D('',#328,#329,#330);
#328 = CARTESIAN_POINT('',(114.,-43.,430.));
#329 = DIRECTION('',(1.,0.,0.));
#330 = DIRECTION('',(0.,0.,1.));
#331 = ADVANCED_FACE('',(#332),#357,.T.);
#332 = FACE_BOUND('',#333,.T.);
#333 = EDGE_LOOP('',(#334,#342,#350,#356));
#334 = ORIENTED_EDGE('',*,*,#335,.F.);
#335 = EDGE_CURVE('',#336,#70,#338,.T.);
#336 = VERTEX_POINT('',#337);
#337 = CARTESIAN_POINT('',(90.,-33.,443.5));
#338 = LINE('',#339,#340);
#339 = CARTESIAN_POINT('',(90.,-33.,443.5));
#340 = VECTOR('',#341,1.);
#341 = DIRECTION('',(1.,0.,0.));
#342 = ORIENTED_EDGE('',*,*,#343,.F.);
#343 = EDGE_CURVE('',#344,#336,#346,.T.);
#344 = VERTEX_POINT('',#345);
#345 = CARTESIAN_POINT('',(90.,-43.,443.5));
#346 = LINE('',#347,#348);
#347 = CARTESIAN_POINT('',(90.,-43.,443.5));
#348 = VECTOR('',#349,1.);
#349 = DIRECTION('',(0.,1.,0.));
#350 = ORIENTED_EDGE('',*,*,#351,.T.);
#351 = EDGE_CURVE('',#344,#62,#352,.T.);
#352 = LINE('',#353,#354);
#353 = CARTESIAN_POINT('',(90.,-43.,443.5));
#354 = VECTOR('',#355,1.);
#355 = DIRECTION('',(1.,0.,0.));
#356 = ORIENTED_EDGE('',*,*,#69,.F.);
#357 = PLANE('',#358);
#358 = AXIS2_PLACEMENT_3D('',#359,#360,#361);
#359 = CARTESIAN_POINT('',(90.,-43.,443.5));
#360 = DIRECTION('',(0.,0.,1.));
#361 = DIRECTION('',(1.,0.,0.));
#362 = ADVANCED_FACE('',(#363),#397,.T.);
#363 = FACE_BOUND('',#364,.T.);
#364 = EDGE_LOOP('',(#365,#375,#383,#389,#390,#391));
#365 = ORIENTED_EDGE('',*,*,#366,.F.);
#366 = EDGE_CURVE('',#367,#369,#371,.T.);
#367 = VERTEX_POINT('',#368);
#368 = CARTESIAN_POINT('',(118.,-33.,420.));
#369 = VERTEX_POINT('',#370);
#370 = CARTESIAN_POINT('',(118.,-33.,430.));
#371 = LINE('',#372,#373);
#372 = CARTESIAN_POINT('',(118.,-33.,411.5));
#373 = VECTOR('',#374,1.);
#374 = DIRECTION('',(0.,0.,1.));
#375 = ORIENTED_EDGE('',*,*,#376,.F.);
#376 = EDGE_CURVE('',#377,#367,#379,.T.);
#377 = VERTEX_POINT('',#378);
#378 = CARTESIAN_POINT('',(90.,-33.,420.));
#379 = LINE('',#380,#381);
#380 = CARTESIAN_POINT('',(90.,-33.,420.));
#381 = VECTOR('',#382,1.);
#382 = DIRECTION('',(1.,0.,0.));
#383 = ORIENTED_EDGE('',*,*,#384,.T.);
#384 = EDGE_CURVE('',#377,#336,#385,.T.);
#385 = LINE('',#386,#387);
#386 = CARTESIAN_POINT('',(90.,-33.,411.5));
#387 = VECTOR('',#388,1.);
#388 = DIRECTION('',(0.,0.,1.));
#389 = ORIENTED_EDGE('',*,*,#335,.T.);
#390 = ORIENTED_EDGE('',*,*,#77,.F.);
#391 = ORIENTED_EDGE('',*,*,#392,.F.);
#392 = EDGE_CURVE('',#369,#78,#393,.T.);
#393 = LINE('',#394,#395);
#394 = CARTESIAN_POINT('',(102.,-33.,430.));
#395 = VECTOR('',#396,1.);
#396 = DIRECTION('',(-1.,0.,0.));
#397 = PLANE('',#398);
#398 = AXIS2_PLACEMENT_3D('',#399,#400,#401);
#399 = CARTESIAN_POINT('',(90.,-33.,411.5));
#400 = DIRECTION('',(0.,1.,0.));
#401 = DIRECTION('',(0.,0.,1.));
#402 = ADVANCED_FACE('',(#403),#421,.F.);
#403 = FACE_BOUND('',#404,.F.);
#404 = EDGE_LOOP('',(#405,#406,#407,#415));
#405 = ORIENTED_EDGE('',*,*,#85,.F.);
#406 = ORIENTED_EDGE('',*,*,#392,.F.);
#407 = ORIENTED_EDGE('',*,*,#408,.T.);
#408 = EDGE_CURVE('',#369,#409,#411,.T.);
#409 = VERTEX_POINT('',#410);
#410 = CARTESIAN_POINT('',(118.,33.,430.));
#411 = LINE('',#412,#413);
#412 = CARTESIAN_POINT('',(118.,-43.,430.));
#413 = VECTOR('',#414,1.);
#414 = DIRECTION('',(0.,1.,0.));
#415 = ORIENTED_EDGE('',*,*,#416,.T.);
#416 = EDGE_CURVE('',#409,#86,#417,.T.);
#417 = LINE('',#418,#419);
#418 = CARTESIAN_POINT('',(102.,33.,430.));
#419 = VECTOR('',#420,1.);
#420 = DIRECTION('',(-1.,0.,0.));
#421 = PLANE('',#422);
#422 = AXIS2_PLACEMENT_3D('',#423,#424,#425);
#423 = CARTESIAN_POINT('',(114.,-43.,430.));
#424 = DIRECTION('',(0.,0.,1.));
#425 = DIRECTION('',(1.,0.,0.));
#426 = ADVANCED_FACE('',(#427),#446,.F.);
#427 = FACE_BOUND('',#428,.F.);
#428 = EDGE_LOOP('',(#429,#438,#444,#445));
#429 = ORIENTED_EDGE('',*,*,#430,.F.);
#430 = EDGE_CURVE('',#431,#431,#433,.T.);
#431 = VERTEX_POINT('',#432);
#432 = CARTESIAN_POINT('',(118.,1.836970198721E-15,467.5));
#433 = CIRCLE('',#434,7.5);
#434 = AXIS2_PLACEMENT_3D('',#435,#436,#437);
#435 = CARTESIAN_POINT('',(118.,0.,460.));
#436 = DIRECTION('',(1.,0.,-0.));
#437 = DIRECTION('',(0.,0.,1.));
#438 = ORIENTED_EDGE('',*,*,#439,.F.);
#439 = EDGE_CURVE('',#269,#431,#440,.T.);
#440 = LINE('',#441,#442);
#441 = CARTESIAN_POINT('',(113.,1.836970198721E-15,467.5));
#442 = VECTOR('',#443,1.);
#443 = DIRECTION('',(1.,0.,0.));
#444 = ORIENTED_EDGE('',*,*,#268,.T.);
#445 = ORIENTED_EDGE('',*,*,#439,.T.);
#446 = CYLINDRICAL_SURFACE('',#447,7.5);
#447 = AXIS2_PLACEMENT_3D('',#448,#449,#450);
#448 = CARTESIAN_POINT('',(113.,0.,460.));
#449 = DIRECTION('',(1.,0.,0.));
#450 = DIRECTION('',(0.,0.,1.));
#451 = ADVANCED_FACE('',(#452),#477,.T.);
#452 = FACE_BOUND('',#453,.T.);
#453 = EDGE_LOOP('',(#454,#462,#470,#476));
#454 = ORIENTED_EDGE('',*,*,#455,.F.);
#455 = EDGE_CURVE('',#456,#102,#458,.T.);
#456 = VERTEX_POINT('',#457);
#457 = CARTESIAN_POINT('',(90.,43.,443.5));
#458 = LINE('',#459,#460);
#459 = CARTESIAN_POINT('',(90.,43.,443.5));
#460 = VECTOR('',#461,1.);
#461 = DIRECTION('',(1.,0.,0.));
#462 = ORIENTED_EDGE('',*,*,#463,.F.);
#463 = EDGE_CURVE('',#464,#456,#466,.T.);
#464 = VERTEX_POINT('',#465);
#465 = CARTESIAN_POINT('',(90.,33.,443.5));
#466 = LINE('',#467,#468);
#467 = CARTESIAN_POINT('',(90.,33.,443.5));
#468 = VECTOR('',#469,1.);
#469 = DIRECTION('',(0.,1.,0.));
#470 = ORIENTED_EDGE('',*,*,#471,.T.);
#471 = EDGE_CURVE('',#464,#94,#472,.T.);
#472 = LINE('',#473,#474);
#473 = CARTESIAN_POINT('',(90.,33.,443.5));
#474 = VECTOR('',#475,1.);
#475 = DIRECTION('',(1.,0.,0.));
#476 = ORIENTED_EDGE('',*,*,#101,.F.);
#477 = PLANE('',#478);
#478 = AXIS2_PLACEMENT_3D('',#479,#480,#481);
#479 = CARTESIAN_POINT('',(90.,33.,443.5));
#480 = DIRECTION('',(0.,0.,1.));
#481 = DIRECTION('',(1.,0.,0.));
#482 = ADVANCED_FACE('',(#483),#510,.F.);
#483 = FACE_BOUND('',#484,.F.);
#484 = EDGE_LOOP('',(#485,#493,#501,#507,#508,#509));
#485 = ORIENTED_EDGE('',*,*,#486,.F.);
#486 = EDGE_CURVE('',#487,#409,#489,.T.);
#487 = VERTEX_POINT('',#488);
#488 = CARTESIAN_POINT('',(118.,33.,420.));
#489 = LINE('',#490,#491);
#490 = CARTESIAN_POINT('',(118.,33.,411.5));
#491 = VECTOR('',#492,1.);
#492 = DIRECTION('',(0.,0.,1.));
#493 = ORIENTED_EDGE('',*,*,#494,.F.);
#494 = EDGE_CURVE('',#495,#487,#497,.T.);
#495 = VERTEX_POINT('',#496);
#496 = CARTESIAN_POINT('',(90.,33.,420.));
#497 = LINE('',#498,#499);
#498 = CARTESIAN_POINT('',(90.,33.,420.));
#499 = VECTOR('',#500,1.);
#500 = DIRECTION('',(1.,0.,0.));
#501 = ORIENTED_EDGE('',*,*,#502,.T.);
#502 = EDGE_CURVE('',#495,#464,#503,.T.);
#503 = LINE('',#504,#505);
#504 = CARTESIAN_POINT('',(90.,33.,411.5));
#505 = VECTOR('',#506,1.);
#506 = DIRECTION('',(0.,0.,1.));
#507 = ORIENTED_EDGE('',*,*,#471,.T.);
#508 = ORIENTED_EDGE('',*,*,#93,.F.);
#509 = ORIENTED_EDGE('',*,*,#416,.F.);
#510 = PLANE('',#511);
#511 = AXIS2_PLACEMENT_3D('',#512,#513,#514);
#512 = CARTESIAN_POINT('',(90.,33.,411.5));
#513 = DIRECTION('',(0.,1.,0.));
#514 = DIRECTION('',(0.,0.,1.));
#515 = ADVANCED_FACE('',(#516),#541,.T.);
#516 = FACE_BOUND('',#517,.T.);
#517 = EDGE_LOOP('',(#518,#519,#527,#535));
#518 = ORIENTED_EDGE('',*,*,#118,.T.);
#519 = ORIENTED_EDGE('',*,*,#520,.T.);
#520 = EDGE_CURVE('',#121,#521,#523,.T.);
#521 = VERTEX_POINT('',#522);
#522 = CARTESIAN_POINT('',(116.99,27.406366588219,436.));
#523 = LINE('',#524,#525);
#524 = CARTESIAN_POINT('',(113.99,27.406366588219,436.));
#525 = VECTOR('',#526,1.);
#526 = DIRECTION('',(1.,0.,2.22044604925E-16));
#527 = ORIENTED_EDGE('',*,*,#528,.T.);
#528 = EDGE_CURVE('',#521,#529,#531,.T.);
#529 = VERTEX_POINT('',#530);
#530 = CARTESIAN_POINT('',(116.99,25.703183294109,438.95));
#531 = LINE('',#532,#533);
#532 = CARTESIAN_POINT('',(116.99,27.406366588219,436.));
#533 = VECTOR('',#534,1.);
#534 = DIRECTION('',(-1.922962686384E-16,-0.5,0.866025403784));
#535 = ORIENTED_EDGE('',*,*,#536,.F.);
#536 = EDGE_CURVE('',#119,#529,#537,.T.);
#537 = LINE('',#538,#539);
#538 = CARTESIAN_POINT('',(113.99,25.703183294109,438.95));
#539 = VECTOR('',#540,1.);
#540 = DIRECTION('',(1.,0.,2.22044604925E-16));
#541 = PLANE('',#542);
#542 = AXIS2_PLACEMENT_3D('',#543,#544,#545);
#543 = CARTESIAN_POINT('',(113.99,27.406366588219,436.));
#544 = DIRECTION('',(1.110223024625E-16,-0.866025403784,-0.5));
#545 = DIRECTION('',(-1.922962686384E-16,-0.5,0.866025403784));
#546 = ADVANCED_FACE('',(#547),#565,.T.);
#547 = FACE_BOUND('',#548,.T.);
#548 = EDGE_LOOP('',(#549,#550,#551,#559));
#549 = ORIENTED_EDGE('',*,*,#160,.T.);
#550 = ORIENTED_EDGE('',*,*,#536,.T.);
#551 = ORIENTED_EDGE('',*,*,#552,.T.);
#552 = EDGE_CURVE('',#529,#553,#555,.T.);
#553 = VERTEX_POINT('',#554);
#554 = CARTESIAN_POINT('',(116.99,22.296816705891,438.95));
#555 = LINE('',#556,#557);
#556 = CARTESIAN_POINT('',(116.99,25.703183294109,438.95));
#557 = VECTOR('',#558,1.);
#558 = DIRECTION('',(2.894803321923E-32,-1.,-1.303703516192E-16));
#559 = ORIENTED_EDGE('',*,*,#560,.F.);
#560 = EDGE_CURVE('',#153,#553,#561,.T.);
#561 = LINE('',#562,#563);
#562 = CARTESIAN_POINT('',(113.99,22.296816705891,438.95));
#563 = VECTOR('',#564,1.);
#564 = DIRECTION('',(1.,0.,2.22044604925E-16));
#565 = PLANE('',#566);
#566 = AXIS2_PLACEMENT_3D('',#567,#568,#569);
#567 = CARTESIAN_POINT('',(113.99,25.703183294109,438.95));
#568 = DIRECTION('',(2.22044604925E-16,1.303703516192E-16,-1.));
#569 = DIRECTION('',(2.894803321923E-32,-1.,-1.303703516192E-16));
#570 = ADVANCED_FACE('',(#571),#589,.T.);
#571 = FACE_BOUND('',#572,.T.);
#572 = EDGE_LOOP('',(#573,#574,#582,#588));
#573 = ORIENTED_EDGE('',*,*,#128,.T.);
#574 = ORIENTED_EDGE('',*,*,#575,.T.);
#575 = EDGE_CURVE('',#129,#576,#578,.T.);
#576 = VERTEX_POINT('',#577);
#577 = CARTESIAN_POINT('',(116.99,25.703183294109,433.05));
#578 = LINE('',#579,#580);
#579 = CARTESIAN_POINT('',(113.99,25.703183294109,433.05));
#580 = VECTOR('',#581,1.);
#581 = DIRECTION('',(1.,0.,2.22044604925E-16));
#582 = ORIENTED_EDGE('',*,*,#583,.T.);
#583 = EDGE_CURVE('',#576,#521,#584,.T.);
#584 = LINE('',#585,#586);
#585 = CARTESIAN_POINT('',(116.99,25.703183294109,433.05));
#586 = VECTOR('',#587,1.);
#587 = DIRECTION('',(-1.922962686384E-16,0.5,0.866025403784));
#588 = ORIENTED_EDGE('',*,*,#520,.F.);
#589 = PLANE('',#590);
#590 = AXIS2_PLACEMENT_3D('',#591,#592,#593);
#591 = CARTESIAN_POINT('',(113.99,25.703183294109,433.05));
#592 = DIRECTION('',(-1.110223024625E-16,-0.866025403784,0.5));
#593 = DIRECTION('',(-1.922962686384E-16,0.5,0.866025403784));
#594 = ADVANCED_FACE('',(#595),#613,.T.);
#595 = FACE_BOUND('',#596,.T.);
#596 = EDGE_LOOP('',(#597,#598,#599,#607));
#597 = ORIENTED_EDGE('',*,*,#152,.T.);
#598 = ORIENTED_EDGE('',*,*,#560,.T.);
#599 = ORIENTED_EDGE('',*,*,#600,.T.);
#600 = EDGE_CURVE('',#553,#601,#603,.T.);
#601 = VERTEX_POINT('',#602);
#602 = CARTESIAN_POINT('',(116.99,20.593633411781,436.));
#603 = LINE('',#604,#605);
#604 = CARTESIAN_POINT('',(116.99,22.296816705891,438.95));
#605 = VECTOR('',#606,1.);
#606 = DIRECTION('',(1.922962686384E-16,-0.5,-0.866025403784));
#607 = ORIENTED_EDGE('',*,*,#608,.F.);
#608 = EDGE_CURVE('',#145,#601,#609,.T.);
#609 = LINE('',#610,#611);
#610 = CARTESIAN_POINT('',(113.99,20.593633411781,436.));
#611 = VECTOR('',#612,1.);
#612 = DIRECTION('',(1.,0.,2.22044604925E-16));
#613 = PLANE('',#614);
#614 = AXIS2_PLACEMENT_3D('',#615,#616,#617);
#615 = CARTESIAN_POINT('',(113.99,22.296816705891,438.95));
#616 = DIRECTION('',(1.110223024625E-16,0.866025403784,-0.5));
#617 = DIRECTION('',(1.922962686384E-16,-0.5,-0.866025403784));
#618 = ADVANCED_FACE('',(#619),#637,.T.);
#619 = FACE_BOUND('',#620,.T.);
#620 = EDGE_LOOP('',(#621,#622,#630,#636));
#621 = ORIENTED_EDGE('',*,*,#136,.T.);
#622 = ORIENTED_EDGE('',*,*,#623,.T.);
#623 = EDGE_CURVE('',#137,#624,#626,.T.);
#624 = VERTEX_POINT('',#625);
#625 = CARTESIAN_POINT('',(116.99,22.296816705891,433.05));
#626 = LINE('',#627,#628);
#627 = CARTESIAN_POINT('',(113.99,22.296816705891,433.05));
#628 = VECTOR('',#629,1.);
#629 = DIRECTION('',(1.,0.,2.22044604925E-16));
#630 = ORIENTED_EDGE('',*,*,#631,.T.);
#631 = EDGE_CURVE('',#624,#576,#632,.T.);
#632 = LINE('',#633,#634);
#633 = CARTESIAN_POINT('',(116.99,22.296816705891,433.05));
#634 = VECTOR('',#635,1.);
#635 = DIRECTION('',(5.789606643846E-32,1.,-2.607407032384E-16));
#636 = ORIENTED_EDGE('',*,*,#575,.F.);
#637 = PLANE('',#638);
#638 = AXIS2_PLACEMENT_3D('',#639,#640,#641);
#639 = CARTESIAN_POINT('',(113.99,22.296816705891,433.05));
#640 = DIRECTION('',(-2.22044604925E-16,2.607407032384E-16,1.));
#641 = DIRECTION('',(5.789606643846E-32,1.,-2.607407032384E-16));
#642 = ADVANCED_FACE('',(#643),#654,.T.);
#643 = FACE_BOUND('',#644,.T.);
#644 = EDGE_LOOP('',(#645,#646,#647,#653));
#645 = ORIENTED_EDGE('',*,*,#144,.T.);
#646 = ORIENTED_EDGE('',*,*,#608,.T.);
#647 = ORIENTED_EDGE('',*,*,#648,.T.);
#648 = EDGE_CURVE('',#601,#624,#649,.T.);
#649 = LINE('',#650,#651);
#650 = CARTESIAN_POINT('',(116.99,20.593633411781,436.));
#651 = VECTOR('',#652,1.);
#652 = DIRECTION('',(1.922962686384E-16,0.5,-0.866025403784));
#653 = ORIENTED_EDGE('',*,*,#623,.F.);
#654 = PLANE('',#655);
#655 = AXIS2_PLACEMENT_3D('',#656,#657,#658);
#656 = CARTESIAN_POINT('',(113.99,20.593633411781,436.));
#657 = DIRECTION('',(-1.110223024625E-16,0.866025403784,0.5));
#658 = DIRECTION('',(1.922962686384E-16,0.5,-0.866025403784));
#659 = ADVANCED_FACE('',(#660),#685,.T.);
#660 = FACE_BOUND('',#661,.T.);
#661 = EDGE_LOOP('',(#662,#663,#671,#679));
#662 = ORIENTED_EDGE('',*,*,#168,.T.);
#663 = ORIENTED_EDGE('',*,*,#664,.T.);
#664 = EDGE_CURVE('',#171,#665,#667,.T.);
#665 = VERTEX_POINT('',#666);
#666 = CARTESIAN_POINT('',(116.99,27.406366588219,484.));
#667 = LINE('',#668,#669);
#668 = CARTESIAN_POINT('',(113.99,27.406366588219,484.));
#669 = VECTOR('',#670,1.);
#670 = DIRECTION('',(1.,0.,2.22044604925E-16));
#671 = ORIENTED_EDGE('',*,*,#672,.T.);
#672 = EDGE_CURVE('',#665,#673,#675,.T.);
#673 = VERTEX_POINT('',#674);
#674 = CARTESIAN_POINT('',(116.99,25.703183294109,486.95));
#675 = LINE('',#676,#677);
#676 = CARTESIAN_POINT('',(116.99,27.406366588219,484.));
#677 = VECTOR('',#678,1.);
#678 = DIRECTION('',(-1.922962686384E-16,-0.5,0.866025403784));
#679 = ORIENTED_EDGE('',*,*,#680,.F.);
#680 = EDGE_CURVE('',#169,#673,#681,.T.);
#681 = LINE('',#682,#683);
#682 = CARTESIAN_POINT('',(113.99,25.703183294109,486.95));
#683 = VECTOR('',#684,1.);
#684 = DIRECTION('',(1.,0.,2.22044604925E-16));
#685 = PLANE('',#686);
#686 = AXIS2_PLACEMENT_3D('',#687,#688,#689);
#687 = CARTESIAN_POINT('',(113.99,27.406366588219,484.));
#688 = DIRECTION('',(1.110223024625E-16,-0.866025403784,-0.5));
#689 = DIRECTION('',(-1.922962686384E-16,-0.5,0.866025403784));
#690 = ADVANCED_FACE('',(#691),#709,.T.);
#691 = FACE_BOUND('',#692,.T.);
#692 = EDGE_LOOP('',(#693,#694,#695,#703));
#693 = ORIENTED_EDGE('',*,*,#210,.T.);
#694 = ORIENTED_EDGE('',*,*,#680,.T.);
#695 = ORIENTED_EDGE('',*,*,#696,.T.);
#696 = EDGE_CURVE('',#673,#697,#699,.T.);
#697 = VERTEX_POINT('',#698);
#698 = CARTESIAN_POINT('',(116.99,22.296816705891,486.95));
#699 = LINE('',#700,#701);
#700 = CARTESIAN_POINT('',(116.99,25.703183294109,486.95));
#701 = VECTOR('',#702,1.);
#702 = DIRECTION('',(2.894803321923E-32,-1.,-1.303703516192E-16));
#703 = ORIENTED_EDGE('',*,*,#704,.F.);
#704 = EDGE_CURVE('',#203,#697,#705,.T.);
#705 = LINE('',#706,#707);
#706 = CARTESIAN_POINT('',(113.99,22.296816705891,486.95));
#707 = VECTOR('',#708,1.);
#708 = DIRECTION('',(1.,0.,2.22044604925E-16));
#709 = PLANE('',#710);
#710 = AXIS2_PLACEMENT_3D('',#711,#712,#713);
#711 = CARTESIAN_POINT('',(113.99,25.703183294109,486.95));
#712 = DIRECTION('',(2.22044604925E-16,1.303703516192E-16,-1.));
#713 = DIRECTION('',(2.894803321923E-32,-1.,-1.303703516192E-16));
#714 = ADVANCED_FACE('',(#715),#733,.T.);
#715 = FACE_BOUND('',#716,.T.);
#716 = EDGE_LOOP('',(#717,#718,#726,#732));
#717 = ORIENTED_EDGE('',*,*,#178,.T.);
#718 = ORIENTED_EDGE('',*,*,#719,.T.);
#719 = EDGE_CURVE('',#179,#720,#722,.T.);
#720 = VERTEX_POINT('',#721);
#721 = CARTESIAN_POINT('',(116.99,25.703183294109,481.05));
#722 = LINE('',#723,#724);
#723 = CARTESIAN_POINT('',(113.99,25.703183294109,481.05));
#724 = VECTOR('',#725,1.);
#725 = DIRECTION('',(1.,0.,2.22044604925E-16));
#726 = ORIENTED_EDGE('',*,*,#727,.T.);
#727 = EDGE_CURVE('',#720,#665,#728,.T.);
#728 = LINE('',#729,#730);
#729 = CARTESIAN_POINT('',(116.99,25.703183294109,481.05));
#730 = VECTOR('',#731,1.);
#731 = DIRECTION('',(-1.922962686384E-16,0.5,0.866025403784));
#732 = ORIENTED_EDGE('',*,*,#664,.F.);
#733 = PLANE('',#734);
#734 = AXIS2_PLACEMENT_3D('',#735,#736,#737);
#735 = CARTESIAN_POINT('',(113.99,25.703183294109,481.05));
#736 = DIRECTION('',(-1.110223024625E-16,-0.866025403784,0.5));
#737 = DIRECTION('',(-1.922962686384E-16,0.5,0.866025403784));
#738 = ADVANCED_FACE('',(#739),#757,.T.);
#739 = FACE_BOUND('',#740,.T.);
#740 = EDGE_LOOP('',(#741,#742,#743,#751));
#741 = ORIENTED_EDGE('',*,*,#202,.T.);
#742 = ORIENTED_EDGE('',*,*,#704,.T.);
#743 = ORIENTED_EDGE('',*,*,#744,.T.);
#744 = EDGE_CURVE('',#697,#745,#747,.T.);
#745 = VERTEX_POINT('',#746);
#746 = CARTESIAN_POINT('',(116.99,20.593633411781,484.));
#747 = LINE('',#748,#749);
#748 = CARTESIAN_POINT('',(116.99,22.296816705891,486.95));
#749 = VECTOR('',#750,1.);
#750 = DIRECTION('',(1.922962686384E-16,-0.5,-0.866025403784));
#751 = ORIENTED_EDGE('',*,*,#752,.F.);
#752 = EDGE_CURVE('',#195,#745,#753,.T.);
#753 = LINE('',#754,#755);
#754 = CARTESIAN_POINT('',(113.99,20.593633411781,484.));
#755 = VECTOR('',#756,1.);
#756 = DIRECTION('',(1.,0.,2.22044604925E-16));
#757 = PLANE('',#758);
#758 = AXIS2_PLACEMENT_3D('',#759,#760,#761);
#759 = CARTESIAN_POINT('',(113.99,22.296816705891,486.95));
#760 = DIRECTION('',(1.110223024625E-16,0.866025403784,-0.5));
#761 = DIRECTION('',(1.922962686384E-16,-0.5,-0.866025403784));
#762 = ADVANCED_FACE('',(#763),#781,.T.);
#763 = FACE_BOUND('',#764,.T.);
#764 = EDGE_LOOP('',(#765,#766,#774,#780));
#765 = ORIENTED_EDGE('',*,*,#186,.T.);
#766 = ORIENTED_EDGE('',*,*,#767,.T.);
#767 = EDGE_CURVE('',#187,#768,#770,.T.);
#768 = VERTEX_POINT('',#769);
#769 = CARTESIAN_POINT('',(116.99,22.296816705891,481.05));
#770 = LINE('',#771,#772);
#771 = CARTESIAN_POINT('',(113.99,22.296816705891,481.05));
#772 = VECTOR('',#773,1.);
#773 = DIRECTION('',(1.,0.,2.22044604925E-16));
#774 = ORIENTED_EDGE('',*,*,#775,.T.);
#775 = EDGE_CURVE('',#768,#720,#776,.T.);
#776 = LINE('',#777,#778);
#777 = CARTESIAN_POINT('',(116.99,22.296816705891,481.05));
#778 = VECTOR('',#779,1.);
#779 = DIRECTION('',(5.789606643846E-32,1.,-2.607407032384E-16));
#780 = ORIENTED_EDGE('',*,*,#719,.F.);
#781 = PLANE('',#782);
#782 = AXIS2_PLACEMENT_3D('',#783,#784,#785);
#783 = CARTESIAN_POINT('',(113.99,22.296816705891,481.05));
#784 = DIRECTION('',(-2.22044604925E-16,2.607407032384E-16,1.));
#785 = DIRECTION('',(5.789606643846E-32,1.,-2.607407032384E-16));
#786 = ADVANCED_FACE('',(#787),#798,.T.);
#787 = FACE_BOUND('',#788,.T.);
#788 = EDGE_LOOP('',(#789,#790,#791,#797));
#789 = ORIENTED_EDGE('',*,*,#194,.T.);
#790 = ORIENTED_EDGE('',*,*,#752,.T.);
#791 = ORIENTED_EDGE('',*,*,#792,.T.);
#792 = EDGE_CURVE('',#745,#768,#793,.T.);
#793 = LINE('',#794,#795);
#794 = CARTESIAN_POINT('',(116.99,20.593633411781,484.));
#795 = VECTOR('',#796,1.);
#796 = DIRECTION('',(1.922962686384E-16,0.5,-0.866025403784));
#797 = ORIENTED_EDGE('',*,*,#767,.F.);
#798 = PLANE('',#799);
#799 = AXIS2_PLACEMENT_3D('',#800,#801,#802);
#800 = CARTESIAN_POINT('',(113.99,20.593633411781,484.));
#801 = DIRECTION('',(-1.110223024625E-16,0.866025403784,0.5));
#802 = DIRECTION('',(1.922962686384E-16,0.5,-0.866025403784));
#803 = ADVANCED_FACE('',(#804),#829,.T.);
#804 = FACE_BOUND('',#805,.T.);
#805 = EDGE_LOOP('',(#806,#807,#815,#823));
#806 = ORIENTED_EDGE('',*,*,#218,.T.);
#807 = ORIENTED_EDGE('',*,*,#808,.T.);
#808 = EDGE_CURVE('',#221,#809,#811,.T.);
#809 = VERTEX_POINT('',#810);
#810 = CARTESIAN_POINT('',(116.99,-20.59363341178,436.));
#811 = LINE('',#812,#813);
#812 = CARTESIAN_POINT('',(113.99,-20.59363341178,436.));
#813 = VECTOR('',#814,1.);
#814 = DIRECTION('',(1.,0.,2.22044604925E-16));
#815 = ORIENTED_EDGE('',*,*,#816,.T.);
#816 = EDGE_CURVE('',#809,#817,#819,.T.);
#817 = VERTEX_POINT('',#818);
#818 = CARTESIAN_POINT('',(116.99,-22.29681670589,438.95));
#819 = LINE('',#820,#821);
#820 = CARTESIAN_POINT('',(116.99,-20.59363341178,436.));
#821 = VECTOR('',#822,1.);
#822 = DIRECTION('',(-1.922962686384E-16,-0.5,0.866025403784));
#823 = ORIENTED_EDGE('',*,*,#824,.F.);
#824 = EDGE_CURVE('',#219,#817,#825,.T.);
#825 = LINE('',#826,#827);
#826 = CARTESIAN_POINT('',(113.99,-22.29681670589,438.95));
#827 = VECTOR('',#828,1.);
#828 = DIRECTION('',(1.,0.,2.22044604925E-16));
#829 = PLANE('',#830);
#830 = AXIS2_PLACEMENT_3D('',#831,#832,#833);
#831 = CARTESIAN_POINT('',(113.99,-20.59363341178,436.));
#832 = DIRECTION('',(1.110223024625E-16,-0.866025403784,-0.5));
#833 = DIRECTION('',(-1.922962686384E-16,-0.5,0.866025403784));
#834 = ADVANCED_FACE('',(#835),#853,.T.);
#835 = FACE_BOUND('',#836,.T.);
#836 = EDGE_LOOP('',(#837,#838,#839,#847));
#837 = ORIENTED_EDGE('',*,*,#260,.T.);
#838 = ORIENTED_EDGE('',*,*,#824,.T.);
#839 = ORIENTED_EDGE('',*,*,#840,.T.);
#840 = EDGE_CURVE('',#817,#841,#843,.T.);
#841 = VERTEX_POINT('',#842);
#842 = CARTESIAN_POINT('',(116.99,-25.7031832941,438.95));
#843 = LINE('',#844,#845);
#844 = CARTESIAN_POINT('',(116.99,-22.29681670589,438.95));
#845 = VECTOR('',#846,1.);
#846 = DIRECTION('',(2.894803321923E-32,-1.,-1.303703516192E-16));
#847 = ORIENTED_EDGE('',*,*,#848,.F.);
#848 = EDGE_CURVE('',#253,#841,#849,.T.);
#849 = LINE('',#850,#851);
#850 = CARTESIAN_POINT('',(113.99,-25.7031832941,438.95));
#851 = VECTOR('',#852,1.);
#852 = DIRECTION('',(1.,0.,2.22044604925E-16));
#853 = PLANE('',#854);
#854 = AXIS2_PLACEMENT_3D('',#855,#856,#857);
#855 = CARTESIAN_POINT('',(113.99,-22.29681670589,438.95));
#856 = DIRECTION('',(2.22044604925E-16,1.303703516192E-16,-1.));
#857 = DIRECTION('',(2.894803321923E-32,-1.,-1.303703516192E-16));
#858 = ADVANCED_FACE('',(#859),#877,.T.);
#859 = FACE_BOUND('',#860,.T.);
#860 = EDGE_LOOP('',(#861,#862,#870,#876));
#861 = ORIENTED_EDGE('',*,*,#228,.T.);
#862 = ORIENTED_EDGE('',*,*,#863,.T.);
#863 = EDGE_CURVE('',#229,#864,#866,.T.);
#864 = VERTEX_POINT('',#865);
#865 = CARTESIAN_POINT('',(116.99,-22.29681670589,433.05));
#866 = LINE('',#867,#868);
#867 = CARTESIAN_POINT('',(113.99,-22.29681670589,433.05));
#868 = VECTOR('',#869,1.);
#869 = DIRECTION('',(1.,0.,2.22044604925E-16));
#870 = ORIENTED_EDGE('',*,*,#871,.T.);
#871 = EDGE_CURVE('',#864,#809,#872,.T.);
#872 = LINE('',#873,#874);
#873 = CARTESIAN_POINT('',(116.99,-22.29681670589,433.05));
#874 = VECTOR('',#875,1.);
#875 = DIRECTION('',(-1.922962686384E-16,0.5,0.866025403784));
#876 = ORIENTED_EDGE('',*,*,#808,.F.);
#877 = PLANE('',#878);
#878 = AXIS2_PLACEMENT_3D('',#879,#880,#881);
#879 = CARTESIAN_POINT('',(113.99,-22.29681670589,433.05));
#880 = DIRECTION('',(-1.110223024625E-16,-0.866025403784,0.5));
#881 = DIRECTION('',(-1.922962686384E-16,0.5,0.866025403784));
#882 = ADVANCED_FACE('',(#883),#901,.T.);
#883 = FACE_BOUND('',#884,.T.);
#884 = EDGE_LOOP('',(#885,#886,#887,#895));
#885 = ORIENTED_EDGE('',*,*,#252,.T.);
#886 = ORIENTED_EDGE('',*,*,#848,.T.);
#887 = ORIENTED_EDGE('',*,*,#888,.T.);
#888 = EDGE_CURVE('',#841,#889,#891,.T.);
#889 = VERTEX_POINT('',#890);
#890 = CARTESIAN_POINT('',(116.99,-27.40636658821,436.));
#891 = LINE('',#892,#893);
#892 = CARTESIAN_POINT('',(116.99,-25.7031832941,438.95));
#893 = VECTOR('',#894,1.);
#894 = DIRECTION('',(1.922962686384E-16,-0.5,-0.866025403784));
#895 = ORIENTED_EDGE('',*,*,#896,.F.);
#896 = EDGE_CURVE('',#245,#889,#897,.T.);
#897 = LINE('',#898,#899);
#898 = CARTESIAN_POINT('',(113.99,-27.40636658821,436.));
#899 = VECTOR('',#900,1.);
#900 = DIRECTION('',(1.,0.,2.22044604925E-16));
#901 = PLANE('',#902);
#902 = AXIS2_PLACEMENT_3D('',#903,#904,#905);
#903 = CARTESIAN_POINT('',(113.99,-25.7031832941,438.95));
#904 = DIRECTION('',(1.110223024625E-16,0.866025403784,-0.5));
#905 = DIRECTION('',(1.922962686384E-16,-0.5,-0.866025403784));
#906 = ADVANCED_FACE('',(#907),#925,.T.);
#907 = FACE_BOUND('',#908,.T.);
#908 = EDGE_LOOP('',(#909,#910,#918,#924));
#909 = ORIENTED_EDGE('',*,*,#236,.T.);
#910 = ORIENTED_EDGE('',*,*,#911,.T.);
#911 = EDGE_CURVE('',#237,#912,#914,.T.);
#912 = VERTEX_POINT('',#913);
#913 = CARTESIAN_POINT('',(116.99,-25.7031832941,433.05));
#914 = LINE('',#915,#916);
#915 = CARTESIAN_POINT('',(113.99,-25.7031832941,433.05));
#916 = VECTOR('',#917,1.);
#917 = DIRECTION('',(1.,0.,2.22044604925E-16));
#918 = ORIENTED_EDGE('',*,*,#919,.T.);
#919 = EDGE_CURVE('',#912,#864,#920,.T.);
#920 = LINE('',#921,#922);
#921 = CARTESIAN_POINT('',(116.99,-25.7031832941,433.05));
#922 = VECTOR('',#923,1.);
#923 = DIRECTION('',(5.789606643846E-32,1.,-2.607407032384E-16));
#924 = ORIENTED_EDGE('',*,*,#863,.F.);
#925 = PLANE('',#926);
#926 = AXIS2_PLACEMENT_3D('',#927,#928,#929);
#927 = CARTESIAN_POINT('',(113.99,-25.7031832941,433.05));
#928 = DIRECTION('',(-2.22044604925E-16,2.607407032384E-16,1.));
#929 = DIRECTION('',(5.789606643846E-32,1.,-2.607407032384E-16));
#930 = ADVANCED_FACE('',(#931),#942,.T.);
#931 = FACE_BOUND('',#932,.T.);
#932 = EDGE_LOOP('',(#933,#934,#935,#941));
#933 = ORIENTED_EDGE('',*,*,#244,.T.);
#934 = ORIENTED_EDGE('',*,*,#896,.T.);
#935 = ORIENTED_EDGE('',*,*,#936,.T.);
#936 = EDGE_CURVE('',#889,#912,#937,.T.);
#937 = LINE('',#938,#939);
#938 = CARTESIAN_POINT('',(116.99,-27.40636658821,436.));
#939 = VECTOR('',#940,1.);
#940 = DIRECTION('',(1.922962686384E-16,0.5,-0.866025403784));
#941 = ORIENTED_EDGE('',*,*,#911,.F.);
#942 = PLANE('',#943);
#943 = AXIS2_PLACEMENT_3D('',#944,#945,#946);
#944 = CARTESIAN_POINT('',(113.99,-27.40636658821,436.));
#945 = DIRECTION('',(-1.110223024625E-16,0.866025403784,0.5));
#946 = DIRECTION('',(1.922962686384E-16,0.5,-0.866025403784));
#947 = ADVANCED_FACE('',(#948),#973,.T.);
#948 = FACE_BOUND('',#949,.T.);
#949 = EDGE_LOOP('',(#950,#951,#959,#967));
#950 = ORIENTED_EDGE('',*,*,#279,.T.);
#951 = ORIENTED_EDGE('',*,*,#952,.T.);
#952 = EDGE_CURVE('',#282,#953,#955,.T.);
#953 = VERTEX_POINT('',#954);
#954 = CARTESIAN_POINT('',(116.99,-20.59363341178,484.));
#955 = LINE('',#956,#957);
#956 = CARTESIAN_POINT('',(113.99,-20.59363341178,484.));
#957 = VECTOR('',#958,1.);
#958 = DIRECTION('',(1.,0.,2.22044604925E-16));
#959 = ORIENTED_EDGE('',*,*,#960,.T.);
#960 = EDGE_CURVE('',#953,#961,#963,.T.);
#961 = VERTEX_POINT('',#962);
#962 = CARTESIAN_POINT('',(116.99,-22.29681670589,486.95));
#963 = LINE('',#964,#965);
#964 = CARTESIAN_POINT('',(116.99,-20.59363341178,484.));
#965 = VECTOR('',#966,1.);
#966 = DIRECTION('',(-1.922962686384E-16,-0.5,0.866025403784));
#967 = ORIENTED_EDGE('',*,*,#968,.F.);
#968 = EDGE_CURVE('',#280,#961,#969,.T.);
#969 = LINE('',#970,#971);
#970 = CARTESIAN_POINT('',(113.99,-22.29681670589,486.95));
#971 = VECTOR('',#972,1.);
#972 = DIRECTION('',(1.,0.,2.22044604925E-16));
#973 = PLANE('',#974);
#974 = AXIS2_PLACEMENT_3D('',#975,#976,#977);
#975 = CARTESIAN_POINT('',(113.99,-20.59363341178,484.));
#976 = DIRECTION('',(1.110223024625E-16,-0.866025403784,-0.5));
#977 = DIRECTION('',(-1.922962686384E-16,-0.5,0.866025403784));
#978 = ADVANCED_FACE('',(#979),#997,.T.);
#979 = FACE_BOUND('',#980,.T.);
#980 = EDGE_LOOP('',(#981,#982,#983,#991));
#981 = ORIENTED_EDGE('',*,*,#321,.T.);
#982 = ORIENTED_EDGE('',*,*,#968,.T.);
#983 = ORIENTED_EDGE('',*,*,#984,.T.);
#984 = EDGE_CURVE('',#961,#985,#987,.T.);
#985 = VERTEX_POINT('',#986);
#986 = CARTESIAN_POINT('',(116.99,-25.7031832941,486.95));
#987 = LINE('',#988,#989);
#988 = CARTESIAN_POINT('',(116.99,-22.29681670589,486.95));
#989 = VECTOR('',#990,1.);
#990 = DIRECTION('',(2.894803321923E-32,-1.,-1.303703516192E-16));
#991 = ORIENTED_EDGE('',*,*,#992,.F.);
#992 = EDGE_CURVE('',#314,#985,#993,.T.);
#993 = LINE('',#994,#995);
#994 = CARTESIAN_POINT('',(113.99,-25.7031832941,486.95));
#995 = VECTOR('',#996,1.);
#996 = DIRECTION('',(1.,0.,2.22044604925E-16));
#997 = PLANE('',#998);
#998 = AXIS2_PLACEMENT_3D('',#999,#1000,#1001);
#999 = CARTESIAN_POINT('',(113.99,-22.29681670589,486.95));
#1000 = DIRECTION('',(2.22044604925E-16,1.303703516192E-16,-1.));
#1001 = DIRECTION('',(2.894803321923E-32,-1.,-1.303703516192E-16));
#1002 = ADVANCED_FACE('',(#1003),#1021,.T.);
#1003 = FACE_BOUND('',#1004,.T.);
#1004 = EDGE_LOOP('',(#1005,#1006,#1014,#1020));
#1005 = ORIENTED_EDGE('',*,*,#289,.T.);
#1006 = ORIENTED_EDGE('',*,*,#1007,.T.);
#1007 = EDGE_CURVE('',#290,#1008,#1010,.T.);
#1008 = VERTEX_POINT('',#1009);
#1009 = CARTESIAN_POINT('',(116.99,-22.29681670589,481.05));
#1010 = LINE('',#1011,#1012);
#1011 = CARTESIAN_POINT('',(113.99,-22.29681670589,481.05));
#1012 = VECTOR('',#1013,1.);
#1013 = DIRECTION('',(1.,0.,2.22044604925E-16));
#1014 = ORIENTED_EDGE('',*,*,#1015,.T.);
#1015 = EDGE_CURVE('',#1008,#953,#1016,.T.);
#1016 = LINE('',#1017,#1018);
#1017 = CARTESIAN_POINT('',(116.99,-22.29681670589,481.05));
#1018 = VECTOR('',#1019,1.);
#1019 = DIRECTION('',(-1.922962686384E-16,0.5,0.866025403784));
#1020 = ORIENTED_EDGE('',*,*,#952,.F.);
#1021 = PLANE('',#1022);
#1022 = AXIS2_PLACEMENT_3D('',#1023,#1024,#1025);
#1023 = CARTESIAN_POINT('',(113.99,-22.29681670589,481.05));
#1024 = DIRECTION('',(-1.110223024625E-16,-0.866025403784,0.5));
#1025 = DIRECTION('',(-1.922962686384E-16,0.5,0.866025403784));
#1026 = ADVANCED_FACE('',(#1027),#1045,.T.);
#1027 = FACE_BOUND('',#1028,.T.);
#1028 = EDGE_LOOP('',(#1029,#1030,#1031,#1039));
#1029 = ORIENTED_EDGE('',*,*,#313,.T.);
#1030 = ORIENTED_EDGE('',*,*,#992,.T.);
#1031 = ORIENTED_EDGE('',*,*,#1032,.T.);
#1032 = EDGE_CURVE('',#985,#1033,#1035,.T.);
#1033 = VERTEX_POINT('',#1034);
#1034 = CARTESIAN_POINT('',(116.99,-27.40636658821,484.));
#1035 = LINE('',#1036,#1037);
#1036 = CARTESIAN_POINT('',(116.99,-25.7031832941,486.95));
#1037 = VECTOR('',#1038,1.);
#1038 = DIRECTION('',(1.922962686384E-16,-0.5,-0.866025403784));
#1039 = ORIENTED_EDGE('',*,*,#1040,.F.);
#1040 = EDGE_CURVE('',#306,#1033,#1041,.T.);
#1041 = LINE('',#1042,#1043);
#1042 = CARTESIAN_POINT('',(113.99,-27.40636658821,484.));
#1043 = VECTOR('',#1044,1.);
#1044 = DIRECTION('',(1.,0.,2.22044604925E-16));
#1045 = PLANE('',#1046);
#1046 = AXIS2_PLACEMENT_3D('',#1047,#1048,#1049);
#1047 = CARTESIAN_POINT('',(113.99,-25.7031832941,486.95));
#1048 = DIRECTION('',(1.110223024625E-16,0.866025403784,-0.5));
#1049 = DIRECTION('',(1.922962686384E-16,-0.5,-0.866025403784));
#1050 = ADVANCED_FACE('',(#1051),#1069,.T.);
#1051 = FACE_BOUND('',#1052,.T.);
#1052 = EDGE_LOOP('',(#1053,#1054,#1062,#1068));
#1053 = ORIENTED_EDGE('',*,*,#297,.T.);
#1054 = ORIENTED_EDGE('',*,*,#1055,.T.);
#1055 = EDGE_CURVE('',#298,#1056,#1058,.T.);
#1056 = VERTEX_POINT('',#1057);
#1057 = CARTESIAN_POINT('',(116.99,-25.7031832941,481.05));
#1058 = LINE('',#1059,#1060);
#1059 = CARTESIAN_POINT('',(113.99,-25.7031832941,481.05));
#1060 = VECTOR('',#1061,1.);
#1061 = DIRECTION('',(1.,0.,2.22044604925E-16));
#1062 = ORIENTED_EDGE('',*,*,#1063,.T.);
#1063 = EDGE_CURVE('',#1056,#1008,#1064,.T.);
#1064 = LINE('',#1065,#1066);
#1065 = CARTESIAN_POINT('',(116.99,-25.7031832941,481.05));
#1066 = VECTOR('',#1067,1.);
#1067 = DIRECTION('',(5.789606643846E-32,1.,-2.607407032384E-16));
#1068 = ORIENTED_EDGE('',*,*,#1007,.F.);
#1069 = PLANE('',#1070);
#1070 = AXIS2_PLACEMENT_3D('',#1071,#1072,#1073);
#1071 = CARTESIAN_POINT('',(113.99,-25.7031832941,481.05));
#1072 = DIRECTION('',(-2.22044604925E-16,2.607407032384E-16,1.));
#1073 = DIRECTION('',(5.789606643846E-32,1.,-2.607407032384E-16));
#1074 = ADVANCED_FACE('',(#1075),#1086,.T.);
#1075 = FACE_BOUND('',#1076,.T.);
#1076 = EDGE_LOOP('',(#1077,#1078,#1079,#1085));
#1077 = ORIENTED_EDGE('',*,*,#305,.T.);
#1078 = ORIENTED_EDGE('',*,*,#1040,.T.);
#1079 = ORIENTED_EDGE('',*,*,#1080,.T.);
#1080 = EDGE_CURVE('',#1033,#1056,#1081,.T.);
#1081 = LINE('',#1082,#1083);
#1082 = CARTESIAN_POINT('',(116.99,-27.40636658821,484.));
#1083 = VECTOR('',#1084,1.);
#1084 = DIRECTION('',(1.922962686384E-16,0.5,-0.866025403784));
#1085 = ORIENTED_EDGE('',*,*,#1055,.F.);
#1086 = PLANE('',#1087);
#1087 = AXIS2_PLACEMENT_3D('',#1088,#1089,#1090);
#1088 = CARTESIAN_POINT('',(113.99,-27.40636658821,484.));
#1089 = DIRECTION('',(-1.110223024625E-16,0.866025403784,0.5));
#1090 = DIRECTION('',(1.922962686384E-16,0.5,-0.866025403784));
#1091 = ADVANCED_FACE('',(#1092),#1108,.T.);
#1092 = FACE_BOUND('',#1093,.T.);
#1093 = EDGE_LOOP('',(#1094,#1100,#1101,#1107));
#1094 = ORIENTED_EDGE('',*,*,#1095,.F.);
#1095 = EDGE_CURVE('',#377,#495,#1096,.T.);
#1096 = LINE('',#1097,#1098);
#1097 = CARTESIAN_POINT('',(90.,-43.,420.));
#1098 = VECTOR('',#1099,1.);
#1099 = DIRECTION('',(0.,1.,0.));
#1100 = ORIENTED_EDGE('',*,*,#376,.T.);
#1101 = ORIENTED_EDGE('',*,*,#1102,.T.);
#1102 = EDGE_CURVE('',#367,#487,#1103,.T.);
#1103 = LINE('',#1104,#1105);
#1104 = CARTESIAN_POINT('',(118.,-43.,420.));
#1105 = VECTOR('',#1106,1.);
#1106 = DIRECTION('',(0.,1.,0.));
#1107 = ORIENTED_EDGE('',*,*,#494,.F.);
#1108 = PLANE('',#1109);
#1109 = AXIS2_PLACEMENT_3D('',#1110,#1111,#1112);
#1110 = CARTESIAN_POINT('',(90.,-43.,420.));
#1111 = DIRECTION('',(0.,0.,1.));
#1112 = DIRECTION('',(1.,0.,0.));
#1113 = ADVANCED_FACE('',(#1114,#1122),#1133,.F.);
#1114 = FACE_BOUND('',#1115,.F.);
#1115 = EDGE_LOOP('',(#1116,#1117,#1118,#1119,#1120,#1121));
#1116 = ORIENTED_EDGE('',*,*,#583,.T.);
#1117 = ORIENTED_EDGE('',*,*,#528,.T.);
#1118 = ORIENTED_EDGE('',*,*,#552,.T.);
#1119 = ORIENTED_EDGE('',*,*,#600,.T.);
#1120 = ORIENTED_EDGE('',*,*,#648,.T.);
#1121 = ORIENTED_EDGE('',*,*,#631,.T.);
#1122 = FACE_BOUND('',#1123,.F.);
#1123 = EDGE_LOOP('',(#1124));
#1124 = ORIENTED_EDGE('',*,*,#1125,.T.);
#1125 = EDGE_CURVE('',#1126,#1126,#1128,.T.);
#1126 = VERTEX_POINT('',#1127);
#1127 = CARTESIAN_POINT('',(116.99,24.,434.3));
#1128 = CIRCLE('',#1129,1.7);
#1129 = AXIS2_PLACEMENT_3D('',#1130,#1131,#1132);
#1130 = CARTESIAN_POINT('',(116.99,24.,436.));
#1131 = DIRECTION('',(-1.,0.,0.));
#1132 = DIRECTION('',(0.,0.,-1.));
#1133 = PLANE('',#1134);
#1134 = AXIS2_PLACEMENT_3D('',#1135,#1136,#1137);
#1135 = CARTESIAN_POINT('',(116.99,24.,436.));
#1136 = DIRECTION('',(1.,0.,2.22044604925E-16));
#1137 = DIRECTION('',(2.22044604925E-16,0.,-1.));
#1138 = ADVANCED_FACE('',(#1139),#1158,.F.);
#1139 = FACE_BOUND('',#1140,.F.);
#1140 = EDGE_LOOP('',(#1141,#1142,#1150,#1157));
#1141 = ORIENTED_EDGE('',*,*,#1125,.F.);
#1142 = ORIENTED_EDGE('',*,*,#1143,.F.);
#1143 = EDGE_CURVE('',#1144,#1126,#1146,.T.);
#1144 = VERTEX_POINT('',#1145);
#1145 = CARTESIAN_POINT('',(118.,24.,434.3));
#1146 = LINE('',#1147,#1148);
#1147 = CARTESIAN_POINT('',(119.01,24.,434.3));
#1148 = VECTOR('',#1149,1.);
#1149 = DIRECTION('',(-1.,0.,0.));
#1150 = ORIENTED_EDGE('',*,*,#1151,.T.);
#1151 = EDGE_CURVE('',#1144,#1144,#1152,.T.);
#1152 = CIRCLE('',#1153,1.7);
#1153 = AXIS2_PLACEMENT_3D('',#1154,#1155,#1156);
#1154 = CARTESIAN_POINT('',(118.,24.,436.));
#1155 = DIRECTION('',(-1.,0.,0.));
#1156 = DIRECTION('',(0.,0.,-1.));
#1157 = ORIENTED_EDGE('',*,*,#1143,.T.);
#1158 = CYLINDRICAL_SURFACE('',#1159,1.7);
#1159 = AXIS2_PLACEMENT_3D('',#1160,#1161,#1162);
#1160 = CARTESIAN_POINT('',(119.01,24.,436.));
#1161 = DIRECTION('',(-1.,0.,0.));
#1162 = DIRECTION('',(0.,0.,-1.));
#1163 = ADVANCED_FACE('',(#1164,#1172),#1183,.F.);
#1164 = FACE_BOUND('',#1165,.F.);
#1165 = EDGE_LOOP('',(#1166,#1167,#1168,#1169,#1170,#1171));
#1166 = ORIENTED_EDGE('',*,*,#727,.T.);
#1167 = ORIENTED_EDGE('',*,*,#672,.T.);
#1168 = ORIENTED_EDGE('',*,*,#696,.T.);
#1169 = ORIENTED_EDGE('',*,*,#744,.T.);
#1170 = ORIENTED_EDGE('',*,*,#792,.T.);
#1171 = ORIENTED_EDGE('',*,*,#775,.T.);
#1172 = FACE_BOUND('',#1173,.F.);
#1173 = EDGE_LOOP('',(#1174));
#1174 = ORIENTED_EDGE('',*,*,#1175,.T.);
#1175 = EDGE_CURVE('',#1176,#1176,#1178,.T.);
#1176 = VERTEX_POINT('',#1177);
#1177 = CARTESIAN_POINT('',(116.99,24.,482.3));
#1178 = CIRCLE('',#1179,1.7);
#1179 = AXIS2_PLACEMENT_3D('',#1180,#1181,#1182);
#1180 = CARTESIAN_POINT('',(116.99,24.,484.));
#1181 = DIRECTION('',(-1.,0.,0.));
#1182 = DIRECTION('',(0.,0.,-1.));
#1183 = PLANE('',#1184);
#1184 = AXIS2_PLACEMENT_3D('',#1185,#1186,#1187);
#1185 = CARTESIAN_POINT('',(116.99,24.,484.));
#1186 = DIRECTION('',(1.,0.,2.22044604925E-16));
#1187 = DIRECTION('',(2.22044604925E-16,0.,-1.));
#1188 = ADVANCED_FACE('',(#1189),#1208,.F.);
#1189 = FACE_BOUND('',#1190,.F.);
#1190 = EDGE_LOOP('',(#1191,#1192,#1200,#1207));
#1191 = ORIENTED_EDGE('',*,*,#1175,.F.);
#1192 = ORIENTED_EDGE('',*,*,#1193,.F.);
#1193 = EDGE_CURVE('',#1194,#1176,#1196,.T.);
#1194 = VERTEX_POINT('',#1195);
#1195 = CARTESIAN_POINT('',(118.,24.,482.3));
#1196 = LINE('',#1197,#1198);
#1197 = CARTESIAN_POINT('',(119.01,24.,482.3));
#1198 = VECTOR('',#1199,1.);
#1199 = DIRECTION('',(-1.,0.,0.));
#1200 = ORIENTED_EDGE('',*,*,#1201,.T.);
#1201 = EDGE_CURVE('',#1194,#1194,#1202,.T.);
#1202 = CIRCLE('',#1203,1.7);
#1203 = AXIS2_PLACEMENT_3D('',#1204,#1205,#1206);
#1204 = CARTESIAN_POINT('',(118.,24.,484.));
#1205 = DIRECTION('',(-1.,0.,0.));
#1206 = DIRECTION('',(0.,0.,-1.));
#1207 = ORIENTED_EDGE('',*,*,#1193,.T.);
#1208 = CYLINDRICAL_SURFACE('',#1209,1.7);
#1209 = AXIS2_PLACEMENT_3D('',#1210,#1211,#1212);
#1210 = CARTESIAN_POINT('',(119.01,24.,484.));
#1211 = DIRECTION('',(-1.,0.,0.));
#1212 = DIRECTION('',(0.,0.,-1.));
#1213 = ADVANCED_FACE('',(#1214,#1222),#1233,.F.);
#1214 = FACE_BOUND('',#1215,.F.);
#1215 = EDGE_LOOP('',(#1216,#1217,#1218,#1219,#1220,#1221));
#1216 = ORIENTED_EDGE('',*,*,#871,.T.);
#1217 = ORIENTED_EDGE('',*,*,#816,.T.);
#1218 = ORIENTED_EDGE('',*,*,#840,.T.);
#1219 = ORIENTED_EDGE('',*,*,#888,.T.);
#1220 = ORIENTED_EDGE('',*,*,#936,.T.);
#1221 = ORIENTED_EDGE('',*,*,#919,.T.);
#1222 = FACE_BOUND('',#1223,.F.);
#1223 = EDGE_LOOP('',(#1224));
#1224 = ORIENTED_EDGE('',*,*,#1225,.T.);
#1225 = EDGE_CURVE('',#1226,#1226,#1228,.T.);
#1226 = VERTEX_POINT('',#1227);
#1227 = CARTESIAN_POINT('',(116.99,-24.,434.3));
#1228 = CIRCLE('',#1229,1.7);
#1229 = AXIS2_PLACEMENT_3D('',#1230,#1231,#1232);
#1230 = CARTESIAN_POINT('',(116.99,-24.,436.));
#1231 = DIRECTION('',(-1.,0.,0.));
#1232 = DIRECTION('',(0.,0.,-1.));
#1233 = PLANE('',#1234);
#1234 = AXIS2_PLACEMENT_3D('',#1235,#1236,#1237);
#1235 = CARTESIAN_POINT('',(116.99,-24.,436.));
#1236 = DIRECTION('',(1.,0.,2.22044604925E-16));
#1237 = DIRECTION('',(2.22044604925E-16,0.,-1.));
#1238 = ADVANCED_FACE('',(#1239),#1258,.F.);
#1239 = FACE_BOUND('',#1240,.F.);
#1240 = EDGE_LOOP('',(#1241,#1242,#1250,#1257));
#1241 = ORIENTED_EDGE('',*,*,#1225,.F.);
#1242 = ORIENTED_EDGE('',*,*,#1243,.F.);
#1243 = EDGE_CURVE('',#1244,#1226,#1246,.T.);
#1244 = VERTEX_POINT('',#1245);
#1245 = CARTESIAN_POINT('',(118.,-24.,434.3));
#1246 = LINE('',#1247,#1248);
#1247 = CARTESIAN_POINT('',(119.01,-24.,434.3));
#1248 = VECTOR('',#1249,1.);
#1249 = DIRECTION('',(-1.,0.,0.));
#1250 = ORIENTED_EDGE('',*,*,#1251,.T.);
#1251 = EDGE_CURVE('',#1244,#1244,#1252,.T.);
#1252 = CIRCLE('',#1253,1.7);
#1253 = AXIS2_PLACEMENT_3D('',#1254,#1255,#1256);
#1254 = CARTESIAN_POINT('',(118.,-24.,436.));
#1255 = DIRECTION('',(-1.,0.,0.));
#1256 = DIRECTION('',(0.,0.,-1.));
#1257 = ORIENTED_EDGE('',*,*,#1243,.T.);
#1258 = CYLINDRICAL_SURFACE('',#1259,1.7);
#1259 = AXIS2_PLACEMENT_3D('',#1260,#1261,#1262);
#1260 = CARTESIAN_POINT('',(119.01,-24.,436.));
#1261 = DIRECTION('',(-1.,0.,0.));
#1262 = DIRECTION('',(0.,0.,-1.));
#1263 = ADVANCED_FACE('',(#1264,#1272),#1283,.F.);
#1264 = FACE_BOUND('',#1265,.F.);
#1265 = EDGE_LOOP('',(#1266,#1267,#1268,#1269,#1270,#1271));
#1266 = ORIENTED_EDGE('',*,*,#1015,.T.);
#1267 = ORIENTED_EDGE('',*,*,#960,.T.);
#1268 = ORIENTED_EDGE('',*,*,#984,.T.);
#1269 = ORIENTED_EDGE('',*,*,#1032,.T.);
#1270 = ORIENTED_EDGE('',*,*,#1080,.T.);
#1271 = ORIENTED_EDGE('',*,*,#1063,.T.);
#1272 = FACE_BOUND('',#1273,.F.);
#1273 = EDGE_LOOP('',(#1274));
#1274 = ORIENTED_EDGE('',*,*,#1275,.T.);
#1275 = EDGE_CURVE('',#1276,#1276,#1278,.T.);
#1276 = VERTEX_POINT('',#1277);
#1277 = CARTESIAN_POINT('',(116.99,-24.,482.3));
#1278 = CIRCLE('',#1279,1.7);
#1279 = AXIS2_PLACEMENT_3D('',#1280,#1281,#1282);
#1280 = CARTESIAN_POINT('',(116.99,-24.,484.));
#1281 = DIRECTION('',(-1.,0.,0.));
#1282 = DIRECTION('',(0.,0.,-1.));
#1283 = PLANE('',#1284);
#1284 = AXIS2_PLACEMENT_3D('',#1285,#1286,#1287);
#1285 = CARTESIAN_POINT('',(116.99,-24.,484.));
#1286 = DIRECTION('',(1.,0.,2.22044604925E-16));
#1287 = DIRECTION('',(2.22044604925E-16,0.,-1.));
#1288 = ADVANCED_FACE('',(#1289),#1308,.F.);
#1289 = FACE_BOUND('',#1290,.F.);
#1290 = EDGE_LOOP('',(#1291,#1292,#1300,#1307));
#1291 = ORIENTED_EDGE('',*,*,#1275,.F.);
#1292 = ORIENTED_EDGE('',*,*,#1293,.F.);
#1293 = EDGE_CURVE('',#1294,#1276,#1296,.T.);
#1294 = VERTEX_POINT('',#1295);
#1295 = CARTESIAN_POINT('',(118.,-24.,482.3));
#1296 = LINE('',#1297,#1298);
#1297 = CARTESIAN_POINT('',(119.01,-24.,482.3));
#1298 = VECTOR('',#1299,1.);
#1299 = DIRECTION('',(-1.,0.,0.));
#1300 = ORIENTED_EDGE('',*,*,#1301,.T.);
#1301 = EDGE_CURVE('',#1294,#1294,#1302,.T.);
#1302 = CIRCLE('',#1303,1.7);
#1303 = AXIS2_PLACEMENT_3D('',#1304,#1305,#1306);
#1304 = CARTESIAN_POINT('',(118.,-24.,484.));
#1305 = DIRECTION('',(-1.,0.,0.));
#1306 = DIRECTION('',(0.,0.,-1.));
#1307 = ORIENTED_EDGE('',*,*,#1293,.T.);
#1308 = CYLINDRICAL_SURFACE('',#1309,1.7);
#1309 = AXIS2_PLACEMENT_3D('',#1310,#1311,#1312);
#1310 = CARTESIAN_POINT('',(119.01,-24.,484.));
#1311 = DIRECTION('',(-1.,0.,0.));
#1312 = DIRECTION('',(0.,0.,-1.));
#1313 = ADVANCED_FACE('',(#1314),#1341,.T.);
#1314 = FACE_BOUND('',#1315,.T.);
#1315 = EDGE_LOOP('',(#1316,#1317,#1318,#1319,#1327,#1335));
#1316 = ORIENTED_EDGE('',*,*,#31,.F.);
#1317 = ORIENTED_EDGE('',*,*,#61,.F.);
#1318 = ORIENTED_EDGE('',*,*,#351,.F.);
#1319 = ORIENTED_EDGE('',*,*,#1320,.F.);
#1320 = EDGE_CURVE('',#1321,#344,#1323,.T.);
#1321 = VERTEX_POINT('',#1322);
#1322 = CARTESIAN_POINT('',(90.,-43.,411.5));
#1323 = LINE('',#1324,#1325);
#1324 = CARTESIAN_POINT('',(90.,-43.,411.5));
#1325 = VECTOR('',#1326,1.);
#1326 = DIRECTION('',(0.,0.,1.));
#1327 = ORIENTED_EDGE('',*,*,#1328,.T.);
#1328 = EDGE_CURVE('',#1321,#1329,#1331,.T.);
#1329 = VERTEX_POINT('',#1330);
#1330 = CARTESIAN_POINT('',(118.,-43.,411.5));
#1331 = LINE('',#1332,#1333);
#1332 = CARTESIAN_POINT('',(90.,-43.,411.5));
#1333 = VECTOR('',#1334,1.);
#1334 = DIRECTION('',(1.,0.,0.));
#1335 = ORIENTED_EDGE('',*,*,#1336,.T.);
#1336 = EDGE_CURVE('',#1329,#32,#1337,.T.);
#1337 = LINE('',#1338,#1339);
#1338 = CARTESIAN_POINT('',(118.,-43.,411.5));
#1339 = VECTOR('',#1340,1.);
#1340 = DIRECTION('',(0.,0.,1.));
#1341 = PLANE('',#1342);
#1342 = AXIS2_PLACEMENT_3D('',#1343,#1344,#1345);
#1343 = CARTESIAN_POINT('',(109.23943661971,-43.,445.51056338028));
#1344 = DIRECTION('',(-0.,-1.,-0.));
#1345 = DIRECTION('',(0.,0.,-1.));
#1346 = ADVANCED_FACE('',(#1347),#1381,.F.);
#1347 = FACE_BOUND('',#1348,.F.);
#1348 = EDGE_LOOP('',(#1349,#1359,#1367,#1375));
#1349 = ORIENTED_EDGE('',*,*,#1350,.F.);
#1350 = EDGE_CURVE('',#1351,#1353,#1355,.T.);
#1351 = VERTEX_POINT('',#1352);
#1352 = CARTESIAN_POINT('',(90.,-33.,412.));
#1353 = VERTEX_POINT('',#1354);
#1354 = CARTESIAN_POINT('',(90.,33.,412.));
#1355 = LINE('',#1356,#1357);
#1356 = CARTESIAN_POINT('',(90.,-43.,412.));
#1357 = VECTOR('',#1358,1.);
#1358 = DIRECTION('',(0.,1.,0.));
#1359 = ORIENTED_EDGE('',*,*,#1360,.T.);
#1360 = EDGE_CURVE('',#1351,#1361,#1363,.T.);
#1361 = VERTEX_POINT('',#1362);
#1362 = CARTESIAN_POINT('',(118.,-33.,412.));
#1363 = LINE('',#1364,#1365);
#1364 = CARTESIAN_POINT('',(90.,-33.,412.));
#1365 = VECTOR('',#1366,1.);
#1366 = DIRECTION('',(1.,0.,0.));
#1367 = ORIENTED_EDGE('',*,*,#1368,.T.);
#1368 = EDGE_CURVE('',#1361,#1369,#1371,.T.);
#1369 = VERTEX_POINT('',#1370);
#1370 = CARTESIAN_POINT('',(118.,33.,412.));
#1371 = LINE('',#1372,#1373);
#1372 = CARTESIAN_POINT('',(118.,-43.,412.));
#1373 = VECTOR('',#1374,1.);
#1374 = DIRECTION('',(0.,1.,0.));
#1375 = ORIENTED_EDGE('',*,*,#1376,.F.);
#1376 = EDGE_CURVE('',#1353,#1369,#1377,.T.);
#1377 = LINE('',#1378,#1379);
#1378 = CARTESIAN_POINT('',(90.,33.,412.));
#1379 = VECTOR('',#1380,1.);
#1380 = DIRECTION('',(1.,0.,0.));
#1381 = PLANE('',#1382);
#1382 = AXIS2_PLACEMENT_3D('',#1383,#1384,#1385);
#1383 = CARTESIAN_POINT('',(90.,-43.,412.));
#1384 = DIRECTION('',(0.,0.,1.));
#1385 = DIRECTION('',(1.,0.,0.));
#1386 = ADVANCED_FACE('',(#1387),#1412,.T.);
#1387 = FACE_BOUND('',#1388,.T.);
#1388 = EDGE_LOOP('',(#1389,#1397,#1405,#1411));
#1389 = ORIENTED_EDGE('',*,*,#1390,.F.);
#1390 = EDGE_CURVE('',#1391,#1361,#1393,.T.);
#1391 = VERTEX_POINT('',#1392);
#1392 = CARTESIAN_POINT('',(118.,-33.,411.5));
#1393 = LINE('',#1394,#1395);
#1394 = CARTESIAN_POINT('',(118.,-33.,411.5));
#1395 = VECTOR('',#1396,1.);
#1396 = DIRECTION('',(0.,0.,1.));
#1397 = ORIENTED_EDGE('',*,*,#1398,.F.);
#1398 = EDGE_CURVE('',#1399,#1391,#1401,.T.);
#1399 = VERTEX_POINT('',#1400);
#1400 = CARTESIAN_POINT('',(90.,-33.,411.5));
#1401 = LINE('',#1402,#1403);
#1402 = CARTESIAN_POINT('',(90.,-33.,411.5));
#1403 = VECTOR('',#1404,1.);
#1404 = DIRECTION('',(1.,0.,0.));
#1405 = ORIENTED_EDGE('',*,*,#1406,.T.);
#1406 = EDGE_CURVE('',#1399,#1351,#1407,.T.);
#1407 = LINE('',#1408,#1409);
#1408 = CARTESIAN_POINT('',(90.,-33.,411.5));
#1409 = VECTOR('',#1410,1.);
#1410 = DIRECTION('',(0.,0.,1.));
#1411 = ORIENTED_EDGE('',*,*,#1360,.T.);
#1412 = PLANE('',#1413);
#1413 = AXIS2_PLACEMENT_3D('',#1414,#1415,#1416);
#1414 = CARTESIAN_POINT('',(90.,-33.,411.5));
#1415 = DIRECTION('',(0.,1.,0.));
#1416 = DIRECTION('',(0.,0.,1.));
#1417 = ADVANCED_FACE('',(#1418),#1434,.F.);
#1418 = FACE_BOUND('',#1419,.F.);
#1419 = EDGE_LOOP('',(#1420,#1426,#1427,#1433));
#1420 = ORIENTED_EDGE('',*,*,#1421,.F.);
#1421 = EDGE_CURVE('',#1321,#1399,#1422,.T.);
#1422 = LINE('',#1423,#1424);
#1423 = CARTESIAN_POINT('',(90.,-43.,411.5));
#1424 = VECTOR('',#1425,1.);
#1425 = DIRECTION('',(0.,1.,0.));
#1426 = ORIENTED_EDGE('',*,*,#1328,.T.);
#1427 = ORIENTED_EDGE('',*,*,#1428,.T.);
#1428 = EDGE_CURVE('',#1329,#1391,#1429,.T.);
#1429 = LINE('',#1430,#1431);
#1430 = CARTESIAN_POINT('',(118.,-43.,411.5));
#1431 = VECTOR('',#1432,1.);
#1432 = DIRECTION('',(0.,1.,0.));
#1433 = ORIENTED_EDGE('',*,*,#1398,.F.);
#1434 = PLANE('',#1435);
#1435 = AXIS2_PLACEMENT_3D('',#1436,#1437,#1438);
#1436 = CARTESIAN_POINT('',(90.,-43.,411.5));
#1437 = DIRECTION('',(0.,0.,1.));
#1438 = DIRECTION('',(1.,0.,0.));
#1439 = ADVANCED_FACE('',(#1440),#1465,.F.);
#1440 = FACE_BOUND('',#1441,.F.);
#1441 = EDGE_LOOP('',(#1442,#1450,#1458,#1464));
#1442 = ORIENTED_EDGE('',*,*,#1443,.F.);
#1443 = EDGE_CURVE('',#1444,#1369,#1446,.T.);
#1444 = VERTEX_POINT('',#1445);
#1445 = CARTESIAN_POINT('',(118.,33.,411.5));
#1446 = LINE('',#1447,#1448);
#1447 = CARTESIAN_POINT('',(118.,33.,411.5));
#1448 = VECTOR('',#1449,1.);
#1449 = DIRECTION('',(0.,0.,1.));
#1450 = ORIENTED_EDGE('',*,*,#1451,.F.);
#1451 = EDGE_CURVE('',#1452,#1444,#1454,.T.);
#1452 = VERTEX_POINT('',#1453);
#1453 = CARTESIAN_POINT('',(90.,33.,411.5));
#1454 = LINE('',#1455,#1456);
#1455 = CARTESIAN_POINT('',(90.,33.,411.5));
#1456 = VECTOR('',#1457,1.);
#1457 = DIRECTION('',(1.,0.,0.));
#1458 = ORIENTED_EDGE('',*,*,#1459,.T.);
#1459 = EDGE_CURVE('',#1452,#1353,#1460,.T.);
#1460 = LINE('',#1461,#1462);
#1461 = CARTESIAN_POINT('',(90.,33.,411.5));
#1462 = VECTOR('',#1463,1.);
#1463 = DIRECTION('',(0.,0.,1.));
#1464 = ORIENTED_EDGE('',*,*,#1376,.T.);
#1465 = PLANE('',#1466);
#1466 = AXIS2_PLACEMENT_3D('',#1467,#1468,#1469);
#1467 = CARTESIAN_POINT('',(90.,33.,411.5));
#1468 = DIRECTION('',(0.,1.,0.));
#1469 = DIRECTION('',(0.,0.,1.));
#1470 = ADVANCED_FACE('',(#1471),#1496,.F.);
#1471 = FACE_BOUND('',#1472,.F.);
#1472 = EDGE_LOOP('',(#1473,#1481,#1482,#1490));
#1473 = ORIENTED_EDGE('',*,*,#1474,.F.);
#1474 = EDGE_CURVE('',#1452,#1475,#1477,.T.);
#1475 = VERTEX_POINT('',#1476);
#1476 = CARTESIAN_POINT('',(90.,43.,411.5));
#1477 = LINE('',#1478,#1479);
#1478 = CARTESIAN_POINT('',(90.,33.,411.5));
#1479 = VECTOR('',#1480,1.);
#1480 = DIRECTION('',(0.,1.,0.));
#1481 = ORIENTED_EDGE('',*,*,#1451,.T.);
#1482 = ORIENTED_EDGE('',*,*,#1483,.T.);
#1483 = EDGE_CURVE('',#1444,#1484,#1486,.T.);
#1484 = VERTEX_POINT('',#1485);
#1485 = CARTESIAN_POINT('',(118.,43.,411.5));
#1486 = LINE('',#1487,#1488);
#1487 = CARTESIAN_POINT('',(118.,33.,411.5));
#1488 = VECTOR('',#1489,1.);
#1489 = DIRECTION('',(0.,1.,0.));
#1490 = ORIENTED_EDGE('',*,*,#1491,.F.);
#1491 = EDGE_CURVE('',#1475,#1484,#1492,.T.);
#1492 = LINE('',#1493,#1494);
#1493 = CARTESIAN_POINT('',(90.,43.,411.5));
#1494 = VECTOR('',#1495,1.);
#1495 = DIRECTION('',(1.,0.,0.));
#1496 = PLANE('',#1497);
#1497 = AXIS2_PLACEMENT_3D('',#1498,#1499,#1500);
#1498 = CARTESIAN_POINT('',(90.,33.,411.5));
#1499 = DIRECTION('',(0.,0.,1.));
#1500 = DIRECTION('',(1.,0.,0.));
#1501 = ADVANCED_FACE('',(#1502,#1517,#1523,#1526,#1545,#1564,#1567,
    #1570,#1573),#1576,.T.);
#1502 = FACE_BOUND('',#1503,.T.);
#1503 = EDGE_LOOP('',(#1504,#1505,#1506,#1507,#1508,#1509,#1510,#1516));
#1504 = ORIENTED_EDGE('',*,*,#1336,.F.);
#1505 = ORIENTED_EDGE('',*,*,#1428,.T.);
#1506 = ORIENTED_EDGE('',*,*,#1390,.T.);
#1507 = ORIENTED_EDGE('',*,*,#1368,.T.);
#1508 = ORIENTED_EDGE('',*,*,#1443,.F.);
#1509 = ORIENTED_EDGE('',*,*,#1483,.T.);
#1510 = ORIENTED_EDGE('',*,*,#1511,.T.);
#1511 = EDGE_CURVE('',#1484,#40,#1512,.T.);
#1512 = LINE('',#1513,#1514);
#1513 = CARTESIAN_POINT('',(118.,43.,411.5));
#1514 = VECTOR('',#1515,1.);
#1515 = DIRECTION('',(0.,0.,1.));
#1516 = ORIENTED_EDGE('',*,*,#39,.F.);
#1517 = FACE_BOUND('',#1518,.T.);
#1518 = EDGE_LOOP('',(#1519,#1520,#1521,#1522));
#1519 = ORIENTED_EDGE('',*,*,#408,.T.);
#1520 = ORIENTED_EDGE('',*,*,#486,.F.);
#1521 = ORIENTED_EDGE('',*,*,#1102,.F.);
#1522 = ORIENTED_EDGE('',*,*,#366,.T.);
#1523 = FACE_BOUND('',#1524,.T.);
#1524 = EDGE_LOOP('',(#1525));
#1525 = ORIENTED_EDGE('',*,*,#430,.F.);
#1526 = FACE_BOUND('',#1527,.T.);
#1527 = EDGE_LOOP('',(#1528,#1539));
#1528 = ORIENTED_EDGE('',*,*,#1529,.T.);
#1529 = EDGE_CURVE('',#1530,#1532,#1534,.T.);
#1530 = VERTEX_POINT('',#1531);
#1531 = CARTESIAN_POINT('',(118.,33.9,420.));
#1532 = VERTEX_POINT('',#1533);
#1533 = CARTESIAN_POINT('',(118.,42.1,420.));
#1534 = CIRCLE('',#1535,4.1);
#1535 = AXIS2_PLACEMENT_3D('',#1536,#1537,#1538);
#1536 = CARTESIAN_POINT('',(118.,38.,420.));
#1537 = DIRECTION('',(-1.,0.,0.));
#1538 = DIRECTION('',(0.,0.,-1.));
#1539 = ORIENTED_EDGE('',*,*,#1540,.F.);
#1540 = EDGE_CURVE('',#1530,#1532,#1541,.T.);
#1541 = LINE('',#1542,#1543);
#1542 = CARTESIAN_POINT('',(118.,-43.,420.));
#1543 = VECTOR('',#1544,1.);
#1544 = DIRECTION('',(0.,1.,0.));
#1545 = FACE_BOUND('',#1546,.T.);
#1546 = EDGE_LOOP('',(#1547,#1558));
#1547 = ORIENTED_EDGE('',*,*,#1548,.T.);
#1548 = EDGE_CURVE('',#1549,#1551,#1553,.T.);
#1549 = VERTEX_POINT('',#1550);
#1550 = CARTESIAN_POINT('',(118.,-42.1,420.));
#1551 = VERTEX_POINT('',#1552);
#1552 = CARTESIAN_POINT('',(118.,-33.9,420.));
#1553 = CIRCLE('',#1554,4.1);
#1554 = AXIS2_PLACEMENT_3D('',#1555,#1556,#1557);
#1555 = CARTESIAN_POINT('',(118.,-38.,420.));
#1556 = DIRECTION('',(-1.,0.,0.));
#1557 = DIRECTION('',(0.,0.,-1.));
#1558 = ORIENTED_EDGE('',*,*,#1559,.F.);
#1559 = EDGE_CURVE('',#1549,#1551,#1560,.T.);
#1560 = LINE('',#1561,#1562);
#1561 = CARTESIAN_POINT('',(118.,-43.,420.));
#1562 = VECTOR('',#1563,1.);
#1563 = DIRECTION('',(0.,1.,0.));
#1564 = FACE_BOUND('',#1565,.T.);
#1565 = EDGE_LOOP('',(#1566));
#1566 = ORIENTED_EDGE('',*,*,#1151,.T.);
#1567 = FACE_BOUND('',#1568,.T.);
#1568 = EDGE_LOOP('',(#1569));
#1569 = ORIENTED_EDGE('',*,*,#1201,.T.);
#1570 = FACE_BOUND('',#1571,.T.);
#1571 = EDGE_LOOP('',(#1572));
#1572 = ORIENTED_EDGE('',*,*,#1251,.T.);
#1573 = FACE_BOUND('',#1574,.T.);
#1574 = EDGE_LOOP('',(#1575));
#1575 = ORIENTED_EDGE('',*,*,#1301,.T.);
#1576 = PLANE('',#1577);
#1577 = AXIS2_PLACEMENT_3D('',#1578,#1579,#1580);
#1578 = CARTESIAN_POINT('',(118.,0.,450.73181818181));
#1579 = DIRECTION('',(1.,0.,0.));
#1580 = DIRECTION('',(0.,0.,1.));
#1581 = ADVANCED_FACE('',(#1582),#1618,.F.);
#1582 = FACE_BOUND('',#1583,.F.);
#1583 = EDGE_LOOP('',(#1584,#1594,#1603,#1611));
#1584 = ORIENTED_EDGE('',*,*,#1585,.F.);
#1585 = EDGE_CURVE('',#1586,#1588,#1590,.T.);
#1586 = VERTEX_POINT('',#1587);
#1587 = CARTESIAN_POINT('',(113.49,35.75,420.));
#1588 = VERTEX_POINT('',#1589);
#1589 = CARTESIAN_POINT('',(90.,35.75,420.));
#1590 = LINE('',#1591,#1592);
#1591 = CARTESIAN_POINT('',(113.51,35.75,420.));
#1592 = VECTOR('',#1593,1.);
#1593 = DIRECTION('',(-1.,0.,0.));
#1594 = ORIENTED_EDGE('',*,*,#1595,.T.);
#1595 = EDGE_CURVE('',#1586,#1596,#1598,.T.);
#1596 = VERTEX_POINT('',#1597);
#1597 = CARTESIAN_POINT('',(113.49,40.25,420.));
#1598 = CIRCLE('',#1599,2.25);
#1599 = AXIS2_PLACEMENT_3D('',#1600,#1601,#1602);
#1600 = CARTESIAN_POINT('',(113.49,38.,420.));
#1601 = DIRECTION('',(-1.,0.,0.));
#1602 = DIRECTION('',(0.,0.,-1.));
#1603 = ORIENTED_EDGE('',*,*,#1604,.T.);
#1604 = EDGE_CURVE('',#1596,#1605,#1607,.T.);
#1605 = VERTEX_POINT('',#1606);
#1606 = CARTESIAN_POINT('',(90.,40.25,420.));
#1607 = LINE('',#1608,#1609);
#1608 = CARTESIAN_POINT('',(113.51,40.25,420.));
#1609 = VECTOR('',#1610,1.);
#1610 = DIRECTION('',(-1.,0.,0.));
#1611 = ORIENTED_EDGE('',*,*,#1612,.F.);
#1612 = EDGE_CURVE('',#1588,#1605,#1613,.T.);
#1613 = CIRCLE('',#1614,2.25);
#1614 = AXIS2_PLACEMENT_3D('',#1615,#1616,#1617);
#1615 = CARTESIAN_POINT('',(90.,38.,420.));
#1616 = DIRECTION('',(-1.,0.,0.));
#1617 = DIRECTION('',(0.,0.,-1.));
#1618 = CYLINDRICAL_SURFACE('',#1619,2.25);
#1619 = AXIS2_PLACEMENT_3D('',#1620,#1621,#1622);
#1620 = CARTESIAN_POINT('',(113.51,38.,420.));
#1621 = DIRECTION('',(-1.,0.,0.));
#1622 = DIRECTION('',(0.,0.,-1.));
#1623 = ADVANCED_FACE('',(#1624),#1650,.F.);
#1624 = FACE_BOUND('',#1625,.F.);
#1625 = EDGE_LOOP('',(#1626,#1634,#1643,#1649));
#1626 = ORIENTED_EDGE('',*,*,#1627,.F.);
#1627 = EDGE_CURVE('',#1628,#1586,#1630,.T.);
#1628 = VERTEX_POINT('',#1629);
#1629 = CARTESIAN_POINT('',(113.49,33.9,420.));
#1630 = LINE('',#1631,#1632);
#1631 = CARTESIAN_POINT('',(113.49,-2.5,420.));
#1632 = VECTOR('',#1633,1.);
#1633 = DIRECTION('',(0.,1.,0.));
#1634 = ORIENTED_EDGE('',*,*,#1635,.T.);
#1635 = EDGE_CURVE('',#1628,#1636,#1638,.T.);
#1636 = VERTEX_POINT('',#1637);
#1637 = CARTESIAN_POINT('',(113.49,42.1,420.));
#1638 = CIRCLE('',#1639,4.1);
#1639 = AXIS2_PLACEMENT_3D('',#1640,#1641,#1642);
#1640 = CARTESIAN_POINT('',(113.49,38.,420.));
#1641 = DIRECTION('',(-1.,0.,0.));
#1642 = DIRECTION('',(0.,0.,-1.));
#1643 = ORIENTED_EDGE('',*,*,#1644,.F.);
#1644 = EDGE_CURVE('',#1596,#1636,#1645,.T.);
#1645 = LINE('',#1646,#1647);
#1646 = CARTESIAN_POINT('',(113.49,-2.5,420.));
#1647 = VECTOR('',#1648,1.);
#1648 = DIRECTION('',(0.,1.,0.));
#1649 = ORIENTED_EDGE('',*,*,#1595,.F.);
#1650 = PLANE('',#1651);
#1651 = AXIS2_PLACEMENT_3D('',#1652,#1653,#1654);
#1652 = CARTESIAN_POINT('',(113.49,38.,420.));
#1653 = DIRECTION('',(-1.,0.,0.));
#1654 = DIRECTION('',(0.,0.,-1.));
#1655 = ADVANCED_FACE('',(#1656),#1672,.F.);
#1656 = FACE_BOUND('',#1657,.F.);
#1657 = EDGE_LOOP('',(#1658,#1659,#1665,#1666));
#1658 = ORIENTED_EDGE('',*,*,#1635,.F.);
#1659 = ORIENTED_EDGE('',*,*,#1660,.F.);
#1660 = EDGE_CURVE('',#1530,#1628,#1661,.T.);
#1661 = LINE('',#1662,#1663);
#1662 = CARTESIAN_POINT('',(118.,33.9,420.));
#1663 = VECTOR('',#1664,1.);
#1664 = DIRECTION('',(-1.,0.,0.));
#1665 = ORIENTED_EDGE('',*,*,#1529,.T.);
#1666 = ORIENTED_EDGE('',*,*,#1667,.T.);
#1667 = EDGE_CURVE('',#1532,#1636,#1668,.T.);
#1668 = LINE('',#1669,#1670);
#1669 = CARTESIAN_POINT('',(118.,42.1,420.));
#1670 = VECTOR('',#1671,1.);
#1671 = DIRECTION('',(-1.,0.,0.));
#1672 = CYLINDRICAL_SURFACE('',#1673,4.1);
#1673 = AXIS2_PLACEMENT_3D('',#1674,#1675,#1676);
#1674 = CARTESIAN_POINT('',(118.,38.,420.));
#1675 = DIRECTION('',(-1.,0.,0.));
#1676 = DIRECTION('',(0.,0.,-1.));
#1677 = ADVANCED_FACE('',(#1678),#1693,.T.);
#1678 = FACE_BOUND('',#1679,.T.);
#1679 = EDGE_LOOP('',(#1680,#1686,#1687,#1688,#1689,#1690,#1691,#1692));
#1680 = ORIENTED_EDGE('',*,*,#1681,.F.);
#1681 = EDGE_CURVE('',#1588,#1605,#1682,.T.);
#1682 = LINE('',#1683,#1684);
#1683 = CARTESIAN_POINT('',(90.,-43.,420.));
#1684 = VECTOR('',#1685,1.);
#1685 = DIRECTION('',(0.,1.,0.));
#1686 = ORIENTED_EDGE('',*,*,#1585,.F.);
#1687 = ORIENTED_EDGE('',*,*,#1627,.F.);
#1688 = ORIENTED_EDGE('',*,*,#1660,.F.);
#1689 = ORIENTED_EDGE('',*,*,#1540,.T.);
#1690 = ORIENTED_EDGE('',*,*,#1667,.T.);
#1691 = ORIENTED_EDGE('',*,*,#1644,.F.);
#1692 = ORIENTED_EDGE('',*,*,#1604,.T.);
#1693 = PLANE('',#1694);
#1694 = AXIS2_PLACEMENT_3D('',#1695,#1696,#1697);
#1695 = CARTESIAN_POINT('',(90.,-43.,420.));
#1696 = DIRECTION('',(0.,0.,1.));
#1697 = DIRECTION('',(1.,0.,0.));
#1698 = ADVANCED_FACE('',(#1699),#1735,.F.);
#1699 = FACE_BOUND('',#1700,.F.);
#1700 = EDGE_LOOP('',(#1701,#1711,#1720,#1728));
#1701 = ORIENTED_EDGE('',*,*,#1702,.F.);
#1702 = EDGE_CURVE('',#1703,#1705,#1707,.T.);
#1703 = VERTEX_POINT('',#1704);
#1704 = CARTESIAN_POINT('',(113.49,-40.25,420.));
#1705 = VERTEX_POINT('',#1706);
#1706 = CARTESIAN_POINT('',(90.,-40.25,420.));
#1707 = LINE('',#1708,#1709);
#1708 = CARTESIAN_POINT('',(113.51,-40.25,420.));
#1709 = VECTOR('',#1710,1.);
#1710 = DIRECTION('',(-1.,0.,0.));
#1711 = ORIENTED_EDGE('',*,*,#1712,.T.);
#1712 = EDGE_CURVE('',#1703,#1713,#1715,.T.);
#1713 = VERTEX_POINT('',#1714);
#1714 = CARTESIAN_POINT('',(113.49,-35.75,420.));
#1715 = CIRCLE('',#1716,2.25);
#1716 = AXIS2_PLACEMENT_3D('',#1717,#1718,#1719);
#1717 = CARTESIAN_POINT('',(113.49,-38.,420.));
#1718 = DIRECTION('',(-1.,0.,0.));
#1719 = DIRECTION('',(0.,0.,-1.));
#1720 = ORIENTED_EDGE('',*,*,#1721,.T.);
#1721 = EDGE_CURVE('',#1713,#1722,#1724,.T.);
#1722 = VERTEX_POINT('',#1723);
#1723 = CARTESIAN_POINT('',(90.,-35.75,420.));
#1724 = LINE('',#1725,#1726);
#1725 = CARTESIAN_POINT('',(113.51,-35.75,420.));
#1726 = VECTOR('',#1727,1.);
#1727 = DIRECTION('',(-1.,0.,0.));
#1728 = ORIENTED_EDGE('',*,*,#1729,.F.);
#1729 = EDGE_CURVE('',#1705,#1722,#1730,.T.);
#1730 = CIRCLE('',#1731,2.25);
#1731 = AXIS2_PLACEMENT_3D('',#1732,#1733,#1734);
#1732 = CARTESIAN_POINT('',(90.,-38.,420.));
#1733 = DIRECTION('',(-1.,0.,0.));
#1734 = DIRECTION('',(0.,0.,-1.));
#1735 = CYLINDRICAL_SURFACE('',#1736,2.25);
#1736 = AXIS2_PLACEMENT_3D('',#1737,#1738,#1739);
#1737 = CARTESIAN_POINT('',(113.51,-38.,420.));
#1738 = DIRECTION('',(-1.,0.,0.));
#1739 = DIRECTION('',(0.,0.,-1.));
#1740 = ADVANCED_FACE('',(#1741),#1767,.F.);
#1741 = FACE_BOUND('',#1742,.F.);
#1742 = EDGE_LOOP('',(#1743,#1751,#1760,#1766));
#1743 = ORIENTED_EDGE('',*,*,#1744,.F.);
#1744 = EDGE_CURVE('',#1745,#1703,#1747,.T.);
#1745 = VERTEX_POINT('',#1746);
#1746 = CARTESIAN_POINT('',(113.49,-42.1,420.));
#1747 = LINE('',#1748,#1749);
#1748 = CARTESIAN_POINT('',(113.49,-40.5,420.));
#1749 = VECTOR('',#1750,1.);
#1750 = DIRECTION('',(0.,1.,0.));
#1751 = ORIENTED_EDGE('',*,*,#1752,.T.);
#1752 = EDGE_CURVE('',#1745,#1753,#1755,.T.);
#1753 = VERTEX_POINT('',#1754);
#1754 = CARTESIAN_POINT('',(113.49,-33.9,420.));
#1755 = CIRCLE('',#1756,4.1);
#1756 = AXIS2_PLACEMENT_3D('',#1757,#1758,#1759);
#1757 = CARTESIAN_POINT('',(113.49,-38.,420.));
#1758 = DIRECTION('',(-1.,0.,0.));
#1759 = DIRECTION('',(0.,0.,-1.));
#1760 = ORIENTED_EDGE('',*,*,#1761,.F.);
#1761 = EDGE_CURVE('',#1713,#1753,#1762,.T.);
#1762 = LINE('',#1763,#1764);
#1763 = CARTESIAN_POINT('',(113.49,-40.5,420.));
#1764 = VECTOR('',#1765,1.);
#1765 = DIRECTION('',(0.,1.,0.));
#1766 = ORIENTED_EDGE('',*,*,#1712,.F.);
#1767 = PLANE('',#1768);
#1768 = AXIS2_PLACEMENT_3D('',#1769,#1770,#1771);
#1769 = CARTESIAN_POINT('',(113.49,-38.,420.));
#1770 = DIRECTION('',(-1.,0.,0.));
#1771 = DIRECTION('',(0.,0.,-1.));
#1772 = ADVANCED_FACE('',(#1773),#1789,.F.);
#1773 = FACE_BOUND('',#1774,.F.);
#1774 = EDGE_LOOP('',(#1775,#1776,#1782,#1783));
#1775 = ORIENTED_EDGE('',*,*,#1752,.F.);
#1776 = ORIENTED_EDGE('',*,*,#1777,.F.);
#1777 = EDGE_CURVE('',#1549,#1745,#1778,.T.);
#1778 = LINE('',#1779,#1780);
#1779 = CARTESIAN_POINT('',(118.,-42.1,420.));
#1780 = VECTOR('',#1781,1.);
#1781 = DIRECTION('',(-1.,0.,0.));
#1782 = ORIENTED_EDGE('',*,*,#1548,.T.);
#1783 = ORIENTED_EDGE('',*,*,#1784,.T.);
#1784 = EDGE_CURVE('',#1551,#1753,#1785,.T.);
#1785 = LINE('',#1786,#1787);
#1786 = CARTESIAN_POINT('',(118.,-33.9,420.));
#1787 = VECTOR('',#1788,1.);
#1788 = DIRECTION('',(-1.,0.,0.));
#1789 = CYLINDRICAL_SURFACE('',#1790,4.1);
#1790 = AXIS2_PLACEMENT_3D('',#1791,#1792,#1793);
#1791 = CARTESIAN_POINT('',(118.,-38.,420.));
#1792 = DIRECTION('',(-1.,0.,0.));
#1793 = DIRECTION('',(0.,0.,-1.));
#1794 = ADVANCED_FACE('',(#1795),#1810,.T.);
#1795 = FACE_BOUND('',#1796,.T.);
#1796 = EDGE_LOOP('',(#1797,#1803,#1804,#1805,#1806,#1807,#1808,#1809));
#1797 = ORIENTED_EDGE('',*,*,#1798,.F.);
#1798 = EDGE_CURVE('',#1705,#1722,#1799,.T.);
#1799 = LINE('',#1800,#1801);
#1800 = CARTESIAN_POINT('',(90.,-43.,420.));
#1801 = VECTOR('',#1802,1.);
#1802 = DIRECTION('',(0.,1.,0.));
#1803 = ORIENTED_EDGE('',*,*,#1702,.F.);
#1804 = ORIENTED_EDGE('',*,*,#1744,.F.);
#1805 = ORIENTED_EDGE('',*,*,#1777,.F.);
#1806 = ORIENTED_EDGE('',*,*,#1559,.T.);
#1807 = ORIENTED_EDGE('',*,*,#1784,.T.);
#1808 = ORIENTED_EDGE('',*,*,#1761,.F.);
#1809 = ORIENTED_EDGE('',*,*,#1721,.T.);
#1810 = PLANE('',#1811);
#1811 = AXIS2_PLACEMENT_3D('',#1812,#1813,#1814);
#1812 = CARTESIAN_POINT('',(90.,-43.,420.));
#1813 = DIRECTION('',(0.,0.,1.));
#1814 = DIRECTION('',(1.,0.,0.));
#1815 = ADVANCED_FACE('',(#1816,#1835,#1846,#1857,#1861),#1865,.T.);
#1816 = FACE_BOUND('',#1817,.T.);
#1817 = EDGE_LOOP('',(#1818,#1819,#1820,#1821,#1822,#1823,#1824,#1830,
    #1831,#1832,#1833,#1834));
#1818 = ORIENTED_EDGE('',*,*,#1320,.T.);
#1819 = ORIENTED_EDGE('',*,*,#343,.T.);
#1820 = ORIENTED_EDGE('',*,*,#384,.F.);
#1821 = ORIENTED_EDGE('',*,*,#1095,.T.);
#1822 = ORIENTED_EDGE('',*,*,#502,.T.);
#1823 = ORIENTED_EDGE('',*,*,#463,.T.);
#1824 = ORIENTED_EDGE('',*,*,#1825,.F.);
#1825 = EDGE_CURVE('',#1475,#456,#1826,.T.);
#1826 = LINE('',#1827,#1828);
#1827 = CARTESIAN_POINT('',(90.,43.,411.5));
#1828 = VECTOR('',#1829,1.);
#1829 = DIRECTION('',(0.,0.,1.));
#1830 = ORIENTED_EDGE('',*,*,#1474,.F.);
#1831 = ORIENTED_EDGE('',*,*,#1459,.T.);
#1832 = ORIENTED_EDGE('',*,*,#1350,.F.);
#1833 = ORIENTED_EDGE('',*,*,#1406,.F.);
#1834 = ORIENTED_EDGE('',*,*,#1421,.F.);
#1835 = FACE_BOUND('',#1836,.T.);
#1836 = EDGE_LOOP('',(#1837));
#1837 = ORIENTED_EDGE('',*,*,#1838,.F.);
#1838 = EDGE_CURVE('',#1839,#1839,#1841,.T.);
#1839 = VERTEX_POINT('',#1840);
#1840 = CARTESIAN_POINT('',(90.,-38.,432.75));
#1841 = CIRCLE('',#1842,2.25);
#1842 = AXIS2_PLACEMENT_3D('',#1843,#1844,#1845);
#1843 = CARTESIAN_POINT('',(90.,-38.,435.));
#1844 = DIRECTION('',(-1.,0.,0.));
#1845 = DIRECTION('',(0.,0.,-1.));
#1846 = FACE_BOUND('',#1847,.T.);
#1847 = EDGE_LOOP('',(#1848));
#1848 = ORIENTED_EDGE('',*,*,#1849,.F.);
#1849 = EDGE_CURVE('',#1850,#1850,#1852,.T.);
#1850 = VERTEX_POINT('',#1851);
#1851 = CARTESIAN_POINT('',(90.,38.,432.75));
#1852 = CIRCLE('',#1853,2.25);
#1853 = AXIS2_PLACEMENT_3D('',#1854,#1855,#1856);
#1854 = CARTESIAN_POINT('',(90.,38.,435.));
#1855 = DIRECTION('',(-1.,0.,0.));
#1856 = DIRECTION('',(0.,0.,-1.));
#1857 = FACE_BOUND('',#1858,.T.);
#1858 = EDGE_LOOP('',(#1859,#1860));
#1859 = ORIENTED_EDGE('',*,*,#1729,.F.);
#1860 = ORIENTED_EDGE('',*,*,#1798,.T.);
#1861 = FACE_BOUND('',#1862,.T.);
#1862 = EDGE_LOOP('',(#1863,#1864));
#1863 = ORIENTED_EDGE('',*,*,#1612,.F.);
#1864 = ORIENTED_EDGE('',*,*,#1681,.T.);
#1865 = PLANE('',#1866);
#1866 = AXIS2_PLACEMENT_3D('',#1867,#1868,#1869);
#1867 = CARTESIAN_POINT('',(90.,0.,422.8028169014));
#1868 = DIRECTION('',(-1.,-0.,-0.));
#1869 = DIRECTION('',(0.,0.,-1.));
#1870 = ADVANCED_FACE('',(#1871),#1890,.F.);
#1871 = FACE_BOUND('',#1872,.F.);
#1872 = EDGE_LOOP('',(#1873,#1881,#1882,#1883));
#1873 = ORIENTED_EDGE('',*,*,#1874,.T.);
#1874 = EDGE_CURVE('',#1875,#1839,#1877,.T.);
#1875 = VERTEX_POINT('',#1876);
#1876 = CARTESIAN_POINT('',(113.49,-38.,432.75));
#1877 = LINE('',#1878,#1879);
#1878 = CARTESIAN_POINT('',(113.51,-38.,432.75));
#1879 = VECTOR('',#1880,1.);
#1880 = DIRECTION('',(-1.,0.,0.));
#1881 = ORIENTED_EDGE('',*,*,#1838,.F.);
#1882 = ORIENTED_EDGE('',*,*,#1874,.F.);
#1883 = ORIENTED_EDGE('',*,*,#1884,.T.);
#1884 = EDGE_CURVE('',#1875,#1875,#1885,.T.);
#1885 = CIRCLE('',#1886,2.25);
#1886 = AXIS2_PLACEMENT_3D('',#1887,#1888,#1889);
#1887 = CARTESIAN_POINT('',(113.49,-38.,435.));
#1888 = DIRECTION('',(-1.,0.,0.));
#1889 = DIRECTION('',(0.,0.,-1.));
#1890 = CYLINDRICAL_SURFACE('',#1891,2.25);
#1891 = AXIS2_PLACEMENT_3D('',#1892,#1893,#1894);
#1892 = CARTESIAN_POINT('',(113.51,-38.,435.));
#1893 = DIRECTION('',(-1.,0.,0.));
#1894 = DIRECTION('',(0.,0.,-1.));
#1895 = ADVANCED_FACE('',(#1896,#1907),#1910,.F.);
#1896 = FACE_BOUND('',#1897,.F.);
#1897 = EDGE_LOOP('',(#1898));
#1898 = ORIENTED_EDGE('',*,*,#1899,.T.);
#1899 = EDGE_CURVE('',#1900,#1900,#1902,.T.);
#1900 = VERTEX_POINT('',#1901);
#1901 = CARTESIAN_POINT('',(113.49,-38.,430.9));
#1902 = CIRCLE('',#1903,4.1);
#1903 = AXIS2_PLACEMENT_3D('',#1904,#1905,#1906);
#1904 = CARTESIAN_POINT('',(113.49,-38.,435.));
#1905 = DIRECTION('',(-1.,0.,0.));
#1906 = DIRECTION('',(0.,0.,-1.));
#1907 = FACE_BOUND('',#1908,.F.);
#1908 = EDGE_LOOP('',(#1909));
#1909 = ORIENTED_EDGE('',*,*,#1884,.F.);
#1910 = PLANE('',#1911);
#1911 = AXIS2_PLACEMENT_3D('',#1912,#1913,#1914);
#1912 = CARTESIAN_POINT('',(113.49,-38.,435.));
#1913 = DIRECTION('',(-1.,0.,0.));
#1914 = DIRECTION('',(0.,0.,-1.));
#1915 = ADVANCED_FACE('',(#1916),#1935,.F.);
#1916 = FACE_BOUND('',#1917,.F.);
#1917 = EDGE_LOOP('',(#1918,#1926,#1927,#1928));
#1918 = ORIENTED_EDGE('',*,*,#1919,.T.);
#1919 = EDGE_CURVE('',#1920,#1900,#1922,.T.);
#1920 = VERTEX_POINT('',#1921);
#1921 = CARTESIAN_POINT('',(114.,-38.,430.9));
#1922 = LINE('',#1923,#1924);
#1923 = CARTESIAN_POINT('',(118.,-38.,430.9));
#1924 = VECTOR('',#1925,1.);
#1925 = DIRECTION('',(-1.,0.,0.));
#1926 = ORIENTED_EDGE('',*,*,#1899,.F.);
#1927 = ORIENTED_EDGE('',*,*,#1919,.F.);
#1928 = ORIENTED_EDGE('',*,*,#1929,.T.);
#1929 = EDGE_CURVE('',#1920,#1920,#1930,.T.);
#1930 = CIRCLE('',#1931,4.1);
#1931 = AXIS2_PLACEMENT_3D('',#1932,#1933,#1934);
#1932 = CARTESIAN_POINT('',(114.,-38.,435.));
#1933 = DIRECTION('',(-1.,0.,0.));
#1934 = DIRECTION('',(0.,0.,-1.));
#1935 = CYLINDRICAL_SURFACE('',#1936,4.1);
#1936 = AXIS2_PLACEMENT_3D('',#1937,#1938,#1939);
#1937 = CARTESIAN_POINT('',(118.,-38.,435.));
#1938 = DIRECTION('',(-1.,0.,0.));
#1939 = DIRECTION('',(0.,0.,-1.));
#1940 = ADVANCED_FACE('',(#1941),#1944,.F.);
#1941 = FACE_BOUND('',#1942,.F.);
#1942 = EDGE_LOOP('',(#1943));
#1943 = ORIENTED_EDGE('',*,*,#1929,.F.);
#1944 = PLANE('',#1945);
#1945 = AXIS2_PLACEMENT_3D('',#1946,#1947,#1948);
#1946 = CARTESIAN_POINT('',(114.,-43.,430.));
#1947 = DIRECTION('',(1.,0.,0.));
#1948 = DIRECTION('',(0.,0.,1.));
#1949 = ADVANCED_FACE('',(#1950),#1969,.F.);
#1950 = FACE_BOUND('',#1951,.F.);
#1951 = EDGE_LOOP('',(#1952,#1960,#1961,#1962));
#1952 = ORIENTED_EDGE('',*,*,#1953,.T.);
#1953 = EDGE_CURVE('',#1954,#1850,#1956,.T.);
#1954 = VERTEX_POINT('',#1955);
#1955 = CARTESIAN_POINT('',(113.49,38.,432.75));
#1956 = LINE('',#1957,#1958);
#1957 = CARTESIAN_POINT('',(113.51,38.,432.75));
#1958 = VECTOR('',#1959,1.);
#1959 = DIRECTION('',(-1.,0.,0.));
#1960 = ORIENTED_EDGE('',*,*,#1849,.F.);
#1961 = ORIENTED_EDGE('',*,*,#1953,.F.);
#1962 = ORIENTED_EDGE('',*,*,#1963,.T.);
#1963 = EDGE_CURVE('',#1954,#1954,#1964,.T.);
#1964 = CIRCLE('',#1965,2.25);
#1965 = AXIS2_PLACEMENT_3D('',#1966,#1967,#1968);
#1966 = CARTESIAN_POINT('',(113.49,38.,435.));
#1967 = DIRECTION('',(-1.,0.,0.));
#1968 = DIRECTION('',(0.,0.,-1.));
#1969 = CYLINDRICAL_SURFACE('',#1970,2.25);
#1970 = AXIS2_PLACEMENT_3D('',#1971,#1972,#1973);
#1971 = CARTESIAN_POINT('',(113.51,38.,435.));
#1972 = DIRECTION('',(-1.,0.,0.));
#1973 = DIRECTION('',(0.,0.,-1.));
#1974 = ADVANCED_FACE('',(#1975,#1986),#1989,.F.);
#1975 = FACE_BOUND('',#1976,.F.);
#1976 = EDGE_LOOP('',(#1977));
#1977 = ORIENTED_EDGE('',*,*,#1978,.T.);
#1978 = EDGE_CURVE('',#1979,#1979,#1981,.T.);
#1979 = VERTEX_POINT('',#1980);
#1980 = CARTESIAN_POINT('',(113.49,38.,430.9));
#1981 = CIRCLE('',#1982,4.1);
#1982 = AXIS2_PLACEMENT_3D('',#1983,#1984,#1985);
#1983 = CARTESIAN_POINT('',(113.49,38.,435.));
#1984 = DIRECTION('',(-1.,0.,0.));
#1985 = DIRECTION('',(0.,0.,-1.));
#1986 = FACE_BOUND('',#1987,.F.);
#1987 = EDGE_LOOP('',(#1988));
#1988 = ORIENTED_EDGE('',*,*,#1963,.F.);
#1989 = PLANE('',#1990);
#1990 = AXIS2_PLACEMENT_3D('',#1991,#1992,#1993);
#1991 = CARTESIAN_POINT('',(113.49,38.,435.));
#1992 = DIRECTION('',(-1.,0.,0.));
#1993 = DIRECTION('',(0.,0.,-1.));
#1994 = ADVANCED_FACE('',(#1995),#2014,.F.);
#1995 = FACE_BOUND('',#1996,.F.);
#1996 = EDGE_LOOP('',(#1997,#2005,#2006,#2007));
#1997 = ORIENTED_EDGE('',*,*,#1998,.T.);
#1998 = EDGE_CURVE('',#1999,#1979,#2001,.T.);
#1999 = VERTEX_POINT('',#2000);
#2000 = CARTESIAN_POINT('',(114.,38.,430.9));
#2001 = LINE('',#2002,#2003);
#2002 = CARTESIAN_POINT('',(118.,38.,430.9));
#2003 = VECTOR('',#2004,1.);
#2004 = DIRECTION('',(-1.,0.,0.));
#2005 = ORIENTED_EDGE('',*,*,#1978,.F.);
#2006 = ORIENTED_EDGE('',*,*,#1998,.F.);
#2007 = ORIENTED_EDGE('',*,*,#2008,.T.);
#2008 = EDGE_CURVE('',#1999,#1999,#2009,.T.);
#2009 = CIRCLE('',#2010,4.1);
#2010 = AXIS2_PLACEMENT_3D('',#2011,#2012,#2013);
#2011 = CARTESIAN_POINT('',(114.,38.,435.));
#2012 = DIRECTION('',(-1.,0.,0.));
#2013 = DIRECTION('',(0.,0.,-1.));
#2014 = CYLINDRICAL_SURFACE('',#2015,4.1);
#2015 = AXIS2_PLACEMENT_3D('',#2016,#2017,#2018);
#2016 = CARTESIAN_POINT('',(118.,38.,435.));
#2017 = DIRECTION('',(-1.,0.,0.));
#2018 = DIRECTION('',(0.,0.,-1.));
#2019 = ADVANCED_FACE('',(#2020),#2023,.F.);
#2020 = FACE_BOUND('',#2021,.F.);
#2021 = EDGE_LOOP('',(#2022));
#2022 = ORIENTED_EDGE('',*,*,#2008,.F.);
#2023 = PLANE('',#2024);
#2024 = AXIS2_PLACEMENT_3D('',#2025,#2026,#2027);
#2025 = CARTESIAN_POINT('',(114.,-43.,430.));
#2026 = DIRECTION('',(1.,0.,0.));
#2027 = DIRECTION('',(0.,0.,1.));
#2028 = ADVANCED_FACE('',(#2029),#2037,.T.);
#2029 = FACE_BOUND('',#2030,.T.);
#2030 = EDGE_LOOP('',(#2031,#2032,#2033,#2034,#2035,#2036));
#2031 = ORIENTED_EDGE('',*,*,#1511,.F.);
#2032 = ORIENTED_EDGE('',*,*,#1491,.F.);
#2033 = ORIENTED_EDGE('',*,*,#1825,.T.);
#2034 = ORIENTED_EDGE('',*,*,#455,.T.);
#2035 = ORIENTED_EDGE('',*,*,#109,.T.);
#2036 = ORIENTED_EDGE('',*,*,#47,.T.);
#2037 = PLANE('',#2038);
#2038 = AXIS2_PLACEMENT_3D('',#2039,#2040,#2041);
#2039 = CARTESIAN_POINT('',(109.23943661971,43.,445.51056338028));
#2040 = DIRECTION('',(0.,1.,0.));
#2041 = DIRECTION('',(0.,0.,1.));
#2042 = ( GEOMETRIC_REPRESENTATION_CONTEXT(3) 
GLOBAL_UNCERTAINTY_ASSIGNED_CONTEXT((#2046)) 
GLOBAL_UNIT_ASSIGNED_CONTEXT((#2043,#2044,#2045)) REPRESENTATION_CONTEXT
('Context #1','3D Context with UNIT and UNCERTAINTY') );
#2043 = ( LENGTH_UNIT() NAMED_UNIT(*) SI_UNIT(.MILLI.,.METRE.) );
#2044 = ( NAMED_UNIT(*) PLANE_ANGLE_UNIT() SI_UNIT($,.RADIAN.) );
#2045 = ( NAMED_UNIT(*) SI_UNIT($,.STERADIAN.) SOLID_ANGLE_UNIT() );
#2046 = UNCERTAINTY_MEASURE_WITH_UNIT(LENGTH_MEASURE(1.E-07),#2043,
  'distance_accuracy_value','confusion accuracy');
#2047 = PRODUCT_RELATED_PRODUCT_CATEGORY('part',$,(#7));
ENDSEC;
END-ISO-10303-21;
