ISO-10303-21;
HEADER;
FILE_DESCRIPTION(('FreeCAD Model'),'2;1');
FILE_NAME('Open CASCADE Shape Model','2026-09-21T17:42:38',('FreeCAD'),(
    'FreeCAD'),'Open CASCADE STEP processor 7.9','FreeCAD','Unknown');
FILE_SCHEMA(('AUTOMOTIVE_DESIGN { 1 0 10303 214 1 1 1 1 }'));
ENDSEC;
DATA;
#1 = APPLICATION_PROTOCOL_DEFINITION('international standard',
  'automotive_design',2000,#2);
#2 = APPLICATION_CONTEXT(
  'core data for automotive mechanical design processes');
#3 = SHAPE_DEFINITION_REPRESENTATION(#4,#10);
#4 = PRODUCT_DEFINITION_SHAPE('','',#5);
#5 = PRODUCT_DEFINITION('design','',#6,#9);
#6 = PRODUCT_DEFINITION_FORMATION('','',#7);
#7 = PRODUCT('Open CASCADE STEP translator 7.9 13',
  'Open CASCADE STEP translator 7.9 13','',(#8));
#8 = PRODUCT_CONTEXT('',#2,'mechanical');
#9 = PRODUCT_DEFINITION_CONTEXT('part definition',#2,'design');
#10 = ADVANCED_BREP_SHAPE_REPRESENTATION('',(#11,#15),#744);
#11 = AXIS2_PLACEMENT_3D('',#12,#13,#14);
#12 = CARTESIAN_POINT('',(0.,0.,0.));
#13 = DIRECTION('',(0.,0.,1.));
#14 = DIRECTION('',(1.,0.,-0.));
#15 = MANIFOLD_SOLID_BREP('',#16);
#16 = CLOSED_SHELL('',(#17,#50,#376,#429,#488,#515,#542,#569,#596,#621,
    #646,#671,#696,#708,#720,#732));
#17 = ADVANCED_FACE('',(#18),#45,.T.);
#18 = FACE_BOUND('',#19,.T.);
#19 = EDGE_LOOP('',(#20,#30,#37,#38));
#20 = ORIENTED_EDGE('',*,*,#21,.T.);
#21 = EDGE_CURVE('',#22,#24,#26,.T.);
#22 = VERTEX_POINT('',#23);
#23 = CARTESIAN_POINT('',(115.,1.175660927181E-14,632.));
#24 = VERTEX_POINT('',#25);
#25 = CARTESIAN_POINT('',(119.5,0.,632.));
#26 = LINE('',#27,#28);
#27 = CARTESIAN_POINT('',(115.,1.175660927181E-14,632.));
#28 = VECTOR('',#29,1.);
#29 = DIRECTION('',(1.,0.,0.));
#30 = ORIENTED_EDGE('',*,*,#31,.F.);
#31 = EDGE_CURVE('',#24,#24,#32,.T.);
#32 = CIRCLE('',#33,48.);
#33 = AXIS2_PLACEMENT_3D('',#34,#35,#36);
#34 = CARTESIAN_POINT('',(119.5,0.,584.));
#35 = DIRECTION('',(1.,0.,-0.));
#36 = DIRECTION('',(0.,0.,1.));
#37 = ORIENTED_EDGE('',*,*,#21,.F.);
#38 = ORIENTED_EDGE('',*,*,#39,.T.);
#39 = EDGE_CURVE('',#22,#22,#40,.T.);
#40 = CIRCLE('',#41,48.);
#41 = AXIS2_PLACEMENT_3D('',#42,#43,#44);
#42 = CARTESIAN_POINT('',(115.,0.,584.));
#43 = DIRECTION('',(1.,0.,-0.));
#44 = DIRECTION('',(0.,0.,1.));
#45 = CYLINDRICAL_SURFACE('',#46,48.);
#46 = AXIS2_PLACEMENT_3D('',#47,#48,#49);
#47 = CARTESIAN_POINT('',(115.,0.,584.));
#48 = DIRECTION('',(1.,0.,0.));
#49 = DIRECTION('',(0.,0.,1.));
#50 = ADVANCED_FACE('',(#51),#371,.T.);
#51 = FACE_BOUND('',#52,.T.);
#52 = EDGE_LOOP('',(#53,#68,#77,#90,#145,#154,#215,#224,#231,#232,#233,
    #242,#303,#312));
#53 = ORIENTED_EDGE('',*,*,#54,.T.);
#54 = EDGE_CURVE('',#55,#57,#59,.T.);
#55 = VERTEX_POINT('',#56);
#56 = CARTESIAN_POINT('',(121.82087223538,31.112698372208,
    549.53730162779));
#57 = VERTEX_POINT('',#58);
#58 = CARTESIAN_POINT('',(122.,29.948590784537,549.74606723279));
#59 = B_SPLINE_CURVE_WITH_KNOTS('',7,(#60,#61,#62,#63,#64,#65,#66,#67),
  .UNSPECIFIED.,.F.,.F.,(8,8),(0.,1.),.PIECEWISE_BEZIER_KNOTS.);
#60 = CARTESIAN_POINT('',(121.82087223538,31.112698372208,
    549.53730162779));
#61 = CARTESIAN_POINT('',(121.86525852922,30.947269969403,
    549.53730162779));
#62 = CARTESIAN_POINT('',(121.90554439423,30.780400070625,
    549.54683227326));
#63 = CARTESIAN_POINT('',(121.94056127969,30.612363101277,549.5661925166
    ));
#64 = CARTESIAN_POINT('',(121.96896202107,30.443868087652,549.5957611872
    ));
#65 = CARTESIAN_POINT('',(121.98927941303,30.276021298147,
    549.63577266914));
#66 = CARTESIAN_POINT('',(122.,30.110312094742,549.68613505945));
#67 = CARTESIAN_POINT('',(122.,29.948590784547,549.7460672328));
#68 = ORIENTED_EDGE('',*,*,#69,.F.);
#69 = EDGE_CURVE('',#70,#57,#72,.T.);
#70 = VERTEX_POINT('',#71);
#71 = CARTESIAN_POINT('',(122.,-29.94859078453,549.74606723279));
#72 = CIRCLE('',#73,45.5);
#73 = AXIS2_PLACEMENT_3D('',#74,#75,#76);
#74 = CARTESIAN_POINT('',(122.,0.,584.));
#75 = DIRECTION('',(1.,0.,-0.));
#76 = DIRECTION('',(0.,0.,1.));
#77 = ORIENTED_EDGE('',*,*,#78,.T.);
#78 = EDGE_CURVE('',#70,#79,#81,.T.);
#79 = VERTEX_POINT('',#80);
#80 = CARTESIAN_POINT('',(121.82087223538,-31.1126983722,549.53730162779
    ));
#81 = B_SPLINE_CURVE_WITH_KNOTS('',7,(#82,#83,#84,#85,#86,#87,#88,#89),
  .UNSPECIFIED.,.F.,.F.,(8,8),(0.,1.),.PIECEWISE_BEZIER_KNOTS.);
#82 = CARTESIAN_POINT('',(122.,-29.94859078454,549.7460672328));
#83 = CARTESIAN_POINT('',(122.,-30.11031209534,549.68613505923));
#84 = CARTESIAN_POINT('',(121.98927941295,-30.27602129852,
    549.63577266908));
#85 = CARTESIAN_POINT('',(121.96896202105,-30.44386808778,
    549.59576118719));
#86 = CARTESIAN_POINT('',(121.94056127969,-30.61236310133,
    549.56619251658));
#87 = CARTESIAN_POINT('',(121.90554439419,-30.78040007083,
    549.54683227322));
#88 = CARTESIAN_POINT('',(121.86525852914,-30.94726996972,
    549.53730162779));
#89 = CARTESIAN_POINT('',(121.82087223538,-31.1126983722,549.53730162779
    ));
#90 = ORIENTED_EDGE('',*,*,#91,.T.);
#91 = EDGE_CURVE('',#79,#92,#94,.T.);
#92 = VERTEX_POINT('',#93);
#93 = CARTESIAN_POINT('',(122.,-34.2539327672,554.05140921546));
#94 = B_SPLINE_CURVE_WITH_KNOTS('',7,(#95,#96,#97,#98,#99,#100,#101,#102
    ,#103,#104,#105,#106,#107,#108,#109,#110,#111,#112,#113,#114,#115,
    #116,#117,#118,#119,#120,#121,#122,#123,#124,#125,#126,#127,#128,
    #129,#130,#131,#132,#133,#134,#135,#136,#137,#138,#139,#140,#141,
    #142,#143,#144),.UNSPECIFIED.,.F.,.F.,(8,6,6,6,6,6,6,6,8),(0.,
    0.122371008587,0.293097596333,0.33441049862,0.483098447267,
    0.524075491642,0.694419815702,0.889000004627,1.),.UNSPECIFIED.);
#95 = CARTESIAN_POINT('',(121.82087223538,-31.1126983722,549.53730162779
    ));
#96 = CARTESIAN_POINT('',(121.79129722816,-31.22292488096,
    549.53730162779));
#97 = CARTESIAN_POINT('',(121.75990434066,-31.33250232931,
    549.54153296137));
#98 = CARTESIAN_POINT('',(121.7270397318,-31.4413510244,549.54990576502)
  );
#99 = CARTESIAN_POINT('',(121.69303310736,-31.54941401709,
    549.56234682442));
#100 = CARTESIAN_POINT('',(121.65820407613,-31.65665974945,
    549.57880354701));
#101 = CARTESIAN_POINT('',(121.62287103734,-31.7630857626,
    549.59925442264));
#102 = CARTESIAN_POINT('',(121.53782280611,-32.01610448763,
    549.65786758967));
#103 = CARTESIAN_POINT('',(121.48799440036,-32.16179494734,
    549.69979925945));
#104 = CARTESIAN_POINT('',(121.4387146755,-32.30605081682,549.7496013604
    ));
#105 = CARTESIAN_POINT('',(121.39097404887,-32.44890540583,
    549.80751462286));
#106 = CARTESIAN_POINT('',(121.34598781704,-32.59023943472,
    549.87385183631));
#107 = CARTESIAN_POINT('',(121.30529194076,-32.72982408872,
    549.94903283369));
#108 = CARTESIAN_POINT('',(121.26215614737,-32.90048669171,
    550.05395793344));
#109 = CARTESIAN_POINT('',(121.25410368661,-32.93359999738,
    550.0749391897));
#110 = CARTESIAN_POINT('',(121.24642753077,-32.96656512602,
    550.09646162424));
#111 = CARTESIAN_POINT('',(121.23915262238,-32.99936974962,
    550.11852712297));
#112 = CARTESIAN_POINT('',(121.23230390446,-33.03199951193,
    550.14113595638));
#113 = CARTESIAN_POINT('',(121.22590574338,-33.06443804546,
    550.16428637518));
#114 = CARTESIAN_POINT('',(121.19865906323,-33.21266114866,
    550.27322832219));
#115 = CARTESIAN_POINT('',(121.1834114213,-33.32628083558,
    550.36569373805));
#116 = CARTESIAN_POINT('',(121.17548309255,-33.43607532269,
    550.46483267122));
#117 = CARTESIAN_POINT('',(121.17567818848,-33.54086171192,
    550.56988167991));
#118 = CARTESIAN_POINT('',(121.18397955646,-33.63968805416,
    550.67987584249));
#119 = CARTESIAN_POINT('',(121.1995581719,-33.73181949712,
    550.79364373965));
#120 = CARTESIAN_POINT('',(121.22712937996,-33.84015283355,
    550.94177747125));
#121 = CARTESIAN_POINT('',(121.23354901755,-33.86302885293,
    550.9739853488));
#122 = CARTESIAN_POINT('',(121.24040875471,-33.88537172618,
    551.00637918176));
#123 = CARTESIAN_POINT('',(121.24768474442,-33.90717996584,
    551.03894321088));
#124 = CARTESIAN_POINT('',(121.25535262819,-33.92845400453,
    551.07166362196));
#125 = CARTESIAN_POINT('',(121.26338808183,-33.94919581013,
    551.10452856032));
#126 = CARTESIAN_POINT('',(121.30660058804,-34.05343401347,
    551.27470963476));
#127 = CARTESIAN_POINT('',(121.34733022174,-34.1282063191,
    551.41403928036));
#128 = CARTESIAN_POINT('',(121.3922958471,-34.19418315316,
    551.55510420006));
#129 = CARTESIAN_POINT('',(121.439978178,-34.25178039917,551.69768151942
    ));
#130 = CARTESIAN_POINT('',(121.48917372678,-34.30130721655,551.841655366
    ));
#131 = CARTESIAN_POINT('',(121.53890055443,-34.34300024999,
    551.98705945889));
#132 = CARTESIAN_POINT('',(121.64478560058,-34.41570304171,552.3021594)
  );
#133 = CARTESIAN_POINT('',(121.70075565953,-34.44428302288,
    552.47208175481));
#134 = CARTESIAN_POINT('',(121.75496101069,-34.46282970018,
    552.64416399211));
#135 = CARTESIAN_POINT('',(121.80615957518,-34.47111750938,
    552.81834442293));
#136 = CARTESIAN_POINT('',(121.85300598506,-34.46879024684,
    552.9943116195));
#137 = CARTESIAN_POINT('',(121.8940340114,-34.45543561505,
    553.17150941161));
#138 = CARTESIAN_POINT('',(121.94679739589,-34.41660459552,
    553.45048130125));
#139 = CARTESIAN_POINT('',(121.96353680242,-34.3988052889,
    553.55191380125));
#140 = CARTESIAN_POINT('',(121.97754414136,-34.37726090302,
    553.65324475103));
#141 = CARTESIAN_POINT('',(121.98850107321,-34.35194507167,
    553.75421083756));
#142 = CARTESIAN_POINT('',(121.99608643511,-34.32287650729,
    553.85448837253));
#143 = CARTESIAN_POINT('',(122.,-34.29014355871,553.95369781404));
#144 = CARTESIAN_POINT('',(122.,-34.25393276719,554.05140921545));
#145 = ORIENTED_EDGE('',*,*,#146,.F.);
#146 = EDGE_CURVE('',#147,#92,#149,.T.);
#147 = VERTEX_POINT('',#148);
#148 = CARTESIAN_POINT('',(122.,-34.2539327672,613.94859078453));
#149 = CIRCLE('',#150,45.5);
#150 = AXIS2_PLACEMENT_3D('',#151,#152,#153);
#151 = CARTESIAN_POINT('',(122.,0.,584.));
#152 = DIRECTION('',(1.,0.,-0.));
#153 = DIRECTION('',(0.,0.,1.));
#154 = ORIENTED_EDGE('',*,*,#155,.T.);
#155 = EDGE_CURVE('',#147,#156,#158,.T.);
#156 = VERTEX_POINT('',#157);
#157 = CARTESIAN_POINT('',(122.,-29.94859078453,618.2539327672));
#158 = B_SPLINE_CURVE_WITH_KNOTS('',7,(#159,#160,#161,#162,#163,#164,
    #165,#166,#167,#168,#169,#170,#171,#172,#173,#174,#175,#176,#177,
    #178,#179,#180,#181,#182,#183,#184,#185,#186,#187,#188,#189,#190,
    #191,#192,#193,#194,#195,#196,#197,#198,#199,#200,#201,#202,#203,
    #204,#205,#206,#207,#208,#209,#210,#211,#212,#213,#214),
  .UNSPECIFIED.,.F.,.F.,(8,6,6,6,6,6,6,6,6,8),(0.,9.407367252313E-02,
    0.258573957262,0.402804765018,0.437706143569,0.563318581678,
    0.597936225525,0.74184409471,0.906226562564,1.),.UNSPECIFIED.);
#159 = CARTESIAN_POINT('',(122.,-34.25393276721,613.94859078453));
#160 = CARTESIAN_POINT('',(122.,-34.29025714995,614.04660870112));
#161 = CARTESIAN_POINT('',(121.99606184226,-34.3230818018,
    614.14613398033));
#162 = CARTESIAN_POINT('',(121.98842959504,-34.35221845603,
    614.24673267025));
#163 = CARTESIAN_POINT('',(121.97740649379,-34.37757825702,
    614.34802186121));
#164 = CARTESIAN_POINT('',(121.96331685507,-34.39914275754,
    614.44967519941));
#165 = CARTESIAN_POINT('',(121.94648199518,-34.41693899161,
    614.55142746127));
#166 = CARTESIAN_POINT('',(121.8935107842,-34.45563872454,
    614.83082795775));
#167 = CARTESIAN_POINT('',(121.85238590598,-34.4688752665,615.0081281768
    ));
#168 = CARTESIAN_POINT('',(121.8054498246,-34.47107419888,
    615.18419014044));
#169 = CARTESIAN_POINT('',(121.75417005203,-34.46264832049,
    615.35845951103));
#170 = CARTESIAN_POINT('',(121.69989354485,-34.4439533935,
    615.53062636036));
#171 = CARTESIAN_POINT('',(121.6438644675,-34.41521373748,
    615.70063024933));
#172 = CARTESIAN_POINT('',(121.53782280611,-34.34213241032,
    616.01610448763));
#173 = CARTESIAN_POINT('',(121.48799440036,-34.30020074054,
    616.16179494735));
#174 = CARTESIAN_POINT('',(121.4387146755,-34.25039863959,
    616.30605081682));
#175 = CARTESIAN_POINT('',(121.39097404887,-34.19248537713,
    616.44890540583));
#176 = CARTESIAN_POINT('',(121.34598781704,-34.12614816368,
    616.59023943472));
#177 = CARTESIAN_POINT('',(121.30529194076,-34.0509671663,
    616.72982408872));
#178 = CARTESIAN_POINT('',(121.26215614737,-33.94604206656,
    616.90048669171));
#179 = CARTESIAN_POINT('',(121.25410368661,-33.9250608103,
    616.93359999738));
#180 = CARTESIAN_POINT('',(121.24642753077,-33.90353837575,
    616.96656512602));
#181 = CARTESIAN_POINT('',(121.23915262238,-33.88147287702,
    616.99936974962));
#182 = CARTESIAN_POINT('',(121.23230390446,-33.85886404362,
    617.03199951193));
#183 = CARTESIAN_POINT('',(121.22590574338,-33.83571362481,
    617.06443804546));
#184 = CARTESIAN_POINT('',(121.19865906323,-33.7267716778,
    617.21266114866));
#185 = CARTESIAN_POINT('',(121.1834114213,-33.63430626194,
    617.32628083558));
#186 = CARTESIAN_POINT('',(121.17548309255,-33.53516732877,
    617.43607532269));
#187 = CARTESIAN_POINT('',(121.17567818848,-33.43011832009,
    617.54086171192));
#188 = CARTESIAN_POINT('',(121.18397955646,-33.3201241575,
    617.63968805416));
#189 = CARTESIAN_POINT('',(121.1995581719,-33.20635626034,
    617.73181949712));
#190 = CARTESIAN_POINT('',(121.22712937996,-33.05822252874,
    617.84015283355));
#191 = CARTESIAN_POINT('',(121.23354901755,-33.0260146512,
    617.86302885293));
#192 = CARTESIAN_POINT('',(121.24040875471,-32.99362081824,
    617.88537172618));
#193 = CARTESIAN_POINT('',(121.24768474442,-32.96105678911,
    617.90717996584));
#194 = CARTESIAN_POINT('',(121.25535262819,-32.92833637803,
    617.92845400453));
#195 = CARTESIAN_POINT('',(121.26338808183,-32.89547143967,
    617.94919581013));
#196 = CARTESIAN_POINT('',(121.30660058804,-32.72529036524,
    618.05343401347));
#197 = CARTESIAN_POINT('',(121.34733022174,-32.58596071963,
    618.12820631909));
#198 = CARTESIAN_POINT('',(121.3922958471,-32.44489579994,
    618.19418315316));
#199 = CARTESIAN_POINT('',(121.439978178,-32.30231848057,618.25178039917
    ));
#200 = CARTESIAN_POINT('',(121.48917372678,-32.15834463399,
    618.30130721655));
#201 = CARTESIAN_POINT('',(121.53890055443,-32.0129405411,
    618.34300024999));
#202 = CARTESIAN_POINT('',(121.64478560058,-31.69784059999,
    618.41570304171));
#203 = CARTESIAN_POINT('',(121.70075565953,-31.52791824519,
    618.44428302288));
#204 = CARTESIAN_POINT('',(121.75496101069,-31.35583600788,
    618.46282970018));
#205 = CARTESIAN_POINT('',(121.80615957518,-31.18165557706,
    618.47111750939));
#206 = CARTESIAN_POINT('',(121.85300598506,-31.00568838049,
    618.46879024684));
#207 = CARTESIAN_POINT('',(121.8940340114,-30.82849058838,
    618.45543561505));
#208 = CARTESIAN_POINT('',(121.9467973959,-30.54951869874,
    618.41660459552));
#209 = CARTESIAN_POINT('',(121.96353680242,-30.44808619875,
    618.39880528888));
#210 = CARTESIAN_POINT('',(121.97754414136,-30.34675524894,
    618.37726090305));
#211 = CARTESIAN_POINT('',(121.98850107321,-30.24578916242,
    618.35194507168));
#212 = CARTESIAN_POINT('',(121.99608643512,-30.14551162748,
    618.32287650725));
#213 = CARTESIAN_POINT('',(122.,-30.04630218592,618.29014355872));
#214 = CARTESIAN_POINT('',(122.,-29.94859078453,618.25393276721));
#215 = ORIENTED_EDGE('',*,*,#216,.F.);
#216 = EDGE_CURVE('',#217,#156,#219,.T.);
#217 = VERTEX_POINT('',#218);
#218 = CARTESIAN_POINT('',(122.,0.,629.5));
#219 = CIRCLE('',#220,45.5);
#220 = AXIS2_PLACEMENT_3D('',#221,#222,#223);
#221 = CARTESIAN_POINT('',(122.,0.,584.));
#222 = DIRECTION('',(1.,0.,-0.));
#223 = DIRECTION('',(0.,0.,1.));
#224 = ORIENTED_EDGE('',*,*,#225,.F.);
#225 = EDGE_CURVE('',#24,#217,#226,.T.);
#226 = CIRCLE('',#227,2.5);
#227 = AXIS2_PLACEMENT_3D('',#228,#229,#230);
#228 = CARTESIAN_POINT('',(119.5,0.,629.5));
#229 = DIRECTION('',(0.,1.,0.));
#230 = DIRECTION('',(0.,0.,1.));
#231 = ORIENTED_EDGE('',*,*,#31,.T.);
#232 = ORIENTED_EDGE('',*,*,#225,.T.);
#233 = ORIENTED_EDGE('',*,*,#234,.F.);
#234 = EDGE_CURVE('',#235,#217,#237,.T.);
#235 = VERTEX_POINT('',#236);
#236 = CARTESIAN_POINT('',(122.,29.948590784538,618.2539327672));
#237 = CIRCLE('',#238,45.5);
#238 = AXIS2_PLACEMENT_3D('',#239,#240,#241);
#239 = CARTESIAN_POINT('',(122.,0.,584.));
#240 = DIRECTION('',(1.,0.,-0.));
#241 = DIRECTION('',(0.,0.,1.));
#242 = ORIENTED_EDGE('',*,*,#243,.T.);
#243 = EDGE_CURVE('',#235,#244,#246,.T.);
#244 = VERTEX_POINT('',#245);
#245 = CARTESIAN_POINT('',(122.,34.253932767208,613.94859078453));
#246 = B_SPLINE_CURVE_WITH_KNOTS('',7,(#247,#248,#249,#250,#251,#252,
    #253,#254,#255,#256,#257,#258,#259,#260,#261,#262,#263,#264,#265,
    #266,#267,#268,#269,#270,#271,#272,#273,#274,#275,#276,#277,#278,
    #279,#280,#281,#282,#283,#284,#285,#286,#287,#288,#289,#290,#291,
    #292,#293,#294,#295,#296,#297,#298,#299,#300,#301,#302),
  .UNSPECIFIED.,.F.,.F.,(8,6,6,6,6,6,6,6,6,8),(0.,9.407367252298E-02,
    0.258573957261,0.402804765017,0.437706143568,0.563318581678,
    0.597936225525,0.74184409471,0.906226562564,1.),.UNSPECIFIED.);
#247 = CARTESIAN_POINT('',(122.,29.948590784532,618.25393276721));
#248 = CARTESIAN_POINT('',(122.,30.046608701129,618.29025714995));
#249 = CARTESIAN_POINT('',(121.99606184226,30.14613398033,618.3230818018
    ));
#250 = CARTESIAN_POINT('',(121.98842959504,30.246732670255,
    618.35221845603));
#251 = CARTESIAN_POINT('',(121.97740649379,30.348021861217,
    618.37757825702));
#252 = CARTESIAN_POINT('',(121.96331685507,30.44967519941,
    618.39914275754));
#253 = CARTESIAN_POINT('',(121.94648199518,30.551427461276,
    618.41693899161));
#254 = CARTESIAN_POINT('',(121.8935107842,30.830827957757,
    618.45563872455));
#255 = CARTESIAN_POINT('',(121.85238590597,31.008128176803,
    618.4688752665));
#256 = CARTESIAN_POINT('',(121.80544982461,31.184190140442,
    618.47107419888));
#257 = CARTESIAN_POINT('',(121.75417005203,31.358459511037,
    618.46264832049));
#258 = CARTESIAN_POINT('',(121.69989354485,31.530626360367,
    618.4439533935));
#259 = CARTESIAN_POINT('',(121.6438644675,31.700630249334,
    618.41521373748));
#260 = CARTESIAN_POINT('',(121.53782280611,32.016104487635,
    618.34213241032));
#261 = CARTESIAN_POINT('',(121.48799440036,32.161794947351,
    618.30020074054));
#262 = CARTESIAN_POINT('',(121.4387146755,32.306050816823,
    618.25039863959));
#263 = CARTESIAN_POINT('',(121.39097404887,32.448905405838,
    618.19248537712));
#264 = CARTESIAN_POINT('',(121.34598781704,32.590239434727,
    618.12614816368));
#265 = CARTESIAN_POINT('',(121.30529194076,32.729824088721,
    618.0509671663));
#266 = CARTESIAN_POINT('',(121.26215614737,32.900486691715,
    617.94604206656));
#267 = CARTESIAN_POINT('',(121.25410368661,32.933599997381,
    617.9250608103));
#268 = CARTESIAN_POINT('',(121.24642753077,32.966565126029,
    617.90353837575));
#269 = CARTESIAN_POINT('',(121.23915262238,32.999369749623,
    617.88147287702));
#270 = CARTESIAN_POINT('',(121.23230390446,33.031999511935,
    617.85886404362));
#271 = CARTESIAN_POINT('',(121.22590574338,33.064438045469,
    617.83571362481));
#272 = CARTESIAN_POINT('',(121.19865906323,33.212661148666,
    617.7267716778));
#273 = CARTESIAN_POINT('',(121.1834114213,33.326280835587,
    617.63430626194));
#274 = CARTESIAN_POINT('',(121.17548309255,33.436075322696,
    617.53516732877));
#275 = CARTESIAN_POINT('',(121.17567818848,33.54086171192,
    617.43011832009));
#276 = CARTESIAN_POINT('',(121.18397955646,33.639688054161,
    617.3201241575));
#277 = CARTESIAN_POINT('',(121.1995581719,33.731819497125,
    617.20635626034));
#278 = CARTESIAN_POINT('',(121.22712937996,33.840152833549,
    617.05822252875));
#279 = CARTESIAN_POINT('',(121.23354901755,33.863028852933,
    617.0260146512));
#280 = CARTESIAN_POINT('',(121.24040875471,33.885371726185,
    616.99362081824));
#281 = CARTESIAN_POINT('',(121.24768474442,33.907179965843,
    616.96105678911));
#282 = CARTESIAN_POINT('',(121.25535262819,33.928454004534,
    616.92833637803));
#283 = CARTESIAN_POINT('',(121.26338808183,33.949195810137,
    616.89547143967));
#284 = CARTESIAN_POINT('',(121.30660058804,34.053434013477,
    616.72529036524));
#285 = CARTESIAN_POINT('',(121.34733022174,34.1282063191,616.58596071963
    ));
#286 = CARTESIAN_POINT('',(121.3922958471,34.19418315316,616.44489579994
    ));
#287 = CARTESIAN_POINT('',(121.439978178,34.251780399178,616.30231848057
    ));
#288 = CARTESIAN_POINT('',(121.48917372678,34.30130721655,
    616.15834463399));
#289 = CARTESIAN_POINT('',(121.53890055443,34.343000249993,
    616.0129405411));
#290 = CARTESIAN_POINT('',(121.64478560058,34.415703041713,
    615.69784059999));
#291 = CARTESIAN_POINT('',(121.70075565953,34.444283022882,
    615.52791824518));
#292 = CARTESIAN_POINT('',(121.75496101069,34.462829700185,
    615.35583600789));
#293 = CARTESIAN_POINT('',(121.80615957519,34.471117509387,
    615.18165557706));
#294 = CARTESIAN_POINT('',(121.85300598505,34.468790246849,
    615.0056883805));
#295 = CARTESIAN_POINT('',(121.8940340114,34.455435615054,
    614.82849058838));
#296 = CARTESIAN_POINT('',(121.9467973959,34.416604595523,
    614.54951869874));
#297 = CARTESIAN_POINT('',(121.96353680242,34.398805288885,
    614.44808619875));
#298 = CARTESIAN_POINT('',(121.97754414136,34.377260903052,
    614.34675524894));
#299 = CARTESIAN_POINT('',(121.98850107321,34.351945071686,
    614.24578916242));
#300 = CARTESIAN_POINT('',(121.99608643512,34.322876507255,
    614.14551162748));
#301 = CARTESIAN_POINT('',(122.,34.290143558723,614.04630218593));
#302 = CARTESIAN_POINT('',(122.,34.253932767211,613.94859078453));
#303 = ORIENTED_EDGE('',*,*,#304,.F.);
#304 = EDGE_CURVE('',#305,#244,#307,.T.);
#305 = VERTEX_POINT('',#306);
#306 = CARTESIAN_POINT('',(122.,34.253932767207,554.05140921546));
#307 = CIRCLE('',#308,45.5);
#308 = AXIS2_PLACEMENT_3D('',#309,#310,#311);
#309 = CARTESIAN_POINT('',(122.,0.,584.));
#310 = DIRECTION('',(1.,0.,-0.));
#311 = DIRECTION('',(0.,0.,1.));
#312 = ORIENTED_EDGE('',*,*,#313,.T.);
#313 = EDGE_CURVE('',#305,#55,#314,.T.);
#314 = B_SPLINE_CURVE_WITH_KNOTS('',7,(#315,#316,#317,#318,#319,#320,
    #321,#322,#323,#324,#325,#326,#327,#328,#329,#330,#331,#332,#333,
    #334,#335,#336,#337,#338,#339,#340,#341,#342,#343,#344,#345,#346,
    #347,#348,#349,#350,#351,#352,#353,#354,#355,#356,#357,#358,#359,
    #360,#361,#362,#363,#364,#365,#366,#367,#368,#369,#370),
  .UNSPECIFIED.,.F.,.F.,(8,6,6,6,6,6,6,6,6,8),(0.,0.111354512828,
    0.306072637219,0.476797888003,0.518110466768,0.666797251037,
    0.707773974521,0.878116964611,0.94215232906,1.),.UNSPECIFIED.);
#315 = CARTESIAN_POINT('',(122.,34.253932767198,554.05140921545));
#316 = CARTESIAN_POINT('',(122.,34.290257149939,553.95339129885));
#317 = CARTESIAN_POINT('',(121.99606184226,34.323081801847,
    553.85386601969));
#318 = CARTESIAN_POINT('',(121.98842959504,34.352218456021,
    553.75326732973));
#319 = CARTESIAN_POINT('',(121.97740649379,34.377578256998,
    553.65197813876));
#320 = CARTESIAN_POINT('',(121.96331685507,34.399142757567,
    553.5503248006));
#321 = CARTESIAN_POINT('',(121.94648199518,34.416938991613,
    553.44857253871));
#322 = CARTESIAN_POINT('',(121.8935107842,34.455638724549,
    553.16917204224));
#323 = CARTESIAN_POINT('',(121.85238590597,34.468875266504,
    552.99187182319));
#324 = CARTESIAN_POINT('',(121.80544982461,34.471074198884,
    552.81580985956));
#325 = CARTESIAN_POINT('',(121.75417005203,34.462648320496,
    552.64154048895));
#326 = CARTESIAN_POINT('',(121.69989354485,34.4439533935,552.46937363963
    ));
#327 = CARTESIAN_POINT('',(121.6438644675,34.415213737488,
    552.29936975066));
#328 = CARTESIAN_POINT('',(121.53782280611,34.342132410327,
    551.98389551236));
#329 = CARTESIAN_POINT('',(121.48799440036,34.300200740544,
    551.83820505265));
#330 = CARTESIAN_POINT('',(121.4387146755,34.250398639591,
    551.69394918317));
#331 = CARTESIAN_POINT('',(121.39097404887,34.192485377132,
    551.55109459416));
#332 = CARTESIAN_POINT('',(121.34598781704,34.126148163687,
    551.40976056527));
#333 = CARTESIAN_POINT('',(121.30529194076,34.050967166302,
    551.27017591127));
#334 = CARTESIAN_POINT('',(121.26215614737,33.94604206656,
    551.09951330828));
#335 = CARTESIAN_POINT('',(121.25410368661,33.9250608103,551.06640000261
    ));
#336 = CARTESIAN_POINT('',(121.24642753077,33.903538375759,
    551.03343487397));
#337 = CARTESIAN_POINT('',(121.23915262238,33.881472877028,
    551.00063025037));
#338 = CARTESIAN_POINT('',(121.23230390446,33.85886404362,
    550.96800048806));
#339 = CARTESIAN_POINT('',(121.22590574338,33.835713624811,
    550.93556195453));
#340 = CARTESIAN_POINT('',(121.19865906323,33.726771677806,
    550.78733885133));
#341 = CARTESIAN_POINT('',(121.1834114213,33.634306261944,
    550.67371916441));
#342 = CARTESIAN_POINT('',(121.17548309255,33.535167328776,
    550.5639246773));
#343 = CARTESIAN_POINT('',(121.17567818848,33.430118320089,
    550.45913828807));
#344 = CARTESIAN_POINT('',(121.18397955646,33.320124157503,
    550.36031194583));
#345 = CARTESIAN_POINT('',(121.1995581719,33.206356260346,
    550.26818050287));
#346 = CARTESIAN_POINT('',(121.22712937996,33.058222528748,
    550.15984716644));
#347 = CARTESIAN_POINT('',(121.23354901755,33.0260146512,550.13697114706
    ));
#348 = CARTESIAN_POINT('',(121.24040875471,32.993620818239,
    550.11462827381));
#349 = CARTESIAN_POINT('',(121.24768474442,32.961056789117,
    550.09282003415));
#350 = CARTESIAN_POINT('',(121.25535262819,32.928336378032,
    550.07154599546));
#351 = CARTESIAN_POINT('',(121.26338808183,32.895471439676,
    550.05080418986));
#352 = CARTESIAN_POINT('',(121.30660058804,32.72529036524,
    549.94656598652));
#353 = CARTESIAN_POINT('',(121.34733022174,32.585960719632,
    549.8717936809));
#354 = CARTESIAN_POINT('',(121.3922958471,32.44489579994,549.80581684683
    ));
#355 = CARTESIAN_POINT('',(121.439978178,32.30231848057,549.74821960082)
  );
#356 = CARTESIAN_POINT('',(121.48917372678,32.158344633994,
    549.69869278344));
#357 = CARTESIAN_POINT('',(121.53890055443,32.012940541101,549.65699975)
  );
#358 = CARTESIAN_POINT('',(121.60690737871,31.810561195701,
    549.61030490346));
#359 = CARTESIAN_POINT('',(121.62543891505,31.755049596896,
    549.59864761126));
#360 = CARTESIAN_POINT('',(121.64387375783,31.699316927773,
    549.58808772643));
#361 = CARTESIAN_POINT('',(121.66216514175,31.643362592024,
    549.57862533204));
#362 = CARTESIAN_POINT('',(121.68026694305,31.587187479619,
    549.5702632005));
#363 = CARTESIAN_POINT('',(121.69813324877,31.530793779344,
    549.56300643014));
#364 = CARTESIAN_POINT('',(121.73160340782,31.423045891145,
    549.55131145783));
#365 = CARTESIAN_POINT('',(121.74725884159,31.371731998053,
    549.54666874519));
#366 = CARTESIAN_POINT('',(121.76265017483,31.320245797214,
    549.54293915684));
#367 = CARTESIAN_POINT('',(121.7777428765,31.268591756237,
    549.54012939495));
#368 = CARTESIAN_POINT('',(121.79250168383,31.21677648416,
    549.53824731571));
#369 = CARTESIAN_POINT('',(121.80689047041,31.164808637336,
    549.53730162822));
#370 = CARTESIAN_POINT('',(121.82087223538,31.112698372208,
    549.53730162779));
#371 = TOROIDAL_SURFACE('',#372,45.5,2.5);
#372 = AXIS2_PLACEMENT_3D('',#373,#374,#375);
#373 = CARTESIAN_POINT('',(119.5,0.,584.));
#374 = DIRECTION('',(1.,0.,0.));
#375 = DIRECTION('',(0.,0.,1.));
#376 = ADVANCED_FACE('',(#377,#380,#391,#402,#413),#424,.F.);
#377 = FACE_BOUND('',#378,.F.);
#378 = EDGE_LOOP('',(#379));
#379 = ORIENTED_EDGE('',*,*,#39,.T.);
#380 = FACE_BOUND('',#381,.F.);
#381 = EDGE_LOOP('',(#382));
#382 = ORIENTED_EDGE('',*,*,#383,.T.);
#383 = EDGE_CURVE('',#384,#384,#386,.T.);
#384 = VERTEX_POINT('',#385);
#385 = CARTESIAN_POINT('',(115.,31.112698372208,551.18730162779));
#386 = CIRCLE('',#387,1.7);
#387 = AXIS2_PLACEMENT_3D('',#388,#389,#390);
#388 = CARTESIAN_POINT('',(115.,31.112698372208,552.88730162779));
#389 = DIRECTION('',(-1.,0.,0.));
#390 = DIRECTION('',(0.,0.,-1.));
#391 = FACE_BOUND('',#392,.F.);
#392 = EDGE_LOOP('',(#393));
#393 = ORIENTED_EDGE('',*,*,#394,.T.);
#394 = EDGE_CURVE('',#395,#395,#397,.T.);
#395 = VERTEX_POINT('',#396);
#396 = CARTESIAN_POINT('',(115.,31.112698372208,613.4126983722));
#397 = CIRCLE('',#398,1.7);
#398 = AXIS2_PLACEMENT_3D('',#399,#400,#401);
#399 = CARTESIAN_POINT('',(115.,31.112698372208,615.1126983722));
#400 = DIRECTION('',(-1.,0.,0.));
#401 = DIRECTION('',(0.,0.,-1.));
#402 = FACE_BOUND('',#403,.F.);
#403 = EDGE_LOOP('',(#404));
#404 = ORIENTED_EDGE('',*,*,#405,.T.);
#405 = EDGE_CURVE('',#406,#406,#408,.T.);
#406 = VERTEX_POINT('',#407);
#407 = CARTESIAN_POINT('',(115.,-31.1126983722,551.18730162779));
#408 = CIRCLE('',#409,1.7);
#409 = AXIS2_PLACEMENT_3D('',#410,#411,#412);
#410 = CARTESIAN_POINT('',(115.,-31.1126983722,552.88730162779));
#411 = DIRECTION('',(-1.,0.,0.));
#412 = DIRECTION('',(0.,0.,-1.));
#413 = FACE_BOUND('',#414,.F.);
#414 = EDGE_LOOP('',(#415));
#415 = ORIENTED_EDGE('',*,*,#416,.T.);
#416 = EDGE_CURVE('',#417,#417,#419,.T.);
#417 = VERTEX_POINT('',#418);
#418 = CARTESIAN_POINT('',(115.,-31.1126983722,613.4126983722));
#419 = CIRCLE('',#420,1.7);
#420 = AXIS2_PLACEMENT_3D('',#421,#422,#423);
#421 = CARTESIAN_POINT('',(115.,-31.1126983722,615.1126983722));
#422 = DIRECTION('',(-1.,0.,0.));
#423 = DIRECTION('',(0.,0.,-1.));
#424 = PLANE('',#425);
#425 = AXIS2_PLACEMENT_3D('',#426,#427,#428);
#426 = CARTESIAN_POINT('',(115.,0.,584.));
#427 = DIRECTION('',(1.,0.,0.));
#428 = DIRECTION('',(0.,0.,1.));
#429 = ADVANCED_FACE('',(#430),#483,.T.);
#430 = FACE_BOUND('',#431,.T.);
#431 = EDGE_LOOP('',(#432,#433,#442,#449,#450,#451,#460,#467,#468,#475,
    #476));
#432 = ORIENTED_EDGE('',*,*,#304,.T.);
#433 = ORIENTED_EDGE('',*,*,#434,.T.);
#434 = EDGE_CURVE('',#244,#435,#437,.T.);
#435 = VERTEX_POINT('',#436);
#436 = CARTESIAN_POINT('',(122.,31.112698372208,611.7626983722));
#437 = CIRCLE('',#438,3.35);
#438 = AXIS2_PLACEMENT_3D('',#439,#440,#441);
#439 = CARTESIAN_POINT('',(122.,31.112698372208,615.1126983722));
#440 = DIRECTION('',(-1.,0.,0.));
#441 = DIRECTION('',(0.,0.,-1.));
#442 = ORIENTED_EDGE('',*,*,#443,.T.);
#443 = EDGE_CURVE('',#435,#235,#444,.T.);
#444 = CIRCLE('',#445,3.35);
#445 = AXIS2_PLACEMENT_3D('',#446,#447,#448);
#446 = CARTESIAN_POINT('',(122.,31.112698372208,615.1126983722));
#447 = DIRECTION('',(-1.,0.,0.));
#448 = DIRECTION('',(0.,0.,-1.));
#449 = ORIENTED_EDGE('',*,*,#234,.T.);
#450 = ORIENTED_EDGE('',*,*,#216,.T.);
#451 = ORIENTED_EDGE('',*,*,#452,.T.);
#452 = EDGE_CURVE('',#156,#453,#455,.T.);
#453 = VERTEX_POINT('',#454);
#454 = CARTESIAN_POINT('',(122.,-31.1126983722,611.7626983722));
#455 = CIRCLE('',#456,3.35);
#456 = AXIS2_PLACEMENT_3D('',#457,#458,#459);
#457 = CARTESIAN_POINT('',(122.,-31.1126983722,615.1126983722));
#458 = DIRECTION('',(-1.,0.,0.));
#459 = DIRECTION('',(0.,0.,-1.));
#460 = ORIENTED_EDGE('',*,*,#461,.T.);
#461 = EDGE_CURVE('',#453,#147,#462,.T.);
#462 = CIRCLE('',#463,3.35);
#463 = AXIS2_PLACEMENT_3D('',#464,#465,#466);
#464 = CARTESIAN_POINT('',(122.,-31.1126983722,615.1126983722));
#465 = DIRECTION('',(-1.,0.,0.));
#466 = DIRECTION('',(0.,0.,-1.));
#467 = ORIENTED_EDGE('',*,*,#146,.T.);
#468 = ORIENTED_EDGE('',*,*,#469,.T.);
#469 = EDGE_CURVE('',#92,#70,#470,.T.);
#470 = CIRCLE('',#471,3.35);
#471 = AXIS2_PLACEMENT_3D('',#472,#473,#474);
#472 = CARTESIAN_POINT('',(122.,-31.1126983722,552.88730162779));
#473 = DIRECTION('',(-1.,0.,0.));
#474 = DIRECTION('',(0.,0.,-1.));
#475 = ORIENTED_EDGE('',*,*,#69,.T.);
#476 = ORIENTED_EDGE('',*,*,#477,.T.);
#477 = EDGE_CURVE('',#57,#305,#478,.T.);
#478 = CIRCLE('',#479,3.35);
#479 = AXIS2_PLACEMENT_3D('',#480,#481,#482);
#480 = CARTESIAN_POINT('',(122.,31.112698372208,552.88730162779));
#481 = DIRECTION('',(-1.,0.,0.));
#482 = DIRECTION('',(0.,0.,-1.));
#483 = PLANE('',#484);
#484 = AXIS2_PLACEMENT_3D('',#485,#486,#487);
#485 = CARTESIAN_POINT('',(122.,0.,584.));
#486 = DIRECTION('',(1.,0.,0.));
#487 = DIRECTION('',(0.,0.,1.));
#488 = ADVANCED_FACE('',(#489),#510,.F.);
#489 = FACE_BOUND('',#490,.F.);
#490 = EDGE_LOOP('',(#491,#499,#506,#507,#508,#509));
#491 = ORIENTED_EDGE('',*,*,#492,.T.);
#492 = EDGE_CURVE('',#453,#493,#495,.T.);
#493 = VERTEX_POINT('',#494);
#494 = CARTESIAN_POINT('',(118.99,-31.1126983722,611.7626983722));
#495 = LINE('',#496,#497);
#496 = CARTESIAN_POINT('',(122.,-31.1126983722,611.7626983722));
#497 = VECTOR('',#498,1.);
#498 = DIRECTION('',(-1.,0.,0.));
#499 = ORIENTED_EDGE('',*,*,#500,.F.);
#500 = EDGE_CURVE('',#493,#493,#501,.T.);
#501 = CIRCLE('',#502,3.35);
#502 = AXIS2_PLACEMENT_3D('',#503,#504,#505);
#503 = CARTESIAN_POINT('',(118.99,-31.1126983722,615.1126983722));
#504 = DIRECTION('',(-1.,0.,0.));
#505 = DIRECTION('',(0.,0.,-1.));
#506 = ORIENTED_EDGE('',*,*,#492,.F.);
#507 = ORIENTED_EDGE('',*,*,#461,.T.);
#508 = ORIENTED_EDGE('',*,*,#155,.T.);
#509 = ORIENTED_EDGE('',*,*,#452,.T.);
#510 = CYLINDRICAL_SURFACE('',#511,3.35);
#511 = AXIS2_PLACEMENT_3D('',#512,#513,#514);
#512 = CARTESIAN_POINT('',(122.,-31.1126983722,615.1126983722));
#513 = DIRECTION('',(-1.,0.,0.));
#514 = DIRECTION('',(0.,0.,-1.));
#515 = ADVANCED_FACE('',(#516),#537,.F.);
#516 = FACE_BOUND('',#517,.F.);
#517 = EDGE_LOOP('',(#518,#526,#533,#534,#535,#536));
#518 = ORIENTED_EDGE('',*,*,#519,.T.);
#519 = EDGE_CURVE('',#79,#520,#522,.T.);
#520 = VERTEX_POINT('',#521);
#521 = CARTESIAN_POINT('',(118.99,-31.1126983722,549.53730162779));
#522 = LINE('',#523,#524);
#523 = CARTESIAN_POINT('',(122.,-31.1126983722,549.53730162779));
#524 = VECTOR('',#525,1.);
#525 = DIRECTION('',(-1.,0.,0.));
#526 = ORIENTED_EDGE('',*,*,#527,.F.);
#527 = EDGE_CURVE('',#520,#520,#528,.T.);
#528 = CIRCLE('',#529,3.35);
#529 = AXIS2_PLACEMENT_3D('',#530,#531,#532);
#530 = CARTESIAN_POINT('',(118.99,-31.1126983722,552.88730162779));
#531 = DIRECTION('',(-1.,0.,0.));
#532 = DIRECTION('',(0.,0.,-1.));
#533 = ORIENTED_EDGE('',*,*,#519,.F.);
#534 = ORIENTED_EDGE('',*,*,#91,.T.);
#535 = ORIENTED_EDGE('',*,*,#469,.T.);
#536 = ORIENTED_EDGE('',*,*,#78,.T.);
#537 = CYLINDRICAL_SURFACE('',#538,3.35);
#538 = AXIS2_PLACEMENT_3D('',#539,#540,#541);
#539 = CARTESIAN_POINT('',(122.,-31.1126983722,552.88730162779));
#540 = DIRECTION('',(-1.,0.,0.));
#541 = DIRECTION('',(0.,0.,-1.));
#542 = ADVANCED_FACE('',(#543),#564,.F.);
#543 = FACE_BOUND('',#544,.F.);
#544 = EDGE_LOOP('',(#545,#553,#560,#561,#562,#563));
#545 = ORIENTED_EDGE('',*,*,#546,.T.);
#546 = EDGE_CURVE('',#55,#547,#549,.T.);
#547 = VERTEX_POINT('',#548);
#548 = CARTESIAN_POINT('',(118.99,31.112698372208,549.53730162779));
#549 = LINE('',#550,#551);
#550 = CARTESIAN_POINT('',(122.,31.112698372208,549.53730162779));
#551 = VECTOR('',#552,1.);
#552 = DIRECTION('',(-1.,0.,0.));
#553 = ORIENTED_EDGE('',*,*,#554,.F.);
#554 = EDGE_CURVE('',#547,#547,#555,.T.);
#555 = CIRCLE('',#556,3.35);
#556 = AXIS2_PLACEMENT_3D('',#557,#558,#559);
#557 = CARTESIAN_POINT('',(118.99,31.112698372208,552.88730162779));
#558 = DIRECTION('',(-1.,0.,0.));
#559 = DIRECTION('',(0.,0.,-1.));
#560 = ORIENTED_EDGE('',*,*,#546,.F.);
#561 = ORIENTED_EDGE('',*,*,#54,.T.);
#562 = ORIENTED_EDGE('',*,*,#477,.T.);
#563 = ORIENTED_EDGE('',*,*,#313,.T.);
#564 = CYLINDRICAL_SURFACE('',#565,3.35);
#565 = AXIS2_PLACEMENT_3D('',#566,#567,#568);
#566 = CARTESIAN_POINT('',(122.,31.112698372208,552.88730162779));
#567 = DIRECTION('',(-1.,0.,0.));
#568 = DIRECTION('',(0.,0.,-1.));
#569 = ADVANCED_FACE('',(#570),#591,.F.);
#570 = FACE_BOUND('',#571,.F.);
#571 = EDGE_LOOP('',(#572,#580,#587,#588,#589,#590));
#572 = ORIENTED_EDGE('',*,*,#573,.T.);
#573 = EDGE_CURVE('',#435,#574,#576,.T.);
#574 = VERTEX_POINT('',#575);
#575 = CARTESIAN_POINT('',(118.99,31.112698372208,611.7626983722));
#576 = LINE('',#577,#578);
#577 = CARTESIAN_POINT('',(122.,31.112698372208,611.7626983722));
#578 = VECTOR('',#579,1.);
#579 = DIRECTION('',(-1.,0.,0.));
#580 = ORIENTED_EDGE('',*,*,#581,.F.);
#581 = EDGE_CURVE('',#574,#574,#582,.T.);
#582 = CIRCLE('',#583,3.35);
#583 = AXIS2_PLACEMENT_3D('',#584,#585,#586);
#584 = CARTESIAN_POINT('',(118.99,31.112698372208,615.1126983722));
#585 = DIRECTION('',(-1.,0.,0.));
#586 = DIRECTION('',(0.,0.,-1.));
#587 = ORIENTED_EDGE('',*,*,#573,.F.);
#588 = ORIENTED_EDGE('',*,*,#443,.T.);
#589 = ORIENTED_EDGE('',*,*,#243,.T.);
#590 = ORIENTED_EDGE('',*,*,#434,.T.);
#591 = CYLINDRICAL_SURFACE('',#592,3.35);
#592 = AXIS2_PLACEMENT_3D('',#593,#594,#595);
#593 = CARTESIAN_POINT('',(122.,31.112698372208,615.1126983722));
#594 = DIRECTION('',(-1.,0.,0.));
#595 = DIRECTION('',(0.,0.,-1.));
#596 = ADVANCED_FACE('',(#597),#616,.F.);
#597 = FACE_BOUND('',#598,.F.);
#598 = EDGE_LOOP('',(#599,#607,#608,#609));
#599 = ORIENTED_EDGE('',*,*,#600,.T.);
#600 = EDGE_CURVE('',#601,#384,#603,.T.);
#601 = VERTEX_POINT('',#602);
#602 = CARTESIAN_POINT('',(118.99,31.112698372208,551.18730162779));
#603 = LINE('',#604,#605);
#604 = CARTESIAN_POINT('',(119.01,31.112698372208,551.18730162779));
#605 = VECTOR('',#606,1.);
#606 = DIRECTION('',(-1.,0.,0.));
#607 = ORIENTED_EDGE('',*,*,#383,.F.);
#608 = ORIENTED_EDGE('',*,*,#600,.F.);
#609 = ORIENTED_EDGE('',*,*,#610,.T.);
#610 = EDGE_CURVE('',#601,#601,#611,.T.);
#611 = CIRCLE('',#612,1.7);
#612 = AXIS2_PLACEMENT_3D('',#613,#614,#615);
#613 = CARTESIAN_POINT('',(118.99,31.112698372208,552.88730162779));
#614 = DIRECTION('',(-1.,0.,0.));
#615 = DIRECTION('',(0.,0.,-1.));
#616 = CYLINDRICAL_SURFACE('',#617,1.7);
#617 = AXIS2_PLACEMENT_3D('',#618,#619,#620);
#618 = CARTESIAN_POINT('',(119.01,31.112698372208,552.88730162779));
#619 = DIRECTION('',(-1.,0.,0.));
#620 = DIRECTION('',(0.,0.,-1.));
#621 = ADVANCED_FACE('',(#622),#641,.F.);
#622 = FACE_BOUND('',#623,.F.);
#623 = EDGE_LOOP('',(#624,#632,#633,#634));
#624 = ORIENTED_EDGE('',*,*,#625,.T.);
#625 = EDGE_CURVE('',#626,#395,#628,.T.);
#626 = VERTEX_POINT('',#627);
#627 = CARTESIAN_POINT('',(118.99,31.112698372208,613.4126983722));
#628 = LINE('',#629,#630);
#629 = CARTESIAN_POINT('',(119.01,31.112698372208,613.4126983722));
#630 = VECTOR('',#631,1.);
#631 = DIRECTION('',(-1.,0.,0.));
#632 = ORIENTED_EDGE('',*,*,#394,.F.);
#633 = ORIENTED_EDGE('',*,*,#625,.F.);
#634 = ORIENTED_EDGE('',*,*,#635,.T.);
#635 = EDGE_CURVE('',#626,#626,#636,.T.);
#636 = CIRCLE('',#637,1.7);
#637 = AXIS2_PLACEMENT_3D('',#638,#639,#640);
#638 = CARTESIAN_POINT('',(118.99,31.112698372208,615.1126983722));
#639 = DIRECTION('',(-1.,0.,0.));
#640 = DIRECTION('',(0.,0.,-1.));
#641 = CYLINDRICAL_SURFACE('',#642,1.7);
#642 = AXIS2_PLACEMENT_3D('',#643,#644,#645);
#643 = CARTESIAN_POINT('',(119.01,31.112698372208,615.1126983722));
#644 = DIRECTION('',(-1.,0.,0.));
#645 = DIRECTION('',(0.,0.,-1.));
#646 = ADVANCED_FACE('',(#647),#666,.F.);
#647 = FACE_BOUND('',#648,.F.);
#648 = EDGE_LOOP('',(#649,#657,#658,#659));
#649 = ORIENTED_EDGE('',*,*,#650,.T.);
#650 = EDGE_CURVE('',#651,#406,#653,.T.);
#651 = VERTEX_POINT('',#652);
#652 = CARTESIAN_POINT('',(118.99,-31.1126983722,551.18730162779));
#653 = LINE('',#654,#655);
#654 = CARTESIAN_POINT('',(119.01,-31.1126983722,551.18730162779));
#655 = VECTOR('',#656,1.);
#656 = DIRECTION('',(-1.,0.,0.));
#657 = ORIENTED_EDGE('',*,*,#405,.F.);
#658 = ORIENTED_EDGE('',*,*,#650,.F.);
#659 = ORIENTED_EDGE('',*,*,#660,.T.);
#660 = EDGE_CURVE('',#651,#651,#661,.T.);
#661 = CIRCLE('',#662,1.7);
#662 = AXIS2_PLACEMENT_3D('',#663,#664,#665);
#663 = CARTESIAN_POINT('',(118.99,-31.1126983722,552.88730162779));
#664 = DIRECTION('',(-1.,0.,0.));
#665 = DIRECTION('',(0.,0.,-1.));
#666 = CYLINDRICAL_SURFACE('',#667,1.7);
#667 = AXIS2_PLACEMENT_3D('',#668,#669,#670);
#668 = CARTESIAN_POINT('',(119.01,-31.1126983722,552.88730162779));
#669 = DIRECTION('',(-1.,0.,0.));
#670 = DIRECTION('',(0.,0.,-1.));
#671 = ADVANCED_FACE('',(#672),#691,.F.);
#672 = FACE_BOUND('',#673,.F.);
#673 = EDGE_LOOP('',(#674,#682,#683,#684));
#674 = ORIENTED_EDGE('',*,*,#675,.T.);
#675 = EDGE_CURVE('',#676,#417,#678,.T.);
#676 = VERTEX_POINT('',#677);
#677 = CARTESIAN_POINT('',(118.99,-31.1126983722,613.4126983722));
#678 = LINE('',#679,#680);
#679 = CARTESIAN_POINT('',(119.01,-31.1126983722,613.4126983722));
#680 = VECTOR('',#681,1.);
#681 = DIRECTION('',(-1.,0.,0.));
#682 = ORIENTED_EDGE('',*,*,#416,.F.);
#683 = ORIENTED_EDGE('',*,*,#675,.F.);
#684 = ORIENTED_EDGE('',*,*,#685,.T.);
#685 = EDGE_CURVE('',#676,#676,#686,.T.);
#686 = CIRCLE('',#687,1.7);
#687 = AXIS2_PLACEMENT_3D('',#688,#689,#690);
#688 = CARTESIAN_POINT('',(118.99,-31.1126983722,615.1126983722));
#689 = DIRECTION('',(-1.,0.,0.));
#690 = DIRECTION('',(0.,0.,-1.));
#691 = CYLINDRICAL_SURFACE('',#692,1.7);
#692 = AXIS2_PLACEMENT_3D('',#693,#694,#695);
#693 = CARTESIAN_POINT('',(119.01,-31.1126983722,615.1126983722));
#694 = DIRECTION('',(-1.,0.,0.));
#695 = DIRECTION('',(0.,0.,-1.));
#696 = ADVANCED_FACE('',(#697,#700),#703,.F.);
#697 = FACE_BOUND('',#698,.F.);
#698 = EDGE_LOOP('',(#699));
#699 = ORIENTED_EDGE('',*,*,#500,.T.);
#700 = FACE_BOUND('',#701,.F.);
#701 = EDGE_LOOP('',(#702));
#702 = ORIENTED_EDGE('',*,*,#685,.F.);
#703 = PLANE('',#704);
#704 = AXIS2_PLACEMENT_3D('',#705,#706,#707);
#705 = CARTESIAN_POINT('',(118.99,-31.1126983722,615.1126983722));
#706 = DIRECTION('',(-1.,0.,0.));
#707 = DIRECTION('',(0.,0.,-1.));
#708 = ADVANCED_FACE('',(#709,#712),#715,.F.);
#709 = FACE_BOUND('',#710,.F.);
#710 = EDGE_LOOP('',(#711));
#711 = ORIENTED_EDGE('',*,*,#527,.T.);
#712 = FACE_BOUND('',#713,.F.);
#713 = EDGE_LOOP('',(#714));
#714 = ORIENTED_EDGE('',*,*,#660,.F.);
#715 = PLANE('',#716);
#716 = AXIS2_PLACEMENT_3D('',#717,#718,#719);
#717 = CARTESIAN_POINT('',(118.99,-31.1126983722,552.88730162779));
#718 = DIRECTION('',(-1.,0.,0.));
#719 = DIRECTION('',(0.,0.,-1.));
#720 = ADVANCED_FACE('',(#721,#724),#727,.F.);
#721 = FACE_BOUND('',#722,.F.);
#722 = EDGE_LOOP('',(#723));
#723 = ORIENTED_EDGE('',*,*,#554,.T.);
#724 = FACE_BOUND('',#725,.F.);
#725 = EDGE_LOOP('',(#726));
#726 = ORIENTED_EDGE('',*,*,#610,.F.);
#727 = PLANE('',#728);
#728 = AXIS2_PLACEMENT_3D('',#729,#730,#731);
#729 = CARTESIAN_POINT('',(118.99,31.112698372208,552.88730162779));
#730 = DIRECTION('',(-1.,0.,0.));
#731 = DIRECTION('',(0.,0.,-1.));
#732 = ADVANCED_FACE('',(#733,#736),#739,.F.);
#733 = FACE_BOUND('',#734,.F.);
#734 = EDGE_LOOP('',(#735));
#735 = ORIENTED_EDGE('',*,*,#581,.T.);
#736 = FACE_BOUND('',#737,.F.);
#737 = EDGE_LOOP('',(#738));
#738 = ORIENTED_EDGE('',*,*,#635,.F.);
#739 = PLANE('',#740);
#740 = AXIS2_PLACEMENT_3D('',#741,#742,#743);
#741 = CARTESIAN_POINT('',(118.99,31.112698372208,615.1126983722));
#742 = DIRECTION('',(-1.,0.,0.));
#743 = DIRECTION('',(0.,0.,-1.));
#744 = ( GEOMETRIC_REPRESENTATION_CONTEXT(3) 
GLOBAL_UNCERTAINTY_ASSIGNED_CONTEXT((#748)) GLOBAL_UNIT_ASSIGNED_CONTEXT
((#745,#746,#747)) REPRESENTATION_CONTEXT('Context #1',
  '3D Context with UNIT and UNCERTAINTY') );
#745 = ( LENGTH_UNIT() NAMED_UNIT(*) SI_UNIT(.MILLI.,.METRE.) );
#746 = ( NAMED_UNIT(*) PLANE_ANGLE_UNIT() SI_UNIT($,.RADIAN.) );
#747 = ( NAMED_UNIT(*) SI_UNIT($,.STERADIAN.) SOLID_ANGLE_UNIT() );
#748 = UNCERTAINTY_MEASURE_WITH_UNIT(LENGTH_MEASURE(1.E-07),#745,
  'distance_accuracy_value','confusion accuracy');
#749 = PRODUCT_RELATED_PRODUCT_CATEGORY('part',$,(#7));
ENDSEC;
END-ISO-10303-21;
