ISO-10303-21;
HEADER;
FILE_DESCRIPTION(('FreeCAD Model'),'2;1');
FILE_NAME('Open CASCADE Shape Model','2026-09-19T20:59:27',('FreeCAD'),(
    'FreeCAD'),'Open CASCADE STEP processor 7.9','FreeCAD','Unknown');
FILE_SCHEMA(('AUTOMOTIVE_DESIGN { 1 0 10303 214 1 1 1 1 }'));
ENDSEC;
DATA;
#1 = APPLICATION_PROTOCOL_DEFINITION('international standard',
  'automotive_design',2000,#2);
#2 = APPLICATION_CONTEXT(
  'core data for automotive mechanical design processes');
#3 = SHAPE_DEFINITION_REPRESENTATION(#4,#10);
#4 = PRODUCT_DEFINITION_SHAPE('','',#5);
#5 = PRODUCT_DEFINITION('design','',#6,#9);
#6 = PRODUCT_DEFINITION_FORMATION('','',#7);
#7 = PRODUCT('Open CASCADE STEP translator 7.9 17',
  'Open CASCADE STEP translator 7.9 17','',(#8));
#8 = PRODUCT_CONTEXT('',#2,'mechanical');
#9 = PRODUCT_DEFINITION_CONTEXT('part definition',#2,'design');
#10 = ADVANCED_BREP_SHAPE_REPRESENTATION('',(#11,#15),#891);
#11 = AXIS2_PLACEMENT_3D('',#12,#13,#14);
#12 = CARTESIAN_POINT('',(0.,0.,0.));
#13 = DIRECTION('',(0.,0.,1.));
#14 = DIRECTION('',(1.,0.,-0.));
#15 = MANIFOLD_SOLID_BREP('',#16);
#16 = CLOSED_SHELL('',(#17,#233,#264,#288,#312,#336,#360,#384,#408,#432,
    #456,#480,#504,#528,#552,#576,#600,#624,#648,#672,#696,#720,#744,
    #768,#792,#816,#840,#857));
#17 = ADVANCED_FACE('',(#18),#228,.F.);
#18 = FACE_BOUND('',#19,.F.);
#19 = EDGE_LOOP('',(#20,#30,#38,#46,#54,#62,#70,#78,#86,#94,#102,#110,
    #118,#126,#134,#142,#150,#158,#166,#174,#182,#190,#198,#206,#214,
    #222));
#20 = ORIENTED_EDGE('',*,*,#21,.F.);
#21 = EDGE_CURVE('',#22,#24,#26,.T.);
#22 = VERTEX_POINT('',#23);
#23 = CARTESIAN_POINT('',(90.01,10.561188854311,452.));
#24 = VERTEX_POINT('',#25);
#25 = CARTESIAN_POINT('',(90.01,16.565461878133,452.));
#26 = LINE('',#27,#28);
#27 = CARTESIAN_POINT('',(90.01,-253.2354011714,452.));
#28 = VECTOR('',#29,1.);
#29 = DIRECTION('',(0.,1.,0.));
#30 = ORIENTED_EDGE('',*,*,#31,.T.);
#31 = EDGE_CURVE('',#22,#32,#34,.T.);
#32 = VERTEX_POINT('',#33);
#33 = CARTESIAN_POINT('',(90.01,10.472835326751,454.21923599224));
#34 = LINE('',#35,#36);
#35 = CARTESIAN_POINT('',(90.01,10.684636094748,448.89929121468));
#36 = VECTOR('',#37,1.);
#37 = DIRECTION('',(0.,-3.978107284127E-02,0.999208419822));
#38 = ORIENTED_EDGE('',*,*,#39,.T.);
#39 = EDGE_CURVE('',#32,#40,#42,.T.);
#40 = VERTEX_POINT('',#41);
#41 = CARTESIAN_POINT('',(90.01,10.122321709626,459.5170254925));
#42 = LINE('',#43,#44);
#43 = CARTESIAN_POINT('',(90.01,10.472835326751,454.21923599224));
#44 = VECTOR('',#45,1.);
#45 = DIRECTION('',(0.,-6.601790240201E-02,0.997818438676));
#46 = ORIENTED_EDGE('',*,*,#47,.T.);
#47 = EDGE_CURVE('',#40,#48,#50,.T.);
#48 = VERTEX_POINT('',#49);
#49 = CARTESIAN_POINT('',(90.01,9.623311809448,464.78944352025));
#50 = LINE('',#51,#52);
#51 = CARTESIAN_POINT('',(90.01,10.122321709626,459.5170254925));
#52 = VECTOR('',#53,1.);
#53 = DIRECTION('',(0.,-9.422428196776E-02,0.995550995523));
#54 = ORIENTED_EDGE('',*,*,#55,.T.);
#55 = EDGE_CURVE('',#48,#56,#58,.T.);
#56 = VERTEX_POINT('',#57);
#57 = CARTESIAN_POINT('',(90.01,8.966050564883,470.03335759628));
#58 = LINE('',#59,#60);
#59 = CARTESIAN_POINT('',(90.01,9.623311809448,464.78944352025));
#60 = VECTOR('',#61,1.);
#61 = DIRECTION('',(0.,-0.124364858741,0.992236555419));
#62 = ORIENTED_EDGE('',*,*,#63,.T.);
#63 = EDGE_CURVE('',#56,#64,#66,.T.);
#64 = VERTEX_POINT('',#65);
#65 = CARTESIAN_POINT('',(90.01,8.141633442625,475.24756883028));
#66 = LINE('',#67,#68);
#67 = CARTESIAN_POINT('',(90.01,8.966050564883,470.03335759628));
#68 = VECTOR('',#69,1.);
#69 = DIRECTION('',(0.,-0.156169684462,0.987730241339));
#70 = ORIENTED_EDGE('',*,*,#71,.T.);
#71 = EDGE_CURVE('',#64,#72,#74,.T.);
#72 = VERTEX_POINT('',#73);
#73 = CARTESIAN_POINT('',(90.01,7.144533872498,480.43093208123));
#74 = LINE('',#75,#76);
#75 = CARTESIAN_POINT('',(90.01,8.141633442625,475.24756883028));
#76 = VECTOR('',#77,1.);
#77 = DIRECTION('',(0.,-0.188902009113,0.981995942432));
#78 = ORIENTED_EDGE('',*,*,#79,.T.);
#79 = EDGE_CURVE('',#72,#80,#82,.T.);
#80 = VERTEX_POINT('',#81);
#81 = CARTESIAN_POINT('',(90.01,5.970017614691,485.58120104976));
#82 = LINE('',#83,#84);
#83 = CARTESIAN_POINT('',(90.01,7.144533872498,480.43093208123));
#84 = VECTOR('',#85,1.);
#85 = DIRECTION('',(0.,-0.222341174547,0.974968923659));
#86 = ORIENTED_EDGE('',*,*,#87,.T.);
#87 = EDGE_CURVE('',#80,#88,#90,.T.);
#88 = VERTEX_POINT('',#89);
#89 = CARTESIAN_POINT('',(90.01,4.613320686724,490.69617751466));
#90 = LINE('',#91,#92);
#91 = CARTESIAN_POINT('',(90.01,5.970017614691,485.58120104976));
#92 = VECTOR('',#93,1.);
#93 = DIRECTION('',(0.,-0.256375089582,0.966577370644));
#94 = ORIENTED_EDGE('',*,*,#95,.T.);
#95 = EDGE_CURVE('',#88,#96,#98,.T.);
#96 = VERTEX_POINT('',#97);
#97 = CARTESIAN_POINT('',(90.01,3.069641155571,495.77370858891));
#98 = LINE('',#99,#100);
#99 = CARTESIAN_POINT('',(90.01,4.613320686724,490.69617751466));
#100 = VECTOR('',#101,1.);
#101 = DIRECTION('',(0.,-0.290876013209,0.956760756375));
#102 = ORIENTED_EDGE('',*,*,#103,.T.);
#103 = EDGE_CURVE('',#96,#104,#106,.T.);
#104 = VERTEX_POINT('',#105);
#105 = CARTESIAN_POINT('',(90.01,1.33413122377,500.8116819711));
#106 = LINE('',#107,#108);
#107 = CARTESIAN_POINT('',(90.01,3.069641155571,495.77370858891));
#108 = VECTOR('',#109,1.);
#109 = DIRECTION('',(0.,-0.325701799459,0.945472547369));
#110 = ORIENTED_EDGE('',*,*,#111,.T.);
#111 = EDGE_CURVE('',#104,#112,#114,.T.);
#112 = VERTEX_POINT('',#113);
#113 = CARTESIAN_POINT('',(90.01,-0.598109909612,505.8080191559));
#114 = LINE('',#115,#116);
#115 = CARTESIAN_POINT('',(90.01,1.33413122377,500.8116819711));
#116 = VECTOR('',#117,1.);
#117 = DIRECTION('',(0.,-0.360697822236,0.93268273332));
#118 = ORIENTED_EDGE('',*,*,#119,.T.);
#119 = EDGE_CURVE('',#112,#120,#122,.T.);
#120 = VERTEX_POINT('',#121);
#121 = CARTESIAN_POINT('',(90.01,-2.732041911277,510.7606667135));
#122 = LINE('',#123,#124);
#123 = CARTESIAN_POINT('',(90.01,-0.598109909612,505.8080191559));
#124 = VECTOR('',#125,1.);
#125 = DIRECTION('',(0.,-0.395699568788,0.918380014624));
#126 = ORIENTED_EDGE('',*,*,#127,.T.);
#127 = EDGE_CURVE('',#120,#128,#130,.T.);
#128 = VERTEX_POINT('',#129);
#129 = CARTESIAN_POINT('',(90.01,2.732041911277,513.23933328649));
#130 = LINE('',#131,#132);
#131 = CARTESIAN_POINT('',(90.01,-2.732041911277,510.7606667135));
#132 = VECTOR('',#133,1.);
#133 = DIRECTION('',(0.,0.910680637092,0.4131110955));
#134 = ORIENTED_EDGE('',*,*,#135,.T.);
#135 = EDGE_CURVE('',#128,#136,#138,.T.);
#136 = VERTEX_POINT('',#137);
#137 = CARTESIAN_POINT('',(90.01,4.956307439669,508.07703830743));
#138 = LINE('',#139,#140);
#139 = CARTESIAN_POINT('',(90.01,2.732041911277,513.23933328649));
#140 = VECTOR('',#141,1.);
#141 = DIRECTION('',(0.,0.395700077119,-0.918379795601));
#142 = ORIENTED_EDGE('',*,*,#143,.T.);
#143 = EDGE_CURVE('',#136,#144,#146,.T.);
#144 = VERTEX_POINT('',#145);
#145 = CARTESIAN_POINT('',(90.01,6.969816002293,502.87057902465));
#146 = LINE('',#147,#148);
#147 = CARTESIAN_POINT('',(90.01,4.956307439669,508.07703830743));
#148 = VECTOR('',#149,1.);
#149 = DIRECTION('',(0.,0.360698848926,-0.932682336266));
#150 = ORIENTED_EDGE('',*,*,#151,.T.);
#151 = EDGE_CURVE('',#144,#152,#154,.T.);
#152 = VERTEX_POINT('',#153);
#153 = CARTESIAN_POINT('',(90.01,8.77753504203,497.62301856318));
#154 = LINE('',#155,#156);
#155 = CARTESIAN_POINT('',(90.01,6.969816002293,502.87057902465));
#156 = VECTOR('',#157,1.);
#157 = DIRECTION('',(0.,0.325703305407,-0.945472028591));
#158 = ORIENTED_EDGE('',*,*,#159,.T.);
#159 = EDGE_CURVE('',#152,#160,#162,.T.);
#160 = VERTEX_POINT('',#161);
#161 = CARTESIAN_POINT('',(90.01,10.384490867529,492.33739497258));
#162 = LINE('',#163,#164);
#163 = CARTESIAN_POINT('',(90.01,8.77753504203,497.62301856318));
#164 = VECTOR('',#165,1.);
#165 = DIRECTION('',(0.,0.290877944863,-0.956760169108));
#166 = ORIENTED_EDGE('',*,*,#167,.T.);
#167 = EDGE_CURVE('',#160,#168,#170,.T.);
#168 = VERTEX_POINT('',#169);
#169 = CARTESIAN_POINT('',(90.01,11.795762790906,487.01671250628));
#170 = LINE('',#171,#172);
#171 = CARTESIAN_POINT('',(90.01,10.384490867529,492.33739497258));
#172 = VECTOR('',#173,1.);
#173 = DIRECTION('',(0.,0.256377382998,-0.966576762336));
#174 = ORIENTED_EDGE('',*,*,#175,.T.);
#175 = EDGE_CURVE('',#168,#176,#178,.T.);
#176 = VERTEX_POINT('',#177);
#177 = CARTESIAN_POINT('',(90.01,13.01647598872,481.66393483214));
#178 = LINE('',#179,#180);
#179 = CARTESIAN_POINT('',(90.01,11.795762790906,487.01671250628));
#180 = VECTOR('',#181,1.);
#181 = DIRECTION('',(0.,0.222343759699,-0.974968334113));
#182 = ORIENTED_EDGE('',*,*,#183,.T.);
#183 = EDGE_CURVE('',#176,#184,#186,.T.);
#184 = VERTEX_POINT('',#185);
#185 = CARTESIAN_POINT('',(90.01,14.051793588071,476.28198028381));
#186 = LINE('',#187,#188);
#187 = CARTESIAN_POINT('',(90.01,13.01647598872,481.66393483214));
#188 = VECTOR('',#189,1.);
#189 = DIRECTION('',(0.,0.188904814028,-0.981995402859));
#190 = ORIENTED_EDGE('',*,*,#191,.T.);
#191 = EDGE_CURVE('',#184,#192,#194,.T.);
#192 = VERTEX_POINT('',#193);
#193 = CARTESIAN_POINT('',(90.01,14.906908458729,470.87371911678));
#194 = LINE('',#195,#196);
#195 = CARTESIAN_POINT('',(90.01,14.051793588071,476.28198028381));
#196 = VECTOR('',#197,1.);
#197 = DIRECTION('',(0.,0.156172638864,-0.987729774215));
#198 = ORIENTED_EDGE('',*,*,#199,.T.);
#199 = EDGE_CURVE('',#192,#200,#202,.T.);
#200 = VERTEX_POINT('',#201);
#201 = CARTESIAN_POINT('',(90.01,15.587577074831,465.44330883064));
#202 = LINE('',#203,#204);
#203 = CARTESIAN_POINT('',(90.01,14.906908458729,470.87371911678));
#204 = VECTOR('',#205,1.);
#205 = DIRECTION('',(0.,0.124370673911,-0.992235826541));
#206 = ORIENTED_EDGE('',*,*,#207,.T.);
#207 = EDGE_CURVE('',#200,#208,#210,.T.);
#208 = VERTEX_POINT('',#209);
#209 = CARTESIAN_POINT('',(90.01,16.103187901805,459.99581520756));
#210 = LINE('',#211,#212);
#211 = CARTESIAN_POINT('',(90.01,15.587577074831,465.44330883064));
#212 = VECTOR('',#213,1.);
#213 = DIRECTION('',(0.,9.422986699115E-02,-0.995550466911));
#214 = ORIENTED_EDGE('',*,*,#215,.T.);
#215 = EDGE_CURVE('',#208,#216,#218,.T.);
#216 = VERTEX_POINT('',#217);
#217 = CARTESIAN_POINT('',(90.01,16.464537490604,454.53468040839));
#218 = LINE('',#219,#220);
#219 = CARTESIAN_POINT('',(90.01,16.103187901805,459.99581520756));
#220 = VECTOR('',#221,1.);
#221 = DIRECTION('',(0.,6.602311992415E-02,-0.99781809346));
#222 = ORIENTED_EDGE('',*,*,#223,.T.);
#223 = EDGE_CURVE('',#216,#24,#224,.T.);
#224 = LINE('',#225,#226);
#225 = CARTESIAN_POINT('',(90.01,16.464537490604,454.53468040839));
#226 = VECTOR('',#227,1.);
#227 = DIRECTION('',(0.,3.978587523408E-02,-0.999208228615));
#228 = PLANE('',#229);
#229 = AXIS2_PLACEMENT_3D('',#230,#231,#232);
#230 = CARTESIAN_POINT('',(90.01,-6.470802342904,299.63428224347));
#231 = DIRECTION('',(-1.,-0.,-0.));
#232 = DIRECTION('',(0.,0.,-1.));
#233 = ADVANCED_FACE('',(#234),#259,.F.);
#234 = FACE_BOUND('',#235,.F.);
#235 = EDGE_LOOP('',(#236,#246,#252,#253));
#236 = ORIENTED_EDGE('',*,*,#237,.F.);
#237 = EDGE_CURVE('',#238,#240,#242,.T.);
#238 = VERTEX_POINT('',#239);
#239 = CARTESIAN_POINT('',(87.71,10.561188854311,452.));
#240 = VERTEX_POINT('',#241);
#241 = CARTESIAN_POINT('',(87.71,16.565461878133,452.));
#242 = LINE('',#243,#244);
#243 = CARTESIAN_POINT('',(87.71,-253.2354011714,452.));
#244 = VECTOR('',#245,1.);
#245 = DIRECTION('',(0.,1.,0.));
#246 = ORIENTED_EDGE('',*,*,#247,.T.);
#247 = EDGE_CURVE('',#238,#22,#248,.T.);
#248 = LINE('',#249,#250);
#249 = CARTESIAN_POINT('',(86.36,10.561188854311,452.));
#250 = VECTOR('',#251,1.);
#251 = DIRECTION('',(1.,0.,0.));
#252 = ORIENTED_EDGE('',*,*,#21,.T.);
#253 = ORIENTED_EDGE('',*,*,#254,.T.);
#254 = EDGE_CURVE('',#24,#240,#255,.T.);
#255 = LINE('',#256,#257);
#256 = CARTESIAN_POINT('',(86.36,16.565461878133,452.));
#257 = VECTOR('',#258,1.);
#258 = DIRECTION('',(-1.,0.,0.));
#259 = PLANE('',#260);
#260 = AXIS2_PLACEMENT_3D('',#261,#262,#263);
#261 = CARTESIAN_POINT('',(82.71,-500.,452.));
#262 = DIRECTION('',(0.,0.,1.));
#263 = DIRECTION('',(1.,0.,0.));
#264 = ADVANCED_FACE('',(#265),#283,.F.);
#265 = FACE_BOUND('',#266,.F.);
#266 = EDGE_LOOP('',(#267,#268,#276,#282));
#267 = ORIENTED_EDGE('',*,*,#223,.F.);
#268 = ORIENTED_EDGE('',*,*,#269,.T.);
#269 = EDGE_CURVE('',#216,#270,#272,.T.);
#270 = VERTEX_POINT('',#271);
#271 = CARTESIAN_POINT('',(87.71,16.464537490604,454.53468040839));
#272 = LINE('',#273,#274);
#273 = CARTESIAN_POINT('',(90.01,16.464537490604,454.53468040839));
#274 = VECTOR('',#275,1.);
#275 = DIRECTION('',(-1.,0.,0.));
#276 = ORIENTED_EDGE('',*,*,#277,.T.);
#277 = EDGE_CURVE('',#270,#240,#278,.T.);
#278 = LINE('',#279,#280);
#279 = CARTESIAN_POINT('',(87.71,16.464537490604,454.53468040839));
#280 = VECTOR('',#281,1.);
#281 = DIRECTION('',(0.,3.978587523408E-02,-0.999208228615));
#282 = ORIENTED_EDGE('',*,*,#254,.F.);
#283 = PLANE('',#284);
#284 = AXIS2_PLACEMENT_3D('',#285,#286,#287);
#285 = CARTESIAN_POINT('',(90.01,16.464537490604,454.53468040839));
#286 = DIRECTION('',(-0.,-0.999208228615,-3.978587523408E-02));
#287 = DIRECTION('',(0.,3.978587523408E-02,-0.999208228615));
#288 = ADVANCED_FACE('',(#289),#307,.F.);
#289 = FACE_BOUND('',#290,.F.);
#290 = EDGE_LOOP('',(#291,#299,#305,#306));
#291 = ORIENTED_EDGE('',*,*,#292,.T.);
#292 = EDGE_CURVE('',#208,#293,#295,.T.);
#293 = VERTEX_POINT('',#294);
#294 = CARTESIAN_POINT('',(87.71,16.103187901805,459.99581520756));
#295 = LINE('',#296,#297);
#296 = CARTESIAN_POINT('',(90.01,16.103187901805,459.99581520756));
#297 = VECTOR('',#298,1.);
#298 = DIRECTION('',(-1.,0.,0.));
#299 = ORIENTED_EDGE('',*,*,#300,.T.);
#300 = EDGE_CURVE('',#293,#270,#301,.T.);
#301 = LINE('',#302,#303);
#302 = CARTESIAN_POINT('',(87.71,16.103187901805,459.99581520756));
#303 = VECTOR('',#304,1.);
#304 = DIRECTION('',(0.,6.602311992415E-02,-0.99781809346));
#305 = ORIENTED_EDGE('',*,*,#269,.F.);
#306 = ORIENTED_EDGE('',*,*,#215,.F.);
#307 = PLANE('',#308);
#308 = AXIS2_PLACEMENT_3D('',#309,#310,#311);
#309 = CARTESIAN_POINT('',(90.01,16.103187901805,459.99581520756));
#310 = DIRECTION('',(-0.,-0.99781809346,-6.602311992415E-02));
#311 = DIRECTION('',(0.,6.602311992415E-02,-0.99781809346));
#312 = ADVANCED_FACE('',(#313),#331,.F.);
#313 = FACE_BOUND('',#314,.F.);
#314 = EDGE_LOOP('',(#315,#323,#329,#330));
#315 = ORIENTED_EDGE('',*,*,#316,.T.);
#316 = EDGE_CURVE('',#200,#317,#319,.T.);
#317 = VERTEX_POINT('',#318);
#318 = CARTESIAN_POINT('',(87.71,15.587577074831,465.44330883064));
#319 = LINE('',#320,#321);
#320 = CARTESIAN_POINT('',(90.01,15.587577074831,465.44330883064));
#321 = VECTOR('',#322,1.);
#322 = DIRECTION('',(-1.,0.,0.));
#323 = ORIENTED_EDGE('',*,*,#324,.T.);
#324 = EDGE_CURVE('',#317,#293,#325,.T.);
#325 = LINE('',#326,#327);
#326 = CARTESIAN_POINT('',(87.71,15.587577074831,465.44330883064));
#327 = VECTOR('',#328,1.);
#328 = DIRECTION('',(0.,9.422986699115E-02,-0.995550466911));
#329 = ORIENTED_EDGE('',*,*,#292,.F.);
#330 = ORIENTED_EDGE('',*,*,#207,.F.);
#331 = PLANE('',#332);
#332 = AXIS2_PLACEMENT_3D('',#333,#334,#335);
#333 = CARTESIAN_POINT('',(90.01,15.587577074831,465.44330883064));
#334 = DIRECTION('',(-0.,-0.995550466911,-9.422986699115E-02));
#335 = DIRECTION('',(0.,9.422986699115E-02,-0.995550466911));
#336 = ADVANCED_FACE('',(#337),#355,.F.);
#337 = FACE_BOUND('',#338,.F.);
#338 = EDGE_LOOP('',(#339,#347,#353,#354));
#339 = ORIENTED_EDGE('',*,*,#340,.T.);
#340 = EDGE_CURVE('',#192,#341,#343,.T.);
#341 = VERTEX_POINT('',#342);
#342 = CARTESIAN_POINT('',(87.71,14.906908458729,470.87371911678));
#343 = LINE('',#344,#345);
#344 = CARTESIAN_POINT('',(90.01,14.906908458729,470.87371911678));
#345 = VECTOR('',#346,1.);
#346 = DIRECTION('',(-1.,0.,0.));
#347 = ORIENTED_EDGE('',*,*,#348,.T.);
#348 = EDGE_CURVE('',#341,#317,#349,.T.);
#349 = LINE('',#350,#351);
#350 = CARTESIAN_POINT('',(87.71,14.906908458729,470.87371911678));
#351 = VECTOR('',#352,1.);
#352 = DIRECTION('',(0.,0.124370673911,-0.992235826541));
#353 = ORIENTED_EDGE('',*,*,#316,.F.);
#354 = ORIENTED_EDGE('',*,*,#199,.F.);
#355 = PLANE('',#356);
#356 = AXIS2_PLACEMENT_3D('',#357,#358,#359);
#357 = CARTESIAN_POINT('',(90.01,14.906908458729,470.87371911678));
#358 = DIRECTION('',(-0.,-0.992235826541,-0.124370673911));
#359 = DIRECTION('',(0.,0.124370673911,-0.992235826541));
#360 = ADVANCED_FACE('',(#361),#379,.F.);
#361 = FACE_BOUND('',#362,.F.);
#362 = EDGE_LOOP('',(#363,#371,#377,#378));
#363 = ORIENTED_EDGE('',*,*,#364,.T.);
#364 = EDGE_CURVE('',#184,#365,#367,.T.);
#365 = VERTEX_POINT('',#366);
#366 = CARTESIAN_POINT('',(87.71,14.051793588071,476.28198028381));
#367 = LINE('',#368,#369);
#368 = CARTESIAN_POINT('',(90.01,14.051793588071,476.28198028381));
#369 = VECTOR('',#370,1.);
#370 = DIRECTION('',(-1.,0.,0.));
#371 = ORIENTED_EDGE('',*,*,#372,.T.);
#372 = EDGE_CURVE('',#365,#341,#373,.T.);
#373 = LINE('',#374,#375);
#374 = CARTESIAN_POINT('',(87.71,14.051793588071,476.28198028381));
#375 = VECTOR('',#376,1.);
#376 = DIRECTION('',(0.,0.156172638864,-0.987729774215));
#377 = ORIENTED_EDGE('',*,*,#340,.F.);
#378 = ORIENTED_EDGE('',*,*,#191,.F.);
#379 = PLANE('',#380);
#380 = AXIS2_PLACEMENT_3D('',#381,#382,#383);
#381 = CARTESIAN_POINT('',(90.01,14.051793588071,476.28198028381));
#382 = DIRECTION('',(-0.,-0.987729774215,-0.156172638864));
#383 = DIRECTION('',(0.,0.156172638864,-0.987729774215));
#384 = ADVANCED_FACE('',(#385),#403,.F.);
#385 = FACE_BOUND('',#386,.F.);
#386 = EDGE_LOOP('',(#387,#395,#401,#402));
#387 = ORIENTED_EDGE('',*,*,#388,.T.);
#388 = EDGE_CURVE('',#176,#389,#391,.T.);
#389 = VERTEX_POINT('',#390);
#390 = CARTESIAN_POINT('',(87.71,13.01647598872,481.66393483214));
#391 = LINE('',#392,#393);
#392 = CARTESIAN_POINT('',(90.01,13.01647598872,481.66393483214));
#393 = VECTOR('',#394,1.);
#394 = DIRECTION('',(-1.,0.,0.));
#395 = ORIENTED_EDGE('',*,*,#396,.T.);
#396 = EDGE_CURVE('',#389,#365,#397,.T.);
#397 = LINE('',#398,#399);
#398 = CARTESIAN_POINT('',(87.71,13.01647598872,481.66393483214));
#399 = VECTOR('',#400,1.);
#400 = DIRECTION('',(0.,0.188904814028,-0.981995402859));
#401 = ORIENTED_EDGE('',*,*,#364,.F.);
#402 = ORIENTED_EDGE('',*,*,#183,.F.);
#403 = PLANE('',#404);
#404 = AXIS2_PLACEMENT_3D('',#405,#406,#407);
#405 = CARTESIAN_POINT('',(90.01,13.01647598872,481.66393483214));
#406 = DIRECTION('',(-0.,-0.981995402859,-0.188904814028));
#407 = DIRECTION('',(0.,0.188904814028,-0.981995402859));
#408 = ADVANCED_FACE('',(#409),#427,.F.);
#409 = FACE_BOUND('',#410,.F.);
#410 = EDGE_LOOP('',(#411,#419,#425,#426));
#411 = ORIENTED_EDGE('',*,*,#412,.T.);
#412 = EDGE_CURVE('',#168,#413,#415,.T.);
#413 = VERTEX_POINT('',#414);
#414 = CARTESIAN_POINT('',(87.71,11.795762790906,487.01671250628));
#415 = LINE('',#416,#417);
#416 = CARTESIAN_POINT('',(90.01,11.795762790906,487.01671250628));
#417 = VECTOR('',#418,1.);
#418 = DIRECTION('',(-1.,0.,0.));
#419 = ORIENTED_EDGE('',*,*,#420,.T.);
#420 = EDGE_CURVE('',#413,#389,#421,.T.);
#421 = LINE('',#422,#423);
#422 = CARTESIAN_POINT('',(87.71,11.795762790906,487.01671250628));
#423 = VECTOR('',#424,1.);
#424 = DIRECTION('',(0.,0.222343759699,-0.974968334113));
#425 = ORIENTED_EDGE('',*,*,#388,.F.);
#426 = ORIENTED_EDGE('',*,*,#175,.F.);
#427 = PLANE('',#428);
#428 = AXIS2_PLACEMENT_3D('',#429,#430,#431);
#429 = CARTESIAN_POINT('',(90.01,11.795762790906,487.01671250628));
#430 = DIRECTION('',(-0.,-0.974968334113,-0.222343759699));
#431 = DIRECTION('',(0.,0.222343759699,-0.974968334113));
#432 = ADVANCED_FACE('',(#433),#451,.F.);
#433 = FACE_BOUND('',#434,.F.);
#434 = EDGE_LOOP('',(#435,#443,#449,#450));
#435 = ORIENTED_EDGE('',*,*,#436,.T.);
#436 = EDGE_CURVE('',#160,#437,#439,.T.);
#437 = VERTEX_POINT('',#438);
#438 = CARTESIAN_POINT('',(87.71,10.384490867529,492.33739497258));
#439 = LINE('',#440,#441);
#440 = CARTESIAN_POINT('',(90.01,10.384490867529,492.33739497258));
#441 = VECTOR('',#442,1.);
#442 = DIRECTION('',(-1.,0.,0.));
#443 = ORIENTED_EDGE('',*,*,#444,.T.);
#444 = EDGE_CURVE('',#437,#413,#445,.T.);
#445 = LINE('',#446,#447);
#446 = CARTESIAN_POINT('',(87.71,10.384490867529,492.33739497258));
#447 = VECTOR('',#448,1.);
#448 = DIRECTION('',(0.,0.256377382998,-0.966576762336));
#449 = ORIENTED_EDGE('',*,*,#412,.F.);
#450 = ORIENTED_EDGE('',*,*,#167,.F.);
#451 = PLANE('',#452);
#452 = AXIS2_PLACEMENT_3D('',#453,#454,#455);
#453 = CARTESIAN_POINT('',(90.01,10.384490867529,492.33739497258));
#454 = DIRECTION('',(-0.,-0.966576762336,-0.256377382998));
#455 = DIRECTION('',(0.,0.256377382998,-0.966576762336));
#456 = ADVANCED_FACE('',(#457),#475,.F.);
#457 = FACE_BOUND('',#458,.F.);
#458 = EDGE_LOOP('',(#459,#467,#473,#474));
#459 = ORIENTED_EDGE('',*,*,#460,.T.);
#460 = EDGE_CURVE('',#152,#461,#463,.T.);
#461 = VERTEX_POINT('',#462);
#462 = CARTESIAN_POINT('',(87.71,8.77753504203,497.62301856318));
#463 = LINE('',#464,#465);
#464 = CARTESIAN_POINT('',(90.01,8.77753504203,497.62301856318));
#465 = VECTOR('',#466,1.);
#466 = DIRECTION('',(-1.,0.,0.));
#467 = ORIENTED_EDGE('',*,*,#468,.T.);
#468 = EDGE_CURVE('',#461,#437,#469,.T.);
#469 = LINE('',#470,#471);
#470 = CARTESIAN_POINT('',(87.71,8.77753504203,497.62301856318));
#471 = VECTOR('',#472,1.);
#472 = DIRECTION('',(0.,0.290877944863,-0.956760169108));
#473 = ORIENTED_EDGE('',*,*,#436,.F.);
#474 = ORIENTED_EDGE('',*,*,#159,.F.);
#475 = PLANE('',#476);
#476 = AXIS2_PLACEMENT_3D('',#477,#478,#479);
#477 = CARTESIAN_POINT('',(90.01,8.77753504203,497.62301856318));
#478 = DIRECTION('',(-0.,-0.956760169108,-0.290877944863));
#479 = DIRECTION('',(0.,0.290877944863,-0.956760169108));
#480 = ADVANCED_FACE('',(#481),#499,.F.);
#481 = FACE_BOUND('',#482,.F.);
#482 = EDGE_LOOP('',(#483,#491,#497,#498));
#483 = ORIENTED_EDGE('',*,*,#484,.T.);
#484 = EDGE_CURVE('',#144,#485,#487,.T.);
#485 = VERTEX_POINT('',#486);
#486 = CARTESIAN_POINT('',(87.71,6.969816002293,502.87057902465));
#487 = LINE('',#488,#489);
#488 = CARTESIAN_POINT('',(90.01,6.969816002293,502.87057902465));
#489 = VECTOR('',#490,1.);
#490 = DIRECTION('',(-1.,0.,0.));
#491 = ORIENTED_EDGE('',*,*,#492,.T.);
#492 = EDGE_CURVE('',#485,#461,#493,.T.);
#493 = LINE('',#494,#495);
#494 = CARTESIAN_POINT('',(87.71,6.969816002293,502.87057902465));
#495 = VECTOR('',#496,1.);
#496 = DIRECTION('',(0.,0.325703305407,-0.945472028591));
#497 = ORIENTED_EDGE('',*,*,#460,.F.);
#498 = ORIENTED_EDGE('',*,*,#151,.F.);
#499 = PLANE('',#500);
#500 = AXIS2_PLACEMENT_3D('',#501,#502,#503);
#501 = CARTESIAN_POINT('',(90.01,6.969816002293,502.87057902465));
#502 = DIRECTION('',(-0.,-0.945472028591,-0.325703305407));
#503 = DIRECTION('',(0.,0.325703305407,-0.945472028591));
#504 = ADVANCED_FACE('',(#505),#523,.F.);
#505 = FACE_BOUND('',#506,.F.);
#506 = EDGE_LOOP('',(#507,#515,#521,#522));
#507 = ORIENTED_EDGE('',*,*,#508,.T.);
#508 = EDGE_CURVE('',#136,#509,#511,.T.);
#509 = VERTEX_POINT('',#510);
#510 = CARTESIAN_POINT('',(87.71,4.956307439669,508.07703830743));
#511 = LINE('',#512,#513);
#512 = CARTESIAN_POINT('',(90.01,4.956307439669,508.07703830743));
#513 = VECTOR('',#514,1.);
#514 = DIRECTION('',(-1.,0.,0.));
#515 = ORIENTED_EDGE('',*,*,#516,.T.);
#516 = EDGE_CURVE('',#509,#485,#517,.T.);
#517 = LINE('',#518,#519);
#518 = CARTESIAN_POINT('',(87.71,4.956307439669,508.07703830743));
#519 = VECTOR('',#520,1.);
#520 = DIRECTION('',(0.,0.360698848926,-0.932682336266));
#521 = ORIENTED_EDGE('',*,*,#484,.F.);
#522 = ORIENTED_EDGE('',*,*,#143,.F.);
#523 = PLANE('',#524);
#524 = AXIS2_PLACEMENT_3D('',#525,#526,#527);
#525 = CARTESIAN_POINT('',(90.01,4.956307439669,508.07703830743));
#526 = DIRECTION('',(-0.,-0.932682336266,-0.360698848926));
#527 = DIRECTION('',(0.,0.360698848926,-0.932682336266));
#528 = ADVANCED_FACE('',(#529),#547,.F.);
#529 = FACE_BOUND('',#530,.F.);
#530 = EDGE_LOOP('',(#531,#539,#545,#546));
#531 = ORIENTED_EDGE('',*,*,#532,.T.);
#532 = EDGE_CURVE('',#128,#533,#535,.T.);
#533 = VERTEX_POINT('',#534);
#534 = CARTESIAN_POINT('',(87.71,2.732041911277,513.23933328649));
#535 = LINE('',#536,#537);
#536 = CARTESIAN_POINT('',(90.01,2.732041911277,513.23933328649));
#537 = VECTOR('',#538,1.);
#538 = DIRECTION('',(-1.,0.,0.));
#539 = ORIENTED_EDGE('',*,*,#540,.T.);
#540 = EDGE_CURVE('',#533,#509,#541,.T.);
#541 = LINE('',#542,#543);
#542 = CARTESIAN_POINT('',(87.71,2.732041911277,513.23933328649));
#543 = VECTOR('',#544,1.);
#544 = DIRECTION('',(0.,0.395700077119,-0.918379795601));
#545 = ORIENTED_EDGE('',*,*,#508,.F.);
#546 = ORIENTED_EDGE('',*,*,#135,.F.);
#547 = PLANE('',#548);
#548 = AXIS2_PLACEMENT_3D('',#549,#550,#551);
#549 = CARTESIAN_POINT('',(90.01,2.732041911277,513.23933328649));
#550 = DIRECTION('',(-0.,-0.918379795601,-0.395700077119));
#551 = DIRECTION('',(0.,0.395700077119,-0.918379795601));
#552 = ADVANCED_FACE('',(#553),#571,.F.);
#553 = FACE_BOUND('',#554,.F.);
#554 = EDGE_LOOP('',(#555,#563,#569,#570));
#555 = ORIENTED_EDGE('',*,*,#556,.T.);
#556 = EDGE_CURVE('',#120,#557,#559,.T.);
#557 = VERTEX_POINT('',#558);
#558 = CARTESIAN_POINT('',(87.71,-2.732041911277,510.7606667135));
#559 = LINE('',#560,#561);
#560 = CARTESIAN_POINT('',(90.01,-2.732041911277,510.7606667135));
#561 = VECTOR('',#562,1.);
#562 = DIRECTION('',(-1.,0.,0.));
#563 = ORIENTED_EDGE('',*,*,#564,.T.);
#564 = EDGE_CURVE('',#557,#533,#565,.T.);
#565 = LINE('',#566,#567);
#566 = CARTESIAN_POINT('',(87.71,-2.732041911277,510.7606667135));
#567 = VECTOR('',#568,1.);
#568 = DIRECTION('',(0.,0.910680637092,0.4131110955));
#569 = ORIENTED_EDGE('',*,*,#532,.F.);
#570 = ORIENTED_EDGE('',*,*,#127,.F.);
#571 = PLANE('',#572);
#572 = AXIS2_PLACEMENT_3D('',#573,#574,#575);
#573 = CARTESIAN_POINT('',(90.01,-2.732041911277,510.7606667135));
#574 = DIRECTION('',(0.,0.4131110955,-0.910680637092));
#575 = DIRECTION('',(0.,0.910680637092,0.4131110955));
#576 = ADVANCED_FACE('',(#577),#595,.F.);
#577 = FACE_BOUND('',#578,.F.);
#578 = EDGE_LOOP('',(#579,#587,#593,#594));
#579 = ORIENTED_EDGE('',*,*,#580,.T.);
#580 = EDGE_CURVE('',#112,#581,#583,.T.);
#581 = VERTEX_POINT('',#582);
#582 = CARTESIAN_POINT('',(87.71,-0.598109909612,505.8080191559));
#583 = LINE('',#584,#585);
#584 = CARTESIAN_POINT('',(90.01,-0.598109909612,505.8080191559));
#585 = VECTOR('',#586,1.);
#586 = DIRECTION('',(-1.,0.,0.));
#587 = ORIENTED_EDGE('',*,*,#588,.T.);
#588 = EDGE_CURVE('',#581,#557,#589,.T.);
#589 = LINE('',#590,#591);
#590 = CARTESIAN_POINT('',(87.71,-0.598109909612,505.8080191559));
#591 = VECTOR('',#592,1.);
#592 = DIRECTION('',(0.,-0.395699568788,0.918380014624));
#593 = ORIENTED_EDGE('',*,*,#556,.F.);
#594 = ORIENTED_EDGE('',*,*,#119,.F.);
#595 = PLANE('',#596);
#596 = AXIS2_PLACEMENT_3D('',#597,#598,#599);
#597 = CARTESIAN_POINT('',(90.01,-0.598109909612,505.8080191559));
#598 = DIRECTION('',(0.,0.918380014624,0.395699568788));
#599 = DIRECTION('',(0.,-0.395699568788,0.918380014624));
#600 = ADVANCED_FACE('',(#601),#619,.F.);
#601 = FACE_BOUND('',#602,.F.);
#602 = EDGE_LOOP('',(#603,#611,#617,#618));
#603 = ORIENTED_EDGE('',*,*,#604,.T.);
#604 = EDGE_CURVE('',#104,#605,#607,.T.);
#605 = VERTEX_POINT('',#606);
#606 = CARTESIAN_POINT('',(87.71,1.33413122377,500.8116819711));
#607 = LINE('',#608,#609);
#608 = CARTESIAN_POINT('',(90.01,1.33413122377,500.8116819711));
#609 = VECTOR('',#610,1.);
#610 = DIRECTION('',(-1.,0.,0.));
#611 = ORIENTED_EDGE('',*,*,#612,.T.);
#612 = EDGE_CURVE('',#605,#581,#613,.T.);
#613 = LINE('',#614,#615);
#614 = CARTESIAN_POINT('',(87.71,1.33413122377,500.8116819711));
#615 = VECTOR('',#616,1.);
#616 = DIRECTION('',(0.,-0.360697822236,0.93268273332));
#617 = ORIENTED_EDGE('',*,*,#580,.F.);
#618 = ORIENTED_EDGE('',*,*,#111,.F.);
#619 = PLANE('',#620);
#620 = AXIS2_PLACEMENT_3D('',#621,#622,#623);
#621 = CARTESIAN_POINT('',(90.01,1.33413122377,500.8116819711));
#622 = DIRECTION('',(0.,0.93268273332,0.360697822236));
#623 = DIRECTION('',(0.,-0.360697822236,0.93268273332));
#624 = ADVANCED_FACE('',(#625),#643,.F.);
#625 = FACE_BOUND('',#626,.F.);
#626 = EDGE_LOOP('',(#627,#635,#641,#642));
#627 = ORIENTED_EDGE('',*,*,#628,.T.);
#628 = EDGE_CURVE('',#96,#629,#631,.T.);
#629 = VERTEX_POINT('',#630);
#630 = CARTESIAN_POINT('',(87.71,3.069641155571,495.77370858891));
#631 = LINE('',#632,#633);
#632 = CARTESIAN_POINT('',(90.01,3.069641155571,495.77370858891));
#633 = VECTOR('',#634,1.);
#634 = DIRECTION('',(-1.,0.,0.));
#635 = ORIENTED_EDGE('',*,*,#636,.T.);
#636 = EDGE_CURVE('',#629,#605,#637,.T.);
#637 = LINE('',#638,#639);
#638 = CARTESIAN_POINT('',(87.71,3.069641155571,495.77370858891));
#639 = VECTOR('',#640,1.);
#640 = DIRECTION('',(0.,-0.325701799459,0.945472547369));
#641 = ORIENTED_EDGE('',*,*,#604,.F.);
#642 = ORIENTED_EDGE('',*,*,#103,.F.);
#643 = PLANE('',#644);
#644 = AXIS2_PLACEMENT_3D('',#645,#646,#647);
#645 = CARTESIAN_POINT('',(90.01,3.069641155571,495.77370858891));
#646 = DIRECTION('',(0.,0.945472547369,0.325701799459));
#647 = DIRECTION('',(0.,-0.325701799459,0.945472547369));
#648 = ADVANCED_FACE('',(#649),#667,.F.);
#649 = FACE_BOUND('',#650,.F.);
#650 = EDGE_LOOP('',(#651,#659,#665,#666));
#651 = ORIENTED_EDGE('',*,*,#652,.T.);
#652 = EDGE_CURVE('',#88,#653,#655,.T.);
#653 = VERTEX_POINT('',#654);
#654 = CARTESIAN_POINT('',(87.71,4.613320686724,490.69617751466));
#655 = LINE('',#656,#657);
#656 = CARTESIAN_POINT('',(90.01,4.613320686724,490.69617751466));
#657 = VECTOR('',#658,1.);
#658 = DIRECTION('',(-1.,0.,0.));
#659 = ORIENTED_EDGE('',*,*,#660,.T.);
#660 = EDGE_CURVE('',#653,#629,#661,.T.);
#661 = LINE('',#662,#663);
#662 = CARTESIAN_POINT('',(87.71,4.613320686724,490.69617751466));
#663 = VECTOR('',#664,1.);
#664 = DIRECTION('',(0.,-0.290876013209,0.956760756375));
#665 = ORIENTED_EDGE('',*,*,#628,.F.);
#666 = ORIENTED_EDGE('',*,*,#95,.F.);
#667 = PLANE('',#668);
#668 = AXIS2_PLACEMENT_3D('',#669,#670,#671);
#669 = CARTESIAN_POINT('',(90.01,4.613320686724,490.69617751466));
#670 = DIRECTION('',(0.,0.956760756375,0.290876013209));
#671 = DIRECTION('',(0.,-0.290876013209,0.956760756375));
#672 = ADVANCED_FACE('',(#673),#691,.F.);
#673 = FACE_BOUND('',#674,.F.);
#674 = EDGE_LOOP('',(#675,#683,#689,#690));
#675 = ORIENTED_EDGE('',*,*,#676,.T.);
#676 = EDGE_CURVE('',#80,#677,#679,.T.);
#677 = VERTEX_POINT('',#678);
#678 = CARTESIAN_POINT('',(87.71,5.970017614691,485.58120104976));
#679 = LINE('',#680,#681);
#680 = CARTESIAN_POINT('',(90.01,5.970017614691,485.58120104976));
#681 = VECTOR('',#682,1.);
#682 = DIRECTION('',(-1.,0.,0.));
#683 = ORIENTED_EDGE('',*,*,#684,.T.);
#684 = EDGE_CURVE('',#677,#653,#685,.T.);
#685 = LINE('',#686,#687);
#686 = CARTESIAN_POINT('',(87.71,5.970017614691,485.58120104976));
#687 = VECTOR('',#688,1.);
#688 = DIRECTION('',(0.,-0.256375089582,0.966577370644));
#689 = ORIENTED_EDGE('',*,*,#652,.F.);
#690 = ORIENTED_EDGE('',*,*,#87,.F.);
#691 = PLANE('',#692);
#692 = AXIS2_PLACEMENT_3D('',#693,#694,#695);
#693 = CARTESIAN_POINT('',(90.01,5.970017614691,485.58120104976));
#694 = DIRECTION('',(0.,0.966577370644,0.256375089582));
#695 = DIRECTION('',(0.,-0.256375089582,0.966577370644));
#696 = ADVANCED_FACE('',(#697),#715,.F.);
#697 = FACE_BOUND('',#698,.F.);
#698 = EDGE_LOOP('',(#699,#707,#713,#714));
#699 = ORIENTED_EDGE('',*,*,#700,.T.);
#700 = EDGE_CURVE('',#72,#701,#703,.T.);
#701 = VERTEX_POINT('',#702);
#702 = CARTESIAN_POINT('',(87.71,7.144533872498,480.43093208123));
#703 = LINE('',#704,#705);
#704 = CARTESIAN_POINT('',(90.01,7.144533872498,480.43093208123));
#705 = VECTOR('',#706,1.);
#706 = DIRECTION('',(-1.,0.,0.));
#707 = ORIENTED_EDGE('',*,*,#708,.T.);
#708 = EDGE_CURVE('',#701,#677,#709,.T.);
#709 = LINE('',#710,#711);
#710 = CARTESIAN_POINT('',(87.71,7.144533872498,480.43093208123));
#711 = VECTOR('',#712,1.);
#712 = DIRECTION('',(0.,-0.222341174547,0.974968923659));
#713 = ORIENTED_EDGE('',*,*,#676,.F.);
#714 = ORIENTED_EDGE('',*,*,#79,.F.);
#715 = PLANE('',#716);
#716 = AXIS2_PLACEMENT_3D('',#717,#718,#719);
#717 = CARTESIAN_POINT('',(90.01,7.144533872498,480.43093208123));
#718 = DIRECTION('',(0.,0.974968923659,0.222341174547));
#719 = DIRECTION('',(0.,-0.222341174547,0.974968923659));
#720 = ADVANCED_FACE('',(#721),#739,.F.);
#721 = FACE_BOUND('',#722,.F.);
#722 = EDGE_LOOP('',(#723,#731,#737,#738));
#723 = ORIENTED_EDGE('',*,*,#724,.T.);
#724 = EDGE_CURVE('',#64,#725,#727,.T.);
#725 = VERTEX_POINT('',#726);
#726 = CARTESIAN_POINT('',(87.71,8.141633442625,475.24756883028));
#727 = LINE('',#728,#729);
#728 = CARTESIAN_POINT('',(90.01,8.141633442625,475.24756883028));
#729 = VECTOR('',#730,1.);
#730 = DIRECTION('',(-1.,0.,0.));
#731 = ORIENTED_EDGE('',*,*,#732,.T.);
#732 = EDGE_CURVE('',#725,#701,#733,.T.);
#733 = LINE('',#734,#735);
#734 = CARTESIAN_POINT('',(87.71,8.141633442625,475.24756883028));
#735 = VECTOR('',#736,1.);
#736 = DIRECTION('',(0.,-0.188902009113,0.981995942432));
#737 = ORIENTED_EDGE('',*,*,#700,.F.);
#738 = ORIENTED_EDGE('',*,*,#71,.F.);
#739 = PLANE('',#740);
#740 = AXIS2_PLACEMENT_3D('',#741,#742,#743);
#741 = CARTESIAN_POINT('',(90.01,8.141633442625,475.24756883028));
#742 = DIRECTION('',(0.,0.981995942432,0.188902009113));
#743 = DIRECTION('',(0.,-0.188902009113,0.981995942432));
#744 = ADVANCED_FACE('',(#745),#763,.F.);
#745 = FACE_BOUND('',#746,.F.);
#746 = EDGE_LOOP('',(#747,#755,#761,#762));
#747 = ORIENTED_EDGE('',*,*,#748,.T.);
#748 = EDGE_CURVE('',#56,#749,#751,.T.);
#749 = VERTEX_POINT('',#750);
#750 = CARTESIAN_POINT('',(87.71,8.966050564883,470.03335759628));
#751 = LINE('',#752,#753);
#752 = CARTESIAN_POINT('',(90.01,8.966050564883,470.03335759628));
#753 = VECTOR('',#754,1.);
#754 = DIRECTION('',(-1.,0.,0.));
#755 = ORIENTED_EDGE('',*,*,#756,.T.);
#756 = EDGE_CURVE('',#749,#725,#757,.T.);
#757 = LINE('',#758,#759);
#758 = CARTESIAN_POINT('',(87.71,8.966050564883,470.03335759628));
#759 = VECTOR('',#760,1.);
#760 = DIRECTION('',(0.,-0.156169684462,0.987730241339));
#761 = ORIENTED_EDGE('',*,*,#724,.F.);
#762 = ORIENTED_EDGE('',*,*,#63,.F.);
#763 = PLANE('',#764);
#764 = AXIS2_PLACEMENT_3D('',#765,#766,#767);
#765 = CARTESIAN_POINT('',(90.01,8.966050564883,470.03335759628));
#766 = DIRECTION('',(0.,0.987730241339,0.156169684462));
#767 = DIRECTION('',(0.,-0.156169684462,0.987730241339));
#768 = ADVANCED_FACE('',(#769),#787,.F.);
#769 = FACE_BOUND('',#770,.F.);
#770 = EDGE_LOOP('',(#771,#779,#785,#786));
#771 = ORIENTED_EDGE('',*,*,#772,.T.);
#772 = EDGE_CURVE('',#48,#773,#775,.T.);
#773 = VERTEX_POINT('',#774);
#774 = CARTESIAN_POINT('',(87.71,9.623311809448,464.78944352025));
#775 = LINE('',#776,#777);
#776 = CARTESIAN_POINT('',(90.01,9.623311809448,464.78944352025));
#777 = VECTOR('',#778,1.);
#778 = DIRECTION('',(-1.,0.,0.));
#779 = ORIENTED_EDGE('',*,*,#780,.T.);
#780 = EDGE_CURVE('',#773,#749,#781,.T.);
#781 = LINE('',#782,#783);
#782 = CARTESIAN_POINT('',(87.71,9.623311809448,464.78944352025));
#783 = VECTOR('',#784,1.);
#784 = DIRECTION('',(0.,-0.124364858741,0.992236555419));
#785 = ORIENTED_EDGE('',*,*,#748,.F.);
#786 = ORIENTED_EDGE('',*,*,#55,.F.);
#787 = PLANE('',#788);
#788 = AXIS2_PLACEMENT_3D('',#789,#790,#791);
#789 = CARTESIAN_POINT('',(90.01,9.623311809448,464.78944352025));
#790 = DIRECTION('',(0.,0.992236555419,0.124364858741));
#791 = DIRECTION('',(0.,-0.124364858741,0.992236555419));
#792 = ADVANCED_FACE('',(#793),#811,.F.);
#793 = FACE_BOUND('',#794,.F.);
#794 = EDGE_LOOP('',(#795,#803,#809,#810));
#795 = ORIENTED_EDGE('',*,*,#796,.T.);
#796 = EDGE_CURVE('',#40,#797,#799,.T.);
#797 = VERTEX_POINT('',#798);
#798 = CARTESIAN_POINT('',(87.71,10.122321709626,459.5170254925));
#799 = LINE('',#800,#801);
#800 = CARTESIAN_POINT('',(90.01,10.122321709626,459.5170254925));
#801 = VECTOR('',#802,1.);
#802 = DIRECTION('',(-1.,0.,0.));
#803 = ORIENTED_EDGE('',*,*,#804,.T.);
#804 = EDGE_CURVE('',#797,#773,#805,.T.);
#805 = LINE('',#806,#807);
#806 = CARTESIAN_POINT('',(87.71,10.122321709626,459.5170254925));
#807 = VECTOR('',#808,1.);
#808 = DIRECTION('',(0.,-9.422428196776E-02,0.995550995523));
#809 = ORIENTED_EDGE('',*,*,#772,.F.);
#810 = ORIENTED_EDGE('',*,*,#47,.F.);
#811 = PLANE('',#812);
#812 = AXIS2_PLACEMENT_3D('',#813,#814,#815);
#813 = CARTESIAN_POINT('',(90.01,10.122321709626,459.5170254925));
#814 = DIRECTION('',(0.,0.995550995523,9.422428196776E-02));
#815 = DIRECTION('',(0.,-9.422428196776E-02,0.995550995523));
#816 = ADVANCED_FACE('',(#817),#835,.F.);
#817 = FACE_BOUND('',#818,.F.);
#818 = EDGE_LOOP('',(#819,#827,#833,#834));
#819 = ORIENTED_EDGE('',*,*,#820,.T.);
#820 = EDGE_CURVE('',#32,#821,#823,.T.);
#821 = VERTEX_POINT('',#822);
#822 = CARTESIAN_POINT('',(87.71,10.472835326751,454.21923599224));
#823 = LINE('',#824,#825);
#824 = CARTESIAN_POINT('',(90.01,10.472835326751,454.21923599224));
#825 = VECTOR('',#826,1.);
#826 = DIRECTION('',(-1.,0.,0.));
#827 = ORIENTED_EDGE('',*,*,#828,.T.);
#828 = EDGE_CURVE('',#821,#797,#829,.T.);
#829 = LINE('',#830,#831);
#830 = CARTESIAN_POINT('',(87.71,10.472835326751,454.21923599224));
#831 = VECTOR('',#832,1.);
#832 = DIRECTION('',(0.,-6.601790240201E-02,0.997818438676));
#833 = ORIENTED_EDGE('',*,*,#796,.F.);
#834 = ORIENTED_EDGE('',*,*,#39,.F.);
#835 = PLANE('',#836);
#836 = AXIS2_PLACEMENT_3D('',#837,#838,#839);
#837 = CARTESIAN_POINT('',(90.01,10.472835326751,454.21923599224));
#838 = DIRECTION('',(0.,0.997818438676,6.601790240201E-02));
#839 = DIRECTION('',(0.,-6.601790240201E-02,0.997818438676));
#840 = ADVANCED_FACE('',(#841),#852,.F.);
#841 = FACE_BOUND('',#842,.F.);
#842 = EDGE_LOOP('',(#843,#844,#845,#851));
#843 = ORIENTED_EDGE('',*,*,#31,.F.);
#844 = ORIENTED_EDGE('',*,*,#247,.F.);
#845 = ORIENTED_EDGE('',*,*,#846,.T.);
#846 = EDGE_CURVE('',#238,#821,#847,.T.);
#847 = LINE('',#848,#849);
#848 = CARTESIAN_POINT('',(87.71,10.684636094748,448.89929121468));
#849 = VECTOR('',#850,1.);
#850 = DIRECTION('',(0.,-3.978107284127E-02,0.999208419822));
#851 = ORIENTED_EDGE('',*,*,#820,.F.);
#852 = PLANE('',#853);
#853 = AXIS2_PLACEMENT_3D('',#854,#855,#856);
#854 = CARTESIAN_POINT('',(90.01,10.684636094748,448.89929121468));
#855 = DIRECTION('',(0.,0.999208419822,3.978107284127E-02));
#856 = DIRECTION('',(0.,-3.978107284127E-02,0.999208419822));
#857 = ADVANCED_FACE('',(#858),#886,.T.);
#858 = FACE_BOUND('',#859,.T.);
#859 = EDGE_LOOP('',(#860,#861,#862,#863,#864,#865,#866,#867,#868,#869,
    #870,#871,#872,#873,#874,#875,#876,#877,#878,#879,#880,#881,#882,
    #883,#884,#885));
#860 = ORIENTED_EDGE('',*,*,#237,.F.);
#861 = ORIENTED_EDGE('',*,*,#846,.T.);
#862 = ORIENTED_EDGE('',*,*,#828,.T.);
#863 = ORIENTED_EDGE('',*,*,#804,.T.);
#864 = ORIENTED_EDGE('',*,*,#780,.T.);
#865 = ORIENTED_EDGE('',*,*,#756,.T.);
#866 = ORIENTED_EDGE('',*,*,#732,.T.);
#867 = ORIENTED_EDGE('',*,*,#708,.T.);
#868 = ORIENTED_EDGE('',*,*,#684,.T.);
#869 = ORIENTED_EDGE('',*,*,#660,.T.);
#870 = ORIENTED_EDGE('',*,*,#636,.T.);
#871 = ORIENTED_EDGE('',*,*,#612,.T.);
#872 = ORIENTED_EDGE('',*,*,#588,.T.);
#873 = ORIENTED_EDGE('',*,*,#564,.T.);
#874 = ORIENTED_EDGE('',*,*,#540,.T.);
#875 = ORIENTED_EDGE('',*,*,#516,.T.);
#876 = ORIENTED_EDGE('',*,*,#492,.T.);
#877 = ORIENTED_EDGE('',*,*,#468,.T.);
#878 = ORIENTED_EDGE('',*,*,#444,.T.);
#879 = ORIENTED_EDGE('',*,*,#420,.T.);
#880 = ORIENTED_EDGE('',*,*,#396,.T.);
#881 = ORIENTED_EDGE('',*,*,#372,.T.);
#882 = ORIENTED_EDGE('',*,*,#348,.T.);
#883 = ORIENTED_EDGE('',*,*,#324,.T.);
#884 = ORIENTED_EDGE('',*,*,#300,.T.);
#885 = ORIENTED_EDGE('',*,*,#277,.T.);
#886 = PLANE('',#887);
#887 = AXIS2_PLACEMENT_3D('',#888,#889,#890);
#888 = CARTESIAN_POINT('',(87.71,-6.470802342904,299.63428224347));
#889 = DIRECTION('',(-1.,-0.,-0.));
#890 = DIRECTION('',(0.,0.,-1.));
#891 = ( GEOMETRIC_REPRESENTATION_CONTEXT(3) 
GLOBAL_UNCERTAINTY_ASSIGNED_CONTEXT((#895)) GLOBAL_UNIT_ASSIGNED_CONTEXT
((#892,#893,#894)) REPRESENTATION_CONTEXT('Context #1',
  '3D Context with UNIT and UNCERTAINTY') );
#892 = ( LENGTH_UNIT() NAMED_UNIT(*) SI_UNIT(.MILLI.,.METRE.) );
#893 = ( NAMED_UNIT(*) PLANE_ANGLE_UNIT() SI_UNIT($,.RADIAN.) );
#894 = ( NAMED_UNIT(*) SI_UNIT($,.STERADIAN.) SOLID_ANGLE_UNIT() );
#895 = UNCERTAINTY_MEASURE_WITH_UNIT(LENGTH_MEASURE(1.E-07),#892,
  'distance_accuracy_value','confusion accuracy');
#896 = PRODUCT_RELATED_PRODUCT_CATEGORY('part',$,(#7));
ENDSEC;
END-ISO-10303-21;
