ISO-10303-21;
HEADER;
FILE_DESCRIPTION(('FreeCAD Model'),'2;1');
FILE_NAME('Open CASCADE Shape Model','2026-09-19T23:10:23',('FreeCAD'),(
    'FreeCAD'),'Open CASCADE STEP processor 7.9','FreeCAD','Unknown');
FILE_SCHEMA(('AUTOMOTIVE_DESIGN { 1 0 10303 214 1 1 1 1 }'));
ENDSEC;
DATA;
#1 = APPLICATION_PROTOCOL_DEFINITION('international standard',
  'automotive_design',2000,#2);
#2 = APPLICATION_CONTEXT(
  'core data for automotive mechanical design processes');
#3 = SHAPE_DEFINITION_REPRESENTATION(#4,#10);
#4 = PRODUCT_DEFINITION_SHAPE('','',#5);
#5 = PRODUCT_DEFINITION('design','',#6,#9);
#6 = PRODUCT_DEFINITION_FORMATION('','',#7);
#7 = PRODUCT('Open CASCADE STEP translator 7.9 26',
  'Open CASCADE STEP translator 7.9 26','',(#8));
#8 = PRODUCT_CONTEXT('',#2,'mechanical');
#9 = PRODUCT_DEFINITION_CONTEXT('part definition',#2,'design');
#10 = ADVANCED_BREP_SHAPE_REPRESENTATION('',(#11,#15),#907);
#11 = AXIS2_PLACEMENT_3D('',#12,#13,#14);
#12 = CARTESIAN_POINT('',(0.,0.,0.));
#13 = DIRECTION('',(0.,0.,1.));
#14 = DIRECTION('',(1.,0.,-0.));
#15 = MANIFOLD_SOLID_BREP('',#16);
#16 = CLOSED_SHELL('',(#17,#57,#88,#144,#200,#249,#366,#417,#457,#474,
    #486,#521,#531,#562,#586,#610,#634,#658,#675,#706,#730,#754,#778,
    #802,#819,#862,#873,#890));
#17 = ADVANCED_FACE('',(#18),#52,.T.);
#18 = FACE_BOUND('',#19,.T.);
#19 = EDGE_LOOP('',(#20,#30,#38,#46));
#20 = ORIENTED_EDGE('',*,*,#21,.F.);
#21 = EDGE_CURVE('',#22,#24,#26,.T.);
#22 = VERTEX_POINT('',#23);
#23 = CARTESIAN_POINT('',(-34.,-65.,40.));
#24 = VERTEX_POINT('',#25);
#25 = CARTESIAN_POINT('',(-34.,-55.,40.));
#26 = LINE('',#27,#28);
#27 = CARTESIAN_POINT('',(-34.,-65.,40.));
#28 = VECTOR('',#29,1.);
#29 = DIRECTION('',(0.,1.,0.));
#30 = ORIENTED_EDGE('',*,*,#31,.T.);
#31 = EDGE_CURVE('',#22,#32,#34,.T.);
#32 = VERTEX_POINT('',#33);
#33 = CARTESIAN_POINT('',(-30.,-65.,40.));
#34 = LINE('',#35,#36);
#35 = CARTESIAN_POINT('',(-34.,-65.,40.));
#36 = VECTOR('',#37,1.);
#37 = DIRECTION('',(1.,0.,0.));
#38 = ORIENTED_EDGE('',*,*,#39,.T.);
#39 = EDGE_CURVE('',#32,#40,#42,.T.);
#40 = VERTEX_POINT('',#41);
#41 = CARTESIAN_POINT('',(-30.,-55.,40.));
#42 = LINE('',#43,#44);
#43 = CARTESIAN_POINT('',(-30.,-65.,40.));
#44 = VECTOR('',#45,1.);
#45 = DIRECTION('',(0.,1.,0.));
#46 = ORIENTED_EDGE('',*,*,#47,.F.);
#47 = EDGE_CURVE('',#24,#40,#48,.T.);
#48 = LINE('',#49,#50);
#49 = CARTESIAN_POINT('',(-34.,-55.,40.));
#50 = VECTOR('',#51,1.);
#51 = DIRECTION('',(1.,0.,0.));
#52 = PLANE('',#53);
#53 = AXIS2_PLACEMENT_3D('',#54,#55,#56);
#54 = CARTESIAN_POINT('',(-34.,-65.,40.));
#55 = DIRECTION('',(0.,0.,1.));
#56 = DIRECTION('',(1.,0.,0.));
#57 = ADVANCED_FACE('',(#58),#83,.T.);
#58 = FACE_BOUND('',#59,.T.);
#59 = EDGE_LOOP('',(#60,#68,#69,#77));
#60 = ORIENTED_EDGE('',*,*,#61,.T.);
#61 = EDGE_CURVE('',#62,#22,#64,.T.);
#62 = VERTEX_POINT('',#63);
#63 = CARTESIAN_POINT('',(-34.,-65.,27.5));
#64 = LINE('',#65,#66);
#65 = CARTESIAN_POINT('',(-34.,-65.,27.5));
#66 = VECTOR('',#67,1.);
#67 = DIRECTION('',(0.,0.,1.));
#68 = ORIENTED_EDGE('',*,*,#21,.T.);
#69 = ORIENTED_EDGE('',*,*,#70,.F.);
#70 = EDGE_CURVE('',#71,#24,#73,.T.);
#71 = VERTEX_POINT('',#72);
#72 = CARTESIAN_POINT('',(-34.,-55.,27.5));
#73 = LINE('',#74,#75);
#74 = CARTESIAN_POINT('',(-34.,-55.,30.5));
#75 = VECTOR('',#76,1.);
#76 = DIRECTION('',(0.,0.,1.));
#77 = ORIENTED_EDGE('',*,*,#78,.F.);
#78 = EDGE_CURVE('',#62,#71,#79,.T.);
#79 = LINE('',#80,#81);
#80 = CARTESIAN_POINT('',(-34.,-65.,27.5));
#81 = VECTOR('',#82,1.);
#82 = DIRECTION('',(0.,1.,0.));
#83 = PLANE('',#84);
#84 = AXIS2_PLACEMENT_3D('',#85,#86,#87);
#85 = CARTESIAN_POINT('',(-34.,-60.,33.75));
#86 = DIRECTION('',(-1.,-0.,-0.));
#87 = DIRECTION('',(0.,0.,-1.));
#88 = ADVANCED_FACE('',(#89),#139,.T.);
#89 = FACE_BOUND('',#90,.T.);
#90 = EDGE_LOOP('',(#91,#99,#100,#101,#109,#117,#125,#133));
#91 = ORIENTED_EDGE('',*,*,#92,.F.);
#92 = EDGE_CURVE('',#71,#93,#95,.T.);
#93 = VERTEX_POINT('',#94);
#94 = CARTESIAN_POINT('',(34.,-55.,27.5));
#95 = LINE('',#96,#97);
#96 = CARTESIAN_POINT('',(-34.,-55.,27.5));
#97 = VECTOR('',#98,1.);
#98 = DIRECTION('',(1.,0.,0.));
#99 = ORIENTED_EDGE('',*,*,#70,.T.);
#100 = ORIENTED_EDGE('',*,*,#47,.T.);
#101 = ORIENTED_EDGE('',*,*,#102,.F.);
#102 = EDGE_CURVE('',#103,#40,#105,.T.);
#103 = VERTEX_POINT('',#104);
#104 = CARTESIAN_POINT('',(-30.,-55.,30.5));
#105 = LINE('',#106,#107);
#106 = CARTESIAN_POINT('',(-30.,-55.,30.5));
#107 = VECTOR('',#108,1.);
#108 = DIRECTION('',(0.,0.,1.));
#109 = ORIENTED_EDGE('',*,*,#110,.T.);
#110 = EDGE_CURVE('',#103,#111,#113,.T.);
#111 = VERTEX_POINT('',#112);
#112 = CARTESIAN_POINT('',(30.,-55.,30.5));
#113 = LINE('',#114,#115);
#114 = CARTESIAN_POINT('',(-34.,-55.,30.5));
#115 = VECTOR('',#116,1.);
#116 = DIRECTION('',(1.,0.,0.));
#117 = ORIENTED_EDGE('',*,*,#118,.T.);
#118 = EDGE_CURVE('',#111,#119,#121,.T.);
#119 = VERTEX_POINT('',#120);
#120 = CARTESIAN_POINT('',(30.,-55.,40.));
#121 = LINE('',#122,#123);
#122 = CARTESIAN_POINT('',(30.,-55.,30.5));
#123 = VECTOR('',#124,1.);
#124 = DIRECTION('',(0.,0.,1.));
#125 = ORIENTED_EDGE('',*,*,#126,.T.);
#126 = EDGE_CURVE('',#119,#127,#129,.T.);
#127 = VERTEX_POINT('',#128);
#128 = CARTESIAN_POINT('',(34.,-55.,40.));
#129 = LINE('',#130,#131);
#130 = CARTESIAN_POINT('',(30.,-55.,40.));
#131 = VECTOR('',#132,1.);
#132 = DIRECTION('',(1.,0.,0.));
#133 = ORIENTED_EDGE('',*,*,#134,.F.);
#134 = EDGE_CURVE('',#93,#127,#135,.T.);
#135 = LINE('',#136,#137);
#136 = CARTESIAN_POINT('',(34.,-55.,30.5));
#137 = VECTOR('',#138,1.);
#138 = DIRECTION('',(0.,0.,1.));
#139 = PLANE('',#140);
#140 = AXIS2_PLACEMENT_3D('',#141,#142,#143);
#141 = CARTESIAN_POINT('',(0.,-55.,30.741666666667));
#142 = DIRECTION('',(0.,1.,0.));
#143 = DIRECTION('',(0.,0.,1.));
#144 = ADVANCED_FACE('',(#145),#195,.T.);
#145 = FACE_BOUND('',#146,.T.);
#146 = EDGE_LOOP('',(#147,#155,#163,#171,#179,#187,#193,#194));
#147 = ORIENTED_EDGE('',*,*,#148,.F.);
#148 = EDGE_CURVE('',#149,#32,#151,.T.);
#149 = VERTEX_POINT('',#150);
#150 = CARTESIAN_POINT('',(-30.,-65.,30.5));
#151 = LINE('',#152,#153);
#152 = CARTESIAN_POINT('',(-30.,-65.,30.5));
#153 = VECTOR('',#154,1.);
#154 = DIRECTION('',(0.,0.,1.));
#155 = ORIENTED_EDGE('',*,*,#156,.T.);
#156 = EDGE_CURVE('',#149,#157,#159,.T.);
#157 = VERTEX_POINT('',#158);
#158 = CARTESIAN_POINT('',(-30.,-61.7,30.5));
#159 = LINE('',#160,#161);
#160 = CARTESIAN_POINT('',(-30.,-65.,30.5));
#161 = VECTOR('',#162,1.);
#162 = DIRECTION('',(0.,1.,0.));
#163 = ORIENTED_EDGE('',*,*,#164,.T.);
#164 = EDGE_CURVE('',#157,#165,#167,.T.);
#165 = VERTEX_POINT('',#166);
#166 = CARTESIAN_POINT('',(-30.,-61.7,30.51));
#167 = LINE('',#168,#169);
#168 = CARTESIAN_POINT('',(-30.,-61.7,27.49));
#169 = VECTOR('',#170,1.);
#170 = DIRECTION('',(0.,0.,1.));
#171 = ORIENTED_EDGE('',*,*,#172,.F.);
#172 = EDGE_CURVE('',#173,#165,#175,.T.);
#173 = VERTEX_POINT('',#174);
#174 = CARTESIAN_POINT('',(-30.,-58.3,30.51));
#175 = LINE('',#176,#177);
#176 = CARTESIAN_POINT('',(-30.,-62.5,30.51));
#177 = VECTOR('',#178,1.);
#178 = DIRECTION('',(0.,-1.,0.));
#179 = ORIENTED_EDGE('',*,*,#180,.F.);
#180 = EDGE_CURVE('',#181,#173,#183,.T.);
#181 = VERTEX_POINT('',#182);
#182 = CARTESIAN_POINT('',(-30.,-58.3,30.5));
#183 = LINE('',#184,#185);
#184 = CARTESIAN_POINT('',(-30.,-58.3,27.49));
#185 = VECTOR('',#186,1.);
#186 = DIRECTION('',(0.,0.,1.));
#187 = ORIENTED_EDGE('',*,*,#188,.T.);
#188 = EDGE_CURVE('',#181,#103,#189,.T.);
#189 = LINE('',#190,#191);
#190 = CARTESIAN_POINT('',(-30.,-65.,30.5));
#191 = VECTOR('',#192,1.);
#192 = DIRECTION('',(0.,1.,0.));
#193 = ORIENTED_EDGE('',*,*,#102,.T.);
#194 = ORIENTED_EDGE('',*,*,#39,.F.);
#195 = PLANE('',#196);
#196 = AXIS2_PLACEMENT_3D('',#197,#198,#199);
#197 = CARTESIAN_POINT('',(-30.,-65.,30.5));
#198 = DIRECTION('',(1.,0.,0.));
#199 = DIRECTION('',(0.,0.,1.));
#200 = ADVANCED_FACE('',(#201),#244,.T.);
#201 = FACE_BOUND('',#202,.T.);
#202 = EDGE_LOOP('',(#203,#211,#219,#227,#235,#241,#242,#243));
#203 = ORIENTED_EDGE('',*,*,#204,.T.);
#204 = EDGE_CURVE('',#62,#205,#207,.T.);
#205 = VERTEX_POINT('',#206);
#206 = CARTESIAN_POINT('',(34.,-65.,27.5));
#207 = LINE('',#208,#209);
#208 = CARTESIAN_POINT('',(-34.,-65.,27.5));
#209 = VECTOR('',#210,1.);
#210 = DIRECTION('',(1.,0.,0.));
#211 = ORIENTED_EDGE('',*,*,#212,.T.);
#212 = EDGE_CURVE('',#205,#213,#215,.T.);
#213 = VERTEX_POINT('',#214);
#214 = CARTESIAN_POINT('',(34.,-65.,40.));
#215 = LINE('',#216,#217);
#216 = CARTESIAN_POINT('',(34.,-65.,27.5));
#217 = VECTOR('',#218,1.);
#218 = DIRECTION('',(0.,0.,1.));
#219 = ORIENTED_EDGE('',*,*,#220,.F.);
#220 = EDGE_CURVE('',#221,#213,#223,.T.);
#221 = VERTEX_POINT('',#222);
#222 = CARTESIAN_POINT('',(30.,-65.,40.));
#223 = LINE('',#224,#225);
#224 = CARTESIAN_POINT('',(30.,-65.,40.));
#225 = VECTOR('',#226,1.);
#226 = DIRECTION('',(1.,0.,0.));
#227 = ORIENTED_EDGE('',*,*,#228,.F.);
#228 = EDGE_CURVE('',#229,#221,#231,.T.);
#229 = VERTEX_POINT('',#230);
#230 = CARTESIAN_POINT('',(30.,-65.,30.5));
#231 = LINE('',#232,#233);
#232 = CARTESIAN_POINT('',(30.,-65.,30.5));
#233 = VECTOR('',#234,1.);
#234 = DIRECTION('',(0.,0.,1.));
#235 = ORIENTED_EDGE('',*,*,#236,.F.);
#236 = EDGE_CURVE('',#149,#229,#237,.T.);
#237 = LINE('',#238,#239);
#238 = CARTESIAN_POINT('',(-34.,-65.,30.5));
#239 = VECTOR('',#240,1.);
#240 = DIRECTION('',(1.,0.,0.));
#241 = ORIENTED_EDGE('',*,*,#148,.T.);
#242 = ORIENTED_EDGE('',*,*,#31,.F.);
#243 = ORIENTED_EDGE('',*,*,#61,.F.);
#244 = PLANE('',#245);
#245 = AXIS2_PLACEMENT_3D('',#246,#247,#248);
#246 = CARTESIAN_POINT('',(0.,-65.,30.741666666667));
#247 = DIRECTION('',(-0.,-1.,-0.));
#248 = DIRECTION('',(0.,0.,-1.));
#249 = ADVANCED_FACE('',(#250,#261,#311),#361,.F.);
#250 = FACE_BOUND('',#251,.F.);
#251 = EDGE_LOOP('',(#252,#253,#254,#260));
#252 = ORIENTED_EDGE('',*,*,#78,.F.);
#253 = ORIENTED_EDGE('',*,*,#204,.T.);
#254 = ORIENTED_EDGE('',*,*,#255,.T.);
#255 = EDGE_CURVE('',#205,#93,#256,.T.);
#256 = LINE('',#257,#258);
#257 = CARTESIAN_POINT('',(34.,-65.,27.5));
#258 = VECTOR('',#259,1.);
#259 = DIRECTION('',(0.,1.,0.));
#260 = ORIENTED_EDGE('',*,*,#92,.F.);
#261 = FACE_BOUND('',#262,.F.);
#262 = EDGE_LOOP('',(#263,#273,#281,#289,#297,#305));
#263 = ORIENTED_EDGE('',*,*,#264,.T.);
#264 = EDGE_CURVE('',#265,#267,#269,.T.);
#265 = VERTEX_POINT('',#266);
#266 = CARTESIAN_POINT('',(27.05,-58.29681670589,27.5));
#267 = VERTEX_POINT('',#268);
#268 = CARTESIAN_POINT('',(30.,-56.59363341178,27.5));
#269 = LINE('',#270,#271);
#270 = CARTESIAN_POINT('',(4.179968245269,-71.50083569586,27.5));
#271 = VECTOR('',#272,1.);
#272 = DIRECTION('',(0.866025403784,0.5,0.));
#273 = ORIENTED_EDGE('',*,*,#274,.T.);
#274 = EDGE_CURVE('',#267,#275,#277,.T.);
#275 = VERTEX_POINT('',#276);
#276 = CARTESIAN_POINT('',(32.95,-58.29681670589,27.5));
#277 = LINE('',#278,#279);
#278 = CARTESIAN_POINT('',(9.295031754731,-44.63961442181,27.5));
#279 = VECTOR('',#280,1.);
#280 = DIRECTION('',(0.866025403784,-0.5,0.));
#281 = ORIENTED_EDGE('',*,*,#282,.T.);
#282 = EDGE_CURVE('',#275,#283,#285,.T.);
#283 = VERTEX_POINT('',#284);
#284 = CARTESIAN_POINT('',(32.95,-61.7031832941,27.5));
#285 = LINE('',#286,#287);
#286 = CARTESIAN_POINT('',(32.95,-63.35159164705,27.5));
#287 = VECTOR('',#288,1.);
#288 = DIRECTION('',(-2.607407032384E-16,-1.,0.));
#289 = ORIENTED_EDGE('',*,*,#290,.T.);
#290 = EDGE_CURVE('',#283,#291,#293,.T.);
#291 = VERTEX_POINT('',#292);
#292 = CARTESIAN_POINT('',(30.,-63.40636658821,27.5));
#293 = LINE('',#294,#295);
#294 = CARTESIAN_POINT('',(5.654968245269,-77.46197722524,27.5));
#295 = VECTOR('',#296,1.);
#296 = DIRECTION('',(-0.866025403784,-0.5,0.));
#297 = ORIENTED_EDGE('',*,*,#298,.T.);
#298 = EDGE_CURVE('',#291,#299,#301,.T.);
#299 = VERTEX_POINT('',#300);
#300 = CARTESIAN_POINT('',(27.05,-61.7031832941,27.5));
#301 = LINE('',#302,#303);
#302 = CARTESIAN_POINT('',(4.870031754731,-48.89757265708,27.5));
#303 = VECTOR('',#304,1.);
#304 = DIRECTION('',(-0.866025403784,0.5,0.));
#305 = ORIENTED_EDGE('',*,*,#306,.T.);
#306 = EDGE_CURVE('',#299,#265,#307,.T.);
#307 = LINE('',#308,#309);
#308 = CARTESIAN_POINT('',(27.05,-61.64840835294,27.5));
#309 = VECTOR('',#310,1.);
#310 = DIRECTION('',(-1.303703516192E-16,1.,0.));
#311 = FACE_BOUND('',#312,.F.);
#312 = EDGE_LOOP('',(#313,#323,#331,#339,#347,#355));
#313 = ORIENTED_EDGE('',*,*,#314,.T.);
#314 = EDGE_CURVE('',#315,#317,#319,.T.);
#315 = VERTEX_POINT('',#316);
#316 = CARTESIAN_POINT('',(-32.95,-58.29681670589,27.5));
#317 = VERTEX_POINT('',#318);
#318 = CARTESIAN_POINT('',(-30.,-56.59363341178,27.5));
#319 = LINE('',#320,#321);
#320 = CARTESIAN_POINT('',(-33.32003175473,-58.51045463909,27.5));
#321 = VECTOR('',#322,1.);
#322 = DIRECTION('',(0.866025403784,0.5,0.));
#323 = ORIENTED_EDGE('',*,*,#324,.T.);
#324 = EDGE_CURVE('',#317,#325,#327,.T.);
#325 = VERTEX_POINT('',#326);
#326 = CARTESIAN_POINT('',(-27.05,-58.29681670589,27.5));
#327 = LINE('',#328,#329);
#328 = CARTESIAN_POINT('',(-28.20496824526,-57.62999547857,27.5));
#329 = VECTOR('',#330,1.);
#330 = DIRECTION('',(0.866025403784,-0.5,0.));
#331 = ORIENTED_EDGE('',*,*,#332,.T.);
#332 = EDGE_CURVE('',#325,#333,#335,.T.);
#333 = VERTEX_POINT('',#334);
#334 = CARTESIAN_POINT('',(-27.05,-61.7031832941,27.5));
#335 = LINE('',#336,#337);
#336 = CARTESIAN_POINT('',(-27.05,-63.35159164705,27.5));
#337 = VECTOR('',#338,1.);
#338 = DIRECTION('',(-2.607407032384E-16,-1.,0.));
#339 = ORIENTED_EDGE('',*,*,#340,.T.);
#340 = EDGE_CURVE('',#333,#341,#343,.T.);
#341 = VERTEX_POINT('',#342);
#342 = CARTESIAN_POINT('',(-30.,-63.40636658821,27.5));
#343 = LINE('',#344,#345);
#344 = CARTESIAN_POINT('',(-31.84503175473,-64.47159616847,27.5));
#345 = VECTOR('',#346,1.);
#346 = DIRECTION('',(-0.866025403784,-0.5,0.));
#347 = ORIENTED_EDGE('',*,*,#348,.T.);
#348 = EDGE_CURVE('',#341,#349,#351,.T.);
#349 = VERTEX_POINT('',#350);
#350 = CARTESIAN_POINT('',(-32.95,-61.7031832941,27.5));
#351 = LINE('',#352,#353);
#352 = CARTESIAN_POINT('',(-32.62996824526,-61.88795371385,27.5));
#353 = VECTOR('',#354,1.);
#354 = DIRECTION('',(-0.866025403784,0.5,0.));
#355 = ORIENTED_EDGE('',*,*,#356,.T.);
#356 = EDGE_CURVE('',#349,#315,#357,.T.);
#357 = LINE('',#358,#359);
#358 = CARTESIAN_POINT('',(-32.95,-61.64840835294,27.5));
#359 = VECTOR('',#360,1.);
#360 = DIRECTION('',(-1.303703516192E-16,1.,0.));
#361 = PLANE('',#362);
#362 = AXIS2_PLACEMENT_3D('',#363,#364,#365);
#363 = CARTESIAN_POINT('',(-34.,-65.,27.5));
#364 = DIRECTION('',(0.,0.,1.));
#365 = DIRECTION('',(1.,0.,0.));
#366 = ADVANCED_FACE('',(#367),#412,.T.);
#367 = FACE_BOUND('',#368,.T.);
#368 = EDGE_LOOP('',(#369,#370,#371,#379,#388,#394,#395,#396,#405));
#369 = ORIENTED_EDGE('',*,*,#156,.F.);
#370 = ORIENTED_EDGE('',*,*,#236,.T.);
#371 = ORIENTED_EDGE('',*,*,#372,.T.);
#372 = EDGE_CURVE('',#229,#373,#375,.T.);
#373 = VERTEX_POINT('',#374);
#374 = CARTESIAN_POINT('',(30.,-61.7,30.5));
#375 = LINE('',#376,#377);
#376 = CARTESIAN_POINT('',(30.,-65.,30.5));
#377 = VECTOR('',#378,1.);
#378 = DIRECTION('',(0.,1.,0.));
#379 = ORIENTED_EDGE('',*,*,#380,.F.);
#380 = EDGE_CURVE('',#381,#373,#383,.T.);
#381 = VERTEX_POINT('',#382);
#382 = CARTESIAN_POINT('',(30.,-58.3,30.5));
#383 = CIRCLE('',#384,1.7);
#384 = AXIS2_PLACEMENT_3D('',#385,#386,#387);
#385 = CARTESIAN_POINT('',(30.,-60.,30.5));
#386 = DIRECTION('',(0.,0.,1.));
#387 = DIRECTION('',(1.,0.,0.));
#388 = ORIENTED_EDGE('',*,*,#389,.T.);
#389 = EDGE_CURVE('',#381,#111,#390,.T.);
#390 = LINE('',#391,#392);
#391 = CARTESIAN_POINT('',(30.,-65.,30.5));
#392 = VECTOR('',#393,1.);
#393 = DIRECTION('',(0.,1.,0.));
#394 = ORIENTED_EDGE('',*,*,#110,.F.);
#395 = ORIENTED_EDGE('',*,*,#188,.F.);
#396 = ORIENTED_EDGE('',*,*,#397,.F.);
#397 = EDGE_CURVE('',#398,#181,#400,.T.);
#398 = VERTEX_POINT('',#399);
#399 = CARTESIAN_POINT('',(-28.3,-60.,30.5));
#400 = CIRCLE('',#401,1.7);
#401 = AXIS2_PLACEMENT_3D('',#402,#403,#404);
#402 = CARTESIAN_POINT('',(-30.,-60.,30.5));
#403 = DIRECTION('',(0.,0.,1.));
#404 = DIRECTION('',(1.,0.,0.));
#405 = ORIENTED_EDGE('',*,*,#406,.F.);
#406 = EDGE_CURVE('',#157,#398,#407,.T.);
#407 = CIRCLE('',#408,1.7);
#408 = AXIS2_PLACEMENT_3D('',#409,#410,#411);
#409 = CARTESIAN_POINT('',(-30.,-60.,30.5));
#410 = DIRECTION('',(0.,0.,1.));
#411 = DIRECTION('',(1.,0.,0.));
#412 = PLANE('',#413);
#413 = AXIS2_PLACEMENT_3D('',#414,#415,#416);
#414 = CARTESIAN_POINT('',(-34.,-65.,30.5));
#415 = DIRECTION('',(0.,0.,1.));
#416 = DIRECTION('',(1.,0.,0.));
#417 = ADVANCED_FACE('',(#418),#452,.F.);
#418 = FACE_BOUND('',#419,.F.);
#419 = EDGE_LOOP('',(#420,#421,#422,#430,#438,#444,#445,#446));
#420 = ORIENTED_EDGE('',*,*,#228,.F.);
#421 = ORIENTED_EDGE('',*,*,#372,.T.);
#422 = ORIENTED_EDGE('',*,*,#423,.T.);
#423 = EDGE_CURVE('',#373,#424,#426,.T.);
#424 = VERTEX_POINT('',#425);
#425 = CARTESIAN_POINT('',(30.,-61.7,30.51));
#426 = LINE('',#427,#428);
#427 = CARTESIAN_POINT('',(30.,-61.7,27.49));
#428 = VECTOR('',#429,1.);
#429 = DIRECTION('',(0.,0.,1.));
#430 = ORIENTED_EDGE('',*,*,#431,.F.);
#431 = EDGE_CURVE('',#432,#424,#434,.T.);
#432 = VERTEX_POINT('',#433);
#433 = CARTESIAN_POINT('',(30.,-58.3,30.51));
#434 = LINE('',#435,#436);
#435 = CARTESIAN_POINT('',(30.,-62.5,30.51));
#436 = VECTOR('',#437,1.);
#437 = DIRECTION('',(0.,-1.,0.));
#438 = ORIENTED_EDGE('',*,*,#439,.F.);
#439 = EDGE_CURVE('',#381,#432,#440,.T.);
#440 = LINE('',#441,#442);
#441 = CARTESIAN_POINT('',(30.,-58.3,27.49));
#442 = VECTOR('',#443,1.);
#443 = DIRECTION('',(0.,0.,1.));
#444 = ORIENTED_EDGE('',*,*,#389,.T.);
#445 = ORIENTED_EDGE('',*,*,#118,.T.);
#446 = ORIENTED_EDGE('',*,*,#447,.F.);
#447 = EDGE_CURVE('',#221,#119,#448,.T.);
#448 = LINE('',#449,#450);
#449 = CARTESIAN_POINT('',(30.,-65.,40.));
#450 = VECTOR('',#451,1.);
#451 = DIRECTION('',(0.,1.,0.));
#452 = PLANE('',#453);
#453 = AXIS2_PLACEMENT_3D('',#454,#455,#456);
#454 = CARTESIAN_POINT('',(30.,-65.,30.5));
#455 = DIRECTION('',(1.,0.,0.));
#456 = DIRECTION('',(0.,0.,1.));
#457 = ADVANCED_FACE('',(#458),#469,.T.);
#458 = FACE_BOUND('',#459,.T.);
#459 = EDGE_LOOP('',(#460,#461,#462,#468));
#460 = ORIENTED_EDGE('',*,*,#447,.F.);
#461 = ORIENTED_EDGE('',*,*,#220,.T.);
#462 = ORIENTED_EDGE('',*,*,#463,.T.);
#463 = EDGE_CURVE('',#213,#127,#464,.T.);
#464 = LINE('',#465,#466);
#465 = CARTESIAN_POINT('',(34.,-65.,40.));
#466 = VECTOR('',#467,1.);
#467 = DIRECTION('',(0.,1.,0.));
#468 = ORIENTED_EDGE('',*,*,#126,.F.);
#469 = PLANE('',#470);
#470 = AXIS2_PLACEMENT_3D('',#471,#472,#473);
#471 = CARTESIAN_POINT('',(30.,-65.,40.));
#472 = DIRECTION('',(0.,0.,1.));
#473 = DIRECTION('',(1.,0.,0.));
#474 = ADVANCED_FACE('',(#475),#481,.T.);
#475 = FACE_BOUND('',#476,.T.);
#476 = EDGE_LOOP('',(#477,#478,#479,#480));
#477 = ORIENTED_EDGE('',*,*,#212,.F.);
#478 = ORIENTED_EDGE('',*,*,#255,.T.);
#479 = ORIENTED_EDGE('',*,*,#134,.T.);
#480 = ORIENTED_EDGE('',*,*,#463,.F.);
#481 = PLANE('',#482);
#482 = AXIS2_PLACEMENT_3D('',#483,#484,#485);
#483 = CARTESIAN_POINT('',(34.,-60.,33.75));
#484 = DIRECTION('',(1.,0.,0.));
#485 = DIRECTION('',(0.,0.,1.));
#486 = ADVANCED_FACE('',(#487),#516,.F.);
#487 = FACE_BOUND('',#488,.F.);
#488 = EDGE_LOOP('',(#489,#496,#497,#498,#506,#513,#514,#515));
#489 = ORIENTED_EDGE('',*,*,#490,.F.);
#490 = EDGE_CURVE('',#173,#165,#491,.T.);
#491 = CIRCLE('',#492,1.7);
#492 = AXIS2_PLACEMENT_3D('',#493,#494,#495);
#493 = CARTESIAN_POINT('',(-30.,-60.,30.51));
#494 = DIRECTION('',(0.,0.,1.));
#495 = DIRECTION('',(1.,0.,0.));
#496 = ORIENTED_EDGE('',*,*,#180,.F.);
#497 = ORIENTED_EDGE('',*,*,#397,.F.);
#498 = ORIENTED_EDGE('',*,*,#499,.F.);
#499 = EDGE_CURVE('',#500,#398,#502,.T.);
#500 = VERTEX_POINT('',#501);
#501 = CARTESIAN_POINT('',(-28.3,-60.,30.49));
#502 = LINE('',#503,#504);
#503 = CARTESIAN_POINT('',(-28.3,-60.,27.49));
#504 = VECTOR('',#505,1.);
#505 = DIRECTION('',(0.,0.,1.));
#506 = ORIENTED_EDGE('',*,*,#507,.T.);
#507 = EDGE_CURVE('',#500,#500,#508,.T.);
#508 = CIRCLE('',#509,1.7);
#509 = AXIS2_PLACEMENT_3D('',#510,#511,#512);
#510 = CARTESIAN_POINT('',(-30.,-60.,30.49));
#511 = DIRECTION('',(0.,0.,1.));
#512 = DIRECTION('',(1.,0.,0.));
#513 = ORIENTED_EDGE('',*,*,#499,.T.);
#514 = ORIENTED_EDGE('',*,*,#406,.F.);
#515 = ORIENTED_EDGE('',*,*,#164,.T.);
#516 = CYLINDRICAL_SURFACE('',#517,1.7);
#517 = AXIS2_PLACEMENT_3D('',#518,#519,#520);
#518 = CARTESIAN_POINT('',(-30.,-60.,27.49));
#519 = DIRECTION('',(0.,0.,1.));
#520 = DIRECTION('',(1.,0.,0.));
#521 = ADVANCED_FACE('',(#522),#526,.F.);
#522 = FACE_BOUND('',#523,.F.);
#523 = EDGE_LOOP('',(#524,#525));
#524 = ORIENTED_EDGE('',*,*,#172,.F.);
#525 = ORIENTED_EDGE('',*,*,#490,.T.);
#526 = PLANE('',#527);
#527 = AXIS2_PLACEMENT_3D('',#528,#529,#530);
#528 = CARTESIAN_POINT('',(-30.,-60.,30.51));
#529 = DIRECTION('',(0.,0.,1.));
#530 = DIRECTION('',(1.,0.,0.));
#531 = ADVANCED_FACE('',(#532),#557,.T.);
#532 = FACE_BOUND('',#533,.T.);
#533 = EDGE_LOOP('',(#534,#535,#543,#551));
#534 = ORIENTED_EDGE('',*,*,#264,.T.);
#535 = ORIENTED_EDGE('',*,*,#536,.T.);
#536 = EDGE_CURVE('',#267,#537,#539,.T.);
#537 = VERTEX_POINT('',#538);
#538 = CARTESIAN_POINT('',(30.,-56.59363341178,30.49));
#539 = LINE('',#540,#541);
#540 = CARTESIAN_POINT('',(30.,-56.59363341178,27.49));
#541 = VECTOR('',#542,1.);
#542 = DIRECTION('',(0.,0.,1.));
#543 = ORIENTED_EDGE('',*,*,#544,.T.);
#544 = EDGE_CURVE('',#537,#545,#547,.T.);
#545 = VERTEX_POINT('',#546);
#546 = CARTESIAN_POINT('',(27.05,-58.29681670589,30.49));
#547 = LINE('',#548,#549);
#548 = CARTESIAN_POINT('',(30.,-56.59363341178,30.49));
#549 = VECTOR('',#550,1.);
#550 = DIRECTION('',(-0.866025403784,-0.5,0.));
#551 = ORIENTED_EDGE('',*,*,#552,.F.);
#552 = EDGE_CURVE('',#265,#545,#553,.T.);
#553 = LINE('',#554,#555);
#554 = CARTESIAN_POINT('',(27.05,-58.29681670589,27.49));
#555 = VECTOR('',#556,1.);
#556 = DIRECTION('',(0.,0.,1.));
#557 = PLANE('',#558);
#558 = AXIS2_PLACEMENT_3D('',#559,#560,#561);
#559 = CARTESIAN_POINT('',(30.,-56.59363341178,27.49));
#560 = DIRECTION('',(0.5,-0.866025403784,0.));
#561 = DIRECTION('',(-0.866025403784,-0.5,0.));
#562 = ADVANCED_FACE('',(#563),#581,.T.);
#563 = FACE_BOUND('',#564,.T.);
#564 = EDGE_LOOP('',(#565,#566,#567,#575));
#565 = ORIENTED_EDGE('',*,*,#306,.T.);
#566 = ORIENTED_EDGE('',*,*,#552,.T.);
#567 = ORIENTED_EDGE('',*,*,#568,.T.);
#568 = EDGE_CURVE('',#545,#569,#571,.T.);
#569 = VERTEX_POINT('',#570);
#570 = CARTESIAN_POINT('',(27.05,-61.7031832941,30.49));
#571 = LINE('',#572,#573);
#572 = CARTESIAN_POINT('',(27.05,-58.29681670589,30.49));
#573 = VECTOR('',#574,1.);
#574 = DIRECTION('',(1.303703516192E-16,-1.,0.));
#575 = ORIENTED_EDGE('',*,*,#576,.F.);
#576 = EDGE_CURVE('',#299,#569,#577,.T.);
#577 = LINE('',#578,#579);
#578 = CARTESIAN_POINT('',(27.05,-61.7031832941,27.49));
#579 = VECTOR('',#580,1.);
#580 = DIRECTION('',(0.,0.,1.));
#581 = PLANE('',#582);
#582 = AXIS2_PLACEMENT_3D('',#583,#584,#585);
#583 = CARTESIAN_POINT('',(27.05,-58.29681670589,27.49));
#584 = DIRECTION('',(1.,1.303703516192E-16,0.));
#585 = DIRECTION('',(1.303703516192E-16,-1.,0.));
#586 = ADVANCED_FACE('',(#587),#605,.T.);
#587 = FACE_BOUND('',#588,.T.);
#588 = EDGE_LOOP('',(#589,#590,#591,#599));
#589 = ORIENTED_EDGE('',*,*,#298,.T.);
#590 = ORIENTED_EDGE('',*,*,#576,.T.);
#591 = ORIENTED_EDGE('',*,*,#592,.T.);
#592 = EDGE_CURVE('',#569,#593,#595,.T.);
#593 = VERTEX_POINT('',#594);
#594 = CARTESIAN_POINT('',(30.,-63.40636658821,30.49));
#595 = LINE('',#596,#597);
#596 = CARTESIAN_POINT('',(27.05,-61.7031832941,30.49));
#597 = VECTOR('',#598,1.);
#598 = DIRECTION('',(0.866025403784,-0.5,0.));
#599 = ORIENTED_EDGE('',*,*,#600,.F.);
#600 = EDGE_CURVE('',#291,#593,#601,.T.);
#601 = LINE('',#602,#603);
#602 = CARTESIAN_POINT('',(30.,-63.40636658821,27.49));
#603 = VECTOR('',#604,1.);
#604 = DIRECTION('',(0.,0.,1.));
#605 = PLANE('',#606);
#606 = AXIS2_PLACEMENT_3D('',#607,#608,#609);
#607 = CARTESIAN_POINT('',(27.05,-61.7031832941,27.49));
#608 = DIRECTION('',(0.5,0.866025403784,0.));
#609 = DIRECTION('',(0.866025403784,-0.5,0.));
#610 = ADVANCED_FACE('',(#611),#629,.T.);
#611 = FACE_BOUND('',#612,.T.);
#612 = EDGE_LOOP('',(#613,#614,#615,#623));
#613 = ORIENTED_EDGE('',*,*,#290,.T.);
#614 = ORIENTED_EDGE('',*,*,#600,.T.);
#615 = ORIENTED_EDGE('',*,*,#616,.T.);
#616 = EDGE_CURVE('',#593,#617,#619,.T.);
#617 = VERTEX_POINT('',#618);
#618 = CARTESIAN_POINT('',(32.95,-61.7031832941,30.49));
#619 = LINE('',#620,#621);
#620 = CARTESIAN_POINT('',(30.,-63.40636658821,30.49));
#621 = VECTOR('',#622,1.);
#622 = DIRECTION('',(0.866025403784,0.5,0.));
#623 = ORIENTED_EDGE('',*,*,#624,.F.);
#624 = EDGE_CURVE('',#283,#617,#625,.T.);
#625 = LINE('',#626,#627);
#626 = CARTESIAN_POINT('',(32.95,-61.7031832941,27.49));
#627 = VECTOR('',#628,1.);
#628 = DIRECTION('',(0.,0.,1.));
#629 = PLANE('',#630);
#630 = AXIS2_PLACEMENT_3D('',#631,#632,#633);
#631 = CARTESIAN_POINT('',(30.,-63.40636658821,27.49));
#632 = DIRECTION('',(-0.5,0.866025403784,0.));
#633 = DIRECTION('',(0.866025403784,0.5,0.));
#634 = ADVANCED_FACE('',(#635),#653,.T.);
#635 = FACE_BOUND('',#636,.T.);
#636 = EDGE_LOOP('',(#637,#638,#639,#647));
#637 = ORIENTED_EDGE('',*,*,#282,.T.);
#638 = ORIENTED_EDGE('',*,*,#624,.T.);
#639 = ORIENTED_EDGE('',*,*,#640,.T.);
#640 = EDGE_CURVE('',#617,#641,#643,.T.);
#641 = VERTEX_POINT('',#642);
#642 = CARTESIAN_POINT('',(32.95,-58.29681670589,30.49));
#643 = LINE('',#644,#645);
#644 = CARTESIAN_POINT('',(32.95,-61.7031832941,30.49));
#645 = VECTOR('',#646,1.);
#646 = DIRECTION('',(2.607407032384E-16,1.,0.));
#647 = ORIENTED_EDGE('',*,*,#648,.F.);
#648 = EDGE_CURVE('',#275,#641,#649,.T.);
#649 = LINE('',#650,#651);
#650 = CARTESIAN_POINT('',(32.95,-58.29681670589,27.49));
#651 = VECTOR('',#652,1.);
#652 = DIRECTION('',(0.,0.,1.));
#653 = PLANE('',#654);
#654 = AXIS2_PLACEMENT_3D('',#655,#656,#657);
#655 = CARTESIAN_POINT('',(32.95,-61.7031832941,27.49));
#656 = DIRECTION('',(-1.,2.607407032384E-16,0.));
#657 = DIRECTION('',(2.607407032384E-16,1.,0.));
#658 = ADVANCED_FACE('',(#659),#670,.T.);
#659 = FACE_BOUND('',#660,.T.);
#660 = EDGE_LOOP('',(#661,#662,#663,#669));
#661 = ORIENTED_EDGE('',*,*,#274,.T.);
#662 = ORIENTED_EDGE('',*,*,#648,.T.);
#663 = ORIENTED_EDGE('',*,*,#664,.T.);
#664 = EDGE_CURVE('',#641,#537,#665,.T.);
#665 = LINE('',#666,#667);
#666 = CARTESIAN_POINT('',(32.95,-58.29681670589,30.49));
#667 = VECTOR('',#668,1.);
#668 = DIRECTION('',(-0.866025403784,0.5,0.));
#669 = ORIENTED_EDGE('',*,*,#536,.F.);
#670 = PLANE('',#671);
#671 = AXIS2_PLACEMENT_3D('',#672,#673,#674);
#672 = CARTESIAN_POINT('',(32.95,-58.29681670589,27.49));
#673 = DIRECTION('',(-0.5,-0.866025403784,0.));
#674 = DIRECTION('',(-0.866025403784,0.5,0.));
#675 = ADVANCED_FACE('',(#676),#701,.T.);
#676 = FACE_BOUND('',#677,.T.);
#677 = EDGE_LOOP('',(#678,#679,#687,#695));
#678 = ORIENTED_EDGE('',*,*,#314,.T.);
#679 = ORIENTED_EDGE('',*,*,#680,.T.);
#680 = EDGE_CURVE('',#317,#681,#683,.T.);
#681 = VERTEX_POINT('',#682);
#682 = CARTESIAN_POINT('',(-30.,-56.59363341178,30.49));
#683 = LINE('',#684,#685);
#684 = CARTESIAN_POINT('',(-30.,-56.59363341178,27.49));
#685 = VECTOR('',#686,1.);
#686 = DIRECTION('',(0.,0.,1.));
#687 = ORIENTED_EDGE('',*,*,#688,.T.);
#688 = EDGE_CURVE('',#681,#689,#691,.T.);
#689 = VERTEX_POINT('',#690);
#690 = CARTESIAN_POINT('',(-32.95,-58.29681670589,30.49));
#691 = LINE('',#692,#693);
#692 = CARTESIAN_POINT('',(-30.,-56.59363341178,30.49));
#693 = VECTOR('',#694,1.);
#694 = DIRECTION('',(-0.866025403784,-0.5,0.));
#695 = ORIENTED_EDGE('',*,*,#696,.F.);
#696 = EDGE_CURVE('',#315,#689,#697,.T.);
#697 = LINE('',#698,#699);
#698 = CARTESIAN_POINT('',(-32.95,-58.29681670589,27.49));
#699 = VECTOR('',#700,1.);
#700 = DIRECTION('',(0.,0.,1.));
#701 = PLANE('',#702);
#702 = AXIS2_PLACEMENT_3D('',#703,#704,#705);
#703 = CARTESIAN_POINT('',(-30.,-56.59363341178,27.49));
#704 = DIRECTION('',(0.5,-0.866025403784,0.));
#705 = DIRECTION('',(-0.866025403784,-0.5,0.));
#706 = ADVANCED_FACE('',(#707),#725,.T.);
#707 = FACE_BOUND('',#708,.T.);
#708 = EDGE_LOOP('',(#709,#710,#711,#719));
#709 = ORIENTED_EDGE('',*,*,#356,.T.);
#710 = ORIENTED_EDGE('',*,*,#696,.T.);
#711 = ORIENTED_EDGE('',*,*,#712,.T.);
#712 = EDGE_CURVE('',#689,#713,#715,.T.);
#713 = VERTEX_POINT('',#714);
#714 = CARTESIAN_POINT('',(-32.95,-61.7031832941,30.49));
#715 = LINE('',#716,#717);
#716 = CARTESIAN_POINT('',(-32.95,-58.29681670589,30.49));
#717 = VECTOR('',#718,1.);
#718 = DIRECTION('',(1.303703516192E-16,-1.,0.));
#719 = ORIENTED_EDGE('',*,*,#720,.F.);
#720 = EDGE_CURVE('',#349,#713,#721,.T.);
#721 = LINE('',#722,#723);
#722 = CARTESIAN_POINT('',(-32.95,-61.7031832941,27.49));
#723 = VECTOR('',#724,1.);
#724 = DIRECTION('',(0.,0.,1.));
#725 = PLANE('',#726);
#726 = AXIS2_PLACEMENT_3D('',#727,#728,#729);
#727 = CARTESIAN_POINT('',(-32.95,-58.29681670589,27.49));
#728 = DIRECTION('',(1.,1.303703516192E-16,0.));
#729 = DIRECTION('',(1.303703516192E-16,-1.,0.));
#730 = ADVANCED_FACE('',(#731),#749,.T.);
#731 = FACE_BOUND('',#732,.T.);
#732 = EDGE_LOOP('',(#733,#734,#742,#748));
#733 = ORIENTED_EDGE('',*,*,#324,.T.);
#734 = ORIENTED_EDGE('',*,*,#735,.T.);
#735 = EDGE_CURVE('',#325,#736,#738,.T.);
#736 = VERTEX_POINT('',#737);
#737 = CARTESIAN_POINT('',(-27.05,-58.29681670589,30.49));
#738 = LINE('',#739,#740);
#739 = CARTESIAN_POINT('',(-27.05,-58.29681670589,27.49));
#740 = VECTOR('',#741,1.);
#741 = DIRECTION('',(0.,0.,1.));
#742 = ORIENTED_EDGE('',*,*,#743,.T.);
#743 = EDGE_CURVE('',#736,#681,#744,.T.);
#744 = LINE('',#745,#746);
#745 = CARTESIAN_POINT('',(-27.05,-58.29681670589,30.49));
#746 = VECTOR('',#747,1.);
#747 = DIRECTION('',(-0.866025403784,0.5,0.));
#748 = ORIENTED_EDGE('',*,*,#680,.F.);
#749 = PLANE('',#750);
#750 = AXIS2_PLACEMENT_3D('',#751,#752,#753);
#751 = CARTESIAN_POINT('',(-27.05,-58.29681670589,27.49));
#752 = DIRECTION('',(-0.5,-0.866025403784,0.));
#753 = DIRECTION('',(-0.866025403784,0.5,0.));
#754 = ADVANCED_FACE('',(#755),#773,.T.);
#755 = FACE_BOUND('',#756,.T.);
#756 = EDGE_LOOP('',(#757,#758,#759,#767));
#757 = ORIENTED_EDGE('',*,*,#348,.T.);
#758 = ORIENTED_EDGE('',*,*,#720,.T.);
#759 = ORIENTED_EDGE('',*,*,#760,.T.);
#760 = EDGE_CURVE('',#713,#761,#763,.T.);
#761 = VERTEX_POINT('',#762);
#762 = CARTESIAN_POINT('',(-30.,-63.40636658821,30.49));
#763 = LINE('',#764,#765);
#764 = CARTESIAN_POINT('',(-32.95,-61.7031832941,30.49));
#765 = VECTOR('',#766,1.);
#766 = DIRECTION('',(0.866025403784,-0.5,0.));
#767 = ORIENTED_EDGE('',*,*,#768,.F.);
#768 = EDGE_CURVE('',#341,#761,#769,.T.);
#769 = LINE('',#770,#771);
#770 = CARTESIAN_POINT('',(-30.,-63.40636658821,27.49));
#771 = VECTOR('',#772,1.);
#772 = DIRECTION('',(0.,0.,1.));
#773 = PLANE('',#774);
#774 = AXIS2_PLACEMENT_3D('',#775,#776,#777);
#775 = CARTESIAN_POINT('',(-32.95,-61.7031832941,27.49));
#776 = DIRECTION('',(0.5,0.866025403784,0.));
#777 = DIRECTION('',(0.866025403784,-0.5,0.));
#778 = ADVANCED_FACE('',(#779),#797,.T.);
#779 = FACE_BOUND('',#780,.T.);
#780 = EDGE_LOOP('',(#781,#782,#790,#796));
#781 = ORIENTED_EDGE('',*,*,#332,.T.);
#782 = ORIENTED_EDGE('',*,*,#783,.T.);
#783 = EDGE_CURVE('',#333,#784,#786,.T.);
#784 = VERTEX_POINT('',#785);
#785 = CARTESIAN_POINT('',(-27.05,-61.7031832941,30.49));
#786 = LINE('',#787,#788);
#787 = CARTESIAN_POINT('',(-27.05,-61.7031832941,27.49));
#788 = VECTOR('',#789,1.);
#789 = DIRECTION('',(0.,0.,1.));
#790 = ORIENTED_EDGE('',*,*,#791,.T.);
#791 = EDGE_CURVE('',#784,#736,#792,.T.);
#792 = LINE('',#793,#794);
#793 = CARTESIAN_POINT('',(-27.05,-61.7031832941,30.49));
#794 = VECTOR('',#795,1.);
#795 = DIRECTION('',(2.607407032384E-16,1.,0.));
#796 = ORIENTED_EDGE('',*,*,#735,.F.);
#797 = PLANE('',#798);
#798 = AXIS2_PLACEMENT_3D('',#799,#800,#801);
#799 = CARTESIAN_POINT('',(-27.05,-61.7031832941,27.49));
#800 = DIRECTION('',(-1.,2.607407032384E-16,0.));
#801 = DIRECTION('',(2.607407032384E-16,1.,0.));
#802 = ADVANCED_FACE('',(#803),#814,.T.);
#803 = FACE_BOUND('',#804,.T.);
#804 = EDGE_LOOP('',(#805,#806,#807,#813));
#805 = ORIENTED_EDGE('',*,*,#340,.T.);
#806 = ORIENTED_EDGE('',*,*,#768,.T.);
#807 = ORIENTED_EDGE('',*,*,#808,.T.);
#808 = EDGE_CURVE('',#761,#784,#809,.T.);
#809 = LINE('',#810,#811);
#810 = CARTESIAN_POINT('',(-30.,-63.40636658821,30.49));
#811 = VECTOR('',#812,1.);
#812 = DIRECTION('',(0.866025403784,0.5,0.));
#813 = ORIENTED_EDGE('',*,*,#783,.F.);
#814 = PLANE('',#815);
#815 = AXIS2_PLACEMENT_3D('',#816,#817,#818);
#816 = CARTESIAN_POINT('',(-30.,-63.40636658821,27.49));
#817 = DIRECTION('',(-0.5,0.866025403784,0.));
#818 = DIRECTION('',(0.866025403784,0.5,0.));
#819 = ADVANCED_FACE('',(#820),#857,.F.);
#820 = FACE_BOUND('',#821,.F.);
#821 = EDGE_LOOP('',(#822,#831,#839,#846,#847,#848,#849,#856));
#822 = ORIENTED_EDGE('',*,*,#823,.T.);
#823 = EDGE_CURVE('',#824,#824,#826,.T.);
#824 = VERTEX_POINT('',#825);
#825 = CARTESIAN_POINT('',(31.7,-60.,30.49));
#826 = CIRCLE('',#827,1.7);
#827 = AXIS2_PLACEMENT_3D('',#828,#829,#830);
#828 = CARTESIAN_POINT('',(30.,-60.,30.49));
#829 = DIRECTION('',(0.,0.,1.));
#830 = DIRECTION('',(1.,0.,0.));
#831 = ORIENTED_EDGE('',*,*,#832,.T.);
#832 = EDGE_CURVE('',#824,#833,#835,.T.);
#833 = VERTEX_POINT('',#834);
#834 = CARTESIAN_POINT('',(31.7,-60.,30.51));
#835 = LINE('',#836,#837);
#836 = CARTESIAN_POINT('',(31.7,-60.,27.49));
#837 = VECTOR('',#838,1.);
#838 = DIRECTION('',(0.,0.,1.));
#839 = ORIENTED_EDGE('',*,*,#840,.F.);
#840 = EDGE_CURVE('',#424,#833,#841,.T.);
#841 = CIRCLE('',#842,1.7);
#842 = AXIS2_PLACEMENT_3D('',#843,#844,#845);
#843 = CARTESIAN_POINT('',(30.,-60.,30.51));
#844 = DIRECTION('',(0.,0.,1.));
#845 = DIRECTION('',(1.,0.,0.));
#846 = ORIENTED_EDGE('',*,*,#423,.F.);
#847 = ORIENTED_EDGE('',*,*,#380,.F.);
#848 = ORIENTED_EDGE('',*,*,#439,.T.);
#849 = ORIENTED_EDGE('',*,*,#850,.F.);
#850 = EDGE_CURVE('',#833,#432,#851,.T.);
#851 = CIRCLE('',#852,1.7);
#852 = AXIS2_PLACEMENT_3D('',#853,#854,#855);
#853 = CARTESIAN_POINT('',(30.,-60.,30.51));
#854 = DIRECTION('',(0.,0.,1.));
#855 = DIRECTION('',(1.,0.,0.));
#856 = ORIENTED_EDGE('',*,*,#832,.F.);
#857 = CYLINDRICAL_SURFACE('',#858,1.7);
#858 = AXIS2_PLACEMENT_3D('',#859,#860,#861);
#859 = CARTESIAN_POINT('',(30.,-60.,27.49));
#860 = DIRECTION('',(0.,0.,1.));
#861 = DIRECTION('',(1.,0.,0.));
#862 = ADVANCED_FACE('',(#863),#868,.F.);
#863 = FACE_BOUND('',#864,.F.);
#864 = EDGE_LOOP('',(#865,#866,#867));
#865 = ORIENTED_EDGE('',*,*,#840,.T.);
#866 = ORIENTED_EDGE('',*,*,#850,.T.);
#867 = ORIENTED_EDGE('',*,*,#431,.T.);
#868 = PLANE('',#869);
#869 = AXIS2_PLACEMENT_3D('',#870,#871,#872);
#870 = CARTESIAN_POINT('',(30.,-60.,30.51));
#871 = DIRECTION('',(0.,0.,1.));
#872 = DIRECTION('',(1.,0.,0.));
#873 = ADVANCED_FACE('',(#874,#882),#885,.F.);
#874 = FACE_BOUND('',#875,.F.);
#875 = EDGE_LOOP('',(#876,#877,#878,#879,#880,#881));
#876 = ORIENTED_EDGE('',*,*,#743,.T.);
#877 = ORIENTED_EDGE('',*,*,#688,.T.);
#878 = ORIENTED_EDGE('',*,*,#712,.T.);
#879 = ORIENTED_EDGE('',*,*,#760,.T.);
#880 = ORIENTED_EDGE('',*,*,#808,.T.);
#881 = ORIENTED_EDGE('',*,*,#791,.T.);
#882 = FACE_BOUND('',#883,.F.);
#883 = EDGE_LOOP('',(#884));
#884 = ORIENTED_EDGE('',*,*,#507,.F.);
#885 = PLANE('',#886);
#886 = AXIS2_PLACEMENT_3D('',#887,#888,#889);
#887 = CARTESIAN_POINT('',(-30.,-60.,30.49));
#888 = DIRECTION('',(0.,0.,1.));
#889 = DIRECTION('',(1.,0.,0.));
#890 = ADVANCED_FACE('',(#891,#899),#902,.F.);
#891 = FACE_BOUND('',#892,.F.);
#892 = EDGE_LOOP('',(#893,#894,#895,#896,#897,#898));
#893 = ORIENTED_EDGE('',*,*,#664,.T.);
#894 = ORIENTED_EDGE('',*,*,#544,.T.);
#895 = ORIENTED_EDGE('',*,*,#568,.T.);
#896 = ORIENTED_EDGE('',*,*,#592,.T.);
#897 = ORIENTED_EDGE('',*,*,#616,.T.);
#898 = ORIENTED_EDGE('',*,*,#640,.T.);
#899 = FACE_BOUND('',#900,.F.);
#900 = EDGE_LOOP('',(#901));
#901 = ORIENTED_EDGE('',*,*,#823,.F.);
#902 = PLANE('',#903);
#903 = AXIS2_PLACEMENT_3D('',#904,#905,#906);
#904 = CARTESIAN_POINT('',(30.,-60.,30.49));
#905 = DIRECTION('',(0.,0.,1.));
#906 = DIRECTION('',(1.,0.,0.));
#907 = ( GEOMETRIC_REPRESENTATION_CONTEXT(3) 
GLOBAL_UNCERTAINTY_ASSIGNED_CONTEXT((#911)) GLOBAL_UNIT_ASSIGNED_CONTEXT
((#908,#909,#910)) REPRESENTATION_CONTEXT('Context #1',
  '3D Context with UNIT and UNCERTAINTY') );
#908 = ( LENGTH_UNIT() NAMED_UNIT(*) SI_UNIT(.MILLI.,.METRE.) );
#909 = ( NAMED_UNIT(*) PLANE_ANGLE_UNIT() SI_UNIT($,.RADIAN.) );
#910 = ( NAMED_UNIT(*) SI_UNIT($,.STERADIAN.) SOLID_ANGLE_UNIT() );
#911 = UNCERTAINTY_MEASURE_WITH_UNIT(LENGTH_MEASURE(1.E-07),#908,
  'distance_accuracy_value','confusion accuracy');
#912 = PRODUCT_RELATED_PRODUCT_CATEGORY('part',$,(#7));
ENDSEC;
END-ISO-10303-21;
