ISO-10303-21;
HEADER;
FILE_DESCRIPTION(('FreeCAD Model'),'2;1');
FILE_NAME('Open CASCADE Shape Model','2026-09-19T23:10:22',('FreeCAD'),(
    'FreeCAD'),'Open CASCADE STEP processor 7.9','FreeCAD','Unknown');
FILE_SCHEMA(('AUTOMOTIVE_DESIGN { 1 0 10303 214 1 1 1 1 }'));
ENDSEC;
DATA;
#1 = APPLICATION_PROTOCOL_DEFINITION('international standard',
  'automotive_design',2000,#2);
#2 = APPLICATION_CONTEXT(
  'core data for automotive mechanical design processes');
#3 = SHAPE_DEFINITION_REPRESENTATION(#4,#10);
#4 = PRODUCT_DEFINITION_SHAPE('','',#5);
#5 = PRODUCT_DEFINITION('design','',#6,#9);
#6 = PRODUCT_DEFINITION_FORMATION('','',#7);
#7 = PRODUCT('Open CASCADE STEP translator 7.9 20',
  'Open CASCADE STEP translator 7.9 20','',(#8));
#8 = PRODUCT_CONTEXT('',#2,'mechanical');
#9 = PRODUCT_DEFINITION_CONTEXT('part definition',#2,'design');
#10 = ADVANCED_BREP_SHAPE_REPRESENTATION('',(#11,#15),#660);
#11 = AXIS2_PLACEMENT_3D('',#12,#13,#14);
#12 = CARTESIAN_POINT('',(0.,0.,0.));
#13 = DIRECTION('',(0.,0.,1.));
#14 = DIRECTION('',(1.,0.,-0.));
#15 = MANIFOLD_SOLID_BREP('',#16);
#16 = CLOSED_SHELL('',(#17,#106,#187,#222,#296,#344,#368,#417,#436,#453,
    #470,#487,#521,#555,#583,#600,#612,#629,#641));
#17 = ADVANCED_FACE('',(#18),#101,.F.);
#18 = FACE_BOUND('',#19,.F.);
#19 = EDGE_LOOP('',(#20,#30,#38,#46,#54,#63,#71,#79,#87,#95));
#20 = ORIENTED_EDGE('',*,*,#21,.F.);
#21 = EDGE_CURVE('',#22,#24,#26,.T.);
#22 = VERTEX_POINT('',#23);
#23 = CARTESIAN_POINT('',(11.,6.350852961086,40.));
#24 = VERTEX_POINT('',#25);
#25 = CARTESIAN_POINT('',(0.6,12.355295760658,40.));
#26 = LINE('',#27,#28);
#27 = CARTESIAN_POINT('',(11.,6.350852961086,40.));
#28 = VECTOR('',#29,1.);
#29 = DIRECTION('',(-0.866025403784,0.5,0.));
#30 = ORIENTED_EDGE('',*,*,#31,.T.);
#31 = EDGE_CURVE('',#22,#32,#34,.T.);
#32 = VERTEX_POINT('',#33);
#33 = CARTESIAN_POINT('',(11.,6.350852961086,42.05));
#34 = LINE('',#35,#36);
#35 = CARTESIAN_POINT('',(11.,6.350852961086,40.));
#36 = VECTOR('',#37,1.);
#37 = DIRECTION('',(0.,0.,1.));
#38 = ORIENTED_EDGE('',*,*,#39,.T.);
#39 = EDGE_CURVE('',#32,#40,#42,.T.);
#40 = VERTEX_POINT('',#41);
#41 = CARTESIAN_POINT('',(8.49,7.800002136752,42.05));
#42 = LINE('',#43,#44);
#43 = CARTESIAN_POINT('',(10.286955543377,6.762529370061,42.05));
#44 = VECTOR('',#45,1.);
#45 = DIRECTION('',(-0.866025403784,0.5,-3.226666202576E-16));
#46 = ORIENTED_EDGE('',*,*,#47,.T.);
#47 = EDGE_CURVE('',#40,#48,#50,.T.);
#48 = VERTEX_POINT('',#49);
#49 = CARTESIAN_POINT('',(8.49,7.800002136752,43.500001139603));
#50 = LINE('',#51,#52);
#51 = CARTESIAN_POINT('',(8.49,7.800002136752,42.5));
#52 = VECTOR('',#53,1.);
#53 = DIRECTION('',(-2.22044604925E-16,1.281975124256E-16,1.));
#54 = ORIENTED_EDGE('',*,*,#55,.F.);
#55 = EDGE_CURVE('',#56,#48,#58,.T.);
#56 = VERTEX_POINT('',#57);
#57 = CARTESIAN_POINT('',(8.49,7.800002136752,46.499998860397));
#58 = ELLIPSE('',#59,3.4,1.7);
#59 = AXIS2_PLACEMENT_3D('',#60,#61,#62);
#60 = CARTESIAN_POINT('',(9.875644347018,7.,45.));
#61 = DIRECTION('',(-0.5,-0.866025403784,0.));
#62 = DIRECTION('',(0.866025403784,-0.5,0.));
#63 = ORIENTED_EDGE('',*,*,#64,.T.);
#64 = EDGE_CURVE('',#56,#65,#67,.T.);
#65 = VERTEX_POINT('',#66);
#66 = CARTESIAN_POINT('',(8.49,7.800002136752,47.95));
#67 = LINE('',#68,#69);
#68 = CARTESIAN_POINT('',(8.49,7.800002136752,42.5));
#69 = VECTOR('',#70,1.);
#70 = DIRECTION('',(-2.22044604925E-16,1.281975124256E-16,1.));
#71 = ORIENTED_EDGE('',*,*,#72,.T.);
#72 = EDGE_CURVE('',#65,#73,#75,.T.);
#73 = VERTEX_POINT('',#74);
#74 = CARTESIAN_POINT('',(11.,6.350852961086,47.95));
#75 = LINE('',#76,#77);
#76 = CARTESIAN_POINT('',(9.549455543377,7.188325193589,47.95));
#77 = VECTOR('',#78,1.);
#78 = DIRECTION('',(0.866025403784,-0.5,1.271110928287E-16));
#79 = ORIENTED_EDGE('',*,*,#80,.T.);
#80 = EDGE_CURVE('',#73,#81,#83,.T.);
#81 = VERTEX_POINT('',#82);
#82 = CARTESIAN_POINT('',(11.,6.350852961086,50.));
#83 = LINE('',#84,#85);
#84 = CARTESIAN_POINT('',(11.,6.350852961086,40.));
#85 = VECTOR('',#86,1.);
#86 = DIRECTION('',(0.,0.,1.));
#87 = ORIENTED_EDGE('',*,*,#88,.T.);
#88 = EDGE_CURVE('',#81,#89,#91,.T.);
#89 = VERTEX_POINT('',#90);
#90 = CARTESIAN_POINT('',(0.6,12.355295760658,50.));
#91 = LINE('',#92,#93);
#92 = CARTESIAN_POINT('',(11.,6.350852961086,50.));
#93 = VECTOR('',#94,1.);
#94 = DIRECTION('',(-0.866025403784,0.5,0.));
#95 = ORIENTED_EDGE('',*,*,#96,.F.);
#96 = EDGE_CURVE('',#24,#89,#97,.T.);
#97 = LINE('',#98,#99);
#98 = CARTESIAN_POINT('',(0.6,12.355295760658,39.5));
#99 = VECTOR('',#100,1.);
#100 = DIRECTION('',(0.,0.,1.));
#101 = PLANE('',#102);
#102 = AXIS2_PLACEMENT_3D('',#103,#104,#105);
#103 = CARTESIAN_POINT('',(11.,6.350852961086,40.));
#104 = DIRECTION('',(-0.5,-0.866025403784,0.));
#105 = DIRECTION('',(-0.866025403784,0.5,0.));
#106 = ADVANCED_FACE('',(#107),#182,.F.);
#107 = FACE_BOUND('',#108,.F.);
#108 = EDGE_LOOP('',(#109,#117,#118,#126,#135,#144,#152,#160,#168,#176)
  );
#109 = ORIENTED_EDGE('',*,*,#110,.T.);
#110 = EDGE_CURVE('',#111,#22,#113,.T.);
#111 = VERTEX_POINT('',#112);
#112 = CARTESIAN_POINT('',(11.,-6.350852961086,40.));
#113 = LINE('',#114,#115);
#114 = CARTESIAN_POINT('',(11.,-6.350852961086,40.));
#115 = VECTOR('',#116,1.);
#116 = DIRECTION('',(4.19555495211E-16,1.,0.));
#117 = ORIENTED_EDGE('',*,*,#21,.T.);
#118 = ORIENTED_EDGE('',*,*,#119,.F.);
#119 = EDGE_CURVE('',#120,#24,#122,.T.);
#120 = VERTEX_POINT('',#121);
#121 = CARTESIAN_POINT('',(0.6,3.54964786986,40.));
#122 = LINE('',#123,#124);
#123 = CARTESIAN_POINT('',(0.6,-1.39851831737E-16,40.));
#124 = VECTOR('',#125,1.);
#125 = DIRECTION('',(0.,1.,0.));
#126 = ORIENTED_EDGE('',*,*,#127,.F.);
#127 = EDGE_CURVE('',#128,#120,#130,.T.);
#128 = VERTEX_POINT('',#129);
#129 = CARTESIAN_POINT('',(3.6,-8.817456953861E-16,40.));
#130 = CIRCLE('',#131,3.6);
#131 = AXIS2_PLACEMENT_3D('',#132,#133,#134);
#132 = CARTESIAN_POINT('',(0.,0.,40.));
#133 = DIRECTION('',(0.,0.,1.));
#134 = DIRECTION('',(1.,0.,0.));
#135 = ORIENTED_EDGE('',*,*,#136,.F.);
#136 = EDGE_CURVE('',#137,#128,#139,.T.);
#137 = VERTEX_POINT('',#138);
#138 = CARTESIAN_POINT('',(-0.6,3.54964786986,40.));
#139 = CIRCLE('',#140,3.6);
#140 = AXIS2_PLACEMENT_3D('',#141,#142,#143);
#141 = CARTESIAN_POINT('',(0.,0.,40.));
#142 = DIRECTION('',(0.,0.,1.));
#143 = DIRECTION('',(1.,0.,0.));
#144 = ORIENTED_EDGE('',*,*,#145,.T.);
#145 = EDGE_CURVE('',#137,#146,#148,.T.);
#146 = VERTEX_POINT('',#147);
#147 = CARTESIAN_POINT('',(-0.6,12.355295760658,40.));
#148 = LINE('',#149,#150);
#149 = CARTESIAN_POINT('',(-0.6,-1.39851831737E-16,40.));
#150 = VECTOR('',#151,1.);
#151 = DIRECTION('',(0.,1.,0.));
#152 = ORIENTED_EDGE('',*,*,#153,.T.);
#153 = EDGE_CURVE('',#146,#154,#156,.T.);
#154 = VERTEX_POINT('',#155);
#155 = CARTESIAN_POINT('',(-11.,6.350852961086,40.));
#156 = LINE('',#157,#158);
#157 = CARTESIAN_POINT('',(7.777551750649E-16,12.701705922172,40.));
#158 = VECTOR('',#159,1.);
#159 = DIRECTION('',(-0.866025403784,-0.5,0.));
#160 = ORIENTED_EDGE('',*,*,#161,.T.);
#161 = EDGE_CURVE('',#154,#162,#164,.T.);
#162 = VERTEX_POINT('',#163);
#163 = CARTESIAN_POINT('',(-11.,-6.350852961086,40.));
#164 = LINE('',#165,#166);
#165 = CARTESIAN_POINT('',(-11.,6.350852961086,40.));
#166 = VECTOR('',#167,1.);
#167 = DIRECTION('',(1.39851831737E-16,-1.,0.));
#168 = ORIENTED_EDGE('',*,*,#169,.T.);
#169 = EDGE_CURVE('',#162,#170,#172,.T.);
#170 = VERTEX_POINT('',#171);
#171 = CARTESIAN_POINT('',(-2.333265525195E-15,-12.70170592217,40.));
#172 = LINE('',#173,#174);
#173 = CARTESIAN_POINT('',(-11.,-6.350852961086,40.));
#174 = VECTOR('',#175,1.);
#175 = DIRECTION('',(0.866025403784,-0.5,0.));
#176 = ORIENTED_EDGE('',*,*,#177,.T.);
#177 = EDGE_CURVE('',#170,#111,#178,.T.);
#178 = LINE('',#179,#180);
#179 = CARTESIAN_POINT('',(-2.333265525195E-15,-12.70170592217,40.));
#180 = VECTOR('',#181,1.);
#181 = DIRECTION('',(0.866025403784,0.5,0.));
#182 = PLANE('',#183);
#183 = AXIS2_PLACEMENT_3D('',#184,#185,#186);
#184 = CARTESIAN_POINT('',(-5.594073269479E-16,-2.79703663474E-16,40.));
#185 = DIRECTION('',(0.,0.,1.));
#186 = DIRECTION('',(1.,0.,0.));
#187 = ADVANCED_FACE('',(#188,#206),#217,.F.);
#188 = FACE_BOUND('',#189,.F.);
#189 = EDGE_LOOP('',(#190,#191,#192,#200));
#190 = ORIENTED_EDGE('',*,*,#119,.T.);
#191 = ORIENTED_EDGE('',*,*,#96,.T.);
#192 = ORIENTED_EDGE('',*,*,#193,.F.);
#193 = EDGE_CURVE('',#194,#89,#196,.T.);
#194 = VERTEX_POINT('',#195);
#195 = CARTESIAN_POINT('',(0.6,3.54964786986,50.));
#196 = LINE('',#197,#198);
#197 = CARTESIAN_POINT('',(0.6,-1.39851831737E-16,50.));
#198 = VECTOR('',#199,1.);
#199 = DIRECTION('',(0.,1.,0.));
#200 = ORIENTED_EDGE('',*,*,#201,.F.);
#201 = EDGE_CURVE('',#120,#194,#202,.T.);
#202 = LINE('',#203,#204);
#203 = CARTESIAN_POINT('',(0.6,3.54964786986,39.));
#204 = VECTOR('',#205,1.);
#205 = DIRECTION('',(0.,0.,1.));
#206 = FACE_BOUND('',#207,.F.);
#207 = EDGE_LOOP('',(#208));
#208 = ORIENTED_EDGE('',*,*,#209,.F.);
#209 = EDGE_CURVE('',#210,#210,#212,.T.);
#210 = VERTEX_POINT('',#211);
#211 = CARTESIAN_POINT('',(0.6,7.,46.7));
#212 = CIRCLE('',#213,1.7);
#213 = AXIS2_PLACEMENT_3D('',#214,#215,#216);
#214 = CARTESIAN_POINT('',(0.6,7.,45.));
#215 = DIRECTION('',(1.,0.,-0.));
#216 = DIRECTION('',(0.,0.,1.));
#217 = PLANE('',#218);
#218 = AXIS2_PLACEMENT_3D('',#219,#220,#221);
#219 = CARTESIAN_POINT('',(0.6,0.,39.));
#220 = DIRECTION('',(1.,0.,0.));
#221 = DIRECTION('',(0.,0.,1.));
#222 = ADVANCED_FACE('',(#223),#291,.T.);
#223 = FACE_BOUND('',#224,.T.);
#224 = EDGE_LOOP('',(#225,#233,#234,#235,#244,#253,#261,#269,#277,#285)
  );
#225 = ORIENTED_EDGE('',*,*,#226,.T.);
#226 = EDGE_CURVE('',#227,#81,#229,.T.);
#227 = VERTEX_POINT('',#228);
#228 = CARTESIAN_POINT('',(11.,-6.350852961086,50.));
#229 = LINE('',#230,#231);
#230 = CARTESIAN_POINT('',(11.,-6.350852961086,50.));
#231 = VECTOR('',#232,1.);
#232 = DIRECTION('',(4.19555495211E-16,1.,0.));
#233 = ORIENTED_EDGE('',*,*,#88,.T.);
#234 = ORIENTED_EDGE('',*,*,#193,.F.);
#235 = ORIENTED_EDGE('',*,*,#236,.F.);
#236 = EDGE_CURVE('',#237,#194,#239,.T.);
#237 = VERTEX_POINT('',#238);
#238 = CARTESIAN_POINT('',(3.6,-8.817456953861E-16,50.));
#239 = CIRCLE('',#240,3.6);
#240 = AXIS2_PLACEMENT_3D('',#241,#242,#243);
#241 = CARTESIAN_POINT('',(0.,0.,50.));
#242 = DIRECTION('',(0.,0.,1.));
#243 = DIRECTION('',(1.,0.,0.));
#244 = ORIENTED_EDGE('',*,*,#245,.F.);
#245 = EDGE_CURVE('',#246,#237,#248,.T.);
#246 = VERTEX_POINT('',#247);
#247 = CARTESIAN_POINT('',(-0.6,3.54964786986,50.));
#248 = CIRCLE('',#249,3.6);
#249 = AXIS2_PLACEMENT_3D('',#250,#251,#252);
#250 = CARTESIAN_POINT('',(0.,0.,50.));
#251 = DIRECTION('',(0.,0.,1.));
#252 = DIRECTION('',(1.,0.,0.));
#253 = ORIENTED_EDGE('',*,*,#254,.T.);
#254 = EDGE_CURVE('',#246,#255,#257,.T.);
#255 = VERTEX_POINT('',#256);
#256 = CARTESIAN_POINT('',(-0.6,12.355295760658,50.));
#257 = LINE('',#258,#259);
#258 = CARTESIAN_POINT('',(-0.6,-1.39851831737E-16,50.));
#259 = VECTOR('',#260,1.);
#260 = DIRECTION('',(0.,1.,0.));
#261 = ORIENTED_EDGE('',*,*,#262,.T.);
#262 = EDGE_CURVE('',#255,#263,#265,.T.);
#263 = VERTEX_POINT('',#264);
#264 = CARTESIAN_POINT('',(-11.,6.350852961086,50.));
#265 = LINE('',#266,#267);
#266 = CARTESIAN_POINT('',(7.777551750649E-16,12.701705922172,50.));
#267 = VECTOR('',#268,1.);
#268 = DIRECTION('',(-0.866025403784,-0.5,0.));
#269 = ORIENTED_EDGE('',*,*,#270,.T.);
#270 = EDGE_CURVE('',#263,#271,#273,.T.);
#271 = VERTEX_POINT('',#272);
#272 = CARTESIAN_POINT('',(-11.,-6.350852961086,50.));
#273 = LINE('',#274,#275);
#274 = CARTESIAN_POINT('',(-11.,6.350852961086,50.));
#275 = VECTOR('',#276,1.);
#276 = DIRECTION('',(1.39851831737E-16,-1.,0.));
#277 = ORIENTED_EDGE('',*,*,#278,.T.);
#278 = EDGE_CURVE('',#271,#279,#281,.T.);
#279 = VERTEX_POINT('',#280);
#280 = CARTESIAN_POINT('',(-2.333265525195E-15,-12.70170592217,50.));
#281 = LINE('',#282,#283);
#282 = CARTESIAN_POINT('',(-11.,-6.350852961086,50.));
#283 = VECTOR('',#284,1.);
#284 = DIRECTION('',(0.866025403784,-0.5,0.));
#285 = ORIENTED_EDGE('',*,*,#286,.T.);
#286 = EDGE_CURVE('',#279,#227,#287,.T.);
#287 = LINE('',#288,#289);
#288 = CARTESIAN_POINT('',(-2.333265525195E-15,-12.70170592217,50.));
#289 = VECTOR('',#290,1.);
#290 = DIRECTION('',(0.866025403784,0.5,0.));
#291 = PLANE('',#292);
#292 = AXIS2_PLACEMENT_3D('',#293,#294,#295);
#293 = CARTESIAN_POINT('',(-5.594073269479E-16,-2.79703663474E-16,50.));
#294 = DIRECTION('',(0.,0.,1.));
#295 = DIRECTION('',(1.,0.,0.));
#296 = ADVANCED_FACE('',(#297),#339,.F.);
#297 = FACE_BOUND('',#298,.F.);
#298 = EDGE_LOOP('',(#299,#300,#306,#307,#308,#316,#324,#332,#338));
#299 = ORIENTED_EDGE('',*,*,#110,.F.);
#300 = ORIENTED_EDGE('',*,*,#301,.T.);
#301 = EDGE_CURVE('',#111,#227,#302,.T.);
#302 = LINE('',#303,#304);
#303 = CARTESIAN_POINT('',(11.,-6.350852961086,40.));
#304 = VECTOR('',#305,1.);
#305 = DIRECTION('',(0.,0.,1.));
#306 = ORIENTED_EDGE('',*,*,#226,.T.);
#307 = ORIENTED_EDGE('',*,*,#80,.F.);
#308 = ORIENTED_EDGE('',*,*,#309,.T.);
#309 = EDGE_CURVE('',#73,#310,#312,.T.);
#310 = VERTEX_POINT('',#311);
#311 = CARTESIAN_POINT('',(11.,5.296816705891,47.95));
#312 = LINE('',#313,#314);
#313 = CARTESIAN_POINT('',(11.,1.176165166512,47.95));
#314 = VECTOR('',#315,1.);
#315 = DIRECTION('',(-4.19555495211E-16,-1.,-1.303703516192E-16));
#316 = ORIENTED_EDGE('',*,*,#317,.T.);
#317 = EDGE_CURVE('',#310,#318,#320,.T.);
#318 = VERTEX_POINT('',#319);
#319 = CARTESIAN_POINT('',(11.,3.593633411781,45.));
#320 = LINE('',#321,#322);
#321 = CARTESIAN_POINT('',(11.,2.119632507497,42.446955543377));
#322 = VECTOR('',#323,1.);
#323 = DIRECTION('',(-2.097777476055E-16,-0.5,-0.866025403784));
#324 = ORIENTED_EDGE('',*,*,#325,.T.);
#325 = EDGE_CURVE('',#318,#326,#328,.T.);
#326 = VERTEX_POINT('',#327);
#327 = CARTESIAN_POINT('',(11.,5.296816705891,42.05));
#328 = LINE('',#329,#330);
#329 = CARTESIAN_POINT('',(11.,3.433104369903,45.278044456623));
#330 = VECTOR('',#331,1.);
#331 = DIRECTION('',(2.097777476055E-16,0.5,-0.866025403784));
#332 = ORIENTED_EDGE('',*,*,#333,.T.);
#333 = EDGE_CURVE('',#326,#32,#334,.T.);
#334 = LINE('',#335,#336);
#335 = CARTESIAN_POINT('',(11.,-0.527018127598,42.05));
#336 = VECTOR('',#337,1.);
#337 = DIRECTION('',(4.19555495211E-16,1.,-2.607407032384E-16));
#338 = ORIENTED_EDGE('',*,*,#31,.F.);
#339 = PLANE('',#340);
#340 = AXIS2_PLACEMENT_3D('',#341,#342,#343);
#341 = CARTESIAN_POINT('',(11.,-6.350852961086,40.));
#342 = DIRECTION('',(-1.,4.19555495211E-16,0.));
#343 = DIRECTION('',(4.19555495211E-16,1.,0.));
#344 = ADVANCED_FACE('',(#345),#363,.T.);
#345 = FACE_BOUND('',#346,.T.);
#346 = EDGE_LOOP('',(#347,#355,#356,#357));
#347 = ORIENTED_EDGE('',*,*,#348,.F.);
#348 = EDGE_CURVE('',#65,#349,#351,.T.);
#349 = VERTEX_POINT('',#350);
#350 = CARTESIAN_POINT('',(8.49,5.296816705891,47.95));
#351 = LINE('',#352,#353);
#352 = CARTESIAN_POINT('',(8.49,8.703183294109,47.95));
#353 = VECTOR('',#354,1.);
#354 = DIRECTION('',(2.894803321923E-32,-1.,-1.303703516192E-16));
#355 = ORIENTED_EDGE('',*,*,#72,.T.);
#356 = ORIENTED_EDGE('',*,*,#309,.T.);
#357 = ORIENTED_EDGE('',*,*,#358,.F.);
#358 = EDGE_CURVE('',#349,#310,#359,.T.);
#359 = LINE('',#360,#361);
#360 = CARTESIAN_POINT('',(8.49,5.296816705891,47.95));
#361 = VECTOR('',#362,1.);
#362 = DIRECTION('',(1.,0.,2.22044604925E-16));
#363 = PLANE('',#364);
#364 = AXIS2_PLACEMENT_3D('',#365,#366,#367);
#365 = CARTESIAN_POINT('',(8.49,8.703183294109,47.95));
#366 = DIRECTION('',(2.22044604925E-16,1.303703516192E-16,-1.));
#367 = DIRECTION('',(2.894803321923E-32,-1.,-1.303703516192E-16));
#368 = ADVANCED_FACE('',(#369),#412,.T.);
#369 = FACE_BOUND('',#370,.T.);
#370 = EDGE_LOOP('',(#371,#379,#380,#389,#396,#397,#398,#406));
#371 = ORIENTED_EDGE('',*,*,#372,.T.);
#372 = EDGE_CURVE('',#373,#40,#375,.T.);
#373 = VERTEX_POINT('',#374);
#374 = CARTESIAN_POINT('',(8.49,5.296816705891,42.05));
#375 = LINE('',#376,#377);
#376 = CARTESIAN_POINT('',(8.49,5.296816705891,42.05));
#377 = VECTOR('',#378,1.);
#378 = DIRECTION('',(5.789606643846E-32,1.,-2.607407032384E-16));
#379 = ORIENTED_EDGE('',*,*,#47,.T.);
#380 = ORIENTED_EDGE('',*,*,#381,.F.);
#381 = EDGE_CURVE('',#382,#48,#384,.T.);
#382 = VERTEX_POINT('',#383);
#383 = CARTESIAN_POINT('',(8.49,7.,46.7));
#384 = CIRCLE('',#385,1.7);
#385 = AXIS2_PLACEMENT_3D('',#386,#387,#388);
#386 = CARTESIAN_POINT('',(8.49,7.,45.));
#387 = DIRECTION('',(1.,0.,-0.));
#388 = DIRECTION('',(0.,0.,1.));
#389 = ORIENTED_EDGE('',*,*,#390,.F.);
#390 = EDGE_CURVE('',#56,#382,#391,.T.);
#391 = CIRCLE('',#392,1.7);
#392 = AXIS2_PLACEMENT_3D('',#393,#394,#395);
#393 = CARTESIAN_POINT('',(8.49,7.,45.));
#394 = DIRECTION('',(1.,0.,-0.));
#395 = DIRECTION('',(0.,0.,1.));
#396 = ORIENTED_EDGE('',*,*,#64,.T.);
#397 = ORIENTED_EDGE('',*,*,#348,.T.);
#398 = ORIENTED_EDGE('',*,*,#399,.T.);
#399 = EDGE_CURVE('',#349,#400,#402,.T.);
#400 = VERTEX_POINT('',#401);
#401 = CARTESIAN_POINT('',(8.49,3.593633411781,45.));
#402 = LINE('',#403,#404);
#403 = CARTESIAN_POINT('',(8.49,5.296816705891,47.95));
#404 = VECTOR('',#405,1.);
#405 = DIRECTION('',(1.922962686384E-16,-0.5,-0.866025403784));
#406 = ORIENTED_EDGE('',*,*,#407,.T.);
#407 = EDGE_CURVE('',#400,#373,#408,.T.);
#408 = LINE('',#409,#410);
#409 = CARTESIAN_POINT('',(8.49,3.593633411781,45.));
#410 = VECTOR('',#411,1.);
#411 = DIRECTION('',(1.922962686384E-16,0.5,-0.866025403784));
#412 = PLANE('',#413);
#413 = AXIS2_PLACEMENT_3D('',#414,#415,#416);
#414 = CARTESIAN_POINT('',(8.49,7.,45.));
#415 = DIRECTION('',(1.,0.,2.22044604925E-16));
#416 = DIRECTION('',(2.22044604925E-16,0.,-1.));
#417 = ADVANCED_FACE('',(#418),#431,.F.);
#418 = FACE_BOUND('',#419,.F.);
#419 = EDGE_LOOP('',(#420,#421,#422,#423,#429,#430));
#420 = ORIENTED_EDGE('',*,*,#390,.F.);
#421 = ORIENTED_EDGE('',*,*,#55,.T.);
#422 = ORIENTED_EDGE('',*,*,#381,.F.);
#423 = ORIENTED_EDGE('',*,*,#424,.F.);
#424 = EDGE_CURVE('',#210,#382,#425,.T.);
#425 = LINE('',#426,#427);
#426 = CARTESIAN_POINT('',(-12.01,7.,46.7));
#427 = VECTOR('',#428,1.);
#428 = DIRECTION('',(1.,0.,0.));
#429 = ORIENTED_EDGE('',*,*,#209,.T.);
#430 = ORIENTED_EDGE('',*,*,#424,.T.);
#431 = CYLINDRICAL_SURFACE('',#432,1.7);
#432 = AXIS2_PLACEMENT_3D('',#433,#434,#435);
#433 = CARTESIAN_POINT('',(-12.01,7.,45.));
#434 = DIRECTION('',(1.,0.,0.));
#435 = DIRECTION('',(0.,0.,1.));
#436 = ADVANCED_FACE('',(#437),#448,.T.);
#437 = FACE_BOUND('',#438,.T.);
#438 = EDGE_LOOP('',(#439,#440,#446,#447));
#439 = ORIENTED_EDGE('',*,*,#372,.F.);
#440 = ORIENTED_EDGE('',*,*,#441,.T.);
#441 = EDGE_CURVE('',#373,#326,#442,.T.);
#442 = LINE('',#443,#444);
#443 = CARTESIAN_POINT('',(8.49,5.296816705891,42.05));
#444 = VECTOR('',#445,1.);
#445 = DIRECTION('',(1.,0.,2.22044604925E-16));
#446 = ORIENTED_EDGE('',*,*,#333,.T.);
#447 = ORIENTED_EDGE('',*,*,#39,.T.);
#448 = PLANE('',#449);
#449 = AXIS2_PLACEMENT_3D('',#450,#451,#452);
#450 = CARTESIAN_POINT('',(8.49,5.296816705891,42.05));
#451 = DIRECTION('',(-2.22044604925E-16,2.607407032384E-16,1.));
#452 = DIRECTION('',(5.789606643846E-32,1.,-2.607407032384E-16));
#453 = ADVANCED_FACE('',(#454),#465,.F.);
#454 = FACE_BOUND('',#455,.F.);
#455 = EDGE_LOOP('',(#456,#462,#463,#464));
#456 = ORIENTED_EDGE('',*,*,#457,.T.);
#457 = EDGE_CURVE('',#170,#279,#458,.T.);
#458 = LINE('',#459,#460);
#459 = CARTESIAN_POINT('',(-2.333265525195E-15,-12.70170592217,40.));
#460 = VECTOR('',#461,1.);
#461 = DIRECTION('',(0.,0.,1.));
#462 = ORIENTED_EDGE('',*,*,#286,.T.);
#463 = ORIENTED_EDGE('',*,*,#301,.F.);
#464 = ORIENTED_EDGE('',*,*,#177,.F.);
#465 = PLANE('',#466);
#466 = AXIS2_PLACEMENT_3D('',#467,#468,#469);
#467 = CARTESIAN_POINT('',(-2.333265525195E-15,-12.70170592217,40.));
#468 = DIRECTION('',(-0.5,0.866025403784,0.));
#469 = DIRECTION('',(0.866025403784,0.5,0.));
#470 = ADVANCED_FACE('',(#471),#482,.F.);
#471 = FACE_BOUND('',#472,.F.);
#472 = EDGE_LOOP('',(#473,#479,#480,#481));
#473 = ORIENTED_EDGE('',*,*,#474,.T.);
#474 = EDGE_CURVE('',#162,#271,#475,.T.);
#475 = LINE('',#476,#477);
#476 = CARTESIAN_POINT('',(-11.,-6.350852961086,40.));
#477 = VECTOR('',#478,1.);
#478 = DIRECTION('',(0.,0.,1.));
#479 = ORIENTED_EDGE('',*,*,#278,.T.);
#480 = ORIENTED_EDGE('',*,*,#457,.F.);
#481 = ORIENTED_EDGE('',*,*,#169,.F.);
#482 = PLANE('',#483);
#483 = AXIS2_PLACEMENT_3D('',#484,#485,#486);
#484 = CARTESIAN_POINT('',(-11.,-6.350852961086,40.));
#485 = DIRECTION('',(0.5,0.866025403784,0.));
#486 = DIRECTION('',(0.866025403784,-0.5,0.));
#487 = ADVANCED_FACE('',(#488),#516,.F.);
#488 = FACE_BOUND('',#489,.F.);
#489 = EDGE_LOOP('',(#490,#491,#499,#508,#514,#515));
#490 = ORIENTED_EDGE('',*,*,#161,.F.);
#491 = ORIENTED_EDGE('',*,*,#492,.T.);
#492 = EDGE_CURVE('',#154,#493,#495,.T.);
#493 = VERTEX_POINT('',#494);
#494 = CARTESIAN_POINT('',(-11.,6.350852961086,43.428819513274));
#495 = LINE('',#496,#497);
#496 = CARTESIAN_POINT('',(-11.,6.350852961086,40.));
#497 = VECTOR('',#498,1.);
#498 = DIRECTION('',(0.,0.,1.));
#499 = ORIENTED_EDGE('',*,*,#500,.F.);
#500 = EDGE_CURVE('',#501,#493,#503,.T.);
#501 = VERTEX_POINT('',#502);
#502 = CARTESIAN_POINT('',(-11.,6.350852961086,46.571180486726));
#503 = CIRCLE('',#504,1.7);
#504 = AXIS2_PLACEMENT_3D('',#505,#506,#507);
#505 = CARTESIAN_POINT('',(-11.,7.,45.));
#506 = DIRECTION('',(1.,0.,-0.));
#507 = DIRECTION('',(0.,0.,1.));
#508 = ORIENTED_EDGE('',*,*,#509,.T.);
#509 = EDGE_CURVE('',#501,#263,#510,.T.);
#510 = LINE('',#511,#512);
#511 = CARTESIAN_POINT('',(-11.,6.350852961086,40.));
#512 = VECTOR('',#513,1.);
#513 = DIRECTION('',(0.,0.,1.));
#514 = ORIENTED_EDGE('',*,*,#270,.T.);
#515 = ORIENTED_EDGE('',*,*,#474,.F.);
#516 = PLANE('',#517);
#517 = AXIS2_PLACEMENT_3D('',#518,#519,#520);
#518 = CARTESIAN_POINT('',(-11.,6.350852961086,40.));
#519 = DIRECTION('',(1.,1.39851831737E-16,0.));
#520 = DIRECTION('',(1.39851831737E-16,-1.,0.));
#521 = ADVANCED_FACE('',(#522),#550,.F.);
#522 = FACE_BOUND('',#523,.F.);
#523 = EDGE_LOOP('',(#524,#525,#531,#532,#533,#542,#549));
#524 = ORIENTED_EDGE('',*,*,#153,.F.);
#525 = ORIENTED_EDGE('',*,*,#526,.T.);
#526 = EDGE_CURVE('',#146,#255,#527,.T.);
#527 = LINE('',#528,#529);
#528 = CARTESIAN_POINT('',(-0.6,12.355295760658,39.5));
#529 = VECTOR('',#530,1.);
#530 = DIRECTION('',(0.,0.,1.));
#531 = ORIENTED_EDGE('',*,*,#262,.T.);
#532 = ORIENTED_EDGE('',*,*,#509,.F.);
#533 = ORIENTED_EDGE('',*,*,#534,.F.);
#534 = EDGE_CURVE('',#535,#501,#537,.T.);
#535 = VERTEX_POINT('',#536);
#536 = CARTESIAN_POINT('',(-9.875644347018,7.,46.7));
#537 = ELLIPSE('',#538,3.4,1.7);
#538 = AXIS2_PLACEMENT_3D('',#539,#540,#541);
#539 = CARTESIAN_POINT('',(-9.875644347018,7.,45.));
#540 = DIRECTION('',(0.5,-0.866025403784,0.));
#541 = DIRECTION('',(0.866025403784,0.5,0.));
#542 = ORIENTED_EDGE('',*,*,#543,.F.);
#543 = EDGE_CURVE('',#493,#535,#544,.T.);
#544 = ELLIPSE('',#545,3.4,1.7);
#545 = AXIS2_PLACEMENT_3D('',#546,#547,#548);
#546 = CARTESIAN_POINT('',(-9.875644347018,7.,45.));
#547 = DIRECTION('',(0.5,-0.866025403784,0.));
#548 = DIRECTION('',(0.866025403784,0.5,0.));
#549 = ORIENTED_EDGE('',*,*,#492,.F.);
#550 = PLANE('',#551);
#551 = AXIS2_PLACEMENT_3D('',#552,#553,#554);
#552 = CARTESIAN_POINT('',(7.777551750649E-16,12.701705922172,40.));
#553 = DIRECTION('',(0.5,-0.866025403784,0.));
#554 = DIRECTION('',(-0.866025403784,-0.5,0.));
#555 = ADVANCED_FACE('',(#556,#567),#578,.T.);
#556 = FACE_BOUND('',#557,.T.);
#557 = EDGE_LOOP('',(#558,#559,#560,#561));
#558 = ORIENTED_EDGE('',*,*,#145,.T.);
#559 = ORIENTED_EDGE('',*,*,#526,.T.);
#560 = ORIENTED_EDGE('',*,*,#254,.F.);
#561 = ORIENTED_EDGE('',*,*,#562,.F.);
#562 = EDGE_CURVE('',#137,#246,#563,.T.);
#563 = LINE('',#564,#565);
#564 = CARTESIAN_POINT('',(-0.6,3.54964786986,39.));
#565 = VECTOR('',#566,1.);
#566 = DIRECTION('',(0.,0.,1.));
#567 = FACE_BOUND('',#568,.T.);
#568 = EDGE_LOOP('',(#569));
#569 = ORIENTED_EDGE('',*,*,#570,.F.);
#570 = EDGE_CURVE('',#571,#571,#573,.T.);
#571 = VERTEX_POINT('',#572);
#572 = CARTESIAN_POINT('',(-0.6,7.,46.7));
#573 = CIRCLE('',#574,1.7);
#574 = AXIS2_PLACEMENT_3D('',#575,#576,#577);
#575 = CARTESIAN_POINT('',(-0.6,7.,45.));
#576 = DIRECTION('',(1.,0.,-0.));
#577 = DIRECTION('',(0.,0.,1.));
#578 = PLANE('',#579);
#579 = AXIS2_PLACEMENT_3D('',#580,#581,#582);
#580 = CARTESIAN_POINT('',(-0.6,0.,39.));
#581 = DIRECTION('',(1.,0.,0.));
#582 = DIRECTION('',(0.,0.,1.));
#583 = ADVANCED_FACE('',(#584),#595,.F.);
#584 = FACE_BOUND('',#585,.F.);
#585 = EDGE_LOOP('',(#586,#592,#593,#594));
#586 = ORIENTED_EDGE('',*,*,#587,.T.);
#587 = EDGE_CURVE('',#128,#237,#588,.T.);
#588 = LINE('',#589,#590);
#589 = CARTESIAN_POINT('',(3.6,-8.817456953861E-16,39.));
#590 = VECTOR('',#591,1.);
#591 = DIRECTION('',(0.,0.,1.));
#592 = ORIENTED_EDGE('',*,*,#245,.F.);
#593 = ORIENTED_EDGE('',*,*,#562,.F.);
#594 = ORIENTED_EDGE('',*,*,#136,.T.);
#595 = CYLINDRICAL_SURFACE('',#596,3.6);
#596 = AXIS2_PLACEMENT_3D('',#597,#598,#599);
#597 = CARTESIAN_POINT('',(0.,0.,39.));
#598 = DIRECTION('',(0.,0.,1.));
#599 = DIRECTION('',(1.,0.,0.));
#600 = ADVANCED_FACE('',(#601),#607,.F.);
#601 = FACE_BOUND('',#602,.F.);
#602 = EDGE_LOOP('',(#603,#604,#605,#606));
#603 = ORIENTED_EDGE('',*,*,#236,.F.);
#604 = ORIENTED_EDGE('',*,*,#587,.F.);
#605 = ORIENTED_EDGE('',*,*,#127,.T.);
#606 = ORIENTED_EDGE('',*,*,#201,.T.);
#607 = CYLINDRICAL_SURFACE('',#608,3.6);
#608 = AXIS2_PLACEMENT_3D('',#609,#610,#611);
#609 = CARTESIAN_POINT('',(0.,0.,39.));
#610 = DIRECTION('',(0.,0.,1.));
#611 = DIRECTION('',(1.,0.,0.));
#612 = ADVANCED_FACE('',(#613),#624,.T.);
#613 = FACE_BOUND('',#614,.T.);
#614 = EDGE_LOOP('',(#615,#616,#622,#623));
#615 = ORIENTED_EDGE('',*,*,#407,.F.);
#616 = ORIENTED_EDGE('',*,*,#617,.T.);
#617 = EDGE_CURVE('',#400,#318,#618,.T.);
#618 = LINE('',#619,#620);
#619 = CARTESIAN_POINT('',(8.49,3.593633411781,45.));
#620 = VECTOR('',#621,1.);
#621 = DIRECTION('',(1.,0.,2.22044604925E-16));
#622 = ORIENTED_EDGE('',*,*,#325,.T.);
#623 = ORIENTED_EDGE('',*,*,#441,.F.);
#624 = PLANE('',#625);
#625 = AXIS2_PLACEMENT_3D('',#626,#627,#628);
#626 = CARTESIAN_POINT('',(8.49,3.593633411781,45.));
#627 = DIRECTION('',(-1.110223024625E-16,0.866025403784,0.5));
#628 = DIRECTION('',(1.922962686384E-16,0.5,-0.866025403784));
#629 = ADVANCED_FACE('',(#630),#636,.T.);
#630 = FACE_BOUND('',#631,.T.);
#631 = EDGE_LOOP('',(#632,#633,#634,#635));
#632 = ORIENTED_EDGE('',*,*,#399,.F.);
#633 = ORIENTED_EDGE('',*,*,#358,.T.);
#634 = ORIENTED_EDGE('',*,*,#317,.T.);
#635 = ORIENTED_EDGE('',*,*,#617,.F.);
#636 = PLANE('',#637);
#637 = AXIS2_PLACEMENT_3D('',#638,#639,#640);
#638 = CARTESIAN_POINT('',(8.49,5.296816705891,47.95));
#639 = DIRECTION('',(1.110223024625E-16,0.866025403784,-0.5));
#640 = DIRECTION('',(1.922962686384E-16,-0.5,-0.866025403784));
#641 = ADVANCED_FACE('',(#642),#655,.F.);
#642 = FACE_BOUND('',#643,.F.);
#643 = EDGE_LOOP('',(#644,#645,#651,#652,#653,#654));
#644 = ORIENTED_EDGE('',*,*,#570,.F.);
#645 = ORIENTED_EDGE('',*,*,#646,.F.);
#646 = EDGE_CURVE('',#535,#571,#647,.T.);
#647 = LINE('',#648,#649);
#648 = CARTESIAN_POINT('',(-12.01,7.,46.7));
#649 = VECTOR('',#650,1.);
#650 = DIRECTION('',(1.,0.,0.));
#651 = ORIENTED_EDGE('',*,*,#534,.T.);
#652 = ORIENTED_EDGE('',*,*,#500,.T.);
#653 = ORIENTED_EDGE('',*,*,#543,.T.);
#654 = ORIENTED_EDGE('',*,*,#646,.T.);
#655 = CYLINDRICAL_SURFACE('',#656,1.7);
#656 = AXIS2_PLACEMENT_3D('',#657,#658,#659);
#657 = CARTESIAN_POINT('',(-12.01,7.,45.));
#658 = DIRECTION('',(1.,0.,0.));
#659 = DIRECTION('',(0.,0.,1.));
#660 = ( GEOMETRIC_REPRESENTATION_CONTEXT(3) 
GLOBAL_UNCERTAINTY_ASSIGNED_CONTEXT((#664)) GLOBAL_UNIT_ASSIGNED_CONTEXT
((#661,#662,#663)) REPRESENTATION_CONTEXT('Context #1',
  '3D Context with UNIT and UNCERTAINTY') );
#661 = ( LENGTH_UNIT() NAMED_UNIT(*) SI_UNIT(.MILLI.,.METRE.) );
#662 = ( NAMED_UNIT(*) PLANE_ANGLE_UNIT() SI_UNIT($,.RADIAN.) );
#663 = ( NAMED_UNIT(*) SI_UNIT($,.STERADIAN.) SOLID_ANGLE_UNIT() );
#664 = UNCERTAINTY_MEASURE_WITH_UNIT(LENGTH_MEASURE(1.E-07),#661,
  'distance_accuracy_value','confusion accuracy');
#665 = PRODUCT_RELATED_PRODUCT_CATEGORY('part',$,(#7));
ENDSEC;
END-ISO-10303-21;
