ISO-10303-21;
HEADER;
FILE_DESCRIPTION(('FreeCAD Model'),'2;1');
FILE_NAME('Open CASCADE Shape Model','2026-09-19T20:03:32',('FreeCAD'),(
    'FreeCAD'),'Open CASCADE STEP processor 7.9','FreeCAD','Unknown');
FILE_SCHEMA(('AUTOMOTIVE_DESIGN { 1 0 10303 214 1 1 1 1 }'));
ENDSEC;
DATA;
#1 = APPLICATION_PROTOCOL_DEFINITION('international standard',
  'automotive_design',2000,#2);
#2 = APPLICATION_CONTEXT(
  'core data for automotive mechanical design processes');
#3 = SHAPE_DEFINITION_REPRESENTATION(#4,#10);
#4 = PRODUCT_DEFINITION_SHAPE('','',#5);
#5 = PRODUCT_DEFINITION('design','',#6,#9);
#6 = PRODUCT_DEFINITION_FORMATION('','',#7);
#7 = PRODUCT('Open CASCADE STEP translator 7.9 32',
  'Open CASCADE STEP translator 7.9 32','',(#8));
#8 = PRODUCT_CONTEXT('',#2,'mechanical');
#9 = PRODUCT_DEFINITION_CONTEXT('part definition',#2,'design');
#10 = ADVANCED_BREP_SHAPE_REPRESENTATION('',(#11,#15),#1048);
#11 = AXIS2_PLACEMENT_3D('',#12,#13,#14);
#12 = CARTESIAN_POINT('',(0.,0.,0.));
#13 = DIRECTION('',(0.,0.,1.));
#14 = DIRECTION('',(1.,0.,-0.));
#15 = MANIFOLD_SOLID_BREP('',#16);
#16 = CLOSED_SHELL('',(#17,#962,#971,#980,#997,#1014,#1031));
#17 = ADVANCED_FACE('',(#18,#45,#159,#273,#387,#501,#615,#729,#843),#957
  ,.T.);
#18 = FACE_BOUND('',#19,.T.);
#19 = EDGE_LOOP('',(#20,#29,#37,#44));
#20 = ORIENTED_EDGE('',*,*,#21,.F.);
#21 = EDGE_CURVE('',#22,#22,#24,.T.);
#22 = VERTEX_POINT('',#23);
#23 = CARTESIAN_POINT('',(-65.,3.673940397442E-15,565.));
#24 = CIRCLE('',#25,15.);
#25 = AXIS2_PLACEMENT_3D('',#26,#27,#28);
#26 = CARTESIAN_POINT('',(-65.,0.,580.));
#27 = DIRECTION('',(-1.,0.,0.));
#28 = DIRECTION('',(0.,0.,-1.));
#29 = ORIENTED_EDGE('',*,*,#30,.F.);
#30 = EDGE_CURVE('',#31,#22,#33,.T.);
#31 = VERTEX_POINT('',#32);
#32 = CARTESIAN_POINT('',(-25.,3.673940397442E-15,565.));
#33 = LINE('',#34,#35);
#34 = CARTESIAN_POINT('',(-25.,3.673940397442E-15,565.));
#35 = VECTOR('',#36,1.);
#36 = DIRECTION('',(-1.,0.,0.));
#37 = ORIENTED_EDGE('',*,*,#38,.T.);
#38 = EDGE_CURVE('',#31,#31,#39,.T.);
#39 = CIRCLE('',#40,15.);
#40 = AXIS2_PLACEMENT_3D('',#41,#42,#43);
#41 = CARTESIAN_POINT('',(-25.,0.,580.));
#42 = DIRECTION('',(-1.,0.,0.));
#43 = DIRECTION('',(0.,0.,-1.));
#44 = ORIENTED_EDGE('',*,*,#30,.T.);
#45 = FACE_BOUND('',#46,.T.);
#46 = EDGE_LOOP('',(#47));
#47 = ORIENTED_EDGE('',*,*,#48,.T.);
#48 = EDGE_CURVE('',#49,#49,#51,.T.);
#49 = VERTEX_POINT('',#50);
#50 = CARTESIAN_POINT('',(-32.75,-8.,567.31142245955));
#51 = B_SPLINE_CURVE_WITH_KNOTS('',6,(#52,#53,#54,#55,#56,#57,#58,#59,
    #60,#61,#62,#63,#64,#65,#66,#67,#68,#69,#70,#71,#72,#73,#74,#75,#76,
    #77,#78,#79,#80,#81,#82,#83,#84,#85,#86,#87,#88,#89,#90,#91,#92,#93,
    #94,#95,#96,#97,#98,#99,#100,#101,#102,#103,#104,#105,#106,#107,#108
    ,#109,#110,#111,#112,#113,#114,#115,#116,#117,#118,#119,#120,#121,
    #122,#123,#124,#125,#126,#127,#128,#129,#130,#131,#132,#133,#134,
    #135,#136,#137,#138,#139,#140,#141,#142,#143,#144,#145,#146,#147,
    #148,#149,#150,#151,#152,#153,#154,#155,#156,#157,#158),
  .UNSPECIFIED.,.T.,.F.,(7,5,5,5,5,5,5,5,5,5,5,5,5,5,5,5,5,5,5,5,5,7),(
    0.,5.654987739897E-02,9.180299645186E-02,0.137168741552,
    0.169378990459,0.241729650218,0.292494095174,0.345774740533,
    0.391430415154,0.426780696966,0.475326419499,0.529754831723,
    0.590799128104,0.647524050401,0.696976871498,0.7417824487,
    0.787018022153,0.811582066744,0.837255977073,0.892172692157,
    0.942309644247,1.),.UNSPECIFIED.);
#52 = CARTESIAN_POINT('',(-32.75,-8.,567.31142245955));
#53 = CARTESIAN_POINT('',(-32.75,-7.86265198811,567.22482614159));
#54 = CARTESIAN_POINT('',(-32.76006110752,-7.723514584587,567.1395948935
    ));
#55 = CARTESIAN_POINT('',(-32.78067449033,-7.583897441024,
    567.05659975279));
#56 = CARTESIAN_POINT('',(-32.8120415191,-7.445156546905,566.97658266647
    ));
#57 = CARTESIAN_POINT('',(-32.85408245828,-7.308653701714,
    566.90013325475));
#58 = CARTESIAN_POINT('',(-32.93907543621,-7.092791984627,
    566.78254138832));
#59 = CARTESIAN_POINT('',(-32.97569597072,-7.011338322783,
    566.73898077063));
#60 = CARTESIAN_POINT('',(-33.01619081802,-6.931656049331,
    566.69713154311));
#61 = CARTESIAN_POINT('',(-33.06040476901,-6.854060870287,
    566.65708290028));
#62 = CARTESIAN_POINT('',(-33.10813552851,-6.778846642769,
    566.61890065736));
#63 = CARTESIAN_POINT('',(-33.22476092946,-6.612897437728,566.5359557958
    ));
#64 = CARTESIAN_POINT('',(-33.2957668101,-6.523945185121,566.49247042015
    ));
#65 = CARTESIAN_POINT('',(-33.37171233016,-6.439835565715,
    566.45219136203));
#66 = CARTESIAN_POINT('',(-33.45210420897,-6.360926572032,566.4151025575
    ));
#67 = CARTESIAN_POINT('',(-33.53639530791,-6.287511455161,
    566.38116248718));
#68 = CARTESIAN_POINT('',(-33.68617496954,-6.171737953178,
    566.32840751114));
#69 = CARTESIAN_POINT('',(-33.75005310014,-6.126527436718,
    566.30805168699));
#70 = CARTESIAN_POINT('',(-33.81545778675,-6.084219717473,
    566.28920719959));
#71 = CARTESIAN_POINT('',(-33.88222790183,-6.044849081905,
    566.27183849192));
#72 = CARTESIAN_POINT('',(-33.95020290523,-6.008440986281,566.2559116286
    ));
#73 = CARTESIAN_POINT('',(-34.17425542815,-5.899923996384,
    566.20878546357));
#74 = CARTESIAN_POINT('',(-34.33450388194,-5.839894061662,
    566.18330030216));
#75 = CARTESIAN_POINT('',(-34.4984984641,-5.794918238439,566.16449215802
    ));
#76 = CARTESIAN_POINT('',(-34.66490974066,-5.764965717698,
    566.15206014007));
#77 = CARTESIAN_POINT('',(-34.83248755537,-5.75,566.1458489975));
#78 = CARTESIAN_POINT('',(-35.11753419116,-5.75,566.1458489975));
#79 = CARTESIAN_POINT('',(-35.23507561728,-5.757367358876,
    566.14890669331));
#80 = CARTESIAN_POINT('',(-35.3522157902,-5.772105021544,566.15502349216
    ));
#81 = CARTESIAN_POINT('',(-35.46853337832,-5.794222501982,
    566.16423742503));
#82 = CARTESIAN_POINT('',(-35.58359221112,-5.823734580375,
    566.17662397729));
#83 = CARTESIAN_POINT('',(-35.8159045399,-5.899415672713,566.20874670966
    ));
#84 = CARTESIAN_POINT('',(-35.93303313048,-5.946353978098,
    566.22882372836));
#85 = CARTESIAN_POINT('',(-36.04767447958,-6.001470850054,
    566.25264871477));
#86 = CARTESIAN_POINT('',(-36.15916137914,-6.064712265622,
    566.28036677622));
#87 = CARTESIAN_POINT('',(-36.2668092405,-6.135975453548,566.3121453306)
  );
#88 = CARTESIAN_POINT('',(-36.45826597942,-6.282919825329,
    566.37904299828));
#89 = CARTESIAN_POINT('',(-36.54330411561,-6.35652672362,566.41304117877
    ));
#90 = CARTESIAN_POINT('',(-36.62441457732,-6.435710876639,
    566.45022753861));
#91 = CARTESIAN_POINT('',(-36.701037227,-6.52017450679,566.49064479469)
  );
#92 = CARTESIAN_POINT('',(-36.77266748169,-6.609552920589,
    566.53430947429));
#93 = CARTESIAN_POINT('',(-36.89010592444,-6.776109083733,
    566.61751342338));
#94 = CARTESIAN_POINT('',(-36.93807553595,-6.851461985591,
    566.65574665813));
#95 = CARTESIAN_POINT('',(-36.98251338188,-6.929215827383,
    566.69585814647));
#96 = CARTESIAN_POINT('',(-37.02321480508,-7.009074845817,
    566.73778199283));
#97 = CARTESIAN_POINT('',(-37.06002268842,-7.090721124685,
    566.78142870082));
#98 = CARTESIAN_POINT('',(-37.13787728131,-7.287937468339,
    566.88882719535));
#99 = CARTESIAN_POINT('',(-37.17534330288,-7.404708379114,
    566.95395524367));
#100 = CARTESIAN_POINT('',(-37.20497744704,-7.52328627311,
    567.02177297705));
#101 = CARTESIAN_POINT('',(-37.2266951298,-7.642800675125,
    567.09191054241));
#102 = CARTESIAN_POINT('',(-37.24057482184,-7.762372284817,
    567.1639158138));
#103 = CARTESIAN_POINT('',(-37.25390192332,-8.014274949957,
    567.31946826464));
#104 = CARTESIAN_POINT('',(-37.25139539162,-8.146367530234,
    567.40333909241));
#105 = CARTESIAN_POINT('',(-37.23971307721,-8.276605993117,
    567.48836635626));
#106 = CARTESIAN_POINT('',(-37.2192913411,-8.404263072261,
    567.57400799087));
#107 = CARTESIAN_POINT('',(-37.19062952662,-8.528678260562,
    567.65968288725));
#108 = CARTESIAN_POINT('',(-37.1135366285,-8.784481293962,
    567.84021858178));
#109 = CARTESIAN_POINT('',(-37.06309480807,-8.914983539017,
    567.93500457497));
#110 = CARTESIAN_POINT('',(-37.00362549198,-9.040264784926,
    568.02853016402));
#111 = CARTESIAN_POINT('',(-36.93571069007,-9.159901782331,
    568.12017287057));
#112 = CARTESIAN_POINT('',(-36.85986763243,-9.27350785571,
    568.20928661862));
#113 = CARTESIAN_POINT('',(-36.69914971066,-9.480305468453,
    568.37502248234));
#114 = CARTESIAN_POINT('',(-36.6152513124,-9.574427812706,
    568.45212622767));
#115 = CARTESIAN_POINT('',(-36.52522705478,-9.662742723957,
    568.52595311208));
#116 = CARTESIAN_POINT('',(-36.42941545101,-9.744919974751,
    568.59591534692));
#117 = CARTESIAN_POINT('',(-36.32813518544,-9.820611231057,
    568.66139450033));
#118 = CARTESIAN_POINT('',(-36.12888661122,-9.949442876649,
    568.77436169894));
#119 = CARTESIAN_POINT('',(-36.03211514081,-10.00425756357,
    568.82310415193));
#120 = CARTESIAN_POINT('',(-35.93172868146,-10.05351846307,
    568.86744860578));
#121 = CARTESIAN_POINT('',(-35.82809718086,-10.09691049541,
    568.90690648756));
#122 = CARTESIAN_POINT('',(-35.72160415453,-10.13415323894,
    568.94103548578));
#123 = CARTESIAN_POINT('',(-35.5139265357,-10.19292165636,
    568.99519235881));
#124 = CARTESIAN_POINT('',(-35.41320345099,-10.21558962975,
    569.01623886822));
#125 = CARTESIAN_POINT('',(-35.31095772564,-10.23275010222,
    569.0322565864));
#126 = CARTESIAN_POINT('',(-35.20767821099,-10.2442467568,
    569.04301757308));
#127 = CARTESIAN_POINT('',(-35.10385949313,-10.25,569.04840194309));
#128 = CARTESIAN_POINT('',(-34.89514377397,-10.25,569.04840194309));
#129 = CARTESIAN_POINT('',(-34.79033071126,-10.24413579042,
    569.04291373201));
#130 = CARTESIAN_POINT('',(-34.68607279018,-10.23241785588,
    569.03194559514));
#131 = CARTESIAN_POINT('',(-34.58287800509,-10.2149287602,
    569.01562201014));
#132 = CARTESIAN_POINT('',(-34.4812483483,-10.19183049423,
    568.99417933786));
#133 = CARTESIAN_POINT('',(-34.32760849665,-10.14791805567,
    568.95372458044));
#134 = CARTESIAN_POINT('',(-34.27413346759,-10.13088013656,
    568.93807610627));
#135 = CARTESIAN_POINT('',(-34.22130892541,-10.11228975825,
    568.92106392181));
#136 = CARTESIAN_POINT('',(-34.16919018498,-10.09218194656,
    568.90274040295));
#137 = CARTESIAN_POINT('',(-34.11783165551,-10.07059506111,
    568.88316247031));
#138 = CARTESIAN_POINT('',(-34.01445828276,-10.02350623502,
    568.84068222712));
#139 = CARTESIAN_POINT('',(-33.96251732501,-9.997871086965,
    568.81766902228));
#140 = CARTESIAN_POINT('',(-33.91150812469,-9.970705179607,
    568.79341503935));
#141 = CARTESIAN_POINT('',(-33.86147414451,-9.942049429827,
    568.76798474299));
#142 = CARTESIAN_POINT('',(-33.81245815247,-9.911945842987,
    568.74144399784));
#143 = CARTESIAN_POINT('',(-33.66192407348,-9.813040923864,
    568.65485780636));
#144 = CARTESIAN_POINT('',(-33.56422184186,-9.739234856614,
    568.59109733757));
#145 = CARTESIAN_POINT('',(-33.47166960257,-9.659360768708,
    568.52316246998));
#146 = CARTESIAN_POINT('',(-33.3845569256,-9.573734613464,
    568.45161415263));
#147 = CARTESIAN_POINT('',(-33.303191097,-9.482656371232,568.37698617728
    ));
#148 = CARTESIAN_POINT('',(-33.15916072138,-9.298558911009,
    568.2292952676));
#149 = CARTESIAN_POINT('',(-33.09546150595,-9.206368678458,
    568.15663755527));
#150 = CARTESIAN_POINT('',(-33.03704943112,-9.110053551159,
    568.08217721555));
#151 = CARTESIAN_POINT('',(-32.9842019548,-9.009824240325,
    568.00627322582));
#152 = CARTESIAN_POINT('',(-32.93722757614,-8.905903084047,
    567.92927232004));
#153 = CARTESIAN_POINT('',(-32.84956595633,-8.674979785395,
    567.76202642988));
#154 = CARTESIAN_POINT('',(-32.8108504185,-8.546747606892,
    567.67145301986));
#155 = CARTESIAN_POINT('',(-32.78096039693,-8.414426088227,
    567.58046755063));
#156 = CARTESIAN_POINT('',(-32.76049201625,-8.278680006546,
    567.4897268408));
#157 = CARTESIAN_POINT('',(-32.75,-8.140257225967,567.39985300301));
#158 = CARTESIAN_POINT('',(-32.75,-8.,567.31142245955));
#159 = FACE_BOUND('',#160,.T.);
#160 = EDGE_LOOP('',(#161));
#161 = ORIENTED_EDGE('',*,*,#162,.F.);
#162 = EDGE_CURVE('',#163,#163,#165,.T.);
#163 = VERTEX_POINT('',#164);
#164 = CARTESIAN_POINT('',(-32.75,-8.,592.68857754045));
#165 = B_SPLINE_CURVE_WITH_KNOTS('',6,(#166,#167,#168,#169,#170,#171,
    #172,#173,#174,#175,#176,#177,#178,#179,#180,#181,#182,#183,#184,
    #185,#186,#187,#188,#189,#190,#191,#192,#193,#194,#195,#196,#197,
    #198,#199,#200,#201,#202,#203,#204,#205,#206,#207,#208,#209,#210,
    #211,#212,#213,#214,#215,#216,#217,#218,#219,#220,#221,#222,#223,
    #224,#225,#226,#227,#228,#229,#230,#231,#232,#233,#234,#235,#236,
    #237,#238,#239,#240,#241,#242,#243,#244,#245,#246,#247,#248,#249,
    #250,#251,#252,#253,#254,#255,#256,#257,#258,#259,#260,#261,#262,
    #263,#264,#265,#266,#267,#268,#269,#270,#271,#272),.UNSPECIFIED.,.T.
  ,.F.,(7,5,5,5,5,5,5,5,5,5,5,5,5,5,5,5,5,5,5,5,5,7),(0.,
    5.65498792952E-02,9.180299953019E-02,0.137168746134,0.169378996099,
    0.241729658232,0.292494104854,0.34577475197,0.391430428105,
    0.426780711089,0.475326435231,0.52975484926,0.590799147664,
    0.647524071842,0.696976894578,0.741782473265,0.787018048218,
    0.811582093624,0.837256002394,0.892172708934,0.942309653223,1.),
  .UNSPECIFIED.);
#166 = CARTESIAN_POINT('',(-32.75,-8.,592.68857754045));
#167 = CARTESIAN_POINT('',(-32.75,-7.86265198811,592.7751738584));
#168 = CARTESIAN_POINT('',(-32.76006110752,-7.723514584587,
    592.86040510649));
#169 = CARTESIAN_POINT('',(-32.78067449033,-7.583897441024,
    592.9434002472));
#170 = CARTESIAN_POINT('',(-32.8120415191,-7.445156546905,
    593.02341733352));
#171 = CARTESIAN_POINT('',(-32.85408245828,-7.308653701714,
    593.09986674524));
#172 = CARTESIAN_POINT('',(-32.93907543621,-7.092791984627,
    593.21745861167));
#173 = CARTESIAN_POINT('',(-32.97569597072,-7.011338322783,
    593.26101922936));
#174 = CARTESIAN_POINT('',(-33.01619081802,-6.931656049331,
    593.30286845689));
#175 = CARTESIAN_POINT('',(-33.06040476901,-6.854060870287,
    593.34291709971));
#176 = CARTESIAN_POINT('',(-33.10813552851,-6.778846642769,
    593.38109934263));
#177 = CARTESIAN_POINT('',(-33.22476092943,-6.612897437763,
    593.46404420417));
#178 = CARTESIAN_POINT('',(-33.2957668101,-6.523945185109,
    593.50752957985));
#179 = CARTESIAN_POINT('',(-33.37171233019,-6.439835565686,
    593.54780863797));
#180 = CARTESIAN_POINT('',(-33.45210420898,-6.360926572029,
    593.5848974425));
#181 = CARTESIAN_POINT('',(-33.53639530788,-6.287511455184,
    593.6188375128));
#182 = CARTESIAN_POINT('',(-33.68617496954,-6.171737953178,
    593.67159248885));
#183 = CARTESIAN_POINT('',(-33.75005310014,-6.126527436718,593.691948313
    ));
#184 = CARTESIAN_POINT('',(-33.81545778675,-6.084219717473,
    593.7107928004));
#185 = CARTESIAN_POINT('',(-33.88222790183,-6.044849081905,
    593.72816150807));
#186 = CARTESIAN_POINT('',(-33.95020290523,-6.008440986281,
    593.74408837139));
#187 = CARTESIAN_POINT('',(-34.17425542815,-5.899923996384,
    593.79121453642));
#188 = CARTESIAN_POINT('',(-34.33450388194,-5.839894061662,
    593.81669969783));
#189 = CARTESIAN_POINT('',(-34.4984984641,-5.794918238438,
    593.83550784197));
#190 = CARTESIAN_POINT('',(-34.66490974066,-5.764965717698,
    593.84793985992));
#191 = CARTESIAN_POINT('',(-34.83248755537,-5.75,593.85415100249));
#192 = CARTESIAN_POINT('',(-35.11753419116,-5.75,593.85415100249));
#193 = CARTESIAN_POINT('',(-35.23507561728,-5.757367358876,
    593.85109330668));
#194 = CARTESIAN_POINT('',(-35.3522157902,-5.772105021544,
    593.84497650783));
#195 = CARTESIAN_POINT('',(-35.46853337832,-5.794222501982,
    593.83576257496));
#196 = CARTESIAN_POINT('',(-35.58359221112,-5.823734580375,
    593.8233760227));
#197 = CARTESIAN_POINT('',(-35.81590453992,-5.89941567272,
    593.79125329033));
#198 = CARTESIAN_POINT('',(-35.93303313048,-5.946353978099,
    593.77117627163));
#199 = CARTESIAN_POINT('',(-36.04767447956,-6.001470850044,
    593.74735128523));
#200 = CARTESIAN_POINT('',(-36.15916137914,-6.064712265616,
    593.71963322377));
#201 = CARTESIAN_POINT('',(-36.26680924051,-6.135975453562,
    593.68785466939));
#202 = CARTESIAN_POINT('',(-36.45826597942,-6.282919825329,
    593.62095700171));
#203 = CARTESIAN_POINT('',(-36.54330411561,-6.35652672362,
    593.58695882123));
#204 = CARTESIAN_POINT('',(-36.62441457732,-6.435710876639,
    593.54977246139));
#205 = CARTESIAN_POINT('',(-36.701037227,-6.52017450679,593.5093552053)
  );
#206 = CARTESIAN_POINT('',(-36.77266748169,-6.609552920589,
    593.4656905257));
#207 = CARTESIAN_POINT('',(-36.89010592444,-6.776109083733,
    593.38248657661));
#208 = CARTESIAN_POINT('',(-36.93807553595,-6.851461985592,
    593.34425334186));
#209 = CARTESIAN_POINT('',(-36.98251338188,-6.929215827382,
    593.30414185352));
#210 = CARTESIAN_POINT('',(-37.02321480508,-7.009074845817,
    593.26221800716));
#211 = CARTESIAN_POINT('',(-37.06002268842,-7.090721124685,
    593.21857129918));
#212 = CARTESIAN_POINT('',(-37.13787728131,-7.287937468339,
    593.11117280464));
#213 = CARTESIAN_POINT('',(-37.17534330288,-7.404708379114,
    593.04604475632));
#214 = CARTESIAN_POINT('',(-37.20497744704,-7.52328627311,
    592.97822702294));
#215 = CARTESIAN_POINT('',(-37.2266951298,-7.642800675125,
    592.90808945758));
#216 = CARTESIAN_POINT('',(-37.24057482184,-7.762372284817,
    592.83608418619));
#217 = CARTESIAN_POINT('',(-37.25390192332,-8.014274949957,
    592.68053173535));
#218 = CARTESIAN_POINT('',(-37.25139539162,-8.146367530234,
    592.59666090759));
#219 = CARTESIAN_POINT('',(-37.23971307721,-8.276605993117,
    592.51163364373));
#220 = CARTESIAN_POINT('',(-37.2192913411,-8.404263072261,
    592.42599200912));
#221 = CARTESIAN_POINT('',(-37.19062952662,-8.528678260562,
    592.34031711274));
#222 = CARTESIAN_POINT('',(-37.1135366285,-8.784481293962,
    592.15978141821));
#223 = CARTESIAN_POINT('',(-37.06309480807,-8.914983539017,
    592.06499542502));
#224 = CARTESIAN_POINT('',(-37.00362549198,-9.040264784926,
    591.97146983597));
#225 = CARTESIAN_POINT('',(-36.93571069007,-9.159901782331,
    591.87982712942));
#226 = CARTESIAN_POINT('',(-36.85986763243,-9.27350785571,
    591.79071338137));
#227 = CARTESIAN_POINT('',(-36.69914971066,-9.480305468453,
    591.62497751765));
#228 = CARTESIAN_POINT('',(-36.6152513124,-9.574427812706,
    591.54787377233));
#229 = CARTESIAN_POINT('',(-36.52522705478,-9.662742723957,
    591.47404688791));
#230 = CARTESIAN_POINT('',(-36.42941545101,-9.744919974751,
    591.40408465307));
#231 = CARTESIAN_POINT('',(-36.32813518544,-9.820611231057,
    591.33860549966));
#232 = CARTESIAN_POINT('',(-36.12888661122,-9.949442876649,
    591.22563830105));
#233 = CARTESIAN_POINT('',(-36.03211514081,-10.00425756357,
    591.17689584806));
#234 = CARTESIAN_POINT('',(-35.93172868146,-10.05351846307,
    591.13255139421));
#235 = CARTESIAN_POINT('',(-35.82809718086,-10.09691049541,
    591.09309351244));
#236 = CARTESIAN_POINT('',(-35.72160415453,-10.13415323894,
    591.05896451421));
#237 = CARTESIAN_POINT('',(-35.5139265357,-10.19292165636,
    591.00480764118));
#238 = CARTESIAN_POINT('',(-35.41320345099,-10.21558962975,
    590.98376113177));
#239 = CARTESIAN_POINT('',(-35.31095772564,-10.23275010222,
    590.96774341359));
#240 = CARTESIAN_POINT('',(-35.20767821099,-10.2442467568,
    590.95698242692));
#241 = CARTESIAN_POINT('',(-35.10385949313,-10.25,590.9515980569));
#242 = CARTESIAN_POINT('',(-34.89514377397,-10.25,590.9515980569));
#243 = CARTESIAN_POINT('',(-34.79033071126,-10.24413579042,
    590.95708626798));
#244 = CARTESIAN_POINT('',(-34.68607279018,-10.23241785588,
    590.96805440485));
#245 = CARTESIAN_POINT('',(-34.58287800509,-10.2149287602,
    590.98437798985));
#246 = CARTESIAN_POINT('',(-34.4812483483,-10.19183049423,
    591.00582066213));
#247 = CARTESIAN_POINT('',(-34.32760849665,-10.14791805567,
    591.04627541955));
#248 = CARTESIAN_POINT('',(-34.27413346759,-10.13088013656,
    591.06192389372));
#249 = CARTESIAN_POINT('',(-34.22130892541,-10.11228975825,
    591.07893607818));
#250 = CARTESIAN_POINT('',(-34.16919018498,-10.09218194656,
    591.09725959704));
#251 = CARTESIAN_POINT('',(-34.1178316555,-10.07059506111,
    591.11683752968));
#252 = CARTESIAN_POINT('',(-34.01445828772,-10.02350623728,
    591.15931777083));
#253 = CARTESIAN_POINT('',(-33.9625173239,-9.997871085973,
    591.18233097857));
#254 = CARTESIAN_POINT('',(-33.91150811992,-9.970705176983,
    591.20658496297));
#255 = CARTESIAN_POINT('',(-33.86147414308,-9.94204942942,
    591.23201525739));
#256 = CARTESIAN_POINT('',(-33.81245815702,-9.911945845978,
    591.25855599953));
#257 = CARTESIAN_POINT('',(-33.66192407348,-9.813040923864,
    591.34514219363));
#258 = CARTESIAN_POINT('',(-33.56422184186,-9.739234856614,
    591.40890266242));
#259 = CARTESIAN_POINT('',(-33.47166960257,-9.659360768708,
    591.47683753001));
#260 = CARTESIAN_POINT('',(-33.3845569256,-9.573734613464,
    591.54838584736));
#261 = CARTESIAN_POINT('',(-33.303191097,-9.482656371232,591.62301382271
    ));
#262 = CARTESIAN_POINT('',(-33.15916072138,-9.298558911009,
    591.77070473239));
#263 = CARTESIAN_POINT('',(-33.09546150595,-9.206368678458,
    591.84336244472));
#264 = CARTESIAN_POINT('',(-33.03704943112,-9.110053551159,
    591.91782278445));
#265 = CARTESIAN_POINT('',(-32.9842019548,-9.009824240325,
    591.99372677417));
#266 = CARTESIAN_POINT('',(-32.93722757614,-8.905903084047,
    592.07072767995));
#267 = CARTESIAN_POINT('',(-32.84956595633,-8.674979785395,
    592.23797357011));
#268 = CARTESIAN_POINT('',(-32.8108504185,-8.546747606892,
    592.32854698013));
#269 = CARTESIAN_POINT('',(-32.78096039693,-8.414426088227,
    592.41953244936));
#270 = CARTESIAN_POINT('',(-32.76049201625,-8.278680006546,
    592.51027315919));
#271 = CARTESIAN_POINT('',(-32.75,-8.140257225967,592.60014699698));
#272 = CARTESIAN_POINT('',(-32.75,-8.,592.68857754045));
#273 = FACE_BOUND('',#274,.T.);
#274 = EDGE_LOOP('',(#275));
#275 = ORIENTED_EDGE('',*,*,#276,.F.);
#276 = EDGE_CURVE('',#277,#277,#279,.T.);
#277 = VERTEX_POINT('',#278);
#278 = CARTESIAN_POINT('',(-32.75,8.,592.68857754045));
#279 = B_SPLINE_CURVE_WITH_KNOTS('',6,(#280,#281,#282,#283,#284,#285,
    #286,#287,#288,#289,#290,#291,#292,#293,#294,#295,#296,#297,#298,
    #299,#300,#301,#302,#303,#304,#305,#306,#307,#308,#309,#310,#311,
    #312,#313,#314,#315,#316,#317,#318,#319,#320,#321,#322,#323,#324,
    #325,#326,#327,#328,#329,#330,#331,#332,#333,#334,#335,#336,#337,
    #338,#339,#340,#341,#342,#343,#344,#345,#346,#347,#348,#349,#350,
    #351,#352,#353,#354,#355,#356,#357,#358,#359,#360,#361,#362,#363,
    #364,#365,#366,#367,#368,#369,#370,#371,#372,#373,#374,#375,#376,
    #377,#378,#379,#380,#381,#382,#383,#384,#385,#386),.UNSPECIFIED.,.T.
  ,.F.,(7,5,5,5,5,5,5,5,5,5,5,5,5,5,5,5,5,5,5,5,5,7),(0.,
    5.97010949297E-02,0.10776637375,0.16331222334,0.189087743323,
    0.212849053956,0.258213449475,0.302597602853,0.353701275321,
    0.408653961001,0.470929881014,0.525320172892,0.572313864246,
    0.607876395251,0.653367015775,0.684728946017,0.758260241475,
    0.83036377517,0.862295448131,0.891242743394,0.943320654663,1.),
  .UNSPECIFIED.);
#280 = CARTESIAN_POINT('',(-32.75,8.,592.68857754045));
#281 = CARTESIAN_POINT('',(-32.75,8.14515747926,592.59705744449));
#282 = CARTESIAN_POINT('',(-32.7612379645,8.288337785478,592.50399921279
    ));
#283 = CARTESIAN_POINT('',(-32.78313872115,8.428615132757,
    592.41003770839));
#284 = CARTESIAN_POINT('',(-32.81508629793,8.565172106895,
    592.31585923434));
#285 = CARTESIAN_POINT('',(-32.85642115579,8.697286027348,
    592.22218852419));
#286 = CARTESIAN_POINT('',(-32.9467054557,8.926586429303,592.05537430668
    ));
#287 = CARTESIAN_POINT('',(-32.99263358649,9.025646539464,
    591.98172649525));
#288 = CARTESIAN_POINT('',(-33.0439251155,9.121288115176,591.90912584247
    ));
#289 = CARTESIAN_POINT('',(-33.10031074496,9.213317240809,
    591.83787783469));
#290 = CARTESIAN_POINT('',(-33.16154751911,9.301549158752,
    591.76829851274));
#291 = CARTESIAN_POINT('',(-33.30353963422,9.483171331561,
    591.62260909443));
#292 = CARTESIAN_POINT('',(-33.38587765448,9.575263478073,
    591.54713899655));
#293 = CARTESIAN_POINT('',(-33.47409295766,9.661775829095,
    591.47482298908));
#294 = CARTESIAN_POINT('',(-33.56786731175,9.742397463679,
    591.40621413497));
#295 = CARTESIAN_POINT('',(-33.66690076721,9.816800819592,591.3418937673
    ));
#296 = CARTESIAN_POINT('',(-33.81917346759,9.916107742562,
    591.25489042375));
#297 = CARTESIAN_POINT('',(-33.86850299371,9.946164577028,
    591.22837106235));
#298 = CARTESIAN_POINT('',(-33.91885494162,9.974758238595,
    591.20297706881));
#299 = CARTESIAN_POINT('',(-33.97018564906,10.001846083189,
    591.17877519809));
#300 = CARTESIAN_POINT('',(-34.02245073046,10.027386631453,
    591.15583070222));
#301 = CARTESIAN_POINT('',(-34.12460571554,10.073420721083,
    591.11427370109));
#302 = CARTESIAN_POINT('',(-34.17436269557,10.094152803874,
    591.0954624307));
#303 = CARTESIAN_POINT('',(-34.22482736923,10.11349822419,
    591.07782893571));
#304 = CARTESIAN_POINT('',(-34.2759502858,10.131422330719,
    591.06142461958));
#305 = CARTESIAN_POINT('',(-34.32768119167,10.147893413765,
    591.04629687257));
#306 = CARTESIAN_POINT('',(-34.47979543422,10.191499819737,
    591.00612762462));
#307 = CARTESIAN_POINT('',(-34.5816978836,10.214728474793,590.9845649306
    ));
#308 = CARTESIAN_POINT('',(-34.68517845794,10.232317174916,
    590.96814864522));
#309 = CARTESIAN_POINT('',(-34.78973110264,10.24410217264,
    590.95711772705));
#310 = CARTESIAN_POINT('',(-34.89484367663,10.25,590.9515980569));
#311 = CARTESIAN_POINT('',(-35.10288408633,10.25,590.9515980569));
#312 = CARTESIAN_POINT('',(-35.20572875586,10.244354324222,
    590.95688176619));
#313 = CARTESIAN_POINT('',(-35.30804909018,10.233072369576,
    590.96744176296));
#314 = CARTESIAN_POINT('',(-35.40936380727,10.216230931648,
    590.98316250655));
#315 = CARTESIAN_POINT('',(-35.50919709461,10.193980796276,
    591.00382419857));
#316 = CARTESIAN_POINT('',(-35.7197827957,10.134973497115,
    591.05821671404));
#317 = CARTESIAN_POINT('',(-35.82986457589,10.096540148452,
    591.09344352248));
#318 = CARTESIAN_POINT('',(-35.93689033306,10.05154021048,
    591.13436200253));
#319 = CARTESIAN_POINT('',(-36.04043889846,10.000282192474,591.180484201
    ));
#320 = CARTESIAN_POINT('',(-36.14010448339,9.943113460942,
    591.23127034882));
#321 = CARTESIAN_POINT('',(-36.33807588056,9.813040954054,591.3451421672
    ));
#322 = CARTESIAN_POINT('',(-36.43577808816,9.739234912391,
    591.40890261451));
#323 = CARTESIAN_POINT('',(-36.52833033284,9.659360828696,
    591.47683747943));
#324 = CARTESIAN_POINT('',(-36.61544302899,9.573734663684,
    591.54838580608));
#325 = CARTESIAN_POINT('',(-36.69680887573,9.482656406074,
    591.62301379476));
#326 = CARTESIAN_POINT('',(-36.85742615387,9.277357816483,
    591.78771316333));
#327 = CARTESIAN_POINT('',(-36.93500176143,9.161605129092,
    591.87856977619));
#328 = CARTESIAN_POINT('',(-37.00433476955,9.039569545996,
    591.97206836906));
#329 = CARTESIAN_POINT('',(-37.06487640332,8.91166144387,592.06752252067
    ));
#330 = CARTESIAN_POINT('',(-37.11600793465,8.77833102405,592.16427134322
    ));
#331 = CARTESIAN_POINT('',(-37.19285167564,8.519383188863,
    592.34673723367));
#332 = CARTESIAN_POINT('',(-37.22098673939,8.394844844201,
    592.43235802143));
#333 = CARTESIAN_POINT('',(-37.2408676838,8.267096617021,592.51791925916
    ));
#334 = CARTESIAN_POINT('',(-37.25199686137,8.136805072824,
    592.60283887702));
#335 = CARTESIAN_POINT('',(-37.25394170051,8.004703254428,
    592.68657466275));
#336 = CARTESIAN_POINT('',(-37.23975925768,7.75659101089,592.8395307054)
  );
#337 = CARTESIAN_POINT('',(-37.22605518287,7.640864559192,
    592.90915844457));
#338 = CARTESIAN_POINT('',(-37.20500797376,7.525208543831,
    592.97702913436));
#339 = CARTESIAN_POINT('',(-37.17654738187,7.410419824109,
    593.04273332107));
#340 = CARTESIAN_POINT('',(-37.14074614484,7.297287755375,
    593.10593372259));
#341 = CARTESIAN_POINT('',(-37.06533609787,7.102804003869,
    593.21208859219));
#342 = CARTESIAN_POINT('',(-37.0287892112,7.020460170133,593.2562039896)
  );
#343 = CARTESIAN_POINT('',(-36.98828746585,6.939892701775,
    593.29858571551));
#344 = CARTESIAN_POINT('',(-36.94398765025,6.861427557788,
    593.33914042553));
#345 = CARTESIAN_POINT('',(-36.89609559511,6.785368271537,
    593.37779913482));
#346 = CARTESIAN_POINT('',(-36.77933509899,6.618127656923,
    593.46147845589));
#347 = CARTESIAN_POINT('',(-36.70837192033,6.528693691567,
    593.50524151537));
#348 = CARTESIAN_POINT('',(-36.63241833496,6.444111291313,
    593.54578173198));
#349 = CARTESIAN_POINT('',(-36.55197284442,6.36474775754,593.58311232773
    ));
#350 = CARTESIAN_POINT('',(-36.46759035219,6.290904033747,
    593.61727315457));
#351 = CARTESIAN_POINT('',(-36.31941396397,6.175854342286,
    593.66972880519));
#352 = CARTESIAN_POINT('',(-36.25733823575,6.131613551945,
    593.68966572285));
#353 = CARTESIAN_POINT('',(-36.19380423527,6.090122026945,
    593.70816754845));
#354 = CARTESIAN_POINT('',(-36.12896133941,6.051412356566,
    593.72526696988));
#355 = CARTESIAN_POINT('',(-36.0629585534,6.015509053937,593.74099531087
    ));
#356 = CARTESIAN_POINT('',(-35.8388231432,5.904867900623,593.78911485924
    ));
#357 = CARTESIAN_POINT('',(-35.67620985497,5.842857535828,
    593.81546025932));
#358 = CARTESIAN_POINT('',(-35.50965634167,5.796397841092,
    593.83489372534));
#359 = CARTESIAN_POINT('',(-35.34056336271,5.765458175475,
    593.84773548359));
#360 = CARTESIAN_POINT('',(-35.17024618055,5.75,593.85415100249));
#361 = CARTESIAN_POINT('',(-34.83305950017,5.75,593.85415100249));
#362 = CARTESIAN_POINT('',(-34.6660547767,5.764863694514,593.84798220088
    ));
#363 = CARTESIAN_POINT('',(-34.50020473554,5.7946117251,593.83563506194)
  );
#364 = CARTESIAN_POINT('',(-34.33674621188,5.839280180304,
    593.81695640835));
#365 = CARTESIAN_POINT('',(-34.17699407814,5.898899880759,
    593.79164928425));
#366 = CARTESIAN_POINT('',(-33.95393862726,6.006502194425,
    593.74493462057));
#367 = CARTESIAN_POINT('',(-33.88649877913,6.042456709822,
    593.72921228994));
#368 = CARTESIAN_POINT('',(-33.82023714768,6.081323318693,
    593.71207435796));
#369 = CARTESIAN_POINT('',(-33.75530971968,6.123077683547,
    593.69348773497));
#370 = CARTESIAN_POINT('',(-33.69187312855,6.167687021165,
    593.67341771011));
#371 = CARTESIAN_POINT('',(-33.57407101524,6.258100958184,
    593.63225600082));
#372 = CARTESIAN_POINT('',(-33.51941000622,6.303405798498,
    593.61143466473));
#373 = CARTESIAN_POINT('',(-33.46624527717,6.350973603705,
    593.58934571031));
#374 = CARTESIAN_POINT('',(-33.41471430138,6.40074344828,593.56597367326
    ));
#375 = CARTESIAN_POINT('',(-33.36494837552,6.452644501011,
    593.54130585779));
#376 = CARTESIAN_POINT('',(-33.23094127846,6.603658035582,
    593.46860442217));
#377 = CARTESIAN_POINT('',(-33.1508678612,6.707424663934,593.41761850181
    ));
#378 = CARTESIAN_POINT('',(-33.07779925112,6.817216891122,
    593.36241812761));
#379 = CARTESIAN_POINT('',(-33.01249135006,6.932193234454,
    593.30313126456));
#380 = CARTESIAN_POINT('',(-32.95550012072,7.051399723729,
    593.23998463231));
#381 = CARTESIAN_POINT('',(-32.85457507784,7.307056676006,
    593.10076101989));
#382 = CARTESIAN_POINT('',(-32.81233561162,7.44385741782,593.02416650217
    ));
#383 = CARTESIAN_POINT('',(-32.78081929138,7.582917224022,
    592.94398291399));
#384 = CARTESIAN_POINT('',(-32.76010811074,7.722864051476,
    592.86080361252));
#385 = CARTESIAN_POINT('',(-32.75,7.862331539307,592.77537589763));
#386 = CARTESIAN_POINT('',(-32.75,8.,592.68857754045));
#387 = FACE_BOUND('',#388,.T.);
#388 = EDGE_LOOP('',(#389));
#389 = ORIENTED_EDGE('',*,*,#390,.T.);
#390 = EDGE_CURVE('',#391,#391,#393,.T.);
#391 = VERTEX_POINT('',#392);
#392 = CARTESIAN_POINT('',(-32.75,8.,567.31142245955));
#393 = B_SPLINE_CURVE_WITH_KNOTS('',6,(#394,#395,#396,#397,#398,#399,
    #400,#401,#402,#403,#404,#405,#406,#407,#408,#409,#410,#411,#412,
    #413,#414,#415,#416,#417,#418,#419,#420,#421,#422,#423,#424,#425,
    #426,#427,#428,#429,#430,#431,#432,#433,#434,#435,#436,#437,#438,
    #439,#440,#441,#442,#443,#444,#445,#446,#447,#448,#449,#450,#451,
    #452,#453,#454,#455,#456,#457,#458,#459,#460,#461,#462,#463,#464,
    #465,#466,#467,#468,#469,#470,#471,#472,#473,#474,#475,#476,#477,
    #478,#479,#480,#481,#482,#483,#484,#485,#486,#487,#488,#489,#490,
    #491,#492,#493,#494,#495,#496,#497,#498,#499,#500),.UNSPECIFIED.,.T.
  ,.F.,(7,5,5,5,5,5,5,5,5,5,5,5,5,5,5,5,5,5,5,5,5,7),(0.,
    5.970109312321E-02,0.107766370464,0.163312218344,0.189087740036,
    0.212849054524,0.258213457403,0.302597617983,0.353701298735,
    0.408653993316,0.470929924883,0.525320225294,0.572313924021,
    0.607876460604,0.653367088282,0.684729019382,0.758260303669,
    0.830363833448,0.862295498933,0.891242783515,0.943320675567,1.),
  .UNSPECIFIED.);
#394 = CARTESIAN_POINT('',(-32.75,8.,567.31142245955));
#395 = CARTESIAN_POINT('',(-32.75,8.145157479183,567.40294255546));
#396 = CARTESIAN_POINT('',(-32.76123796449,8.288337785501,
    567.49600078721));
#397 = CARTESIAN_POINT('',(-32.78313872116,8.428615132828,
    567.58996229164));
#398 = CARTESIAN_POINT('',(-32.81508629795,8.565172106909,
    567.68414076567));
#399 = CARTESIAN_POINT('',(-32.85642115576,8.697286027281,
    567.77781147575));
#400 = CARTESIAN_POINT('',(-32.9467054557,8.926586429303,567.94462569331
    ));
#401 = CARTESIAN_POINT('',(-32.99263358649,9.025646539464,
    568.01827350474));
#402 = CARTESIAN_POINT('',(-33.0439251155,9.121288115176,568.09087415752
    ));
#403 = CARTESIAN_POINT('',(-33.10031074496,9.213317240809,568.1621221653
    ));
#404 = CARTESIAN_POINT('',(-33.16154751911,9.301549158752,
    568.23170148725));
#405 = CARTESIAN_POINT('',(-33.30353963422,9.483171331561,
    568.37739090556));
#406 = CARTESIAN_POINT('',(-33.38587765448,9.575263478073,
    568.45286100344));
#407 = CARTESIAN_POINT('',(-33.47409295766,9.661775829095,
    568.52517701091));
#408 = CARTESIAN_POINT('',(-33.56786731175,9.742397463679,
    568.59378586502));
#409 = CARTESIAN_POINT('',(-33.66690076721,9.816800819592,
    568.65810623269));
#410 = CARTESIAN_POINT('',(-33.81917347228,9.916107745618,
    568.74510957892));
#411 = CARTESIAN_POINT('',(-33.86850299224,9.946164576618,
    568.77162893725));
#412 = CARTESIAN_POINT('',(-33.91885493672,9.974758235918,
    568.79702292881));
#413 = CARTESIAN_POINT('',(-33.97018564791,10.001846082172,
    568.82122480102));
#414 = CARTESIAN_POINT('',(-34.02245073556,10.027386633751,
    568.84416929984));
#415 = CARTESIAN_POINT('',(-34.12460571554,10.073420721083,
    568.8857262989));
#416 = CARTESIAN_POINT('',(-34.17436269557,10.094152803874,
    568.90453756929));
#417 = CARTESIAN_POINT('',(-34.22482736923,10.11349822419,
    568.92217106428));
#418 = CARTESIAN_POINT('',(-34.2759502858,10.131422330719,
    568.93857538041));
#419 = CARTESIAN_POINT('',(-34.32768119167,10.147893413765,
    568.95370312742));
#420 = CARTESIAN_POINT('',(-34.47979543422,10.191499819737,
    568.99387237538));
#421 = CARTESIAN_POINT('',(-34.5816978836,10.214728474793,
    569.01543506939));
#422 = CARTESIAN_POINT('',(-34.68517845794,10.232317174916,
    569.03185135477));
#423 = CARTESIAN_POINT('',(-34.78973110264,10.24410217264,
    569.04288227294));
#424 = CARTESIAN_POINT('',(-34.89484367663,10.25,569.04840194309));
#425 = CARTESIAN_POINT('',(-35.10288408633,10.25,569.04840194309));
#426 = CARTESIAN_POINT('',(-35.20572875586,10.244354324222,
    569.0431182338));
#427 = CARTESIAN_POINT('',(-35.30804909018,10.233072369576,
    569.03255823703));
#428 = CARTESIAN_POINT('',(-35.40936380727,10.216230931648,
    569.01683749344));
#429 = CARTESIAN_POINT('',(-35.50919709461,10.193980796276,
    568.99617580143));
#430 = CARTESIAN_POINT('',(-35.71978279569,10.134973497119,
    568.94178328595));
#431 = CARTESIAN_POINT('',(-35.8298645759,10.096540148453,
    568.90655647751));
#432 = CARTESIAN_POINT('',(-35.93689033308,10.051540210473,
    568.86563799746));
#433 = CARTESIAN_POINT('',(-36.04043889846,10.00028219247,
    568.81951579899));
#434 = CARTESIAN_POINT('',(-36.14010448338,9.943113460951,
    568.76872965118));
#435 = CARTESIAN_POINT('',(-36.33807588056,9.813040954054,
    568.65485783279));
#436 = CARTESIAN_POINT('',(-36.43577808816,9.739234912391,
    568.59109738548));
#437 = CARTESIAN_POINT('',(-36.52833033284,9.659360828696,
    568.52316252056));
#438 = CARTESIAN_POINT('',(-36.61544302899,9.573734663684,
    568.45161419391));
#439 = CARTESIAN_POINT('',(-36.69680887573,9.482656406074,
    568.37698620524));
#440 = CARTESIAN_POINT('',(-36.85742615588,9.277357813913,568.2122868346
    ));
#441 = CARTESIAN_POINT('',(-36.93500175871,9.161605134072,
    568.12143022756));
#442 = CARTESIAN_POINT('',(-37.00433476918,9.039569545327,
    568.02793163057));
#443 = CARTESIAN_POINT('',(-37.06487640588,8.91166143856,567.93247747537
    ));
#444 = CARTESIAN_POINT('',(-37.11600793347,8.778331028021,
    567.83572865957));
#445 = CARTESIAN_POINT('',(-37.19285167565,8.519383188854,
    567.65326276632));
#446 = CARTESIAN_POINT('',(-37.22098673939,8.394844844203,
    567.56764197857));
#447 = CARTESIAN_POINT('',(-37.2408676838,8.267096617031,567.48208074083
    ));
#448 = CARTESIAN_POINT('',(-37.25199686137,8.136805072827,
    567.39716112298));
#449 = CARTESIAN_POINT('',(-37.25394170051,8.004703254418,
    567.31342533723));
#450 = CARTESIAN_POINT('',(-37.23975925768,7.756591010895,
    567.16046929459));
#451 = CARTESIAN_POINT('',(-37.22605518287,7.640864559191,
    567.09084155542));
#452 = CARTESIAN_POINT('',(-37.20500797376,7.525208543826,
    567.02297086563));
#453 = CARTESIAN_POINT('',(-37.17654738187,7.410419824108,
    566.95726667892));
#454 = CARTESIAN_POINT('',(-37.14074614485,7.29728775538,566.89406627741
    ));
#455 = CARTESIAN_POINT('',(-37.06533609787,7.102804003869,566.7879114078
    ));
#456 = CARTESIAN_POINT('',(-37.0287892112,7.020460170133,566.74379601039
    ));
#457 = CARTESIAN_POINT('',(-36.98828746585,6.939892701775,
    566.70141428448));
#458 = CARTESIAN_POINT('',(-36.94398765025,6.861427557788,
    566.66085957446));
#459 = CARTESIAN_POINT('',(-36.89609559511,6.785368271537,
    566.62220086517));
#460 = CARTESIAN_POINT('',(-36.77933509896,6.618127656884,
    566.53852154408));
#461 = CARTESIAN_POINT('',(-36.70837192034,6.528693691587,
    566.49475848463));
#462 = CARTESIAN_POINT('',(-36.632418335,6.444111291352,566.45421826803)
  );
#463 = CARTESIAN_POINT('',(-36.55197284443,6.364747757543,
    566.41688767227));
#464 = CARTESIAN_POINT('',(-36.46759035215,6.290904033714,
    566.38272684541));
#465 = CARTESIAN_POINT('',(-36.31941397185,6.175854348408,
    566.33027119759));
#466 = CARTESIAN_POINT('',(-36.25733823334,6.131613551364,
    566.31033427692));
#467 = CARTESIAN_POINT('',(-36.19380422709,6.090122021813,
    566.29183244925));
#468 = CARTESIAN_POINT('',(-36.12896133744,6.051412354417,
    566.27473302911));
#469 = CARTESIAN_POINT('',(-36.06295856183,6.0155090581,566.25900469093)
  );
#470 = CARTESIAN_POINT('',(-35.8388231516,5.904867904769,566.21088514255
    ));
#471 = CARTESIAN_POINT('',(-35.67620984125,5.84285753209,566.18453973905
    ));
#472 = CARTESIAN_POINT('',(-35.50965634172,5.796397839165,
    566.16510627382));
#473 = CARTESIAN_POINT('',(-35.34056337644,5.765458178302,
    566.15226451762));
#474 = CARTESIAN_POINT('',(-35.17024617203,5.75,566.1458489975));
#475 = CARTESIAN_POINT('',(-34.83305949223,5.75,566.1458489975));
#476 = CARTESIAN_POINT('',(-34.66605478932,5.764863691992,
    566.15201779802));
#477 = CARTESIAN_POINT('',(-34.50020473566,5.794611726815,
    566.16436493879));
#478 = CARTESIAN_POINT('',(-34.33674619931,5.839280183636,
    566.18304359308));
#479 = CARTESIAN_POINT('',(-34.17699408579,5.898899877067,
    566.20835071414));
#480 = CARTESIAN_POINT('',(-33.95393863618,6.006502190122,
    566.25506537755));
#481 = CARTESIAN_POINT('',(-33.88649877705,6.04245671208,566.2707877111)
  );
#482 = CARTESIAN_POINT('',(-33.82023713903,6.081323324034,
    566.28792564442));
#483 = CARTESIAN_POINT('',(-33.75530971713,6.12307768413,566.30651226524
    ));
#484 = CARTESIAN_POINT('',(-33.69187313689,6.167687014768,
    566.32658228697));
#485 = CARTESIAN_POINT('',(-33.57407101525,6.258100958184,
    566.36774399917));
#486 = CARTESIAN_POINT('',(-33.51941000622,6.303405798498,
    566.38856533526));
#487 = CARTESIAN_POINT('',(-33.46624527717,6.350973603705,
    566.41065428968));
#488 = CARTESIAN_POINT('',(-33.41471430138,6.40074344828,566.43402632673
    ));
#489 = CARTESIAN_POINT('',(-33.36494837552,6.452644501011,566.4586941422
    ));
#490 = CARTESIAN_POINT('',(-33.23094127846,6.603658035583,
    566.53139557782));
#491 = CARTESIAN_POINT('',(-33.1508678612,6.707424663934,566.58238149818
    ));
#492 = CARTESIAN_POINT('',(-33.07779925112,6.817216891122,
    566.63758187238));
#493 = CARTESIAN_POINT('',(-33.01249135006,6.932193234454,
    566.69686873543));
#494 = CARTESIAN_POINT('',(-32.95550012072,7.051399723728,
    566.76001536768));
#495 = CARTESIAN_POINT('',(-32.85457507783,7.307056676033,
    566.89923898012));
#496 = CARTESIAN_POINT('',(-32.81233561163,7.443857417814,
    566.97583349782));
#497 = CARTESIAN_POINT('',(-32.78081929139,7.582917223993,
    567.05601708599));
#498 = CARTESIAN_POINT('',(-32.76010811074,7.722864051467,
    567.13919638746));
#499 = CARTESIAN_POINT('',(-32.75,7.862331539336,567.22462410238));
#500 = CARTESIAN_POINT('',(-32.75,8.,567.31142245955));
#501 = FACE_BOUND('',#502,.T.);
#502 = EDGE_LOOP('',(#503));
#503 = ORIENTED_EDGE('',*,*,#504,.T.);
#504 = EDGE_CURVE('',#505,#505,#507,.T.);
#505 = VERTEX_POINT('',#506);
#506 = CARTESIAN_POINT('',(-52.75,-8.,567.31142245955));
#507 = B_SPLINE_CURVE_WITH_KNOTS('',6,(#508,#509,#510,#511,#512,#513,
    #514,#515,#516,#517,#518,#519,#520,#521,#522,#523,#524,#525,#526,
    #527,#528,#529,#530,#531,#532,#533,#534,#535,#536,#537,#538,#539,
    #540,#541,#542,#543,#544,#545,#546,#547,#548,#549,#550,#551,#552,
    #553,#554,#555,#556,#557,#558,#559,#560,#561,#562,#563,#564,#565,
    #566,#567,#568,#569,#570,#571,#572,#573,#574,#575,#576,#577,#578,
    #579,#580,#581,#582,#583,#584,#585,#586,#587,#588,#589,#590,#591,
    #592,#593,#594,#595,#596,#597,#598,#599,#600,#601,#602,#603,#604,
    #605,#606,#607,#608,#609,#610,#611,#612,#613,#614),.UNSPECIFIED.,.T.
  ,.F.,(7,5,5,5,5,5,5,5,5,5,5,5,5,5,5,5,5,5,5,5,5,7),(0.,
    5.654988173352E-02,9.180300348858E-02,0.137168752049,0.169379003402,
    0.241729668655,0.292494117466,0.34577476687,0.391430445012,
    0.426780729586,0.475326455912,0.529754872394,0.590799173554,
    0.647524100292,0.696976925261,0.741782505971,0.787018082966,
    0.811582126773,0.837256031027,0.892172727905,0.942309663373,1.),
  .UNSPECIFIED.);
#508 = CARTESIAN_POINT('',(-52.75,-8.,567.31142245955));
#509 = CARTESIAN_POINT('',(-52.75,-7.86265198811,567.22482614159));
#510 = CARTESIAN_POINT('',(-52.76006110752,-7.723514584587,
    567.1395948935));
#511 = CARTESIAN_POINT('',(-52.78067449033,-7.583897441024,
    567.05659975279));
#512 = CARTESIAN_POINT('',(-52.8120415191,-7.445156546905,
    566.97658266647));
#513 = CARTESIAN_POINT('',(-52.85408245828,-7.308653701714,
    566.90013325475));
#514 = CARTESIAN_POINT('',(-52.93907543621,-7.092791984627,
    566.78254138832));
#515 = CARTESIAN_POINT('',(-52.97569597072,-7.011338322783,
    566.73898077063));
#516 = CARTESIAN_POINT('',(-53.01619081802,-6.931656049331,
    566.69713154311));
#517 = CARTESIAN_POINT('',(-53.06040476901,-6.854060870287,
    566.65708290028));
#518 = CARTESIAN_POINT('',(-53.10813552851,-6.778846642769,
    566.61890065736));
#519 = CARTESIAN_POINT('',(-53.22476092943,-6.612897437763,
    566.53595579582));
#520 = CARTESIAN_POINT('',(-53.2957668101,-6.523945185109,
    566.49247042015));
#521 = CARTESIAN_POINT('',(-53.37171233019,-6.439835565686,
    566.45219136202));
#522 = CARTESIAN_POINT('',(-53.45210420898,-6.360926572028,
    566.4151025575));
#523 = CARTESIAN_POINT('',(-53.53639530788,-6.287511455184,
    566.38116248719));
#524 = CARTESIAN_POINT('',(-53.68617496954,-6.171737953178,
    566.32840751114));
#525 = CARTESIAN_POINT('',(-53.75005310014,-6.126527436718,
    566.30805168699));
#526 = CARTESIAN_POINT('',(-53.81545778675,-6.084219717473,
    566.28920719959));
#527 = CARTESIAN_POINT('',(-53.88222790183,-6.044849081904,
    566.27183849192));
#528 = CARTESIAN_POINT('',(-53.95020290523,-6.008440986281,
    566.2559116286));
#529 = CARTESIAN_POINT('',(-54.17425542815,-5.899923996384,
    566.20878546357));
#530 = CARTESIAN_POINT('',(-54.33450388194,-5.839894061662,
    566.18330030216));
#531 = CARTESIAN_POINT('',(-54.4984984641,-5.794918238438,
    566.16449215802));
#532 = CARTESIAN_POINT('',(-54.66490974066,-5.764965717698,
    566.15206014007));
#533 = CARTESIAN_POINT('',(-54.83248755537,-5.75,566.1458489975));
#534 = CARTESIAN_POINT('',(-55.11753419116,-5.75,566.1458489975));
#535 = CARTESIAN_POINT('',(-55.23507561728,-5.757367358876,
    566.14890669331));
#536 = CARTESIAN_POINT('',(-55.3522157902,-5.772105021544,
    566.15502349216));
#537 = CARTESIAN_POINT('',(-55.46853337832,-5.794222501982,
    566.16423742503));
#538 = CARTESIAN_POINT('',(-55.58359221112,-5.823734580375,
    566.17662397729));
#539 = CARTESIAN_POINT('',(-55.8159045399,-5.899415672713,
    566.20874670966));
#540 = CARTESIAN_POINT('',(-55.93303313048,-5.946353978098,
    566.22882372836));
#541 = CARTESIAN_POINT('',(-56.04767447958,-6.001470850054,
    566.25264871477));
#542 = CARTESIAN_POINT('',(-56.15916137914,-6.064712265622,
    566.28036677622));
#543 = CARTESIAN_POINT('',(-56.2668092405,-6.135975453549,566.3121453306
    ));
#544 = CARTESIAN_POINT('',(-56.45826597952,-6.282919825409,
    566.37904299832));
#545 = CARTESIAN_POINT('',(-56.54330411558,-6.356526723613,
    566.41304117876));
#546 = CARTESIAN_POINT('',(-56.62441457723,-6.435710876545,
    566.45022753856));
#547 = CARTESIAN_POINT('',(-56.70103722698,-6.520174506743,
    566.49064479466));
#548 = CARTESIAN_POINT('',(-56.77266748176,-6.609552920686,
    566.53430947434));
#549 = CARTESIAN_POINT('',(-56.89010592444,-6.776109083733,
    566.61751342338));
#550 = CARTESIAN_POINT('',(-56.93807553595,-6.851461985592,
    566.65574665813));
#551 = CARTESIAN_POINT('',(-56.98251338188,-6.929215827383,
    566.69585814647));
#552 = CARTESIAN_POINT('',(-57.02321480508,-7.009074845817,
    566.73778199283));
#553 = CARTESIAN_POINT('',(-57.06002268842,-7.090721124685,
    566.78142870082));
#554 = CARTESIAN_POINT('',(-57.13787728131,-7.28793746834,
    566.88882719535));
#555 = CARTESIAN_POINT('',(-57.17534330288,-7.404708379114,
    566.95395524367));
#556 = CARTESIAN_POINT('',(-57.20497744704,-7.52328627311,
    567.02177297705));
#557 = CARTESIAN_POINT('',(-57.2266951298,-7.642800675126,
    567.09191054241));
#558 = CARTESIAN_POINT('',(-57.24057482184,-7.762372284817,
    567.1639158138));
#559 = CARTESIAN_POINT('',(-57.25390192332,-8.014274949968,
    567.31946826464));
#560 = CARTESIAN_POINT('',(-57.25139539162,-8.146367530231,
    567.4033390924));
#561 = CARTESIAN_POINT('',(-57.23971307721,-8.276605993108,
    567.48836635625));
#562 = CARTESIAN_POINT('',(-57.2192913411,-8.404263072259,
    567.57400799087));
#563 = CARTESIAN_POINT('',(-57.19062952662,-8.528678260571,
    567.65968288725));
#564 = CARTESIAN_POINT('',(-57.1135366285,-8.784481293962,
    567.84021858178));
#565 = CARTESIAN_POINT('',(-57.06309480807,-8.914983539017,
    567.93500457497));
#566 = CARTESIAN_POINT('',(-57.00362549198,-9.040264784926,
    568.02853016402));
#567 = CARTESIAN_POINT('',(-56.93571069007,-9.159901782332,
    568.12017287057));
#568 = CARTESIAN_POINT('',(-56.85986763243,-9.27350785571,
    568.20928661862));
#569 = CARTESIAN_POINT('',(-56.69914971066,-9.480305468453,
    568.37502248234));
#570 = CARTESIAN_POINT('',(-56.6152513124,-9.574427812706,
    568.45212622767));
#571 = CARTESIAN_POINT('',(-56.52522705478,-9.662742723957,
    568.52595311208));
#572 = CARTESIAN_POINT('',(-56.42941545101,-9.744919974751,
    568.59591534692));
#573 = CARTESIAN_POINT('',(-56.32813518544,-9.820611231057,
    568.66139450033));
#574 = CARTESIAN_POINT('',(-56.12888661122,-9.949442876649,
    568.77436169894));
#575 = CARTESIAN_POINT('',(-56.03211514081,-10.00425756357,
    568.82310415193));
#576 = CARTESIAN_POINT('',(-55.93172868146,-10.05351846307,
    568.86744860578));
#577 = CARTESIAN_POINT('',(-55.82809718086,-10.09691049541,
    568.90690648756));
#578 = CARTESIAN_POINT('',(-55.72160415453,-10.13415323894,
    568.94103548578));
#579 = CARTESIAN_POINT('',(-55.5139265357,-10.19292165636,
    568.99519235881));
#580 = CARTESIAN_POINT('',(-55.41320345099,-10.21558962975,
    569.01623886822));
#581 = CARTESIAN_POINT('',(-55.31095772564,-10.23275010222,
    569.0322565864));
#582 = CARTESIAN_POINT('',(-55.20767821099,-10.2442467568,
    569.04301757308));
#583 = CARTESIAN_POINT('',(-55.10385949313,-10.25,569.04840194309));
#584 = CARTESIAN_POINT('',(-54.89514377397,-10.25,569.04840194309));
#585 = CARTESIAN_POINT('',(-54.79033071126,-10.24413579042,
    569.04291373201));
#586 = CARTESIAN_POINT('',(-54.68607279018,-10.23241785588,
    569.03194559514));
#587 = CARTESIAN_POINT('',(-54.58287800509,-10.2149287602,
    569.01562201014));
#588 = CARTESIAN_POINT('',(-54.4812483483,-10.19183049423,
    568.99417933786));
#589 = CARTESIAN_POINT('',(-54.32760850261,-10.14791805737,
    568.95372458201));
#590 = CARTESIAN_POINT('',(-54.27413346618,-10.13088013565,
    568.93807610546));
#591 = CARTESIAN_POINT('',(-54.22130891961,-10.11228975613,
    568.92106391987));
#592 = CARTESIAN_POINT('',(-54.16919018329,-10.09218194633,
    568.90274040273));
#593 = CARTESIAN_POINT('',(-54.11783166111,-10.07059506366,
    568.88316247262));
#594 = CARTESIAN_POINT('',(-54.01445828772,-10.02350623728,
    568.84068222916));
#595 = CARTESIAN_POINT('',(-53.9625173239,-9.997871085973,
    568.81766902142));
#596 = CARTESIAN_POINT('',(-53.91150811992,-9.970705176983,
    568.79341503702));
#597 = CARTESIAN_POINT('',(-53.86147414308,-9.94204942942,568.7679847426
    ));
#598 = CARTESIAN_POINT('',(-53.81245815702,-9.911945845978,
    568.74144400046));
#599 = CARTESIAN_POINT('',(-53.66192407348,-9.813040923864,
    568.65485780636));
#600 = CARTESIAN_POINT('',(-53.56422184185,-9.739234856614,
    568.59109733757));
#601 = CARTESIAN_POINT('',(-53.47166960257,-9.659360768708,
    568.52316246998));
#602 = CARTESIAN_POINT('',(-53.3845569256,-9.573734613464,
    568.45161415263));
#603 = CARTESIAN_POINT('',(-53.303191097,-9.482656371232,568.37698617728
    ));
#604 = CARTESIAN_POINT('',(-53.15916072138,-9.298558911009,
    568.2292952676));
#605 = CARTESIAN_POINT('',(-53.09546150595,-9.206368678458,
    568.15663755527));
#606 = CARTESIAN_POINT('',(-53.03704943112,-9.110053551158,
    568.08217721555));
#607 = CARTESIAN_POINT('',(-52.9842019548,-9.009824240325,
    568.00627322582));
#608 = CARTESIAN_POINT('',(-52.93722757614,-8.905903084047,
    567.92927232004));
#609 = CARTESIAN_POINT('',(-52.84956595633,-8.674979785394,
    567.76202642988));
#610 = CARTESIAN_POINT('',(-52.8108504185,-8.546747606892,
    567.67145301986));
#611 = CARTESIAN_POINT('',(-52.78096039693,-8.414426088227,
    567.58046755063));
#612 = CARTESIAN_POINT('',(-52.76049201625,-8.278680006546,
    567.4897268408));
#613 = CARTESIAN_POINT('',(-52.75,-8.140257225967,567.39985300301));
#614 = CARTESIAN_POINT('',(-52.75,-8.,567.31142245955));
#615 = FACE_BOUND('',#616,.T.);
#616 = EDGE_LOOP('',(#617));
#617 = ORIENTED_EDGE('',*,*,#618,.F.);
#618 = EDGE_CURVE('',#619,#619,#621,.T.);
#619 = VERTEX_POINT('',#620);
#620 = CARTESIAN_POINT('',(-52.75,-8.,592.68857754045));
#621 = B_SPLINE_CURVE_WITH_KNOTS('',6,(#622,#623,#624,#625,#626,#627,
    #628,#629,#630,#631,#632,#633,#634,#635,#636,#637,#638,#639,#640,
    #641,#642,#643,#644,#645,#646,#647,#648,#649,#650,#651,#652,#653,
    #654,#655,#656,#657,#658,#659,#660,#661,#662,#663,#664,#665,#666,
    #667,#668,#669,#670,#671,#672,#673,#674,#675,#676,#677,#678,#679,
    #680,#681,#682,#683,#684,#685,#686,#687,#688,#689,#690,#691,#692,
    #693,#694,#695,#696,#697,#698,#699,#700,#701,#702,#703,#704,#705,
    #706,#707,#708,#709,#710,#711,#712,#713,#714,#715,#716,#717,#718,
    #719,#720,#721,#722,#723,#724,#725,#726,#727,#728),.UNSPECIFIED.,.T.
  ,.F.,(7,5,5,5,5,5,5,5,5,5,5,5,5,5,5,5,5,5,5,5,5,7),(0.,
    5.654987459383E-02,9.180299189802E-02,0.137168734731,0.169378983802,
    0.241729651419,0.292494099449,0.345774748033,0.391430425472,
    0.426780709503,0.475326435082,0.529754850723,0.590799149296,
    0.647524074868,0.696976898821,0.741782478573,0.787018054564,
    0.811582097826,0.837256003919,0.892172709945,0.942309653763,1.),
  .UNSPECIFIED.);
#622 = CARTESIAN_POINT('',(-52.75,-8.,592.68857754045));
#623 = CARTESIAN_POINT('',(-52.75,-7.86265198811,592.7751738584));
#624 = CARTESIAN_POINT('',(-52.76006110752,-7.723514584587,
    592.86040510649));
#625 = CARTESIAN_POINT('',(-52.78067449033,-7.583897441024,
    592.9434002472));
#626 = CARTESIAN_POINT('',(-52.8120415191,-7.445156546905,
    593.02341733352));
#627 = CARTESIAN_POINT('',(-52.85408245828,-7.308653701714,
    593.09986674524));
#628 = CARTESIAN_POINT('',(-52.93907543621,-7.092791984627,
    593.21745861168));
#629 = CARTESIAN_POINT('',(-52.97569597072,-7.011338322783,
    593.26101922936));
#630 = CARTESIAN_POINT('',(-53.01619081802,-6.931656049331,
    593.30286845689));
#631 = CARTESIAN_POINT('',(-53.06040476901,-6.854060870287,
    593.34291709971));
#632 = CARTESIAN_POINT('',(-53.10813552851,-6.778846642769,
    593.38109934263));
#633 = CARTESIAN_POINT('',(-53.22476092943,-6.612897437763,
    593.46404420417));
#634 = CARTESIAN_POINT('',(-53.2957668101,-6.523945185109,
    593.50752957985));
#635 = CARTESIAN_POINT('',(-53.37171233019,-6.439835565686,
    593.54780863797));
#636 = CARTESIAN_POINT('',(-53.45210420898,-6.360926572028,
    593.5848974425));
#637 = CARTESIAN_POINT('',(-53.53639530788,-6.287511455184,
    593.6188375128));
#638 = CARTESIAN_POINT('',(-53.68617497299,-6.171737950515,
    593.67159249006));
#639 = CARTESIAN_POINT('',(-53.75005309909,-6.126527436958,
    593.69194831291));
#640 = CARTESIAN_POINT('',(-53.81545778317,-6.084219719693,
    593.71079279941));
#641 = CARTESIAN_POINT('',(-53.88222790097,-6.044849082846,
    593.72816150763));
#642 = CARTESIAN_POINT('',(-53.95020290892,-6.008440984495,
    593.74408837216));
#643 = CARTESIAN_POINT('',(-54.17425543592,-5.899923992621,
    593.79121453805));
#644 = CARTESIAN_POINT('',(-54.33450386919,-5.839894065055,
    593.81669969636));
#645 = CARTESIAN_POINT('',(-54.49849846422,-5.794918240186,
    593.83550784121));
#646 = CARTESIAN_POINT('',(-54.66490975345,-5.76496571513,
    593.84793986103));
#647 = CARTESIAN_POINT('',(-54.83248754731,-5.75,593.85415100249));
#648 = CARTESIAN_POINT('',(-55.11753419116,-5.75,593.85415100249));
#649 = CARTESIAN_POINT('',(-55.23507561728,-5.757367358876,
    593.85109330668));
#650 = CARTESIAN_POINT('',(-55.35221579021,-5.772105021544,
    593.84497650783));
#651 = CARTESIAN_POINT('',(-55.46853337832,-5.794222501982,
    593.83576257496));
#652 = CARTESIAN_POINT('',(-55.58359221112,-5.823734580375,
    593.8233760227));
#653 = CARTESIAN_POINT('',(-55.8159045399,-5.899415672714,
    593.79125329033));
#654 = CARTESIAN_POINT('',(-55.93303313048,-5.946353978098,
    593.77117627163));
#655 = CARTESIAN_POINT('',(-56.04767447958,-6.001470850054,
    593.74735128522));
#656 = CARTESIAN_POINT('',(-56.15916137914,-6.064712265622,
    593.71963322377));
#657 = CARTESIAN_POINT('',(-56.2668092405,-6.135975453549,
    593.68785466939));
#658 = CARTESIAN_POINT('',(-56.45826597952,-6.282919825409,
    593.62095700167));
#659 = CARTESIAN_POINT('',(-56.54330411558,-6.356526723612,
    593.58695882123));
#660 = CARTESIAN_POINT('',(-56.62441457723,-6.435710876545,
    593.54977246143));
#661 = CARTESIAN_POINT('',(-56.70103722698,-6.520174506743,
    593.50935520533));
#662 = CARTESIAN_POINT('',(-56.77266748176,-6.609552920686,
    593.46569052566));
#663 = CARTESIAN_POINT('',(-56.89010592444,-6.776109083733,
    593.38248657661));
#664 = CARTESIAN_POINT('',(-56.93807553595,-6.851461985592,
    593.34425334186));
#665 = CARTESIAN_POINT('',(-56.98251338188,-6.929215827383,
    593.30414185352));
#666 = CARTESIAN_POINT('',(-57.02321480508,-7.009074845817,
    593.26221800716));
#667 = CARTESIAN_POINT('',(-57.06002268842,-7.090721124685,
    593.21857129918));
#668 = CARTESIAN_POINT('',(-57.13787728131,-7.28793746834,
    593.11117280464));
#669 = CARTESIAN_POINT('',(-57.17534330288,-7.404708379115,
    593.04604475632));
#670 = CARTESIAN_POINT('',(-57.20497744704,-7.52328627311,
    592.97822702294));
#671 = CARTESIAN_POINT('',(-57.2266951298,-7.642800675126,
    592.90808945758));
#672 = CARTESIAN_POINT('',(-57.24057482184,-7.762372284817,
    592.83608418619));
#673 = CARTESIAN_POINT('',(-57.25390192332,-8.014274949958,
    592.68053173535));
#674 = CARTESIAN_POINT('',(-57.25139539162,-8.146367530234,
    592.59666090758));
#675 = CARTESIAN_POINT('',(-57.23971307721,-8.276605993117,
    592.51163364373));
#676 = CARTESIAN_POINT('',(-57.2192913411,-8.404263072261,
    592.42599200912));
#677 = CARTESIAN_POINT('',(-57.19062952662,-8.528678260562,
    592.34031711274));
#678 = CARTESIAN_POINT('',(-57.11353662959,-8.784481290332,
    592.15978142077));
#679 = CARTESIAN_POINT('',(-57.06309480572,-8.914983543859,
    592.06499542142));
#680 = CARTESIAN_POINT('',(-57.0036254923,-9.040264785542,
    591.97146983563));
#681 = CARTESIAN_POINT('',(-56.93571069255,-9.159901777795,
    591.87982713285));
#682 = CARTESIAN_POINT('',(-56.85986763061,-9.27350785805,
    591.79071337949));
#683 = CARTESIAN_POINT('',(-56.69914971066,-9.480305468453,
    591.62497751765));
#684 = CARTESIAN_POINT('',(-56.6152513124,-9.574427812706,
    591.54787377233));
#685 = CARTESIAN_POINT('',(-56.52522705478,-9.662742723957,
    591.47404688791));
#686 = CARTESIAN_POINT('',(-56.42941545101,-9.744919974751,
    591.40408465307));
#687 = CARTESIAN_POINT('',(-56.32813518544,-9.820611231057,
    591.33860549966));
#688 = CARTESIAN_POINT('',(-56.12888661122,-9.949442876649,
    591.22563830105));
#689 = CARTESIAN_POINT('',(-56.03211514081,-10.00425756357,
    591.17689584806));
#690 = CARTESIAN_POINT('',(-55.93172868146,-10.05351846307,
    591.13255139421));
#691 = CARTESIAN_POINT('',(-55.82809718086,-10.09691049541,
    591.09309351244));
#692 = CARTESIAN_POINT('',(-55.72160415453,-10.13415323894,
    591.05896451421));
#693 = CARTESIAN_POINT('',(-55.51392653579,-10.19292165634,
    591.0048076412));
#694 = CARTESIAN_POINT('',(-55.41320345097,-10.21558962977,
    590.98376113176));
#695 = CARTESIAN_POINT('',(-55.31095772555,-10.23275010223,
    590.96774341358));
#696 = CARTESIAN_POINT('',(-55.20767821097,-10.24424675679,
    590.95698242692));
#697 = CARTESIAN_POINT('',(-55.10385949321,-10.25,590.9515980569));
#698 = CARTESIAN_POINT('',(-54.89514377397,-10.25,590.9515980569));
#699 = CARTESIAN_POINT('',(-54.79033071126,-10.24413579042,
    590.95708626798));
#700 = CARTESIAN_POINT('',(-54.68607279018,-10.23241785588,
    590.96805440485));
#701 = CARTESIAN_POINT('',(-54.58287800509,-10.2149287602,
    590.98437798985));
#702 = CARTESIAN_POINT('',(-54.4812483483,-10.19183049423,
    591.00582066213));
#703 = CARTESIAN_POINT('',(-54.32760850261,-10.14791805737,
    591.04627541798));
#704 = CARTESIAN_POINT('',(-54.27413346618,-10.13088013565,
    591.06192389453));
#705 = CARTESIAN_POINT('',(-54.22130891961,-10.11228975613,
    591.07893608012));
#706 = CARTESIAN_POINT('',(-54.16919018329,-10.09218194633,
    591.09725959726));
#707 = CARTESIAN_POINT('',(-54.11783166111,-10.07059506366,
    591.11683752738));
#708 = CARTESIAN_POINT('',(-54.01445828276,-10.02350623502,
    591.15931777287));
#709 = CARTESIAN_POINT('',(-53.96251732501,-9.997871086965,
    591.18233097771));
#710 = CARTESIAN_POINT('',(-53.91150812469,-9.970705179607,
    591.20658496064));
#711 = CARTESIAN_POINT('',(-53.86147414451,-9.942049429826,591.232015257
    ));
#712 = CARTESIAN_POINT('',(-53.81245815247,-9.911945842987,
    591.25855600215));
#713 = CARTESIAN_POINT('',(-53.66192407348,-9.813040923864,
    591.34514219363));
#714 = CARTESIAN_POINT('',(-53.56422184185,-9.739234856614,
    591.40890266242));
#715 = CARTESIAN_POINT('',(-53.47166960257,-9.659360768708,
    591.47683753001));
#716 = CARTESIAN_POINT('',(-53.3845569256,-9.573734613464,
    591.54838584736));
#717 = CARTESIAN_POINT('',(-53.303191097,-9.482656371232,591.62301382271
    ));
#718 = CARTESIAN_POINT('',(-53.15916072138,-9.298558911009,
    591.77070473239));
#719 = CARTESIAN_POINT('',(-53.09546150595,-9.206368678458,
    591.84336244472));
#720 = CARTESIAN_POINT('',(-53.03704943112,-9.110053551158,
    591.91782278445));
#721 = CARTESIAN_POINT('',(-52.9842019548,-9.009824240325,
    591.99372677417));
#722 = CARTESIAN_POINT('',(-52.93722757614,-8.905903084047,
    592.07072767995));
#723 = CARTESIAN_POINT('',(-52.84956595633,-8.674979785394,
    592.23797357011));
#724 = CARTESIAN_POINT('',(-52.8108504185,-8.546747606891,
    592.32854698013));
#725 = CARTESIAN_POINT('',(-52.78096039693,-8.414426088227,
    592.41953244936));
#726 = CARTESIAN_POINT('',(-52.76049201625,-8.278680006546,
    592.51027315919));
#727 = CARTESIAN_POINT('',(-52.75,-8.140257225967,592.60014699698));
#728 = CARTESIAN_POINT('',(-52.75,-8.,592.68857754045));
#729 = FACE_BOUND('',#730,.T.);
#730 = EDGE_LOOP('',(#731));
#731 = ORIENTED_EDGE('',*,*,#732,.F.);
#732 = EDGE_CURVE('',#733,#733,#735,.T.);
#733 = VERTEX_POINT('',#734);
#734 = CARTESIAN_POINT('',(-52.75,8.,592.68857754045));
#735 = B_SPLINE_CURVE_WITH_KNOTS('',6,(#736,#737,#738,#739,#740,#741,
    #742,#743,#744,#745,#746,#747,#748,#749,#750,#751,#752,#753,#754,
    #755,#756,#757,#758,#759,#760,#761,#762,#763,#764,#765,#766,#767,
    #768,#769,#770,#771,#772,#773,#774,#775,#776,#777,#778,#779,#780,
    #781,#782,#783,#784,#785,#786,#787,#788,#789,#790,#791,#792,#793,
    #794,#795,#796,#797,#798,#799,#800,#801,#802,#803,#804,#805,#806,
    #807,#808,#809,#810,#811,#812,#813,#814,#815,#816,#817,#818,#819,
    #820,#821,#822,#823,#824,#825,#826,#827,#828,#829,#830,#831,#832,
    #833,#834,#835,#836,#837,#838,#839,#840,#841,#842),.UNSPECIFIED.,.T.
  ,.F.,(7,5,5,5,5,5,5,5,5,5,5,5,5,5,5,5,5,5,5,5,5,7),(0.,
    5.970110182185E-02,0.107766386191,0.163312242194,0.189087765152,
    0.212849078528,0.258213479283,0.302597637785,0.353701316145,
    0.408654008153,0.470929935337,0.525320233483,0.572313930253,
    0.607876465355,0.653367091138,0.684729022548,0.758260315147,
    0.830363849469,0.862295516965,0.891242800298,0.943320684314,1.),
  .UNSPECIFIED.);
#736 = CARTESIAN_POINT('',(-52.75,8.,592.68857754045));
#737 = CARTESIAN_POINT('',(-52.75,8.14515747926,592.59705744449));
#738 = CARTESIAN_POINT('',(-52.7612379645,8.288337785478,592.50399921279
    ));
#739 = CARTESIAN_POINT('',(-52.78313872115,8.428615132757,
    592.41003770839));
#740 = CARTESIAN_POINT('',(-52.81508629793,8.565172106895,
    592.31585923434));
#741 = CARTESIAN_POINT('',(-52.85642115579,8.697286027348,
    592.22218852419));
#742 = CARTESIAN_POINT('',(-52.9467054557,8.926586429303,592.05537430668
    ));
#743 = CARTESIAN_POINT('',(-52.99263358649,9.025646539464,
    591.98172649525));
#744 = CARTESIAN_POINT('',(-53.0439251155,9.121288115176,591.90912584247
    ));
#745 = CARTESIAN_POINT('',(-53.10031074496,9.213317240809,
    591.83787783469));
#746 = CARTESIAN_POINT('',(-53.16154751911,9.301549158752,
    591.76829851274));
#747 = CARTESIAN_POINT('',(-53.30353963422,9.483171331561,
    591.62260909443));
#748 = CARTESIAN_POINT('',(-53.38587765448,9.575263478073,
    591.54713899655));
#749 = CARTESIAN_POINT('',(-53.47409295766,9.661775829095,
    591.47482298908));
#750 = CARTESIAN_POINT('',(-53.56786731175,9.742397463679,
    591.40621413497));
#751 = CARTESIAN_POINT('',(-53.66690076721,9.816800819592,591.3418937673
    ));
#752 = CARTESIAN_POINT('',(-53.81917346759,9.916107742562,
    591.25489042375));
#753 = CARTESIAN_POINT('',(-53.86850299372,9.946164577028,
    591.22837106235));
#754 = CARTESIAN_POINT('',(-53.91885494162,9.974758238595,
    591.20297706881));
#755 = CARTESIAN_POINT('',(-53.97018564906,10.001846083189,
    591.17877519809));
#756 = CARTESIAN_POINT('',(-54.02245073046,10.027386631453,
    591.15583070222));
#757 = CARTESIAN_POINT('',(-54.12460571554,10.073420721083,
    591.11427370109));
#758 = CARTESIAN_POINT('',(-54.17436269557,10.094152803874,
    591.0954624307));
#759 = CARTESIAN_POINT('',(-54.22482736923,10.11349822419,
    591.07782893571));
#760 = CARTESIAN_POINT('',(-54.2759502858,10.131422330719,
    591.06142461958));
#761 = CARTESIAN_POINT('',(-54.32768119167,10.147893413765,
    591.04629687257));
#762 = CARTESIAN_POINT('',(-54.47979543422,10.191499819737,
    591.00612762462));
#763 = CARTESIAN_POINT('',(-54.5816978836,10.214728474793,590.9845649306
    ));
#764 = CARTESIAN_POINT('',(-54.68517845794,10.232317174916,
    590.96814864522));
#765 = CARTESIAN_POINT('',(-54.78973110264,10.24410217264,
    590.95711772705));
#766 = CARTESIAN_POINT('',(-54.89484367663,10.25,590.9515980569));
#767 = CARTESIAN_POINT('',(-55.10288408633,10.25,590.9515980569));
#768 = CARTESIAN_POINT('',(-55.20572875586,10.244354324222,
    590.95688176619));
#769 = CARTESIAN_POINT('',(-55.30804909018,10.233072369576,
    590.96744176296));
#770 = CARTESIAN_POINT('',(-55.40936380727,10.216230931648,
    590.98316250655));
#771 = CARTESIAN_POINT('',(-55.50919709461,10.193980796276,
    591.00382419857));
#772 = CARTESIAN_POINT('',(-55.71978279569,10.134973497119,
    591.05821671404));
#773 = CARTESIAN_POINT('',(-55.8298645759,10.096540148453,
    591.09344352248));
#774 = CARTESIAN_POINT('',(-55.93689033308,10.051540210473,
    591.13436200253));
#775 = CARTESIAN_POINT('',(-56.04043889846,10.00028219247,591.180484201)
  );
#776 = CARTESIAN_POINT('',(-56.14010448338,9.943113460951,
    591.23127034881));
#777 = CARTESIAN_POINT('',(-56.33807588056,9.813040954054,591.3451421672
    ));
#778 = CARTESIAN_POINT('',(-56.43577808816,9.739234912391,
    591.40890261451));
#779 = CARTESIAN_POINT('',(-56.52833033284,9.659360828696,
    591.47683747943));
#780 = CARTESIAN_POINT('',(-56.61544302899,9.573734663684,
    591.54838580608));
#781 = CARTESIAN_POINT('',(-56.69680887573,9.482656406074,
    591.62301379476));
#782 = CARTESIAN_POINT('',(-56.85742615387,9.277357816483,
    591.78771316333));
#783 = CARTESIAN_POINT('',(-56.93500176143,9.161605129092,
    591.87856977619));
#784 = CARTESIAN_POINT('',(-57.00433476955,9.039569545995,
    591.97206836906));
#785 = CARTESIAN_POINT('',(-57.06487640332,8.91166144387,592.06752252067
    ));
#786 = CARTESIAN_POINT('',(-57.11600793465,8.778331024049,
    592.16427134322));
#787 = CARTESIAN_POINT('',(-57.19285167565,8.519383188854,
    592.34673723367));
#788 = CARTESIAN_POINT('',(-57.22098673939,8.394844844203,
    592.43235802142));
#789 = CARTESIAN_POINT('',(-57.2408676838,8.26709661703,592.51791925916)
  );
#790 = CARTESIAN_POINT('',(-57.25199686137,8.136805072827,
    592.60283887702));
#791 = CARTESIAN_POINT('',(-57.25394170051,8.004703254417,
    592.68657466276));
#792 = CARTESIAN_POINT('',(-57.23975925768,7.756591010895,592.8395307054
    ));
#793 = CARTESIAN_POINT('',(-57.22605518287,7.64086455919,592.90915844457
    ));
#794 = CARTESIAN_POINT('',(-57.20500797376,7.525208543826,
    592.97702913436));
#795 = CARTESIAN_POINT('',(-57.17654738187,7.410419824108,
    593.04273332107));
#796 = CARTESIAN_POINT('',(-57.14074614485,7.29728775538,593.10593372259
    ));
#797 = CARTESIAN_POINT('',(-57.06533609787,7.102804003869,
    593.21208859219));
#798 = CARTESIAN_POINT('',(-57.0287892112,7.020460170133,593.2562039896)
  );
#799 = CARTESIAN_POINT('',(-56.98828746585,6.939892701774,
    593.29858571551));
#800 = CARTESIAN_POINT('',(-56.94398765025,6.861427557788,
    593.33914042553));
#801 = CARTESIAN_POINT('',(-56.89609559511,6.785368271537,
    593.37779913482));
#802 = CARTESIAN_POINT('',(-56.77933509896,6.618127656884,
    593.46147845591));
#803 = CARTESIAN_POINT('',(-56.70837192034,6.528693691587,
    593.50524151536));
#804 = CARTESIAN_POINT('',(-56.632418335,6.444111291351,593.54578173196)
  );
#805 = CARTESIAN_POINT('',(-56.55197284443,6.364747757542,
    593.58311232773));
#806 = CARTESIAN_POINT('',(-56.46759035215,6.290904033714,
    593.61727315458));
#807 = CARTESIAN_POINT('',(-56.31941396874,6.175854345989,593.6697288035
    ));
#808 = CARTESIAN_POINT('',(-56.25733823429,6.131613551593,
    593.68966572299));
#809 = CARTESIAN_POINT('',(-56.19380423032,6.09012202384,593.70816754983
    ));
#810 = CARTESIAN_POINT('',(-56.12896133822,6.051412355266,
    593.72526697049));
#811 = CARTESIAN_POINT('',(-56.0629585585,6.015509056455,593.74099530977
    ));
#812 = CARTESIAN_POINT('',(-55.8388231432,5.904867900623,593.78911485924
    ));
#813 = CARTESIAN_POINT('',(-55.67620985497,5.842857535828,
    593.81546025932));
#814 = CARTESIAN_POINT('',(-55.50965634167,5.796397841092,
    593.83489372534));
#815 = CARTESIAN_POINT('',(-55.34056336271,5.765458175475,
    593.84773548359));
#816 = CARTESIAN_POINT('',(-55.17024618055,5.75,593.85415100249));
#817 = CARTESIAN_POINT('',(-54.83305949223,5.75,593.85415100249));
#818 = CARTESIAN_POINT('',(-54.66605478932,5.764863691992,
    593.84798220197));
#819 = CARTESIAN_POINT('',(-54.50020473566,5.794611726815,593.8356350612
    ));
#820 = CARTESIAN_POINT('',(-54.33674619931,5.839280183636,
    593.81695640691));
#821 = CARTESIAN_POINT('',(-54.17699408579,5.898899877067,
    593.79164928585));
#822 = CARTESIAN_POINT('',(-53.95393863618,6.006502190122,
    593.74493462244));
#823 = CARTESIAN_POINT('',(-53.88649877705,6.04245671208,593.72921228889
    ));
#824 = CARTESIAN_POINT('',(-53.82023713902,6.081323324034,
    593.71207435557));
#825 = CARTESIAN_POINT('',(-53.75530971713,6.12307768413,593.69348773475
    ));
#826 = CARTESIAN_POINT('',(-53.69187313689,6.167687014768,
    593.67341771302));
#827 = CARTESIAN_POINT('',(-53.57407102119,6.258100953621,593.6322560029
    ));
#828 = CARTESIAN_POINT('',(-53.51941000495,6.303405800475,
    593.61143466375));
#829 = CARTESIAN_POINT('',(-53.46624527151,6.350973608978,
    593.58934570783));
#830 = CARTESIAN_POINT('',(-53.41471429961,6.40074344911,593.56597367293
    ));
#831 = CARTESIAN_POINT('',(-53.36494838085,6.452644495013,
    593.54130586068));
#832 = CARTESIAN_POINT('',(-53.23094127846,6.603658035583,
    593.46860442217));
#833 = CARTESIAN_POINT('',(-53.1508678612,6.707424663934,593.41761850181
    ));
#834 = CARTESIAN_POINT('',(-53.07779925112,6.817216891122,
    593.36241812761));
#835 = CARTESIAN_POINT('',(-53.01249135006,6.932193234454,
    593.30313126456));
#836 = CARTESIAN_POINT('',(-52.95550012072,7.051399723729,
    593.23998463231));
#837 = CARTESIAN_POINT('',(-52.85457507783,7.307056676033,
    593.10076101987));
#838 = CARTESIAN_POINT('',(-52.81233561163,7.443857417814,
    593.02416650217));
#839 = CARTESIAN_POINT('',(-52.78081929139,7.582917223993,592.943982914)
  );
#840 = CARTESIAN_POINT('',(-52.76010811074,7.722864051467,
    592.86080361253));
#841 = CARTESIAN_POINT('',(-52.75,7.862331539336,592.77537589761));
#842 = CARTESIAN_POINT('',(-52.75,8.,592.68857754045));
#843 = FACE_BOUND('',#844,.T.);
#844 = EDGE_LOOP('',(#845));
#845 = ORIENTED_EDGE('',*,*,#846,.T.);
#846 = EDGE_CURVE('',#847,#847,#849,.T.);
#847 = VERTEX_POINT('',#848);
#848 = CARTESIAN_POINT('',(-52.75,8.,567.31142245955));
#849 = B_SPLINE_CURVE_WITH_KNOTS('',6,(#850,#851,#852,#853,#854,#855,
    #856,#857,#858,#859,#860,#861,#862,#863,#864,#865,#866,#867,#868,
    #869,#870,#871,#872,#873,#874,#875,#876,#877,#878,#879,#880,#881,
    #882,#883,#884,#885,#886,#887,#888,#889,#890,#891,#892,#893,#894,
    #895,#896,#897,#898,#899,#900,#901,#902,#903,#904,#905,#906,#907,
    #908,#909,#910,#911,#912,#913,#914,#915,#916,#917,#918,#919,#920,
    #921,#922,#923,#924,#925,#926,#927,#928,#929,#930,#931,#932,#933,
    #934,#935,#936,#937,#938,#939,#940,#941,#942,#943,#944,#945,#946,
    #947,#948,#949,#950,#951,#952,#953,#954,#955,#956),.UNSPECIFIED.,.T.
  ,.F.,(7,5,5,5,5,5,5,5,5,5,5,5,5,5,5,5,5,5,5,5,5,7),(0.,
    5.970110005877E-02,0.107766383009,0.163312237371,0.189087759568,
    0.212849072242,0.258213471658,0.302597628849,0.353701305701,
    0.408653996087,0.4709299229,0.525320219155,0.572313914288,
    0.607876448151,0.653367072331,0.684729001004,0.758260283532,
    0.830363804549,0.862295471894,0.891242762067,0.94332066472,1.),
  .UNSPECIFIED.);
#850 = CARTESIAN_POINT('',(-52.75,8.,567.31142245955));
#851 = CARTESIAN_POINT('',(-52.75,8.14515747926,567.4029425555));
#852 = CARTESIAN_POINT('',(-52.7612379645,8.288337785478,567.4960007872)
  );
#853 = CARTESIAN_POINT('',(-52.78313872115,8.428615132757,567.5899622916
    ));
#854 = CARTESIAN_POINT('',(-52.81508629793,8.565172106895,
    567.68414076565));
#855 = CARTESIAN_POINT('',(-52.85642115579,8.697286027348,567.7778114758
    ));
#856 = CARTESIAN_POINT('',(-52.9467054557,8.926586429303,567.94462569331
    ));
#857 = CARTESIAN_POINT('',(-52.99263358649,9.025646539464,
    568.01827350474));
#858 = CARTESIAN_POINT('',(-53.0439251155,9.121288115176,568.09087415752
    ));
#859 = CARTESIAN_POINT('',(-53.10031074496,9.213317240809,568.1621221653
    ));
#860 = CARTESIAN_POINT('',(-53.16154751911,9.301549158752,
    568.23170148725));
#861 = CARTESIAN_POINT('',(-53.30353963422,9.483171331561,
    568.37739090556));
#862 = CARTESIAN_POINT('',(-53.38587765448,9.575263478073,
    568.45286100344));
#863 = CARTESIAN_POINT('',(-53.47409295766,9.661775829095,
    568.52517701091));
#864 = CARTESIAN_POINT('',(-53.56786731175,9.742397463679,
    568.59378586502));
#865 = CARTESIAN_POINT('',(-53.66690076721,9.816800819592,
    568.65810623269));
#866 = CARTESIAN_POINT('',(-53.81917346759,9.916107742562,
    568.74510957624));
#867 = CARTESIAN_POINT('',(-53.86850299372,9.946164577028,
    568.77162893765));
#868 = CARTESIAN_POINT('',(-53.91885494162,9.974758238595,
    568.79702293118));
#869 = CARTESIAN_POINT('',(-53.97018564906,10.001846083189,
    568.8212248019));
#870 = CARTESIAN_POINT('',(-54.02245073046,10.027386631453,
    568.84416929777));
#871 = CARTESIAN_POINT('',(-54.12460571554,10.073420721083,
    568.8857262989));
#872 = CARTESIAN_POINT('',(-54.17436269557,10.094152803874,
    568.90453756929));
#873 = CARTESIAN_POINT('',(-54.22482736923,10.11349822419,
    568.92217106428));
#874 = CARTESIAN_POINT('',(-54.2759502858,10.131422330719,
    568.93857538041));
#875 = CARTESIAN_POINT('',(-54.32768119167,10.147893413765,
    568.95370312742));
#876 = CARTESIAN_POINT('',(-54.47979543422,10.191499819737,
    568.99387237538));
#877 = CARTESIAN_POINT('',(-54.5816978836,10.214728474793,
    569.01543506939));
#878 = CARTESIAN_POINT('',(-54.68517845794,10.232317174916,
    569.03185135477));
#879 = CARTESIAN_POINT('',(-54.78973110264,10.24410217264,
    569.04288227294));
#880 = CARTESIAN_POINT('',(-54.89484367663,10.25,569.04840194309));
#881 = CARTESIAN_POINT('',(-55.10288408633,10.25,569.04840194309));
#882 = CARTESIAN_POINT('',(-55.20572875586,10.244354324222,
    569.0431182338));
#883 = CARTESIAN_POINT('',(-55.30804909018,10.233072369576,
    569.03255823703));
#884 = CARTESIAN_POINT('',(-55.40936380727,10.216230931648,
    569.01683749344));
#885 = CARTESIAN_POINT('',(-55.50919709461,10.193980796276,
    568.99617580143));
#886 = CARTESIAN_POINT('',(-55.71978279569,10.134973497119,
    568.94178328595));
#887 = CARTESIAN_POINT('',(-55.8298645759,10.096540148453,
    568.90655647751));
#888 = CARTESIAN_POINT('',(-55.93689033307,10.051540210474,
    568.86563799746));
#889 = CARTESIAN_POINT('',(-56.04043889846,10.00028219247,
    568.81951579899));
#890 = CARTESIAN_POINT('',(-56.14010448338,9.943113460951,
    568.76872965118));
#891 = CARTESIAN_POINT('',(-56.33807588056,9.813040954054,
    568.65485783279));
#892 = CARTESIAN_POINT('',(-56.43577808816,9.739234912391,
    568.59109738548));
#893 = CARTESIAN_POINT('',(-56.52833033284,9.659360828696,
    568.52316252056));
#894 = CARTESIAN_POINT('',(-56.61544302899,9.573734663684,
    568.45161419391));
#895 = CARTESIAN_POINT('',(-56.69680887573,9.482656406074,
    568.37698620524));
#896 = CARTESIAN_POINT('',(-56.85742615588,9.277357813913,568.2122868346
    ));
#897 = CARTESIAN_POINT('',(-56.93500175871,9.161605134071,
    568.12143022756));
#898 = CARTESIAN_POINT('',(-57.00433476918,9.039569545327,
    568.02793163057));
#899 = CARTESIAN_POINT('',(-57.06487640588,8.91166143856,567.93247747537
    ));
#900 = CARTESIAN_POINT('',(-57.11600793347,8.778331028021,
    567.83572865957));
#901 = CARTESIAN_POINT('',(-57.19285167564,8.519383188863,
    567.65326276632));
#902 = CARTESIAN_POINT('',(-57.22098673939,8.394844844201,
    567.56764197857));
#903 = CARTESIAN_POINT('',(-57.2408676838,8.267096617021,567.48208074083
    ));
#904 = CARTESIAN_POINT('',(-57.25199686137,8.136805072824,
    567.39716112297));
#905 = CARTESIAN_POINT('',(-57.25394170051,8.004703254427,
    567.31342533724));
#906 = CARTESIAN_POINT('',(-57.23975925768,7.756591010895,
    567.16046929459));
#907 = CARTESIAN_POINT('',(-57.22605518287,7.64086455919,567.09084155542
    ));
#908 = CARTESIAN_POINT('',(-57.20500797376,7.525208543826,
    567.02297086563));
#909 = CARTESIAN_POINT('',(-57.17654738187,7.410419824108,
    566.95726667892));
#910 = CARTESIAN_POINT('',(-57.14074614485,7.29728775538,566.89406627741
    ));
#911 = CARTESIAN_POINT('',(-57.06533609787,7.102804003869,566.7879114078
    ));
#912 = CARTESIAN_POINT('',(-57.0287892112,7.020460170133,566.74379601039
    ));
#913 = CARTESIAN_POINT('',(-56.98828746585,6.939892701774,
    566.70141428448));
#914 = CARTESIAN_POINT('',(-56.94398765025,6.861427557788,
    566.66085957446));
#915 = CARTESIAN_POINT('',(-56.89609559511,6.785368271537,
    566.62220086517));
#916 = CARTESIAN_POINT('',(-56.77933509899,6.618127656923,566.5385215441
    ));
#917 = CARTESIAN_POINT('',(-56.70837192033,6.528693691567,
    566.49475848462));
#918 = CARTESIAN_POINT('',(-56.63241833496,6.444111291313,
    566.45421826801));
#919 = CARTESIAN_POINT('',(-56.55197284442,6.364747757539,
    566.41688767227));
#920 = CARTESIAN_POINT('',(-56.46759035219,6.290904033747,
    566.38272684543));
#921 = CARTESIAN_POINT('',(-56.31941397185,6.175854348408,
    566.33027119759));
#922 = CARTESIAN_POINT('',(-56.25733823334,6.131613551364,
    566.31033427692));
#923 = CARTESIAN_POINT('',(-56.19380422709,6.090122021813,
    566.29183244925));
#924 = CARTESIAN_POINT('',(-56.12896133744,6.051412354417,
    566.27473302911));
#925 = CARTESIAN_POINT('',(-56.06295856183,6.0155090581,566.25900469093)
  );
#926 = CARTESIAN_POINT('',(-55.8388231432,5.904867900623,566.21088514075
    ));
#927 = CARTESIAN_POINT('',(-55.67620985497,5.842857535828,
    566.18453974067));
#928 = CARTESIAN_POINT('',(-55.50965634167,5.796397841092,
    566.16510627465));
#929 = CARTESIAN_POINT('',(-55.34056336271,5.765458175475,566.1522645164
    ));
#930 = CARTESIAN_POINT('',(-55.17024618055,5.75,566.1458489975));
#931 = CARTESIAN_POINT('',(-54.83305950017,5.75,566.1458489975));
#932 = CARTESIAN_POINT('',(-54.6660547767,5.764863694514,566.15201779911
    ));
#933 = CARTESIAN_POINT('',(-54.50020473554,5.7946117251,566.16436493805)
  );
#934 = CARTESIAN_POINT('',(-54.33674621188,5.839280180304,
    566.18304359164));
#935 = CARTESIAN_POINT('',(-54.17699407814,5.898899880759,
    566.20835071574));
#936 = CARTESIAN_POINT('',(-53.95393862726,6.006502194425,
    566.25506537942));
#937 = CARTESIAN_POINT('',(-53.88649877913,6.042456709822,
    566.27078771005));
#938 = CARTESIAN_POINT('',(-53.82023714768,6.081323318693,
    566.28792564204));
#939 = CARTESIAN_POINT('',(-53.75530971968,6.123077683547,
    566.30651226503));
#940 = CARTESIAN_POINT('',(-53.69187312855,6.167687021165,
    566.32658228988));
#941 = CARTESIAN_POINT('',(-53.57407101524,6.258100958184,
    566.36774399917));
#942 = CARTESIAN_POINT('',(-53.51941000622,6.303405798498,
    566.38856533526));
#943 = CARTESIAN_POINT('',(-53.46624527717,6.350973603705,
    566.41065428968));
#944 = CARTESIAN_POINT('',(-53.41471430138,6.400743448281,
    566.43402632673));
#945 = CARTESIAN_POINT('',(-53.36494837552,6.452644501012,566.4586941422
    ));
#946 = CARTESIAN_POINT('',(-53.23094127756,6.603658036591,
    566.53139557831));
#947 = CARTESIAN_POINT('',(-53.15086786245,6.707424662005,566.5823814972
    ));
#948 = CARTESIAN_POINT('',(-53.07779925126,6.817216891352,
    566.63758187254));
#949 = CARTESIAN_POINT('',(-53.01249134887,6.932193236497,
    566.69686873649));
#950 = CARTESIAN_POINT('',(-52.95550012131,7.051399722239,
    566.76001536687));
#951 = CARTESIAN_POINT('',(-52.85457507783,7.307056676033,
    566.89923898012));
#952 = CARTESIAN_POINT('',(-52.81233561163,7.443857417814,
    566.97583349782));
#953 = CARTESIAN_POINT('',(-52.78081929139,7.582917223993,
    567.05601708599));
#954 = CARTESIAN_POINT('',(-52.76010811074,7.722864051467,
    567.13919638746));
#955 = CARTESIAN_POINT('',(-52.75,7.862331539336,567.22462410238));
#956 = CARTESIAN_POINT('',(-52.75,8.,567.31142245955));
#957 = CYLINDRICAL_SURFACE('',#958,15.);
#958 = AXIS2_PLACEMENT_3D('',#959,#960,#961);
#959 = CARTESIAN_POINT('',(-25.,0.,580.));
#960 = DIRECTION('',(-1.,0.,0.));
#961 = DIRECTION('',(0.,0.,-1.));
#962 = ADVANCED_FACE('',(#963),#966,.T.);
#963 = FACE_BOUND('',#964,.T.);
#964 = EDGE_LOOP('',(#965));
#965 = ORIENTED_EDGE('',*,*,#21,.T.);
#966 = PLANE('',#967);
#967 = AXIS2_PLACEMENT_3D('',#968,#969,#970);
#968 = CARTESIAN_POINT('',(-65.,0.,580.));
#969 = DIRECTION('',(-1.,0.,0.));
#970 = DIRECTION('',(0.,0.,-1.));
#971 = ADVANCED_FACE('',(#972),#975,.F.);
#972 = FACE_BOUND('',#973,.T.);
#973 = EDGE_LOOP('',(#974));
#974 = ORIENTED_EDGE('',*,*,#38,.F.);
#975 = PLANE('',#976);
#976 = AXIS2_PLACEMENT_3D('',#977,#978,#979);
#977 = CARTESIAN_POINT('',(-25.,0.,580.));
#978 = DIRECTION('',(-1.,0.,0.));
#979 = DIRECTION('',(0.,0.,-1.));
#980 = ADVANCED_FACE('',(#981),#992,.F.);
#981 = FACE_BOUND('',#982,.F.);
#982 = EDGE_LOOP('',(#983,#984,#990,#991));
#983 = ORIENTED_EDGE('',*,*,#162,.F.);
#984 = ORIENTED_EDGE('',*,*,#985,.F.);
#985 = EDGE_CURVE('',#49,#163,#986,.T.);
#986 = LINE('',#987,#988);
#987 = CARTESIAN_POINT('',(-32.75,-8.,560.));
#988 = VECTOR('',#989,1.);
#989 = DIRECTION('',(0.,0.,1.));
#990 = ORIENTED_EDGE('',*,*,#48,.T.);
#991 = ORIENTED_EDGE('',*,*,#985,.T.);
#992 = CYLINDRICAL_SURFACE('',#993,2.25);
#993 = AXIS2_PLACEMENT_3D('',#994,#995,#996);
#994 = CARTESIAN_POINT('',(-35.,-8.,560.));
#995 = DIRECTION('',(0.,0.,1.));
#996 = DIRECTION('',(1.,0.,0.));
#997 = ADVANCED_FACE('',(#998),#1009,.F.);
#998 = FACE_BOUND('',#999,.F.);
#999 = EDGE_LOOP('',(#1000,#1001,#1007,#1008));
#1000 = ORIENTED_EDGE('',*,*,#276,.F.);
#1001 = ORIENTED_EDGE('',*,*,#1002,.F.);
#1002 = EDGE_CURVE('',#391,#277,#1003,.T.);
#1003 = LINE('',#1004,#1005);
#1004 = CARTESIAN_POINT('',(-32.75,8.,560.));
#1005 = VECTOR('',#1006,1.);
#1006 = DIRECTION('',(0.,0.,1.));
#1007 = ORIENTED_EDGE('',*,*,#390,.T.);
#1008 = ORIENTED_EDGE('',*,*,#1002,.T.);
#1009 = CYLINDRICAL_SURFACE('',#1010,2.25);
#1010 = AXIS2_PLACEMENT_3D('',#1011,#1012,#1013);
#1011 = CARTESIAN_POINT('',(-35.,8.,560.));
#1012 = DIRECTION('',(0.,0.,1.));
#1013 = DIRECTION('',(1.,0.,0.));
#1014 = ADVANCED_FACE('',(#1015),#1026,.F.);
#1015 = FACE_BOUND('',#1016,.F.);
#1016 = EDGE_LOOP('',(#1017,#1018,#1024,#1025));
#1017 = ORIENTED_EDGE('',*,*,#618,.F.);
#1018 = ORIENTED_EDGE('',*,*,#1019,.F.);
#1019 = EDGE_CURVE('',#505,#619,#1020,.T.);
#1020 = LINE('',#1021,#1022);
#1021 = CARTESIAN_POINT('',(-52.75,-8.,560.));
#1022 = VECTOR('',#1023,1.);
#1023 = DIRECTION('',(0.,0.,1.));
#1024 = ORIENTED_EDGE('',*,*,#504,.T.);
#1025 = ORIENTED_EDGE('',*,*,#1019,.T.);
#1026 = CYLINDRICAL_SURFACE('',#1027,2.25);
#1027 = AXIS2_PLACEMENT_3D('',#1028,#1029,#1030);
#1028 = CARTESIAN_POINT('',(-55.,-8.,560.));
#1029 = DIRECTION('',(0.,0.,1.));
#1030 = DIRECTION('',(1.,0.,0.));
#1031 = ADVANCED_FACE('',(#1032),#1043,.F.);
#1032 = FACE_BOUND('',#1033,.F.);
#1033 = EDGE_LOOP('',(#1034,#1035,#1041,#1042));
#1034 = ORIENTED_EDGE('',*,*,#732,.F.);
#1035 = ORIENTED_EDGE('',*,*,#1036,.F.);
#1036 = EDGE_CURVE('',#847,#733,#1037,.T.);
#1037 = LINE('',#1038,#1039);
#1038 = CARTESIAN_POINT('',(-52.75,8.,560.));
#1039 = VECTOR('',#1040,1.);
#1040 = DIRECTION('',(0.,0.,1.));
#1041 = ORIENTED_EDGE('',*,*,#846,.T.);
#1042 = ORIENTED_EDGE('',*,*,#1036,.T.);
#1043 = CYLINDRICAL_SURFACE('',#1044,2.25);
#1044 = AXIS2_PLACEMENT_3D('',#1045,#1046,#1047);
#1045 = CARTESIAN_POINT('',(-55.,8.,560.));
#1046 = DIRECTION('',(0.,0.,1.));
#1047 = DIRECTION('',(1.,0.,0.));
#1048 = ( GEOMETRIC_REPRESENTATION_CONTEXT(3) 
GLOBAL_UNCERTAINTY_ASSIGNED_CONTEXT((#1052)) 
GLOBAL_UNIT_ASSIGNED_CONTEXT((#1049,#1050,#1051)) REPRESENTATION_CONTEXT
('Context #1','3D Context with UNIT and UNCERTAINTY') );
#1049 = ( LENGTH_UNIT() NAMED_UNIT(*) SI_UNIT(.MILLI.,.METRE.) );
#1050 = ( NAMED_UNIT(*) PLANE_ANGLE_UNIT() SI_UNIT($,.RADIAN.) );
#1051 = ( NAMED_UNIT(*) SI_UNIT($,.STERADIAN.) SOLID_ANGLE_UNIT() );
#1052 = UNCERTAINTY_MEASURE_WITH_UNIT(LENGTH_MEASURE(1.E-07),#1049,
  'distance_accuracy_value','confusion accuracy');
#1053 = PRODUCT_RELATED_PRODUCT_CATEGORY('part',$,(#7));
ENDSEC;
END-ISO-10303-21;
