ISO-10303-21;
HEADER;
FILE_DESCRIPTION(('FreeCAD Model'),'2;1');
FILE_NAME('Open CASCADE Shape Model','2026-09-19T20:03:32',('FreeCAD'),(
    'FreeCAD'),'Open CASCADE STEP processor 7.9','FreeCAD','Unknown');
FILE_SCHEMA(('AUTOMOTIVE_DESIGN { 1 0 10303 214 1 1 1 1 }'));
ENDSEC;
DATA;
#1 = APPLICATION_PROTOCOL_DEFINITION('international standard',
  'automotive_design',2000,#2);
#2 = APPLICATION_CONTEXT(
  'core data for automotive mechanical design processes');
#3 = SHAPE_DEFINITION_REPRESENTATION(#4,#10);
#4 = PRODUCT_DEFINITION_SHAPE('','',#5);
#5 = PRODUCT_DEFINITION('design','',#6,#9);
#6 = PRODUCT_DEFINITION_FORMATION('','',#7);
#7 = PRODUCT('Open CASCADE STEP translator 7.9 31',
  'Open CASCADE STEP translator 7.9 31','',(#8));
#8 = PRODUCT_CONTEXT('',#2,'mechanical');
#9 = PRODUCT_DEFINITION_CONTEXT('part definition',#2,'design');
#10 = ADVANCED_BREP_SHAPE_REPRESENTATION('',(#11,#15),#1048);
#11 = AXIS2_PLACEMENT_3D('',#12,#13,#14);
#12 = CARTESIAN_POINT('',(0.,0.,0.));
#13 = DIRECTION('',(0.,0.,1.));
#14 = DIRECTION('',(1.,0.,-0.));
#15 = MANIFOLD_SOLID_BREP('',#16);
#16 = CLOSED_SHELL('',(#17,#962,#971,#980,#997,#1014,#1031));
#17 = ADVANCED_FACE('',(#18,#45,#159,#273,#387,#501,#615,#729,#843),#957
  ,.T.);
#18 = FACE_BOUND('',#19,.T.);
#19 = EDGE_LOOP('',(#20,#29,#37,#44));
#20 = ORIENTED_EDGE('',*,*,#21,.F.);
#21 = EDGE_CURVE('',#22,#22,#24,.T.);
#22 = VERTEX_POINT('',#23);
#23 = CARTESIAN_POINT('',(65.,3.673940397442E-15,595.));
#24 = CIRCLE('',#25,15.);
#25 = AXIS2_PLACEMENT_3D('',#26,#27,#28);
#26 = CARTESIAN_POINT('',(65.,0.,580.));
#27 = DIRECTION('',(1.,0.,-0.));
#28 = DIRECTION('',(0.,0.,1.));
#29 = ORIENTED_EDGE('',*,*,#30,.F.);
#30 = EDGE_CURVE('',#31,#22,#33,.T.);
#31 = VERTEX_POINT('',#32);
#32 = CARTESIAN_POINT('',(25.,3.673940397442E-15,595.));
#33 = LINE('',#34,#35);
#34 = CARTESIAN_POINT('',(25.,3.673940397442E-15,595.));
#35 = VECTOR('',#36,1.);
#36 = DIRECTION('',(1.,0.,0.));
#37 = ORIENTED_EDGE('',*,*,#38,.T.);
#38 = EDGE_CURVE('',#31,#31,#39,.T.);
#39 = CIRCLE('',#40,15.);
#40 = AXIS2_PLACEMENT_3D('',#41,#42,#43);
#41 = CARTESIAN_POINT('',(25.,0.,580.));
#42 = DIRECTION('',(1.,0.,-0.));
#43 = DIRECTION('',(0.,0.,1.));
#44 = ORIENTED_EDGE('',*,*,#30,.T.);
#45 = FACE_BOUND('',#46,.T.);
#46 = EDGE_LOOP('',(#47));
#47 = ORIENTED_EDGE('',*,*,#48,.F.);
#48 = EDGE_CURVE('',#49,#49,#51,.T.);
#49 = VERTEX_POINT('',#50);
#50 = CARTESIAN_POINT('',(37.25,-8.,592.68857754045));
#51 = B_SPLINE_CURVE_WITH_KNOTS('',6,(#52,#53,#54,#55,#56,#57,#58,#59,
    #60,#61,#62,#63,#64,#65,#66,#67,#68,#69,#70,#71,#72,#73,#74,#75,#76,
    #77,#78,#79,#80,#81,#82,#83,#84,#85,#86,#87,#88,#89,#90,#91,#92,#93,
    #94,#95,#96,#97,#98,#99,#100,#101,#102,#103,#104,#105,#106,#107,#108
    ,#109,#110,#111,#112,#113,#114,#115,#116,#117,#118,#119,#120,#121,
    #122,#123,#124,#125,#126,#127,#128,#129,#130,#131,#132,#133,#134,
    #135,#136,#137,#138,#139,#140,#141,#142,#143,#144,#145,#146,#147,
    #148,#149,#150,#151,#152,#153,#154,#155,#156,#157,#158),
  .UNSPECIFIED.,.T.,.F.,(7,5,5,5,5,5,5,5,5,5,5,5,5,5,5,5,5,5,5,5,5,7),(
    0.,5.654987991907E-02,9.180300053291E-02,0.137168747642,
    0.169378997975,0.241729660938,0.292494108141,0.345774755868,
    0.391430432526,0.426780715915,0.475326440605,0.529754855241,
    0.590799154324,0.647524079134,0.696976902427,0.741782481624,
    0.787018057091,0.811582100068,0.837256005863,0.892172711252,
    0.942309654489,1.),.UNSPECIFIED.);
#52 = CARTESIAN_POINT('',(37.25,-8.,592.68857754045));
#53 = CARTESIAN_POINT('',(37.25,-7.862651988151,592.77517385838));
#54 = CARTESIAN_POINT('',(37.239938892484,-7.723514584574,592.8604051065
    ));
#55 = CARTESIAN_POINT('',(37.219325509659,-7.583897440984,
    592.94340024723));
#56 = CARTESIAN_POINT('',(37.187958480881,-7.445156546896,
    593.02341733352));
#57 = CARTESIAN_POINT('',(37.145917541734,-7.308653701752,
    593.09986674522));
#58 = CARTESIAN_POINT('',(37.060924563782,-7.092791984627,
    593.21745861168));
#59 = CARTESIAN_POINT('',(37.024304029276,-7.011338322783,
    593.26101922936));
#60 = CARTESIAN_POINT('',(36.983809181973,-6.931656049331,
    593.30286845689));
#61 = CARTESIAN_POINT('',(36.939595230986,-6.854060870287,
    593.34291709971));
#62 = CARTESIAN_POINT('',(36.891864471483,-6.778846642769,
    593.38109934263));
#63 = CARTESIAN_POINT('',(36.775239070536,-6.612897437728,
    593.46404420419));
#64 = CARTESIAN_POINT('',(36.704233189896,-6.523945185121,
    593.50752957984));
#65 = CARTESIAN_POINT('',(36.628287669832,-6.439835565715,
    593.54780863796));
#66 = CARTESIAN_POINT('',(36.547895791027,-6.360926572032,
    593.58489744249));
#67 = CARTESIAN_POINT('',(36.463604692089,-6.287511455161,
    593.61883751281));
#68 = CARTESIAN_POINT('',(36.313825030451,-6.171737953178,
    593.67159248885));
#69 = CARTESIAN_POINT('',(36.249946899852,-6.126527436718,593.691948313)
  );
#70 = CARTESIAN_POINT('',(36.184542213247,-6.084219717473,593.7107928004
    ));
#71 = CARTESIAN_POINT('',(36.117772098167,-6.044849081905,
    593.72816150807));
#72 = CARTESIAN_POINT('',(36.049797094766,-6.008440986281,
    593.74408837139));
#73 = CARTESIAN_POINT('',(35.825744571845,-5.899923996384,
    593.79121453642));
#74 = CARTESIAN_POINT('',(35.665496118058,-5.839894061662,
    593.81669969783));
#75 = CARTESIAN_POINT('',(35.501501535898,-5.794918238438,
    593.83550784197));
#76 = CARTESIAN_POINT('',(35.33509025934,-5.764965717698,593.84793985992
    ));
#77 = CARTESIAN_POINT('',(35.167512444629,-5.75,593.85415100249));
#78 = CARTESIAN_POINT('',(34.882465808838,-5.75,593.85415100249));
#79 = CARTESIAN_POINT('',(34.76492438272,-5.757367358876,593.85109330668
    ));
#80 = CARTESIAN_POINT('',(34.647784209791,-5.772105021544,
    593.84497650783));
#81 = CARTESIAN_POINT('',(34.53146662168,-5.794222501982,593.83576257496
    ));
#82 = CARTESIAN_POINT('',(34.416407788871,-5.823734580375,593.8233760227
    ));
#83 = CARTESIAN_POINT('',(34.184095460077,-5.89941567272,593.79125329033
    ));
#84 = CARTESIAN_POINT('',(34.066966869518,-5.946353978099,
    593.77117627163));
#85 = CARTESIAN_POINT('',(33.952325520436,-6.001470850044,
    593.74735128523));
#86 = CARTESIAN_POINT('',(33.840838620856,-6.064712265616,
    593.71963322377));
#87 = CARTESIAN_POINT('',(33.733190759481,-6.135975453562,
    593.68785466939));
#88 = CARTESIAN_POINT('',(33.541734020577,-6.282919825329,
    593.62095700171));
#89 = CARTESIAN_POINT('',(33.456695884382,-6.35652672362,593.58695882123
    ));
#90 = CARTESIAN_POINT('',(33.375585422674,-6.435710876639,
    593.54977246139));
#91 = CARTESIAN_POINT('',(33.298962773,-6.52017450679,593.5093552053));
#92 = CARTESIAN_POINT('',(33.227332518306,-6.609552920589,593.4656905257
    ));
#93 = CARTESIAN_POINT('',(33.109894075558,-6.776109083733,
    593.38248657661));
#94 = CARTESIAN_POINT('',(33.06192446405,-6.851461985591,593.34425334186
    ));
#95 = CARTESIAN_POINT('',(33.017486618113,-6.929215827383,
    593.30414185352));
#96 = CARTESIAN_POINT('',(32.976785194916,-7.009074845817,
    593.26221800716));
#97 = CARTESIAN_POINT('',(32.939977311575,-7.090721124685,
    593.21857129918));
#98 = CARTESIAN_POINT('',(32.862122718693,-7.287937468321,
    593.11117280465));
#99 = CARTESIAN_POINT('',(32.82465669711,-7.404708379119,593.04604475632
    ));
#100 = CARTESIAN_POINT('',(32.795022552953,-7.523286273129,
    592.97822702293));
#101 = CARTESIAN_POINT('',(32.773304870194,-7.642800675131,
    592.90808945758));
#102 = CARTESIAN_POINT('',(32.759425178154,-7.762372284798,
    592.8360841862));
#103 = CARTESIAN_POINT('',(32.746098076679,-8.014274949957,
    592.68053173535));
#104 = CARTESIAN_POINT('',(32.748604608378,-8.146367530234,
    592.59666090759));
#105 = CARTESIAN_POINT('',(32.760286922786,-8.276605993117,
    592.51163364373));
#106 = CARTESIAN_POINT('',(32.780708658896,-8.404263072261,
    592.42599200912));
#107 = CARTESIAN_POINT('',(32.809370473373,-8.528678260562,
    592.34031711274));
#108 = CARTESIAN_POINT('',(32.886463371497,-8.784481293962,
    592.15978141821));
#109 = CARTESIAN_POINT('',(32.936905191929,-8.914983539017,
    592.06499542502));
#110 = CARTESIAN_POINT('',(32.996374508013,-9.040264784926,
    591.97146983597));
#111 = CARTESIAN_POINT('',(33.064289309922,-9.159901782331,
    591.87982712942));
#112 = CARTESIAN_POINT('',(33.140132367564,-9.27350785571,
    591.79071338137));
#113 = CARTESIAN_POINT('',(33.30085028934,-9.480305468453,
    591.62497751765));
#114 = CARTESIAN_POINT('',(33.384748687599,-9.574427812706,
    591.54787377233));
#115 = CARTESIAN_POINT('',(33.47477294522,-9.662742723957,
    591.47404688791));
#116 = CARTESIAN_POINT('',(33.570584548983,-9.744919974751,
    591.40408465307));
#117 = CARTESIAN_POINT('',(33.671864814556,-9.820611231057,
    591.33860549966));
#118 = CARTESIAN_POINT('',(33.871113388789,-9.949442876656,
    591.22563830104));
#119 = CARTESIAN_POINT('',(33.967884859182,-10.00425756356,
    591.17689584806));
#120 = CARTESIAN_POINT('',(34.068271318528,-10.05351846306,
    591.13255139422));
#121 = CARTESIAN_POINT('',(34.171902819132,-10.09691049541,
    591.09309351243));
#122 = CARTESIAN_POINT('',(34.278395845476,-10.13415323894,
    591.05896451421));
#123 = CARTESIAN_POINT('',(34.486073464291,-10.19292165636,
    591.00480764118));
#124 = CARTESIAN_POINT('',(34.586796549004,-10.21558962975,
    590.98376113177));
#125 = CARTESIAN_POINT('',(34.689042274358,-10.23275010222,
    590.96774341359));
#126 = CARTESIAN_POINT('',(34.792321789003,-10.2442467568,
    590.95698242692));
#127 = CARTESIAN_POINT('',(34.89614050687,-10.25,590.9515980569));
#128 = CARTESIAN_POINT('',(35.104856226025,-10.25,590.9515980569));
#129 = CARTESIAN_POINT('',(35.209669288732,-10.24413579042,
    590.95708626798));
#130 = CARTESIAN_POINT('',(35.313927209812,-10.23241785588,
    590.96805440485));
#131 = CARTESIAN_POINT('',(35.417121994908,-10.2149287602,
    590.98437798985));
#132 = CARTESIAN_POINT('',(35.518751651692,-10.19183049423,
    591.00582066213));
#133 = CARTESIAN_POINT('',(35.672391497384,-10.14791805737,
    591.04627541798));
#134 = CARTESIAN_POINT('',(35.725866533815,-10.13088013565,
    591.06192389453));
#135 = CARTESIAN_POINT('',(35.778691080381,-10.11228975613,
    591.07893608012));
#136 = CARTESIAN_POINT('',(35.830809816707,-10.09218194633,
    591.09725959726));
#137 = CARTESIAN_POINT('',(35.882168338887,-10.07059506366,
    591.11683752738));
#138 = CARTESIAN_POINT('',(35.985541717231,-10.02350623502,
    591.15931777287));
#139 = CARTESIAN_POINT('',(36.037482674984,-9.997871086965,
    591.18233097771));
#140 = CARTESIAN_POINT('',(36.088491875305,-9.970705179607,
    591.20658496064));
#141 = CARTESIAN_POINT('',(36.138525855481,-9.942049429827,591.232015257
    ));
#142 = CARTESIAN_POINT('',(36.18754184753,-9.911945842987,
    591.25855600215));
#143 = CARTESIAN_POINT('',(36.338075926517,-9.813040923864,
    591.34514219363));
#144 = CARTESIAN_POINT('',(36.43577815814,-9.739234856614,
    591.40890266242));
#145 = CARTESIAN_POINT('',(36.528330397424,-9.659360768708,
    591.47683753001));
#146 = CARTESIAN_POINT('',(36.615443074399,-9.573734613464,
    591.54838584736));
#147 = CARTESIAN_POINT('',(36.696808902992,-9.482656371232,
    591.62301382271));
#148 = CARTESIAN_POINT('',(36.840839278617,-9.298558911009,
    591.77070473239));
#149 = CARTESIAN_POINT('',(36.904538494043,-9.206368678458,
    591.84336244472));
#150 = CARTESIAN_POINT('',(36.962950568877,-9.110053551159,
    591.91782278445));
#151 = CARTESIAN_POINT('',(37.015798045192,-9.009824240325,
    591.99372677417));
#152 = CARTESIAN_POINT('',(37.062772423851,-8.905903084047,
    592.07072767995));
#153 = CARTESIAN_POINT('',(37.150434043622,-8.674979785516,
    592.23797357002));
#154 = CARTESIAN_POINT('',(37.189149581525,-8.546747606865,
    592.32854698015));
#155 = CARTESIAN_POINT('',(37.219039603084,-8.414426088096,
    592.41953244945));
#156 = CARTESIAN_POINT('',(37.239507983732,-8.278680006503,
    592.51027315921));
#157 = CARTESIAN_POINT('',(37.25,-8.140257226106,592.60014699689));
#158 = CARTESIAN_POINT('',(37.25,-8.,592.68857754045));
#159 = FACE_BOUND('',#160,.T.);
#160 = EDGE_LOOP('',(#161));
#161 = ORIENTED_EDGE('',*,*,#162,.T.);
#162 = EDGE_CURVE('',#163,#163,#165,.T.);
#163 = VERTEX_POINT('',#164);
#164 = CARTESIAN_POINT('',(37.25,-8.,567.31142245955));
#165 = B_SPLINE_CURVE_WITH_KNOTS('',6,(#166,#167,#168,#169,#170,#171,
    #172,#173,#174,#175,#176,#177,#178,#179,#180,#181,#182,#183,#184,
    #185,#186,#187,#188,#189,#190,#191,#192,#193,#194,#195,#196,#197,
    #198,#199,#200,#201,#202,#203,#204,#205,#206,#207,#208,#209,#210,
    #211,#212,#213,#214,#215,#216,#217,#218,#219,#220,#221,#222,#223,
    #224,#225,#226,#227,#228,#229,#230,#231,#232,#233,#234,#235,#236,
    #237,#238,#239,#240,#241,#242,#243,#244,#245,#246,#247,#248,#249,
    #250,#251,#252,#253,#254,#255,#256,#257,#258,#259,#260,#261,#262,
    #263,#264,#265,#266,#267,#268,#269,#270,#271,#272),.UNSPECIFIED.,.T.
  ,.F.,(7,5,5,5,5,5,5,5,5,5,5,5,5,5,5,5,5,5,5,5,5,7),(0.,
    5.654986675692E-02,9.180297916539E-02,0.137168715698,0.169378962996,
    0.241729628857,0.292494078094,0.345774727954,0.391430406494,
    0.426780691378,0.475326418128,0.529754835085,0.590799136778,
    0.647524064012,0.696976889418,0.74178247053,0.78701804793,
    0.811582091957,0.83725599885,0.892172706586,0.942309651966,1.),
  .UNSPECIFIED.);
#166 = CARTESIAN_POINT('',(37.25,-8.,567.31142245955));
#167 = CARTESIAN_POINT('',(37.25,-7.862651988151,567.22482614161));
#168 = CARTESIAN_POINT('',(37.239938892484,-7.723514584574,
    567.13959489349));
#169 = CARTESIAN_POINT('',(37.219325509659,-7.583897440984,
    567.05659975276));
#170 = CARTESIAN_POINT('',(37.187958480881,-7.445156546896,
    566.97658266647));
#171 = CARTESIAN_POINT('',(37.145917541734,-7.308653701752,
    566.90013325477));
#172 = CARTESIAN_POINT('',(37.060924563782,-7.092791984627,
    566.78254138832));
#173 = CARTESIAN_POINT('',(37.024304029276,-7.011338322783,
    566.73898077063));
#174 = CARTESIAN_POINT('',(36.983809181973,-6.931656049331,
    566.69713154311));
#175 = CARTESIAN_POINT('',(36.939595230986,-6.854060870287,
    566.65708290028));
#176 = CARTESIAN_POINT('',(36.891864471483,-6.778846642769,
    566.61890065736));
#177 = CARTESIAN_POINT('',(36.775239070561,-6.612897437763,
    566.53595579582));
#178 = CARTESIAN_POINT('',(36.704233189894,-6.523945185109,
    566.49247042015));
#179 = CARTESIAN_POINT('',(36.628287669805,-6.439835565686,
    566.45219136202));
#180 = CARTESIAN_POINT('',(36.547895791015,-6.360926572028,
    566.4151025575));
#181 = CARTESIAN_POINT('',(36.463604692119,-6.287511455184,
    566.38116248719));
#182 = CARTESIAN_POINT('',(36.313825021792,-6.171737946485,
    566.32840750809));
#183 = CARTESIAN_POINT('',(36.249946902507,-6.12652743732,
    566.30805168721));
#184 = CARTESIAN_POINT('',(36.184542222242,-6.084219723053,
    566.28920720208));
#185 = CARTESIAN_POINT('',(36.117772100334,-6.04484908427,
    566.27183849302));
#186 = CARTESIAN_POINT('',(36.049797085498,-6.008440981792,
    566.25591162665));
#187 = CARTESIAN_POINT('',(35.825744571845,-5.899923996384,
    566.20878546357));
#188 = CARTESIAN_POINT('',(35.665496118058,-5.839894061662,
    566.18330030216));
#189 = CARTESIAN_POINT('',(35.501501535898,-5.794918238438,
    566.16449215802));
#190 = CARTESIAN_POINT('',(35.33509025934,-5.764965717698,
    566.15206014007));
#191 = CARTESIAN_POINT('',(35.167512444629,-5.75,566.1458489975));
#192 = CARTESIAN_POINT('',(34.882465808838,-5.75,566.1458489975));
#193 = CARTESIAN_POINT('',(34.76492438272,-5.757367358876,
    566.14890669331));
#194 = CARTESIAN_POINT('',(34.647784209791,-5.772105021544,
    566.15502349216));
#195 = CARTESIAN_POINT('',(34.53146662168,-5.794222501982,
    566.16423742503));
#196 = CARTESIAN_POINT('',(34.416407788871,-5.823734580375,
    566.17662397729));
#197 = CARTESIAN_POINT('',(34.184095460077,-5.89941567272,
    566.20874670966));
#198 = CARTESIAN_POINT('',(34.066966869518,-5.946353978099,
    566.22882372837));
#199 = CARTESIAN_POINT('',(33.952325520436,-6.001470850044,
    566.25264871476));
#200 = CARTESIAN_POINT('',(33.840838620856,-6.064712265616,
    566.28036677622));
#201 = CARTESIAN_POINT('',(33.733190759481,-6.135975453562,
    566.3121453306));
#202 = CARTESIAN_POINT('',(33.541734020473,-6.282919825409,
    566.37904299832));
#203 = CARTESIAN_POINT('',(33.456695884418,-6.356526723612,
    566.41304117876));
#204 = CARTESIAN_POINT('',(33.375585422765,-6.435710876545,
    566.45022753856));
#205 = CARTESIAN_POINT('',(33.298962773017,-6.520174506742,
    566.49064479466));
#206 = CARTESIAN_POINT('',(33.227332518237,-6.609552920685,
    566.53430947434));
#207 = CARTESIAN_POINT('',(33.109894075558,-6.776109083733,
    566.61751342338));
#208 = CARTESIAN_POINT('',(33.06192446405,-6.851461985591,
    566.65574665813));
#209 = CARTESIAN_POINT('',(33.017486618113,-6.929215827383,
    566.69585814647));
#210 = CARTESIAN_POINT('',(32.976785194916,-7.009074845817,
    566.73778199283));
#211 = CARTESIAN_POINT('',(32.939977311575,-7.090721124685,
    566.78142870082));
#212 = CARTESIAN_POINT('',(32.862122718686,-7.287937468339,
    566.88882719535));
#213 = CARTESIAN_POINT('',(32.824656697115,-7.404708379114,
    566.95395524367));
#214 = CARTESIAN_POINT('',(32.795022552957,-7.52328627311,
    567.02177297705));
#215 = CARTESIAN_POINT('',(32.773304870191,-7.642800675125,
    567.09191054241));
#216 = CARTESIAN_POINT('',(32.759425178153,-7.762372284817,
    567.1639158138));
#217 = CARTESIAN_POINT('',(32.746098076678,-8.014274949967,
    567.31946826464));
#218 = CARTESIAN_POINT('',(32.74860460838,-8.146367530231,567.4033390924
    ));
#219 = CARTESIAN_POINT('',(32.760286922785,-8.276605993107,
    567.48836635625));
#220 = CARTESIAN_POINT('',(32.780708658894,-8.404263072259,
    567.57400799087));
#221 = CARTESIAN_POINT('',(32.809370473375,-8.528678260571,
    567.65968288725));
#222 = CARTESIAN_POINT('',(32.886463371497,-8.784481293962,
    567.84021858178));
#223 = CARTESIAN_POINT('',(32.936905191929,-8.914983539017,
    567.93500457497));
#224 = CARTESIAN_POINT('',(32.996374508013,-9.040264784926,
    568.02853016402));
#225 = CARTESIAN_POINT('',(33.064289309922,-9.159901782331,
    568.12017287057));
#226 = CARTESIAN_POINT('',(33.140132367564,-9.27350785571,
    568.20928661862));
#227 = CARTESIAN_POINT('',(33.30085028934,-9.480305468453,
    568.37502248234));
#228 = CARTESIAN_POINT('',(33.384748687599,-9.574427812706,
    568.45212622767));
#229 = CARTESIAN_POINT('',(33.47477294522,-9.662742723957,
    568.52595311208));
#230 = CARTESIAN_POINT('',(33.570584548983,-9.744919974751,
    568.59591534692));
#231 = CARTESIAN_POINT('',(33.671864814556,-9.820611231057,
    568.66139450033));
#232 = CARTESIAN_POINT('',(33.871113388789,-9.949442876656,
    568.77436169895));
#233 = CARTESIAN_POINT('',(33.967884859182,-10.00425756356,
    568.82310415193));
#234 = CARTESIAN_POINT('',(34.068271318528,-10.05351846306,
    568.86744860577));
#235 = CARTESIAN_POINT('',(34.171902819131,-10.09691049541,
    568.90690648756));
#236 = CARTESIAN_POINT('',(34.278395845476,-10.13415323894,
    568.94103548579));
#237 = CARTESIAN_POINT('',(34.486073464291,-10.19292165636,
    568.99519235881));
#238 = CARTESIAN_POINT('',(34.586796549004,-10.21558962975,
    569.01623886822));
#239 = CARTESIAN_POINT('',(34.689042274358,-10.23275010222,
    569.0322565864));
#240 = CARTESIAN_POINT('',(34.792321789003,-10.2442467568,
    569.04301757308));
#241 = CARTESIAN_POINT('',(34.89614050687,-10.25,569.04840194309));
#242 = CARTESIAN_POINT('',(35.104856226025,-10.25,569.04840194309));
#243 = CARTESIAN_POINT('',(35.209669288732,-10.24413579042,
    569.04291373201));
#244 = CARTESIAN_POINT('',(35.313927209812,-10.23241785588,
    569.03194559514));
#245 = CARTESIAN_POINT('',(35.417121994908,-10.2149287602,
    569.01562201014));
#246 = CARTESIAN_POINT('',(35.518751651692,-10.19183049423,
    568.99417933786));
#247 = CARTESIAN_POINT('',(35.672391497384,-10.14791805737,
    568.95372458201));
#248 = CARTESIAN_POINT('',(35.725866533815,-10.13088013565,
    568.93807610546));
#249 = CARTESIAN_POINT('',(35.778691080381,-10.11228975613,
    568.92106391987));
#250 = CARTESIAN_POINT('',(35.830809816707,-10.09218194633,
    568.90274040273));
#251 = CARTESIAN_POINT('',(35.882168338887,-10.07059506366,
    568.88316247262));
#252 = CARTESIAN_POINT('',(35.985541717231,-10.02350623502,
    568.84068222712));
#253 = CARTESIAN_POINT('',(36.037482674984,-9.997871086965,
    568.81766902228));
#254 = CARTESIAN_POINT('',(36.088491875305,-9.970705179607,
    568.79341503935));
#255 = CARTESIAN_POINT('',(36.138525855481,-9.942049429827,
    568.76798474299));
#256 = CARTESIAN_POINT('',(36.18754184753,-9.911945842987,
    568.74144399784));
#257 = CARTESIAN_POINT('',(36.338075926517,-9.813040923864,
    568.65485780636));
#258 = CARTESIAN_POINT('',(36.43577815814,-9.739234856614,
    568.59109733757));
#259 = CARTESIAN_POINT('',(36.528330397424,-9.659360768708,
    568.52316246998));
#260 = CARTESIAN_POINT('',(36.615443074399,-9.573734613464,
    568.45161415263));
#261 = CARTESIAN_POINT('',(36.696808902992,-9.482656371232,
    568.37698617728));
#262 = CARTESIAN_POINT('',(36.840839278617,-9.298558911009,
    568.2292952676));
#263 = CARTESIAN_POINT('',(36.904538494043,-9.206368678458,
    568.15663755527));
#264 = CARTESIAN_POINT('',(36.962950568877,-9.110053551159,
    568.08217721555));
#265 = CARTESIAN_POINT('',(37.015798045192,-9.009824240325,
    568.00627322582));
#266 = CARTESIAN_POINT('',(37.062772423851,-8.905903084047,
    567.92927232004));
#267 = CARTESIAN_POINT('',(37.150434043669,-8.674979785395,
    567.76202642988));
#268 = CARTESIAN_POINT('',(37.189149581494,-8.546747606892,
    567.67145301986));
#269 = CARTESIAN_POINT('',(37.219039603061,-8.414426088227,
    567.58046755063));
#270 = CARTESIAN_POINT('',(37.23950798375,-8.278680006546,567.4897268408
    ));
#271 = CARTESIAN_POINT('',(37.25,-8.140257225967,567.39985300301));
#272 = CARTESIAN_POINT('',(37.25,-8.,567.31142245955));
#273 = FACE_BOUND('',#274,.T.);
#274 = EDGE_LOOP('',(#275));
#275 = ORIENTED_EDGE('',*,*,#276,.T.);
#276 = EDGE_CURVE('',#277,#277,#279,.T.);
#277 = VERTEX_POINT('',#278);
#278 = CARTESIAN_POINT('',(37.25,8.,567.31142245955));
#279 = B_SPLINE_CURVE_WITH_KNOTS('',6,(#280,#281,#282,#283,#284,#285,
    #286,#287,#288,#289,#290,#291,#292,#293,#294,#295,#296,#297,#298,
    #299,#300,#301,#302,#303,#304,#305,#306,#307,#308,#309,#310,#311,
    #312,#313,#314,#315,#316,#317,#318,#319,#320,#321,#322,#323,#324,
    #325,#326,#327,#328,#329,#330,#331,#332,#333,#334,#335,#336,#337,
    #338,#339,#340,#341,#342,#343,#344,#345,#346,#347,#348,#349,#350,
    #351,#352,#353,#354,#355,#356,#357,#358,#359,#360,#361,#362,#363,
    #364,#365,#366,#367,#368,#369,#370,#371,#372,#373,#374,#375,#376,
    #377,#378,#379,#380,#381,#382,#383,#384,#385,#386),.UNSPECIFIED.,.T.
  ,.F.,(7,5,5,5,5,5,5,5,5,5,5,5,5,5,5,5,5,5,5,5,5,7),(0.,
    5.970110967995E-02,0.107766400351,0.163312263635,0.189087789972,
    0.212849104071,0.258213501664,0.302597657071,0.353701331876,
    0.408654020068,0.470929944395,0.525320238483,0.572313931749,
    0.607876464201,0.653367086575,0.684729014004,0.758260293613,
    0.830363811768,0.862295477846,0.89124276687,0.943320666914,1.),
  .UNSPECIFIED.);
#280 = CARTESIAN_POINT('',(37.25,8.,567.31142245955));
#281 = CARTESIAN_POINT('',(37.25,8.145157479183,567.40294255546));
#282 = CARTESIAN_POINT('',(37.238762035508,8.288337785501,
    567.49600078721));
#283 = CARTESIAN_POINT('',(37.216861278835,8.428615132828,
    567.58996229164));
#284 = CARTESIAN_POINT('',(37.184913702049,8.565172106909,
    567.68414076567));
#285 = CARTESIAN_POINT('',(37.143578844232,8.697286027281,
    567.77781147575));
#286 = CARTESIAN_POINT('',(37.053294544296,8.926586429303,
    567.94462569331));
#287 = CARTESIAN_POINT('',(37.007366413507,9.025646539464,
    568.01827350474));
#288 = CARTESIAN_POINT('',(36.956074884492,9.121288115176,
    568.09087415752));
#289 = CARTESIAN_POINT('',(36.899689255037,9.213317240809,568.1621221653
    ));
#290 = CARTESIAN_POINT('',(36.838452480884,9.301549158752,
    568.23170148725));
#291 = CARTESIAN_POINT('',(36.696460365778,9.483171331561,
    568.37739090556));
#292 = CARTESIAN_POINT('',(36.614122345513,9.575263478073,
    568.45286100344));
#293 = CARTESIAN_POINT('',(36.52590704234,9.661775829095,568.52517701091
    ));
#294 = CARTESIAN_POINT('',(36.432132688242,9.742397463679,
    568.59378586502));
#295 = CARTESIAN_POINT('',(36.333099232784,9.816800819592,
    568.65810623269));
#296 = CARTESIAN_POINT('',(36.180826532406,9.916107742562,
    568.74510957624));
#297 = CARTESIAN_POINT('',(36.131497006281,9.946164577028,
    568.77162893765));
#298 = CARTESIAN_POINT('',(36.081145058373,9.974758238595,
    568.79702293118));
#299 = CARTESIAN_POINT('',(36.029814350937,10.001846083189,
    568.8212248019));
#300 = CARTESIAN_POINT('',(35.977549269532,10.027386631453,
    568.84416929777));
#301 = CARTESIAN_POINT('',(35.875394289388,10.073420718859,
    568.88572629689));
#302 = CARTESIAN_POINT('',(35.825637302943,10.094152804082,
    568.90453756949));
#303 = CARTESIAN_POINT('',(35.775172625672,10.113498226052,
    568.92217106597));
#304 = CARTESIAN_POINT('',(35.724049712953,10.131422331506,
    568.93857538111));
#305 = CARTESIAN_POINT('',(35.672318813565,10.147893412264,
    568.95370312604));
#306 = CARTESIAN_POINT('',(35.520204565775,10.191499819737,
    568.99387237537));
#307 = CARTESIAN_POINT('',(35.418302116393,10.214728474793,
    569.01543506939));
#308 = CARTESIAN_POINT('',(35.314821542055,10.232317174916,
    569.03185135477));
#309 = CARTESIAN_POINT('',(35.210268897358,10.24410217264,
    569.04288227294));
#310 = CARTESIAN_POINT('',(35.105156323367,10.25,569.04840194309));
#311 = CARTESIAN_POINT('',(34.897115913667,10.25,569.04840194309));
#312 = CARTESIAN_POINT('',(34.794271244135,10.244354324222,
    569.0431182338));
#313 = CARTESIAN_POINT('',(34.691950909817,10.233072369576,
    569.03255823703));
#314 = CARTESIAN_POINT('',(34.590636192726,10.216230931648,
    569.01683749344));
#315 = CARTESIAN_POINT('',(34.490802905381,10.193980796276,
    568.99617580143));
#316 = CARTESIAN_POINT('',(34.280217204292,10.134973497115,
    568.94178328595));
#317 = CARTESIAN_POINT('',(34.170135424105,10.096540148452,
    568.90655647751));
#318 = CARTESIAN_POINT('',(34.063109666935,10.05154021048,
    568.86563799746));
#319 = CARTESIAN_POINT('',(33.959561101533,10.000282192474,
    568.81951579899));
#320 = CARTESIAN_POINT('',(33.859895516605,9.943113460942,
    568.76872965117));
#321 = CARTESIAN_POINT('',(33.661924119433,9.813040954054,
    568.65485783279));
#322 = CARTESIAN_POINT('',(33.564221911839,9.739234912391,
    568.59109738548));
#323 = CARTESIAN_POINT('',(33.471669667155,9.659360828696,
    568.52316252056));
#324 = CARTESIAN_POINT('',(33.38455697101,9.573734663684,568.45161419391
    ));
#325 = CARTESIAN_POINT('',(33.303191124267,9.482656406074,
    568.37698620524));
#326 = CARTESIAN_POINT('',(33.142573844114,9.277357813913,568.2122868346
    ));
#327 = CARTESIAN_POINT('',(33.064998241287,9.161605134072,
    568.12143022756));
#328 = CARTESIAN_POINT('',(32.995665230812,9.039569545327,
    568.02793163057));
#329 = CARTESIAN_POINT('',(32.935123594115,8.91166143856,567.93247747537
    ));
#330 = CARTESIAN_POINT('',(32.883992066529,8.778331028021,
    567.83572865957));
#331 = CARTESIAN_POINT('',(32.80714832435,8.519383188854,567.65326276632
    ));
#332 = CARTESIAN_POINT('',(32.779013260607,8.394844844203,
    567.56764197857));
#333 = CARTESIAN_POINT('',(32.759132316198,8.267096617031,
    567.48208074083));
#334 = CARTESIAN_POINT('',(32.748003138624,8.136805072827,
    567.39716112298));
#335 = CARTESIAN_POINT('',(32.746058299482,8.004703254418,
    567.31342533723));
#336 = CARTESIAN_POINT('',(32.760240742314,7.75659101089,567.16046929459
    ));
#337 = CARTESIAN_POINT('',(32.773944817122,7.640864559192,
    567.09084155542));
#338 = CARTESIAN_POINT('',(32.794992026237,7.525208543831,
    567.02297086563));
#339 = CARTESIAN_POINT('',(32.823452618123,7.410419824109,
    566.95726667892));
#340 = CARTESIAN_POINT('',(32.859253855152,7.297287755375,566.8940662774
    ));
#341 = CARTESIAN_POINT('',(32.934663902121,7.102804003869,566.7879114078
    ));
#342 = CARTESIAN_POINT('',(32.971210788792,7.020460170133,
    566.74379601039));
#343 = CARTESIAN_POINT('',(33.011712534147,6.939892701774,
    566.70141428448));
#344 = CARTESIAN_POINT('',(33.056012349742,6.861427557788,
    566.66085957446));
#345 = CARTESIAN_POINT('',(33.103904404889,6.785368271537,
    566.62220086517));
#346 = CARTESIAN_POINT('',(33.220664901007,6.618127656923,566.5385215441
    ));
#347 = CARTESIAN_POINT('',(33.291628079664,6.528693691567,
    566.49475848462));
#348 = CARTESIAN_POINT('',(33.367581665036,6.444111291313,
    566.45421826801));
#349 = CARTESIAN_POINT('',(33.448027155577,6.36474775754,566.41688767227
    ));
#350 = CARTESIAN_POINT('',(33.532409647804,6.290904033747,
    566.38272684543));
#351 = CARTESIAN_POINT('',(33.680586028143,6.175854348408,
    566.33027119759));
#352 = CARTESIAN_POINT('',(33.742661766654,6.131613551364,
    566.31033427692));
#353 = CARTESIAN_POINT('',(33.806195772908,6.090122021813,
    566.29183244925));
#354 = CARTESIAN_POINT('',(33.871038662556,6.051412354417,
    566.27473302911));
#355 = CARTESIAN_POINT('',(33.937041438168,6.0155090581,566.25900469093)
  );
#356 = CARTESIAN_POINT('',(34.161176856797,5.904867900623,
    566.21088514075));
#357 = CARTESIAN_POINT('',(34.323790145026,5.842857535828,
    566.18453974067));
#358 = CARTESIAN_POINT('',(34.490343658322,5.796397841092,
    566.16510627465));
#359 = CARTESIAN_POINT('',(34.659436637283,5.765458175475,566.1522645164
    ));
#360 = CARTESIAN_POINT('',(34.829753819442,5.75,566.1458489975));
#361 = CARTESIAN_POINT('',(35.166940499823,5.75,566.1458489975));
#362 = CARTESIAN_POINT('',(35.333945223294,5.764863694514,
    566.15201779911));
#363 = CARTESIAN_POINT('',(35.499795264457,5.7946117251,566.16436493805)
  );
#364 = CARTESIAN_POINT('',(35.663253788116,5.839280180304,
    566.18304359164));
#365 = CARTESIAN_POINT('',(35.823005921856,5.898899880759,
    566.20835071574));
#366 = CARTESIAN_POINT('',(36.046061372737,6.006502194425,
    566.25506537942));
#367 = CARTESIAN_POINT('',(36.113501220862,6.042456709822,
    566.27078771005));
#368 = CARTESIAN_POINT('',(36.179762852313,6.081323318693,
    566.28792564204));
#369 = CARTESIAN_POINT('',(36.244690280314,6.123077683547,
    566.30651226503));
#370 = CARTESIAN_POINT('',(36.308126871441,6.167687021165,
    566.32658228988));
#371 = CARTESIAN_POINT('',(36.425928984751,6.258100958184,
    566.36774399917));
#372 = CARTESIAN_POINT('',(36.480589993778,6.303405798498,
    566.38856533526));
#373 = CARTESIAN_POINT('',(36.533754722825,6.350973603705,
    566.41065428968));
#374 = CARTESIAN_POINT('',(36.585285698615,6.40074344828,566.43402632673
    ));
#375 = CARTESIAN_POINT('',(36.635051624472,6.452644501011,566.4586941422
    ));
#376 = CARTESIAN_POINT('',(36.769058721536,6.603658035582,
    566.53139557782));
#377 = CARTESIAN_POINT('',(36.849132138791,6.707424663934,
    566.58238149818));
#378 = CARTESIAN_POINT('',(36.922200748872,6.817216891122,
    566.63758187238));
#379 = CARTESIAN_POINT('',(36.987508649936,6.932193234454,
    566.69686873543));
#380 = CARTESIAN_POINT('',(37.044499879278,7.051399723729,
    566.76001536768));
#381 = CARTESIAN_POINT('',(37.14542492212,7.307056675925,566.89923898006
    ));
#382 = CARTESIAN_POINT('',(37.187664388398,7.443857417839,
    566.97583349783));
#383 = CARTESIAN_POINT('',(37.219180708628,7.582917224107,
    567.05601708605));
#384 = CARTESIAN_POINT('',(37.239891889241,7.722864051503,
    567.13919638749));
#385 = CARTESIAN_POINT('',(37.25,7.862331539219,567.2246241023));
#386 = CARTESIAN_POINT('',(37.25,8.,567.31142245955));
#387 = FACE_BOUND('',#388,.T.);
#388 = EDGE_LOOP('',(#389));
#389 = ORIENTED_EDGE('',*,*,#390,.F.);
#390 = EDGE_CURVE('',#391,#391,#393,.T.);
#391 = VERTEX_POINT('',#392);
#392 = CARTESIAN_POINT('',(37.25,8.,592.68857754045));
#393 = B_SPLINE_CURVE_WITH_KNOTS('',6,(#394,#395,#396,#397,#398,#399,
    #400,#401,#402,#403,#404,#405,#406,#407,#408,#409,#410,#411,#412,
    #413,#414,#415,#416,#417,#418,#419,#420,#421,#422,#423,#424,#425,
    #426,#427,#428,#429,#430,#431,#432,#433,#434,#435,#436,#437,#438,
    #439,#440,#441,#442,#443,#444,#445,#446,#447,#448,#449,#450,#451,
    #452,#453,#454,#455,#456,#457,#458,#459,#460,#461,#462,#463,#464,
    #465,#466,#467,#468,#469,#470,#471,#472,#473,#474,#475,#476,#477,
    #478,#479,#480,#481,#482,#483,#484,#485,#486,#487,#488,#489,#490,
    #491,#492,#493,#494,#495,#496,#497,#498,#499,#500),.UNSPECIFIED.,.T.
  ,.F.,(7,5,5,5,5,5,5,5,5,5,5,5,5,5,5,5,5,5,5,5,5,7),(0.,
    5.970110024177E-02,0.107766383339,0.163312237871,0.18908776265,
    0.212849077591,0.258213476793,0.302597633774,0.353701310384,
    0.408654000511,0.47092992703,0.525320223032,0.572313917952,
    0.607876451655,0.653367075631,0.684729004163,0.758260286361,
    0.830363810484,0.862295477624,0.891242767104,0.943320667014,1.),
  .UNSPECIFIED.);
#394 = CARTESIAN_POINT('',(37.25,8.,592.68857754045));
#395 = CARTESIAN_POINT('',(37.25,8.14515747926,592.59705744449));
#396 = CARTESIAN_POINT('',(37.238762035498,8.288337785478,
    592.50399921279));
#397 = CARTESIAN_POINT('',(37.216861278848,8.428615132757,
    592.41003770839));
#398 = CARTESIAN_POINT('',(37.184913702067,8.565172106895,
    592.31585923434));
#399 = CARTESIAN_POINT('',(37.143578844205,8.697286027348,
    592.22218852419));
#400 = CARTESIAN_POINT('',(37.053294544296,8.926586429303,
    592.05537430668));
#401 = CARTESIAN_POINT('',(37.007366413507,9.025646539464,
    591.98172649525));
#402 = CARTESIAN_POINT('',(36.956074884492,9.121288115176,
    591.90912584247));
#403 = CARTESIAN_POINT('',(36.899689255037,9.213317240809,
    591.83787783469));
#404 = CARTESIAN_POINT('',(36.838452480884,9.301549158752,
    591.76829851274));
#405 = CARTESIAN_POINT('',(36.696460365778,9.483171331561,
    591.62260909443));
#406 = CARTESIAN_POINT('',(36.614122345513,9.575263478073,
    591.54713899655));
#407 = CARTESIAN_POINT('',(36.52590704234,9.661775829095,591.47482298908
    ));
#408 = CARTESIAN_POINT('',(36.432132688242,9.742397463679,
    591.40621413497));
#409 = CARTESIAN_POINT('',(36.333099232784,9.816800819592,591.3418937673
    ));
#410 = CARTESIAN_POINT('',(36.180826527719,9.916107745618,
    591.25489042107));
#411 = CARTESIAN_POINT('',(36.131497007758,9.946164576618,
    591.22837106274));
#412 = CARTESIAN_POINT('',(36.081145063277,9.974758235918,
    591.20297707118));
#413 = CARTESIAN_POINT('',(36.029814352084,10.001846082172,
    591.17877519897));
#414 = CARTESIAN_POINT('',(35.977549264433,10.027386633751,
    591.15583070015));
#415 = CARTESIAN_POINT('',(35.875394289387,10.073420718859,
    591.1142737031));
#416 = CARTESIAN_POINT('',(35.825637302943,10.094152804082,
    591.0954624305));
#417 = CARTESIAN_POINT('',(35.775172625672,10.113498226052,
    591.07782893402));
#418 = CARTESIAN_POINT('',(35.724049712953,10.131422331506,
    591.06142461888));
#419 = CARTESIAN_POINT('',(35.672318813565,10.147893412264,
    591.04629687395));
#420 = CARTESIAN_POINT('',(35.520204565775,10.191499819737,
    591.00612762462));
#421 = CARTESIAN_POINT('',(35.418302116393,10.214728474793,
    590.9845649306));
#422 = CARTESIAN_POINT('',(35.314821542055,10.232317174916,
    590.96814864522));
#423 = CARTESIAN_POINT('',(35.210268897358,10.24410217264,
    590.95711772705));
#424 = CARTESIAN_POINT('',(35.105156323367,10.25,590.9515980569));
#425 = CARTESIAN_POINT('',(34.897115913667,10.25,590.9515980569));
#426 = CARTESIAN_POINT('',(34.794271244135,10.244354324222,
    590.95688176619));
#427 = CARTESIAN_POINT('',(34.691950909817,10.233072369576,
    590.96744176296));
#428 = CARTESIAN_POINT('',(34.590636192726,10.216230931648,
    590.98316250655));
#429 = CARTESIAN_POINT('',(34.490802905381,10.193980796276,
    591.00382419857));
#430 = CARTESIAN_POINT('',(34.280217204307,10.134973497119,
    591.05821671404));
#431 = CARTESIAN_POINT('',(34.1701354241,10.096540148453,591.09344352248
    ));
#432 = CARTESIAN_POINT('',(34.063109666921,10.051540210474,
    591.13436200253));
#433 = CARTESIAN_POINT('',(33.959561101531,10.00028219247,591.180484201)
  );
#434 = CARTESIAN_POINT('',(33.859895516618,9.943113460951,
    591.23127034881));
#435 = CARTESIAN_POINT('',(33.661924119433,9.813040954054,591.3451421672
    ));
#436 = CARTESIAN_POINT('',(33.564221911839,9.739234912391,
    591.40890261451));
#437 = CARTESIAN_POINT('',(33.471669667155,9.659360828696,
    591.47683747943));
#438 = CARTESIAN_POINT('',(33.38455697101,9.573734663684,591.54838580608
    ));
#439 = CARTESIAN_POINT('',(33.303191124267,9.482656406074,
    591.62301379476));
#440 = CARTESIAN_POINT('',(33.142573844114,9.277357813913,
    591.78771316539));
#441 = CARTESIAN_POINT('',(33.064998241287,9.161605134072,
    591.87856977243));
#442 = CARTESIAN_POINT('',(32.995665230812,9.039569545327,
    591.97206836942));
#443 = CARTESIAN_POINT('',(32.935123594115,8.91166143856,592.06752252462
    ));
#444 = CARTESIAN_POINT('',(32.883992066529,8.778331028021,
    592.16427134042));
#445 = CARTESIAN_POINT('',(32.80714832435,8.519383188854,592.34673723367
    ));
#446 = CARTESIAN_POINT('',(32.779013260607,8.394844844203,
    592.43235802142));
#447 = CARTESIAN_POINT('',(32.759132316198,8.267096617031,
    592.51791925916));
#448 = CARTESIAN_POINT('',(32.748003138624,8.136805072827,
    592.60283887701));
#449 = CARTESIAN_POINT('',(32.746058299482,8.004703254418,
    592.68657466276));
#450 = CARTESIAN_POINT('',(32.760240742314,7.75659101089,592.8395307054)
  );
#451 = CARTESIAN_POINT('',(32.773944817122,7.640864559192,
    592.90915844457));
#452 = CARTESIAN_POINT('',(32.794992026237,7.525208543831,
    592.97702913436));
#453 = CARTESIAN_POINT('',(32.823452618123,7.410419824109,
    593.04273332107));
#454 = CARTESIAN_POINT('',(32.859253855152,7.297287755375,
    593.10593372259));
#455 = CARTESIAN_POINT('',(32.934663902121,7.102804003869,
    593.21208859219));
#456 = CARTESIAN_POINT('',(32.971210788792,7.020460170133,593.2562039896
    ));
#457 = CARTESIAN_POINT('',(33.011712534147,6.939892701775,
    593.29858571551));
#458 = CARTESIAN_POINT('',(33.056012349742,6.861427557788,
    593.33914042553));
#459 = CARTESIAN_POINT('',(33.103904404889,6.785368271537,
    593.37779913482));
#460 = CARTESIAN_POINT('',(33.220664901007,6.618127656923,
    593.46147845589));
#461 = CARTESIAN_POINT('',(33.291628079664,6.528693691567,
    593.50524151537));
#462 = CARTESIAN_POINT('',(33.367581665036,6.444111291313,
    593.54578173198));
#463 = CARTESIAN_POINT('',(33.448027155577,6.36474775754,593.58311232773
    ));
#464 = CARTESIAN_POINT('',(33.532409647805,6.290904033747,
    593.61727315457));
#465 = CARTESIAN_POINT('',(33.680586028143,6.175854348408,593.6697288024
    ));
#466 = CARTESIAN_POINT('',(33.742661766654,6.131613551364,
    593.68966572307));
#467 = CARTESIAN_POINT('',(33.806195772908,6.090122021813,
    593.70816755074));
#468 = CARTESIAN_POINT('',(33.871038662556,6.051412354417,
    593.72526697088));
#469 = CARTESIAN_POINT('',(33.937041438168,6.0155090581,593.74099530906)
  );
#470 = CARTESIAN_POINT('',(34.161176856797,5.904867900623,
    593.78911485924));
#471 = CARTESIAN_POINT('',(34.323790145026,5.842857535828,
    593.81546025932));
#472 = CARTESIAN_POINT('',(34.490343658322,5.796397841092,
    593.83489372534));
#473 = CARTESIAN_POINT('',(34.659436637283,5.765458175475,
    593.84773548359));
#474 = CARTESIAN_POINT('',(34.829753819442,5.75,593.85415100249));
#475 = CARTESIAN_POINT('',(35.166940507765,5.75,593.85415100249));
#476 = CARTESIAN_POINT('',(35.333945210679,5.764863691992,
    593.84798220197));
#477 = CARTESIAN_POINT('',(35.499795264336,5.794611726815,593.8356350612
    ));
#478 = CARTESIAN_POINT('',(35.663253800684,5.839280183636,
    593.81695640691));
#479 = CARTESIAN_POINT('',(35.823005914202,5.898899877067,
    593.79164928585));
#480 = CARTESIAN_POINT('',(36.046061372737,6.006502194425,
    593.74493462057));
#481 = CARTESIAN_POINT('',(36.113501220862,6.042456709822,
    593.72921228994));
#482 = CARTESIAN_POINT('',(36.179762852313,6.081323318693,
    593.71207435796));
#483 = CARTESIAN_POINT('',(36.244690280314,6.123077683547,
    593.69348773497));
#484 = CARTESIAN_POINT('',(36.308126871441,6.167687021165,
    593.67341771011));
#485 = CARTESIAN_POINT('',(36.42592898377,6.258100957431,593.63225600117
    ));
#486 = CARTESIAN_POINT('',(36.480589993988,6.303405798824,
    593.61143466457));
#487 = CARTESIAN_POINT('',(36.533754723759,6.350973604575,593.5893457099
    ));
#488 = CARTESIAN_POINT('',(36.585285698906,6.400743448417,
    593.56597367321));
#489 = CARTESIAN_POINT('',(36.635051623594,6.452644500022,
    593.54130585827));
#490 = CARTESIAN_POINT('',(36.769058721536,6.603658035583,
    593.46860442217));
#491 = CARTESIAN_POINT('',(36.849132138791,6.707424663934,
    593.41761850181));
#492 = CARTESIAN_POINT('',(36.922200748872,6.817216891122,
    593.36241812761));
#493 = CARTESIAN_POINT('',(36.987508649936,6.932193234454,
    593.30313126456));
#494 = CARTESIAN_POINT('',(37.044499879278,7.051399723729,
    593.23998463231));
#495 = CARTESIAN_POINT('',(37.145424922162,7.307056676033,
    593.10076101987));
#496 = CARTESIAN_POINT('',(37.187664388369,7.443857417814,
    593.02416650217));
#497 = CARTESIAN_POINT('',(37.219180708606,7.582917223993,592.943982914)
  );
#498 = CARTESIAN_POINT('',(37.239891889258,7.722864051467,
    592.86080361253));
#499 = CARTESIAN_POINT('',(37.25,7.862331539336,592.77537589761));
#500 = CARTESIAN_POINT('',(37.25,8.,592.68857754045));
#501 = FACE_BOUND('',#502,.T.);
#502 = EDGE_LOOP('',(#503));
#503 = ORIENTED_EDGE('',*,*,#504,.F.);
#504 = EDGE_CURVE('',#505,#505,#507,.T.);
#505 = VERTEX_POINT('',#506);
#506 = CARTESIAN_POINT('',(57.25,-8.,592.68857754045));
#507 = B_SPLINE_CURVE_WITH_KNOTS('',6,(#508,#509,#510,#511,#512,#513,
    #514,#515,#516,#517,#518,#519,#520,#521,#522,#523,#524,#525,#526,
    #527,#528,#529,#530,#531,#532,#533,#534,#535,#536,#537,#538,#539,
    #540,#541,#542,#543,#544,#545,#546,#547,#548,#549,#550,#551,#552,
    #553,#554,#555,#556,#557,#558,#559,#560,#561,#562,#563,#564,#565,
    #566,#567,#568,#569,#570,#571,#572,#573,#574,#575,#576,#577,#578,
    #579,#580,#581,#582,#583,#584,#585,#586,#587,#588,#589,#590,#591,
    #592,#593,#594,#595,#596,#597,#598,#599,#600,#601,#602,#603,#604,
    #605,#606,#607,#608,#609,#610,#611,#612,#613,#614),.UNSPECIFIED.,.T.
  ,.F.,(7,5,5,5,5,5,5,5,5,5,5,5,5,5,5,5,5,5,5,5,5,7),(0.,
    5.654986586702E-02,9.180297773089E-02,0.13716871358,0.169378960403,
    0.241729628821,0.292494077413,0.345774726596,0.391430404505,
    0.426780688866,0.475326414891,0.529754831026,0.590799131797,
    0.647524058174,0.696976882828,0.741782463253,0.787018039959,
    0.811582086318,0.837255996084,0.892172704753,0.942309650986,1.),
  .UNSPECIFIED.);
#508 = CARTESIAN_POINT('',(57.25,-8.,592.68857754045));
#509 = CARTESIAN_POINT('',(57.25,-7.86265198811,592.7751738584));
#510 = CARTESIAN_POINT('',(57.239938892478,-7.723514584587,
    592.86040510649));
#511 = CARTESIAN_POINT('',(57.219325509667,-7.583897441024,
    592.9434002472));
#512 = CARTESIAN_POINT('',(57.187958480891,-7.445156546905,
    593.02341733352));
#513 = CARTESIAN_POINT('',(57.145917541719,-7.308653701714,
    593.09986674524));
#514 = CARTESIAN_POINT('',(57.060924563782,-7.092791984627,
    593.21745861167));
#515 = CARTESIAN_POINT('',(57.024304029276,-7.011338322783,
    593.26101922936));
#516 = CARTESIAN_POINT('',(56.983809181973,-6.931656049331,
    593.30286845689));
#517 = CARTESIAN_POINT('',(56.939595230986,-6.854060870287,
    593.34291709971));
#518 = CARTESIAN_POINT('',(56.891864471483,-6.778846642769,
    593.38109934263));
#519 = CARTESIAN_POINT('',(56.775239070536,-6.612897437729,
    593.46404420419));
#520 = CARTESIAN_POINT('',(56.704233189896,-6.523945185121,
    593.50752957984));
#521 = CARTESIAN_POINT('',(56.628287669832,-6.439835565715,
    593.54780863796));
#522 = CARTESIAN_POINT('',(56.547895791027,-6.360926572032,
    593.58489744249));
#523 = CARTESIAN_POINT('',(56.463604692089,-6.287511455161,
    593.61883751281));
#524 = CARTESIAN_POINT('',(56.313825021792,-6.171737946485,
    593.6715924919));
#525 = CARTESIAN_POINT('',(56.249946902506,-6.12652743732,
    593.69194831278));
#526 = CARTESIAN_POINT('',(56.184542222241,-6.084219723053,
    593.71079279791));
#527 = CARTESIAN_POINT('',(56.117772100334,-6.04484908427,
    593.72816150697));
#528 = CARTESIAN_POINT('',(56.049797085498,-6.008440981792,
    593.74408837334));
#529 = CARTESIAN_POINT('',(55.825744564076,-5.899923992621,
    593.79121453805));
#530 = CARTESIAN_POINT('',(55.66549613081,-5.839894065055,
    593.81669969636));
#531 = CARTESIAN_POINT('',(55.501501535779,-5.794918240186,
    593.83550784121));
#532 = CARTESIAN_POINT('',(55.335090246543,-5.76496571513,
    593.84793986103));
#533 = CARTESIAN_POINT('',(55.167512452681,-5.75,593.85415100249));
#534 = CARTESIAN_POINT('',(54.882465808838,-5.75,593.85415100249));
#535 = CARTESIAN_POINT('',(54.76492438272,-5.757367358876,
    593.85109330668));
#536 = CARTESIAN_POINT('',(54.64778420979,-5.772105021544,
    593.84497650783));
#537 = CARTESIAN_POINT('',(54.53146662168,-5.794222501982,
    593.83576257496));
#538 = CARTESIAN_POINT('',(54.416407788871,-5.823734580375,
    593.8233760227));
#539 = CARTESIAN_POINT('',(54.184095460077,-5.89941567272,
    593.79125329033));
#540 = CARTESIAN_POINT('',(54.066966869518,-5.946353978099,
    593.77117627163));
#541 = CARTESIAN_POINT('',(53.952325520436,-6.001470850044,
    593.74735128523));
#542 = CARTESIAN_POINT('',(53.840838620856,-6.064712265616,
    593.71963322377));
#543 = CARTESIAN_POINT('',(53.73319075948,-6.135975453562,
    593.68785466939));
#544 = CARTESIAN_POINT('',(53.54173402057,-6.282919825334,
    593.62095700171));
#545 = CARTESIAN_POINT('',(53.456695884384,-6.356526723619,
    593.58695882123));
#546 = CARTESIAN_POINT('',(53.37558542268,-6.435710876633,
    593.54977246139));
#547 = CARTESIAN_POINT('',(53.298962773001,-6.520174506787,
    593.5093552053));
#548 = CARTESIAN_POINT('',(53.227332518301,-6.609552920595,
    593.4656905257));
#549 = CARTESIAN_POINT('',(53.109894075558,-6.776109083733,
    593.38248657661));
#550 = CARTESIAN_POINT('',(53.06192446405,-6.851461985592,
    593.34425334186));
#551 = CARTESIAN_POINT('',(53.017486618113,-6.929215827383,
    593.30414185352));
#552 = CARTESIAN_POINT('',(52.976785194916,-7.009074845817,
    593.26221800716));
#553 = CARTESIAN_POINT('',(52.939977311575,-7.090721124685,
    593.21857129918));
#554 = CARTESIAN_POINT('',(52.862122718693,-7.287937468321,
    593.11117280465));
#555 = CARTESIAN_POINT('',(52.82465669711,-7.404708379119,
    593.04604475632));
#556 = CARTESIAN_POINT('',(52.795022552952,-7.523286273129,
    592.97822702293));
#557 = CARTESIAN_POINT('',(52.773304870193,-7.642800675131,
    592.90808945758));
#558 = CARTESIAN_POINT('',(52.759425178154,-7.762372284798,
    592.8360841862));
#559 = CARTESIAN_POINT('',(52.746098076678,-8.014274949968,
    592.68053173535));
#560 = CARTESIAN_POINT('',(52.74860460838,-8.146367530232,
    592.59666090759));
#561 = CARTESIAN_POINT('',(52.760286922785,-8.276605993108,
    592.51163364374));
#562 = CARTESIAN_POINT('',(52.780708658894,-8.404263072259,
    592.42599200912));
#563 = CARTESIAN_POINT('',(52.809370473375,-8.528678260571,
    592.34031711274));
#564 = CARTESIAN_POINT('',(52.886463371497,-8.784481293962,
    592.15978141821));
#565 = CARTESIAN_POINT('',(52.936905191929,-8.914983539017,
    592.06499542502));
#566 = CARTESIAN_POINT('',(52.996374508013,-9.040264784926,
    591.97146983597));
#567 = CARTESIAN_POINT('',(53.064289309922,-9.159901782332,
    591.87982712942));
#568 = CARTESIAN_POINT('',(53.140132367564,-9.27350785571,
    591.79071338137));
#569 = CARTESIAN_POINT('',(53.30085028934,-9.480305468454,
    591.62497751765));
#570 = CARTESIAN_POINT('',(53.3847486876,-9.574427812706,591.54787377233
    ));
#571 = CARTESIAN_POINT('',(53.47477294522,-9.662742723957,
    591.47404688791));
#572 = CARTESIAN_POINT('',(53.570584548983,-9.744919974751,
    591.40408465307));
#573 = CARTESIAN_POINT('',(53.671864814556,-9.820611231057,
    591.33860549966));
#574 = CARTESIAN_POINT('',(53.871113388778,-9.949442876649,
    591.22563830105));
#575 = CARTESIAN_POINT('',(53.967884859184,-10.00425756357,
    591.17689584806));
#576 = CARTESIAN_POINT('',(54.06827131854,-10.05351846307,
    591.13255139421));
#577 = CARTESIAN_POINT('',(54.171902819136,-10.09691049541,
    591.09309351244));
#578 = CARTESIAN_POINT('',(54.278395845464,-10.13415323894,
    591.05896451421));
#579 = CARTESIAN_POINT('',(54.486073464291,-10.19292165636,
    591.00480764118));
#580 = CARTESIAN_POINT('',(54.586796549004,-10.21558962975,
    590.98376113177));
#581 = CARTESIAN_POINT('',(54.689042274358,-10.23275010222,
    590.96774341359));
#582 = CARTESIAN_POINT('',(54.792321789003,-10.2442467568,
    590.95698242692));
#583 = CARTESIAN_POINT('',(54.89614050687,-10.25,590.9515980569));
#584 = CARTESIAN_POINT('',(55.104856226025,-10.25,590.9515980569));
#585 = CARTESIAN_POINT('',(55.209669288732,-10.24413579042,
    590.95708626798));
#586 = CARTESIAN_POINT('',(55.313927209811,-10.23241785588,
    590.96805440485));
#587 = CARTESIAN_POINT('',(55.417121994908,-10.2149287602,
    590.98437798985));
#588 = CARTESIAN_POINT('',(55.518751651692,-10.19183049423,
    591.00582066213));
#589 = CARTESIAN_POINT('',(55.672391503344,-10.14791805567,
    591.04627541955));
#590 = CARTESIAN_POINT('',(55.725866532407,-10.13088013656,
    591.06192389372));
#591 = CARTESIAN_POINT('',(55.778691074587,-10.11228975825,
    591.07893607818));
#592 = CARTESIAN_POINT('',(55.830809815014,-10.09218194656,
    591.09725959704));
#593 = CARTESIAN_POINT('',(55.882168344491,-10.07059506111,
    591.11683752968));
#594 = CARTESIAN_POINT('',(55.985541712275,-10.02350623728,
    591.15931777083));
#595 = CARTESIAN_POINT('',(56.037482676097,-9.997871085973,
    591.18233097857));
#596 = CARTESIAN_POINT('',(56.088491880071,-9.970705176983,
    591.20658496297));
#597 = CARTESIAN_POINT('',(56.138525856918,-9.94204942942,
    591.23201525739));
#598 = CARTESIAN_POINT('',(56.187541842978,-9.911945845978,
    591.25855599953));
#599 = CARTESIAN_POINT('',(56.338075926517,-9.813040923864,
    591.34514219363));
#600 = CARTESIAN_POINT('',(56.435778158141,-9.739234856614,
    591.40890266242));
#601 = CARTESIAN_POINT('',(56.528330397424,-9.659360768708,
    591.47683753001));
#602 = CARTESIAN_POINT('',(56.615443074399,-9.573734613464,
    591.54838584736));
#603 = CARTESIAN_POINT('',(56.696808902992,-9.482656371232,
    591.62301382271));
#604 = CARTESIAN_POINT('',(56.840839278617,-9.298558911009,
    591.77070473239));
#605 = CARTESIAN_POINT('',(56.904538494043,-9.206368678458,
    591.84336244472));
#606 = CARTESIAN_POINT('',(56.962950568877,-9.110053551158,
    591.91782278445));
#607 = CARTESIAN_POINT('',(57.015798045192,-9.009824240325,
    591.99372677417));
#608 = CARTESIAN_POINT('',(57.062772423851,-8.905903084047,
    592.07072767995));
#609 = CARTESIAN_POINT('',(57.150434043669,-8.674979785394,
    592.23797357011));
#610 = CARTESIAN_POINT('',(57.189149581494,-8.546747606892,
    592.32854698013));
#611 = CARTESIAN_POINT('',(57.219039603061,-8.414426088227,
    592.41953244936));
#612 = CARTESIAN_POINT('',(57.23950798375,-8.278680006546,
    592.51027315919));
#613 = CARTESIAN_POINT('',(57.25,-8.140257225967,592.60014699698));
#614 = CARTESIAN_POINT('',(57.25,-8.,592.68857754045));
#615 = FACE_BOUND('',#616,.T.);
#616 = EDGE_LOOP('',(#617));
#617 = ORIENTED_EDGE('',*,*,#618,.T.);
#618 = EDGE_CURVE('',#619,#619,#621,.T.);
#619 = VERTEX_POINT('',#620);
#620 = CARTESIAN_POINT('',(57.25,-8.,567.31142245955));
#621 = B_SPLINE_CURVE_WITH_KNOTS('',6,(#622,#623,#624,#625,#626,#627,
    #628,#629,#630,#631,#632,#633,#634,#635,#636,#637,#638,#639,#640,
    #641,#642,#643,#644,#645,#646,#647,#648,#649,#650,#651,#652,#653,
    #654,#655,#656,#657,#658,#659,#660,#661,#662,#663,#664,#665,#666,
    #667,#668,#669,#670,#671,#672,#673,#674,#675,#676,#677,#678,#679,
    #680,#681,#682,#683,#684,#685,#686,#687,#688,#689,#690,#691,#692,
    #693,#694,#695,#696,#697,#698,#699,#700,#701,#702,#703,#704,#705,
    #706,#707,#708,#709,#710,#711,#712,#713,#714,#715,#716,#717,#718,
    #719,#720,#721,#722,#723,#724,#725,#726,#727,#728),.UNSPECIFIED.,.T.
  ,.F.,(7,5,5,5,5,5,5,5,5,5,5,5,5,5,5,5,5,5,5,5,5,7),(0.,
    5.654986392026E-02,9.180297457055E-02,0.137168708857,0.169378954572,
    0.241729620499,0.292494067342,0.345774714691,0.391430391078,
    0.426780674295,0.475326398749,0.529754813122,0.590799111917,
    0.647524036458,0.696976859511,0.741782438485,0.787018013727,
    0.81158205929,0.837255970634,0.892172687892,0.942309641964,1.),
  .UNSPECIFIED.);
#622 = CARTESIAN_POINT('',(57.25,-8.,567.31142245955));
#623 = CARTESIAN_POINT('',(57.25,-7.86265198811,567.22482614159));
#624 = CARTESIAN_POINT('',(57.239938892478,-7.723514584587,
    567.1395948935));
#625 = CARTESIAN_POINT('',(57.219325509667,-7.583897441024,
    567.05659975279));
#626 = CARTESIAN_POINT('',(57.187958480891,-7.445156546905,
    566.97658266647));
#627 = CARTESIAN_POINT('',(57.145917541719,-7.308653701714,
    566.90013325475));
#628 = CARTESIAN_POINT('',(57.060924563782,-7.092791984627,
    566.78254138832));
#629 = CARTESIAN_POINT('',(57.024304029276,-7.011338322783,
    566.73898077063));
#630 = CARTESIAN_POINT('',(56.983809181973,-6.931656049331,
    566.69713154311));
#631 = CARTESIAN_POINT('',(56.939595230986,-6.854060870287,
    566.65708290028));
#632 = CARTESIAN_POINT('',(56.891864471483,-6.778846642769,
    566.61890065736));
#633 = CARTESIAN_POINT('',(56.775239070536,-6.612897437729,
    566.5359557958));
#634 = CARTESIAN_POINT('',(56.704233189896,-6.523945185121,
    566.49247042015));
#635 = CARTESIAN_POINT('',(56.628287669832,-6.439835565715,
    566.45219136203));
#636 = CARTESIAN_POINT('',(56.547895791027,-6.360926572032,
    566.4151025575));
#637 = CARTESIAN_POINT('',(56.463604692089,-6.287511455161,
    566.38116248718));
#638 = CARTESIAN_POINT('',(56.313825021793,-6.171737946485,
    566.32840750809));
#639 = CARTESIAN_POINT('',(56.249946902506,-6.12652743732,
    566.30805168721));
#640 = CARTESIAN_POINT('',(56.184542222241,-6.084219723053,
    566.28920720208));
#641 = CARTESIAN_POINT('',(56.117772100334,-6.04484908427,
    566.27183849302));
#642 = CARTESIAN_POINT('',(56.049797085499,-6.008440981792,
    566.25591162665));
#643 = CARTESIAN_POINT('',(55.825744564076,-5.899923992621,
    566.20878546194));
#644 = CARTESIAN_POINT('',(55.66549613081,-5.839894065055,
    566.18330030363));
#645 = CARTESIAN_POINT('',(55.501501535779,-5.794918240186,
    566.16449215878));
#646 = CARTESIAN_POINT('',(55.335090246543,-5.76496571513,
    566.15206013896));
#647 = CARTESIAN_POINT('',(55.167512452681,-5.75,566.1458489975));
#648 = CARTESIAN_POINT('',(54.882465808838,-5.75,566.1458489975));
#649 = CARTESIAN_POINT('',(54.76492438272,-5.757367358876,
    566.14890669331));
#650 = CARTESIAN_POINT('',(54.647784209791,-5.772105021544,
    566.15502349216));
#651 = CARTESIAN_POINT('',(54.53146662168,-5.794222501982,
    566.16423742503));
#652 = CARTESIAN_POINT('',(54.416407788871,-5.823734580375,
    566.17662397729));
#653 = CARTESIAN_POINT('',(54.184095460077,-5.89941567272,
    566.20874670966));
#654 = CARTESIAN_POINT('',(54.066966869518,-5.946353978099,
    566.22882372837));
#655 = CARTESIAN_POINT('',(53.952325520435,-6.001470850044,
    566.25264871476));
#656 = CARTESIAN_POINT('',(53.840838620856,-6.064712265616,
    566.28036677622));
#657 = CARTESIAN_POINT('',(53.733190759481,-6.135975453562,
    566.3121453306));
#658 = CARTESIAN_POINT('',(53.541734020473,-6.282919825409,
    566.37904299832));
#659 = CARTESIAN_POINT('',(53.456695884418,-6.356526723613,
    566.41304117876));
#660 = CARTESIAN_POINT('',(53.375585422765,-6.435710876545,
    566.45022753856));
#661 = CARTESIAN_POINT('',(53.298962773017,-6.520174506743,
    566.49064479466));
#662 = CARTESIAN_POINT('',(53.227332518237,-6.609552920686,
    566.53430947434));
#663 = CARTESIAN_POINT('',(53.109894075558,-6.776109083733,
    566.61751342338));
#664 = CARTESIAN_POINT('',(53.06192446405,-6.851461985592,
    566.65574665813));
#665 = CARTESIAN_POINT('',(53.017486618113,-6.929215827383,
    566.69585814647));
#666 = CARTESIAN_POINT('',(52.976785194916,-7.009074845817,
    566.73778199283));
#667 = CARTESIAN_POINT('',(52.939977311575,-7.090721124685,
    566.78142870082));
#668 = CARTESIAN_POINT('',(52.862122718693,-7.287937468321,
    566.88882719534));
#669 = CARTESIAN_POINT('',(52.82465669711,-7.404708379119,
    566.95395524367));
#670 = CARTESIAN_POINT('',(52.795022552952,-7.523286273129,
    567.02177297706));
#671 = CARTESIAN_POINT('',(52.773304870193,-7.642800675131,
    567.09191054242));
#672 = CARTESIAN_POINT('',(52.759425178154,-7.762372284798,
    567.16391581379));
#673 = CARTESIAN_POINT('',(52.746098076678,-8.014274949968,
    567.31946826464));
#674 = CARTESIAN_POINT('',(52.74860460838,-8.146367530232,567.4033390924
    ));
#675 = CARTESIAN_POINT('',(52.760286922785,-8.276605993108,
    567.48836635625));
#676 = CARTESIAN_POINT('',(52.780708658894,-8.404263072259,
    567.57400799087));
#677 = CARTESIAN_POINT('',(52.809370473375,-8.528678260571,
    567.65968288725));
#678 = CARTESIAN_POINT('',(52.886463371497,-8.784481293962,
    567.84021858178));
#679 = CARTESIAN_POINT('',(52.936905191929,-8.914983539017,
    567.93500457497));
#680 = CARTESIAN_POINT('',(52.996374508013,-9.040264784926,
    568.02853016402));
#681 = CARTESIAN_POINT('',(53.064289309922,-9.159901782332,
    568.12017287057));
#682 = CARTESIAN_POINT('',(53.140132367564,-9.27350785571,
    568.20928661862));
#683 = CARTESIAN_POINT('',(53.30085028934,-9.480305468453,
    568.37502248234));
#684 = CARTESIAN_POINT('',(53.3847486876,-9.574427812706,568.45212622767
    ));
#685 = CARTESIAN_POINT('',(53.47477294522,-9.662742723957,
    568.52595311208));
#686 = CARTESIAN_POINT('',(53.570584548983,-9.744919974751,
    568.59591534692));
#687 = CARTESIAN_POINT('',(53.671864814556,-9.820611231057,
    568.66139450033));
#688 = CARTESIAN_POINT('',(53.871113388778,-9.949442876649,
    568.77436169894));
#689 = CARTESIAN_POINT('',(53.967884859184,-10.00425756357,
    568.82310415193));
#690 = CARTESIAN_POINT('',(54.06827131854,-10.05351846307,
    568.86744860578));
#691 = CARTESIAN_POINT('',(54.171902819136,-10.09691049541,
    568.90690648756));
#692 = CARTESIAN_POINT('',(54.278395845464,-10.13415323894,
    568.94103548578));
#693 = CARTESIAN_POINT('',(54.486073464291,-10.19292165636,
    568.99519235881));
#694 = CARTESIAN_POINT('',(54.586796549004,-10.21558962975,
    569.01623886822));
#695 = CARTESIAN_POINT('',(54.689042274358,-10.23275010222,
    569.0322565864));
#696 = CARTESIAN_POINT('',(54.792321789003,-10.2442467568,
    569.04301757308));
#697 = CARTESIAN_POINT('',(54.89614050687,-10.25,569.04840194309));
#698 = CARTESIAN_POINT('',(55.104856226025,-10.25,569.04840194309));
#699 = CARTESIAN_POINT('',(55.209669288732,-10.24413579042,
    569.04291373201));
#700 = CARTESIAN_POINT('',(55.313927209812,-10.23241785588,
    569.03194559514));
#701 = CARTESIAN_POINT('',(55.417121994908,-10.2149287602,
    569.01562201014));
#702 = CARTESIAN_POINT('',(55.518751651692,-10.19183049423,
    568.99417933786));
#703 = CARTESIAN_POINT('',(55.672391503344,-10.14791805567,
    568.95372458044));
#704 = CARTESIAN_POINT('',(55.725866532407,-10.13088013656,
    568.93807610627));
#705 = CARTESIAN_POINT('',(55.778691074587,-10.11228975825,
    568.92106392181));
#706 = CARTESIAN_POINT('',(55.830809815014,-10.09218194656,
    568.90274040295));
#707 = CARTESIAN_POINT('',(55.882168344491,-10.07059506111,
    568.88316247031));
#708 = CARTESIAN_POINT('',(55.985541717231,-10.02350623502,
    568.84068222712));
#709 = CARTESIAN_POINT('',(56.037482674984,-9.997871086965,
    568.81766902228));
#710 = CARTESIAN_POINT('',(56.088491875305,-9.970705179607,
    568.79341503935));
#711 = CARTESIAN_POINT('',(56.138525855481,-9.942049429827,
    568.76798474299));
#712 = CARTESIAN_POINT('',(56.18754184753,-9.911945842987,
    568.74144399784));
#713 = CARTESIAN_POINT('',(56.338075926517,-9.813040923864,
    568.65485780636));
#714 = CARTESIAN_POINT('',(56.435778158141,-9.739234856614,
    568.59109733757));
#715 = CARTESIAN_POINT('',(56.528330397424,-9.659360768708,
    568.52316246998));
#716 = CARTESIAN_POINT('',(56.615443074399,-9.573734613464,
    568.45161415263));
#717 = CARTESIAN_POINT('',(56.696808902992,-9.482656371232,
    568.37698617728));
#718 = CARTESIAN_POINT('',(56.840839278617,-9.298558911009,
    568.2292952676));
#719 = CARTESIAN_POINT('',(56.904538494043,-9.206368678458,
    568.15663755527));
#720 = CARTESIAN_POINT('',(56.962950568877,-9.110053551158,
    568.08217721555));
#721 = CARTESIAN_POINT('',(57.015798045192,-9.009824240325,
    568.00627322582));
#722 = CARTESIAN_POINT('',(57.062772423851,-8.905903084047,
    567.92927232004));
#723 = CARTESIAN_POINT('',(57.150434043669,-8.674979785394,
    567.76202642988));
#724 = CARTESIAN_POINT('',(57.189149581494,-8.546747606891,
    567.67145301986));
#725 = CARTESIAN_POINT('',(57.219039603061,-8.414426088227,
    567.58046755063));
#726 = CARTESIAN_POINT('',(57.23950798375,-8.278680006546,567.4897268408
    ));
#727 = CARTESIAN_POINT('',(57.25,-8.140257225967,567.39985300301));
#728 = CARTESIAN_POINT('',(57.25,-8.,567.31142245955));
#729 = FACE_BOUND('',#730,.T.);
#730 = EDGE_LOOP('',(#731));
#731 = ORIENTED_EDGE('',*,*,#732,.T.);
#732 = EDGE_CURVE('',#733,#733,#735,.T.);
#733 = VERTEX_POINT('',#734);
#734 = CARTESIAN_POINT('',(57.25,8.,567.31142245955));
#735 = B_SPLINE_CURVE_WITH_KNOTS('',6,(#736,#737,#738,#739,#740,#741,
    #742,#743,#744,#745,#746,#747,#748,#749,#750,#751,#752,#753,#754,
    #755,#756,#757,#758,#759,#760,#761,#762,#763,#764,#765,#766,#767,
    #768,#769,#770,#771,#772,#773,#774,#775,#776,#777,#778,#779,#780,
    #781,#782,#783,#784,#785,#786,#787,#788,#789,#790,#791,#792,#793,
    #794,#795,#796,#797,#798,#799,#800,#801,#802,#803,#804,#805,#806,
    #807,#808,#809,#810,#811,#812,#813,#814,#815,#816,#817,#818,#819,
    #820,#821,#822,#823,#824,#825,#826,#827,#828,#829,#830,#831,#832,
    #833,#834,#835,#836,#837,#838,#839,#840,#841,#842),.UNSPECIFIED.,.T.
  ,.F.,(7,5,5,5,5,5,5,5,5,5,5,5,5,5,5,5,5,5,5,5,5,7),(0.,
    5.97010965869E-02,0.107766376744,0.163312227878,0.189087751079,
    0.212849064566,0.258213460992,0.302597615258,0.353701288748,
    0.408653975526,0.470929896784,0.52532018975,0.57231388204,
    0.607876413753,0.653367035182,0.684728966048,0.758260262969,
    0.830363798099,0.862295471695,0.891242764462,0.943320665984,1.),
  .UNSPECIFIED.);
#736 = CARTESIAN_POINT('',(57.25,8.,567.31142245955));
#737 = CARTESIAN_POINT('',(57.25,8.145157479266,567.40294255551));
#738 = CARTESIAN_POINT('',(57.238762035497,8.288337785476,567.4960007872
    ));
#739 = CARTESIAN_POINT('',(57.216861278849,8.428615132751,
    567.58996229159));
#740 = CARTESIAN_POINT('',(57.184913702069,8.565172106893,
    567.68414076565));
#741 = CARTESIAN_POINT('',(57.143578844203,8.697286027353,567.7778114758
    ));
#742 = CARTESIAN_POINT('',(57.053294544296,8.926586429303,
    567.94462569331));
#743 = CARTESIAN_POINT('',(57.007366413507,9.025646539464,
    568.01827350474));
#744 = CARTESIAN_POINT('',(56.956074884492,9.121288115176,
    568.09087415752));
#745 = CARTESIAN_POINT('',(56.899689255037,9.213317240809,568.1621221653
    ));
#746 = CARTESIAN_POINT('',(56.838452480884,9.301549158752,
    568.23170148725));
#747 = CARTESIAN_POINT('',(56.696460365778,9.483171331561,
    568.37739090556));
#748 = CARTESIAN_POINT('',(56.614122345512,9.575263478073,
    568.45286100344));
#749 = CARTESIAN_POINT('',(56.52590704234,9.661775829095,568.52517701091
    ));
#750 = CARTESIAN_POINT('',(56.432132688242,9.742397463679,
    568.59378586502));
#751 = CARTESIAN_POINT('',(56.333099232784,9.816800819592,
    568.65810623269));
#752 = CARTESIAN_POINT('',(56.180826527719,9.916107745618,
    568.74510957892));
#753 = CARTESIAN_POINT('',(56.131497007758,9.946164576618,
    568.77162893725));
#754 = CARTESIAN_POINT('',(56.081145063277,9.974758235918,
    568.79702292881));
#755 = CARTESIAN_POINT('',(56.029814352084,10.001846082172,
    568.82122480102));
#756 = CARTESIAN_POINT('',(55.977549264433,10.027386633751,
    568.84416929984));
#757 = CARTESIAN_POINT('',(55.875394289388,10.073420718859,
    568.88572629689));
#758 = CARTESIAN_POINT('',(55.825637302943,10.094152804082,
    568.90453756949));
#759 = CARTESIAN_POINT('',(55.775172625672,10.113498226052,
    568.92217106597));
#760 = CARTESIAN_POINT('',(55.724049712953,10.131422331506,
    568.93857538111));
#761 = CARTESIAN_POINT('',(55.672318813565,10.147893412264,
    568.95370312604));
#762 = CARTESIAN_POINT('',(55.520204565775,10.191499819737,
    568.99387237538));
#763 = CARTESIAN_POINT('',(55.418302116393,10.214728474793,
    569.01543506939));
#764 = CARTESIAN_POINT('',(55.314821542055,10.232317174916,
    569.03185135477));
#765 = CARTESIAN_POINT('',(55.210268897358,10.24410217264,
    569.04288227294));
#766 = CARTESIAN_POINT('',(55.105156323367,10.25,569.04840194309));
#767 = CARTESIAN_POINT('',(54.897115913667,10.25,569.04840194309));
#768 = CARTESIAN_POINT('',(54.794271244135,10.244354324222,
    569.0431182338));
#769 = CARTESIAN_POINT('',(54.691950909817,10.233072369576,
    569.03255823703));
#770 = CARTESIAN_POINT('',(54.590636192726,10.216230931648,
    569.01683749344));
#771 = CARTESIAN_POINT('',(54.490802905381,10.193980796276,
    568.99617580143));
#772 = CARTESIAN_POINT('',(54.280217204292,10.134973497115,
    568.94178328595));
#773 = CARTESIAN_POINT('',(54.170135424105,10.096540148452,
    568.90655647751));
#774 = CARTESIAN_POINT('',(54.063109666934,10.05154021048,
    568.86563799746));
#775 = CARTESIAN_POINT('',(53.959561101533,10.000282192474,
    568.81951579899));
#776 = CARTESIAN_POINT('',(53.859895516605,9.943113460942,
    568.76872965117));
#777 = CARTESIAN_POINT('',(53.661924119433,9.813040954054,
    568.65485783279));
#778 = CARTESIAN_POINT('',(53.564221911839,9.739234912391,
    568.59109738548));
#779 = CARTESIAN_POINT('',(53.471669667155,9.659360828696,
    568.52316252056));
#780 = CARTESIAN_POINT('',(53.38455697101,9.573734663684,568.45161419391
    ));
#781 = CARTESIAN_POINT('',(53.303191124267,9.482656406074,
    568.37698620524));
#782 = CARTESIAN_POINT('',(53.142573846124,9.277357816483,
    568.21228683666));
#783 = CARTESIAN_POINT('',(53.064998238567,9.161605129092,568.1214302238
    ));
#784 = CARTESIAN_POINT('',(52.995665230441,9.039569545995,
    568.02793163093));
#785 = CARTESIAN_POINT('',(52.935123596673,8.91166144387,567.93247747932
    ));
#786 = CARTESIAN_POINT('',(52.88399206535,8.778331024049,567.83572865677
    ));
#787 = CARTESIAN_POINT('',(52.807148324352,8.519383188863,
    567.65326276632));
#788 = CARTESIAN_POINT('',(52.779013260605,8.394844844201,
    567.56764197857));
#789 = CARTESIAN_POINT('',(52.759132316197,8.267096617021,
    567.48208074083));
#790 = CARTESIAN_POINT('',(52.748003138625,8.136805072824,
    567.39716112297));
#791 = CARTESIAN_POINT('',(52.746058299482,8.004703254427,
    567.31342533724));
#792 = CARTESIAN_POINT('',(52.760240742314,7.756591010894,
    567.16046929459));
#793 = CARTESIAN_POINT('',(52.773944817122,7.64086455919,567.09084155542
    ));
#794 = CARTESIAN_POINT('',(52.794992026238,7.525208543826,
    567.02297086563));
#795 = CARTESIAN_POINT('',(52.823452618124,7.410419824108,
    566.95726667892));
#796 = CARTESIAN_POINT('',(52.85925385515,7.29728775538,566.89406627741)
  );
#797 = CARTESIAN_POINT('',(52.934663902122,7.102804003869,566.7879114078
    ));
#798 = CARTESIAN_POINT('',(52.971210788792,7.020460170133,
    566.74379601039));
#799 = CARTESIAN_POINT('',(53.011712534147,6.939892701774,
    566.70141428448));
#800 = CARTESIAN_POINT('',(53.056012349742,6.861427557788,
    566.66085957446));
#801 = CARTESIAN_POINT('',(53.103904404889,6.785368271537,
    566.62220086517));
#802 = CARTESIAN_POINT('',(53.220664901007,6.618127656923,566.5385215441
    ));
#803 = CARTESIAN_POINT('',(53.291628079664,6.528693691567,
    566.49475848462));
#804 = CARTESIAN_POINT('',(53.367581665036,6.444111291313,
    566.45421826801));
#805 = CARTESIAN_POINT('',(53.448027155577,6.364747757539,
    566.41688767227));
#806 = CARTESIAN_POINT('',(53.532409647805,6.290904033747,
    566.38272684543));
#807 = CARTESIAN_POINT('',(53.680586036028,6.175854342286,566.3302711948
    ));
#808 = CARTESIAN_POINT('',(53.742661764242,6.131613551945,
    566.31033427714));
#809 = CARTESIAN_POINT('',(53.806195764724,6.090122026945,
    566.29183245154));
#810 = CARTESIAN_POINT('',(53.871038660582,6.051412356566,
    566.27473303011));
#811 = CARTESIAN_POINT('',(53.9370414466,6.015509053937,566.25900468912)
  );
#812 = CARTESIAN_POINT('',(54.161176856798,5.904867900623,
    566.21088514075));
#813 = CARTESIAN_POINT('',(54.323790145026,5.842857535828,
    566.18453974067));
#814 = CARTESIAN_POINT('',(54.490343658322,5.796397841092,
    566.16510627465));
#815 = CARTESIAN_POINT('',(54.659436637283,5.765458175475,566.1522645164
    ));
#816 = CARTESIAN_POINT('',(54.829753819442,5.75,566.1458489975));
#817 = CARTESIAN_POINT('',(55.166940499824,5.75,566.1458489975));
#818 = CARTESIAN_POINT('',(55.333945223294,5.764863694515,
    566.15201779911));
#819 = CARTESIAN_POINT('',(55.499795264457,5.7946117251,566.16436493805)
  );
#820 = CARTESIAN_POINT('',(55.663253788116,5.839280180304,
    566.18304359164));
#821 = CARTESIAN_POINT('',(55.823005921856,5.898899880759,
    566.20835071574));
#822 = CARTESIAN_POINT('',(56.046061372737,6.006502194425,
    566.25506537942));
#823 = CARTESIAN_POINT('',(56.113501220862,6.042456709822,
    566.27078771005));
#824 = CARTESIAN_POINT('',(56.179762852313,6.081323318693,
    566.28792564204));
#825 = CARTESIAN_POINT('',(56.244690280314,6.123077683547,
    566.30651226503));
#826 = CARTESIAN_POINT('',(56.308126871442,6.167687021165,
    566.32658228988));
#827 = CARTESIAN_POINT('',(56.425928978806,6.258100953622,
    566.36774399709));
#828 = CARTESIAN_POINT('',(56.480589995048,6.303405800475,
    566.38856533624));
#829 = CARTESIAN_POINT('',(56.533754728484,6.350973608977,
    566.41065429216));
#830 = CARTESIAN_POINT('',(56.585285700383,6.400743449109,
    566.43402632706));
#831 = CARTESIAN_POINT('',(56.635051619151,6.452644495015,
    566.45869413932));
#832 = CARTESIAN_POINT('',(56.769058722416,6.603658036574,566.5313955783
    ));
#833 = CARTESIAN_POINT('',(56.849132137563,6.707424662038,
    566.58238149722));
#834 = CARTESIAN_POINT('',(56.922200748737,6.817216891348,
    566.63758187254));
#835 = CARTESIAN_POINT('',(56.987508651105,6.932193236462,
    566.69686873647));
#836 = CARTESIAN_POINT('',(57.0444998787,7.051399722265,566.76001536689)
  );
#837 = CARTESIAN_POINT('',(57.14542492212,7.307056675925,566.89923898006
    ));
#838 = CARTESIAN_POINT('',(57.187664388397,7.443857417838,
    566.97583349783));
#839 = CARTESIAN_POINT('',(57.219180708628,7.582917224108,
    567.05601708605));
#840 = CARTESIAN_POINT('',(57.239891889241,7.722864051503,
    567.13919638749));
#841 = CARTESIAN_POINT('',(57.25,7.86233153922,567.2246241023));
#842 = CARTESIAN_POINT('',(57.25,8.,567.31142245955));
#843 = FACE_BOUND('',#844,.T.);
#844 = EDGE_LOOP('',(#845));
#845 = ORIENTED_EDGE('',*,*,#846,.F.);
#846 = EDGE_CURVE('',#847,#847,#849,.T.);
#847 = VERTEX_POINT('',#848);
#848 = CARTESIAN_POINT('',(57.25,8.,592.68857754045));
#849 = B_SPLINE_CURVE_WITH_KNOTS('',6,(#850,#851,#852,#853,#854,#855,
    #856,#857,#858,#859,#860,#861,#862,#863,#864,#865,#866,#867,#868,
    #869,#870,#871,#872,#873,#874,#875,#876,#877,#878,#879,#880,#881,
    #882,#883,#884,#885,#886,#887,#888,#889,#890,#891,#892,#893,#894,
    #895,#896,#897,#898,#899,#900,#901,#902,#903,#904,#905,#906,#907,
    #908,#909,#910,#911,#912,#913,#914,#915,#916,#917,#918,#919,#920,
    #921,#922,#923,#924,#925,#926,#927,#928,#929,#930,#931,#932,#933,
    #934,#935,#936,#937,#938,#939,#940,#941,#942,#943,#944,#945,#946,
    #947,#948,#949,#950,#951,#952,#953,#954,#955,#956),.UNSPECIFIED.,.T.
  ,.F.,(7,5,5,5,5,5,5,5,5,5,5,5,5,5,5,5,5,5,5,5,5,7),(0.,
    5.970109664782E-02,0.107766376852,0.16331222804,0.189087748764,
    0.212849060081,0.258213456905,0.30259761156,0.353701285498,
    0.408653972758,0.470929896029,0.525320189195,0.572313881664,
    0.607876413513,0.653367035135,0.684728966149,0.758260259485,
    0.830363798138,0.862295471713,0.891242764461,0.943320665937,1.),
  .UNSPECIFIED.);
#850 = CARTESIAN_POINT('',(57.25,8.,592.68857754045));
#851 = CARTESIAN_POINT('',(57.25,8.14515747926,592.59705744449));
#852 = CARTESIAN_POINT('',(57.238762035498,8.288337785478,
    592.50399921279));
#853 = CARTESIAN_POINT('',(57.216861278848,8.428615132757,
    592.41003770839));
#854 = CARTESIAN_POINT('',(57.184913702067,8.565172106895,
    592.31585923434));
#855 = CARTESIAN_POINT('',(57.143578844205,8.697286027348,
    592.22218852419));
#856 = CARTESIAN_POINT('',(57.053294544296,8.926586429303,
    592.05537430668));
#857 = CARTESIAN_POINT('',(57.007366413507,9.025646539464,
    591.98172649525));
#858 = CARTESIAN_POINT('',(56.956074884492,9.121288115176,
    591.90912584247));
#859 = CARTESIAN_POINT('',(56.899689255037,9.213317240809,
    591.83787783469));
#860 = CARTESIAN_POINT('',(56.838452480884,9.301549158752,
    591.76829851274));
#861 = CARTESIAN_POINT('',(56.696460365778,9.483171331561,
    591.62260909443));
#862 = CARTESIAN_POINT('',(56.614122345513,9.575263478073,
    591.54713899655));
#863 = CARTESIAN_POINT('',(56.52590704234,9.661775829095,591.47482298908
    ));
#864 = CARTESIAN_POINT('',(56.432132688242,9.742397463679,
    591.40621413497));
#865 = CARTESIAN_POINT('',(56.333099232784,9.816800819592,591.3418937673
    ));
#866 = CARTESIAN_POINT('',(56.180826532406,9.916107742562,
    591.25489042375));
#867 = CARTESIAN_POINT('',(56.131497006281,9.946164577028,
    591.22837106235));
#868 = CARTESIAN_POINT('',(56.081145058373,9.974758238595,
    591.20297706881));
#869 = CARTESIAN_POINT('',(56.029814350937,10.001846083189,
    591.17877519809));
#870 = CARTESIAN_POINT('',(55.977549269532,10.027386631453,
    591.15583070222));
#871 = CARTESIAN_POINT('',(55.875394284453,10.073420721083,
    591.11427370109));
#872 = CARTESIAN_POINT('',(55.825637304426,10.094152803874,
    591.0954624307));
#873 = CARTESIAN_POINT('',(55.775172630767,10.11349822419,
    591.07782893571));
#874 = CARTESIAN_POINT('',(55.724049714196,10.131422330719,
    591.06142461958));
#875 = CARTESIAN_POINT('',(55.67231880833,10.147893413765,
    591.04629687257));
#876 = CARTESIAN_POINT('',(55.520204565775,10.191499819737,
    591.00612762462));
#877 = CARTESIAN_POINT('',(55.418302116393,10.214728474793,
    590.9845649306));
#878 = CARTESIAN_POINT('',(55.314821542055,10.232317174916,
    590.96814864522));
#879 = CARTESIAN_POINT('',(55.210268897357,10.24410217264,
    590.95711772705));
#880 = CARTESIAN_POINT('',(55.105156323368,10.25,590.9515980569));
#881 = CARTESIAN_POINT('',(54.897115913667,10.25,590.9515980569));
#882 = CARTESIAN_POINT('',(54.794271244135,10.244354324222,
    590.95688176619));
#883 = CARTESIAN_POINT('',(54.691950909817,10.233072369576,
    590.96744176296));
#884 = CARTESIAN_POINT('',(54.590636192726,10.216230931648,
    590.98316250655));
#885 = CARTESIAN_POINT('',(54.490802905381,10.193980796276,
    591.00382419857));
#886 = CARTESIAN_POINT('',(54.280217204292,10.134973497115,
    591.05821671404));
#887 = CARTESIAN_POINT('',(54.170135424105,10.096540148452,
    591.09344352248));
#888 = CARTESIAN_POINT('',(54.063109666935,10.05154021048,
    591.13436200253));
#889 = CARTESIAN_POINT('',(53.959561101533,10.000282192474,591.180484201
    ));
#890 = CARTESIAN_POINT('',(53.859895516605,9.943113460942,
    591.23127034882));
#891 = CARTESIAN_POINT('',(53.661924119433,9.813040954054,591.3451421672
    ));
#892 = CARTESIAN_POINT('',(53.564221911839,9.739234912391,
    591.40890261451));
#893 = CARTESIAN_POINT('',(53.471669667155,9.659360828696,
    591.47683747943));
#894 = CARTESIAN_POINT('',(53.38455697101,9.573734663684,591.54838580608
    ));
#895 = CARTESIAN_POINT('',(53.303191124267,9.482656406074,
    591.62301379476));
#896 = CARTESIAN_POINT('',(53.142573844114,9.277357813913,
    591.78771316539));
#897 = CARTESIAN_POINT('',(53.064998241287,9.161605134071,
    591.87856977243));
#898 = CARTESIAN_POINT('',(52.995665230812,9.039569545327,
    591.97206836942));
#899 = CARTESIAN_POINT('',(52.935123594115,8.91166143856,592.06752252462
    ));
#900 = CARTESIAN_POINT('',(52.883992066528,8.778331028021,
    592.16427134042));
#901 = CARTESIAN_POINT('',(52.807148324349,8.519383188854,
    592.34673723367));
#902 = CARTESIAN_POINT('',(52.779013260607,8.394844844203,
    592.43235802142));
#903 = CARTESIAN_POINT('',(52.759132316198,8.26709661703,592.51791925916
    ));
#904 = CARTESIAN_POINT('',(52.748003138624,8.136805072826,
    592.60283887702));
#905 = CARTESIAN_POINT('',(52.746058299482,8.004703254417,
    592.68657466276));
#906 = CARTESIAN_POINT('',(52.760240742314,7.756591010889,592.8395307054
    ));
#907 = CARTESIAN_POINT('',(52.773944817122,7.640864559192,
    592.90915844457));
#908 = CARTESIAN_POINT('',(52.794992026237,7.525208543831,
    592.97702913436));
#909 = CARTESIAN_POINT('',(52.823452618123,7.410419824109,
    593.04273332107));
#910 = CARTESIAN_POINT('',(52.859253855152,7.297287755375,
    593.10593372259));
#911 = CARTESIAN_POINT('',(52.934663902122,7.102804003869,
    593.21208859219));
#912 = CARTESIAN_POINT('',(52.971210788792,7.020460170133,593.2562039896
    ));
#913 = CARTESIAN_POINT('',(53.011712534147,6.939892701774,
    593.29858571551));
#914 = CARTESIAN_POINT('',(53.056012349742,6.861427557788,
    593.33914042553));
#915 = CARTESIAN_POINT('',(53.103904404889,6.785368271537,
    593.37779913482));
#916 = CARTESIAN_POINT('',(53.220664901034,6.618127656884,
    593.46147845591));
#917 = CARTESIAN_POINT('',(53.291628079656,6.528693691587,
    593.50524151536));
#918 = CARTESIAN_POINT('',(53.367581664999,6.444111291352,
    593.54578173196));
#919 = CARTESIAN_POINT('',(53.448027155563,6.364747757542,
    593.58311232773));
#920 = CARTESIAN_POINT('',(53.532409647847,6.290904033714,
    593.61727315458));
#921 = CARTESIAN_POINT('',(53.680586036027,6.175854342287,
    593.66972880519));
#922 = CARTESIAN_POINT('',(53.742661764242,6.131613551945,
    593.68966572285));
#923 = CARTESIAN_POINT('',(53.806195764724,6.090122026944,
    593.70816754845));
#924 = CARTESIAN_POINT('',(53.871038660582,6.051412356565,
    593.72526696988));
#925 = CARTESIAN_POINT('',(53.937041446599,6.015509053938,
    593.74099531087));
#926 = CARTESIAN_POINT('',(54.161176848398,5.904867904769,
    593.78911485744));
#927 = CARTESIAN_POINT('',(54.323790158747,5.84285753209,593.81546026094
    ));
#928 = CARTESIAN_POINT('',(54.490343658277,5.796397839165,
    593.83489372618));
#929 = CARTESIAN_POINT('',(54.659436623551,5.765458178302,
    593.84773548237));
#930 = CARTESIAN_POINT('',(54.829753827962,5.75,593.85415100249));
#931 = CARTESIAN_POINT('',(55.166940507765,5.75,593.85415100249));
#932 = CARTESIAN_POINT('',(55.333945210679,5.764863691992,
    593.84798220197));
#933 = CARTESIAN_POINT('',(55.499795264336,5.794611726815,593.8356350612
    ));
#934 = CARTESIAN_POINT('',(55.663253800684,5.839280183636,
    593.81695640691));
#935 = CARTESIAN_POINT('',(55.823005914202,5.898899877067,
    593.79164928585));
#936 = CARTESIAN_POINT('',(56.046061372737,6.006502194425,
    593.74493462057));
#937 = CARTESIAN_POINT('',(56.113501220863,6.042456709822,
    593.72921228994));
#938 = CARTESIAN_POINT('',(56.179762852313,6.081323318693,
    593.71207435796));
#939 = CARTESIAN_POINT('',(56.244690280314,6.123077683547,
    593.69348773497));
#940 = CARTESIAN_POINT('',(56.308126871441,6.167687021165,
    593.67341771011));
#941 = CARTESIAN_POINT('',(56.425928978806,6.258100953621,593.6322560029
    ));
#942 = CARTESIAN_POINT('',(56.480589995048,6.303405800475,
    593.61143466375));
#943 = CARTESIAN_POINT('',(56.533754728484,6.350973608978,
    593.58934570783));
#944 = CARTESIAN_POINT('',(56.585285700383,6.40074344911,593.56597367293
    ));
#945 = CARTESIAN_POINT('',(56.63505161915,6.452644495014,593.54130586068
    ));
#946 = CARTESIAN_POINT('',(56.769058722399,6.603658036554,593.4686044217
    ));
#947 = CARTESIAN_POINT('',(56.849132137587,6.707424662075,
    593.41761850276));
#948 = CARTESIAN_POINT('',(56.92220074874,6.817216891344,593.36241812746
    ));
#949 = CARTESIAN_POINT('',(56.987508651083,6.932193236423,
    593.30313126354));
#950 = CARTESIAN_POINT('',(57.044499878711,7.051399722293,
    593.23998463309));
#951 = CARTESIAN_POINT('',(57.145424922198,7.307056676122,
    593.10076101982));
#952 = CARTESIAN_POINT('',(57.187664388346,7.443857417794,
    593.02416650218));
#953 = CARTESIAN_POINT('',(57.219180708589,7.582917223899,
    592.94398291406));
#954 = CARTESIAN_POINT('',(57.239891889272,7.722864051438,
    592.86080361255));
#955 = CARTESIAN_POINT('',(57.25,7.862331539432,592.77537589755));
#956 = CARTESIAN_POINT('',(57.25,8.,592.68857754045));
#957 = CYLINDRICAL_SURFACE('',#958,15.);
#958 = AXIS2_PLACEMENT_3D('',#959,#960,#961);
#959 = CARTESIAN_POINT('',(25.,0.,580.));
#960 = DIRECTION('',(1.,0.,0.));
#961 = DIRECTION('',(0.,0.,1.));
#962 = ADVANCED_FACE('',(#963),#966,.T.);
#963 = FACE_BOUND('',#964,.T.);
#964 = EDGE_LOOP('',(#965));
#965 = ORIENTED_EDGE('',*,*,#21,.T.);
#966 = PLANE('',#967);
#967 = AXIS2_PLACEMENT_3D('',#968,#969,#970);
#968 = CARTESIAN_POINT('',(65.,0.,580.));
#969 = DIRECTION('',(1.,0.,0.));
#970 = DIRECTION('',(0.,0.,1.));
#971 = ADVANCED_FACE('',(#972),#975,.F.);
#972 = FACE_BOUND('',#973,.T.);
#973 = EDGE_LOOP('',(#974));
#974 = ORIENTED_EDGE('',*,*,#38,.F.);
#975 = PLANE('',#976);
#976 = AXIS2_PLACEMENT_3D('',#977,#978,#979);
#977 = CARTESIAN_POINT('',(25.,0.,580.));
#978 = DIRECTION('',(1.,0.,0.));
#979 = DIRECTION('',(0.,0.,1.));
#980 = ADVANCED_FACE('',(#981),#992,.F.);
#981 = FACE_BOUND('',#982,.F.);
#982 = EDGE_LOOP('',(#983,#984,#990,#991));
#983 = ORIENTED_EDGE('',*,*,#48,.F.);
#984 = ORIENTED_EDGE('',*,*,#985,.F.);
#985 = EDGE_CURVE('',#163,#49,#986,.T.);
#986 = LINE('',#987,#988);
#987 = CARTESIAN_POINT('',(37.25,-8.,560.));
#988 = VECTOR('',#989,1.);
#989 = DIRECTION('',(0.,0.,1.));
#990 = ORIENTED_EDGE('',*,*,#162,.T.);
#991 = ORIENTED_EDGE('',*,*,#985,.T.);
#992 = CYLINDRICAL_SURFACE('',#993,2.25);
#993 = AXIS2_PLACEMENT_3D('',#994,#995,#996);
#994 = CARTESIAN_POINT('',(35.,-8.,560.));
#995 = DIRECTION('',(0.,0.,1.));
#996 = DIRECTION('',(1.,0.,0.));
#997 = ADVANCED_FACE('',(#998),#1009,.F.);
#998 = FACE_BOUND('',#999,.F.);
#999 = EDGE_LOOP('',(#1000,#1001,#1007,#1008));
#1000 = ORIENTED_EDGE('',*,*,#390,.F.);
#1001 = ORIENTED_EDGE('',*,*,#1002,.F.);
#1002 = EDGE_CURVE('',#277,#391,#1003,.T.);
#1003 = LINE('',#1004,#1005);
#1004 = CARTESIAN_POINT('',(37.25,8.,560.));
#1005 = VECTOR('',#1006,1.);
#1006 = DIRECTION('',(0.,0.,1.));
#1007 = ORIENTED_EDGE('',*,*,#276,.T.);
#1008 = ORIENTED_EDGE('',*,*,#1002,.T.);
#1009 = CYLINDRICAL_SURFACE('',#1010,2.25);
#1010 = AXIS2_PLACEMENT_3D('',#1011,#1012,#1013);
#1011 = CARTESIAN_POINT('',(35.,8.,560.));
#1012 = DIRECTION('',(0.,0.,1.));
#1013 = DIRECTION('',(1.,0.,0.));
#1014 = ADVANCED_FACE('',(#1015),#1026,.F.);
#1015 = FACE_BOUND('',#1016,.F.);
#1016 = EDGE_LOOP('',(#1017,#1018,#1024,#1025));
#1017 = ORIENTED_EDGE('',*,*,#504,.F.);
#1018 = ORIENTED_EDGE('',*,*,#1019,.F.);
#1019 = EDGE_CURVE('',#619,#505,#1020,.T.);
#1020 = LINE('',#1021,#1022);
#1021 = CARTESIAN_POINT('',(57.25,-8.,560.));
#1022 = VECTOR('',#1023,1.);
#1023 = DIRECTION('',(0.,0.,1.));
#1024 = ORIENTED_EDGE('',*,*,#618,.T.);
#1025 = ORIENTED_EDGE('',*,*,#1019,.T.);
#1026 = CYLINDRICAL_SURFACE('',#1027,2.25);
#1027 = AXIS2_PLACEMENT_3D('',#1028,#1029,#1030);
#1028 = CARTESIAN_POINT('',(55.,-8.,560.));
#1029 = DIRECTION('',(0.,0.,1.));
#1030 = DIRECTION('',(1.,0.,0.));
#1031 = ADVANCED_FACE('',(#1032),#1043,.F.);
#1032 = FACE_BOUND('',#1033,.F.);
#1033 = EDGE_LOOP('',(#1034,#1035,#1041,#1042));
#1034 = ORIENTED_EDGE('',*,*,#846,.F.);
#1035 = ORIENTED_EDGE('',*,*,#1036,.F.);
#1036 = EDGE_CURVE('',#733,#847,#1037,.T.);
#1037 = LINE('',#1038,#1039);
#1038 = CARTESIAN_POINT('',(57.25,8.,560.));
#1039 = VECTOR('',#1040,1.);
#1040 = DIRECTION('',(0.,0.,1.));
#1041 = ORIENTED_EDGE('',*,*,#732,.T.);
#1042 = ORIENTED_EDGE('',*,*,#1036,.T.);
#1043 = CYLINDRICAL_SURFACE('',#1044,2.25);
#1044 = AXIS2_PLACEMENT_3D('',#1045,#1046,#1047);
#1045 = CARTESIAN_POINT('',(55.,8.,560.));
#1046 = DIRECTION('',(0.,0.,1.));
#1047 = DIRECTION('',(1.,0.,0.));
#1048 = ( GEOMETRIC_REPRESENTATION_CONTEXT(3) 
GLOBAL_UNCERTAINTY_ASSIGNED_CONTEXT((#1052)) 
GLOBAL_UNIT_ASSIGNED_CONTEXT((#1049,#1050,#1051)) REPRESENTATION_CONTEXT
('Context #1','3D Context with UNIT and UNCERTAINTY') );
#1049 = ( LENGTH_UNIT() NAMED_UNIT(*) SI_UNIT(.MILLI.,.METRE.) );
#1050 = ( NAMED_UNIT(*) PLANE_ANGLE_UNIT() SI_UNIT($,.RADIAN.) );
#1051 = ( NAMED_UNIT(*) SI_UNIT($,.STERADIAN.) SOLID_ANGLE_UNIT() );
#1052 = UNCERTAINTY_MEASURE_WITH_UNIT(LENGTH_MEASURE(1.E-07),#1049,
  'distance_accuracy_value','confusion accuracy');
#1053 = PRODUCT_RELATED_PRODUCT_CATEGORY('part',$,(#7));
ENDSEC;
END-ISO-10303-21;
