ISO-10303-21;
HEADER;
FILE_DESCRIPTION(('FreeCAD Model'),'2;1');
FILE_NAME('Open CASCADE Shape Model','2026-09-19T20:59:29',('FreeCAD'),(
    'FreeCAD'),'Open CASCADE STEP processor 7.9','FreeCAD','Unknown');
FILE_SCHEMA(('AUTOMOTIVE_DESIGN { 1 0 10303 214 1 1 1 1 }'));
ENDSEC;
DATA;
#1 = APPLICATION_PROTOCOL_DEFINITION('international standard',
  'automotive_design',2000,#2);
#2 = APPLICATION_CONTEXT(
  'core data for automotive mechanical design processes');
#3 = SHAPE_DEFINITION_REPRESENTATION(#4,#10);
#4 = PRODUCT_DEFINITION_SHAPE('','',#5);
#5 = PRODUCT_DEFINITION('design','',#6,#9);
#6 = PRODUCT_DEFINITION_FORMATION('','',#7);
#7 = PRODUCT('Open CASCADE STEP translator 7.9 38',
  'Open CASCADE STEP translator 7.9 38','',(#8));
#8 = PRODUCT_CONTEXT('',#2,'mechanical');
#9 = PRODUCT_DEFINITION_CONTEXT('part definition',#2,'design');
#10 = ADVANCED_BREP_SHAPE_REPRESENTATION('',(#11,#15),#753);
#11 = AXIS2_PLACEMENT_3D('',#12,#13,#14);
#12 = CARTESIAN_POINT('',(0.,0.,0.));
#13 = DIRECTION('',(0.,0.,1.));
#14 = DIRECTION('',(1.,0.,-0.));
#15 = MANIFOLD_SOLID_BREP('',#16);
#16 = CLOSED_SHELL('',(#17,#50,#76,#179,#204,#229,#254,#279,#310,#334,
    #358,#382,#406,#423,#448,#512,#532,#552,#572,#597,#617,#634,#651,
    #668,#693,#710,#735,#744));
#17 = ADVANCED_FACE('',(#18),#45,.T.);
#18 = FACE_BOUND('',#19,.T.);
#19 = EDGE_LOOP('',(#20,#29,#37,#44));
#20 = ORIENTED_EDGE('',*,*,#21,.T.);
#21 = EDGE_CURVE('',#22,#22,#24,.T.);
#22 = VERTEX_POINT('',#23);
#23 = CARTESIAN_POINT('',(77.95803989155,7.347880794884E-15,610.));
#24 = CIRCLE('',#25,30.);
#25 = AXIS2_PLACEMENT_3D('',#26,#27,#28);
#26 = CARTESIAN_POINT('',(77.95803989155,0.,580.));
#27 = DIRECTION('',(1.,0.,-0.));
#28 = DIRECTION('',(0.,0.,1.));
#29 = ORIENTED_EDGE('',*,*,#30,.T.);
#30 = EDGE_CURVE('',#22,#31,#33,.T.);
#31 = VERTEX_POINT('',#32);
#32 = CARTESIAN_POINT('',(92.,7.347880794884E-15,610.));
#33 = LINE('',#34,#35);
#34 = CARTESIAN_POINT('',(45.3,7.347880794884E-15,610.));
#35 = VECTOR('',#36,1.);
#36 = DIRECTION('',(1.,0.,0.));
#37 = ORIENTED_EDGE('',*,*,#38,.F.);
#38 = EDGE_CURVE('',#31,#31,#39,.T.);
#39 = CIRCLE('',#40,30.);
#40 = AXIS2_PLACEMENT_3D('',#41,#42,#43);
#41 = CARTESIAN_POINT('',(92.,0.,580.));
#42 = DIRECTION('',(1.,0.,-0.));
#43 = DIRECTION('',(0.,0.,1.));
#44 = ORIENTED_EDGE('',*,*,#30,.F.);
#45 = CYLINDRICAL_SURFACE('',#46,30.);
#46 = AXIS2_PLACEMENT_3D('',#47,#48,#49);
#47 = CARTESIAN_POINT('',(45.3,0.,580.));
#48 = DIRECTION('',(1.,0.,0.));
#49 = DIRECTION('',(0.,0.,1.));
#50 = ADVANCED_FACE('',(#51),#71,.F.);
#51 = FACE_BOUND('',#52,.F.);
#52 = EDGE_LOOP('',(#53,#54,#63,#70));
#53 = ORIENTED_EDGE('',*,*,#21,.T.);
#54 = ORIENTED_EDGE('',*,*,#55,.T.);
#55 = EDGE_CURVE('',#22,#56,#58,.T.);
#56 = VERTEX_POINT('',#57);
#57 = CARTESIAN_POINT('',(72.04196010845,7.347880794884E-15,610.));
#58 = CIRCLE('',#59,3.);
#59 = AXIS2_PLACEMENT_3D('',#60,#61,#62);
#60 = CARTESIAN_POINT('',(75.,7.470345474799E-15,610.5));
#61 = DIRECTION('',(0.,1.,-2.449293598295E-16));
#62 = DIRECTION('',(0.,2.449293598295E-16,1.));
#63 = ORIENTED_EDGE('',*,*,#64,.F.);
#64 = EDGE_CURVE('',#56,#56,#65,.T.);
#65 = CIRCLE('',#66,30.);
#66 = AXIS2_PLACEMENT_3D('',#67,#68,#69);
#67 = CARTESIAN_POINT('',(72.04196010845,0.,580.));
#68 = DIRECTION('',(1.,0.,-0.));
#69 = DIRECTION('',(0.,0.,1.));
#70 = ORIENTED_EDGE('',*,*,#55,.F.);
#71 = TOROIDAL_SURFACE('',#72,30.5,3.);
#72 = AXIS2_PLACEMENT_3D('',#73,#74,#75);
#73 = CARTESIAN_POINT('',(75.,0.,580.));
#74 = DIRECTION('',(1.,0.,0.));
#75 = DIRECTION('',(0.,0.,1.));
#76 = ADVANCED_FACE('',(#77,#80,#91,#102,#113,#163),#174,.T.);
#77 = FACE_BOUND('',#78,.T.);
#78 = EDGE_LOOP('',(#79));
#79 = ORIENTED_EDGE('',*,*,#38,.T.);
#80 = FACE_BOUND('',#81,.T.);
#81 = EDGE_LOOP('',(#82));
#82 = ORIENTED_EDGE('',*,*,#83,.T.);
#83 = EDGE_CURVE('',#84,#84,#86,.T.);
#84 = VERTEX_POINT('',#85);
#85 = CARTESIAN_POINT('',(92.,14.142135623731,561.75786437626));
#86 = CIRCLE('',#87,4.1);
#87 = AXIS2_PLACEMENT_3D('',#88,#89,#90);
#88 = CARTESIAN_POINT('',(92.,14.142135623731,565.85786437626));
#89 = DIRECTION('',(-1.,0.,0.));
#90 = DIRECTION('',(0.,0.,-1.));
#91 = FACE_BOUND('',#92,.T.);
#92 = EDGE_LOOP('',(#93));
#93 = ORIENTED_EDGE('',*,*,#94,.T.);
#94 = EDGE_CURVE('',#95,#95,#97,.T.);
#95 = VERTEX_POINT('',#96);
#96 = CARTESIAN_POINT('',(92.,14.142135623731,590.04213562373));
#97 = CIRCLE('',#98,4.1);
#98 = AXIS2_PLACEMENT_3D('',#99,#100,#101);
#99 = CARTESIAN_POINT('',(92.,14.142135623731,594.14213562373));
#100 = DIRECTION('',(-1.,0.,0.));
#101 = DIRECTION('',(0.,0.,-1.));
#102 = FACE_BOUND('',#103,.T.);
#103 = EDGE_LOOP('',(#104));
#104 = ORIENTED_EDGE('',*,*,#105,.T.);
#105 = EDGE_CURVE('',#106,#106,#108,.T.);
#106 = VERTEX_POINT('',#107);
#107 = CARTESIAN_POINT('',(92.,-14.14213562373,561.75786437626));
#108 = CIRCLE('',#109,4.1);
#109 = AXIS2_PLACEMENT_3D('',#110,#111,#112);
#110 = CARTESIAN_POINT('',(92.,-14.14213562373,565.85786437626));
#111 = DIRECTION('',(-1.,0.,0.));
#112 = DIRECTION('',(0.,0.,-1.));
#113 = FACE_BOUND('',#114,.T.);
#114 = EDGE_LOOP('',(#115,#125,#133,#141,#149,#157));
#115 = ORIENTED_EDGE('',*,*,#116,.F.);
#116 = EDGE_CURVE('',#117,#119,#121,.T.);
#117 = VERTEX_POINT('',#118);
#118 = CARTESIAN_POINT('',(92.,6.928203230276,568.));
#119 = VERTEX_POINT('',#120);
#120 = CARTESIAN_POINT('',(92.,13.856406460551,580.));
#121 = LINE('',#122,#123);
#122 = CARTESIAN_POINT('',(92.,6.928203230276,568.));
#123 = VECTOR('',#124,1.);
#124 = DIRECTION('',(-1.922962686384E-16,0.5,0.866025403784));
#125 = ORIENTED_EDGE('',*,*,#126,.F.);
#126 = EDGE_CURVE('',#127,#117,#129,.T.);
#127 = VERTEX_POINT('',#128);
#128 = CARTESIAN_POINT('',(92.,-6.928203230276,568.));
#129 = LINE('',#130,#131);
#130 = CARTESIAN_POINT('',(92.,-6.928203230276,568.));
#131 = VECTOR('',#132,1.);
#132 = DIRECTION('',(8.539669799672E-32,1.,-3.845925372767E-16));
#133 = ORIENTED_EDGE('',*,*,#134,.F.);
#134 = EDGE_CURVE('',#135,#127,#137,.T.);
#135 = VERTEX_POINT('',#136);
#136 = CARTESIAN_POINT('',(92.,-13.85640646055,580.));
#137 = LINE('',#138,#139);
#138 = CARTESIAN_POINT('',(92.,-13.85640646055,580.));
#139 = VECTOR('',#140,1.);
#140 = DIRECTION('',(1.922962686384E-16,0.5,-0.866025403784));
#141 = ORIENTED_EDGE('',*,*,#142,.F.);
#142 = EDGE_CURVE('',#143,#135,#145,.T.);
#143 = VERTEX_POINT('',#144);
#144 = CARTESIAN_POINT('',(92.,-6.928203230276,592.));
#145 = LINE('',#146,#147);
#146 = CARTESIAN_POINT('',(92.,-6.928203230276,592.));
#147 = VECTOR('',#148,1.);
#148 = DIRECTION('',(1.922962686384E-16,-0.5,-0.866025403784));
#149 = ORIENTED_EDGE('',*,*,#150,.F.);
#150 = EDGE_CURVE('',#151,#143,#153,.T.);
#151 = VERTEX_POINT('',#152);
#152 = CARTESIAN_POINT('',(92.,6.928203230276,592.));
#153 = LINE('',#154,#155);
#154 = CARTESIAN_POINT('',(92.,6.928203230276,592.));
#155 = VECTOR('',#156,1.);
#156 = DIRECTION('',(2.846556599891E-32,-1.,-1.281975124256E-16));
#157 = ORIENTED_EDGE('',*,*,#158,.F.);
#158 = EDGE_CURVE('',#119,#151,#159,.T.);
#159 = LINE('',#160,#161);
#160 = CARTESIAN_POINT('',(92.,13.856406460551,580.));
#161 = VECTOR('',#162,1.);
#162 = DIRECTION('',(-1.922962686384E-16,-0.5,0.866025403784));
#163 = FACE_BOUND('',#164,.T.);
#164 = EDGE_LOOP('',(#165));
#165 = ORIENTED_EDGE('',*,*,#166,.T.);
#166 = EDGE_CURVE('',#167,#167,#169,.T.);
#167 = VERTEX_POINT('',#168);
#168 = CARTESIAN_POINT('',(92.,-14.14213562373,590.04213562373));
#169 = CIRCLE('',#170,4.1);
#170 = AXIS2_PLACEMENT_3D('',#171,#172,#173);
#171 = CARTESIAN_POINT('',(92.,-14.14213562373,594.14213562373));
#172 = DIRECTION('',(-1.,0.,0.));
#173 = DIRECTION('',(0.,0.,-1.));
#174 = PLANE('',#175);
#175 = AXIS2_PLACEMENT_3D('',#176,#177,#178);
#176 = CARTESIAN_POINT('',(92.,0.,580.));
#177 = DIRECTION('',(1.,0.,0.));
#178 = DIRECTION('',(0.,0.,1.));
#179 = ADVANCED_FACE('',(#180),#199,.T.);
#180 = FACE_BOUND('',#181,.T.);
#181 = EDGE_LOOP('',(#182,#183,#191,#198));
#182 = ORIENTED_EDGE('',*,*,#64,.F.);
#183 = ORIENTED_EDGE('',*,*,#184,.F.);
#184 = EDGE_CURVE('',#185,#56,#187,.T.);
#185 = VERTEX_POINT('',#186);
#186 = CARTESIAN_POINT('',(45.3,7.347880794884E-15,610.));
#187 = LINE('',#188,#189);
#188 = CARTESIAN_POINT('',(45.3,7.347880794884E-15,610.));
#189 = VECTOR('',#190,1.);
#190 = DIRECTION('',(1.,0.,0.));
#191 = ORIENTED_EDGE('',*,*,#192,.T.);
#192 = EDGE_CURVE('',#185,#185,#193,.T.);
#193 = CIRCLE('',#194,30.);
#194 = AXIS2_PLACEMENT_3D('',#195,#196,#197);
#195 = CARTESIAN_POINT('',(45.3,0.,580.));
#196 = DIRECTION('',(1.,0.,-0.));
#197 = DIRECTION('',(0.,0.,1.));
#198 = ORIENTED_EDGE('',*,*,#184,.T.);
#199 = CYLINDRICAL_SURFACE('',#200,30.);
#200 = AXIS2_PLACEMENT_3D('',#201,#202,#203);
#201 = CARTESIAN_POINT('',(45.3,0.,580.));
#202 = DIRECTION('',(1.,0.,0.));
#203 = DIRECTION('',(0.,0.,1.));
#204 = ADVANCED_FACE('',(#205),#224,.F.);
#205 = FACE_BOUND('',#206,.F.);
#206 = EDGE_LOOP('',(#207,#216,#222,#223));
#207 = ORIENTED_EDGE('',*,*,#208,.F.);
#208 = EDGE_CURVE('',#209,#209,#211,.T.);
#209 = VERTEX_POINT('',#210);
#210 = CARTESIAN_POINT('',(87.49,14.142135623731,561.75786437626));
#211 = CIRCLE('',#212,4.1);
#212 = AXIS2_PLACEMENT_3D('',#213,#214,#215);
#213 = CARTESIAN_POINT('',(87.49,14.142135623731,565.85786437626));
#214 = DIRECTION('',(-1.,0.,0.));
#215 = DIRECTION('',(0.,0.,-1.));
#216 = ORIENTED_EDGE('',*,*,#217,.F.);
#217 = EDGE_CURVE('',#84,#209,#218,.T.);
#218 = LINE('',#219,#220);
#219 = CARTESIAN_POINT('',(92.,14.142135623731,561.75786437626));
#220 = VECTOR('',#221,1.);
#221 = DIRECTION('',(-1.,0.,0.));
#222 = ORIENTED_EDGE('',*,*,#83,.T.);
#223 = ORIENTED_EDGE('',*,*,#217,.T.);
#224 = CYLINDRICAL_SURFACE('',#225,4.1);
#225 = AXIS2_PLACEMENT_3D('',#226,#227,#228);
#226 = CARTESIAN_POINT('',(92.,14.142135623731,565.85786437626));
#227 = DIRECTION('',(-1.,0.,0.));
#228 = DIRECTION('',(0.,0.,-1.));
#229 = ADVANCED_FACE('',(#230),#249,.F.);
#230 = FACE_BOUND('',#231,.F.);
#231 = EDGE_LOOP('',(#232,#241,#247,#248));
#232 = ORIENTED_EDGE('',*,*,#233,.F.);
#233 = EDGE_CURVE('',#234,#234,#236,.T.);
#234 = VERTEX_POINT('',#235);
#235 = CARTESIAN_POINT('',(87.49,14.142135623731,590.04213562373));
#236 = CIRCLE('',#237,4.1);
#237 = AXIS2_PLACEMENT_3D('',#238,#239,#240);
#238 = CARTESIAN_POINT('',(87.49,14.142135623731,594.14213562373));
#239 = DIRECTION('',(-1.,0.,0.));
#240 = DIRECTION('',(0.,0.,-1.));
#241 = ORIENTED_EDGE('',*,*,#242,.F.);
#242 = EDGE_CURVE('',#95,#234,#243,.T.);
#243 = LINE('',#244,#245);
#244 = CARTESIAN_POINT('',(92.,14.142135623731,590.04213562373));
#245 = VECTOR('',#246,1.);
#246 = DIRECTION('',(-1.,0.,0.));
#247 = ORIENTED_EDGE('',*,*,#94,.T.);
#248 = ORIENTED_EDGE('',*,*,#242,.T.);
#249 = CYLINDRICAL_SURFACE('',#250,4.1);
#250 = AXIS2_PLACEMENT_3D('',#251,#252,#253);
#251 = CARTESIAN_POINT('',(92.,14.142135623731,594.14213562373));
#252 = DIRECTION('',(-1.,0.,0.));
#253 = DIRECTION('',(0.,0.,-1.));
#254 = ADVANCED_FACE('',(#255),#274,.F.);
#255 = FACE_BOUND('',#256,.F.);
#256 = EDGE_LOOP('',(#257,#266,#272,#273));
#257 = ORIENTED_EDGE('',*,*,#258,.F.);
#258 = EDGE_CURVE('',#259,#259,#261,.T.);
#259 = VERTEX_POINT('',#260);
#260 = CARTESIAN_POINT('',(87.49,-14.14213562373,561.75786437626));
#261 = CIRCLE('',#262,4.1);
#262 = AXIS2_PLACEMENT_3D('',#263,#264,#265);
#263 = CARTESIAN_POINT('',(87.49,-14.14213562373,565.85786437626));
#264 = DIRECTION('',(-1.,0.,0.));
#265 = DIRECTION('',(0.,0.,-1.));
#266 = ORIENTED_EDGE('',*,*,#267,.F.);
#267 = EDGE_CURVE('',#106,#259,#268,.T.);
#268 = LINE('',#269,#270);
#269 = CARTESIAN_POINT('',(92.,-14.14213562373,561.75786437626));
#270 = VECTOR('',#271,1.);
#271 = DIRECTION('',(-1.,0.,0.));
#272 = ORIENTED_EDGE('',*,*,#105,.T.);
#273 = ORIENTED_EDGE('',*,*,#267,.T.);
#274 = CYLINDRICAL_SURFACE('',#275,4.1);
#275 = AXIS2_PLACEMENT_3D('',#276,#277,#278);
#276 = CARTESIAN_POINT('',(92.,-14.14213562373,565.85786437626));
#277 = DIRECTION('',(-1.,0.,0.));
#278 = DIRECTION('',(0.,0.,-1.));
#279 = ADVANCED_FACE('',(#280),#305,.F.);
#280 = FACE_BOUND('',#281,.F.);
#281 = EDGE_LOOP('',(#282,#290,#298,#304));
#282 = ORIENTED_EDGE('',*,*,#283,.T.);
#283 = EDGE_CURVE('',#117,#284,#286,.T.);
#284 = VERTEX_POINT('',#285);
#285 = CARTESIAN_POINT('',(106.,6.928203230276,568.));
#286 = LINE('',#287,#288);
#287 = CARTESIAN_POINT('',(92.,6.928203230276,568.));
#288 = VECTOR('',#289,1.);
#289 = DIRECTION('',(1.,0.,2.22044604925E-16));
#290 = ORIENTED_EDGE('',*,*,#291,.T.);
#291 = EDGE_CURVE('',#284,#292,#294,.T.);
#292 = VERTEX_POINT('',#293);
#293 = CARTESIAN_POINT('',(106.,13.856406460551,580.));
#294 = LINE('',#295,#296);
#295 = CARTESIAN_POINT('',(106.,6.928203230276,568.));
#296 = VECTOR('',#297,1.);
#297 = DIRECTION('',(-1.922962686384E-16,0.5,0.866025403784));
#298 = ORIENTED_EDGE('',*,*,#299,.F.);
#299 = EDGE_CURVE('',#119,#292,#300,.T.);
#300 = LINE('',#301,#302);
#301 = CARTESIAN_POINT('',(92.,13.856406460551,580.));
#302 = VECTOR('',#303,1.);
#303 = DIRECTION('',(1.,0.,2.22044604925E-16));
#304 = ORIENTED_EDGE('',*,*,#116,.F.);
#305 = PLANE('',#306);
#306 = AXIS2_PLACEMENT_3D('',#307,#308,#309);
#307 = CARTESIAN_POINT('',(92.,6.928203230276,568.));
#308 = DIRECTION('',(-1.110223024625E-16,-0.866025403784,0.5));
#309 = DIRECTION('',(-1.922962686384E-16,0.5,0.866025403784));
#310 = ADVANCED_FACE('',(#311),#329,.F.);
#311 = FACE_BOUND('',#312,.F.);
#312 = EDGE_LOOP('',(#313,#314,#322,#328));
#313 = ORIENTED_EDGE('',*,*,#299,.T.);
#314 = ORIENTED_EDGE('',*,*,#315,.T.);
#315 = EDGE_CURVE('',#292,#316,#318,.T.);
#316 = VERTEX_POINT('',#317);
#317 = CARTESIAN_POINT('',(106.,6.928203230276,592.));
#318 = LINE('',#319,#320);
#319 = CARTESIAN_POINT('',(106.,13.856406460551,580.));
#320 = VECTOR('',#321,1.);
#321 = DIRECTION('',(-1.922962686384E-16,-0.5,0.866025403784));
#322 = ORIENTED_EDGE('',*,*,#323,.F.);
#323 = EDGE_CURVE('',#151,#316,#324,.T.);
#324 = LINE('',#325,#326);
#325 = CARTESIAN_POINT('',(92.,6.928203230276,592.));
#326 = VECTOR('',#327,1.);
#327 = DIRECTION('',(1.,0.,2.22044604925E-16));
#328 = ORIENTED_EDGE('',*,*,#158,.F.);
#329 = PLANE('',#330);
#330 = AXIS2_PLACEMENT_3D('',#331,#332,#333);
#331 = CARTESIAN_POINT('',(92.,13.856406460551,580.));
#332 = DIRECTION('',(1.110223024625E-16,-0.866025403784,-0.5));
#333 = DIRECTION('',(-1.922962686384E-16,-0.5,0.866025403784));
#334 = ADVANCED_FACE('',(#335),#353,.F.);
#335 = FACE_BOUND('',#336,.F.);
#336 = EDGE_LOOP('',(#337,#338,#346,#352));
#337 = ORIENTED_EDGE('',*,*,#323,.T.);
#338 = ORIENTED_EDGE('',*,*,#339,.T.);
#339 = EDGE_CURVE('',#316,#340,#342,.T.);
#340 = VERTEX_POINT('',#341);
#341 = CARTESIAN_POINT('',(106.,-6.928203230276,592.));
#342 = LINE('',#343,#344);
#343 = CARTESIAN_POINT('',(106.,6.928203230276,592.));
#344 = VECTOR('',#345,1.);
#345 = DIRECTION('',(2.846556599891E-32,-1.,-1.281975124256E-16));
#346 = ORIENTED_EDGE('',*,*,#347,.F.);
#347 = EDGE_CURVE('',#143,#340,#348,.T.);
#348 = LINE('',#349,#350);
#349 = CARTESIAN_POINT('',(92.,-6.928203230276,592.));
#350 = VECTOR('',#351,1.);
#351 = DIRECTION('',(1.,0.,2.22044604925E-16));
#352 = ORIENTED_EDGE('',*,*,#150,.F.);
#353 = PLANE('',#354);
#354 = AXIS2_PLACEMENT_3D('',#355,#356,#357);
#355 = CARTESIAN_POINT('',(92.,6.928203230276,592.));
#356 = DIRECTION('',(2.22044604925E-16,1.281975124256E-16,-1.));
#357 = DIRECTION('',(2.846556599891E-32,-1.,-1.281975124256E-16));
#358 = ADVANCED_FACE('',(#359),#377,.F.);
#359 = FACE_BOUND('',#360,.F.);
#360 = EDGE_LOOP('',(#361,#362,#370,#376));
#361 = ORIENTED_EDGE('',*,*,#347,.T.);
#362 = ORIENTED_EDGE('',*,*,#363,.T.);
#363 = EDGE_CURVE('',#340,#364,#366,.T.);
#364 = VERTEX_POINT('',#365);
#365 = CARTESIAN_POINT('',(106.,-13.85640646055,580.));
#366 = LINE('',#367,#368);
#367 = CARTESIAN_POINT('',(106.,-6.928203230276,592.));
#368 = VECTOR('',#369,1.);
#369 = DIRECTION('',(1.922962686384E-16,-0.5,-0.866025403784));
#370 = ORIENTED_EDGE('',*,*,#371,.F.);
#371 = EDGE_CURVE('',#135,#364,#372,.T.);
#372 = LINE('',#373,#374);
#373 = CARTESIAN_POINT('',(92.,-13.85640646055,580.));
#374 = VECTOR('',#375,1.);
#375 = DIRECTION('',(1.,0.,2.22044604925E-16));
#376 = ORIENTED_EDGE('',*,*,#142,.F.);
#377 = PLANE('',#378);
#378 = AXIS2_PLACEMENT_3D('',#379,#380,#381);
#379 = CARTESIAN_POINT('',(92.,-6.928203230276,592.));
#380 = DIRECTION('',(1.110223024625E-16,0.866025403784,-0.5));
#381 = DIRECTION('',(1.922962686384E-16,-0.5,-0.866025403784));
#382 = ADVANCED_FACE('',(#383),#401,.F.);
#383 = FACE_BOUND('',#384,.F.);
#384 = EDGE_LOOP('',(#385,#386,#394,#400));
#385 = ORIENTED_EDGE('',*,*,#371,.T.);
#386 = ORIENTED_EDGE('',*,*,#387,.T.);
#387 = EDGE_CURVE('',#364,#388,#390,.T.);
#388 = VERTEX_POINT('',#389);
#389 = CARTESIAN_POINT('',(106.,-6.928203230276,568.));
#390 = LINE('',#391,#392);
#391 = CARTESIAN_POINT('',(106.,-13.85640646055,580.));
#392 = VECTOR('',#393,1.);
#393 = DIRECTION('',(1.922962686384E-16,0.5,-0.866025403784));
#394 = ORIENTED_EDGE('',*,*,#395,.F.);
#395 = EDGE_CURVE('',#127,#388,#396,.T.);
#396 = LINE('',#397,#398);
#397 = CARTESIAN_POINT('',(92.,-6.928203230276,568.));
#398 = VECTOR('',#399,1.);
#399 = DIRECTION('',(1.,0.,2.22044604925E-16));
#400 = ORIENTED_EDGE('',*,*,#134,.F.);
#401 = PLANE('',#402);
#402 = AXIS2_PLACEMENT_3D('',#403,#404,#405);
#403 = CARTESIAN_POINT('',(92.,-13.85640646055,580.));
#404 = DIRECTION('',(-1.110223024625E-16,0.866025403784,0.5));
#405 = DIRECTION('',(1.922962686384E-16,0.5,-0.866025403784));
#406 = ADVANCED_FACE('',(#407),#418,.F.);
#407 = FACE_BOUND('',#408,.F.);
#408 = EDGE_LOOP('',(#409,#410,#416,#417));
#409 = ORIENTED_EDGE('',*,*,#395,.T.);
#410 = ORIENTED_EDGE('',*,*,#411,.T.);
#411 = EDGE_CURVE('',#388,#284,#412,.T.);
#412 = LINE('',#413,#414);
#413 = CARTESIAN_POINT('',(106.,-6.928203230276,568.));
#414 = VECTOR('',#415,1.);
#415 = DIRECTION('',(8.539669799672E-32,1.,-3.845925372767E-16));
#416 = ORIENTED_EDGE('',*,*,#283,.F.);
#417 = ORIENTED_EDGE('',*,*,#126,.F.);
#418 = PLANE('',#419);
#419 = AXIS2_PLACEMENT_3D('',#420,#421,#422);
#420 = CARTESIAN_POINT('',(92.,-6.928203230276,568.));
#421 = DIRECTION('',(-2.22044604925E-16,3.845925372767E-16,1.));
#422 = DIRECTION('',(8.539669799672E-32,1.,-3.845925372767E-16));
#423 = ADVANCED_FACE('',(#424),#443,.F.);
#424 = FACE_BOUND('',#425,.F.);
#425 = EDGE_LOOP('',(#426,#435,#441,#442));
#426 = ORIENTED_EDGE('',*,*,#427,.F.);
#427 = EDGE_CURVE('',#428,#428,#430,.T.);
#428 = VERTEX_POINT('',#429);
#429 = CARTESIAN_POINT('',(87.49,-14.14213562373,590.04213562373));
#430 = CIRCLE('',#431,4.1);
#431 = AXIS2_PLACEMENT_3D('',#432,#433,#434);
#432 = CARTESIAN_POINT('',(87.49,-14.14213562373,594.14213562373));
#433 = DIRECTION('',(-1.,0.,0.));
#434 = DIRECTION('',(0.,0.,-1.));
#435 = ORIENTED_EDGE('',*,*,#436,.F.);
#436 = EDGE_CURVE('',#167,#428,#437,.T.);
#437 = LINE('',#438,#439);
#438 = CARTESIAN_POINT('',(92.,-14.14213562373,590.04213562373));
#439 = VECTOR('',#440,1.);
#440 = DIRECTION('',(-1.,0.,0.));
#441 = ORIENTED_EDGE('',*,*,#166,.T.);
#442 = ORIENTED_EDGE('',*,*,#436,.T.);
#443 = CYLINDRICAL_SURFACE('',#444,4.1);
#444 = AXIS2_PLACEMENT_3D('',#445,#446,#447);
#445 = CARTESIAN_POINT('',(92.,-14.14213562373,594.14213562373));
#446 = DIRECTION('',(-1.,0.,0.));
#447 = DIRECTION('',(0.,0.,-1.));
#448 = ADVANCED_FACE('',(#449,#452,#463,#474,#485,#496),#507,.F.);
#449 = FACE_BOUND('',#450,.F.);
#450 = EDGE_LOOP('',(#451));
#451 = ORIENTED_EDGE('',*,*,#192,.T.);
#452 = FACE_BOUND('',#453,.F.);
#453 = EDGE_LOOP('',(#454));
#454 = ORIENTED_EDGE('',*,*,#455,.T.);
#455 = EDGE_CURVE('',#456,#456,#458,.T.);
#456 = VERTEX_POINT('',#457);
#457 = CARTESIAN_POINT('',(45.3,14.142135623731,563.60786437626));
#458 = CIRCLE('',#459,2.25);
#459 = AXIS2_PLACEMENT_3D('',#460,#461,#462);
#460 = CARTESIAN_POINT('',(45.3,14.142135623731,565.85786437626));
#461 = DIRECTION('',(-1.,0.,0.));
#462 = DIRECTION('',(0.,0.,-1.));
#463 = FACE_BOUND('',#464,.F.);
#464 = EDGE_LOOP('',(#465));
#465 = ORIENTED_EDGE('',*,*,#466,.T.);
#466 = EDGE_CURVE('',#467,#467,#469,.T.);
#467 = VERTEX_POINT('',#468);
#468 = CARTESIAN_POINT('',(45.3,14.142135623731,591.89213562373));
#469 = CIRCLE('',#470,2.25);
#470 = AXIS2_PLACEMENT_3D('',#471,#472,#473);
#471 = CARTESIAN_POINT('',(45.3,14.142135623731,594.14213562373));
#472 = DIRECTION('',(-1.,0.,0.));
#473 = DIRECTION('',(0.,0.,-1.));
#474 = FACE_BOUND('',#475,.F.);
#475 = EDGE_LOOP('',(#476));
#476 = ORIENTED_EDGE('',*,*,#477,.T.);
#477 = EDGE_CURVE('',#478,#478,#480,.T.);
#478 = VERTEX_POINT('',#479);
#479 = CARTESIAN_POINT('',(45.3,-14.14213562373,563.60786437626));
#480 = CIRCLE('',#481,2.25);
#481 = AXIS2_PLACEMENT_3D('',#482,#483,#484);
#482 = CARTESIAN_POINT('',(45.3,-14.14213562373,565.85786437626));
#483 = DIRECTION('',(-1.,0.,0.));
#484 = DIRECTION('',(0.,0.,-1.));
#485 = FACE_BOUND('',#486,.F.);
#486 = EDGE_LOOP('',(#487));
#487 = ORIENTED_EDGE('',*,*,#488,.F.);
#488 = EDGE_CURVE('',#489,#489,#491,.T.);
#489 = VERTEX_POINT('',#490);
#490 = CARTESIAN_POINT('',(45.3,3.747419205391E-15,595.3));
#491 = CIRCLE('',#492,15.3);
#492 = AXIS2_PLACEMENT_3D('',#493,#494,#495);
#493 = CARTESIAN_POINT('',(45.3,0.,580.));
#494 = DIRECTION('',(1.,0.,-0.));
#495 = DIRECTION('',(0.,0.,1.));
#496 = FACE_BOUND('',#497,.F.);
#497 = EDGE_LOOP('',(#498));
#498 = ORIENTED_EDGE('',*,*,#499,.T.);
#499 = EDGE_CURVE('',#500,#500,#502,.T.);
#500 = VERTEX_POINT('',#501);
#501 = CARTESIAN_POINT('',(45.3,-14.14213562373,591.89213562373));
#502 = CIRCLE('',#503,2.25);
#503 = AXIS2_PLACEMENT_3D('',#504,#505,#506);
#504 = CARTESIAN_POINT('',(45.3,-14.14213562373,594.14213562373));
#505 = DIRECTION('',(-1.,0.,0.));
#506 = DIRECTION('',(0.,0.,-1.));
#507 = PLANE('',#508);
#508 = AXIS2_PLACEMENT_3D('',#509,#510,#511);
#509 = CARTESIAN_POINT('',(45.3,0.,580.));
#510 = DIRECTION('',(1.,0.,0.));
#511 = DIRECTION('',(0.,0.,1.));
#512 = ADVANCED_FACE('',(#513,#516),#527,.F.);
#513 = FACE_BOUND('',#514,.F.);
#514 = EDGE_LOOP('',(#515));
#515 = ORIENTED_EDGE('',*,*,#208,.T.);
#516 = FACE_BOUND('',#517,.F.);
#517 = EDGE_LOOP('',(#518));
#518 = ORIENTED_EDGE('',*,*,#519,.F.);
#519 = EDGE_CURVE('',#520,#520,#522,.T.);
#520 = VERTEX_POINT('',#521);
#521 = CARTESIAN_POINT('',(87.49,14.142135623731,563.60786437626));
#522 = CIRCLE('',#523,2.25);
#523 = AXIS2_PLACEMENT_3D('',#524,#525,#526);
#524 = CARTESIAN_POINT('',(87.49,14.142135623731,565.85786437626));
#525 = DIRECTION('',(-1.,0.,0.));
#526 = DIRECTION('',(0.,0.,-1.));
#527 = PLANE('',#528);
#528 = AXIS2_PLACEMENT_3D('',#529,#530,#531);
#529 = CARTESIAN_POINT('',(87.49,14.142135623731,565.85786437626));
#530 = DIRECTION('',(-1.,0.,0.));
#531 = DIRECTION('',(0.,0.,-1.));
#532 = ADVANCED_FACE('',(#533,#536),#547,.F.);
#533 = FACE_BOUND('',#534,.F.);
#534 = EDGE_LOOP('',(#535));
#535 = ORIENTED_EDGE('',*,*,#233,.T.);
#536 = FACE_BOUND('',#537,.F.);
#537 = EDGE_LOOP('',(#538));
#538 = ORIENTED_EDGE('',*,*,#539,.F.);
#539 = EDGE_CURVE('',#540,#540,#542,.T.);
#540 = VERTEX_POINT('',#541);
#541 = CARTESIAN_POINT('',(87.49,14.142135623731,591.89213562373));
#542 = CIRCLE('',#543,2.25);
#543 = AXIS2_PLACEMENT_3D('',#544,#545,#546);
#544 = CARTESIAN_POINT('',(87.49,14.142135623731,594.14213562373));
#545 = DIRECTION('',(-1.,0.,0.));
#546 = DIRECTION('',(0.,0.,-1.));
#547 = PLANE('',#548);
#548 = AXIS2_PLACEMENT_3D('',#549,#550,#551);
#549 = CARTESIAN_POINT('',(87.49,14.142135623731,594.14213562373));
#550 = DIRECTION('',(-1.,0.,0.));
#551 = DIRECTION('',(0.,0.,-1.));
#552 = ADVANCED_FACE('',(#553,#556),#567,.F.);
#553 = FACE_BOUND('',#554,.F.);
#554 = EDGE_LOOP('',(#555));
#555 = ORIENTED_EDGE('',*,*,#258,.T.);
#556 = FACE_BOUND('',#557,.F.);
#557 = EDGE_LOOP('',(#558));
#558 = ORIENTED_EDGE('',*,*,#559,.F.);
#559 = EDGE_CURVE('',#560,#560,#562,.T.);
#560 = VERTEX_POINT('',#561);
#561 = CARTESIAN_POINT('',(87.49,-14.14213562373,563.60786437626));
#562 = CIRCLE('',#563,2.25);
#563 = AXIS2_PLACEMENT_3D('',#564,#565,#566);
#564 = CARTESIAN_POINT('',(87.49,-14.14213562373,565.85786437626));
#565 = DIRECTION('',(-1.,0.,0.));
#566 = DIRECTION('',(0.,0.,-1.));
#567 = PLANE('',#568);
#568 = AXIS2_PLACEMENT_3D('',#569,#570,#571);
#569 = CARTESIAN_POINT('',(87.49,-14.14213562373,565.85786437626));
#570 = DIRECTION('',(-1.,0.,0.));
#571 = DIRECTION('',(0.,0.,-1.));
#572 = ADVANCED_FACE('',(#573,#581),#592,.T.);
#573 = FACE_BOUND('',#574,.T.);
#574 = EDGE_LOOP('',(#575,#576,#577,#578,#579,#580));
#575 = ORIENTED_EDGE('',*,*,#291,.T.);
#576 = ORIENTED_EDGE('',*,*,#315,.T.);
#577 = ORIENTED_EDGE('',*,*,#339,.T.);
#578 = ORIENTED_EDGE('',*,*,#363,.T.);
#579 = ORIENTED_EDGE('',*,*,#387,.T.);
#580 = ORIENTED_EDGE('',*,*,#411,.T.);
#581 = FACE_BOUND('',#582,.T.);
#582 = EDGE_LOOP('',(#583));
#583 = ORIENTED_EDGE('',*,*,#584,.T.);
#584 = EDGE_CURVE('',#585,#585,#587,.T.);
#585 = VERTEX_POINT('',#586);
#586 = CARTESIAN_POINT('',(106.,6.858022075225E-16,577.2));
#587 = CIRCLE('',#588,2.8);
#588 = AXIS2_PLACEMENT_3D('',#589,#590,#591);
#589 = CARTESIAN_POINT('',(106.,0.,580.));
#590 = DIRECTION('',(-1.,0.,0.));
#591 = DIRECTION('',(0.,0.,-1.));
#592 = PLANE('',#593);
#593 = AXIS2_PLACEMENT_3D('',#594,#595,#596);
#594 = CARTESIAN_POINT('',(106.,-5.98255057986E-16,580.));
#595 = DIRECTION('',(1.,0.,2.22044604925E-16));
#596 = DIRECTION('',(2.22044604925E-16,0.,-1.));
#597 = ADVANCED_FACE('',(#598,#601),#612,.F.);
#598 = FACE_BOUND('',#599,.F.);
#599 = EDGE_LOOP('',(#600));
#600 = ORIENTED_EDGE('',*,*,#427,.T.);
#601 = FACE_BOUND('',#602,.F.);
#602 = EDGE_LOOP('',(#603));
#603 = ORIENTED_EDGE('',*,*,#604,.F.);
#604 = EDGE_CURVE('',#605,#605,#607,.T.);
#605 = VERTEX_POINT('',#606);
#606 = CARTESIAN_POINT('',(87.49,-14.14213562373,591.89213562373));
#607 = CIRCLE('',#608,2.25);
#608 = AXIS2_PLACEMENT_3D('',#609,#610,#611);
#609 = CARTESIAN_POINT('',(87.49,-14.14213562373,594.14213562373));
#610 = DIRECTION('',(-1.,0.,0.));
#611 = DIRECTION('',(0.,0.,-1.));
#612 = PLANE('',#613);
#613 = AXIS2_PLACEMENT_3D('',#614,#615,#616);
#614 = CARTESIAN_POINT('',(87.49,-14.14213562373,594.14213562373));
#615 = DIRECTION('',(-1.,0.,0.));
#616 = DIRECTION('',(0.,0.,-1.));
#617 = ADVANCED_FACE('',(#618),#629,.F.);
#618 = FACE_BOUND('',#619,.F.);
#619 = EDGE_LOOP('',(#620,#626,#627,#628));
#620 = ORIENTED_EDGE('',*,*,#621,.T.);
#621 = EDGE_CURVE('',#520,#456,#622,.T.);
#622 = LINE('',#623,#624);
#623 = CARTESIAN_POINT('',(87.51,14.142135623731,563.60786437626));
#624 = VECTOR('',#625,1.);
#625 = DIRECTION('',(-1.,0.,0.));
#626 = ORIENTED_EDGE('',*,*,#455,.F.);
#627 = ORIENTED_EDGE('',*,*,#621,.F.);
#628 = ORIENTED_EDGE('',*,*,#519,.T.);
#629 = CYLINDRICAL_SURFACE('',#630,2.25);
#630 = AXIS2_PLACEMENT_3D('',#631,#632,#633);
#631 = CARTESIAN_POINT('',(87.51,14.142135623731,565.85786437626));
#632 = DIRECTION('',(-1.,0.,0.));
#633 = DIRECTION('',(0.,0.,-1.));
#634 = ADVANCED_FACE('',(#635),#646,.F.);
#635 = FACE_BOUND('',#636,.F.);
#636 = EDGE_LOOP('',(#637,#643,#644,#645));
#637 = ORIENTED_EDGE('',*,*,#638,.T.);
#638 = EDGE_CURVE('',#540,#467,#639,.T.);
#639 = LINE('',#640,#641);
#640 = CARTESIAN_POINT('',(87.51,14.142135623731,591.89213562373));
#641 = VECTOR('',#642,1.);
#642 = DIRECTION('',(-1.,0.,0.));
#643 = ORIENTED_EDGE('',*,*,#466,.F.);
#644 = ORIENTED_EDGE('',*,*,#638,.F.);
#645 = ORIENTED_EDGE('',*,*,#539,.T.);
#646 = CYLINDRICAL_SURFACE('',#647,2.25);
#647 = AXIS2_PLACEMENT_3D('',#648,#649,#650);
#648 = CARTESIAN_POINT('',(87.51,14.142135623731,594.14213562373));
#649 = DIRECTION('',(-1.,0.,0.));
#650 = DIRECTION('',(0.,0.,-1.));
#651 = ADVANCED_FACE('',(#652),#663,.F.);
#652 = FACE_BOUND('',#653,.F.);
#653 = EDGE_LOOP('',(#654,#660,#661,#662));
#654 = ORIENTED_EDGE('',*,*,#655,.T.);
#655 = EDGE_CURVE('',#560,#478,#656,.T.);
#656 = LINE('',#657,#658);
#657 = CARTESIAN_POINT('',(87.51,-14.14213562373,563.60786437626));
#658 = VECTOR('',#659,1.);
#659 = DIRECTION('',(-1.,0.,0.));
#660 = ORIENTED_EDGE('',*,*,#477,.F.);
#661 = ORIENTED_EDGE('',*,*,#655,.F.);
#662 = ORIENTED_EDGE('',*,*,#559,.T.);
#663 = CYLINDRICAL_SURFACE('',#664,2.25);
#664 = AXIS2_PLACEMENT_3D('',#665,#666,#667);
#665 = CARTESIAN_POINT('',(87.51,-14.14213562373,565.85786437626));
#666 = DIRECTION('',(-1.,0.,0.));
#667 = DIRECTION('',(0.,0.,-1.));
#668 = ADVANCED_FACE('',(#669),#688,.F.);
#669 = FACE_BOUND('',#670,.F.);
#670 = EDGE_LOOP('',(#671,#679,#686,#687));
#671 = ORIENTED_EDGE('',*,*,#672,.T.);
#672 = EDGE_CURVE('',#489,#673,#675,.T.);
#673 = VERTEX_POINT('',#674);
#674 = CARTESIAN_POINT('',(51.59,3.747419205391E-15,595.3));
#675 = LINE('',#676,#677);
#676 = CARTESIAN_POINT('',(45.29,3.747419205391E-15,595.3));
#677 = VECTOR('',#678,1.);
#678 = DIRECTION('',(1.,0.,0.));
#679 = ORIENTED_EDGE('',*,*,#680,.F.);
#680 = EDGE_CURVE('',#673,#673,#681,.T.);
#681 = CIRCLE('',#682,15.3);
#682 = AXIS2_PLACEMENT_3D('',#683,#684,#685);
#683 = CARTESIAN_POINT('',(51.59,0.,580.));
#684 = DIRECTION('',(1.,0.,-0.));
#685 = DIRECTION('',(0.,0.,1.));
#686 = ORIENTED_EDGE('',*,*,#672,.F.);
#687 = ORIENTED_EDGE('',*,*,#488,.T.);
#688 = CYLINDRICAL_SURFACE('',#689,15.3);
#689 = AXIS2_PLACEMENT_3D('',#690,#691,#692);
#690 = CARTESIAN_POINT('',(45.29,0.,580.));
#691 = DIRECTION('',(1.,0.,0.));
#692 = DIRECTION('',(0.,0.,1.));
#693 = ADVANCED_FACE('',(#694),#705,.F.);
#694 = FACE_BOUND('',#695,.F.);
#695 = EDGE_LOOP('',(#696,#702,#703,#704));
#696 = ORIENTED_EDGE('',*,*,#697,.T.);
#697 = EDGE_CURVE('',#605,#500,#698,.T.);
#698 = LINE('',#699,#700);
#699 = CARTESIAN_POINT('',(87.51,-14.14213562373,591.89213562373));
#700 = VECTOR('',#701,1.);
#701 = DIRECTION('',(-1.,0.,0.));
#702 = ORIENTED_EDGE('',*,*,#499,.F.);
#703 = ORIENTED_EDGE('',*,*,#697,.F.);
#704 = ORIENTED_EDGE('',*,*,#604,.T.);
#705 = CYLINDRICAL_SURFACE('',#706,2.25);
#706 = AXIS2_PLACEMENT_3D('',#707,#708,#709);
#707 = CARTESIAN_POINT('',(87.51,-14.14213562373,594.14213562373));
#708 = DIRECTION('',(-1.,0.,0.));
#709 = DIRECTION('',(0.,0.,-1.));
#710 = ADVANCED_FACE('',(#711),#730,.F.);
#711 = FACE_BOUND('',#712,.F.);
#712 = EDGE_LOOP('',(#713,#721,#728,#729));
#713 = ORIENTED_EDGE('',*,*,#714,.T.);
#714 = EDGE_CURVE('',#585,#715,#717,.T.);
#715 = VERTEX_POINT('',#716);
#716 = CARTESIAN_POINT('',(96.51,6.858022075225E-16,577.2));
#717 = LINE('',#718,#719);
#718 = CARTESIAN_POINT('',(106.01,6.858022075225E-16,577.2));
#719 = VECTOR('',#720,1.);
#720 = DIRECTION('',(-1.,0.,0.));
#721 = ORIENTED_EDGE('',*,*,#722,.F.);
#722 = EDGE_CURVE('',#715,#715,#723,.T.);
#723 = CIRCLE('',#724,2.8);
#724 = AXIS2_PLACEMENT_3D('',#725,#726,#727);
#725 = CARTESIAN_POINT('',(96.51,0.,580.));
#726 = DIRECTION('',(-1.,0.,0.));
#727 = DIRECTION('',(0.,0.,-1.));
#728 = ORIENTED_EDGE('',*,*,#714,.F.);
#729 = ORIENTED_EDGE('',*,*,#584,.T.);
#730 = CYLINDRICAL_SURFACE('',#731,2.8);
#731 = AXIS2_PLACEMENT_3D('',#732,#733,#734);
#732 = CARTESIAN_POINT('',(106.01,0.,580.));
#733 = DIRECTION('',(-1.,0.,0.));
#734 = DIRECTION('',(0.,0.,-1.));
#735 = ADVANCED_FACE('',(#736),#739,.F.);
#736 = FACE_BOUND('',#737,.F.);
#737 = EDGE_LOOP('',(#738));
#738 = ORIENTED_EDGE('',*,*,#680,.T.);
#739 = PLANE('',#740);
#740 = AXIS2_PLACEMENT_3D('',#741,#742,#743);
#741 = CARTESIAN_POINT('',(51.59,0.,580.));
#742 = DIRECTION('',(1.,0.,0.));
#743 = DIRECTION('',(0.,0.,1.));
#744 = ADVANCED_FACE('',(#745),#748,.F.);
#745 = FACE_BOUND('',#746,.F.);
#746 = EDGE_LOOP('',(#747));
#747 = ORIENTED_EDGE('',*,*,#722,.T.);
#748 = PLANE('',#749);
#749 = AXIS2_PLACEMENT_3D('',#750,#751,#752);
#750 = CARTESIAN_POINT('',(96.51,0.,580.));
#751 = DIRECTION('',(-1.,0.,0.));
#752 = DIRECTION('',(0.,0.,-1.));
#753 = ( GEOMETRIC_REPRESENTATION_CONTEXT(3) 
GLOBAL_UNCERTAINTY_ASSIGNED_CONTEXT((#757)) GLOBAL_UNIT_ASSIGNED_CONTEXT
((#754,#755,#756)) REPRESENTATION_CONTEXT('Context #1',
  '3D Context with UNIT and UNCERTAINTY') );
#754 = ( LENGTH_UNIT() NAMED_UNIT(*) SI_UNIT(.MILLI.,.METRE.) );
#755 = ( NAMED_UNIT(*) PLANE_ANGLE_UNIT() SI_UNIT($,.RADIAN.) );
#756 = ( NAMED_UNIT(*) SI_UNIT($,.STERADIAN.) SOLID_ANGLE_UNIT() );
#757 = UNCERTAINTY_MEASURE_WITH_UNIT(LENGTH_MEASURE(1.E-07),#754,
  'distance_accuracy_value','confusion accuracy');
#758 = PRODUCT_RELATED_PRODUCT_CATEGORY('part',$,(#7));
ENDSEC;
END-ISO-10303-21;
