999
FreeCAD v1.1 44987 (Git)
  0
SECTION
  2
HEADER
  9
$ACADVER
  1
AC1014
  9
$ACADMAINTVER
 70
     9
  9
$DWGCODEPAGE
  3
ANSI_1252
  9
$TEXTSTYLE
  7
STANDARD
  9
$DIMSTYLE
  2
STANDARD
  9
$DIMTXSTY
  7
STANDARD
  9
$CMLSTYLE
  2
STANDARD
  9
$LUNITS
 70
2
  9
$INSUNITS
 70
4
  9
$PEXTMAX
 10
50
 20
50
 30
50
  9
$PEXTMIN
 10
0
 20
0
 30
0
  9
$HANDSEED
  5
FFFF
  0
ENDSEC
  0
SECTION
  2
CLASSES
  0
CLASS
  1
ACDBDICTIONARYWDFLT
  2
AcDbDictionaryWithDefault
  3
ObjectDBX Classes
 90
        0
280
     0
281
     0
  0
CLASS
  1
XRECORD
  2
AcDbXrecord
  3
ObjectDBX Classes
 90
        0
280
     0
281
     0
  0
CLASS
  1
LWPOLYLINE
  2
AcDbPolyline
  3
ObjectDBX Classes
 90
        0
280
     0
281
     1
  0
ENDSEC
  0
SECTION
  2
TABLES
  0
TABLE
  2
VPORT
  5
20
330
0
100
AcDbSymbolTable
 70
     1
  0
VPORT
  5
21
330
20
100
AcDbSymbolTableRecord
100
AcDbViewportTableRecord
  2
*ACTIVE
 70
     0
  0
ENDTAB
  0
TABLE
  2
LTYPE
  5
22
330
0
100
AcDbSymbolTable
 70
     1
  0
LTYPE
  5
23
330
21
100
AcDbSymbolTableRecord
100
AcDbLinetypeTableRecord
  2
BYBLOCK
 70
     0
  3

 72
    65
 73
     0
 40
0.0
  0
LTYPE
  5
24
330
21
100
AcDbSymbolTableRecord
100
AcDbLinetypeTableRecord
  2
BYLAYER
 70
     0
  3

 72
    65
 73
     0
 40
0.0
  0
LTYPE
  5
25
330
21
100
AcDbSymbolTableRecord
100
AcDbLinetypeTableRecord
  2
CONTINUOUS
 70
     0
  3
Solid line
 72
    65
 73
     0
 40
0.0
  0
ENDTAB
  0
TABLE
  2
LAYER
  5
A88
330
0
100
AcDbSymbolTable
 70
6
  0
LAYER
  5
A89
330
A88
100
AcDbSymbolTableRecord
100
AcDbLayerTableRecord
  2
0
 70
   0
 62
   7
  6
CONTINUOUS
  0
LAYER
  5
A8A
330
A88
100
AcDbSymbolTableRecord
100
AcDbLayerTableRecord
  2
V_02_Head_Puck_Head_Puck_0
 70
    0
 62
    7
  6
CONTINUOUS
  0
LAYER
  5
A8B
330
A88
100
AcDbSymbolTableRecord
100
AcDbLayerTableRecord
  2
V_02_Head_Puck_Head_Puck_1
 70
    0
 62
    7
  6
CONTINUOUS
  0
LAYER
  5
A8C
330
A88
100
AcDbSymbolTableRecord
100
AcDbLayerTableRecord
  2
V_02_Head_Puck_Head_Puck_2
 70
    0
 62
    7
  6
CONTINUOUS
  0
LAYER
  5
A8D
330
A88
100
AcDbSymbolTableRecord
100
AcDbLayerTableRecord
  2
V_02_Head_Puck_Head_Puck_3
 70
    0
 62
    7
  6
CONTINUOUS
  0
LAYER
  5
A8E
330
A88
100
AcDbSymbolTableRecord
100
AcDbLayerTableRecord
  2
A_02_Head_Puck_Head_Puck
 70
    0
 62
    7
  6
CONTINUOUS
  0
ENDTAB
  0
TABLE
  2
STYLE
  5
70
330
0
100
AcDbSymbolTable
 70
     2
  0
STYLE
  5
71
330
70
100
AcDbSymbolTableRecord
100
AcDbTextStyleTableRecord
  2
STANDARD
 70
     0
 40
0.0
 41
1.0
 50
0.0
 71
     0
 42
2.5
  3
arial.ttf
  4

  0
STYLE
  5
72
330
70
100
AcDbSymbolTableRecord
100
AcDbTextStyleTableRecord
  2
ANNOTATIVE
 70
     0
 40
0.0
 41
1.0
 50
0.0
 71
     0
 42
2.5
  3
arial.ttf
  4

  0
ENDTAB
  0
TABLE
  2
VIEW
  5
73
330
0
100
AcDbSymbolTable
 70
     0
  0
ENDTAB
  0
TABLE
  2
UCS
  5
74
330
0
100
AcDbSymbolTable
 70
     0
  0
ENDTAB
  0
TABLE
  2
APPID
  5
75
330
0
100
AcDbSymbolTable
 70
     2
  0
APPID
  5
76
330
75
100
AcDbSymbolTableRecord
100
AcDbRegAppTableRecord
  2
ACAD
 70
     0
  0
APPID
  5
77
330
75
100
AcDbSymbolTableRecord
100
AcDbRegAppTableRecord
  2
ACADANNOTATIVE
 70
     0
  0
ENDTAB
  0
TABLE
  2
DIMSTYLE
  5
78
330
0
100
AcDbSymbolTable
 70
     2
  0
DIMSTYLE
105
79
330
78
100
AcDbSymbolTableRecord
100
AcDbDimStyleTableRecord
  2
STANDARD
 70
     0
  3

  4

  5

  6

  7

 40
0.0
 41
2.5
 42
0.625
 43
3.75
 44
1.25
 45
0.0
 46
0.0
 47
0.0
 48
0.0
140
2.5
141
2.5
142
0.0
143
0.03937007874016
144
1.0
145
0.0
146
1.0
147
0.625
 71
     0
 72
     0
 73
     0
 74
     0
 75
     0
 76
     0
 77
     1
 78
     8
170
     0
171
     3
172
     1
173
     0
174
     0
175
     0
176
     0
177
     0
178
     0
270
     2
271
     2
272
     2
273
     2
274
     3
340
71
275
     0
280
     0
281
     0
282
     0
283
     0
284
     8
285
     0
286
     0
287
     3
288
     0
  0
ENDTAB
  0
TABLE
  2
BLOCK_RECORD
  5
A01
330
0
100
AcDbSymbolTable
  70
5
  0
BLOCK_RECORD
  5
A02
330
A01
100
AcDbSymbolTableRecord
100
AcDbBlockTableRecord
  2
*MODEL_SPACE
  0
BLOCK_RECORD
  5
A03
330
A01
100
AcDbSymbolTableRecord
100
AcDbBlockTableRecord
  2
*PAPER_SPACE
  0
ENDTAB
  0
ENDSEC
  0
SECTION
  2
BLOCKS
  0
BLOCK
  5
A04
330
A02
100
AcDbEntity
  8
0
100
AcDbBlockBegin
  2
*MODEL_SPACE
 70
   0
 10
0
 20
0
 30
0
  3
*MODEL_SPACE
  1
 
  0
ENDBLK
  5
A05
330
A02
100
AcDbEntity
  8
0
100
AcDbBlockEnd
  0
BLOCK
  5
A06
330
A03
100
AcDbEntity
 67
1
  8
0
100
AcDbBlockBegin
  2
*PAPER_SPACE
 70
   0
 10
0
 20
0
 30
0
  3
*PAPER_SPACE
  1
 
  0
ENDBLK
  5
A07
330
A03
100
AcDbEntity
 67
    1
  8
0
100
AcDbBlockEnd
  0
ENDSEC
  0
SECTION
  2
ENTITIES
  0
LINE
  5
A08
330
A02
100
AcDbEntity
  8
V_02_Head_Puck_Head_Puck_0
100
AcDbLine
 10
257.500000000
 20
142.074879227
 30
0.000000000
 11
257.500000000
 21
148.591787440
 31
0.000000000
  0
SPLINE
  5
A09
330
A02
100
AcDbEntity
  8
V_02_Head_Puck_Head_Puck_0
100
AcDbSpline
210
0
220
0
230
1
 70
8
 71
1
 72
17
 73
15
 74
0
 40
3.141592654
 40
3.141592654
 40
3.365992129
 40
3.590391604
 40
3.814791079
 40
4.039190555
 40
4.263590030
 40
4.487989505
 40
4.712388980
 40
4.936788456
 40
5.161187931
 40
5.385587406
 40
5.609986881
 40
5.834386357
 40
6.058785832
 40
6.283185307
 40
6.283185307
 10
162.500000000
 20
142.074879227
 30
0.000000000
 10
163.690924171
 20
142.074879227
 30
0.000000000
 10
167.203978775
 20
142.074879227
 30
0.000000000
 10
172.863004583
 20
142.074879227
 30
0.000000000
 10
180.384234412
 20
142.074879227
 30
0.000000000
 10
189.390522392
 20
142.074879227
 30
0.000000000
 10
199.430255637
 20
142.074879227
 30
0.000000000
 10
210.000000000
 20
142.074879227
 30
0.000000000
 10
220.569744363
 20
142.074879227
 30
0.000000000
 10
230.609477608
 20
142.074879227
 30
0.000000000
 10
239.615765588
 20
142.074879227
 30
0.000000000
 10
247.136995417
 20
142.074879227
 30
0.000000000
 10
252.796021225
 20
142.074879227
 30
0.000000000
 10
256.309075829
 20
142.074879227
 30
0.000000000
 10
257.500000000
 20
142.074879227
 30
0.000000000
  0
SPLINE
  5
A0A
330
A02
100
AcDbEntity
  8
V_02_Head_Puck_Head_Puck_0
100
AcDbSpline
210
0
220
0
230
1
 70
8
 71
1
 72
17
 73
15
 74
0
 40
3.141592654
 40
3.141592654
 40
3.365992129
 40
3.590391604
 40
3.814791079
 40
4.039190555
 40
4.263590030
 40
4.487989505
 40
4.712388980
 40
4.936788456
 40
5.161187931
 40
5.385587406
 40
5.609986881
 40
5.834386357
 40
6.058785832
 40
6.283185307
 40
6.283185307
 10
162.500000000
 20
148.591787440
 30
0.000000000
 10
163.690924171
 20
148.591787440
 30
0.000000000
 10
167.203978775
 20
148.591787440
 30
0.000000000
 10
172.863004583
 20
148.591787440
 30
0.000000000
 10
180.384234412
 20
148.591787440
 30
0.000000000
 10
189.390522392
 20
148.591787440
 30
0.000000000
 10
199.430255637
 20
148.591787440
 30
0.000000000
 10
210.000000000
 20
148.591787440
 30
0.000000000
 10
220.569744363
 20
148.591787440
 30
0.000000000
 10
230.609477608
 20
148.591787440
 30
0.000000000
 10
239.615765588
 20
148.591787440
 30
0.000000000
 10
247.136995417
 20
148.591787440
 30
0.000000000
 10
252.796021225
 20
148.591787440
 30
0.000000000
 10
256.309075829
 20
148.591787440
 30
0.000000000
 10
257.500000000
 20
148.591787440
 30
0.000000000
  0
LINE
  5
A0B
330
A02
100
AcDbEntity
  8
V_02_Head_Puck_Head_Puck_0
100
AcDbLine
 10
256.811594203
 20
141.615942029
 30
0.000000000
 11
256.811594203
 21
142.074879227
 31
0.000000000
  0
SPLINE
  5
A0C
330
A02
100
AcDbEntity
  8
V_02_Head_Puck_Head_Puck_0
100
AcDbSpline
210
0
220
0
230
1
 70
8
 71
1
 72
17
 73
15
 74
0
 40
3.141592654
 40
3.141592654
 40
3.365992129
 40
3.590391604
 40
3.814791079
 40
4.039190555
 40
4.263590030
 40
4.487989505
 40
4.712388980
 40
4.936788456
 40
5.161187931
 40
5.385587406
 40
5.609986881
 40
5.834386357
 40
6.058785832
 40
6.283185307
 40
6.283185307
 10
163.188405797
 20
141.615942029
 30
0.000000000
 10
164.362070198
 20
141.615942029
 30
0.000000000
 10
167.824210966
 20
141.615942029
 30
0.000000000
 10
173.401221908
 20
141.615942029
 30
0.000000000
 10
180.813448406
 20
141.615942029
 30
0.000000000
 10
189.689210473
 20
141.615942029
 30
0.000000000
 10
199.583440338
 20
141.615942029
 30
0.000000000
 10
210.000000000
 20
141.615942029
 30
0.000000000
 10
220.416559662
 20
141.615942029
 30
0.000000000
 10
230.310789527
 20
141.615942029
 30
0.000000000
 10
239.186551594
 20
141.615942029
 30
0.000000000
 10
246.598778092
 20
141.615942029
 30
0.000000000
 10
252.175789034
 20
141.615942029
 30
0.000000000
 10
255.637929802
 20
141.615942029
 30
0.000000000
 10
256.811594203
 20
141.615942029
 30
0.000000000
  0
LINE
  5
A0D
330
A02
100
AcDbEntity
  8
V_02_Head_Puck_Head_Puck_0
100
AcDbLine
 10
255.893719807
 20
148.591787440
 30
0.000000000
 11
255.893719807
 21
155.384057971
 31
0.000000000
  0
SPLINE
  5
A0E
330
A02
100
AcDbEntity
  8
V_02_Head_Puck_Head_Puck_0
100
AcDbSpline
210
0
220
0
230
1
 70
8
 71
1
 72
17
 73
15
 74
0
 40
3.141592654
 40
3.141592654
 40
3.365992129
 40
3.590391604
 40
3.814791079
 40
4.039190555
 40
4.263590030
 40
4.487989505
 40
4.712388980
 40
4.936788456
 40
5.161187931
 40
5.385587406
 40
5.609986881
 40
5.834386357
 40
6.058785832
 40
6.283185307
 40
6.283185307
 10
164.106280193
 20
155.384057971
 30
0.000000000
 10
165.256931567
 20
155.384057971
 30
0.000000000
 10
168.651187222
 20
155.384057971
 30
0.000000000
 10
174.118845008
 20
155.384057971
 30
0.000000000
 10
181.385733731
 20
155.384057971
 30
0.000000000
 10
190.087461248
 20
155.384057971
 30
0.000000000
 10
199.787686606
 20
155.384057971
 30
0.000000000
 10
210.000000000
 20
155.384057971
 30
0.000000000
 10
220.212313394
 20
155.384057971
 30
0.000000000
 10
229.912538752
 20
155.384057971
 30
0.000000000
 10
238.614266269
 20
155.384057971
 30
0.000000000
 10
245.881154992
 20
155.384057971
 30
0.000000000
 10
251.348812778
 20
155.384057971
 30
0.000000000
 10
254.743068433
 20
155.384057971
 30
0.000000000
 10
255.893719807
 20
155.384057971
 30
0.000000000
  0
LINE
  5
A0F
330
A02
100
AcDbEntity
  8
V_02_Head_Puck_Head_Puck_0
100
AcDbLine
 10
162.500000000
 20
142.074879227
 30
0.000000000
 11
162.500000000
 21
148.591787440
 31
0.000000000
  0
LINE
  5
A10
330
A02
100
AcDbEntity
  8
V_02_Head_Puck_Head_Puck_0
100
AcDbLine
 10
163.188405797
 20
141.615942029
 30
0.000000000
 11
163.188405797
 21
142.074879227
 31
0.000000000
  0
LINE
  5
A11
330
A02
100
AcDbEntity
  8
V_02_Head_Puck_Head_Puck_0
100
AcDbLine
 10
164.106280193
 20
148.591787440
 30
0.000000000
 11
164.106280193
 21
155.384057971
 31
0.000000000
  0
CIRCLE
  5
A12
330
A02
100
AcDbEntity
  8
V_02_Head_Puck_Head_Puck_1
100
AcDbCircle
 10
210.000000000
 20
148.500000000
 30
0.000000000
 40
47.500000000
  0
CIRCLE
  5
A13
330
A02
100
AcDbEntity
  8
V_02_Head_Puck_Head_Puck_1
100
AcDbCircle
 10
210.000000000
 20
148.500000000
 30
0.000000000
 40
45.893719807
  0
CIRCLE
  5
A14
330
A02
100
AcDbEntity
  8
V_02_Head_Puck_Head_Puck_1
100
AcDbCircle
 10
181.604709572
 20
120.104709572
 30
0.000000000
 40
1.032608696
  0
CIRCLE
  5
A15
330
A02
100
AcDbEntity
  8
V_02_Head_Puck_Head_Puck_1
100
AcDbCircle
 10
196.231884058
 20
120.963768116
 30
0.000000000
 40
1.537439614
  0
CIRCLE
  5
A16
330
A02
100
AcDbEntity
  8
V_02_Head_Puck_Head_Puck_1
100
AcDbCircle
 10
223.768115942
 20
120.963768116
 30
0.000000000
 40
1.537439614
  0
LINE
  5
A17
330
A02
100
AcDbEntity
  8
V_02_Head_Puck_Head_Puck_1
100
AcDbLine
 10
215.048309179
 20
113.161835749
 30
0.000000000
 11
215.048309179
 21
128.765700483
 31
0.000000000
  0
LINE
  5
A18
330
A02
100
AcDbEntity
  8
V_02_Head_Puck_Head_Puck_1
100
AcDbLine
 10
215.048309179
 20
113.161835749
 30
0.000000000
 11
204.951690821
 21
113.161835749
 31
0.000000000
  0
LINE
  5
A19
330
A02
100
AcDbEntity
  8
V_02_Head_Puck_Head_Puck_1
100
AcDbLine
 10
215.048309179
 20
128.765700483
 30
0.000000000
 11
211.835748792
 21
128.765700483
 31
0.000000000
  0
LINE
  5
A1A
330
A02
100
AcDbEntity
  8
V_02_Head_Puck_Head_Puck_1
100
AcDbLine
 10
204.951690821
 20
113.161835749
 30
0.000000000
 11
204.951690821
 21
128.765700483
 31
0.000000000
  0
LINE
  5
A1B
330
A02
100
AcDbEntity
  8
V_02_Head_Puck_Head_Puck_1
100
AcDbLine
 10
211.835748792
 20
128.765700483
 30
0.000000000
 11
211.835748792
 21
141.157004831
 31
0.000000000
  0
LINE
  5
A1C
330
A02
100
AcDbEntity
  8
V_02_Head_Puck_Head_Puck_1
100
AcDbLine
 10
208.164251208
 20
128.765700483
 30
0.000000000
 11
204.951690821
 21
128.765700483
 31
0.000000000
  0
LINE
  5
A1D
330
A02
100
AcDbEntity
  8
V_02_Head_Puck_Head_Puck_1
100
AcDbLine
 10
211.835748792
 20
141.157004831
 30
0.000000000
 11
208.164251208
 21
141.157004831
 31
0.000000000
  0
LINE
  5
A1E
330
A02
100
AcDbEntity
  8
V_02_Head_Puck_Head_Puck_1
100
AcDbLine
 10
208.164251208
 20
128.765700483
 30
0.000000000
 11
208.164251208
 21
141.157004831
 31
0.000000000
  0
CIRCLE
  5
A1F
330
A02
100
AcDbEntity
  8
V_02_Head_Puck_Head_Puck_1
100
AcDbCircle
 10
238.395290428
 20
120.104709572
 30
0.000000000
 40
1.032608696
  0
CIRCLE
  5
A20
330
A02
100
AcDbEntity
  8
V_02_Head_Puck_Head_Puck_1
100
AcDbCircle
 10
223.768115942
 20
134.731884058
 30
0.000000000
 40
2.753623188
  0
CIRCLE
  5
A21
330
A02
100
AcDbEntity
  8
V_02_Head_Puck_Head_Puck_1
100
AcDbCircle
 10
210.000000000
 20
148.500000000
 30
0.000000000
 40
2.065217391
  0
CIRCLE
  5
A22
330
A02
100
AcDbEntity
  8
V_02_Head_Puck_Head_Puck_1
100
AcDbCircle
 10
196.231884058
 20
162.268115942
 30
0.000000000
 40
2.753623188
  0
CIRCLE
  5
A23
330
A02
100
AcDbEntity
  8
V_02_Head_Puck_Head_Puck_1
100
AcDbCircle
 10
181.604709572
 20
176.895290428
 30
0.000000000
 40
1.032608696
  0
CIRCLE
  5
A24
330
A02
100
AcDbEntity
  8
V_02_Head_Puck_Head_Puck_1
100
AcDbCircle
 10
197.149758454
 20
176.036231884
 30
0.000000000
 40
0.780193237
  0
LINE
  5
A25
330
A02
100
AcDbEntity
  8
V_02_Head_Puck_Head_Puck_1
100
AcDbLine
 10
219.408212560
 20
166.628019324
 30
0.000000000
 11
200.591787440
 21
166.628019324
 31
0.000000000
  0
LINE
  5
A26
330
A02
100
AcDbEntity
  8
V_02_Head_Puck_Head_Puck_1
100
AcDbLine
 10
219.408212560
 20
166.628019324
 30
0.000000000
 11
219.408212560
 21
185.444444444
 31
0.000000000
  0
LINE
  5
A27
330
A02
100
AcDbEntity
  8
V_02_Head_Puck_Head_Puck_1
100
AcDbLine
 10
200.591787440
 20
166.628019324
 30
0.000000000
 11
200.591787440
 21
185.444444444
 31
0.000000000
  0
LINE
  5
A28
330
A02
100
AcDbEntity
  8
V_02_Head_Puck_Head_Puck_1
100
AcDbLine
 10
219.408212560
 20
185.444444444
 30
0.000000000
 11
200.591787440
 21
185.444444444
 31
0.000000000
  0
CIRCLE
  5
A29
330
A02
100
AcDbEntity
  8
V_02_Head_Puck_Head_Puck_1
100
AcDbCircle
 10
222.850241546
 20
176.036231884
 30
0.000000000
 40
0.780193237
  0
CIRCLE
  5
A2A
330
A02
100
AcDbEntity
  8
V_02_Head_Puck_Head_Puck_1
100
AcDbCircle
 10
238.395290428
 20
176.895290428
 30
0.000000000
 40
1.032608696
  0
CIRCLE
  5
A2B
330
A02
100
AcDbEntity
  8
V_02_Head_Puck_Head_Puck_1
100
AcDbCircle
 10
196.231884058
 20
120.963768116
 30
0.000000000
 40
0.780193237
  0
CIRCLE
  5
A2C
330
A02
100
AcDbEntity
  8
V_02_Head_Puck_Head_Puck_1
100
AcDbCircle
 10
223.768115942
 20
120.963768116
 30
0.000000000
 40
0.780193237
  0
CIRCLE
  5
A2D
330
A02
100
AcDbEntity
  8
V_02_Head_Puck_Head_Puck_1
100
AcDbCircle
 10
210.000000000
 20
134.731884058
 30
0.000000000
 40
1.032608696
  0
CIRCLE
  5
A2E
330
A02
100
AcDbEntity
  8
V_02_Head_Puck_Head_Puck_1
100
AcDbCircle
 10
210.000000000
 20
176.036231884
 30
0.000000000
 40
3.212560386
  0
LINE
  5
A2F
330
A02
100
AcDbEntity
  8
V_02_Head_Puck_Head_Puck_1
100
AcDbLine
 10
208.164251208
 20
128.765700483
 30
0.000000000
 11
211.835748792
 21
128.765700483
 31
0.000000000
  0
CIRCLE
  5
A30
330
A02
100
AcDbEntity
  8
V_02_Head_Puck_Head_Puck_1
100
AcDbCircle
 10
210.000000000
 20
114.997584541
 30
0.000000000
 40
0.780193237
  0
CIRCLE
  5
A31
330
A02
100
AcDbEntity
  8
V_02_Head_Puck_Head_Puck_1
100
AcDbCircle
 10
210.000000000
 20
126.929951691
 30
0.000000000
 40
0.780193237
  0
SPLINE
  5
A32
330
A02
100
AcDbEntity
  8
V_02_Head_Puck_Head_Puck_2
100
AcDbSpline
210
0
220
0
230
1
 70
8
 71
1
 72
17
 73
15
 74
0
 40
0.000000000
 40
0.000000000
 40
0.112199738
 40
0.224399475
 40
0.336599213
 40
0.448798951
 40
0.560998688
 40
0.673198426
 40
0.785398163
 40
0.897597901
 40
1.009797639
 40
1.121997376
 40
1.234197114
 40
1.346396852
 40
1.458596589
 40
1.570796327
 40
1.570796327
 10
210.000000000
 20
142.074879227
 30
0.000000000
 10
215.318312615
 20
142.074879227
 30
0.000000000
 10
220.569744363
 20
142.074879227
 30
0.000000000
 10
225.688255443
 20
142.074879227
 30
0.000000000
 10
230.609477608
 20
142.074879227
 30
0.000000000
 10
235.271523634
 20
142.074879227
 30
0.000000000
 10
239.615765588
 20
142.074879227
 30
0.000000000
 10
243.587572106
 20
142.074879227
 30
0.000000000
 10
247.136995417
 20
142.074879227
 30
0.000000000
 10
250.219399463
 20
142.074879227
 30
0.000000000
 10
252.796021225
 20
142.074879227
 30
0.000000000
 10
254.834458190
 20
142.074879227
 30
0.000000000
 10
256.309075829
 20
142.074879227
 30
0.000000000
 10
257.201329970
 20
142.074879227
 30
0.000000000
 10
257.500000000
 20
142.074879227
 30
0.000000000
  0
SPLINE
  5
A33
330
A02
100
AcDbEntity
  8
V_02_Head_Puck_Head_Puck_2
100
AcDbSpline
210
0
220
0
230
1
 70
8
 71
1
 72
17
 73
15
 74
0
 40
4.712388980
 40
4.712388980
 40
4.824588718
 40
4.936788456
 40
5.048988193
 40
5.161187931
 40
5.273387669
 40
5.385587406
 40
5.497787144
 40
5.609986881
 40
5.722186619
 40
5.834386357
 40
5.946586094
 40
6.058785832
 40
6.170985570
 40
6.283185307
 40
6.283185307
 10
162.500000000
 20
142.074879227
 30
0.000000000
 10
162.798670030
 20
142.074879227
 30
0.000000000
 10
163.690924171
 20
142.074879227
 30
0.000000000
 10
165.165541810
 20
142.074879227
 30
0.000000000
 10
167.203978775
 20
142.074879227
 30
0.000000000
 10
169.780600537
 20
142.074879227
 30
0.000000000
 10
172.863004583
 20
142.074879227
 30
0.000000000
 10
176.412427894
 20
142.074879227
 30
0.000000000
 10
180.384234412
 20
142.074879227
 30
0.000000000
 10
184.728476366
 20
142.074879227
 30
0.000000000
 10
189.390522392
 20
142.074879227
 30
0.000000000
 10
194.311744557
 20
142.074879227
 30
0.000000000
 10
199.430255637
 20
142.074879227
 30
0.000000000
 10
204.681687385
 20
142.074879227
 30
0.000000000
 10
210.000000000
 20
142.074879227
 30
0.000000000
  0
SPLINE
  5
A34
330
A02
100
AcDbEntity
  8
V_02_Head_Puck_Head_Puck_2
100
AcDbSpline
210
0
220
0
230
1
 70
8
 71
1
 72
17
 73
15
 74
0
 40
0.000000000
 40
0.000000000
 40
0.112199738
 40
0.224399475
 40
0.336599213
 40
0.448798951
 40
0.560998688
 40
0.673198426
 40
0.785398163
 40
0.897597901
 40
1.009797639
 40
1.121997376
 40
1.234197114
 40
1.346396852
 40
1.458596589
 40
1.570796327
 40
1.570796327
 10
210.000000000
 20
148.591787440
 30
0.000000000
 10
215.318312615
 20
148.591787440
 30
0.000000000
 10
220.569744363
 20
148.591787440
 30
0.000000000
 10
225.688255443
 20
148.591787440
 30
0.000000000
 10
230.609477608
 20
148.591787440
 30
0.000000000
 10
235.271523634
 20
148.591787440
 30
0.000000000
 10
239.615765588
 20
148.591787440
 30
0.000000000
 10
243.587572106
 20
148.591787440
 30
0.000000000
 10
247.136995417
 20
148.591787440
 30
0.000000000
 10
250.219399463
 20
148.591787440
 30
0.000000000
 10
252.796021225
 20
148.591787440
 30
0.000000000
 10
254.834458190
 20
148.591787440
 30
0.000000000
 10
256.309075829
 20
148.591787440
 30
0.000000000
 10
257.201329970
 20
148.591787440
 30
0.000000000
 10
257.500000000
 20
148.591787440
 30
0.000000000
  0
SPLINE
  5
A35
330
A02
100
AcDbEntity
  8
V_02_Head_Puck_Head_Puck_2
100
AcDbSpline
210
0
220
0
230
1
 70
8
 71
1
 72
17
 73
15
 74
0
 40
4.712388980
 40
4.712388980
 40
4.824588718
 40
4.936788456
 40
5.048988193
 40
5.161187931
 40
5.273387669
 40
5.385587406
 40
5.497787144
 40
5.609986881
 40
5.722186619
 40
5.834386357
 40
5.946586094
 40
6.058785832
 40
6.170985570
 40
6.283185307
 40
6.283185307
 10
162.500000000
 20
148.591787440
 30
0.000000000
 10
162.798670030
 20
148.591787440
 30
0.000000000
 10
163.690924171
 20
148.591787440
 30
0.000000000
 10
165.165541810
 20
148.591787440
 30
0.000000000
 10
167.203978775
 20
148.591787440
 30
0.000000000
 10
169.780600537
 20
148.591787440
 30
0.000000000
 10
172.863004583
 20
148.591787440
 30
0.000000000
 10
176.412427894
 20
148.591787440
 30
0.000000000
 10
180.384234412
 20
148.591787440
 30
0.000000000
 10
184.728476366
 20
148.591787440
 30
0.000000000
 10
189.390522392
 20
148.591787440
 30
0.000000000
 10
194.311744557
 20
148.591787440
 30
0.000000000
 10
199.430255637
 20
148.591787440
 30
0.000000000
 10
204.681687385
 20
148.591787440
 30
0.000000000
 10
210.000000000
 20
148.591787440
 30
0.000000000
  0
SPLINE
  5
A36
330
A02
100
AcDbEntity
  8
V_02_Head_Puck_Head_Puck_2
100
AcDbSpline
210
0
220
0
230
1
 70
8
 71
1
 72
17
 73
15
 74
0
 40
0.000000000
 40
0.000000000
 40
0.112199738
 40
0.224399475
 40
0.336599213
 40
0.448798951
 40
0.560998688
 40
0.673198426
 40
0.785398163
 40
0.897597901
 40
1.009797639
 40
1.121997376
 40
1.234197114
 40
1.346396852
 40
1.458596589
 40
1.570796327
 40
1.570796327
 10
210.000000000
 20
141.615942029
 30
0.000000000
 10
215.241235620
 20
141.615942029
 30
0.000000000
 10
220.416559662
 20
141.615942029
 30
0.000000000
 10
225.460889422
 20
141.615942029
 30
0.000000000
 10
230.310789527
 20
141.615942029
 30
0.000000000
 10
234.905269669
 20
141.615942029
 30
0.000000000
 10
239.186551594
 20
141.615942029
 30
0.000000000
 10
243.100795699
 20
141.615942029
 30
0.000000000
 10
246.598778092
 20
141.615942029
 30
0.000000000
 10
249.636509616
 20
141.615942029
 30
0.000000000
 10
252.175789034
 20
141.615942029
 30
0.000000000
 10
254.184683433
 20
141.615942029
 30
0.000000000
 10
255.637929802
 20
141.615942029
 30
0.000000000
 10
256.517252724
 20
141.615942029
 30
0.000000000
 10
256.811594203
 20
141.615942029
 30
0.000000000
  0
SPLINE
  5
A37
330
A02
100
AcDbEntity
  8
V_02_Head_Puck_Head_Puck_2
100
AcDbSpline
210
0
220
0
230
1
 70
8
 71
1
 72
17
 73
15
 74
0
 40
4.712388980
 40
4.712388980
 40
4.824588718
 40
4.936788456
 40
5.048988193
 40
5.161187931
 40
5.273387669
 40
5.385587406
 40
5.497787144
 40
5.609986881
 40
5.722186619
 40
5.834386357
 40
5.946586094
 40
6.058785832
 40
6.170985570
 40
6.283185307
 40
6.283185307
 10
163.188405797
 20
141.615942029
 30
0.000000000
 10
163.482747276
 20
141.615942029
 30
0.000000000
 10
164.362070198
 20
141.615942029
 30
0.000000000
 10
165.815316567
 20
141.615942029
 30
0.000000000
 10
167.824210966
 20
141.615942029
 30
0.000000000
 10
170.363490384
 20
141.615942029
 30
0.000000000
 10
173.401221908
 20
141.615942029
 30
0.000000000
 10
176.899204301
 20
141.615942029
 30
0.000000000
 10
180.813448406
 20
141.615942029
 30
0.000000000
 10
185.094730331
 20
141.615942029
 30
0.000000000
 10
189.689210473
 20
141.615942029
 30
0.000000000
 10
194.539110578
 20
141.615942029
 30
0.000000000
 10
199.583440338
 20
141.615942029
 30
0.000000000
 10
204.758764380
 20
141.615942029
 30
0.000000000
 10
210.000000000
 20
141.615942029
 30
0.000000000
  0
SPLINE
  5
A38
330
A02
100
AcDbEntity
  8
V_02_Head_Puck_Head_Puck_2
100
AcDbSpline
210
0
220
0
230
1
 70
8
 71
1
 72
17
 73
15
 74
0
 40
0.000000000
 40
0.000000000
 40
0.112199738
 40
0.224399475
 40
0.336599213
 40
0.448798951
 40
0.560998688
 40
0.673198426
 40
0.785398163
 40
0.897597901
 40
1.009797639
 40
1.121997376
 40
1.234197114
 40
1.346396852
 40
1.458596589
 40
1.570796327
 40
1.570796327
 10
210.000000000
 20
155.384057971
 30
0.000000000
 10
215.138466295
 20
155.384057971
 30
0.000000000
 10
220.212313394
 20
155.384057971
 30
0.000000000
 10
225.157734727
 20
155.384057971
 30
0.000000000
 10
229.912538752
 20
155.384057971
 30
0.000000000
 10
234.416931048
 20
155.384057971
 30
0.000000000
 10
238.614266269
 20
155.384057971
 30
0.000000000
 10
242.451760489
 20
155.384057971
 30
0.000000000
 10
245.881154992
 20
155.384057971
 30
0.000000000
 10
248.859323153
 20
155.384057971
 30
0.000000000
 10
251.348812778
 20
155.384057971
 30
0.000000000
 10
253.318317091
 20
155.384057971
 30
0.000000000
 10
254.743068433
 20
155.384057971
 30
0.000000000
 10
255.605149729
 20
155.384057971
 30
0.000000000
 10
255.893719807
 20
155.384057971
 30
0.000000000
  0
SPLINE
  5
A39
330
A02
100
AcDbEntity
  8
V_02_Head_Puck_Head_Puck_2
100
AcDbSpline
210
0
220
0
230
1
 70
8
 71
1
 72
17
 73
15
 74
0
 40
4.712388980
 40
4.712388980
 40
4.824588718
 40
4.936788456
 40
5.048988193
 40
5.161187931
 40
5.273387669
 40
5.385587406
 40
5.497787144
 40
5.609986881
 40
5.722186619
 40
5.834386357
 40
5.946586094
 40
6.058785832
 40
6.170985570
 40
6.283185307
 40
6.283185307
 10
164.106280193
 20
155.384057971
 30
0.000000000
 10
164.394850271
 20
155.384057971
 30
0.000000000
 10
165.256931567
 20
155.384057971
 30
0.000000000
 10
166.681682909
 20
155.384057971
 30
0.000000000
 10
168.651187222
 20
155.384057971
 30
0.000000000
 10
171.140676847
 20
155.384057971
 30
0.000000000
 10
174.118845008
 20
155.384057971
 30
0.000000000
 10
177.548239511
 20
155.384057971
 30
0.000000000
 10
181.385733731
 20
155.384057971
 30
0.000000000
 10
185.583068952
 20
155.384057971
 30
0.000000000
 10
190.087461248
 20
155.384057971
 30
0.000000000
 10
194.842265273
 20
155.384057971
 30
0.000000000
 10
199.787686606
 20
155.384057971
 30
0.000000000
 10
204.861533705
 20
155.384057971
 30
0.000000000
 10
210.000000000
 20
155.384057971
 30
0.000000000
  0
LINE
  5
A3A
330
A02
100
AcDbEntity
  8
V_02_Head_Puck_Head_Puck_2
100
AcDbLine
 10
257.500000000
 20
142.074879227
 30
0.000000000
 11
257.500000000
 21
148.591787440
 31
0.000000000
  0
LINE
  5
A3B
330
A02
100
AcDbEntity
  8
V_02_Head_Puck_Head_Puck_2
100
AcDbLine
 10
162.500000000
 20
142.074879227
 30
0.000000000
 11
162.500000000
 21
148.591787440
 31
0.000000000
  0
LINE
  5
A3C
330
A02
100
AcDbEntity
  8
V_02_Head_Puck_Head_Puck_2
100
AcDbLine
 10
256.811594203
 20
141.615942029
 30
0.000000000
 11
256.811594203
 21
142.074879227
 31
0.000000000
  0
LINE
  5
A3D
330
A02
100
AcDbEntity
  8
V_02_Head_Puck_Head_Puck_2
100
AcDbLine
 10
163.188405797
 20
141.615942029
 30
0.000000000
 11
163.188405797
 21
142.074879227
 31
0.000000000
  0
LINE
  5
A3E
330
A02
100
AcDbEntity
  8
V_02_Head_Puck_Head_Puck_2
100
AcDbLine
 10
255.893719807
 20
148.591787440
 30
0.000000000
 11
255.893719807
 21
155.384057971
 31
0.000000000
  0
LINE
  5
A3F
330
A02
100
AcDbEntity
  8
V_02_Head_Puck_Head_Puck_2
100
AcDbLine
 10
164.106280193
 20
148.591787440
 30
0.000000000
 11
164.106280193
 21
155.384057971
 31
0.000000000
  0
ELLIPSE
  5
A40
330
A02
100
AcDbEntity
  8
V_02_Head_Puck_Head_Puck_3
100
AcDbEllipse
 10
210.000000000
 20
143.530243681
 30
0.000000000
 11
47.500000000
 21
0.000000000
 31
0.000000000
 40
0.577350269
 41
5.497787144
 42
0.000000000
  0
ELLIPSE
  5
A41
330
A02
100
AcDbEntity
  8
V_02_Head_Puck_Head_Puck_3
100
AcDbEllipse
 10
210.000000000
 20
143.530243681
 30
0.000000000
 11
47.500000000
 21
0.000000000
 31
0.000000000
 40
0.577350269
 41
3.141592654
 42
5.497787144
  0
ELLIPSE
  5
A42
330
A02
100
AcDbEntity
  8
V_02_Head_Puck_Head_Puck_3
100
AcDbEllipse
 10
210.000000000
 20
148.851276955
 30
0.000000000
 11
47.500000000
 21
0.000000000
 31
0.000000000
 40
0.577350269
 41
5.497787144
 42
0.000000000
  0
ELLIPSE
  5
A43
330
A02
100
AcDbEntity
  8
V_02_Head_Puck_Head_Puck_3
100
AcDbEllipse
 10
210.000000000
 20
148.851276955
 30
0.000000000
 11
47.500000000
 21
0.000000000
 31
0.000000000
 40
0.577350269
 41
0.000000000
 42
0.268729385
  0
ELLIPSE
  5
A44
330
A02
100
AcDbEntity
  8
V_02_Head_Puck_Head_Puck_3
100
AcDbEllipse
 10
210.000000000
 20
148.851276955
 30
0.000000000
 11
47.500000000
 21
0.000000000
 31
0.000000000
 40
0.577350269
 41
2.872863268
 42
3.141592654
  0
ELLIPSE
  5
A45
330
A02
100
AcDbEntity
  8
V_02_Head_Puck_Head_Puck_3
100
AcDbEllipse
 10
210.000000000
 20
148.851276955
 30
0.000000000
 11
47.500000000
 21
0.000000000
 31
0.000000000
 40
0.577350269
 41
3.141592654
 42
5.497787144
  0
ELLIPSE
  5
A46
330
A02
100
AcDbEntity
  8
V_02_Head_Puck_Head_Puck_3
100
AcDbEllipse
 10
210.000000000
 20
148.851276955
 30
0.000000000
 11
45.893719807
 21
0.000000000
 31
0.000000000
 40
0.577350269
 41
5.497787144
 42
0.000000000
  0
ELLIPSE
  5
A47
330
A02
100
AcDbEntity
  8
V_02_Head_Puck_Head_Puck_3
100
AcDbEllipse
 10
210.000000000
 20
148.851276955
 30
0.000000000
 11
45.893719807
 21
0.000000000
 31
0.000000000
 40
0.577350269
 41
3.141592654
 42
5.497787144
  0
ELLIPSE
  5
A48
330
A02
100
AcDbEntity
  8
V_02_Head_Puck_Head_Puck_3
100
AcDbEllipse
 10
210.000000000
 20
154.397142621
 30
0.000000000
 11
45.893719807
 21
0.000000000
 31
0.000000000
 40
0.577350269
 41
5.497787144
 42
0.000000000
  0
ELLIPSE
  5
A49
330
A02
100
AcDbEntity
  8
V_02_Head_Puck_Head_Puck_3
100
AcDbEllipse
 10
210.000000000
 20
154.397142621
 30
0.000000000
 11
45.893719807
 21
0.000000000
 31
0.000000000
 40
0.577350269
 41
0.000000000
 42
3.141592654
  0
ELLIPSE
  5
A4A
330
A02
100
AcDbEntity
  8
V_02_Head_Puck_Head_Puck_3
100
AcDbEllipse
 10
210.000000000
 20
154.397142621
 30
0.000000000
 11
45.893719807
 21
0.000000000
 31
0.000000000
 40
0.577350269
 41
3.141592654
 42
5.497787144
  0
ELLIPSE
  5
A4B
330
A02
100
AcDbEntity
  8
V_02_Head_Puck_Head_Puck_3
100
AcDbEllipse
 10
169.842995169
 20
154.397142621
 30
0.000000000
 11
1.032608696
 21
0.000000000
 31
0.000000000
 40
0.577350269
 41
5.497787144
 42
0.000000000
  0
ELLIPSE
  5
A4C
330
A02
100
AcDbEntity
  8
V_02_Head_Puck_Head_Puck_3
100
AcDbEllipse
 10
169.842995169
 20
154.397142621
 30
0.000000000
 11
1.032608696
 21
0.000000000
 31
0.000000000
 40
0.577350269
 41
0.000000000
 42
3.141592654
  0
ELLIPSE
  5
A4D
330
A02
100
AcDbEntity
  8
V_02_Head_Puck_Head_Puck_3
100
AcDbEllipse
 10
169.842995169
 20
154.397142621
 30
0.000000000
 11
1.032608696
 21
0.000000000
 31
0.000000000
 40
0.577350269
 41
3.141592654
 42
5.497787144
  0
ELLIPSE
  5
A4E
330
A02
100
AcDbEntity
  8
V_02_Head_Puck_Head_Puck_3
100
AcDbEllipse
 10
180.793415560
 20
148.776332824
 30
0.000000000
 11
-1.537439614
 21
0.000000000
 31
0.000000000
 40
0.577350269
 41
-3.141592654
 42
-0.785398163
  0
ELLIPSE
  5
A4F
330
A02
100
AcDbEntity
  8
V_02_Head_Puck_Head_Puck_3
100
AcDbEllipse
 10
180.793415560
 20
148.776332824
 30
0.000000000
 11
-1.537439614
 21
0.000000000
 31
0.000000000
 40
0.577350269
 41
-0.000000000
 42
-3.141592654
  0
ELLIPSE
  5
A50
330
A02
100
AcDbEntity
  8
V_02_Head_Puck_Head_Puck_3
100
AcDbEllipse
 10
180.793415560
 20
148.776332824
 30
0.000000000
 11
-1.537439614
 21
0.000000000
 31
0.000000000
 40
0.577350269
 41
-0.785398163
 42
-0.000000000
  0
ELLIPSE
  5
A51
330
A02
100
AcDbEntity
  8
V_02_Head_Puck_Head_Puck_3
100
AcDbEllipse
 10
200.264471853
 20
137.534713232
 30
0.000000000
 11
-1.537439614
 21
0.000000000
 31
0.000000000
 40
0.577350269
 41
-3.141592654
 42
-0.785398163
  0
ELLIPSE
  5
A52
330
A02
100
AcDbEntity
  8
V_02_Head_Puck_Head_Puck_3
100
AcDbEllipse
 10
200.264471853
 20
137.534713232
 30
0.000000000
 11
-1.537439614
 21
0.000000000
 31
0.000000000
 40
0.577350269
 41
-0.000000000
 42
-3.141592654
  0
ELLIPSE
  5
A53
330
A02
100
AcDbEntity
  8
V_02_Head_Puck_Head_Puck_3
100
AcDbEllipse
 10
200.264471853
 20
137.534713232
 30
0.000000000
 11
-1.537439614
 21
0.000000000
 31
0.000000000
 40
0.577350269
 41
-0.785398163
 42
-0.000000000
  0
LINE
  5
A54
330
A02
100
AcDbEntity
  8
V_02_Head_Puck_Head_Puck_3
100
AcDbLine
 10
188.581838077
 20
137.909433885
 30
0.000000000
 11
199.615436643
 21
144.279684987
 31
0.000000000
  0
LINE
  5
A55
330
A02
100
AcDbEntity
  8
V_02_Head_Puck_Head_Puck_3
100
AcDbLine
 10
188.581838077
 20
137.909433885
 30
0.000000000
 11
181.442450769
 21
142.031361069
 31
0.000000000
  0
LINE
  5
A56
330
A02
100
AcDbEntity
  8
V_02_Head_Puck_Head_Puck_3
100
AcDbLine
 10
199.615436643
 20
144.279684987
 30
0.000000000
 11
197.343813409
 21
145.591207273
 31
0.000000000
  0
LINE
  5
A57
330
A02
100
AcDbEntity
  8
V_02_Head_Puck_Head_Puck_3
100
AcDbLine
 10
181.442450769
 20
142.031361069
 30
0.000000000
 11
192.476049336
 21
148.401612171
 31
0.000000000
  0
LINE
  5
A58
330
A02
100
AcDbEntity
  8
V_02_Head_Puck_Head_Puck_3
100
AcDbLine
 10
197.343813409
 20
145.591207273
 30
0.000000000
 11
206.105788741
 21
150.649936090
 31
0.000000000
  0
LINE
  5
A59
330
A02
100
AcDbEntity
  8
V_02_Head_Puck_Head_Puck_3
100
AcDbLine
 10
194.747672570
 20
147.090089886
 30
0.000000000
 11
192.476049336
 21
148.401612171
 31
0.000000000
  0
LINE
  5
A5A
330
A02
100
AcDbEntity
  8
V_02_Head_Puck_Head_Puck_3
100
AcDbLine
 10
206.105788741
 20
150.649936090
 30
0.000000000
 11
203.509647902
 21
152.148818702
 31
0.000000000
  0
LINE
  5
A5B
330
A02
100
AcDbEntity
  8
V_02_Head_Puck_Head_Puck_3
100
AcDbLine
 10
194.747672570
 20
147.090089886
 30
0.000000000
 11
203.509647902
 21
152.148818702
 31
0.000000000
  0
ELLIPSE
  5
A5C
330
A02
100
AcDbEntity
  8
V_02_Head_Puck_Head_Puck_3
100
AcDbEllipse
 10
210.000000000
 20
131.212485072
 30
0.000000000
 11
1.032608696
 21
0.000000000
 31
0.000000000
 40
0.577350269
 41
5.497787144
 42
0.000000000
  0
ELLIPSE
  5
A5D
330
A02
100
AcDbEntity
  8
V_02_Head_Puck_Head_Puck_3
100
AcDbEllipse
 10
210.000000000
 20
131.212485072
 30
0.000000000
 11
1.032608696
 21
0.000000000
 31
0.000000000
 40
0.577350269
 41
0.000000000
 42
3.141592654
  0
ELLIPSE
  5
A5E
330
A02
100
AcDbEntity
  8
V_02_Head_Puck_Head_Puck_3
100
AcDbEllipse
 10
210.000000000
 20
131.212485072
 30
0.000000000
 11
1.032608696
 21
0.000000000
 31
0.000000000
 40
0.577350269
 41
3.141592654
 42
5.497787144
  0
ELLIPSE
  5
A5F
330
A02
100
AcDbEntity
  8
V_02_Head_Puck_Head_Puck_3
100
AcDbEllipse
 10
210.000000000
 20
143.155523028
 30
0.000000000
 11
2.753623188
 21
0.000000000
 31
0.000000000
 40
0.577350269
 41
5.497787144
 42
0.000000000
  0
ELLIPSE
  5
A60
330
A02
100
AcDbEntity
  8
V_02_Head_Puck_Head_Puck_3
100
AcDbEllipse
 10
210.000000000
 20
143.155523028
 30
0.000000000
 11
2.753623188
 21
0.000000000
 31
0.000000000
 40
0.577350269
 41
0.000000000
 42
3.141592654
  0
ELLIPSE
  5
A61
330
A02
100
AcDbEntity
  8
V_02_Head_Puck_Head_Puck_3
100
AcDbEllipse
 10
210.000000000
 20
143.155523028
 30
0.000000000
 11
2.753623188
 21
0.000000000
 31
0.000000000
 40
0.577350269
 41
3.141592654
 42
5.497787144
  0
ELLIPSE
  5
A62
330
A02
100
AcDbEntity
  8
V_02_Head_Puck_Head_Puck_3
100
AcDbEllipse
 10
210.000000000
 20
154.397142621
 30
0.000000000
 11
2.065217391
 21
0.000000000
 31
0.000000000
 40
0.577350269
 41
5.497787144
 42
0.000000000
  0
ELLIPSE
  5
A63
330
A02
100
AcDbEntity
  8
V_02_Head_Puck_Head_Puck_3
100
AcDbEllipse
 10
210.000000000
 20
154.397142621
 30
0.000000000
 11
2.065217391
 21
0.000000000
 31
0.000000000
 40
0.577350269
 41
0.000000000
 42
3.141592654
  0
ELLIPSE
  5
A64
330
A02
100
AcDbEntity
  8
V_02_Head_Puck_Head_Puck_3
100
AcDbEllipse
 10
210.000000000
 20
154.397142621
 30
0.000000000
 11
2.065217391
 21
0.000000000
 31
0.000000000
 40
0.577350269
 41
3.141592654
 42
5.497787144
  0
ELLIPSE
  5
A65
330
A02
100
AcDbEntity
  8
V_02_Head_Puck_Head_Puck_3
100
AcDbEllipse
 10
210.000000000
 20
165.638762213
 30
0.000000000
 11
2.753623188
 21
0.000000000
 31
0.000000000
 40
0.577350269
 41
5.497787144
 42
0.000000000
  0
ELLIPSE
  5
A66
330
A02
100
AcDbEntity
  8
V_02_Head_Puck_Head_Puck_3
100
AcDbEllipse
 10
210.000000000
 20
165.638762213
 30
0.000000000
 11
2.753623188
 21
0.000000000
 31
0.000000000
 40
0.577350269
 41
0.000000000
 42
3.141592654
  0
ELLIPSE
  5
A67
330
A02
100
AcDbEntity
  8
V_02_Head_Puck_Head_Puck_3
100
AcDbEllipse
 10
210.000000000
 20
165.638762213
 30
0.000000000
 11
2.753623188
 21
0.000000000
 31
0.000000000
 40
0.577350269
 41
3.141592654
 42
5.497787144
  0
ELLIPSE
  5
A68
330
A02
100
AcDbEntity
  8
V_02_Head_Puck_Head_Puck_3
100
AcDbEllipse
 10
210.000000000
 20
177.581800170
 30
0.000000000
 11
1.032608696
 21
0.000000000
 31
0.000000000
 40
0.577350269
 41
5.497787144
 42
0.000000000
  0
ELLIPSE
  5
A69
330
A02
100
AcDbEntity
  8
V_02_Head_Puck_Head_Puck_3
100
AcDbEllipse
 10
210.000000000
 20
177.581800170
 30
0.000000000
 11
1.032608696
 21
0.000000000
 31
0.000000000
 40
0.577350269
 41
0.000000000
 42
3.141592654
  0
ELLIPSE
  5
A6A
330
A02
100
AcDbEntity
  8
V_02_Head_Puck_Head_Puck_3
100
AcDbEllipse
 10
210.000000000
 20
177.581800170
 30
0.000000000
 11
1.032608696
 21
0.000000000
 31
0.000000000
 40
0.577350269
 41
3.141592654
 42
5.497787144
  0
ELLIPSE
  5
A6B
330
A02
100
AcDbEntity
  8
V_02_Head_Puck_Head_Puck_3
100
AcDbEllipse
 10
220.384563357
 20
170.884851356
 30
0.000000000
 11
-0.780193237
 21
0.000000000
 31
0.000000000
 40
0.577350269
 41
-3.141592654
 42
-0.785398163
  0
ELLIPSE
  5
A6C
330
A02
100
AcDbEntity
  8
V_02_Head_Puck_Head_Puck_3
100
AcDbEllipse
 10
220.384563357
 20
170.884851356
 30
0.000000000
 11
-0.780193237
 21
0.000000000
 31
0.000000000
 40
0.577350269
 41
-0.000000000
 42
-3.141592654
  0
ELLIPSE
  5
A6D
330
A02
100
AcDbEntity
  8
V_02_Head_Puck_Head_Puck_3
100
AcDbEllipse
 10
220.384563357
 20
170.884851356
 30
0.000000000
 11
-0.780193237
 21
0.000000000
 31
0.000000000
 40
0.577350269
 41
-0.785398163
 42
-0.000000000
  0
LINE
  5
A6E
330
A02
100
AcDbEntity
  8
V_02_Head_Puck_Head_Puck_3
100
AcDbLine
 10
229.471056294
 20
157.956988825
 30
0.000000000
 11
216.165834493
 21
165.638762213
 31
0.000000000
  0
LINE
  5
A6F
330
A02
100
AcDbEntity
  8
V_02_Head_Puck_Head_Puck_3
100
AcDbLine
 10
229.471056294
 20
157.956988825
 30
0.000000000
 11
242.776278094
 21
165.638762213
 31
0.000000000
  0
LINE
  5
A70
330
A02
100
AcDbEntity
  8
V_02_Head_Puck_Head_Puck_3
100
AcDbLine
 10
216.165834493
 20
165.638762213
 30
0.000000000
 11
229.471056294
 21
173.320535601
 31
0.000000000
  0
LINE
  5
A71
330
A02
100
AcDbEntity
  8
V_02_Head_Puck_Head_Puck_3
100
AcDbLine
 10
242.776278094
 20
165.638762213
 30
0.000000000
 11
229.471056294
 21
173.320535601
 31
0.000000000
  0
ELLIPSE
  5
A72
330
A02
100
AcDbEntity
  8
V_02_Head_Puck_Head_Puck_3
100
AcDbEllipse
 10
238.557549231
 20
160.392673070
 30
0.000000000
 11
-0.780193237
 21
0.000000000
 31
0.000000000
 40
0.577350269
 41
-3.141592654
 42
-0.785398163
  0
ELLIPSE
  5
A73
330
A02
100
AcDbEntity
  8
V_02_Head_Puck_Head_Puck_3
100
AcDbEllipse
 10
238.557549231
 20
160.392673070
 30
0.000000000
 11
-0.780193237
 21
0.000000000
 31
0.000000000
 40
0.577350269
 41
-0.000000000
 42
-3.141592654
  0
ELLIPSE
  5
A74
330
A02
100
AcDbEntity
  8
V_02_Head_Puck_Head_Puck_3
100
AcDbEllipse
 10
238.557549231
 20
160.392673070
 30
0.000000000
 11
-0.780193237
 21
0.000000000
 31
0.000000000
 40
0.577350269
 41
-0.785398163
 42
-0.000000000
  0
ELLIPSE
  5
A75
330
A02
100
AcDbEntity
  8
V_02_Head_Puck_Head_Puck_3
100
AcDbEllipse
 10
250.157004831
 20
154.397142621
 30
0.000000000
 11
1.032608696
 21
0.000000000
 31
0.000000000
 40
0.577350269
 41
5.497787144
 42
0.000000000
  0
ELLIPSE
  5
A76
330
A02
100
AcDbEntity
  8
V_02_Head_Puck_Head_Puck_3
100
AcDbEllipse
 10
250.157004831
 20
154.397142621
 30
0.000000000
 11
1.032608696
 21
0.000000000
 31
0.000000000
 40
0.577350269
 41
0.000000000
 42
3.141592654
  0
ELLIPSE
  5
A77
330
A02
100
AcDbEntity
  8
V_02_Head_Puck_Head_Puck_3
100
AcDbEllipse
 10
250.157004831
 20
154.397142621
 30
0.000000000
 11
1.032608696
 21
0.000000000
 31
0.000000000
 40
0.577350269
 41
3.141592654
 42
5.497787144
  0
ELLIPSE
  5
A78
330
A02
100
AcDbEntity
  8
V_02_Head_Puck_Head_Puck_3
100
AcDbEllipse
 10
180.793415560
 20
147.461063332
 30
0.000000000
 11
-0.780193237
 21
0.000000000
 31
0.000000000
 40
0.577350269
 41
-1.831321475
 42
-1.310271179
  0
ELLIPSE
  5
A79
330
A02
100
AcDbEntity
  8
V_02_Head_Puck_Head_Puck_3
100
AcDbEllipse
 10
200.264471853
 20
136.219443740
 30
0.000000000
 11
-0.780193237
 21
0.000000000
 31
0.000000000
 40
0.577350269
 41
-1.831321475
 42
-1.310271179
  0
ELLIPSE
  5
A7A
330
A02
100
AcDbEntity
  8
V_02_Head_Puck_Head_Puck_3
100
AcDbEllipse
 10
180.793415560
 20
147.461063332
 30
0.000000000
 11
-1.537439614
 21
0.000000000
 31
0.000000000
 40
0.577350269
 41
-2.307214431
 42
-0.834378223
  0
ELLIPSE
  5
A7B
330
A02
100
AcDbEntity
  8
V_02_Head_Puck_Head_Puck_3
100
AcDbEllipse
 10
200.264471853
 20
136.219443740
 30
0.000000000
 11
-1.537439614
 21
0.000000000
 31
0.000000000
 40
0.577350269
 41
-2.307214431
 42
-0.834378223
  0
LINE
  5
A7C
330
A02
100
AcDbEntity
  8
V_02_Head_Puck_Head_Puck_3
100
AcDbLine
 10
197.343813409
 20
145.591207273
 30
0.000000000
 11
197.343813409
 21
142.968162702
 31
0.000000000
  0
LINE
  5
A7D
330
A02
100
AcDbEntity
  8
V_02_Head_Puck_Head_Puck_3
100
AcDbLine
 10
194.747672570
 20
147.090089886
 30
0.000000000
 11
194.747672570
 21
141.469280089
 31
0.000000000
  0
LINE
  5
A7E
330
A02
100
AcDbEntity
  8
V_02_Head_Puck_Head_Puck_3
100
AcDbLine
 10
192.476049336
 20
140.157757804
 30
0.000000000
 11
192.476049336
 21
148.401612171
 31
0.000000000
  0
LINE
  5
A7F
330
A02
100
AcDbEntity
  8
V_02_Head_Puck_Head_Puck_3
100
AcDbLine
 10
203.509647902
 20
149.151053478
 30
0.000000000
 11
203.509647902
 21
152.148818702
 31
0.000000000
  0
LINE
  5
A80
330
A02
100
AcDbEntity
  8
V_02_Head_Puck_Head_Puck_3
100
AcDbLine
 10
229.471056294
 20
163.577798621
 30
0.000000000
 11
229.471056294
 21
173.320535601
 31
0.000000000
  0
LINE
  5
A81
330
A02
100
AcDbEntity
  8
V_02_Head_Puck_Head_Puck_3
100
AcDbLine
 10
224.603292220
 20
160.767393723
 30
0.000000000
 11
229.471056294
 21
163.577798621
 31
0.000000000
  0
LINE
  5
A82
330
A02
100
AcDbEntity
  8
V_02_Head_Puck_Head_Puck_3
100
AcDbLine
 10
229.471056294
 20
163.577798621
 30
0.000000000
 11
234.338820367
 21
160.767393723
 31
0.000000000
  0
LINE
  5
A83
330
A02
100
AcDbEntity
  8
V_02_Head_Puck_Head_Puck_3
100
AcDbLine
 10
257.500000000
 20
143.530243681
 30
0.000000000
 11
257.500000000
 21
148.851276955
 31
0.000000000
  0
LINE
  5
A84
330
A02
100
AcDbEntity
  8
V_02_Head_Puck_Head_Puck_3
100
AcDbLine
 10
162.500000000
 20
143.530243681
 30
0.000000000
 11
162.500000000
 21
148.851276955
 31
0.000000000
  0
LINE
  5
A85
330
A02
100
AcDbEntity
  8
V_02_Head_Puck_Head_Puck_3
100
AcDbLine
 10
255.893719807
 20
148.851276955
 30
0.000000000
 11
255.893719807
 21
154.397142621
 31
0.000000000
  0
LINE
  5
A86
330
A02
100
AcDbEntity
  8
V_02_Head_Puck_Head_Puck_3
100
AcDbLine
 10
164.106280193
 20
148.851276955
 30
0.000000000
 11
164.106280193
 21
154.397142621
 31
0.000000000
  0
TEXT
  5
A87
330
A02
100
AcDbEntity
  8
A_02_Head_Puck_Head_Puck
100
AcDbText
 10
210.000000000
 20
148.500000000
 30
0.000000000
 40
3.500000000
  1
Head_Puck  (white)
  7
STANDARD
 72
1
 11
210.000000000
 21
148.500000000
 31
0.000000000
100
AcDbText
  0
ENDSEC
  0
SECTION
  2
OBJECTS
  0
DICTIONARY
  5
F000
330
0
100
AcDbDictionary
  3
ACAD_GROUP
350
F001
  0
DICTIONARY
  5
F001
330
F000
100
AcDbDictionary
  0
ENDSEC
  0
EOF