999
FreeCAD v1.1 44987 (Git)
  0
SECTION
  2
HEADER
  9
$ACADVER
  1
AC1014
  9
$ACADMAINTVER
 70
     9
  9
$DWGCODEPAGE
  3
ANSI_1252
  9
$TEXTSTYLE
  7
STANDARD
  9
$DIMSTYLE
  2
STANDARD
  9
$DIMTXSTY
  7
STANDARD
  9
$CMLSTYLE
  2
STANDARD
  9
$LUNITS
 70
2
  9
$INSUNITS
 70
4
  9
$PEXTMAX
 10
50
 20
50
 30
50
  9
$PEXTMIN
 10
0
 20
0
 30
0
  9
$HANDSEED
  5
FFFF
  0
ENDSEC
  0
SECTION
  2
CLASSES
  0
CLASS
  1
ACDBDICTIONARYWDFLT
  2
AcDbDictionaryWithDefault
  3
ObjectDBX Classes
 90
        0
280
     0
281
     0
  0
CLASS
  1
XRECORD
  2
AcDbXrecord
  3
ObjectDBX Classes
 90
        0
280
     0
281
     0
  0
CLASS
  1
LWPOLYLINE
  2
AcDbPolyline
  3
ObjectDBX Classes
 90
        0
280
     0
281
     1
  0
ENDSEC
  0
SECTION
  2
TABLES
  0
TABLE
  2
VPORT
  5
20
330
0
100
AcDbSymbolTable
 70
     1
  0
VPORT
  5
21
330
20
100
AcDbSymbolTableRecord
100
AcDbViewportTableRecord
  2
*ACTIVE
 70
     0
  0
ENDTAB
  0
TABLE
  2
LTYPE
  5
22
330
0
100
AcDbSymbolTable
 70
     1
  0
LTYPE
  5
23
330
21
100
AcDbSymbolTableRecord
100
AcDbLinetypeTableRecord
  2
BYBLOCK
 70
     0
  3

 72
    65
 73
     0
 40
0.0
  0
LTYPE
  5
24
330
21
100
AcDbSymbolTableRecord
100
AcDbLinetypeTableRecord
  2
BYLAYER
 70
     0
  3

 72
    65
 73
     0
 40
0.0
  0
LTYPE
  5
25
330
21
100
AcDbSymbolTableRecord
100
AcDbLinetypeTableRecord
  2
CONTINUOUS
 70
     0
  3
Solid line
 72
    65
 73
     0
 40
0.0
  0
ENDTAB
  0
TABLE
  2
LAYER
  5
C25
330
0
100
AcDbSymbolTable
 70
31
  0
LAYER
  5
C26
330
C25
100
AcDbSymbolTableRecord
100
AcDbLayerTableRecord
  2
0
 70
   0
 62
   7
  6
CONTINUOUS
  0
LAYER
  5
C27
330
C25
100
AcDbSymbolTableRecord
100
AcDbLayerTableRecord
  2
V_05_Cradle_Cradle_Hub_0
 70
    0
 62
    7
  6
CONTINUOUS
  0
LAYER
  5
C28
330
C25
100
AcDbSymbolTableRecord
100
AcDbLayerTableRecord
  2
V_05_Cradle_Cradle_Hub_1
 70
    0
 62
    7
  6
CONTINUOUS
  0
LAYER
  5
C29
330
C25
100
AcDbSymbolTableRecord
100
AcDbLayerTableRecord
  2
V_05_Cradle_Cradle_Hub_2
 70
    0
 62
    7
  6
CONTINUOUS
  0
LAYER
  5
C2A
330
C25
100
AcDbSymbolTableRecord
100
AcDbLayerTableRecord
  2
V_05_Cradle_Cradle_Hub_3
 70
    0
 62
    7
  6
CONTINUOUS
  0
LAYER
  5
C2B
330
C25
100
AcDbSymbolTableRecord
100
AcDbLayerTableRecord
  2
A_05_Cradle_Cradle_Hub
 70
    0
 62
    7
  6
CONTINUOUS
  0
LAYER
  5
C2C
330
C25
100
AcDbSymbolTableRecord
100
AcDbLayerTableRecord
  2
V_05_Cradle_Cradle_Lid_0
 70
    0
 62
    7
  6
CONTINUOUS
  0
LAYER
  5
C2D
330
C25
100
AcDbSymbolTableRecord
100
AcDbLayerTableRecord
  2
V_05_Cradle_Cradle_Lid_1
 70
    0
 62
    7
  6
CONTINUOUS
  0
LAYER
  5
C2E
330
C25
100
AcDbSymbolTableRecord
100
AcDbLayerTableRecord
  2
V_05_Cradle_Cradle_Lid_2
 70
    0
 62
    7
  6
CONTINUOUS
  0
LAYER
  5
C2F
330
C25
100
AcDbSymbolTableRecord
100
AcDbLayerTableRecord
  2
V_05_Cradle_Cradle_Lid_3
 70
    0
 62
    7
  6
CONTINUOUS
  0
LAYER
  5
C30
330
C25
100
AcDbSymbolTableRecord
100
AcDbLayerTableRecord
  2
A_05_Cradle_Cradle_Lid
 70
    0
 62
    7
  6
CONTINUOUS
  0
LAYER
  5
C31
330
C25
100
AcDbSymbolTableRecord
100
AcDbLayerTableRecord
  2
V_05_Cradle_El_Stub_R_0
 70
    0
 62
    7
  6
CONTINUOUS
  0
LAYER
  5
C32
330
C25
100
AcDbSymbolTableRecord
100
AcDbLayerTableRecord
  2
V_05_Cradle_El_Stub_R_1
 70
    0
 62
    7
  6
CONTINUOUS
  0
LAYER
  5
C33
330
C25
100
AcDbSymbolTableRecord
100
AcDbLayerTableRecord
  2
V_05_Cradle_El_Stub_R_2
 70
    0
 62
    7
  6
CONTINUOUS
  0
LAYER
  5
C34
330
C25
100
AcDbSymbolTableRecord
100
AcDbLayerTableRecord
  2
V_05_Cradle_El_Stub_R_3
 70
    0
 62
    7
  6
CONTINUOUS
  0
LAYER
  5
C35
330
C25
100
AcDbSymbolTableRecord
100
AcDbLayerTableRecord
  2
A_05_Cradle_El_Stub_R
 70
    0
 62
    7
  6
CONTINUOUS
  0
LAYER
  5
C36
330
C25
100
AcDbSymbolTableRecord
100
AcDbLayerTableRecord
  2
V_05_Cradle_El_Stub_L_0
 70
    0
 62
    7
  6
CONTINUOUS
  0
LAYER
  5
C37
330
C25
100
AcDbSymbolTableRecord
100
AcDbLayerTableRecord
  2
V_05_Cradle_El_Stub_L_1
 70
    0
 62
    7
  6
CONTINUOUS
  0
LAYER
  5
C38
330
C25
100
AcDbSymbolTableRecord
100
AcDbLayerTableRecord
  2
V_05_Cradle_El_Stub_L_2
 70
    0
 62
    7
  6
CONTINUOUS
  0
LAYER
  5
C39
330
C25
100
AcDbSymbolTableRecord
100
AcDbLayerTableRecord
  2
V_05_Cradle_El_Stub_L_3
 70
    0
 62
    7
  6
CONTINUOUS
  0
LAYER
  5
C3A
330
C25
100
AcDbSymbolTableRecord
100
AcDbLayerTableRecord
  2
A_05_Cradle_El_Stub_L
 70
    0
 62
    7
  6
CONTINUOUS
  0
LAYER
  5
C3B
330
C25
100
AcDbSymbolTableRecord
100
AcDbLayerTableRecord
  2
V_05_Cradle_El_Bearing_Cap_R_0
 70
    0
 62
    7
  6
CONTINUOUS
  0
LAYER
  5
C3C
330
C25
100
AcDbSymbolTableRecord
100
AcDbLayerTableRecord
  2
V_05_Cradle_El_Bearing_Cap_R_1
 70
    0
 62
    7
  6
CONTINUOUS
  0
LAYER
  5
C3D
330
C25
100
AcDbSymbolTableRecord
100
AcDbLayerTableRecord
  2
V_05_Cradle_El_Bearing_Cap_R_2
 70
    0
 62
    7
  6
CONTINUOUS
  0
LAYER
  5
C3E
330
C25
100
AcDbSymbolTableRecord
100
AcDbLayerTableRecord
  2
V_05_Cradle_El_Bearing_Cap_R_3
 70
    0
 62
    7
  6
CONTINUOUS
  0
LAYER
  5
C3F
330
C25
100
AcDbSymbolTableRecord
100
AcDbLayerTableRecord
  2
A_05_Cradle_El_Bearing_Cap_R
 70
    0
 62
    7
  6
CONTINUOUS
  0
LAYER
  5
C40
330
C25
100
AcDbSymbolTableRecord
100
AcDbLayerTableRecord
  2
V_05_Cradle_El_Bushing_R_Lower_0
 70
    0
 62
    7
  6
CONTINUOUS
  0
LAYER
  5
C41
330
C25
100
AcDbSymbolTableRecord
100
AcDbLayerTableRecord
  2
V_05_Cradle_El_Bushing_R_Lower_1
 70
    0
 62
    7
  6
CONTINUOUS
  0
LAYER
  5
C42
330
C25
100
AcDbSymbolTableRecord
100
AcDbLayerTableRecord
  2
V_05_Cradle_El_Bushing_R_Lower_2
 70
    0
 62
    7
  6
CONTINUOUS
  0
LAYER
  5
C43
330
C25
100
AcDbSymbolTableRecord
100
AcDbLayerTableRecord
  2
V_05_Cradle_El_Bushing_R_Lower_3
 70
    0
 62
    7
  6
CONTINUOUS
  0
LAYER
  5
C44
330
C25
100
AcDbSymbolTableRecord
100
AcDbLayerTableRecord
  2
A_05_Cradle_El_Bushing_R_Lower
 70
    0
 62
    7
  6
CONTINUOUS
  0
ENDTAB
  0
TABLE
  2
STYLE
  5
70
330
0
100
AcDbSymbolTable
 70
     2
  0
STYLE
  5
71
330
70
100
AcDbSymbolTableRecord
100
AcDbTextStyleTableRecord
  2
STANDARD
 70
     0
 40
0.0
 41
1.0
 50
0.0
 71
     0
 42
2.5
  3
arial.ttf
  4

  0
STYLE
  5
72
330
70
100
AcDbSymbolTableRecord
100
AcDbTextStyleTableRecord
  2
ANNOTATIVE
 70
     0
 40
0.0
 41
1.0
 50
0.0
 71
     0
 42
2.5
  3
arial.ttf
  4

  0
ENDTAB
  0
TABLE
  2
VIEW
  5
73
330
0
100
AcDbSymbolTable
 70
     0
  0
ENDTAB
  0
TABLE
  2
UCS
  5
74
330
0
100
AcDbSymbolTable
 70
     0
  0
ENDTAB
  0
TABLE
  2
APPID
  5
75
330
0
100
AcDbSymbolTable
 70
     2
  0
APPID
  5
76
330
75
100
AcDbSymbolTableRecord
100
AcDbRegAppTableRecord
  2
ACAD
 70
     0
  0
APPID
  5
77
330
75
100
AcDbSymbolTableRecord
100
AcDbRegAppTableRecord
  2
ACADANNOTATIVE
 70
     0
  0
ENDTAB
  0
TABLE
  2
DIMSTYLE
  5
78
330
0
100
AcDbSymbolTable
 70
     2
  0
DIMSTYLE
105
79
330
78
100
AcDbSymbolTableRecord
100
AcDbDimStyleTableRecord
  2
STANDARD
 70
     0
  3

  4

  5

  6

  7

 40
0.0
 41
2.5
 42
0.625
 43
3.75
 44
1.25
 45
0.0
 46
0.0
 47
0.0
 48
0.0
140
2.5
141
2.5
142
0.0
143
0.03937007874016
144
1.0
145
0.0
146
1.0
147
0.625
 71
     0
 72
     0
 73
     0
 74
     0
 75
     0
 76
     0
 77
     1
 78
     8
170
     0
171
     3
172
     1
173
     0
174
     0
175
     0
176
     0
177
     0
178
     0
270
     2
271
     2
272
     2
273
     2
274
     3
340
71
275
     0
280
     0
281
     0
282
     0
283
     0
284
     8
285
     0
286
     0
287
     3
288
     0
  0
ENDTAB
  0
TABLE
  2
BLOCK_RECORD
  5
A01
330
0
100
AcDbSymbolTable
  70
5
  0
BLOCK_RECORD
  5
A02
330
A01
100
AcDbSymbolTableRecord
100
AcDbBlockTableRecord
  2
*MODEL_SPACE
  0
BLOCK_RECORD
  5
A03
330
A01
100
AcDbSymbolTableRecord
100
AcDbBlockTableRecord
  2
*PAPER_SPACE
  0
ENDTAB
  0
ENDSEC
  0
SECTION
  2
BLOCKS
  0
BLOCK
  5
A04
330
A02
100
AcDbEntity
  8
0
100
AcDbBlockBegin
  2
*MODEL_SPACE
 70
   0
 10
0
 20
0
 30
0
  3
*MODEL_SPACE
  1
 
  0
ENDBLK
  5
A05
330
A02
100
AcDbEntity
  8
0
100
AcDbBlockEnd
  0
BLOCK
  5
A06
330
A03
100
AcDbEntity
 67
1
  8
0
100
AcDbBlockBegin
  2
*PAPER_SPACE
 70
   0
 10
0
 20
0
 30
0
  3
*PAPER_SPACE
  1
 
  0
ENDBLK
  5
A07
330
A03
100
AcDbEntity
 67
    1
  8
0
100
AcDbBlockEnd
  0
ENDSEC
  0
SECTION
  2
ENTITIES
  0
LINE
  5
A08
330
A02
100
AcDbEntity
  8
V_05_Cradle_Cradle_Hub_0
100
AcDbLine
 10
186.250000000
 20
124.750000000
 30
0.000000000
 11
186.250000000
 21
165.726837970
 31
0.000000000
  0
LINE
  5
A09
330
A02
100
AcDbEntity
  8
V_05_Cradle_Cradle_Hub_0
100
AcDbLine
 10
192.773162030
 20
131.273162030
 30
0.000000000
 11
186.250000000
 21
124.750000000
 31
0.000000000
  0
LINE
  5
A0A
330
A02
100
AcDbEntity
  8
V_05_Cradle_Cradle_Hub_0
100
AcDbLine
 10
192.773162030
 20
165.726837970
 30
0.000000000
 11
192.773162030
 21
131.273162030
 31
0.000000000
  0
LINE
  5
A0B
330
A02
100
AcDbEntity
  8
V_05_Cradle_Cradle_Hub_0
100
AcDbLine
 10
192.773162030
 20
165.726837970
 30
0.000000000
 11
189.511581015
 21
168.988418985
 31
0.000000000
  0
LINE
  5
A0C
330
A02
100
AcDbEntity
  8
V_05_Cradle_Cradle_Hub_0
100
AcDbLine
 10
186.250000000
 20
165.726837970
 30
0.000000000
 11
189.511581015
 21
168.988418985
 31
0.000000000
  0
LINE
  5
A0D
330
A02
100
AcDbEntity
  8
V_05_Cradle_Cradle_Hub_0
100
AcDbLine
 10
227.226837970
 20
124.750000000
 30
0.000000000
 11
186.250000000
 21
124.750000000
 31
0.000000000
  0
LINE
  5
A0E
330
A02
100
AcDbEntity
  8
V_05_Cradle_Cradle_Hub_0
100
AcDbLine
 10
189.606495364
 20
169.083333333
 30
0.000000000
 11
189.511581015
 21
168.988418985
 31
0.000000000
  0
LINE
  5
A0F
330
A02
100
AcDbEntity
  8
V_05_Cradle_Cradle_Hub_0
100
AcDbLine
 10
227.226837970
 20
124.750000000
 30
0.000000000
 11
233.750000000
 21
131.273162030
 31
0.000000000
  0
LINE
  5
A10
330
A02
100
AcDbEntity
  8
V_05_Cradle_Cradle_Hub_0
100
AcDbLine
 10
192.773162030
 20
131.273162030
 30
0.000000000
 11
233.750000000
 21
131.273162030
 31
0.000000000
  0
LINE
  5
A11
330
A02
100
AcDbEntity
  8
V_05_Cradle_Cradle_Hub_0
100
AcDbLine
 10
233.750000000
 20
131.273162030
 30
0.000000000
 11
233.750000000
 21
165.726837970
 31
0.000000000
  0
LINE
  5
A12
330
A02
100
AcDbEntity
  8
V_05_Cradle_Cradle_Hub_0
100
AcDbLine
 10
192.773162030
 20
165.726837970
 30
0.000000000
 11
233.750000000
 21
165.726837970
 31
0.000000000
  0
CIRCLE
  5
A13
330
A02
100
AcDbEntity
  8
V_05_Cradle_Cradle_Hub_0
100
AcDbCircle
 10
195.750000000
 20
134.250000000
 30
0.000000000
 40
1.187500000
  0
CIRCLE
  5
A14
330
A02
100
AcDbEntity
  8
V_05_Cradle_Cradle_Hub_0
100
AcDbCircle
 10
195.750000000
 20
162.750000000
 30
0.000000000
 40
1.187500000
  0
LINE
  5
A15
330
A02
100
AcDbEntity
  8
V_05_Cradle_Cradle_Hub_0
100
AcDbLine
 10
199.338888889
 20
159.161111111
 30
0.000000000
 11
220.661111111
 21
159.161111111
 31
0.000000000
  0
LINE
  5
A16
330
A02
100
AcDbEntity
  8
V_05_Cradle_Cradle_Hub_0
100
AcDbLine
 10
199.338888889
 20
159.161111111
 30
0.000000000
 11
199.338888889
 21
137.838888889
 31
0.000000000
  0
LINE
  5
A17
330
A02
100
AcDbEntity
  8
V_05_Cradle_Cradle_Hub_0
100
AcDbLine
 10
220.661111111
 20
159.161111111
 30
0.000000000
 11
220.661111111
 21
137.838888889
 31
0.000000000
  0
LINE
  5
A18
330
A02
100
AcDbEntity
  8
V_05_Cradle_Cradle_Hub_0
100
AcDbLine
 10
199.338888889
 20
137.838888889
 30
0.000000000
 11
220.661111111
 21
137.838888889
 31
0.000000000
  0
CIRCLE
  5
A19
330
A02
100
AcDbEntity
  8
V_05_Cradle_Cradle_Hub_0
100
AcDbCircle
 10
224.250000000
 20
134.250000000
 30
0.000000000
 40
1.187500000
  0
CIRCLE
  5
A1A
330
A02
100
AcDbEntity
  8
V_05_Cradle_Cradle_Hub_0
100
AcDbCircle
 10
224.250000000
 20
162.750000000
 30
0.000000000
 40
1.187500000
  0
LINE
  5
A1B
330
A02
100
AcDbEntity
  8
V_05_Cradle_Cradle_Hub_0
100
AcDbLine
 10
232.694444444
 20
172.250000000
 30
0.000000000
 11
233.750000000
 21
172.250000000
 31
0.000000000
  0
LINE
  5
A1C
330
A02
100
AcDbEntity
  8
V_05_Cradle_Cradle_Hub_0
100
AcDbLine
 10
233.750000000
 20
172.250000000
 30
0.000000000
 11
233.750000000
 21
165.726837970
 31
0.000000000
  0
LINE
  5
A1D
330
A02
100
AcDbEntity
  8
V_05_Cradle_Cradle_Hub_0
100
AcDbLine
 10
232.694444444
 20
169.083333333
 30
0.000000000
 11
189.606495364
 21
169.083333333
 31
0.000000000
  0
LINE
  5
A1E
330
A02
100
AcDbEntity
  8
V_05_Cradle_Cradle_Hub_0
100
AcDbLine
 10
232.694444444
 20
169.083333333
 30
0.000000000
 11
232.694444444
 21
172.250000000
 31
0.000000000
  0
LINE
  5
A1F
330
A02
100
AcDbEntity
  8
V_05_Cradle_Cradle_Hub_0
100
AcDbLine
 10
199.338888889
 20
159.161111111
 30
0.000000000
 11
220.661111111
 21
159.161111111
 31
0.000000000
  0
LINE
  5
A20
330
A02
100
AcDbEntity
  8
V_05_Cradle_Cradle_Hub_0
100
AcDbLine
 10
199.338888889
 20
159.161111111
 30
0.000000000
 11
199.338888889
 21
137.838888889
 31
0.000000000
  0
LINE
  5
A21
330
A02
100
AcDbEntity
  8
V_05_Cradle_Cradle_Hub_0
100
AcDbLine
 10
220.661111111
 20
159.161111111
 30
0.000000000
 11
220.661111111
 21
137.838888889
 31
0.000000000
  0
LINE
  5
A22
330
A02
100
AcDbEntity
  8
V_05_Cradle_Cradle_Hub_0
100
AcDbLine
 10
199.338888889
 20
137.838888889
 30
0.000000000
 11
220.661111111
 21
137.838888889
 31
0.000000000
  0
LINE
  5
A23
330
A02
100
AcDbEntity
  8
V_05_Cradle_Cradle_Hub_1
100
AcDbLine
 10
186.250000000
 20
131.273162030
 30
0.000000000
 11
186.250000000
 21
172.250000000
 31
0.000000000
  0
LINE
  5
A24
330
A02
100
AcDbEntity
  8
V_05_Cradle_Cradle_Hub_1
100
AcDbLine
 10
192.773162030
 20
124.750000000
 30
0.000000000
 11
189.511581015
 21
128.011581015
 31
0.000000000
  0
LINE
  5
A25
330
A02
100
AcDbEntity
  8
V_05_Cradle_Cradle_Hub_1
100
AcDbLine
 10
186.250000000
 20
131.273162030
 30
0.000000000
 11
189.511581015
 21
128.011581015
 31
0.000000000
  0
LINE
  5
A26
330
A02
100
AcDbEntity
  8
V_05_Cradle_Cradle_Hub_1
100
AcDbLine
 10
186.250000000
 20
172.250000000
 30
0.000000000
 11
189.606495364
 21
168.893504636
 31
0.000000000
  0
LINE
  5
A27
330
A02
100
AcDbEntity
  8
V_05_Cradle_Cradle_Hub_1
100
AcDbLine
 10
189.606495364
 20
128.106495364
 30
0.000000000
 11
189.511581015
 21
128.011581015
 31
0.000000000
  0
LINE
  5
A28
330
A02
100
AcDbEntity
  8
V_05_Cradle_Cradle_Hub_1
100
AcDbLine
 10
189.606495364
 20
168.893504636
 30
0.000000000
 11
189.606495364
 21
128.106495364
 31
0.000000000
  0
LINE
  5
A29
330
A02
100
AcDbEntity
  8
V_05_Cradle_Cradle_Hub_1
100
AcDbLine
 10
186.250000000
 20
172.250000000
 30
0.000000000
 11
227.226837970
 21
172.250000000
 31
0.000000000
  0
LINE
  5
A2A
330
A02
100
AcDbEntity
  8
V_05_Cradle_Cradle_Hub_1
100
AcDbLine
 10
192.773162030
 20
124.750000000
 30
0.000000000
 11
233.750000000
 21
124.750000000
 31
0.000000000
  0
LINE
  5
A2B
330
A02
100
AcDbEntity
  8
V_05_Cradle_Cradle_Hub_1
100
AcDbLine
 10
232.694444444
 20
131.273162030
 30
0.000000000
 11
233.750000000
 21
131.273162030
 31
0.000000000
  0
LINE
  5
A2C
330
A02
100
AcDbEntity
  8
V_05_Cradle_Cradle_Hub_1
100
AcDbLine
 10
233.750000000
 20
131.273162030
 30
0.000000000
 11
233.750000000
 21
124.750000000
 31
0.000000000
  0
LINE
  5
A2D
330
A02
100
AcDbEntity
  8
V_05_Cradle_Cradle_Hub_1
100
AcDbLine
 10
232.694444444
 20
128.106495364
 30
0.000000000
 11
189.606495364
 21
128.106495364
 31
0.000000000
  0
LINE
  5
A2E
330
A02
100
AcDbEntity
  8
V_05_Cradle_Cradle_Hub_1
100
AcDbLine
 10
232.694444444
 20
128.106495364
 30
0.000000000
 11
232.694444444
 21
131.273162030
 31
0.000000000
  0
CIRCLE
  5
A2F
330
A02
100
AcDbEntity
  8
V_05_Cradle_Cradle_Hub_1
100
AcDbCircle
 10
210.000000000
 20
148.500000000
 30
0.000000000
 40
2.638888889
  0
LINE
  5
A30
330
A02
100
AcDbEntity
  8
V_05_Cradle_Cradle_Hub_1
100
AcDbLine
 10
230.583333333
 20
168.893504636
 30
0.000000000
 11
227.226837970
 21
172.250000000
 31
0.000000000
  0
LINE
  5
A31
330
A02
100
AcDbEntity
  8
V_05_Cradle_Cradle_Hub_1
100
AcDbLine
 10
189.606495364
 20
168.893504636
 30
0.000000000
 11
230.583333333
 21
168.893504636
 31
0.000000000
  0
LINE
  5
A32
330
A02
100
AcDbEntity
  8
V_05_Cradle_Cradle_Hub_1
100
AcDbLine
 10
230.583333333
 20
168.893504636
 30
0.000000000
 11
232.694444444
 21
166.782393525
 31
0.000000000
  0
LINE
  5
A33
330
A02
100
AcDbEntity
  8
V_05_Cradle_Cradle_Hub_1
100
AcDbLine
 10
190.472222222
 20
168.027777778
 30
0.000000000
 11
190.472222222
 21
128.972222222
 31
0.000000000
  0
LINE
  5
A34
330
A02
100
AcDbEntity
  8
V_05_Cradle_Cradle_Hub_1
100
AcDbLine
 10
190.472222222
 20
128.972222222
 30
0.000000000
 11
229.527777778
 21
128.972222222
 31
0.000000000
  0
LINE
  5
A35
330
A02
100
AcDbEntity
  8
V_05_Cradle_Cradle_Hub_1
100
AcDbLine
 10
229.527777778
 20
168.027777778
 30
0.000000000
 11
229.527777778
 21
128.972222222
 31
0.000000000
  0
LINE
  5
A36
330
A02
100
AcDbEntity
  8
V_05_Cradle_Cradle_Hub_1
100
AcDbLine
 10
190.472222222
 20
168.027777778
 30
0.000000000
 11
229.527777778
 21
168.027777778
 31
0.000000000
  0
LINE
  5
A37
330
A02
100
AcDbEntity
  8
V_05_Cradle_Cradle_Hub_1
100
AcDbLine
 10
233.750000000
 20
165.726837970
 30
0.000000000
 11
232.694444444
 21
166.782393525
 31
0.000000000
  0
LINE
  5
A38
330
A02
100
AcDbEntity
  8
V_05_Cradle_Cradle_Hub_1
100
AcDbLine
 10
233.750000000
 20
131.273162030
 30
0.000000000
 11
233.750000000
 21
165.726837970
 31
0.000000000
  0
LINE
  5
A39
330
A02
100
AcDbEntity
  8
V_05_Cradle_Cradle_Hub_1
100
AcDbLine
 10
232.694444444
 20
131.273162030
 30
0.000000000
 11
232.694444444
 21
165.726837970
 31
0.000000000
  0
LINE
  5
A3A
330
A02
100
AcDbEntity
  8
V_05_Cradle_Cradle_Hub_1
100
AcDbLine
 10
233.750000000
 20
165.726837970
 30
0.000000000
 11
232.694444444
 21
165.726837970
 31
0.000000000
  0
LINE
  5
A3B
330
A02
100
AcDbEntity
  8
V_05_Cradle_Cradle_Hub_1
100
AcDbLine
 10
232.694444444
 20
165.726837970
 30
0.000000000
 11
232.694444444
 21
166.782393525
 31
0.000000000
  0
LINE
  5
A3C
330
A02
100
AcDbEntity
  8
V_05_Cradle_Cradle_Hub_2
100
AcDbLine
 10
192.773162030
 20
124.750000000
 30
0.000000000
 11
227.226837970
 21
124.750000000
 31
0.000000000
  0
LINE
  5
A3D
330
A02
100
AcDbEntity
  8
V_05_Cradle_Cradle_Hub_2
100
AcDbLine
 10
230.488418985
 20
128.011581015
 30
0.000000000
 11
233.750000000
 21
131.273162030
 31
0.000000000
  0
LINE
  5
A3E
330
A02
100
AcDbEntity
  8
V_05_Cradle_Cradle_Hub_2
100
AcDbLine
 10
230.488418985
 20
128.011581015
 30
0.000000000
 11
227.226837970
 21
124.750000000
 31
0.000000000
  0
LINE
  5
A3F
330
A02
100
AcDbEntity
  8
V_05_Cradle_Cradle_Hub_2
100
AcDbLine
 10
233.750000000
 20
165.726837970
 30
0.000000000
 11
233.750000000
 21
131.273162030
 31
0.000000000
  0
LINE
  5
A40
330
A02
100
AcDbEntity
  8
V_05_Cradle_Cradle_Hub_2
100
AcDbLine
 10
192.773162030
 20
124.750000000
 30
0.000000000
 11
186.250000000
 21
131.273162030
 31
0.000000000
  0
LINE
  5
A41
330
A02
100
AcDbEntity
  8
V_05_Cradle_Cradle_Hub_2
100
AcDbLine
 10
186.250000000
 20
131.273162030
 30
0.000000000
 11
186.250000000
 21
165.726837970
 31
0.000000000
  0
LINE
  5
A42
330
A02
100
AcDbEntity
  8
V_05_Cradle_Cradle_Hub_2
100
AcDbLine
 10
192.773162030
 20
172.250000000
 30
0.000000000
 11
186.250000000
 21
165.726837970
 31
0.000000000
  0
LINE
  5
A43
330
A02
100
AcDbEntity
  8
V_05_Cradle_Cradle_Hub_2
100
AcDbLine
 10
186.250000000
 20
131.273162030
 30
0.000000000
 11
227.226837970
 21
131.273162030
 31
0.000000000
  0
LINE
  5
A44
330
A02
100
AcDbEntity
  8
V_05_Cradle_Cradle_Hub_2
100
AcDbLine
 10
230.488418985
 20
128.011581015
 30
0.000000000
 11
227.226837970
 21
131.273162030
 31
0.000000000
  0
LINE
  5
A45
330
A02
100
AcDbEntity
  8
V_05_Cradle_Cradle_Hub_2
100
AcDbLine
 10
230.393504636
 20
169.083333333
 30
0.000000000
 11
233.750000000
 21
165.726837970
 31
0.000000000
  0
LINE
  5
A46
330
A02
100
AcDbEntity
  8
V_05_Cradle_Cradle_Hub_2
100
AcDbLine
 10
230.393504636
 20
169.083333333
 30
0.000000000
 11
228.282393525
 21
169.083333333
 31
0.000000000
  0
LINE
  5
A47
330
A02
100
AcDbEntity
  8
V_05_Cradle_Cradle_Hub_2
100
AcDbLine
 10
229.527777778
 20
169.083333333
 30
0.000000000
 11
228.282393525
 21
169.083333333
 31
0.000000000
  0
LINE
  5
A48
330
A02
100
AcDbEntity
  8
V_05_Cradle_Cradle_Hub_2
100
AcDbLine
 10
227.226837970
 20
131.273162030
 30
0.000000000
 11
227.226837970
 21
172.250000000
 31
0.000000000
  0
LINE
  5
A49
330
A02
100
AcDbEntity
  8
V_05_Cradle_Cradle_Hub_2
100
AcDbLine
 10
227.226837970
 20
172.250000000
 30
0.000000000
 11
228.282393525
 21
171.194444444
 31
0.000000000
  0
LINE
  5
A4A
330
A02
100
AcDbEntity
  8
V_05_Cradle_Cradle_Hub_2
100
AcDbLine
 10
228.282393525
 20
171.194444444
 30
0.000000000
 11
228.282393525
 21
169.083333333
 31
0.000000000
  0
LINE
  5
A4B
330
A02
100
AcDbEntity
  8
V_05_Cradle_Cradle_Hub_2
100
AcDbLine
 10
192.773162030
 20
172.250000000
 30
0.000000000
 11
227.226837970
 21
172.250000000
 31
0.000000000
  0
CIRCLE
  5
A4C
330
A02
100
AcDbEntity
  8
V_05_Cradle_Cradle_Hub_2
100
AcDbCircle
 10
224.927809825
 20
133.572190175
 30
0.000000000
 40
1.187500000
  0
CIRCLE
  5
A4D
330
A02
100
AcDbEntity
  8
V_05_Cradle_Cradle_Hub_2
100
AcDbCircle
 10
217.463904913
 20
141.036095087
 30
0.000000000
 40
1.187500000
  0
CIRCLE
  5
A4E
330
A02
100
AcDbEntity
  8
V_05_Cradle_Cradle_Hub_2
100
AcDbCircle
 10
224.927809825
 20
163.427809825
 30
0.000000000
 40
1.187500000
  0
CIRCLE
  5
A4F
330
A02
100
AcDbEntity
  8
V_05_Cradle_Cradle_Hub_2
100
AcDbCircle
 10
217.463904913
 20
155.963904913
 30
0.000000000
 40
1.187500000
  0
CIRCLE
  5
A50
330
A02
100
AcDbEntity
  8
V_05_Cradle_Cradle_Hub_2
100
AcDbCircle
 10
210.000000000
 20
148.500000000
 30
0.000000000
 40
8.075000000
  0
CIRCLE
  5
A51
330
A02
100
AcDbEntity
  8
V_05_Cradle_Cradle_Hub_2
100
AcDbCircle
 10
202.536095087
 20
141.036095087
 30
0.000000000
 40
1.187500000
  0
CIRCLE
  5
A52
330
A02
100
AcDbEntity
  8
V_05_Cradle_Cradle_Hub_2
100
AcDbCircle
 10
195.072190175
 20
133.572190175
 30
0.000000000
 40
1.187500000
  0
CIRCLE
  5
A53
330
A02
100
AcDbEntity
  8
V_05_Cradle_Cradle_Hub_2
100
AcDbCircle
 10
202.536095087
 20
155.963904913
 30
0.000000000
 40
1.187500000
  0
CIRCLE
  5
A54
330
A02
100
AcDbEntity
  8
V_05_Cradle_Cradle_Hub_2
100
AcDbCircle
 10
195.072190175
 20
163.427809825
 30
0.000000000
 40
1.187500000
  0
LINE
  5
A55
330
A02
100
AcDbEntity
  8
V_05_Cradle_Cradle_Hub_3
100
AcDbLine
 10
181.025000000
 20
159.902584555
 30
0.000000000
 11
181.025000000
 21
131.771275950
 31
0.000000000
  0
LINE
  5
A56
330
A02
100
AcDbEntity
  8
V_05_Cradle_Cradle_Hub_3
100
AcDbLine
 10
181.025000000
 20
159.902584555
 30
0.000000000
 11
181.025000000
 21
165.228724050
 31
0.000000000
  0
LINE
  5
A57
330
A02
100
AcDbEntity
  8
V_05_Cradle_Cradle_Hub_3
100
AcDbLine
 10
181.159229159
 20
165.306221291
 30
0.000000000
 11
181.025000000
 21
165.228724050
 31
0.000000000
  0
LINE
  5
A58
330
A02
100
AcDbEntity
  8
V_05_Cradle_Cradle_Hub_3
100
AcDbLine
 10
210.000000000
 20
181.957448100
 30
0.000000000
 11
181.159229159
 21
165.306221291
 31
0.000000000
  0
LINE
  5
A59
330
A02
100
AcDbEntity
  8
V_05_Cradle_Cradle_Hub_3
100
AcDbLine
 10
219.255242092
 20
167.805608047
 30
0.000000000
 11
219.255242092
 21
154.705374015
 31
0.000000000
  0
ELLIPSE
  5
A5A
330
A02
100
AcDbEntity
  8
V_05_Cradle_Cradle_Hub_3
100
AcDbEllipse
 10
201.469553690
 20
153.425055474
 30
0.000000000
 11
-0.593750000
 21
-1.028405167
 31
0.000000000
 40
0.577350269
 41
3.926990817
 42
4.032715161
  0
ELLIPSE
  5
A5B
330
A02
100
AcDbEntity
  8
V_05_Cradle_Cradle_Hub_3
100
AcDbEllipse
 10
201.469553690
 20
153.425055474
 30
0.000000000
 11
-0.593750000
 21
-1.028405167
 31
0.000000000
 40
0.577350269
 41
2.250470146
 42
3.141592654
  0
ELLIPSE
  5
A5C
330
A02
100
AcDbEntity
  8
V_05_Cradle_Cradle_Hub_3
100
AcDbEllipse
 10
201.469553690
 20
153.425055474
 30
0.000000000
 11
-0.593750000
 21
-1.028405167
 31
0.000000000
 40
0.577350269
 41
3.141592654
 42
3.926990817
  0
ELLIPSE
  5
A5D
330
A02
100
AcDbEntity
  8
V_05_Cradle_Cradle_Hub_3
100
AcDbEllipse
 10
201.469553690
 20
165.613561157
 30
0.000000000
 11
-0.593750000
 21
-1.028405167
 31
0.000000000
 40
0.577350269
 41
3.926990817
 42
0.000000000
  0
ELLIPSE
  5
A5E
330
A02
100
AcDbEntity
  8
V_05_Cradle_Cradle_Hub_3
100
AcDbEllipse
 10
201.469553690
 20
165.613561157
 30
0.000000000
 11
-0.593750000
 21
-1.028405167
 31
0.000000000
 40
0.577350269
 41
0.000000000
 42
3.141592654
  0
ELLIPSE
  5
A5F
330
A02
100
AcDbEntity
  8
V_05_Cradle_Cradle_Hub_3
100
AcDbEllipse
 10
201.469553690
 20
165.613561157
 30
0.000000000
 11
-0.593750000
 21
-1.028405167
 31
0.000000000
 40
0.577350269
 41
3.141592654
 42
3.926990817
  0
ELLIPSE
  5
A60
330
A02
100
AcDbEntity
  8
V_05_Cradle_Cradle_Hub_3
100
AcDbEllipse
 10
190.913998134
 20
147.330802632
 30
0.000000000
 11
-0.593750000
 21
-1.028405167
 31
0.000000000
 40
0.577350269
 41
3.926990817
 42
0.000000000
  0
ELLIPSE
  5
A61
330
A02
100
AcDbEntity
  8
V_05_Cradle_Cradle_Hub_3
100
AcDbEllipse
 10
190.913998134
 20
147.330802632
 30
0.000000000
 11
-0.593750000
 21
-1.028405167
 31
0.000000000
 40
0.577350269
 41
0.000000000
 42
3.141592654
  0
ELLIPSE
  5
A62
330
A02
100
AcDbEntity
  8
V_05_Cradle_Cradle_Hub_3
100
AcDbEllipse
 10
190.913998134
 20
147.330802632
 30
0.000000000
 11
-0.593750000
 21
-1.028405167
 31
0.000000000
 40
0.577350269
 41
3.141592654
 42
3.926990817
  0
ELLIPSE
  5
A63
330
A02
100
AcDbEntity
  8
V_05_Cradle_Cradle_Hub_3
100
AcDbEllipse
 10
190.913998134
 20
159.519308315
 30
0.000000000
 11
-0.593750000
 21
-1.028405167
 31
0.000000000
 40
0.577350269
 41
3.926990817
 42
4.032715161
  0
ELLIPSE
  5
A64
330
A02
100
AcDbEntity
  8
V_05_Cradle_Cradle_Hub_3
100
AcDbEllipse
 10
190.913998134
 20
159.519308315
 30
0.000000000
 11
-0.593750000
 21
-1.028405167
 31
0.000000000
 40
0.577350269
 41
2.250470146
 42
3.141592654
  0
ELLIPSE
  5
A65
330
A02
100
AcDbEntity
  8
V_05_Cradle_Cradle_Hub_3
100
AcDbEllipse
 10
190.913998134
 20
159.519308315
 30
0.000000000
 11
-0.593750000
 21
-1.028405167
 31
0.000000000
 40
0.577350269
 41
3.141592654
 42
3.926990817
  0
LINE
  5
A66
330
A02
100
AcDbEntity
  8
V_05_Cradle_Cradle_Hub_3
100
AcDbLine
 10
181.025000000
 20
131.771275950
 30
0.000000000
 11
210.000000000
 21
115.042551900
 31
0.000000000
  0
LINE
  5
A67
330
A02
100
AcDbEntity
  8
V_05_Cradle_Cradle_Hub_3
100
AcDbLine
 10
210.000000000
 20
115.042551900
 30
0.000000000
 11
210.000000000
 21
143.173860505
 31
0.000000000
  0
LINE
  5
A68
330
A02
100
AcDbEntity
  8
V_05_Cradle_Cradle_Hub_3
100
AcDbLine
 10
181.025000000
 20
159.902584555
 30
0.000000000
 11
210.000000000
 21
143.173860505
 31
0.000000000
  0
ELLIPSE
  5
A69
330
A02
100
AcDbEntity
  8
V_05_Cradle_Cradle_Hub_3
100
AcDbEllipse
 10
183.129942315
 20
132.986564962
 30
0.000000000
 11
0.593750000
 21
-1.028405167
 31
0.000000000
 40
0.577350269
 41
-0.000000000
 42
-3.926990817
  0
ELLIPSE
  5
A6A
330
A02
100
AcDbEntity
  8
V_05_Cradle_Cradle_Hub_3
100
AcDbEllipse
 10
183.129942315
 20
132.986564962
 30
0.000000000
 11
0.593750000
 21
-1.028405167
 31
0.000000000
 40
0.577350269
 41
-3.141592654
 42
-0.000000000
  0
ELLIPSE
  5
A6B
330
A02
100
AcDbEntity
  8
V_05_Cradle_Cradle_Hub_3
100
AcDbEllipse
 10
183.129942315
 20
132.986564962
 30
0.000000000
 11
0.593750000
 21
-1.028405167
 31
0.000000000
 40
0.577350269
 41
-3.926990817
 42
-3.141592654
  0
ELLIPSE
  5
A6C
330
A02
100
AcDbEntity
  8
V_05_Cradle_Cradle_Hub_3
100
AcDbEllipse
 10
183.129942315
 20
156.256717519
 30
0.000000000
 11
0.593750000
 21
-1.028405167
 31
0.000000000
 40
0.577350269
 41
-0.000000000
 42
-3.926990817
  0
ELLIPSE
  5
A6D
330
A02
100
AcDbEntity
  8
V_05_Cradle_Cradle_Hub_3
100
AcDbEllipse
 10
183.129942315
 20
156.256717519
 30
0.000000000
 11
0.593750000
 21
-1.028405167
 31
0.000000000
 40
0.577350269
 41
-3.141592654
 42
-0.000000000
  0
ELLIPSE
  5
A6E
330
A02
100
AcDbEntity
  8
V_05_Cradle_Cradle_Hub_3
100
AcDbEllipse
 10
183.129942315
 20
156.256717519
 30
0.000000000
 11
0.593750000
 21
-1.028405167
 31
0.000000000
 40
0.577350269
 41
-3.926990817
 42
-3.141592654
  0
LINE
  5
A6F
330
A02
100
AcDbEntity
  8
V_05_Cradle_Cradle_Hub_3
100
AcDbLine
 10
185.667669985
 20
151.861244258
 30
0.000000000
 11
200.744757908
 21
143.156483487
 31
0.000000000
  0
LINE
  5
A70
330
A02
100
AcDbEntity
  8
V_05_Cradle_Cradle_Hub_3
100
AcDbLine
 10
185.667669985
 20
151.861244258
 30
0.000000000
 11
185.667669985
 21
134.451722716
 31
0.000000000
  0
LINE
  5
A71
330
A02
100
AcDbEntity
  8
V_05_Cradle_Cradle_Hub_3
100
AcDbLine
 10
200.744757908
 20
143.156483487
 30
0.000000000
 11
200.744757908
 21
125.746961945
 31
0.000000000
  0
LINE
  5
A72
330
A02
100
AcDbEntity
  8
V_05_Cradle_Cradle_Hub_3
100
AcDbLine
 10
185.667669985
 20
134.451722716
 30
0.000000000
 11
200.744757908
 21
125.746961945
 31
0.000000000
  0
ELLIPSE
  5
A73
330
A02
100
AcDbEntity
  8
V_05_Cradle_Cradle_Hub_3
100
AcDbEllipse
 10
203.282485579
 20
121.351488684
 30
0.000000000
 11
0.593750000
 21
-1.028405167
 31
0.000000000
 40
0.577350269
 41
-0.000000000
 42
-3.926990817
  0
ELLIPSE
  5
A74
330
A02
100
AcDbEntity
  8
V_05_Cradle_Cradle_Hub_3
100
AcDbEllipse
 10
203.282485579
 20
121.351488684
 30
0.000000000
 11
0.593750000
 21
-1.028405167
 31
0.000000000
 40
0.577350269
 41
-3.141592654
 42
-0.000000000
  0
ELLIPSE
  5
A75
330
A02
100
AcDbEntity
  8
V_05_Cradle_Cradle_Hub_3
100
AcDbEllipse
 10
203.282485579
 20
121.351488684
 30
0.000000000
 11
0.593750000
 21
-1.028405167
 31
0.000000000
 40
0.577350269
 41
-3.926990817
 42
-3.141592654
  0
ELLIPSE
  5
A76
330
A02
100
AcDbEntity
  8
V_05_Cradle_Cradle_Hub_3
100
AcDbEllipse
 10
203.282485579
 20
144.621641241
 30
0.000000000
 11
0.593750000
 21
-1.028405167
 31
0.000000000
 40
0.577350269
 41
-0.000000000
 42
-3.926990817
  0
ELLIPSE
  5
A77
330
A02
100
AcDbEntity
  8
V_05_Cradle_Cradle_Hub_3
100
AcDbEllipse
 10
203.282485579
 20
144.621641241
 30
0.000000000
 11
0.593750000
 21
-1.028405167
 31
0.000000000
 40
0.577350269
 41
-3.141592654
 42
-0.000000000
  0
ELLIPSE
  5
A78
330
A02
100
AcDbEntity
  8
V_05_Cradle_Cradle_Hub_3
100
AcDbEllipse
 10
203.282485579
 20
144.621641241
 30
0.000000000
 11
0.593750000
 21
-1.028405167
 31
0.000000000
 40
0.577350269
 41
-3.926990817
 42
-3.141592654
  0
LINE
  5
A79
330
A02
100
AcDbEntity
  8
V_05_Cradle_Cradle_Hub_3
100
AcDbLine
 10
213.866181615
 20
151.593998498
 30
0.000000000
 11
214.612572106
 21
151.163069747
 31
0.000000000
  0
LINE
  5
A7A
330
A02
100
AcDbEntity
  8
V_05_Cradle_Cradle_Hub_3
100
AcDbLine
 10
214.612572106
 20
151.163069747
 30
0.000000000
 11
210.000000000
 21
143.173860505
 31
0.000000000
  0
LINE
  5
A7B
330
A02
100
AcDbEntity
  8
V_05_Cradle_Cradle_Hub_3
100
AcDbLine
 10
211.627010141
 20
147.715639739
 30
0.000000000
 11
181.159229159
 21
165.306221291
 31
0.000000000
  0
LINE
  5
A7C
330
A02
100
AcDbEntity
  8
V_05_Cradle_Cradle_Hub_3
100
AcDbLine
 10
211.627010141
 20
147.715639739
 30
0.000000000
 11
213.866181615
 21
151.593998498
 31
0.000000000
  0
LINE
  5
A7D
330
A02
100
AcDbEntity
  8
V_05_Cradle_Cradle_Hub_3
100
AcDbLine
 10
210.000000000
 20
115.042551900
 30
0.000000000
 11
238.975000000
 21
131.771275950
 31
0.000000000
  0
LINE
  5
A7E
330
A02
100
AcDbEntity
  8
V_05_Cradle_Cradle_Hub_3
100
AcDbLine
 10
210.000000000
 20
181.957448100
 30
0.000000000
 11
238.228609509
 21
165.659652801
 31
0.000000000
  0
LINE
  5
A7F
330
A02
100
AcDbEntity
  8
V_05_Cradle_Cradle_Hub_3
100
AcDbLine
 10
210.000000000
 20
181.250585079
 30
0.000000000
 11
182.383551824
 21
165.306221291
 31
0.000000000
  0
LINE
  5
A80
330
A02
100
AcDbEntity
  8
V_05_Cradle_Cradle_Hub_3
100
AcDbLine
 10
182.383551824
 20
165.306221291
 30
0.000000000
 11
210.000000000
 21
149.361857502
 31
0.000000000
  0
LINE
  5
A81
330
A02
100
AcDbEntity
  8
V_05_Cradle_Cradle_Hub_3
100
AcDbLine
 10
213.866181615
 20
151.593998498
 30
0.000000000
 11
210.000000000
 21
149.361857502
 31
0.000000000
  0
LINE
  5
A82
330
A02
100
AcDbEntity
  8
V_05_Cradle_Cradle_Hub_3
100
AcDbLine
 10
210.000000000
 20
181.250585079
 30
0.000000000
 11
237.616448176
 21
165.306221291
 31
0.000000000
  0
LINE
  5
A83
330
A02
100
AcDbEntity
  8
V_05_Cradle_Cradle_Hub_3
100
AcDbLine
 10
238.975000000
 20
131.771275950
 30
0.000000000
 11
238.975000000
 21
165.228724050
 31
0.000000000
  0
ELLIPSE
  5
A84
330
A02
100
AcDbEntity
  8
V_05_Cradle_Cradle_Hub_3
100
AcDbEllipse
 10
213.731952456
 20
150.654643755
 30
0.000000000
 11
-0.593750000
 21
1.028405167
 31
0.000000000
 40
0.577350269
 41
5.392062799
 42
0.000000000
  0
ELLIPSE
  5
A85
330
A02
100
AcDbEntity
  8
V_05_Cradle_Cradle_Hub_3
100
AcDbEllipse
 10
213.731952456
 20
150.654643755
 30
0.000000000
 11
-0.593750000
 21
1.028405167
 31
0.000000000
 40
0.577350269
 41
0.000000000
 42
0.891122508
  0
ELLIPSE
  5
A86
330
A02
100
AcDbEntity
  8
V_05_Cradle_Cradle_Hub_3
100
AcDbEllipse
 10
213.731952456
 20
173.924796312
 30
0.000000000
 11
-0.593750000
 21
1.028405167
 31
0.000000000
 40
0.577350269
 41
2.356194490
 42
3.141592654
  0
ELLIPSE
  5
A87
330
A02
100
AcDbEntity
  8
V_05_Cradle_Cradle_Hub_3
100
AcDbEllipse
 10
213.731952456
 20
173.924796312
 30
0.000000000
 11
-0.593750000
 21
1.028405167
 31
0.000000000
 40
0.577350269
 41
3.141592654
 42
0.000000000
  0
ELLIPSE
  5
A88
330
A02
100
AcDbEntity
  8
V_05_Cradle_Cradle_Hub_3
100
AcDbEllipse
 10
213.731952456
 20
173.924796312
 30
0.000000000
 11
-0.593750000
 21
1.028405167
 31
0.000000000
 40
0.577350269
 41
0.000000000
 42
2.356194490
  0
LINE
  5
A89
330
A02
100
AcDbEntity
  8
V_05_Cradle_Cradle_Hub_3
100
AcDbLine
 10
216.269680127
 20
169.529323051
 30
0.000000000
 11
230.600377559
 21
161.255491031
 31
0.000000000
  0
LINE
  5
A8A
330
A02
100
AcDbEntity
  8
V_05_Cradle_Cradle_Hub_3
100
AcDbLine
 10
216.269680127
 20
169.529323051
 30
0.000000000
 11
216.269680127
 21
152.981659011
 31
0.000000000
  0
ELLIPSE
  5
A8B
330
A02
100
AcDbEntity
  8
V_05_Cradle_Cradle_Hub_3
100
AcDbEllipse
 10
233.884495720
 20
162.289720033
 30
0.000000000
 11
-0.593750000
 21
1.028405167
 31
0.000000000
 40
0.577350269
 41
5.392062799
 42
0.000000000
  0
ELLIPSE
  5
A8C
330
A02
100
AcDbEntity
  8
V_05_Cradle_Cradle_Hub_3
100
AcDbEllipse
 10
233.884495720
 20
162.289720033
 30
0.000000000
 11
-0.593750000
 21
1.028405167
 31
0.000000000
 40
0.577350269
 41
0.000000000
 42
0.891122508
  0
LINE
  5
A8D
330
A02
100
AcDbEntity
  8
V_05_Cradle_Cradle_Hub_3
100
AcDbLine
 10
188.653231950
 20
136.175437720
 30
0.000000000
 11
200.744757908
 21
143.156483487
 31
0.000000000
  0
LINE
  5
A8E
330
A02
100
AcDbEntity
  8
V_05_Cradle_Cradle_Hub_3
100
AcDbLine
 10
210.000000000
 20
149.361857502
 30
0.000000000
 11
210.000000000
 21
181.250585079
 31
0.000000000
  0
LINE
  5
A8F
330
A02
100
AcDbEntity
  8
V_05_Cradle_Cradle_Hub_3
100
AcDbLine
 10
214.612572106
 20
151.163069747
 30
0.000000000
 11
238.975000000
 21
165.228724050
 31
0.000000000
  0
ELLIPSE
  5
A90
330
A02
100
AcDbEntity
  8
V_05_Cradle_Cradle_Hub_3
100
AcDbEllipse
 10
237.349341609
 20
132.709850260
 30
0.000000000
 11
0.593750000
 21
1.028405167
 31
0.000000000
 40
0.577350269
 41
-3.141592654
 42
-2.356194490
  0
ELLIPSE
  5
A91
330
A02
100
AcDbEntity
  8
V_05_Cradle_Cradle_Hub_3
100
AcDbEllipse
 10
237.349341609
 20
132.709850260
 30
0.000000000
 11
0.593750000
 21
1.028405167
 31
0.000000000
 40
0.577350269
 41
-0.000000000
 42
-3.141592654
  0
ELLIPSE
  5
A92
330
A02
100
AcDbEntity
  8
V_05_Cradle_Cradle_Hub_3
100
AcDbEllipse
 10
237.349341609
 20
132.709850260
 30
0.000000000
 11
0.593750000
 21
1.028405167
 31
0.000000000
 40
0.577350269
 41
-2.356194490
 42
-0.000000000
  0
ELLIPSE
  5
A93
330
A02
100
AcDbEntity
  8
V_05_Cradle_Cradle_Hub_3
100
AcDbEllipse
 10
232.071563831
 20
135.756976681
 30
0.000000000
 11
0.593750000
 21
1.028405167
 31
0.000000000
 40
0.577350269
 41
-3.141592654
 42
-2.356194490
  0
ELLIPSE
  5
A94
330
A02
100
AcDbEntity
  8
V_05_Cradle_Cradle_Hub_3
100
AcDbEllipse
 10
232.071563831
 20
135.756976681
 30
0.000000000
 11
0.593750000
 21
1.028405167
 31
0.000000000
 40
0.577350269
 41
-0.000000000
 42
-3.141592654
  0
ELLIPSE
  5
A95
330
A02
100
AcDbEntity
  8
V_05_Cradle_Cradle_Hub_3
100
AcDbEllipse
 10
232.071563831
 20
135.756976681
 30
0.000000000
 11
0.593750000
 21
1.028405167
 31
0.000000000
 40
0.577350269
 41
-2.356194490
 42
-0.000000000
  0
ELLIPSE
  5
A96
330
A02
100
AcDbEntity
  8
V_05_Cradle_Cradle_Hub_3
100
AcDbEllipse
 10
237.349341609
 20
157.086861626
 30
0.000000000
 11
0.593750000
 21
1.028405167
 31
0.000000000
 40
0.577350269
 41
-3.141592654
 42
-2.356194490
  0
ELLIPSE
  5
A97
330
A02
100
AcDbEntity
  8
V_05_Cradle_Cradle_Hub_3
100
AcDbEllipse
 10
237.349341609
 20
157.086861626
 30
0.000000000
 11
0.593750000
 21
1.028405167
 31
0.000000000
 40
0.577350269
 41
-0.000000000
 42
-3.141592654
  0
ELLIPSE
  5
A98
330
A02
100
AcDbEntity
  8
V_05_Cradle_Cradle_Hub_3
100
AcDbEllipse
 10
237.349341609
 20
157.086861626
 30
0.000000000
 11
0.593750000
 21
1.028405167
 31
0.000000000
 40
0.577350269
 41
-2.356194490
 42
-0.000000000
  0
ELLIPSE
  5
A99
330
A02
100
AcDbEntity
  8
V_05_Cradle_Cradle_Hub_3
100
AcDbEllipse
 10
232.071563831
 20
147.945482364
 30
0.000000000
 11
0.593750000
 21
1.028405167
 31
0.000000000
 40
0.577350269
 41
-3.141592654
 42
-2.356194490
  0
ELLIPSE
  5
A9A
330
A02
100
AcDbEntity
  8
V_05_Cradle_Cradle_Hub_3
100
AcDbEllipse
 10
232.071563831
 20
147.945482364
 30
0.000000000
 11
0.593750000
 21
1.028405167
 31
0.000000000
 40
0.577350269
 41
-0.000000000
 42
-3.141592654
  0
ELLIPSE
  5
A9B
330
A02
100
AcDbEntity
  8
V_05_Cradle_Cradle_Hub_3
100
AcDbEllipse
 10
232.071563831
 20
147.945482364
 30
0.000000000
 11
0.593750000
 21
1.028405167
 31
0.000000000
 40
0.577350269
 41
-2.356194490
 42
-0.000000000
  0
ELLIPSE
  5
A9C
330
A02
100
AcDbEntity
  8
V_05_Cradle_Cradle_Hub_3
100
AcDbEllipse
 10
226.793786053
 20
138.804103101
 30
0.000000000
 11
4.037500000
 21
6.993155136
 31
0.000000000
 40
0.577350269
 41
-3.141592654
 42
-2.356194490
  0
ELLIPSE
  5
A9D
330
A02
100
AcDbEntity
  8
V_05_Cradle_Cradle_Hub_3
100
AcDbEllipse
 10
226.793786053
 20
138.804103101
 30
0.000000000
 11
4.037500000
 21
6.993155136
 31
0.000000000
 40
0.577350269
 41
-0.000000000
 42
-3.141592654
  0
ELLIPSE
  5
A9E
330
A02
100
AcDbEntity
  8
V_05_Cradle_Cradle_Hub_3
100
AcDbEllipse
 10
226.793786053
 20
138.804103101
 30
0.000000000
 11
4.037500000
 21
6.993155136
 31
0.000000000
 40
0.577350269
 41
-2.356194490
 42
-0.000000000
  0
ELLIPSE
  5
A9F
330
A02
100
AcDbEntity
  8
V_05_Cradle_Cradle_Hub_3
100
AcDbEllipse
 10
221.516008275
 20
129.662723839
 30
0.000000000
 11
0.593750000
 21
1.028405167
 31
0.000000000
 40
0.577350269
 41
-3.141592654
 42
-2.356194490
  0
ELLIPSE
  5
AA0
330
A02
100
AcDbEntity
  8
V_05_Cradle_Cradle_Hub_3
100
AcDbEllipse
 10
221.516008275
 20
129.662723839
 30
0.000000000
 11
0.593750000
 21
1.028405167
 31
0.000000000
 40
0.577350269
 41
-0.000000000
 42
-3.141592654
  0
ELLIPSE
  5
AA1
330
A02
100
AcDbEntity
  8
V_05_Cradle_Cradle_Hub_3
100
AcDbEllipse
 10
221.516008275
 20
129.662723839
 30
0.000000000
 11
0.593750000
 21
1.028405167
 31
0.000000000
 40
0.577350269
 41
-2.356194490
 42
-0.000000000
  0
ELLIPSE
  5
AA2
330
A02
100
AcDbEntity
  8
V_05_Cradle_Cradle_Hub_3
100
AcDbEllipse
 10
216.238230498
 20
120.521344577
 30
0.000000000
 11
0.593750000
 21
1.028405167
 31
0.000000000
 40
0.577350269
 41
-3.141592654
 42
-2.356194490
  0
ELLIPSE
  5
AA3
330
A02
100
AcDbEntity
  8
V_05_Cradle_Cradle_Hub_3
100
AcDbEllipse
 10
216.238230498
 20
120.521344577
 30
0.000000000
 11
0.593750000
 21
1.028405167
 31
0.000000000
 40
0.577350269
 41
-0.000000000
 42
-3.141592654
  0
ELLIPSE
  5
AA4
330
A02
100
AcDbEntity
  8
V_05_Cradle_Cradle_Hub_3
100
AcDbEllipse
 10
216.238230498
 20
120.521344577
 30
0.000000000
 11
0.593750000
 21
1.028405167
 31
0.000000000
 40
0.577350269
 41
-2.356194490
 42
-0.000000000
  0
ELLIPSE
  5
AA5
330
A02
100
AcDbEntity
  8
V_05_Cradle_Cradle_Hub_3
100
AcDbEllipse
 10
221.516008275
 20
141.851229522
 30
0.000000000
 11
0.593750000
 21
1.028405167
 31
0.000000000
 40
0.577350269
 41
-3.141592654
 42
-2.356194490
  0
ELLIPSE
  5
AA6
330
A02
100
AcDbEntity
  8
V_05_Cradle_Cradle_Hub_3
100
AcDbEllipse
 10
221.516008275
 20
141.851229522
 30
0.000000000
 11
0.593750000
 21
1.028405167
 31
0.000000000
 40
0.577350269
 41
-0.000000000
 42
-3.141592654
  0
ELLIPSE
  5
AA7
330
A02
100
AcDbEntity
  8
V_05_Cradle_Cradle_Hub_3
100
AcDbEllipse
 10
221.516008275
 20
141.851229522
 30
0.000000000
 11
0.593750000
 21
1.028405167
 31
0.000000000
 40
0.577350269
 41
-2.356194490
 42
-0.000000000
  0
ELLIPSE
  5
AA8
330
A02
100
AcDbEntity
  8
V_05_Cradle_Cradle_Hub_3
100
AcDbEllipse
 10
216.238230498
 20
144.898355943
 30
0.000000000
 11
0.593750000
 21
1.028405167
 31
0.000000000
 40
0.577350269
 41
-3.141592654
 42
-2.356194490
  0
ELLIPSE
  5
AA9
330
A02
100
AcDbEntity
  8
V_05_Cradle_Cradle_Hub_3
100
AcDbEllipse
 10
216.238230498
 20
144.898355943
 30
0.000000000
 11
0.593750000
 21
1.028405167
 31
0.000000000
 40
0.577350269
 41
-0.000000000
 42
-3.141592654
  0
ELLIPSE
  5
AAA
330
A02
100
AcDbEntity
  8
V_05_Cradle_Cradle_Hub_3
100
AcDbEllipse
 10
216.238230498
 20
144.898355943
 30
0.000000000
 11
0.593750000
 21
1.028405167
 31
0.000000000
 40
0.577350269
 41
-2.356194490
 42
-0.000000000
  0
LINE
  5
AAB
330
A02
100
AcDbEntity
  8
V_05_Cradle_Cradle_Hub_3
100
AcDbLine
 10
188.653231950
 20
150.137529254
 30
0.000000000
 11
188.653231950
 21
136.175437720
 31
0.000000000
  0
LINE
  5
AAC
330
A02
100
AcDbEntity
  8
V_05_Cradle_Cradle_Hub_3
100
AcDbLine
 10
185.667669985
 20
134.451722716
 30
0.000000000
 11
188.653231950
 21
136.175437720
 31
0.000000000
  0
LINE
  5
AAD
330
A02
100
AcDbEntity
  8
V_05_Cradle_Cradle_Hub_3
100
AcDbLine
 10
188.653231950
 20
136.175437720
 30
0.000000000
 11
200.744757908
 21
129.194391953
 31
0.000000000
  0
LINE
  5
AAE
330
A02
100
AcDbEntity
  8
V_05_Cradle_Cradle_Hub_3
100
AcDbLine
 10
213.866181615
 20
151.593998498
 30
0.000000000
 11
238.228609509
 21
165.659652801
 31
0.000000000
  0
LINE
  5
AAF
330
A02
100
AcDbEntity
  8
V_05_Cradle_Cradle_Hub_3
100
AcDbLine
 10
238.975000000
 20
165.228724050
 30
0.000000000
 11
238.228609509
 21
165.659652801
 31
0.000000000
  0
ELLIPSE
  5
AB0
330
A02
100
AcDbEntity
  8
V_05_Cradle_Cradle_Hub_3
100
AcDbEllipse
 10
224.446387958
 20
140.159374024
 30
0.000000000
 11
4.037500000
 21
6.993155136
 31
0.000000000
 40
0.577350269
 41
-2.846634873
 42
-2.356194490
  0
ELLIPSE
  5
AB1
330
A02
100
AcDbEntity
  8
V_05_Cradle_Cradle_Hub_3
100
AcDbEllipse
 10
224.446387958
 20
140.159374024
 30
0.000000000
 11
4.037500000
 21
6.993155136
 31
0.000000000
 40
0.577350269
 41
-2.356194490
 42
-0.294957781
  0
TEXT
  5
AB2
330
A02
100
AcDbEntity
  8
A_05_Cradle_Cradle_Hub
100
AcDbText
 10
210.000000000
 20
148.500000000
 30
0.000000000
 40
3.500000000
  1
Cradle_Hub  (black)
  7
STANDARD
 72
1
 11
210.000000000
 21
148.500000000
 31
0.000000000
100
AcDbText
  0
LINE
  5
AB3
330
A02
100
AcDbEntity
  8
V_05_Cradle_Cradle_Lid_0
100
AcDbLine
 10
189.436970625
 20
146.275175644
 30
0.000000000
 11
232.620991904
 21
146.275175644
 31
0.000000000
  0
LINE
  5
AB4
330
A02
100
AcDbEntity
  8
V_05_Cradle_Cradle_Lid_0
100
AcDbLine
 10
232.620991904
 20
146.275175644
 30
0.000000000
 11
232.620991904
 21
149.612412178
 31
0.000000000
  0
LINE
  5
AB5
330
A02
100
AcDbEntity
  8
V_05_Cradle_Cradle_Lid_0
100
AcDbLine
 10
190.716244630
 20
149.612412178
 30
0.000000000
 11
232.620991904
 21
149.612412178
 31
0.000000000
  0
LINE
  5
AB6
330
A02
100
AcDbEntity
  8
V_05_Cradle_Cradle_Lid_0
100
AcDbLine
 10
190.716244630
 20
149.612412178
 30
0.000000000
 11
189.436970625
 21
148.333138173
 31
0.000000000
  0
LINE
  5
AB7
330
A02
100
AcDbEntity
  8
V_05_Cradle_Cradle_Lid_0
100
AcDbLine
 10
189.436970625
 20
148.333138173
 30
0.000000000
 11
189.436970625
 21
146.275175644
 31
0.000000000
  0
LINE
  5
AB8
330
A02
100
AcDbEntity
  8
V_05_Cradle_Cradle_Lid_0
100
AcDbLine
 10
189.436970625
 20
146.275175644
 30
0.000000000
 11
187.379008096
 21
146.275175644
 31
0.000000000
  0
LINE
  5
AB9
330
A02
100
AcDbEntity
  8
V_05_Cradle_Cradle_Lid_0
100
AcDbLine
 10
191.828656808
 20
150.724824356
 30
0.000000000
 11
190.716244630
 21
149.612412178
 31
0.000000000
  0
LINE
  5
ABA
330
A02
100
AcDbEntity
  8
V_05_Cradle_Cradle_Lid_0
100
AcDbLine
 10
187.379008096
 20
146.275175644
 30
0.000000000
 11
189.436970625
 21
148.333138173
 31
0.000000000
  0
LINE
  5
ABB
330
A02
100
AcDbEntity
  8
V_05_Cradle_Cradle_Lid_0
100
AcDbLine
 10
231.675441553
 20
149.612412178
 30
0.000000000
 11
231.675441553
 21
150.724824356
 31
0.000000000
  0
LINE
  5
ABC
330
A02
100
AcDbEntity
  8
V_05_Cradle_Cradle_Lid_0
100
AcDbLine
 10
191.828656808
 20
150.724824356
 30
0.000000000
 11
231.675441553
 21
150.724824356
 31
0.000000000
  0
LINE
  5
ABD
330
A02
100
AcDbEntity
  8
V_05_Cradle_Cradle_Lid_1
100
AcDbLine
 10
190.716244630
 20
124.750000000
 30
0.000000000
 11
232.620991904
 21
124.750000000
 31
0.000000000
  0
LINE
  5
ABE
330
A02
100
AcDbEntity
  8
V_05_Cradle_Cradle_Lid_1
100
AcDbLine
 10
190.716244630
 20
124.750000000
 30
0.000000000
 11
189.436970625
 21
124.750000000
 31
0.000000000
  0
LINE
  5
ABF
330
A02
100
AcDbEntity
  8
V_05_Cradle_Cradle_Lid_1
100
AcDbLine
 10
187.379008096
 20
126.807962529
 30
0.000000000
 11
187.379008096
 21
172.250000000
 31
0.000000000
  0
LINE
  5
AC0
330
A02
100
AcDbEntity
  8
V_05_Cradle_Cradle_Lid_1
100
AcDbLine
 10
232.620991904
 20
124.750000000
 30
0.000000000
 11
232.620991904
 21
167.934021280
 31
0.000000000
  0
LINE
  5
AC1
330
A02
100
AcDbEntity
  8
V_05_Cradle_Cradle_Lid_1
100
AcDbLine
 10
190.716244630
 20
124.750000000
 30
0.000000000
 11
190.716244630
 21
125.695550351
 31
0.000000000
  0
LINE
  5
AC2
330
A02
100
AcDbEntity
  8
V_05_Cradle_Cradle_Lid_1
100
AcDbLine
 10
232.620991904
 20
167.934021280
 30
0.000000000
 11
231.675441553
 21
168.879571631
 31
0.000000000
  0
LINE
  5
AC3
330
A02
100
AcDbEntity
  8
V_05_Cradle_Cradle_Lid_1
100
AcDbLine
 10
191.828656808
 20
125.695550351
 30
0.000000000
 11
190.716244630
 21
125.695550351
 31
0.000000000
  0
LINE
  5
AC4
330
A02
100
AcDbEntity
  8
V_05_Cradle_Cradle_Lid_1
100
AcDbLine
 10
191.828656808
 20
125.695550351
 30
0.000000000
 11
191.828656808
 21
128.998489330
 31
0.000000000
  0
SPLINE
  5
AC5
330
A02
100
AcDbEntity
  8
V_05_Cradle_Cradle_Lid_1
100
AcDbSpline
210
0
220
0
230
1
 70
8
 71
1
 72
17
 73
15
 74
0
 40
4.294454850
 40
4.294454850
 40
4.361101157
 40
4.427747464
 40
4.494393770
 40
4.561040077
 40
4.627686384
 40
4.694332690
 40
4.760978997
 40
4.827625304
 40
4.894271610
 40
4.960917917
 40
5.027564224
 40
5.094210530
 40
5.160856837
 40
5.227503144
 40
5.227503144
 10
191.828656808
 20
128.998489330
 30
0.000000000
 10
191.713568827
 20
128.951905261
 30
0.000000000
 10
191.595633988
 20
128.913089123
 30
0.000000000
 10
191.475375933
 20
128.882213262
 30
0.000000000
 10
191.353328616
 20
128.859414770
 30
0.000000000
 10
191.230033939
 20
128.844794875
 30
0.000000000
 10
191.106039341
 20
128.838418490
 30
0.000000000
 10
190.981895367
 20
128.840313926
 30
0.000000000
 10
190.858153230
 20
128.850472768
 30
0.000000000
 10
190.735362353
 20
128.868849910
 30
0.000000000
 10
190.614067940
 20
128.895363755
 30
0.000000000
 10
190.494808547
 20
128.929896580
 30
0.000000000
 10
190.378113697
 20
128.972295056
 30
0.000000000
 10
190.264501525
 20
129.022370930
 30
0.000000000
 10
190.154476480
 20
129.079901861
 30
0.000000000
  0
LINE
  5
AC6
330
A02
100
AcDbEntity
  8
V_05_Cradle_Cradle_Lid_1
100
AcDbLine
 10
190.154476480
 20
129.079901861
 30
0.000000000
 11
190.154476480
 21
130.474497063
 31
0.000000000
  0
SPLINE
  5
AC7
330
A02
100
AcDbEntity
  8
V_05_Cradle_Cradle_Lid_1
100
AcDbSpline
210
0
220
0
230
1
 70
8
 71
2
 72
6
 73
3
 74
0
 40
6.040845597
 40
6.040845597
 40
6.040845597
 40
6.283185307
 40
6.283185307
 40
6.283185307
 10
190.154476480
 20
130.474497063
 30
0.000000000
 10
190.126960457
 20
130.586282770
 30
0.000000000
 10
190.126846705
 20
130.701405152
 30
0.000000000
  0
SPLINE
  5
AC8
330
A02
100
AcDbEntity
  8
V_05_Cradle_Cradle_Lid_1
100
AcDbSpline
210
0
220
0
230
1
 70
8
 71
2
 72
6
 73
3
 74
0
 40
0.000000000
 40
0.000000000
 40
0.000000000
 40
0.242339711
 40
0.242339711
 40
0.242339711
 10
190.126846705
 20
130.701405152
 30
0.000000000
 10
190.126960457
 20
130.816527535
 30
0.000000000
 10
190.154476480
 20
130.928313242
 30
0.000000000
  0
LINE
  5
AC9
330
A02
100
AcDbEntity
  8
V_05_Cradle_Cradle_Lid_1
100
AcDbLine
 10
190.154476480
 20
130.928313242
 30
0.000000000
 11
190.154476480
 21
132.322908443
 31
0.000000000
  0
SPLINE
  5
ACA
330
A02
100
AcDbEntity
  8
V_05_Cradle_Cradle_Lid_1
100
AcDbSpline
210
0
220
0
230
1
 70
8
 71
1
 72
17
 73
15
 74
0
 40
1.055682164
 40
1.055682164
 40
1.122328470
 40
1.188974777
 40
1.255621084
 40
1.322267390
 40
1.388913697
 40
1.455560004
 40
1.522206310
 40
1.588852617
 40
1.655498924
 40
1.722145230
 40
1.788791537
 40
1.855437844
 40
1.922084150
 40
1.988730457
 40
1.988730457
 10
190.154476480
 20
132.322908443
 30
0.000000000
 10
190.264501525
 20
132.380439374
 30
0.000000000
 10
190.378113697
 20
132.430515248
 30
0.000000000
 10
190.494808547
 20
132.472913724
 30
0.000000000
 10
190.614067940
 20
132.507446549
 30
0.000000000
 10
190.735362353
 20
132.533960395
 30
0.000000000
 10
190.858153230
 20
132.552337536
 30
0.000000000
 10
190.981895367
 20
132.562496378
 30
0.000000000
 10
191.106039341
 20
132.564391815
 30
0.000000000
 10
191.230033939
 20
132.558015429
 30
0.000000000
 10
191.353328616
 20
132.543395534
 30
0.000000000
 10
191.475375933
 20
132.520597042
 30
0.000000000
 10
191.595633988
 20
132.489721182
 30
0.000000000
 10
191.713568827
 20
132.450905043
 30
0.000000000
 10
191.828656808
 20
132.404320974
 30
0.000000000
  0
LINE
  5
ACB
330
A02
100
AcDbEntity
  8
V_05_Cradle_Cradle_Lid_1
100
AcDbLine
 10
191.828656808
 20
132.404320974
 30
0.000000000
 11
191.828656808
 21
164.595679026
 31
0.000000000
  0
SPLINE
  5
ACC
330
A02
100
AcDbEntity
  8
V_05_Cradle_Cradle_Lid_1
100
AcDbSpline
210
0
220
0
230
1
 70
8
 71
1
 72
17
 73
15
 74
0
 40
4.294454850
 40
4.294454850
 40
4.361101157
 40
4.427747464
 40
4.494393770
 40
4.561040077
 40
4.627686384
 40
4.694332690
 40
4.760978997
 40
4.827625304
 40
4.894271610
 40
4.960917917
 40
5.027564224
 40
5.094210530
 40
5.160856837
 40
5.227503144
 40
5.227503144
 10
191.828656808
 20
164.595679026
 30
0.000000000
 10
191.713568827
 20
164.549094957
 30
0.000000000
 10
191.595633988
 20
164.510278818
 30
0.000000000
 10
191.475375933
 20
164.479402958
 30
0.000000000
 10
191.353328616
 20
164.456604466
 30
0.000000000
 10
191.230033939
 20
164.441984571
 30
0.000000000
 10
191.106039341
 20
164.435608185
 30
0.000000000
 10
190.981895367
 20
164.437503622
 30
0.000000000
 10
190.858153230
 20
164.447662464
 30
0.000000000
 10
190.735362353
 20
164.466039605
 30
0.000000000
 10
190.614067940
 20
164.492553451
 30
0.000000000
 10
190.494808547
 20
164.527086276
 30
0.000000000
 10
190.378113697
 20
164.569484752
 30
0.000000000
 10
190.264501525
 20
164.619560626
 30
0.000000000
 10
190.154476480
 20
164.677091557
 30
0.000000000
  0
LINE
  5
ACD
330
A02
100
AcDbEntity
  8
V_05_Cradle_Cradle_Lid_1
100
AcDbLine
 10
190.154476480
 20
164.677091557
 30
0.000000000
 11
190.154476480
 21
166.071686758
 31
0.000000000
  0
SPLINE
  5
ACE
330
A02
100
AcDbEntity
  8
V_05_Cradle_Cradle_Lid_1
100
AcDbSpline
210
0
220
0
230
1
 70
8
 71
2
 72
6
 73
3
 74
0
 40
6.040845597
 40
6.040845597
 40
6.040845597
 40
6.283185307
 40
6.283185307
 40
6.283185307
 10
190.154476480
 20
166.071686758
 30
0.000000000
 10
190.126960457
 20
166.183472465
 30
0.000000000
 10
190.126846705
 20
166.298594848
 30
0.000000000
  0
SPLINE
  5
ACF
330
A02
100
AcDbEntity
  8
V_05_Cradle_Cradle_Lid_1
100
AcDbSpline
210
0
220
0
230
1
 70
8
 71
2
 72
6
 73
3
 74
0
 40
0.000000000
 40
0.000000000
 40
0.000000000
 40
0.242339711
 40
0.242339711
 40
0.242339711
 10
190.126846705
 20
166.298594848
 30
0.000000000
 10
190.126960457
 20
166.413717230
 30
0.000000000
 10
190.154476480
 20
166.525502937
 30
0.000000000
  0
LINE
  5
AD0
330
A02
100
AcDbEntity
  8
V_05_Cradle_Cradle_Lid_1
100
AcDbLine
 10
190.154476480
 20
166.525502937
 30
0.000000000
 11
190.154476480
 21
167.920098139
 31
0.000000000
  0
SPLINE
  5
AD1
330
A02
100
AcDbEntity
  8
V_05_Cradle_Cradle_Lid_1
100
AcDbSpline
210
0
220
0
230
1
 70
8
 71
1
 72
17
 73
15
 74
0
 40
1.055682164
 40
1.055682164
 40
1.122328470
 40
1.188974777
 40
1.255621084
 40
1.322267390
 40
1.388913697
 40
1.455560004
 40
1.522206310
 40
1.588852617
 40
1.655498924
 40
1.722145230
 40
1.788791537
 40
1.855437844
 40
1.922084150
 40
1.988730457
 40
1.988730457
 10
190.154476480
 20
167.920098139
 30
0.000000000
 10
190.264501525
 20
167.977629070
 30
0.000000000
 10
190.378113697
 20
168.027704944
 30
0.000000000
 10
190.494808547
 20
168.070103420
 30
0.000000000
 10
190.614067940
 20
168.104636245
 30
0.000000000
 10
190.735362353
 20
168.131150090
 30
0.000000000
 10
190.858153230
 20
168.149527232
 30
0.000000000
 10
190.981895367
 20
168.159686074
 30
0.000000000
 10
191.106039341
 20
168.161581510
 30
0.000000000
 10
191.230033939
 20
168.155205125
 30
0.000000000
 10
191.353328616
 20
168.140585230
 30
0.000000000
 10
191.475375933
 20
168.117786738
 30
0.000000000
 10
191.595633988
 20
168.086910877
 30
0.000000000
 10
191.713568827
 20
168.048094739
 30
0.000000000
 10
191.828656808
 20
168.001510670
 30
0.000000000
  0
LINE
  5
AD2
330
A02
100
AcDbEntity
  8
V_05_Cradle_Cradle_Lid_1
100
AcDbLine
 10
191.828656808
 20
168.001510670
 30
0.000000000
 11
191.828656808
 21
171.304449649
 31
0.000000000
  0
LINE
  5
AD3
330
A02
100
AcDbEntity
  8
V_05_Cradle_Cradle_Lid_1
100
AcDbLine
 10
191.828656808
 20
171.304449649
 30
0.000000000
 11
190.716244630
 21
171.304449649
 31
0.000000000
  0
LINE
  5
AD4
330
A02
100
AcDbEntity
  8
V_05_Cradle_Cradle_Lid_1
100
AcDbLine
 10
190.716244630
 20
171.304449649
 30
0.000000000
 11
190.716244630
 21
172.250000000
 31
0.000000000
  0
LINE
  5
AD5
330
A02
100
AcDbEntity
  8
V_05_Cradle_Cradle_Lid_1
100
AcDbLine
 10
190.716244630
 20
172.250000000
 30
0.000000000
 11
187.379008096
 21
172.250000000
 31
0.000000000
  0
LINE
  5
AD6
330
A02
100
AcDbEntity
  8
V_05_Cradle_Cradle_Lid_1
100
AcDbLine
 10
187.379008096
 20
126.807962529
 30
0.000000000
 11
189.436970625
 21
124.750000000
 31
0.000000000
  0
LINE
  5
AD7
330
A02
100
AcDbEntity
  8
V_05_Cradle_Cradle_Lid_1
100
AcDbLine
 10
190.716244630
 20
172.250000000
 30
0.000000000
 11
228.305013184
 21
172.250000000
 31
0.000000000
  0
LINE
  5
AD8
330
A02
100
AcDbEntity
  8
V_05_Cradle_Cradle_Lid_1
100
AcDbLine
 10
231.675441553
 20
168.879571631
 30
0.000000000
 11
229.250563535
 21
171.304449649
 31
0.000000000
  0
LINE
  5
AD9
330
A02
100
AcDbEntity
  8
V_05_Cradle_Cradle_Lid_1
100
AcDbLine
 10
229.250563535
 20
171.304449649
 30
0.000000000
 11
228.305013184
 21
172.250000000
 31
0.000000000
  0
ARC
  5
ADA
330
A02
100
AcDbEntity
  8
V_05_Cradle_Cradle_Lid_1
100
AcDbCircle
 10
191.072397057
 20
130.701405152
 30
0.000000000
 40
0.945550351
100
AcDbArc
 50
-166.114957376
 51
166.114957376
  0
CIRCLE
  5
ADB
330
A02
100
AcDbEntity
  8
V_05_Cradle_Cradle_Lid_1
100
AcDbCircle
 10
226.669586752
 20
130.701405152
 30
0.000000000
 40
0.945550351
  0
ARC
  5
ADC
330
A02
100
AcDbEntity
  8
V_05_Cradle_Cradle_Lid_1
100
AcDbCircle
 10
191.072397057
 20
166.298594848
 30
0.000000000
 40
0.945550351
100
AcDbArc
 50
-166.114957376
 51
166.114957376
  0
CIRCLE
  5
ADD
330
A02
100
AcDbEntity
  8
V_05_Cradle_Cradle_Lid_1
100
AcDbCircle
 10
226.669586752
 20
166.298594848
 30
0.000000000
 40
0.945550351
  0
LINE
  5
ADE
330
A02
100
AcDbEntity
  8
V_05_Cradle_Cradle_Lid_1
100
AcDbLine
 10
191.828656808
 20
125.695550351
 30
0.000000000
 11
231.675441553
 21
125.695550351
 31
0.000000000
  0
LINE
  5
ADF
330
A02
100
AcDbEntity
  8
V_05_Cradle_Cradle_Lid_1
100
AcDbLine
 10
231.675441553
 20
125.695550351
 30
0.000000000
 11
231.675441553
 21
168.879571631
 31
0.000000000
  0
LINE
  5
AE0
330
A02
100
AcDbEntity
  8
V_05_Cradle_Cradle_Lid_1
100
AcDbLine
 10
191.828656808
 20
171.304449649
 30
0.000000000
 11
229.250563535
 21
171.304449649
 31
0.000000000
  0
ARC
  5
AE1
330
A02
100
AcDbEntity
  8
V_05_Cradle_Cradle_Lid_1
100
AcDbCircle
 10
191.072397057
 20
166.298594848
 30
0.000000000
 40
1.863290398
100
AcDbArc
 50
-66.054138225
 51
66.054138225
  0
ARC
  5
AE2
330
A02
100
AcDbEntity
  8
V_05_Cradle_Cradle_Lid_1
100
AcDbCircle
 10
191.072397057
 20
130.701405152
 30
0.000000000
 40
1.863290398
100
AcDbArc
 50
-66.054138225
 51
66.054138225
  0
CIRCLE
  5
AE3
330
A02
100
AcDbEntity
  8
V_05_Cradle_Cradle_Lid_1
100
AcDbCircle
 10
226.669586752
 20
130.701405152
 30
0.000000000
 40
1.863290398
  0
CIRCLE
  5
AE4
330
A02
100
AcDbEntity
  8
V_05_Cradle_Cradle_Lid_1
100
AcDbCircle
 10
208.870991904
 20
148.500000000
 30
0.000000000
 40
2.781030445
  0
CIRCLE
  5
AE5
330
A02
100
AcDbEntity
  8
V_05_Cradle_Cradle_Lid_1
100
AcDbCircle
 10
226.669586752
 20
166.298594848
 30
0.000000000
 40
1.863290398
  0
LINE
  5
AE6
330
A02
100
AcDbEntity
  8
V_05_Cradle_Cradle_Lid_2
100
AcDbLine
 10
186.250000000
 20
146.275175644
 30
0.000000000
 11
186.250000000
 21
149.612412178
 31
0.000000000
  0
LINE
  5
AE7
330
A02
100
AcDbEntity
  8
V_05_Cradle_Cradle_Lid_2
100
AcDbLine
 10
229.434021280
 20
146.275175644
 30
0.000000000
 11
233.750000000
 21
146.275175644
 31
0.000000000
  0
LINE
  5
AE8
330
A02
100
AcDbEntity
  8
V_05_Cradle_Cradle_Lid_2
100
AcDbLine
 10
186.250000000
 20
146.275175644
 30
0.000000000
 11
229.434021280
 21
146.275175644
 31
0.000000000
  0
LINE
  5
AE9
330
A02
100
AcDbEntity
  8
V_05_Cradle_Cradle_Lid_2
100
AcDbLine
 10
186.250000000
 20
149.612412178
 30
0.000000000
 11
229.434021280
 21
149.612412178
 31
0.000000000
  0
LINE
  5
AEA
330
A02
100
AcDbEntity
  8
V_05_Cradle_Cradle_Lid_2
100
AcDbLine
 10
229.434021280
 20
146.275175644
 30
0.000000000
 11
229.434021280
 21
149.612412178
 31
0.000000000
  0
LINE
  5
AEB
330
A02
100
AcDbEntity
  8
V_05_Cradle_Cradle_Lid_2
100
AcDbLine
 10
229.434021280
 20
149.612412178
 30
0.000000000
 11
230.379571631
 21
149.612412178
 31
0.000000000
  0
LINE
  5
AEC
330
A02
100
AcDbEntity
  8
V_05_Cradle_Cradle_Lid_2
100
AcDbLine
 10
233.750000000
 20
149.612412178
 30
0.000000000
 11
233.750000000
 21
146.275175644
 31
0.000000000
  0
LINE
  5
AED
330
A02
100
AcDbEntity
  8
V_05_Cradle_Cradle_Lid_2
100
AcDbLine
 10
230.379571631
 20
149.612412178
 30
0.000000000
 11
230.379571631
 21
150.724824356
 31
0.000000000
  0
LINE
  5
AEE
330
A02
100
AcDbEntity
  8
V_05_Cradle_Cradle_Lid_2
100
AcDbLine
 10
230.379571631
 20
150.724824356
 30
0.000000000
 11
232.804449649
 21
150.724824356
 31
0.000000000
  0
LINE
  5
AEF
330
A02
100
AcDbEntity
  8
V_05_Cradle_Cradle_Lid_2
100
AcDbLine
 10
232.804449649
 20
150.724824356
 30
0.000000000
 11
232.804449649
 21
149.612412178
 31
0.000000000
  0
LINE
  5
AF0
330
A02
100
AcDbEntity
  8
V_05_Cradle_Cradle_Lid_2
100
AcDbLine
 10
232.804449649
 20
149.612412178
 30
0.000000000
 11
233.750000000
 21
149.612412178
 31
0.000000000
  0
LINE
  5
AF1
330
A02
100
AcDbEntity
  8
V_05_Cradle_Cradle_Lid_2
100
AcDbLine
 10
187.195550351
 20
149.612412178
 30
0.000000000
 11
187.195550351
 21
150.724824356
 31
0.000000000
  0
LINE
  5
AF2
330
A02
100
AcDbEntity
  8
V_05_Cradle_Cradle_Lid_2
100
AcDbLine
 10
187.195550351
 20
150.724824356
 30
0.000000000
 11
230.379571631
 21
150.724824356
 31
0.000000000
  0
LINE
  5
AF3
330
A02
100
AcDbEntity
  8
V_05_Cradle_Cradle_Lid_3
100
AcDbLine
 10
179.464285714
 20
146.483653608
 30
0.000000000
 11
210.000000000
 21
128.853850745
 31
0.000000000
  0
LINE
  5
AF4
330
A02
100
AcDbEntity
  8
V_05_Cradle_Cradle_Lid_3
100
AcDbLine
 10
210.000000000
 20
128.853850745
 30
0.000000000
 11
210.000000000
 21
131.578692965
 31
0.000000000
  0
LINE
  5
AF5
330
A02
100
AcDbEntity
  8
V_05_Cradle_Cradle_Lid_3
100
AcDbLine
 10
180.368869038
 20
148.686234402
 30
0.000000000
 11
210.000000000
 21
131.578692965
 31
0.000000000
  0
LINE
  5
AF6
330
A02
100
AcDbEntity
  8
V_05_Cradle_Cradle_Lid_3
100
AcDbLine
 10
180.368869038
 20
148.686234402
 30
0.000000000
 11
179.464285714
 21
148.163972977
 31
0.000000000
  0
LINE
  5
AF7
330
A02
100
AcDbEntity
  8
V_05_Cradle_Cradle_Lid_3
100
AcDbLine
 10
179.464285714
 20
148.163972977
 30
0.000000000
 11
179.464285714
 21
146.483653608
 31
0.000000000
  0
LINE
  5
AF8
330
A02
100
AcDbEntity
  8
V_05_Cradle_Cradle_Lid_3
100
AcDbLine
 10
210.000000000
 20
128.853850745
 30
0.000000000
 11
240.535714286
 21
146.483653608
 31
0.000000000
  0
LINE
  5
AF9
330
A02
100
AcDbEntity
  8
V_05_Cradle_Cradle_Lid_3
100
AcDbLine
 10
210.000000000
 20
131.578692965
 30
0.000000000
 11
240.535714286
 21
149.208495828
 31
0.000000000
  0
LINE
  5
AFA
330
A02
100
AcDbEntity
  8
V_05_Cradle_Cradle_Lid_3
100
AcDbLine
 10
240.535714286
 20
146.483653608
 30
0.000000000
 11
240.535714286
 21
149.208495828
 31
0.000000000
  0
LINE
  5
AFB
330
A02
100
AcDbEntity
  8
V_05_Cradle_Cradle_Lid_3
100
AcDbLine
 10
180.368869038
 20
148.686234402
 30
0.000000000
 11
181.037474103
 21
149.072253717
 31
0.000000000
  0
LINE
  5
AFC
330
A02
100
AcDbEntity
  8
V_05_Cradle_Cradle_Lid_3
100
AcDbLine
 10
181.037474103
 20
149.072253717
 30
0.000000000
 11
210.000000000
 21
132.350731594
 31
0.000000000
  0
LINE
  5
AFD
330
A02
100
AcDbEntity
  8
V_05_Cradle_Cradle_Lid_3
100
AcDbLine
 10
210.000000000
 20
132.350731594
 30
0.000000000
 11
240.535714286
 21
149.980534457
 31
0.000000000
  0
LINE
  5
AFE
330
A02
100
AcDbEntity
  8
V_05_Cradle_Cradle_Lid_3
100
AcDbLine
 10
240.535714286
 20
149.208495828
 30
0.000000000
 11
240.535714286
 21
149.980534457
 31
0.000000000
  0
LINE
  5
AFF
330
A02
100
AcDbEntity
  8
V_05_Cradle_Cradle_Lid_3
100
AcDbLine
 10
181.824068298
 20
149.526394087
 30
0.000000000
 11
181.037474103
 21
149.072253717
 31
0.000000000
  0
LINE
  5
B00
330
A02
100
AcDbEntity
  8
V_05_Cradle_Cradle_Lid_3
100
AcDbLine
 10
181.824068298
 20
149.526394087
 30
0.000000000
 11
184.159598848
 21
150.874813278
 31
0.000000000
  0
SPLINE
  5
B01
330
A02
100
AcDbEntity
  8
V_05_Cradle_Cradle_Lid_3
100
AcDbSpline
210
0
220
0
230
1
 70
8
 71
1
 72
4
 73
2
 74
0
 40
6.282015229
 40
6.282015229
 40
6.283185307
 40
6.283185307
 10
184.159598848
 20
150.874813278
 30
0.000000000
 10
184.160380710
 20
150.875264687
 30
0.000000000
  0
SPLINE
  5
B02
330
A02
100
AcDbEntity
  8
V_05_Cradle_Cradle_Lid_3
100
AcDbSpline
210
0
220
0
230
1
 70
8
 71
2
 72
6
 73
3
 74
0
 40
0.000000000
 40
0.000000000
 40
0.000000000
 40
0.242339711
 40
0.242339711
 40
0.242339711
 10
184.160380710
 20
150.875264687
 30
0.000000000
 10
184.241864961
 20
150.922309641
 30
0.000000000
 10
184.340366159
 20
150.979179334
 30
0.000000000
  0
LINE
  5
B03
330
A02
100
AcDbEntity
  8
V_05_Cradle_Cradle_Lid_3
100
AcDbLine
 10
184.340366159
 20
150.979179334
 30
0.000000000
 11
185.326493883
 21
151.548520441
 31
0.000000000
  0
SPLINE
  5
B04
330
A02
100
AcDbEntity
  8
V_05_Cradle_Cradle_Lid_3
100
AcDbSpline
210
0
220
0
230
1
 70
8
 71
3
 72
23
 73
19
 74
0
 40
1.055682164
 40
1.055682164
 40
1.055682164
 40
1.055682164
 40
1.522206310
 40
1.522206310
 40
1.522206310
 40
1.655498924
 40
1.655498924
 40
1.655498924
 40
1.788791537
 40
1.788791537
 40
1.788791537
 40
1.855437844
 40
1.855437844
 40
1.855437844
 40
1.922084150
 40
1.922084150
 40
1.922084150
 40
1.988730457
 40
1.988730457
 40
1.988730457
 40
1.988730457
 10
185.326493883
 20
151.548520441
 30
0.000000000
 10
185.605640080
 20
151.709685573
 30
0.000000000
 10
185.865644076
 20
151.859798950
 30
0.000000000
 10
186.080981643
 20
151.984124153
 30
0.000000000
 10
186.141510394
 20
152.019070443
 30
0.000000000
 10
186.198941047
 20
152.052228046
 30
0.000000000
 10
186.253273601
 20
152.083596960
 30
0.000000000
 10
186.305749408
 20
152.113893882
 30
0.000000000
 10
186.354757472
 20
152.142188701
 30
0.000000000
 10
186.400297793
 20
152.168481417
 30
0.000000000
 10
186.421365378
 20
152.180644794
 30
0.000000000
 10
186.442432964
 20
152.192808170
 30
0.000000000
 10
186.463500549
 20
152.204971546
 30
0.000000000
 10
186.482149005
 20
152.215738237
 30
0.000000000
 10
186.500797462
 20
152.226504928
 30
0.000000000
 10
186.519445918
 20
152.237271620
 30
0.000000000
 10
186.535592445
 20
152.246593821
 30
0.000000000
 10
186.551738972
 20
152.255916023
 30
0.000000000
 10
186.567885499
 20
152.265238225
 30
0.000000000
  0
LINE
  5
B05
330
A02
100
AcDbEntity
  8
V_05_Cradle_Cradle_Lid_3
100
AcDbLine
 10
186.567885499
 20
152.265238225
 30
0.000000000
 11
209.330613073
 21
165.407305117
 31
0.000000000
  0
SPLINE
  5
B06
330
A02
100
AcDbEntity
  8
V_05_Cradle_Cradle_Lid_3
100
AcDbSpline
210
0
220
0
230
1
 70
8
 71
1
 72
4
 73
2
 74
0
 40
6.282015229
 40
6.282015229
 40
6.283185307
 40
6.283185307
 10
209.330613073
 20
165.407305117
 30
0.000000000
 10
209.331394935
 20
165.407756525
 30
0.000000000
  0
SPLINE
  5
B07
330
A02
100
AcDbEntity
  8
V_05_Cradle_Cradle_Lid_3
100
AcDbSpline
210
0
220
0
230
1
 70
8
 71
2
 72
6
 73
3
 74
0
 40
0.000000000
 40
0.000000000
 40
0.000000000
 40
0.242339711
 40
0.242339711
 40
0.242339711
 10
209.331394935
 20
165.407756525
 30
0.000000000
 10
209.412879186
 20
165.454801480
 30
0.000000000
 10
209.511380384
 20
165.511671173
 30
0.000000000
  0
LINE
  5
B08
330
A02
100
AcDbEntity
  8
V_05_Cradle_Cradle_Lid_3
100
AcDbLine
 10
209.511380384
 20
165.511671173
 30
0.000000000
 11
210.497508108
 21
166.081012280
 31
0.000000000
  0
SPLINE
  5
B09
330
A02
100
AcDbEntity
  8
V_05_Cradle_Cradle_Lid_3
100
AcDbSpline
210
0
220
0
230
1
 70
8
 71
3
 72
23
 73
19
 74
0
 40
1.055682164
 40
1.055682164
 40
1.055682164
 40
1.055682164
 40
1.522206310
 40
1.522206310
 40
1.522206310
 40
1.655498924
 40
1.655498924
 40
1.655498924
 40
1.788791537
 40
1.788791537
 40
1.788791537
 40
1.855437844
 40
1.855437844
 40
1.855437844
 40
1.922084150
 40
1.922084150
 40
1.922084150
 40
1.988730457
 40
1.988730457
 40
1.988730457
 40
1.988730457
 10
210.497508108
 20
166.081012280
 30
0.000000000
 10
210.776654305
 20
166.242177412
 30
0.000000000
 10
211.036658301
 20
166.392290789
 30
0.000000000
 10
211.251995868
 20
166.516615991
 30
0.000000000
 10
211.312524619
 20
166.551562282
 30
0.000000000
 10
211.369955272
 20
166.584719884
 30
0.000000000
 10
211.424287825
 20
166.616088799
 30
0.000000000
 10
211.476763632
 20
166.646385720
 30
0.000000000
 10
211.525771697
 20
166.674680539
 30
0.000000000
 10
211.571312018
 20
166.700973256
 30
0.000000000
 10
211.592379603
 20
166.713136632
 30
0.000000000
 10
211.613447189
 20
166.725300008
 30
0.000000000
 10
211.634514774
 20
166.737463384
 30
0.000000000
 10
211.653163230
 20
166.748230076
 30
0.000000000
 10
211.671811687
 20
166.758996767
 30
0.000000000
 10
211.690460143
 20
166.769763458
 30
0.000000000
 10
211.706606670
 20
166.779085660
 30
0.000000000
 10
211.722753197
 20
166.788407862
 30
0.000000000
 10
211.738899724
 20
166.797730063
 30
0.000000000
  0
LINE
  5
B0A
330
A02
100
AcDbEntity
  8
V_05_Cradle_Cradle_Lid_3
100
AcDbLine
 10
211.738899724
 20
166.797730063
 30
0.000000000
 11
214.074430274
 21
168.146149255
 31
0.000000000
  0
LINE
  5
B0B
330
A02
100
AcDbEntity
  8
V_05_Cradle_Cradle_Lid_3
100
AcDbLine
 10
240.535714286
 20
149.980534457
 30
0.000000000
 11
240.535714286
 21
150.888815197
 31
0.000000000
  0
LINE
  5
B0C
330
A02
100
AcDbEntity
  8
V_05_Cradle_Cradle_Lid_3
100
AcDbLine
 10
240.535714286
 20
150.888815197
 30
0.000000000
 11
240.535714286
 21
152.868719807
 31
0.000000000
  0
ELLIPSE
  5
B0D
330
A02
100
AcDbEntity
  8
V_05_Cradle_Cradle_Lid_3
100
AcDbEllipse
 10
184.828985775
 20
150.511804988
 30
0.000000000
 11
-0.945550351
 21
0.000000000
 31
0.000000000
 40
0.577350269
 41
-2.398905054
 42
-1.027737874
  0
ELLIPSE
  5
B0E
330
A02
100
AcDbEntity
  8
V_05_Cradle_Cradle_Lid_3
100
AcDbEllipse
 10
210.000000000
 20
135.979313150
 30
0.000000000
 11
-0.945550351
 21
0.000000000
 31
0.000000000
 40
0.577350269
 41
-2.398905054
 42
-0.785398163
  0
ELLIPSE
  5
B0F
330
A02
100
AcDbEntity
  8
V_05_Cradle_Cradle_Lid_3
100
AcDbEllipse
 10
210.000000000
 20
135.979313150
 30
0.000000000
 11
-0.945550351
 21
0.000000000
 31
0.000000000
 40
0.577350269
 41
-0.785398163
 42
-0.742687600
  0
ELLIPSE
  5
B10
330
A02
100
AcDbEntity
  8
V_05_Cradle_Cradle_Lid_3
100
AcDbEllipse
 10
210.000000000
 20
165.044296827
 30
0.000000000
 11
-0.945550351
 21
0.000000000
 31
0.000000000
 40
0.577350269
 41
-2.398905054
 42
-1.027737874
  0
ELLIPSE
  5
B11
330
A02
100
AcDbEntity
  8
V_05_Cradle_Cradle_Lid_3
100
AcDbEllipse
 10
235.171014225
 20
150.511804988
 30
0.000000000
 11
-0.945550351
 21
0.000000000
 31
0.000000000
 40
0.577350269
 41
-2.398905054
 42
-0.785398163
  0
ELLIPSE
  5
B12
330
A02
100
AcDbEntity
  8
V_05_Cradle_Cradle_Lid_3
100
AcDbEllipse
 10
235.171014225
 20
150.511804988
 30
0.000000000
 11
-0.945550351
 21
0.000000000
 31
0.000000000
 40
0.577350269
 41
-0.785398163
 42
-0.742687600
  0
LINE
  5
B13
330
A02
100
AcDbEntity
  8
V_05_Cradle_Cradle_Lid_3
100
AcDbLine
 10
210.000000000
 20
132.350731594
 30
0.000000000
 11
210.000000000
 21
133.259012334
 31
0.000000000
  0
LINE
  5
B14
330
A02
100
AcDbEntity
  8
V_05_Cradle_Cradle_Lid_3
100
AcDbLine
 10
181.824068298
 20
149.526394087
 30
0.000000000
 11
210.000000000
 21
133.259012334
 31
0.000000000
  0
LINE
  5
B15
330
A02
100
AcDbEntity
  8
V_05_Cradle_Cradle_Lid_3
100
AcDbLine
 10
210.000000000
 20
133.259012334
 30
0.000000000
 11
240.535714286
 21
150.888815197
 31
0.000000000
  0
LINE
  5
B16
330
A02
100
AcDbEntity
  8
V_05_Cradle_Cradle_Lid_3
100
AcDbLine
 10
214.074430274
 20
168.146149255
 30
0.000000000
 11
240.535714286
 21
152.868719807
 31
0.000000000
  0
ELLIPSE
  5
B17
330
A02
100
AcDbEntity
  8
V_05_Cradle_Cradle_Lid_3
100
AcDbEllipse
 10
210.000000000
 20
166.411259340
 30
0.000000000
 11
-1.863290398
 21
0.000000000
 31
0.000000000
 40
0.577350269
 41
-3.141592654
 42
-2.774128620
  0
ELLIPSE
  5
B18
330
A02
100
AcDbEntity
  8
V_05_Cradle_Cradle_Lid_3
100
AcDbEllipse
 10
210.000000000
 20
166.411259340
 30
0.000000000
 11
-1.863290398
 21
0.000000000
 31
0.000000000
 40
0.577350269
 41
-5.079853014
 42
-3.141592654
  0
ELLIPSE
  5
B19
330
A02
100
AcDbEntity
  8
V_05_Cradle_Cradle_Lid_3
100
AcDbEllipse
 10
184.828985775
 20
151.878767502
 30
0.000000000
 11
-1.863290398
 21
0.000000000
 31
0.000000000
 40
0.577350269
 41
-3.141592654
 42
-2.774128620
  0
ELLIPSE
  5
B1A
330
A02
100
AcDbEntity
  8
V_05_Cradle_Cradle_Lid_3
100
AcDbEllipse
 10
184.828985775
 20
151.878767502
 30
0.000000000
 11
-1.863290398
 21
0.000000000
 31
0.000000000
 40
0.577350269
 41
-5.079853014
 42
-3.141592654
  0
ELLIPSE
  5
B1B
330
A02
100
AcDbEntity
  8
V_05_Cradle_Cradle_Lid_3
100
AcDbEllipse
 10
210.000000000
 20
137.346275663
 30
0.000000000
 11
-1.863290398
 21
0.000000000
 31
0.000000000
 40
0.577350269
 41
-3.141592654
 42
-0.785398163
  0
ELLIPSE
  5
B1C
330
A02
100
AcDbEntity
  8
V_05_Cradle_Cradle_Lid_3
100
AcDbEllipse
 10
210.000000000
 20
137.346275663
 30
0.000000000
 11
-1.863290398
 21
0.000000000
 31
0.000000000
 40
0.577350269
 41
-0.000000000
 42
-3.141592654
  0
ELLIPSE
  5
B1D
330
A02
100
AcDbEntity
  8
V_05_Cradle_Cradle_Lid_3
100
AcDbEllipse
 10
210.000000000
 20
137.346275663
 30
0.000000000
 11
-1.863290398
 21
0.000000000
 31
0.000000000
 40
0.577350269
 41
-0.785398163
 42
-0.000000000
  0
ELLIPSE
  5
B1E
330
A02
100
AcDbEntity
  8
V_05_Cradle_Cradle_Lid_3
100
AcDbEllipse
 10
210.000000000
 20
151.878767502
 30
0.000000000
 11
2.781030445
 21
0.000000000
 31
0.000000000
 40
0.577350269
 41
5.497787144
 42
0.000000000
  0
ELLIPSE
  5
B1F
330
A02
100
AcDbEntity
  8
V_05_Cradle_Cradle_Lid_3
100
AcDbEllipse
 10
210.000000000
 20
151.878767502
 30
0.000000000
 11
2.781030445
 21
0.000000000
 31
0.000000000
 40
0.577350269
 41
0.000000000
 42
3.141592654
  0
ELLIPSE
  5
B20
330
A02
100
AcDbEntity
  8
V_05_Cradle_Cradle_Lid_3
100
AcDbEllipse
 10
210.000000000
 20
151.878767502
 30
0.000000000
 11
2.781030445
 21
0.000000000
 31
0.000000000
 40
0.577350269
 41
3.141592654
 42
5.497787144
  0
ELLIPSE
  5
B21
330
A02
100
AcDbEntity
  8
V_05_Cradle_Cradle_Lid_3
100
AcDbEllipse
 10
235.171014225
 20
151.878767502
 30
0.000000000
 11
-1.863290398
 21
0.000000000
 31
0.000000000
 40
0.577350269
 41
-3.141592654
 42
-0.785398163
  0
ELLIPSE
  5
B22
330
A02
100
AcDbEntity
  8
V_05_Cradle_Cradle_Lid_3
100
AcDbEllipse
 10
235.171014225
 20
151.878767502
 30
0.000000000
 11
-1.863290398
 21
0.000000000
 31
0.000000000
 40
0.577350269
 41
-0.000000000
 42
-3.141592654
  0
ELLIPSE
  5
B23
330
A02
100
AcDbEntity
  8
V_05_Cradle_Cradle_Lid_3
100
AcDbEllipse
 10
235.171014225
 20
151.878767502
 30
0.000000000
 11
-1.863290398
 21
0.000000000
 31
0.000000000
 40
0.577350269
 41
-0.785398163
 42
-0.000000000
  0
ELLIPSE
  5
B24
330
A02
100
AcDbEntity
  8
V_05_Cradle_Cradle_Lid_3
100
AcDbEllipse
 10
184.828985775
 20
150.511804988
 30
0.000000000
 11
-1.863290398
 21
0.000000000
 31
0.000000000
 40
0.577350269
 41
-2.453142999
 42
-1.841080327
  0
ELLIPSE
  5
B25
330
A02
100
AcDbEntity
  8
V_05_Cradle_Cradle_Lid_3
100
AcDbEllipse
 10
210.000000000
 20
165.044296827
 30
0.000000000
 11
-1.863290398
 21
0.000000000
 31
0.000000000
 40
0.577350269
 41
-2.453142999
 42
-1.841080327
  0
ELLIPSE
  5
B26
330
A02
100
AcDbEntity
  8
V_05_Cradle_Cradle_Lid_3
100
AcDbEllipse
 10
210.000000000
 20
135.979313150
 30
0.000000000
 11
-1.863290398
 21
0.000000000
 31
0.000000000
 40
0.577350269
 41
-2.453142999
 42
-0.785398163
  0
ELLIPSE
  5
B27
330
A02
100
AcDbEntity
  8
V_05_Cradle_Cradle_Lid_3
100
AcDbEllipse
 10
210.000000000
 20
135.979313150
 30
0.000000000
 11
-1.863290398
 21
0.000000000
 31
0.000000000
 40
0.577350269
 41
-0.785398163
 42
-0.688449654
  0
ELLIPSE
  5
B28
330
A02
100
AcDbEntity
  8
V_05_Cradle_Cradle_Lid_3
100
AcDbEllipse
 10
235.171014225
 20
150.511804988
 30
0.000000000
 11
-1.863290398
 21
0.000000000
 31
0.000000000
 40
0.577350269
 41
-2.453142999
 42
-0.785398163
  0
ELLIPSE
  5
B29
330
A02
100
AcDbEntity
  8
V_05_Cradle_Cradle_Lid_3
100
AcDbEllipse
 10
235.171014225
 20
150.511804988
 30
0.000000000
 11
-1.863290398
 21
0.000000000
 31
0.000000000
 40
0.577350269
 41
-0.785398163
 42
-0.688449654
  0
ELLIPSE
  5
B2A
330
A02
100
AcDbEntity
  8
V_05_Cradle_Cradle_Lid_3
100
AcDbEllipse
 10
210.000000000
 20
148.699784912
 30
0.000000000
 11
2.781030445
 21
0.000000000
 31
0.000000000
 40
0.577350269
 41
1.428899272
 42
1.712693381
  0
TEXT
  5
B2B
330
A02
100
AcDbEntity
  8
A_05_Cradle_Cradle_Lid
100
AcDbText
 10
210.000000000
 20
148.500000000
 30
0.000000000
 40
3.500000000
  1
Cradle_Lid  (black)
  7
STANDARD
 72
1
 11
210.000000000
 21
148.500000000
 31
0.000000000
100
AcDbText
  0
LINE
  5
B2C
330
A02
100
AcDbEntity
  8
V_05_Cradle_El_Stub_R_0
100
AcDbLine
 10
194.058219178
 20
158.260273973
 30
0.000000000
 11
233.750000000
 21
158.260273973
 31
0.000000000
  0
SPLINE
  5
B2D
330
A02
100
AcDbEntity
  8
V_05_Cradle_El_Stub_R_0
100
AcDbSpline
210
0
220
0
230
1
 70
8
 71
1
 72
17
 73
15
 74
0
 40
0.000000000
 40
0.000000000
 40
0.224399475
 40
0.448798951
 40
0.673198426
 40
0.897597901
 40
1.121997376
 40
1.346396852
 40
1.570796327
 40
1.795195802
 40
2.019595277
 40
2.243994753
 40
2.468394228
 40
2.692793703
 40
2.917193178
 40
3.141592654
 40
3.141592654
 10
233.750000000
 20
158.260273973
 30
0.000000000
 10
233.750000000
 20
158.015563526
 30
0.000000000
 10
233.750000000
 20
157.293702992
 30
0.000000000
 10
233.750000000
 20
156.130889469
 30
0.000000000
 10
233.750000000
 20
154.585431285
 30
0.000000000
 10
233.750000000
 20
152.734824166
 30
0.000000000
 10
233.750000000
 20
150.671865280
 30
0.000000000
 10
233.750000000
 20
148.500000000
 30
0.000000000
 10
233.750000000
 20
146.328134720
 30
0.000000000
 10
233.750000000
 20
144.265175834
 30
0.000000000
 10
233.750000000
 20
142.414568715
 30
0.000000000
 10
233.750000000
 20
140.869110531
 30
0.000000000
 10
233.750000000
 20
139.706297008
 30
0.000000000
 10
233.750000000
 20
138.984436474
 30
0.000000000
 10
233.750000000
 20
138.739726027
 30
0.000000000
  0
SPLINE
  5
B2E
330
A02
100
AcDbEntity
  8
V_05_Cradle_El_Stub_R_0
100
AcDbSpline
210
0
220
0
230
1
 70
8
 71
1
 72
17
 73
15
 74
0
 40
0.000000000
 40
0.000000000
 40
0.224399475
 40
0.448798951
 40
0.673198426
 40
0.897597901
 40
1.121997376
 40
1.346396852
 40
1.570796327
 40
1.795195802
 40
2.019595277
 40
2.243994753
 40
2.468394228
 40
2.692793703
 40
2.917193178
 40
3.141592654
 40
3.141592654
 10
194.058219178
 20
168.020547945
 30
0.000000000
 10
194.058219178
 20
167.531127053
 30
0.000000000
 10
194.058219178
 20
166.087405983
 30
0.000000000
 10
194.058219178
 20
163.761778939
 30
0.000000000
 10
194.058219178
 20
160.670862571
 30
0.000000000
 10
194.058219178
 20
156.969648332
 30
0.000000000
 10
194.058219178
 20
152.843730560
 30
0.000000000
 10
194.058219178
 20
148.500000000
 30
0.000000000
 10
194.058219178
 20
144.156269440
 30
0.000000000
 10
194.058219178
 20
140.030351668
 30
0.000000000
 10
194.058219178
 20
136.329137429
 30
0.000000000
 10
194.058219178
 20
133.238221061
 30
0.000000000
 10
194.058219178
 20
130.912594017
 30
0.000000000
 10
194.058219178
 20
129.468872947
 30
0.000000000
 10
194.058219178
 20
128.979452055
 30
0.000000000
  0
LINE
  5
B2F
330
A02
100
AcDbEntity
  8
V_05_Cradle_El_Stub_R_0
100
AcDbLine
 10
190.154109589
 20
168.020547945
 30
0.000000000
 11
194.058219178
 21
168.020547945
 31
0.000000000
  0
SPLINE
  5
B30
330
A02
100
AcDbEntity
  8
V_05_Cradle_El_Stub_R_0
100
AcDbSpline
210
0
220
0
230
1
 70
8
 71
1
 72
17
 73
15
 74
0
 40
0.000000000
 40
0.000000000
 40
0.224399475
 40
0.448798951
 40
0.673198426
 40
0.897597901
 40
1.121997376
 40
1.346396852
 40
1.570796327
 40
1.795195802
 40
2.019595277
 40
2.243994753
 40
2.468394228
 40
2.692793703
 40
2.917193178
 40
3.141592654
 40
3.141592654
 10
190.154109589
 20
168.020547945
 30
0.000000000
 10
190.154109589
 20
167.531127053
 30
0.000000000
 10
190.154109589
 20
166.087405983
 30
0.000000000
 10
190.154109589
 20
163.761778939
 30
0.000000000
 10
190.154109589
 20
160.670862571
 30
0.000000000
 10
190.154109589
 20
156.969648332
 30
0.000000000
 10
190.154109589
 20
152.843730560
 30
0.000000000
 10
190.154109589
 20
148.500000000
 30
0.000000000
 10
190.154109589
 20
144.156269440
 30
0.000000000
 10
190.154109589
 20
140.030351668
 30
0.000000000
 10
190.154109589
 20
136.329137429
 30
0.000000000
 10
190.154109589
 20
133.238221061
 30
0.000000000
 10
190.154109589
 20
130.912594017
 30
0.000000000
 10
190.154109589
 20
129.468872947
 30
0.000000000
 10
190.154109589
 20
128.979452055
 30
0.000000000
  0
LINE
  5
B31
330
A02
100
AcDbEntity
  8
V_05_Cradle_El_Stub_R_0
100
AcDbLine
 10
190.154109589
 20
138.739726027
 30
0.000000000
 11
186.250000000
 21
138.739726027
 31
0.000000000
  0
SPLINE
  5
B32
330
A02
100
AcDbEntity
  8
V_05_Cradle_El_Stub_R_0
100
AcDbSpline
210
0
220
0
230
1
 70
8
 71
1
 72
17
 73
15
 74
0
 40
0.000000000
 40
0.000000000
 40
0.224399475
 40
0.448798951
 40
0.673198426
 40
0.897597901
 40
1.121997376
 40
1.346396852
 40
1.570796327
 40
1.795195802
 40
2.019595277
 40
2.243994753
 40
2.468394228
 40
2.692793703
 40
2.917193178
 40
3.141592654
 40
3.141592654
 10
186.250000000
 20
138.739726027
 30
0.000000000
 10
186.250000000
 20
138.984436474
 30
0.000000000
 10
186.250000000
 20
139.706297008
 30
0.000000000
 10
186.250000000
 20
140.869110531
 30
0.000000000
 10
186.250000000
 20
142.414568715
 30
0.000000000
 10
186.250000000
 20
144.265175834
 30
0.000000000
 10
186.250000000
 20
146.328134720
 30
0.000000000
 10
186.250000000
 20
148.500000000
 30
0.000000000
 10
186.250000000
 20
150.671865280
 30
0.000000000
 10
186.250000000
 20
152.734824166
 30
0.000000000
 10
186.250000000
 20
154.585431285
 30
0.000000000
 10
186.250000000
 20
156.130889469
 30
0.000000000
 10
186.250000000
 20
157.293702992
 30
0.000000000
 10
186.250000000
 20
158.015563526
 30
0.000000000
 10
186.250000000
 20
158.260273973
 30
0.000000000
  0
LINE
  5
B33
330
A02
100
AcDbEntity
  8
V_05_Cradle_El_Stub_R_0
100
AcDbLine
 10
194.058219178
 20
138.739726027
 30
0.000000000
 11
233.750000000
 21
138.739726027
 31
0.000000000
  0
LINE
  5
B34
330
A02
100
AcDbEntity
  8
V_05_Cradle_El_Stub_R_0
100
AcDbLine
 10
190.154109589
 20
128.979452055
 30
0.000000000
 11
194.058219178
 21
128.979452055
 31
0.000000000
  0
LINE
  5
B35
330
A02
100
AcDbEntity
  8
V_05_Cradle_El_Stub_R_0
100
AcDbLine
 10
190.154109589
 20
158.260273973
 30
0.000000000
 11
186.250000000
 21
158.260273973
 31
0.000000000
  0
SPLINE
  5
B36
330
A02
100
AcDbEntity
  8
V_05_Cradle_El_Stub_R_1
100
AcDbSpline
210
0
220
0
230
1
 70
8
 71
1
 72
17
 73
15
 74
0
 40
0.000000000
 40
0.000000000
 40
0.112199738
 40
0.224399475
 40
0.336599213
 40
0.448798951
 40
0.560998688
 40
0.673198426
 40
0.785398163
 40
0.897597901
 40
1.009797639
 40
1.121997376
 40
1.234197114
 40
1.346396852
 40
1.458596589
 40
1.570796327
 40
1.570796327
 10
233.750000000
 20
148.500000000
 30
0.000000000
 10
233.750000000
 20
147.407196038
 30
0.000000000
 10
233.750000000
 20
146.328134720
 30
0.000000000
 10
233.750000000
 20
145.276385868
 30
0.000000000
 10
233.750000000
 20
144.265175834
 30
0.000000000
 10
233.750000000
 20
143.307221171
 30
0.000000000
 10
233.750000000
 20
142.414568715
 30
0.000000000
 10
233.750000000
 20
141.598444088
 30
0.000000000
 10
233.750000000
 20
140.869110531
 30
0.000000000
 10
233.750000000
 20
140.235739836
 30
0.000000000
 10
233.750000000
 20
139.706297008
 30
0.000000000
 10
233.750000000
 20
139.287440098
 30
0.000000000
 10
233.750000000
 20
138.984436474
 30
0.000000000
 10
233.750000000
 20
138.801096582
 30
0.000000000
 10
233.750000000
 20
138.739726027
 30
0.000000000
  0
SPLINE
  5
B37
330
A02
100
AcDbEntity
  8
V_05_Cradle_El_Stub_R_1
100
AcDbSpline
210
0
220
0
230
1
 70
8
 71
1
 72
17
 73
15
 74
0
 40
4.712388980
 40
4.712388980
 40
4.824588718
 40
4.936788456
 40
5.048988193
 40
5.161187931
 40
5.273387669
 40
5.385587406
 40
5.497787144
 40
5.609986881
 40
5.722186619
 40
5.834386357
 40
5.946586094
 40
6.058785832
 40
6.170985570
 40
6.283185307
 40
6.283185307
 10
233.750000000
 20
158.260273973
 30
0.000000000
 10
233.750000000
 20
158.198903418
 30
0.000000000
 10
233.750000000
 20
158.015563526
 30
0.000000000
 10
233.750000000
 20
157.712559902
 30
0.000000000
 10
233.750000000
 20
157.293702992
 30
0.000000000
 10
233.750000000
 20
156.764260164
 30
0.000000000
 10
233.750000000
 20
156.130889469
 30
0.000000000
 10
233.750000000
 20
155.401555912
 30
0.000000000
 10
233.750000000
 20
154.585431285
 30
0.000000000
 10
233.750000000
 20
153.692778829
 30
0.000000000
 10
233.750000000
 20
152.734824166
 30
0.000000000
 10
233.750000000
 20
151.723614132
 30
0.000000000
 10
233.750000000
 20
150.671865280
 30
0.000000000
 10
233.750000000
 20
149.592803962
 30
0.000000000
 10
233.750000000
 20
148.500000000
 30
0.000000000
  0
SPLINE
  5
B38
330
A02
100
AcDbEntity
  8
V_05_Cradle_El_Stub_R_1
100
AcDbSpline
210
0
220
0
230
1
 70
8
 71
1
 72
17
 73
15
 74
0
 40
0.000000000
 40
0.000000000
 40
0.112199738
 40
0.224399475
 40
0.336599213
 40
0.448798951
 40
0.560998688
 40
0.673198426
 40
0.785398163
 40
0.897597901
 40
1.009797639
 40
1.121997376
 40
1.234197114
 40
1.346396852
 40
1.458596589
 40
1.570796327
 40
1.570796327
 10
194.058219178
 20
148.500000000
 30
0.000000000
 10
194.058219178
 20
146.314392076
 30
0.000000000
 10
194.058219178
 20
144.156269440
 30
0.000000000
 10
194.058219178
 20
142.052771736
 30
0.000000000
 10
194.058219178
 20
140.030351668
 30
0.000000000
 10
194.058219178
 20
138.114442342
 30
0.000000000
 10
194.058219178
 20
136.329137429
 30
0.000000000
 10
194.058219178
 20
134.696888175
 30
0.000000000
 10
194.058219178
 20
133.238221061
 30
0.000000000
 10
194.058219178
 20
131.971479673
 30
0.000000000
 10
194.058219178
 20
130.912594017
 30
0.000000000
 10
194.058219178
 20
130.074880196
 30
0.000000000
 10
194.058219178
 20
129.468872947
 30
0.000000000
 10
194.058219178
 20
129.102193163
 30
0.000000000
 10
194.058219178
 20
128.979452055
 30
0.000000000
  0
SPLINE
  5
B39
330
A02
100
AcDbEntity
  8
V_05_Cradle_El_Stub_R_1
100
AcDbSpline
210
0
220
0
230
1
 70
8
 71
1
 72
17
 73
15
 74
0
 40
4.712388980
 40
4.712388980
 40
4.824588718
 40
4.936788456
 40
5.048988193
 40
5.161187931
 40
5.273387669
 40
5.385587406
 40
5.497787144
 40
5.609986881
 40
5.722186619
 40
5.834386357
 40
5.946586094
 40
6.058785832
 40
6.170985570
 40
6.283185307
 40
6.283185307
 10
194.058219178
 20
168.020547945
 30
0.000000000
 10
194.058219178
 20
167.897806837
 30
0.000000000
 10
194.058219178
 20
167.531127053
 30
0.000000000
 10
194.058219178
 20
166.925119804
 30
0.000000000
 10
194.058219178
 20
166.087405983
 30
0.000000000
 10
194.058219178
 20
165.028520327
 30
0.000000000
 10
194.058219178
 20
163.761778939
 30
0.000000000
 10
194.058219178
 20
162.303111825
 30
0.000000000
 10
194.058219178
 20
160.670862571
 30
0.000000000
 10
194.058219178
 20
158.885557658
 30
0.000000000
 10
194.058219178
 20
156.969648332
 30
0.000000000
 10
194.058219178
 20
154.947228264
 30
0.000000000
 10
194.058219178
 20
152.843730560
 30
0.000000000
 10
194.058219178
 20
150.685607924
 30
0.000000000
 10
194.058219178
 20
148.500000000
 30
0.000000000
  0
SPLINE
  5
B3A
330
A02
100
AcDbEntity
  8
V_05_Cradle_El_Stub_R_1
100
AcDbSpline
210
0
220
0
230
1
 70
8
 71
1
 72
17
 73
15
 74
0
 40
0.000000000
 40
0.000000000
 40
0.112199738
 40
0.224399475
 40
0.336599213
 40
0.448798951
 40
0.560998688
 40
0.673198426
 40
0.785398163
 40
0.897597901
 40
1.009797639
 40
1.121997376
 40
1.234197114
 40
1.346396852
 40
1.458596589
 40
1.570796327
 40
1.570796327
 10
190.154109589
 20
148.500000000
 30
0.000000000
 10
190.154109589
 20
146.314392076
 30
0.000000000
 10
190.154109589
 20
144.156269440
 30
0.000000000
 10
190.154109589
 20
142.052771736
 30
0.000000000
 10
190.154109589
 20
140.030351668
 30
0.000000000
 10
190.154109589
 20
138.114442342
 30
0.000000000
 10
190.154109589
 20
136.329137429
 30
0.000000000
 10
190.154109589
 20
134.696888175
 30
0.000000000
 10
190.154109589
 20
133.238221061
 30
0.000000000
 10
190.154109589
 20
131.971479673
 30
0.000000000
 10
190.154109589
 20
130.912594017
 30
0.000000000
 10
190.154109589
 20
130.074880196
 30
0.000000000
 10
190.154109589
 20
129.468872947
 30
0.000000000
 10
190.154109589
 20
129.102193163
 30
0.000000000
 10
190.154109589
 20
128.979452055
 30
0.000000000
  0
SPLINE
  5
B3B
330
A02
100
AcDbEntity
  8
V_05_Cradle_El_Stub_R_1
100
AcDbSpline
210
0
220
0
230
1
 70
8
 71
1
 72
17
 73
15
 74
0
 40
4.712388980
 40
4.712388980
 40
4.824588718
 40
4.936788456
 40
5.048988193
 40
5.161187931
 40
5.273387669
 40
5.385587406
 40
5.497787144
 40
5.609986881
 40
5.722186619
 40
5.834386357
 40
5.946586094
 40
6.058785832
 40
6.170985570
 40
6.283185307
 40
6.283185307
 10
190.154109589
 20
168.020547945
 30
0.000000000
 10
190.154109589
 20
167.897806837
 30
0.000000000
 10
190.154109589
 20
167.531127053
 30
0.000000000
 10
190.154109589
 20
166.925119804
 30
0.000000000
 10
190.154109589
 20
166.087405983
 30
0.000000000
 10
190.154109589
 20
165.028520327
 30
0.000000000
 10
190.154109589
 20
163.761778939
 30
0.000000000
 10
190.154109589
 20
162.303111825
 30
0.000000000
 10
190.154109589
 20
160.670862571
 30
0.000000000
 10
190.154109589
 20
158.885557658
 30
0.000000000
 10
190.154109589
 20
156.969648332
 30
0.000000000
 10
190.154109589
 20
154.947228264
 30
0.000000000
 10
190.154109589
 20
152.843730560
 30
0.000000000
 10
190.154109589
 20
150.685607924
 30
0.000000000
 10
190.154109589
 20
148.500000000
 30
0.000000000
  0
SPLINE
  5
B3C
330
A02
100
AcDbEntity
  8
V_05_Cradle_El_Stub_R_1
100
AcDbSpline
210
0
220
0
230
1
 70
8
 71
1
 72
17
 73
15
 74
0
 40
1.570796327
 40
1.570796327
 40
1.795195802
 40
2.019595277
 40
2.243994753
 40
2.468394228
 40
2.692793703
 40
2.917193178
 40
3.141592654
 40
3.365992129
 40
3.590391604
 40
3.814791079
 40
4.039190555
 40
4.263590030
 40
4.487989505
 40
4.712388980
 40
4.712388980
 10
186.250000000
 20
138.739726027
 30
0.000000000
 10
186.250000000
 20
138.984436474
 30
0.000000000
 10
186.250000000
 20
139.706297008
 30
0.000000000
 10
186.250000000
 20
140.869110531
 30
0.000000000
 10
186.250000000
 20
142.414568715
 30
0.000000000
 10
186.250000000
 20
144.265175834
 30
0.000000000
 10
186.250000000
 20
146.328134720
 30
0.000000000
 10
186.250000000
 20
148.500000000
 30
0.000000000
 10
186.250000000
 20
150.671865280
 30
0.000000000
 10
186.250000000
 20
152.734824166
 30
0.000000000
 10
186.250000000
 20
154.585431285
 30
0.000000000
 10
186.250000000
 20
156.130889469
 30
0.000000000
 10
186.250000000
 20
157.293702992
 30
0.000000000
 10
186.250000000
 20
158.015563526
 30
0.000000000
 10
186.250000000
 20
158.260273973
 30
0.000000000
  0
LINE
  5
B3D
330
A02
100
AcDbEntity
  8
V_05_Cradle_El_Stub_R_1
100
AcDbLine
 10
194.058219178
 20
138.739726027
 30
0.000000000
 11
233.750000000
 21
138.739726027
 31
0.000000000
  0
LINE
  5
B3E
330
A02
100
AcDbEntity
  8
V_05_Cradle_El_Stub_R_1
100
AcDbLine
 10
194.058219178
 20
158.260273973
 30
0.000000000
 11
233.750000000
 21
158.260273973
 31
0.000000000
  0
LINE
  5
B3F
330
A02
100
AcDbEntity
  8
V_05_Cradle_El_Stub_R_1
100
AcDbLine
 10
190.154109589
 20
128.979452055
 30
0.000000000
 11
194.058219178
 21
128.979452055
 31
0.000000000
  0
LINE
  5
B40
330
A02
100
AcDbEntity
  8
V_05_Cradle_El_Stub_R_1
100
AcDbLine
 10
190.154109589
 20
168.020547945
 30
0.000000000
 11
194.058219178
 21
168.020547945
 31
0.000000000
  0
LINE
  5
B41
330
A02
100
AcDbEntity
  8
V_05_Cradle_El_Stub_R_1
100
AcDbLine
 10
190.154109589
 20
158.260273973
 30
0.000000000
 11
186.250000000
 21
158.260273973
 31
0.000000000
  0
LINE
  5
B42
330
A02
100
AcDbEntity
  8
V_05_Cradle_El_Stub_R_1
100
AcDbLine
 10
190.154109589
 20
138.739726027
 30
0.000000000
 11
186.250000000
 21
138.739726027
 31
0.000000000
  0
CIRCLE
  5
B43
330
A02
100
AcDbEntity
  8
V_05_Cradle_El_Stub_R_2
100
AcDbCircle
 10
210.000000000
 20
148.500000000
 30
0.000000000
 40
9.760273973
  0
CIRCLE
  5
B44
330
A02
100
AcDbEntity
  8
V_05_Cradle_El_Stub_R_2
100
AcDbCircle
 10
210.000000000
 20
148.500000000
 30
0.000000000
 40
19.520547945
  0
CIRCLE
  5
B45
330
A02
100
AcDbEntity
  8
V_05_Cradle_El_Stub_R_2
100
AcDbCircle
 10
219.202074550
 20
139.297925450
 30
0.000000000
 40
2.667808219
  0
CIRCLE
  5
B46
330
A02
100
AcDbEntity
  8
V_05_Cradle_El_Stub_R_2
100
AcDbCircle
 10
219.202074550
 20
157.702074550
 30
0.000000000
 40
2.667808219
  0
CIRCLE
  5
B47
330
A02
100
AcDbEntity
  8
V_05_Cradle_El_Stub_R_2
100
AcDbCircle
 10
200.797925450
 20
139.297925450
 30
0.000000000
 40
2.667808219
  0
CIRCLE
  5
B48
330
A02
100
AcDbEntity
  8
V_05_Cradle_El_Stub_R_2
100
AcDbCircle
 10
200.797925450
 20
157.702074550
 30
0.000000000
 40
2.667808219
  0
CIRCLE
  5
B49
330
A02
100
AcDbEntity
  8
V_05_Cradle_El_Stub_R_2
100
AcDbCircle
 10
219.202074550
 20
139.297925450
 30
0.000000000
 40
1.464041096
  0
CIRCLE
  5
B4A
330
A02
100
AcDbEntity
  8
V_05_Cradle_El_Stub_R_2
100
AcDbCircle
 10
219.202074550
 20
157.702074550
 30
0.000000000
 40
1.464041096
  0
CIRCLE
  5
B4B
330
A02
100
AcDbEntity
  8
V_05_Cradle_El_Stub_R_2
100
AcDbCircle
 10
200.797925450
 20
139.297925450
 30
0.000000000
 40
1.464041096
  0
CIRCLE
  5
B4C
330
A02
100
AcDbEntity
  8
V_05_Cradle_El_Stub_R_2
100
AcDbCircle
 10
200.797925450
 20
157.702074550
 30
0.000000000
 40
1.464041096
  0
ELLIPSE
  5
B4D
330
A02
100
AcDbEntity
  8
V_05_Cradle_El_Stub_R_3
100
AcDbEllipse
 10
200.797925450
 20
151.350192615
 30
0.000000000
 11
-4.880136986
 21
-8.452645208
 31
0.000000000
 40
0.577350269
 41
3.926990817
 42
0.000000000
  0
ELLIPSE
  5
B4E
330
A02
100
AcDbEntity
  8
V_05_Cradle_El_Stub_R_3
100
AcDbEllipse
 10
200.797925450
 20
151.350192615
 30
0.000000000
 11
-4.880136986
 21
-8.452645208
 31
0.000000000
 40
0.577350269
 41
3.141592654
 42
3.926990817
  0
ELLIPSE
  5
B4F
330
A02
100
AcDbEntity
  8
V_05_Cradle_El_Stub_R_3
100
AcDbEllipse
 10
228.864252827
 20
135.146090949
 30
0.000000000
 11
-4.880136986
 21
-8.452645208
 31
0.000000000
 40
0.577350269
 41
3.926990817
 42
0.000000000
  0
ELLIPSE
  5
B50
330
A02
100
AcDbEntity
  8
V_05_Cradle_El_Stub_R_3
100
AcDbEllipse
 10
228.864252827
 20
135.146090949
 30
0.000000000
 11
-4.880136986
 21
-8.452645208
 31
0.000000000
 40
0.577350269
 41
0.000000000
 42
3.141592654
  0
ELLIPSE
  5
B51
330
A02
100
AcDbEntity
  8
V_05_Cradle_El_Stub_R_3
100
AcDbEllipse
 10
228.864252827
 20
135.146090949
 30
0.000000000
 11
-4.880136986
 21
-8.452645208
 31
0.000000000
 40
0.577350269
 41
3.141592654
 42
3.926990817
  0
ELLIPSE
  5
B52
330
A02
100
AcDbEntity
  8
V_05_Cradle_El_Stub_R_3
100
AcDbEllipse
 10
200.797925450
 20
151.350192615
 30
0.000000000
 11
-9.760273973
 21
-16.905290416
 31
0.000000000
 40
0.577350269
 41
3.926990817
 42
0.000000000
  0
ELLIPSE
  5
B53
330
A02
100
AcDbEntity
  8
V_05_Cradle_El_Stub_R_3
100
AcDbEllipse
 10
200.797925450
 20
151.350192615
 30
0.000000000
 11
-9.760273973
 21
-16.905290416
 31
0.000000000
 40
0.577350269
 41
0.000000000
 42
1.047197551
  0
ELLIPSE
  5
B54
330
A02
100
AcDbEntity
  8
V_05_Cradle_El_Stub_R_3
100
AcDbEllipse
 10
200.797925450
 20
151.350192615
 30
0.000000000
 11
-9.760273973
 21
-16.905290416
 31
0.000000000
 40
0.577350269
 41
2.094395102
 42
3.141592654
  0
ELLIPSE
  5
B55
330
A02
100
AcDbEntity
  8
V_05_Cradle_El_Stub_R_3
100
AcDbEllipse
 10
200.797925450
 20
151.350192615
 30
0.000000000
 11
-9.760273973
 21
-16.905290416
 31
0.000000000
 40
0.577350269
 41
3.141592654
 42
3.926990817
  0
ELLIPSE
  5
B56
330
A02
100
AcDbEntity
  8
V_05_Cradle_El_Stub_R_3
100
AcDbEllipse
 10
207.304774765
 20
162.620386226
 30
0.000000000
 11
1.333904110
 21
2.310389690
 31
0.000000000
 40
0.577350269
 41
-3.141592654
 42
-2.356194490
  0
ELLIPSE
  5
B57
330
A02
100
AcDbEntity
  8
V_05_Cradle_El_Stub_R_3
100
AcDbEllipse
 10
207.304774765
 20
162.620386226
 30
0.000000000
 11
1.333904110
 21
2.310389690
 31
0.000000000
 40
0.577350269
 41
-0.000000000
 42
-3.141592654
  0
ELLIPSE
  5
B58
330
A02
100
AcDbEntity
  8
V_05_Cradle_El_Stub_R_3
100
AcDbEllipse
 10
207.304774765
 20
162.620386226
 30
0.000000000
 11
1.333904110
 21
2.310389690
 31
0.000000000
 40
0.577350269
 41
-2.356194490
 42
-0.000000000
  0
ELLIPSE
  5
B59
330
A02
100
AcDbEntity
  8
V_05_Cradle_El_Stub_R_3
100
AcDbEllipse
 10
194.291076135
 20
140.079999004
 30
0.000000000
 11
1.333904110
 21
2.310389690
 31
0.000000000
 40
0.577350269
 41
-3.141592654
 42
-2.356194490
  0
ELLIPSE
  5
B5A
330
A02
100
AcDbEntity
  8
V_05_Cradle_El_Stub_R_3
100
AcDbEllipse
 10
194.291076135
 20
140.079999004
 30
0.000000000
 11
1.333904110
 21
2.310389690
 31
0.000000000
 40
0.577350269
 41
-0.000000000
 42
-3.141592654
  0
ELLIPSE
  5
B5B
330
A02
100
AcDbEntity
  8
V_05_Cradle_El_Stub_R_3
100
AcDbEllipse
 10
194.291076135
 20
140.079999004
 30
0.000000000
 11
1.333904110
 21
2.310389690
 31
0.000000000
 40
0.577350269
 41
-2.356194490
 42
-0.000000000
  0
ELLIPSE
  5
B5C
330
A02
100
AcDbEntity
  8
V_05_Cradle_El_Stub_R_3
100
AcDbEllipse
 10
194.291076135
 20
155.106923819
 30
0.000000000
 11
1.333904110
 21
2.310389690
 31
0.000000000
 40
0.577350269
 41
-3.141592654
 42
-2.356194490
  0
ELLIPSE
  5
B5D
330
A02
100
AcDbEntity
  8
V_05_Cradle_El_Stub_R_3
100
AcDbEllipse
 10
194.291076135
 20
155.106923819
 30
0.000000000
 11
1.333904110
 21
2.310389690
 31
0.000000000
 40
0.577350269
 41
-0.000000000
 42
-3.141592654
  0
ELLIPSE
  5
B5E
330
A02
100
AcDbEntity
  8
V_05_Cradle_El_Stub_R_3
100
AcDbEllipse
 10
194.291076135
 20
155.106923819
 30
0.000000000
 11
1.333904110
 21
2.310389690
 31
0.000000000
 40
0.577350269
 41
-2.356194490
 42
-0.000000000
  0
ELLIPSE
  5
B5F
330
A02
100
AcDbEntity
  8
V_05_Cradle_El_Stub_R_3
100
AcDbEllipse
 10
198.037303085
 20
152.944038681
 30
0.000000000
 11
-9.760273973
 21
-16.905290416
 31
0.000000000
 40
0.577350269
 41
3.926990817
 42
0.000000000
  0
ELLIPSE
  5
B60
330
A02
100
AcDbEntity
  8
V_05_Cradle_El_Stub_R_3
100
AcDbEllipse
 10
198.037303085
 20
152.944038681
 30
0.000000000
 11
-9.760273973
 21
-16.905290416
 31
0.000000000
 40
0.577350269
 41
3.141592654
 42
3.926990817
  0
ELLIPSE
  5
B61
330
A02
100
AcDbEntity
  8
V_05_Cradle_El_Stub_R_3
100
AcDbEllipse
 10
205.229706954
 20
163.818427185
 30
0.000000000
 11
1.333904110
 21
2.310389690
 31
0.000000000
 40
0.577350269
 41
-2.250407010
 42
-0.891185643
  0
ELLIPSE
  5
B62
330
A02
100
AcDbEntity
  8
V_05_Cradle_El_Stub_R_3
100
AcDbEllipse
 10
192.216008324
 20
141.278039963
 30
0.000000000
 11
1.333904110
 21
2.310389690
 31
0.000000000
 40
0.577350269
 41
-2.250407010
 42
-0.891185643
  0
ELLIPSE
  5
B63
330
A02
100
AcDbEntity
  8
V_05_Cradle_El_Stub_R_3
100
AcDbEllipse
 10
192.216008324
 20
156.304964778
 30
0.000000000
 11
1.333904110
 21
2.310389690
 31
0.000000000
 40
0.577350269
 41
-2.250407010
 42
-0.891185643
  0
LINE
  5
B64
330
A02
100
AcDbEntity
  8
V_05_Cradle_El_Stub_R_3
100
AcDbLine
 10
195.917788464
 20
142.897547407
 30
0.000000000
 11
223.984115841
 21
126.693445741
 31
0.000000000
  0
LINE
  5
B65
330
A02
100
AcDbEntity
  8
V_05_Cradle_El_Stub_R_3
100
AcDbLine
 10
205.678062437
 20
159.802837823
 30
0.000000000
 11
233.744389813
 21
143.598736157
 31
0.000000000
  0
LINE
  5
B66
330
A02
100
AcDbEntity
  8
V_05_Cradle_El_Stub_R_3
100
AcDbLine
 10
188.277029113
 20
136.038748264
 30
0.000000000
 11
191.037651478
 21
134.444902199
 31
0.000000000
  0
LINE
  5
B67
330
A02
100
AcDbEntity
  8
V_05_Cradle_El_Stub_R_3
100
AcDbLine
 10
207.797577058
 20
169.849329097
 30
0.000000000
 11
210.558199423
 21
168.255483031
 31
0.000000000
  0
TEXT
  5
B68
330
A02
100
AcDbEntity
  8
A_05_Cradle_El_Stub_R
100
AcDbText
 10
210.000000000
 20
148.500000000
 30
0.000000000
 40
3.500000000
  1
El_Stub_R  (black)
  7
STANDARD
 72
1
 11
210.000000000
 21
148.500000000
 31
0.000000000
100
AcDbText
  0
SPLINE
  5
B69
330
A02
100
AcDbEntity
  8
V_05_Cradle_El_Stub_L_0
100
AcDbSpline
210
0
220
0
230
1
 70
8
 71
1
 72
17
 73
15
 74
0
 40
0.000000000
 40
0.000000000
 40
0.224399475
 40
0.448798951
 40
0.673198426
 40
0.897597901
 40
1.121997376
 40
1.346396852
 40
1.570796327
 40
1.795195802
 40
2.019595277
 40
2.243994753
 40
2.468394228
 40
2.692793703
 40
2.917193178
 40
3.141592654
 40
3.141592654
 10
229.845890411
 20
128.979452055
 30
0.000000000
 10
229.845890411
 20
129.468872947
 30
0.000000000
 10
229.845890411
 20
130.912594017
 30
0.000000000
 10
229.845890411
 20
133.238221061
 30
0.000000000
 10
229.845890411
 20
136.329137429
 30
0.000000000
 10
229.845890411
 20
140.030351668
 30
0.000000000
 10
229.845890411
 20
144.156269440
 30
0.000000000
 10
229.845890411
 20
148.500000000
 30
0.000000000
 10
229.845890411
 20
152.843730560
 30
0.000000000
 10
229.845890411
 20
156.969648332
 30
0.000000000
 10
229.845890411
 20
160.670862571
 30
0.000000000
 10
229.845890411
 20
163.761778939
 30
0.000000000
 10
229.845890411
 20
166.087405983
 30
0.000000000
 10
229.845890411
 20
167.531127053
 30
0.000000000
 10
229.845890411
 20
168.020547945
 30
0.000000000
  0
SPLINE
  5
B6A
330
A02
100
AcDbEntity
  8
V_05_Cradle_El_Stub_L_0
100
AcDbSpline
210
0
220
0
230
1
 70
8
 71
1
 72
17
 73
15
 74
0
 40
0.000000000
 40
0.000000000
 40
0.224399475
 40
0.448798951
 40
0.673198426
 40
0.897597901
 40
1.121997376
 40
1.346396852
 40
1.570796327
 40
1.795195802
 40
2.019595277
 40
2.243994753
 40
2.468394228
 40
2.692793703
 40
2.917193178
 40
3.141592654
 40
3.141592654
 10
225.941780822
 20
128.979452055
 30
0.000000000
 10
225.941780822
 20
129.468872947
 30
0.000000000
 10
225.941780822
 20
130.912594017
 30
0.000000000
 10
225.941780822
 20
133.238221061
 30
0.000000000
 10
225.941780822
 20
136.329137429
 30
0.000000000
 10
225.941780822
 20
140.030351668
 30
0.000000000
 10
225.941780822
 20
144.156269440
 30
0.000000000
 10
225.941780822
 20
148.500000000
 30
0.000000000
 10
225.941780822
 20
152.843730560
 30
0.000000000
 10
225.941780822
 20
156.969648332
 30
0.000000000
 10
225.941780822
 20
160.670862571
 30
0.000000000
 10
225.941780822
 20
163.761778939
 30
0.000000000
 10
225.941780822
 20
166.087405983
 30
0.000000000
 10
225.941780822
 20
167.531127053
 30
0.000000000
 10
225.941780822
 20
168.020547945
 30
0.000000000
  0
LINE
  5
B6B
330
A02
100
AcDbEntity
  8
V_05_Cradle_El_Stub_L_0
100
AcDbLine
 10
229.845890411
 20
128.979452055
 30
0.000000000
 11
225.941780822
 21
128.979452055
 31
0.000000000
  0
SPLINE
  5
B6C
330
A02
100
AcDbEntity
  8
V_05_Cradle_El_Stub_L_0
100
AcDbSpline
210
0
220
0
230
1
 70
8
 71
1
 72
17
 73
15
 74
0
 40
0.000000000
 40
0.000000000
 40
0.224399475
 40
0.448798951
 40
0.673198426
 40
0.897597901
 40
1.121997376
 40
1.346396852
 40
1.570796327
 40
1.795195802
 40
2.019595277
 40
2.243994753
 40
2.468394228
 40
2.692793703
 40
2.917193178
 40
3.141592654
 40
3.141592654
 10
233.750000000
 20
158.260273973
 30
0.000000000
 10
233.750000000
 20
158.015563526
 30
0.000000000
 10
233.750000000
 20
157.293702992
 30
0.000000000
 10
233.750000000
 20
156.130889469
 30
0.000000000
 10
233.750000000
 20
154.585431285
 30
0.000000000
 10
233.750000000
 20
152.734824166
 30
0.000000000
 10
233.750000000
 20
150.671865280
 30
0.000000000
 10
233.750000000
 20
148.500000000
 30
0.000000000
 10
233.750000000
 20
146.328134720
 30
0.000000000
 10
233.750000000
 20
144.265175834
 30
0.000000000
 10
233.750000000
 20
142.414568715
 30
0.000000000
 10
233.750000000
 20
140.869110531
 30
0.000000000
 10
233.750000000
 20
139.706297008
 30
0.000000000
 10
233.750000000
 20
138.984436474
 30
0.000000000
 10
233.750000000
 20
138.739726027
 30
0.000000000
  0
LINE
  5
B6D
330
A02
100
AcDbEntity
  8
V_05_Cradle_El_Stub_L_0
100
AcDbLine
 10
229.845890411
 20
158.260273973
 30
0.000000000
 11
233.750000000
 21
158.260273973
 31
0.000000000
  0
LINE
  5
B6E
330
A02
100
AcDbEntity
  8
V_05_Cradle_El_Stub_L_0
100
AcDbLine
 10
186.250000000
 20
158.260273973
 30
0.000000000
 11
225.941780822
 21
158.260273973
 31
0.000000000
  0
SPLINE
  5
B6F
330
A02
100
AcDbEntity
  8
V_05_Cradle_El_Stub_L_0
100
AcDbSpline
210
0
220
0
230
1
 70
8
 71
1
 72
17
 73
15
 74
0
 40
0.000000000
 40
0.000000000
 40
0.224399475
 40
0.448798951
 40
0.673198426
 40
0.897597901
 40
1.121997376
 40
1.346396852
 40
1.570796327
 40
1.795195802
 40
2.019595277
 40
2.243994753
 40
2.468394228
 40
2.692793703
 40
2.917193178
 40
3.141592654
 40
3.141592654
 10
186.250000000
 20
158.260273973
 30
0.000000000
 10
186.250000000
 20
158.015563526
 30
0.000000000
 10
186.250000000
 20
157.293702992
 30
0.000000000
 10
186.250000000
 20
156.130889469
 30
0.000000000
 10
186.250000000
 20
154.585431285
 30
0.000000000
 10
186.250000000
 20
152.734824166
 30
0.000000000
 10
186.250000000
 20
150.671865280
 30
0.000000000
 10
186.250000000
 20
148.500000000
 30
0.000000000
 10
186.250000000
 20
146.328134720
 30
0.000000000
 10
186.250000000
 20
144.265175834
 30
0.000000000
 10
186.250000000
 20
142.414568715
 30
0.000000000
 10
186.250000000
 20
140.869110531
 30
0.000000000
 10
186.250000000
 20
139.706297008
 30
0.000000000
 10
186.250000000
 20
138.984436474
 30
0.000000000
 10
186.250000000
 20
138.739726027
 30
0.000000000
  0
LINE
  5
B70
330
A02
100
AcDbEntity
  8
V_05_Cradle_El_Stub_L_0
100
AcDbLine
 10
229.845890411
 20
168.020547945
 30
0.000000000
 11
225.941780822
 21
168.020547945
 31
0.000000000
  0
LINE
  5
B71
330
A02
100
AcDbEntity
  8
V_05_Cradle_El_Stub_L_0
100
AcDbLine
 10
229.845890411
 20
138.739726027
 30
0.000000000
 11
233.750000000
 21
138.739726027
 31
0.000000000
  0
LINE
  5
B72
330
A02
100
AcDbEntity
  8
V_05_Cradle_El_Stub_L_0
100
AcDbLine
 10
186.250000000
 20
138.739726027
 30
0.000000000
 11
225.941780822
 21
138.739726027
 31
0.000000000
  0
SPLINE
  5
B73
330
A02
100
AcDbEntity
  8
V_05_Cradle_El_Stub_L_1
100
AcDbSpline
210
0
220
0
230
1
 70
8
 71
1
 72
17
 73
15
 74
0
 40
1.570796327
 40
1.570796327
 40
1.795195802
 40
2.019595277
 40
2.243994753
 40
2.468394228
 40
2.692793703
 40
2.917193178
 40
3.141592654
 40
3.365992129
 40
3.590391604
 40
3.814791079
 40
4.039190555
 40
4.263590030
 40
4.487989505
 40
4.712388980
 40
4.712388980
 10
229.845890411
 20
128.979452055
 30
0.000000000
 10
229.845890411
 20
129.468872947
 30
0.000000000
 10
229.845890411
 20
130.912594017
 30
0.000000000
 10
229.845890411
 20
133.238221061
 30
0.000000000
 10
229.845890411
 20
136.329137429
 30
0.000000000
 10
229.845890411
 20
140.030351668
 30
0.000000000
 10
229.845890411
 20
144.156269440
 30
0.000000000
 10
229.845890411
 20
148.500000000
 30
0.000000000
 10
229.845890411
 20
152.843730560
 30
0.000000000
 10
229.845890411
 20
156.969648332
 30
0.000000000
 10
229.845890411
 20
160.670862571
 30
0.000000000
 10
229.845890411
 20
163.761778939
 30
0.000000000
 10
229.845890411
 20
166.087405983
 30
0.000000000
 10
229.845890411
 20
167.531127053
 30
0.000000000
 10
229.845890411
 20
168.020547945
 30
0.000000000
  0
SPLINE
  5
B74
330
A02
100
AcDbEntity
  8
V_05_Cradle_El_Stub_L_1
100
AcDbSpline
210
0
220
0
230
1
 70
8
 71
1
 72
17
 73
15
 74
0
 40
1.570796327
 40
1.570796327
 40
1.795195802
 40
2.019595277
 40
2.243994753
 40
2.468394228
 40
2.692793703
 40
2.917193178
 40
3.141592654
 40
3.365992129
 40
3.590391604
 40
3.814791079
 40
4.039190555
 40
4.263590030
 40
4.487989505
 40
4.712388980
 40
4.712388980
 10
225.941780822
 20
128.979452055
 30
0.000000000
 10
225.941780822
 20
129.468872947
 30
0.000000000
 10
225.941780822
 20
130.912594017
 30
0.000000000
 10
225.941780822
 20
133.238221061
 30
0.000000000
 10
225.941780822
 20
136.329137429
 30
0.000000000
 10
225.941780822
 20
140.030351668
 30
0.000000000
 10
225.941780822
 20
144.156269440
 30
0.000000000
 10
225.941780822
 20
148.500000000
 30
0.000000000
 10
225.941780822
 20
152.843730560
 30
0.000000000
 10
225.941780822
 20
156.969648332
 30
0.000000000
 10
225.941780822
 20
160.670862571
 30
0.000000000
 10
225.941780822
 20
163.761778939
 30
0.000000000
 10
225.941780822
 20
166.087405983
 30
0.000000000
 10
225.941780822
 20
167.531127053
 30
0.000000000
 10
225.941780822
 20
168.020547945
 30
0.000000000
  0
SPLINE
  5
B75
330
A02
100
AcDbEntity
  8
V_05_Cradle_El_Stub_L_1
100
AcDbSpline
210
0
220
0
230
1
 70
8
 71
1
 72
17
 73
15
 74
0
 40
0.000000000
 40
0.000000000
 40
0.112199738
 40
0.224399475
 40
0.336599213
 40
0.448798951
 40
0.560998688
 40
0.673198426
 40
0.785398163
 40
0.897597901
 40
1.009797639
 40
1.121997376
 40
1.234197114
 40
1.346396852
 40
1.458596589
 40
1.570796327
 40
1.570796327
 10
233.750000000
 20
148.500000000
 30
0.000000000
 10
233.750000000
 20
147.407196038
 30
0.000000000
 10
233.750000000
 20
146.328134720
 30
0.000000000
 10
233.750000000
 20
145.276385868
 30
0.000000000
 10
233.750000000
 20
144.265175834
 30
0.000000000
 10
233.750000000
 20
143.307221171
 30
0.000000000
 10
233.750000000
 20
142.414568715
 30
0.000000000
 10
233.750000000
 20
141.598444088
 30
0.000000000
 10
233.750000000
 20
140.869110531
 30
0.000000000
 10
233.750000000
 20
140.235739836
 30
0.000000000
 10
233.750000000
 20
139.706297008
 30
0.000000000
 10
233.750000000
 20
139.287440098
 30
0.000000000
 10
233.750000000
 20
138.984436474
 30
0.000000000
 10
233.750000000
 20
138.801096582
 30
0.000000000
 10
233.750000000
 20
138.739726027
 30
0.000000000
  0
SPLINE
  5
B76
330
A02
100
AcDbEntity
  8
V_05_Cradle_El_Stub_L_1
100
AcDbSpline
210
0
220
0
230
1
 70
8
 71
1
 72
17
 73
15
 74
0
 40
4.712388980
 40
4.712388980
 40
4.824588718
 40
4.936788456
 40
5.048988193
 40
5.161187931
 40
5.273387669
 40
5.385587406
 40
5.497787144
 40
5.609986881
 40
5.722186619
 40
5.834386357
 40
5.946586094
 40
6.058785832
 40
6.170985570
 40
6.283185307
 40
6.283185307
 10
233.750000000
 20
158.260273973
 30
0.000000000
 10
233.750000000
 20
158.198903418
 30
0.000000000
 10
233.750000000
 20
158.015563526
 30
0.000000000
 10
233.750000000
 20
157.712559902
 30
0.000000000
 10
233.750000000
 20
157.293702992
 30
0.000000000
 10
233.750000000
 20
156.764260164
 30
0.000000000
 10
233.750000000
 20
156.130889469
 30
0.000000000
 10
233.750000000
 20
155.401555912
 30
0.000000000
 10
233.750000000
 20
154.585431285
 30
0.000000000
 10
233.750000000
 20
153.692778829
 30
0.000000000
 10
233.750000000
 20
152.734824166
 30
0.000000000
 10
233.750000000
 20
151.723614132
 30
0.000000000
 10
233.750000000
 20
150.671865280
 30
0.000000000
 10
233.750000000
 20
149.592803962
 30
0.000000000
 10
233.750000000
 20
148.500000000
 30
0.000000000
  0
SPLINE
  5
B77
330
A02
100
AcDbEntity
  8
V_05_Cradle_El_Stub_L_1
100
AcDbSpline
210
0
220
0
230
1
 70
8
 71
1
 72
17
 73
15
 74
0
 40
0.000000000
 40
0.000000000
 40
0.112199738
 40
0.224399475
 40
0.336599213
 40
0.448798951
 40
0.560998688
 40
0.673198426
 40
0.785398163
 40
0.897597901
 40
1.009797639
 40
1.121997376
 40
1.234197114
 40
1.346396852
 40
1.458596589
 40
1.570796327
 40
1.570796327
 10
186.250000000
 20
148.500000000
 30
0.000000000
 10
186.250000000
 20
147.407196038
 30
0.000000000
 10
186.250000000
 20
146.328134720
 30
0.000000000
 10
186.250000000
 20
145.276385868
 30
0.000000000
 10
186.250000000
 20
144.265175834
 30
0.000000000
 10
186.250000000
 20
143.307221171
 30
0.000000000
 10
186.250000000
 20
142.414568715
 30
0.000000000
 10
186.250000000
 20
141.598444088
 30
0.000000000
 10
186.250000000
 20
140.869110531
 30
0.000000000
 10
186.250000000
 20
140.235739836
 30
0.000000000
 10
186.250000000
 20
139.706297008
 30
0.000000000
 10
186.250000000
 20
139.287440098
 30
0.000000000
 10
186.250000000
 20
138.984436474
 30
0.000000000
 10
186.250000000
 20
138.801096582
 30
0.000000000
 10
186.250000000
 20
138.739726027
 30
0.000000000
  0
SPLINE
  5
B78
330
A02
100
AcDbEntity
  8
V_05_Cradle_El_Stub_L_1
100
AcDbSpline
210
0
220
0
230
1
 70
8
 71
1
 72
17
 73
15
 74
0
 40
4.712388980
 40
4.712388980
 40
4.824588718
 40
4.936788456
 40
5.048988193
 40
5.161187931
 40
5.273387669
 40
5.385587406
 40
5.497787144
 40
5.609986881
 40
5.722186619
 40
5.834386357
 40
5.946586094
 40
6.058785832
 40
6.170985570
 40
6.283185307
 40
6.283185307
 10
186.250000000
 20
158.260273973
 30
0.000000000
 10
186.250000000
 20
158.198903418
 30
0.000000000
 10
186.250000000
 20
158.015563526
 30
0.000000000
 10
186.250000000
 20
157.712559902
 30
0.000000000
 10
186.250000000
 20
157.293702992
 30
0.000000000
 10
186.250000000
 20
156.764260164
 30
0.000000000
 10
186.250000000
 20
156.130889469
 30
0.000000000
 10
186.250000000
 20
155.401555912
 30
0.000000000
 10
186.250000000
 20
154.585431285
 30
0.000000000
 10
186.250000000
 20
153.692778829
 30
0.000000000
 10
186.250000000
 20
152.734824166
 30
0.000000000
 10
186.250000000
 20
151.723614132
 30
0.000000000
 10
186.250000000
 20
150.671865280
 30
0.000000000
 10
186.250000000
 20
149.592803962
 30
0.000000000
 10
186.250000000
 20
148.500000000
 30
0.000000000
  0
LINE
  5
B79
330
A02
100
AcDbEntity
  8
V_05_Cradle_El_Stub_L_1
100
AcDbLine
 10
229.845890411
 20
168.020547945
 30
0.000000000
 11
225.941780822
 21
168.020547945
 31
0.000000000
  0
LINE
  5
B7A
330
A02
100
AcDbEntity
  8
V_05_Cradle_El_Stub_L_1
100
AcDbLine
 10
229.845890411
 20
128.979452055
 30
0.000000000
 11
225.941780822
 21
128.979452055
 31
0.000000000
  0
LINE
  5
B7B
330
A02
100
AcDbEntity
  8
V_05_Cradle_El_Stub_L_1
100
AcDbLine
 10
229.845890411
 20
138.739726027
 30
0.000000000
 11
233.750000000
 21
138.739726027
 31
0.000000000
  0
LINE
  5
B7C
330
A02
100
AcDbEntity
  8
V_05_Cradle_El_Stub_L_1
100
AcDbLine
 10
229.845890411
 20
158.260273973
 30
0.000000000
 11
233.750000000
 21
158.260273973
 31
0.000000000
  0
LINE
  5
B7D
330
A02
100
AcDbEntity
  8
V_05_Cradle_El_Stub_L_1
100
AcDbLine
 10
186.250000000
 20
138.739726027
 30
0.000000000
 11
225.941780822
 21
138.739726027
 31
0.000000000
  0
LINE
  5
B7E
330
A02
100
AcDbEntity
  8
V_05_Cradle_El_Stub_L_1
100
AcDbLine
 10
186.250000000
 20
158.260273973
 30
0.000000000
 11
225.941780822
 21
158.260273973
 31
0.000000000
  0
CIRCLE
  5
B7F
330
A02
100
AcDbEntity
  8
V_05_Cradle_El_Stub_L_2
100
AcDbCircle
 10
210.000000000
 20
148.500000000
 30
0.000000000
 40
19.520547945
  0
CIRCLE
  5
B80
330
A02
100
AcDbEntity
  8
V_05_Cradle_El_Stub_L_2
100
AcDbCircle
 10
219.202074550
 20
157.702074550
 30
0.000000000
 40
1.464041096
  0
CIRCLE
  5
B81
330
A02
100
AcDbEntity
  8
V_05_Cradle_El_Stub_L_2
100
AcDbCircle
 10
219.202074550
 20
139.297925450
 30
0.000000000
 40
1.464041096
  0
CIRCLE
  5
B82
330
A02
100
AcDbEntity
  8
V_05_Cradle_El_Stub_L_2
100
AcDbCircle
 10
200.797925450
 20
157.702074550
 30
0.000000000
 40
1.464041096
  0
CIRCLE
  5
B83
330
A02
100
AcDbEntity
  8
V_05_Cradle_El_Stub_L_2
100
AcDbCircle
 10
200.797925450
 20
139.297925450
 30
0.000000000
 40
1.464041096
  0
CIRCLE
  5
B84
330
A02
100
AcDbEntity
  8
V_05_Cradle_El_Stub_L_2
100
AcDbCircle
 10
210.000000000
 20
148.500000000
 30
0.000000000
 40
9.760273973
  0
ELLIPSE
  5
B85
330
A02
100
AcDbEntity
  8
V_05_Cradle_El_Stub_L_3
100
AcDbEllipse
 10
221.962696915
 20
144.055961319
 30
0.000000000
 11
9.760273973
 21
16.905290416
 31
0.000000000
 40
0.577350269
 41
-3.141592654
 42
-2.356194490
  0
ELLIPSE
  5
B86
330
A02
100
AcDbEntity
  8
V_05_Cradle_El_Stub_L_3
100
AcDbEllipse
 10
221.962696915
 20
144.055961319
 30
0.000000000
 11
9.760273973
 21
16.905290416
 31
0.000000000
 40
0.577350269
 41
-0.000000000
 42
-3.141592654
  0
ELLIPSE
  5
B87
330
A02
100
AcDbEntity
  8
V_05_Cradle_El_Stub_L_3
100
AcDbEllipse
 10
221.962696915
 20
144.055961319
 30
0.000000000
 11
9.760273973
 21
16.905290416
 31
0.000000000
 40
0.577350269
 41
-2.356194490
 42
-0.000000000
  0
ELLIPSE
  5
B88
330
A02
100
AcDbEntity
  8
V_05_Cradle_El_Stub_L_3
100
AcDbEllipse
 10
228.469546230
 20
155.326154930
 30
0.000000000
 11
-0.732020548
 21
-1.267896781
 31
0.000000000
 40
0.577350269
 41
3.926990817
 42
0.000000000
  0
ELLIPSE
  5
B89
330
A02
100
AcDbEntity
  8
V_05_Cradle_El_Stub_L_3
100
AcDbEllipse
 10
228.469546230
 20
155.326154930
 30
0.000000000
 11
-0.732020548
 21
-1.267896781
 31
0.000000000
 40
0.577350269
 41
0.000000000
 42
3.141592654
  0
ELLIPSE
  5
B8A
330
A02
100
AcDbEntity
  8
V_05_Cradle_El_Stub_L_3
100
AcDbEllipse
 10
228.469546230
 20
155.326154930
 30
0.000000000
 11
-0.732020548
 21
-1.267896781
 31
0.000000000
 40
0.577350269
 41
3.141592654
 42
3.926990817
  0
ELLIPSE
  5
B8B
330
A02
100
AcDbEntity
  8
V_05_Cradle_El_Stub_L_3
100
AcDbEllipse
 10
215.455847600
 20
147.812692523
 30
0.000000000
 11
-0.732020548
 21
-1.267896781
 31
0.000000000
 40
0.577350269
 41
3.926990817
 42
0.000000000
  0
ELLIPSE
  5
B8C
330
A02
100
AcDbEntity
  8
V_05_Cradle_El_Stub_L_3
100
AcDbEllipse
 10
215.455847600
 20
147.812692523
 30
0.000000000
 11
-0.732020548
 21
-1.267896781
 31
0.000000000
 40
0.577350269
 41
0.000000000
 42
3.141592654
  0
ELLIPSE
  5
B8D
330
A02
100
AcDbEntity
  8
V_05_Cradle_El_Stub_L_3
100
AcDbEllipse
 10
215.455847600
 20
147.812692523
 30
0.000000000
 11
-0.732020548
 21
-1.267896781
 31
0.000000000
 40
0.577350269
 41
3.141592654
 42
3.926990817
  0
ELLIPSE
  5
B8E
330
A02
100
AcDbEntity
  8
V_05_Cradle_El_Stub_L_3
100
AcDbEllipse
 10
221.962696915
 20
144.055961319
 30
0.000000000
 11
-4.880136986
 21
-8.452645208
 31
0.000000000
 40
0.577350269
 41
3.926990817
 42
0.000000000
  0
ELLIPSE
  5
B8F
330
A02
100
AcDbEntity
  8
V_05_Cradle_El_Stub_L_3
100
AcDbEllipse
 10
221.962696915
 20
144.055961319
 30
0.000000000
 11
-4.880136986
 21
-8.452645208
 31
0.000000000
 40
0.577350269
 41
3.141592654
 42
3.926990817
  0
ELLIPSE
  5
B90
330
A02
100
AcDbEntity
  8
V_05_Cradle_El_Stub_L_3
100
AcDbEllipse
 10
215.455847600
 20
132.785767709
 30
0.000000000
 11
-0.732020548
 21
-1.267896781
 31
0.000000000
 40
0.577350269
 41
3.926990817
 42
0.000000000
  0
ELLIPSE
  5
B91
330
A02
100
AcDbEntity
  8
V_05_Cradle_El_Stub_L_3
100
AcDbEllipse
 10
215.455847600
 20
132.785767709
 30
0.000000000
 11
-0.732020548
 21
-1.267896781
 31
0.000000000
 40
0.577350269
 41
0.000000000
 42
3.141592654
  0
ELLIPSE
  5
B92
330
A02
100
AcDbEntity
  8
V_05_Cradle_El_Stub_L_3
100
AcDbEllipse
 10
215.455847600
 20
132.785767709
 30
0.000000000
 11
-0.732020548
 21
-1.267896781
 31
0.000000000
 40
0.577350269
 41
3.141592654
 42
3.926990817
  0
ELLIPSE
  5
B93
330
A02
100
AcDbEntity
  8
V_05_Cradle_El_Stub_L_3
100
AcDbEllipse
 10
219.202074550
 20
145.649807385
 30
0.000000000
 11
9.760273973
 21
16.905290416
 31
0.000000000
 40
0.577350269
 41
-0.000000000
 42
-3.141592654
  0
ELLIPSE
  5
B94
330
A02
100
AcDbEntity
  8
V_05_Cradle_El_Stub_L_3
100
AcDbEllipse
 10
227.783991676
 20
155.721960037
 30
0.000000000
 11
-0.732020548
 21
-1.267896781
 31
0.000000000
 40
0.577350269
 41
0.487322575
 42
2.654270079
  0
ELLIPSE
  5
B95
330
A02
100
AcDbEntity
  8
V_05_Cradle_El_Stub_L_3
100
AcDbEllipse
 10
214.770293046
 20
148.208497629
 30
0.000000000
 11
-0.732020548
 21
-1.267896781
 31
0.000000000
 40
0.577350269
 41
0.487322575
 42
2.654270079
  0
ELLIPSE
  5
B96
330
A02
100
AcDbEntity
  8
V_05_Cradle_El_Stub_L_3
100
AcDbEllipse
 10
224.723319280
 20
142.462115254
 30
0.000000000
 11
-4.880136986
 21
-8.452645208
 31
0.000000000
 40
0.577350269
 41
3.926990817
 42
0.000000000
  0
ELLIPSE
  5
B97
330
A02
100
AcDbEntity
  8
V_05_Cradle_El_Stub_L_3
100
AcDbEllipse
 10
224.723319280
 20
142.462115254
 30
0.000000000
 11
-4.880136986
 21
-8.452645208
 31
0.000000000
 40
0.577350269
 41
0.000000000
 42
3.141592654
  0
ELLIPSE
  5
B98
330
A02
100
AcDbEntity
  8
V_05_Cradle_El_Stub_L_3
100
AcDbEllipse
 10
224.723319280
 20
142.462115254
 30
0.000000000
 11
-4.880136986
 21
-8.452645208
 31
0.000000000
 40
0.577350269
 41
3.141592654
 42
3.926990817
  0
ELLIPSE
  5
B99
330
A02
100
AcDbEntity
  8
V_05_Cradle_El_Stub_L_3
100
AcDbEllipse
 10
214.770293046
 20
133.181572815
 30
0.000000000
 11
-0.732020548
 21
-1.267896781
 31
0.000000000
 40
0.577350269
 41
0.487322575
 42
2.654270079
  0
ELLIPSE
  5
B9A
330
A02
100
AcDbEntity
  8
V_05_Cradle_El_Stub_L_3
100
AcDbEllipse
 10
191.135747173
 20
161.853909051
 30
0.000000000
 11
-4.880136986
 21
-8.452645208
 31
0.000000000
 40
0.577350269
 41
3.926990817
 42
0.000000000
  0
ELLIPSE
  5
B9B
330
A02
100
AcDbEntity
  8
V_05_Cradle_El_Stub_L_3
100
AcDbEllipse
 10
191.135747173
 20
161.853909051
 30
0.000000000
 11
-4.880136986
 21
-8.452645208
 31
0.000000000
 40
0.577350269
 41
3.141592654
 42
3.926990817
  0
LINE
  5
B9C
330
A02
100
AcDbEntity
  8
V_05_Cradle_El_Stub_L_3
100
AcDbLine
 10
231.722970887
 20
160.961251736
 30
0.000000000
 11
228.962348522
 21
162.555097801
 31
0.000000000
  0
LINE
  5
B9D
330
A02
100
AcDbEntity
  8
V_05_Cradle_El_Stub_L_3
100
AcDbLine
 10
212.202422942
 20
127.150670903
 30
0.000000000
 11
209.441800577
 21
128.744516969
 31
0.000000000
  0
LINE
  5
B9E
330
A02
100
AcDbEntity
  8
V_05_Cradle_El_Stub_L_3
100
AcDbLine
 10
217.082559928
 20
135.603316111
 30
0.000000000
 11
219.843182293
 21
134.009470046
 31
0.000000000
  0
LINE
  5
B9F
330
A02
100
AcDbEntity
  8
V_05_Cradle_El_Stub_L_3
100
AcDbLine
 10
226.842833901
 20
152.508606528
 30
0.000000000
 11
229.603456266
 21
150.914760462
 31
0.000000000
  0
LINE
  5
BA0
330
A02
100
AcDbEntity
  8
V_05_Cradle_El_Stub_L_3
100
AcDbLine
 10
186.255610187
 20
153.401263843
 30
0.000000000
 11
205.869292355
 21
142.077299163
 31
0.000000000
  0
LINE
  5
BA1
330
A02
100
AcDbEntity
  8
V_05_Cradle_El_Stub_L_3
100
AcDbLine
 10
196.015884159
 20
170.306554259
 30
0.000000000
 11
215.629566328
 21
158.982589579
 31
0.000000000
  0
TEXT
  5
BA2
330
A02
100
AcDbEntity
  8
A_05_Cradle_El_Stub_L
100
AcDbText
 10
210.000000000
 20
148.500000000
 30
0.000000000
 40
3.500000000
  1
El_Stub_L  (black)
  7
STANDARD
 72
1
 11
210.000000000
 21
148.500000000
 31
0.000000000
100
AcDbText
  0
LINE
  5
BA3
330
A02
100
AcDbEntity
  8
V_05_Cradle_El_Bearing_Cap_R_0
100
AcDbLine
 10
199.028930569
 20
159.471069449
 30
0.000000000
 11
216.171226582
 21
159.471069449
 31
0.000000000
  0
LINE
  5
BA4
330
A02
100
AcDbEntity
  8
V_05_Cradle_El_Bearing_Cap_R_0
100
AcDbLine
 10
199.028930569
 20
137.528930551
 30
0.000000000
 11
216.171226582
 21
137.528930551
 31
0.000000000
  0
SPLINE
  5
BA5
330
A02
100
AcDbEntity
  8
V_05_Cradle_El_Bearing_Cap_R_0
100
AcDbSpline
210
0
220
0
230
1
 70
8
 71
1
 72
17
 73
15
 74
0
 40
0.000000000
 40
0.000000000
 40
0.112199738
 40
0.224399475
 40
0.336599213
 40
0.448798951
 40
0.560998688
 40
0.673198426
 40
0.785398163
 40
0.897597901
 40
1.009797639
 40
1.121997376
 40
1.234197114
 40
1.346396852
 40
1.458596589
 40
1.570796327
 40
1.570796327
 10
199.028930569
 20
159.471069449
 30
0.000000000
 10
199.028930569
 20
159.333101885
 30
0.000000000
 10
199.028930569
 20
158.920934215
 30
0.000000000
 10
199.028930569
 20
158.239749688
 30
0.000000000
 10
199.028930569
 20
157.298114593
 30
0.000000000
 10
199.028930569
 20
156.107870538
 30
0.000000000
 10
199.028930569
 20
154.683985534
 30
0.000000000
 10
199.028930569
 20
153.044365759
 30
0.000000000
 10
199.028930569
 20
151.209630385
 30
0.000000000
 10
199.028930569
 20
149.202852272
 30
0.000000000
 10
199.028930569
 20
147.049267820
 30
0.000000000
 10
199.028930569
 20
144.775959604
 30
0.000000000
 10
199.028930569
 20
142.411515792
 30
0.000000000
 10
199.028930569
 20
139.985670638
 30
0.000000000
 10
199.028930569
 20
137.528930551
 30
0.000000000
  0
SPLINE
  5
BA6
330
A02
100
AcDbEntity
  8
V_05_Cradle_El_Bearing_Cap_R_0
100
AcDbSpline
210
0
220
0
230
1
 70
8
 71
3
 72
17
 73
13
 74
0
 40
0.000000000
 40
0.000000000
 40
0.000000000
 40
0.000000000
 40
0.124321228
 40
0.124321228
 40
0.124321228
 40
0.244582792
 40
0.244582792
 40
0.244582792
 40
0.368230521
 40
0.368230521
 40
0.368230521
 40
0.486249290
 40
0.486249290
 40
0.486249290
 40
0.486249290
 10
208.594331744
 20
153.462969026
 30
0.000000000
 10
208.593063673
 20
153.784002020
 30
0.000000000
 10
208.721213732
 20
154.101583458
 30
0.000000000
 10
208.987800404
 20
154.332790313
 30
0.000000000
 10
209.241717420
 20
154.557315129
 30
0.000000000
 10
209.625284668
 20
154.689572231
 30
0.000000000
 10
210.014056466
 20
154.684844622
 30
0.000000000
 10
210.414054006
 20
154.683480671
 30
0.000000000
 10
210.803481225
 20
154.536813825
 30
0.000000000
 10
211.051394496
 20
154.297110864
 30
0.000000000
 10
211.291796177
 20
154.069375234
 30
0.000000000
 10
211.406652540
 20
153.767778384
 30
0.000000000
 10
211.405668291
 20
153.462969028
 30
0.000000000
  0
SPLINE
  5
BA7
330
A02
100
AcDbEntity
  8
V_05_Cradle_El_Bearing_Cap_R_0
100
AcDbSpline
210
0
220
0
230
1
 70
8
 71
3
 72
23
 73
19
 74
0
 40
0.486249290
 40
0.486249290
 40
0.486249290
 40
0.486249290
 40
0.608835195
 40
0.608835195
 40
0.608835195
 40
0.666740835
 40
0.666740835
 40
0.666740835
 40
0.743266849
 40
0.743266849
 40
0.743266849
 40
0.818942851
 40
0.818942851
 40
0.818942851
 40
0.878239970
 40
0.878239970
 40
0.878239970
 40
1.000000000
 40
1.000000000
 40
1.000000000
 40
1.000000000
 10
211.405668291
 20
153.462969028
 30
0.000000000
 10
211.405053130
 20
153.146092840
 30
0.000000000
 10
211.288026532
 20
152.820929645
 30
0.000000000
 10
211.068896649
 20
152.546187471
 30
0.000000000
 10
210.964921347
 20
152.414684112
 30
0.000000000
 10
210.837713981
 20
152.301047304
 30
0.000000000
 10
210.687274552
 20
152.205277045
 30
0.000000000
 10
210.489726943
 20
152.081106947
 30
0.000000000
 10
210.247724006
 20
152.002480852
 30
0.000000000
 10
210.000000017
 20
152.003323358
 30
0.000000000
 10
209.755131086
 20
152.002485871
 30
0.000000000
 10
209.515463644
 20
152.079365361
 30
0.000000000
 10
209.319171481
 20
152.201285286
 30
0.000000000
 10
209.164243430
 20
152.298882051
 30
0.000000000
 10
209.033743513
 20
152.415281367
 30
0.000000000
 10
208.927671729
 20
152.550483236
 30
0.000000000
 10
208.710768513
 20
152.824346782
 30
0.000000000
 10
208.594933347
 20
153.147741972
 30
0.000000000
 10
208.594331744
 20
153.462969026
 30
0.000000000
  0
SPLINE
  5
BA8
330
A02
100
AcDbEntity
  8
V_05_Cradle_El_Bearing_Cap_R_0
100
AcDbSpline
210
0
220
0
230
1
 70
8
 71
1
 72
17
 73
15
 74
0
 40
0.933991831
 40
0.933991831
 40
0.979477866
 40
1.024963902
 40
1.070449937
 40
1.115935973
 40
1.161422008
 40
1.206908043
 40
1.252394079
 40
1.297880114
 40
1.343366150
 40
1.388852185
 40
1.434338221
 40
1.479824256
 40
1.525310291
 40
1.570796327
 40
1.570796327
 10
220.971069466
 20
151.311336546
 30
0.000000000
 10
220.971069466
 20
151.760574706
 30
0.000000000
 10
220.971069466
 20
152.180372964
 30
0.000000000
 10
220.971069466
 20
152.569862914
 30
0.000000000
 10
220.971069466
 20
152.928238851
 30
0.000000000
 10
220.971069466
 20
153.254759428
 30
0.000000000
 10
220.971069466
 20
153.548749199
 30
0.000000000
 10
220.971069466
 20
153.809600009
 30
0.000000000
 10
220.971069466
 20
154.036772256
 30
0.000000000
 10
220.971069466
 20
154.229796006
 30
0.000000000
 10
220.971069466
 20
154.388271967
 30
0.000000000
 10
220.971069466
 20
154.511872311
 30
0.000000000
 10
220.971069466
 20
154.600341356
 30
0.000000000
 10
220.971069466
 20
154.653496093
 30
0.000000000
 10
220.971069466
 20
154.671226565
 30
0.000000000
  0
ARC
  5
BA9
330
A02
100
AcDbEntity
  8
V_05_Cradle_El_Bearing_Cap_R_0
100
AcDbCircle
 10
216.171226582
 20
154.671226565
 30
0.000000000
 40
4.799842884
100
AcDbArc
 50
0.000000000
 51
90.000000000
  0
SPLINE
  5
BAA
330
A02
100
AcDbEntity
  8
V_05_Cradle_El_Bearing_Cap_R_0
100
AcDbSpline
210
0
220
0
230
1
 70
8
 71
1
 72
17
 73
15
 74
0
 40
0.000000000
 40
0.000000000
 40
0.112199738
 40
0.224399475
 40
0.336599213
 40
0.448798951
 40
0.560998688
 40
0.673198426
 40
0.785398163
 40
0.897597901
 40
1.009797639
 40
1.121997376
 40
1.234197114
 40
1.346396852
 40
1.458596589
 40
1.570796327
 40
1.570796327
 10
216.171226582
 20
137.528930551
 30
0.000000000
 10
216.708638476
 20
137.528930551
 30
0.000000000
 10
217.239292103
 20
137.528930551
 30
0.000000000
 10
217.756514187
 20
137.528930551
 30
0.000000000
 10
218.253800360
 20
137.528930551
 30
0.000000000
 10
218.724896958
 20
137.528930551
 30
0.000000000
 10
219.163879671
 20
137.528930551
 30
0.000000000
 10
219.565228034
 20
137.528930551
 30
0.000000000
 10
219.923894859
 20
137.528930551
 30
0.000000000
 10
220.235369704
 20
137.528930551
 30
0.000000000
 10
220.495735591
 20
137.528930551
 30
0.000000000
 10
220.701718268
 20
137.528930551
 30
0.000000000
 10
220.850727383
 20
137.528930551
 30
0.000000000
 10
220.940889061
 20
137.528930551
 30
0.000000000
 10
220.971069466
 20
137.528930551
 30
0.000000000
  0
SPLINE
  5
BAB
330
A02
100
AcDbEntity
  8
V_05_Cradle_El_Bearing_Cap_R_0
100
AcDbSpline
210
0
220
0
230
1
 70
8
 71
1
 72
17
 73
15
 74
0
 40
0.000000000
 40
0.000000000
 40
0.112199738
 40
0.224399475
 40
0.336599213
 40
0.448798951
 40
0.560998688
 40
0.673198426
 40
0.785398163
 40
0.897597901
 40
1.009797639
 40
1.121997376
 40
1.234197114
 40
1.346396852
 40
1.458596589
 40
1.570796327
 40
1.570796327
 10
220.971069466
 20
154.671226565
 30
0.000000000
 10
220.971069466
 20
154.563439406
 30
0.000000000
 10
220.971069466
 20
154.241433414
 30
0.000000000
 10
220.971069466
 20
153.709258002
 30
0.000000000
 10
220.971069466
 20
152.973605584
 30
0.000000000
 10
220.971069466
 20
152.043727416
 30
0.000000000
 10
220.971069466
 20
150.931317256
 30
0.000000000
 10
220.971069466
 20
149.650364308
 30
0.000000000
 10
220.971069466
 20
148.216977296
 30
0.000000000
 10
220.971069466
 20
146.649181896
 30
0.000000000
 10
220.971069466
 20
144.966694043
 30
0.000000000
 10
220.971069466
 20
143.190671998
 30
0.000000000
 10
220.971069466
 20
141.343450270
 30
0.000000000
 10
220.971069466
 20
139.448258744
 30
0.000000000
 10
220.971069466
 20
137.528930551
 30
0.000000000
  0
SPLINE
  5
BAC
330
A02
100
AcDbEntity
  8
V_05_Cradle_El_Bearing_Cap_R_0
100
AcDbSpline
210
0
220
0
230
1
 70
8
 71
1
 72
17
 73
15
 74
0
 40
0.000000000
 40
0.000000000
 40
0.112199738
 40
0.224399475
 40
0.336599213
 40
0.448798951
 40
0.560998688
 40
0.673198426
 40
0.785398163
 40
0.897597901
 40
1.009797639
 40
1.121997376
 40
1.234197114
 40
1.346396852
 40
1.458596589
 40
1.570796327
 40
1.570796327
 10
220.971069466
 20
151.311336546
 30
0.000000000
 10
220.971069466
 20
151.224675670
 30
0.000000000
 10
220.971069466
 20
150.965782853
 30
0.000000000
 10
220.971069466
 20
150.537913821
 30
0.000000000
 10
220.971069466
 20
149.946449278
 30
0.000000000
 10
220.971069466
 20
149.198827231
 30
0.000000000
 10
220.971069466
 20
148.304449462
 30
0.000000000
 10
220.971069466
 20
147.274563291
 30
0.000000000
 10
220.971069466
 20
146.122120134
 30
0.000000000
 10
220.971069466
 20
144.861612632
 30
0.000000000
 10
220.971069466
 20
143.508892398
 30
0.000000000
 10
220.971069466
 20
142.080970675
 30
0.000000000
 10
220.971069466
 20
140.595804406
 30
0.000000000
 10
220.971069466
 20
139.072070418
 30
0.000000000
 10
220.971069466
 20
137.528930551
 30
0.000000000
  0
LINE
  5
BAD
330
A02
100
AcDbEntity
  8
V_05_Cradle_El_Bearing_Cap_R_0
100
AcDbLine
 10
211.405668290
 20
153.462969028
 30
0.000000000
 11
211.405668290
 21
153.462940046
 31
0.000000000
  0
SPLINE
  5
BAE
330
A02
100
AcDbEntity
  8
V_05_Cradle_El_Bearing_Cap_R_0
100
AcDbSpline
210
0
220
0
230
1
 70
8
 71
1
 72
17
 73
15
 74
0
 40
0.000000000
 40
0.000000000
 40
0.112199738
 40
0.224399475
 40
0.336599213
 40
0.448798951
 40
0.560998688
 40
0.673198426
 40
0.785398163
 40
0.897597901
 40
1.009797639
 40
1.121997376
 40
1.234197114
 40
1.346396852
 40
1.458596589
 40
1.570796327
 40
1.570796327
 10
216.171226582
 20
159.471069449
 30
0.000000000
 10
216.171226582
 20
159.333101885
 30
0.000000000
 10
216.171226582
 20
158.920934215
 30
0.000000000
 10
216.171226582
 20
158.239749688
 30
0.000000000
 10
216.171226582
 20
157.298114593
 30
0.000000000
 10
216.171226582
 20
156.107870538
 30
0.000000000
 10
216.171226582
 20
154.683985534
 30
0.000000000
 10
216.171226582
 20
153.044365759
 30
0.000000000
 10
216.171226582
 20
151.209630385
 30
0.000000000
 10
216.171226582
 20
149.202852272
 30
0.000000000
 10
216.171226582
 20
147.049267820
 30
0.000000000
 10
216.171226582
 20
144.775959604
 30
0.000000000
 10
216.171226582
 20
142.411515792
 30
0.000000000
 10
216.171226582
 20
139.985670638
 30
0.000000000
 10
216.171226582
 20
137.528930551
 30
0.000000000
  0
SPLINE
  5
BAF
330
A02
100
AcDbEntity
  8
V_05_Cradle_El_Bearing_Cap_R_1
100
AcDbSpline
210
0
220
0
230
1
 70
8
 71
1
 72
17
 73
15
 74
0
 40
4.712388980
 40
4.712388980
 40
4.824588718
 40
4.936788456
 40
5.048988193
 40
5.161187931
 40
5.273387669
 40
5.385587406
 40
5.497787144
 40
5.609986881
 40
5.722186619
 40
5.834386357
 40
5.946586094
 40
6.058785832
 40
6.170985570
 40
6.283185307
 40
6.283185307
 10
199.028930569
 20
170.442138897
 30
0.000000000
 10
199.028930569
 20
170.304171333
 30
0.000000000
 10
199.028930569
 20
169.892003664
 30
0.000000000
 10
199.028930569
 20
169.210819136
 30
0.000000000
 10
199.028930569
 20
168.269184042
 30
0.000000000
 10
199.028930569
 20
167.078939987
 30
0.000000000
 10
199.028930569
 20
165.655054982
 30
0.000000000
 10
199.028930569
 20
164.015435208
 30
0.000000000
 10
199.028930569
 20
162.180699833
 30
0.000000000
 10
199.028930569
 20
160.173921721
 30
0.000000000
 10
199.028930569
 20
158.020337269
 30
0.000000000
 10
199.028930569
 20
155.747029052
 30
0.000000000
 10
199.028930569
 20
153.382585240
 30
0.000000000
 10
199.028930569
 20
150.956740086
 30
0.000000000
 10
199.028930569
 20
148.500000000
 30
0.000000000
  0
LINE
  5
BB0
330
A02
100
AcDbEntity
  8
V_05_Cradle_El_Bearing_Cap_R_1
100
AcDbLine
 10
199.028930569
 20
170.442138897
 30
0.000000000
 11
216.171226582
 21
170.442138897
 31
0.000000000
  0
SPLINE
  5
BB1
330
A02
100
AcDbEntity
  8
V_05_Cradle_El_Bearing_Cap_R_1
100
AcDbSpline
210
0
220
0
230
1
 70
9
 71
3
 72
35
 73
31
 74
0
 40
0.000000000
 40
0.000000000
 40
0.000000000
 40
0.000000000
 40
0.122393126
 40
0.122393126
 40
0.122393126
 40
0.181125418
 40
0.181125418
 40
0.181125418
 40
0.256724514
 40
0.256724514
 40
0.256724514
 40
0.333319391
 40
0.333319391
 40
0.333319391
 40
0.393096109
 40
0.393096109
 40
0.393096109
 40
0.519120234
 40
0.519120234
 40
0.519120234
 40
0.633540114
 40
0.633540114
 40
0.633540114
 40
0.755670257
 40
0.755670257
 40
0.755670257
 40
0.875264424
 40
0.875264424
 40
0.875264424
 40
1.000000000
 40
1.000000000
 40
1.000000000
 40
1.000000000
 10
208.594331744
 20
163.585220492
 30
0.000000000
 10
208.594946477
 20
163.920361889
 30
0.000000000
 10
208.711969248
 20
164.240579196
 30
0.000000000
 10
208.931103385
 20
164.498107825
 30
0.000000000
 10
209.036697453
 20
164.623119141
 30
0.000000000
 10
209.166251349
 20
164.728861806
 30
0.000000000
 10
209.319765075
 20
164.815335819
 30
0.000000000
 10
209.515938157
 20
164.924716978
 30
0.000000000
 10
209.755379633
 20
164.991520660
 30
0.000000000
 10
210.000000017
 20
164.990888765
 30
0.000000000
 10
210.247953347
 20
164.991525454
 30
0.000000000
 10
210.490169545
 20
164.922939380
 30
0.000000000
 10
210.687823823
 20
164.811108621
 30
0.000000000
 10
210.843077533
 20
164.722353195
 30
0.000000000
 10
210.973557026
 20
164.613926752
 30
0.000000000
 10
211.079262303
 20
164.485829292
 30
0.000000000
 10
211.301037556
 20
164.219064239
 30
0.000000000
 10
211.415163311
 20
163.886783307
 30
0.000000000
 10
211.404974678
 20
163.541067384
 30
0.000000000
 10
211.396074570
 20
163.228445778
 30
0.000000000
 10
211.276927731
 20
162.899935324
 30
0.000000000
 10
211.040536987
 20
162.640135253
 30
0.000000000
 10
210.791954745
 20
162.361736543
 30
0.000000000
 10
210.406581561
 20
162.180106135
 30
0.000000000
 10
210.011585873
 20
162.179599966
 30
0.000000000
 10
209.624995906
 20
162.173846358
 30
0.000000000
 10
209.243790507
 20
162.341430953
 30
0.000000000
 10
208.990446986
 20
162.607107016
 30
0.000000000
 10
208.722112772
 20
162.883519875
 30
0.000000000
 10
208.593037009
 20
163.245843027
 30
0.000000000
 10
208.594331744
 20
163.585220492
 30
0.000000000
  0
LINE
  5
BB2
330
A02
100
AcDbEntity
  8
V_05_Cradle_El_Bearing_Cap_R_1
100
AcDbLine
 10
199.028930569
 20
126.557861103
 30
0.000000000
 11
216.171226582
 21
126.557861103
 31
0.000000000
  0
SPLINE
  5
BB3
330
A02
100
AcDbEntity
  8
V_05_Cradle_El_Bearing_Cap_R_1
100
AcDbSpline
210
0
220
0
230
1
 70
8
 71
1
 72
17
 73
15
 74
0
 40
0.000000000
 40
0.000000000
 40
0.112199738
 40
0.224399475
 40
0.336599213
 40
0.448798951
 40
0.560998688
 40
0.673198426
 40
0.785398163
 40
0.897597901
 40
1.009797639
 40
1.121997376
 40
1.234197114
 40
1.346396852
 40
1.458596589
 40
1.570796327
 40
1.570796327
 10
199.028930569
 20
148.500000000
 30
0.000000000
 10
199.028930569
 20
146.043259914
 30
0.000000000
 10
199.028930569
 20
143.617414760
 30
0.000000000
 10
199.028930569
 20
141.252970948
 30
0.000000000
 10
199.028930569
 20
138.979662731
 30
0.000000000
 10
199.028930569
 20
136.826078279
 30
0.000000000
 10
199.028930569
 20
134.819300167
 30
0.000000000
 10
199.028930569
 20
132.984564792
 30
0.000000000
 10
199.028930569
 20
131.344945018
 30
0.000000000
 10
199.028930569
 20
129.921060013
 30
0.000000000
 10
199.028930569
 20
128.730815958
 30
0.000000000
 10
199.028930569
 20
127.789180864
 30
0.000000000
 10
199.028930569
 20
127.107996336
 30
0.000000000
 10
199.028930569
 20
126.695828667
 30
0.000000000
 10
199.028930569
 20
126.557861103
 30
0.000000000
  0
SPLINE
  5
BB4
330
A02
100
AcDbEntity
  8
V_05_Cradle_El_Bearing_Cap_R_1
100
AcDbSpline
210
0
220
0
230
1
 70
9
 71
3
 72
35
 73
31
 74
0
 40
0.000000000
 40
0.000000000
 40
0.000000000
 40
0.000000000
 40
0.124321228
 40
0.124321228
 40
0.124321228
 40
0.244582792
 40
0.244582792
 40
0.244582792
 40
0.368230521
 40
0.368230521
 40
0.368230521
 40
0.480872256
 40
0.480872256
 40
0.480872256
 40
0.608835195
 40
0.608835195
 40
0.608835195
 40
0.666740835
 40
0.666740835
 40
0.666740835
 40
0.743266849
 40
0.743266849
 40
0.743266849
 40
0.818942851
 40
0.818942851
 40
0.818942851
 40
0.878239970
 40
0.878239970
 40
0.878239970
 40
1.000000000
 40
1.000000000
 40
1.000000000
 40
1.000000000
 10
208.594331744
 20
133.414779508
 30
0.000000000
 10
208.593063673
 20
133.753047245
 30
0.000000000
 10
208.721213732
 20
134.114034399
 30
0.000000000
 10
208.987800404
 20
134.390153917
 30
0.000000000
 10
209.241717420
 20
134.657951078
 30
0.000000000
 10
209.625284668
 20
134.826886279
 30
0.000000000
 10
210.014056466
 20
134.820377498
 30
0.000000000
 10
210.414054006
 20
134.819247695
 30
0.000000000
 10
210.803481225
 20
134.632152142
 30
0.000000000
 10
211.051394496
 20
134.347770904
 30
0.000000000
 10
211.280709642
 20
134.089782700
 30
0.000000000
 10
211.396149063
 20
133.766757633
 30
0.000000000
 10
211.404974678
 20
133.458932616
 30
0.000000000
 10
211.415286697
 20
133.107892262
 30
0.000000000
 10
211.297549974
 20
132.770684807
 30
0.000000000
 10
211.068896649
 20
132.501892175
 30
0.000000000
 10
210.964921347
 20
132.378842768
 30
0.000000000
 10
210.837713981
 20
132.274406495
 30
0.000000000
 10
210.687274552
 20
132.188583355
 30
0.000000000
 10
210.489726943
 20
132.076932250
 30
0.000000000
 10
210.247724006
 20
132.008476435
 30
0.000000000
 10
210.000000017
 20
132.009111235
 30
0.000000000
 10
209.755131086
 20
132.008477675
 30
0.000000000
 10
209.515463644
 20
132.075418837
 30
0.000000000
 10
209.319171481
 20
132.184992617
 30
0.000000000
 10
209.164243430
 20
132.272389597
 30
0.000000000
 10
209.033743513
 20
132.379367274
 30
0.000000000
 10
208.927671729
 20
132.505925650
 30
0.000000000
 10
208.710768513
 20
132.762767357
 30
0.000000000
 10
208.594933347
 20
133.081385245
 30
0.000000000
 10
208.594331744
 20
133.414779508
 30
0.000000000
  0
ARC
  5
BB5
330
A02
100
AcDbEntity
  8
V_05_Cradle_El_Bearing_Cap_R_1
100
AcDbCircle
 10
216.171226582
 20
165.642296013
 30
0.000000000
 40
4.799842884
100
AcDbArc
 50
0.000000000
 51
90.000000000
  0
SPLINE
  5
BB6
330
A02
100
AcDbEntity
  8
V_05_Cradle_El_Bearing_Cap_R_1
100
AcDbSpline
210
0
220
0
230
1
 70
8
 71
1
 72
17
 73
15
 74
0
 40
0.000000000
 40
0.000000000
 40
0.112199738
 40
0.224399475
 40
0.336599213
 40
0.448798951
 40
0.560998688
 40
0.673198426
 40
0.785398163
 40
0.897597901
 40
1.009797639
 40
1.121997376
 40
1.234197114
 40
1.346396852
 40
1.458596589
 40
1.570796327
 40
1.570796327
 10
220.971069466
 20
165.642296013
 30
0.000000000
 10
220.971069466
 20
165.534508854
 30
0.000000000
 10
220.971069466
 20
165.212502862
 30
0.000000000
 10
220.971069466
 20
164.680327450
 30
0.000000000
 10
220.971069466
 20
163.944675032
 30
0.000000000
 10
220.971069466
 20
163.014796865
 30
0.000000000
 10
220.971069466
 20
161.902386705
 30
0.000000000
 10
220.971069466
 20
160.621433756
 30
0.000000000
 10
220.971069466
 20
159.188046745
 30
0.000000000
 10
220.971069466
 20
157.620251344
 30
0.000000000
 10
220.971069466
 20
155.937763491
 30
0.000000000
 10
220.971069466
 20
154.161741447
 30
0.000000000
 10
220.971069466
 20
152.314519719
 30
0.000000000
 10
220.971069466
 20
150.419328192
 30
0.000000000
 10
220.971069466
 20
148.500000000
 30
0.000000000
  0
ARC
  5
BB7
330
A02
100
AcDbEntity
  8
V_05_Cradle_El_Bearing_Cap_R_1
100
AcDbCircle
 10
216.171226582
 20
131.357703987
 30
0.000000000
 40
4.799842884
100
AcDbArc
 50
-90.000000000
 51
0.000000000
  0
SPLINE
  5
BB8
330
A02
100
AcDbEntity
  8
V_05_Cradle_El_Bearing_Cap_R_1
100
AcDbSpline
210
0
220
0
230
1
 70
8
 71
1
 72
17
 73
15
 74
0
 40
0.000000000
 40
0.000000000
 40
0.112199738
 40
0.224399475
 40
0.336599213
 40
0.448798951
 40
0.560998688
 40
0.673198426
 40
0.785398163
 40
0.897597901
 40
1.009797639
 40
1.121997376
 40
1.234197114
 40
1.346396852
 40
1.458596589
 40
1.570796327
 40
1.570796327
 10
220.971069466
 20
148.500000000
 30
0.000000000
 10
220.971069466
 20
146.580671808
 30
0.000000000
 10
220.971069466
 20
144.685480281
 30
0.000000000
 10
220.971069466
 20
142.838258553
 30
0.000000000
 10
220.971069466
 20
141.062236509
 30
0.000000000
 10
220.971069466
 20
139.379748656
 30
0.000000000
 10
220.971069466
 20
137.811953255
 30
0.000000000
 10
220.971069466
 20
136.378566244
 30
0.000000000
 10
220.971069466
 20
135.097613295
 30
0.000000000
 10
220.971069466
 20
133.985203135
 30
0.000000000
 10
220.971069466
 20
133.055324968
 30
0.000000000
 10
220.971069466
 20
132.319672550
 30
0.000000000
 10
220.971069466
 20
131.787497138
 30
0.000000000
 10
220.971069466
 20
131.465491146
 30
0.000000000
 10
220.971069466
 20
131.357703987
 30
0.000000000
  0
ARC
  5
BB9
330
A02
100
AcDbEntity
  8
V_05_Cradle_El_Bearing_Cap_R_1
100
AcDbCircle
 10
210.000000017
 20
133.414779508
 30
0.000000000
 40
1.405668273
100
AcDbArc
 50
176.647929867
 51
180.000000000
  0
SPLINE
  5
BBA
330
A02
100
AcDbEntity
  8
V_05_Cradle_El_Bearing_Cap_R_1
100
AcDbSpline
210
0
220
0
230
1
 70
8
 71
1
 72
17
 73
15
 74
0
 40
4.712388980
 40
4.712388980
 40
4.824588718
 40
4.936788456
 40
5.048988193
 40
5.161187931
 40
5.273387669
 40
5.385587406
 40
5.497787144
 40
5.609986881
 40
5.722186619
 40
5.834386357
 40
5.946586094
 40
6.058785832
 40
6.170985570
 40
6.283185307
 40
6.283185307
 10
220.971069466
 20
162.282405995
 30
0.000000000
 10
220.971069466
 20
162.195745119
 30
0.000000000
 10
220.971069466
 20
161.936852301
 30
0.000000000
 10
220.971069466
 20
161.508983270
 30
0.000000000
 10
220.971069466
 20
160.917518726
 30
0.000000000
 10
220.971069466
 20
160.169896679
 30
0.000000000
 10
220.971069466
 20
159.275518911
 30
0.000000000
 10
220.971069466
 20
158.245632740
 30
0.000000000
 10
220.971069466
 20
157.093189583
 30
0.000000000
 10
220.971069466
 20
155.832682081
 30
0.000000000
 10
220.971069466
 20
154.479961847
 30
0.000000000
 10
220.971069466
 20
153.052040123
 30
0.000000000
 10
220.971069466
 20
151.566873854
 30
0.000000000
 10
220.971069466
 20
150.043139867
 30
0.000000000
 10
220.971069466
 20
148.500000000
 30
0.000000000
  0
SPLINE
  5
BBB
330
A02
100
AcDbEntity
  8
V_05_Cradle_El_Bearing_Cap_R_1
100
AcDbSpline
210
0
220
0
230
1
 70
8
 71
1
 72
17
 73
15
 74
0
 40
0.000000000
 40
0.000000000
 40
0.112199738
 40
0.224399475
 40
0.336599213
 40
0.448798951
 40
0.560998688
 40
0.673198426
 40
0.785398163
 40
0.897597901
 40
1.009797639
 40
1.121997376
 40
1.234197114
 40
1.346396852
 40
1.458596589
 40
1.570796327
 40
1.570796327
 10
220.971069466
 20
148.500000000
 30
0.000000000
 10
220.971069466
 20
146.956860133
 30
0.000000000
 10
220.971069466
 20
145.433126146
 30
0.000000000
 10
220.971069466
 20
143.947959877
 30
0.000000000
 10
220.971069466
 20
142.520038153
 30
0.000000000
 10
220.971069466
 20
141.167317919
 30
0.000000000
 10
220.971069466
 20
139.906810417
 30
0.000000000
 10
220.971069466
 20
138.754367260
 30
0.000000000
 10
220.971069466
 20
137.724481089
 30
0.000000000
 10
220.971069466
 20
136.830103321
 30
0.000000000
 10
220.971069466
 20
136.082481274
 30
0.000000000
 10
220.971069466
 20
135.491016730
 30
0.000000000
 10
220.971069466
 20
135.063147699
 30
0.000000000
 10
220.971069466
 20
134.804254881
 30
0.000000000
 10
220.971069466
 20
134.717594005
 30
0.000000000
  0
CIRCLE
  5
BBC
330
A02
100
AcDbEntity
  8
V_05_Cradle_El_Bearing_Cap_R_1
100
AcDbCircle
 10
210.000000017
 20
163.585220492
 30
0.000000000
 40
0.771403321
  0
CIRCLE
  5
BBD
330
A02
100
AcDbEntity
  8
V_05_Cradle_El_Bearing_Cap_R_1
100
AcDbCircle
 10
210.000000017
 20
133.414779508
 30
0.000000000
 40
0.771403321
  0
SPLINE
  5
BBE
330
A02
100
AcDbEntity
  8
V_05_Cradle_El_Bearing_Cap_R_1
100
AcDbSpline
210
0
220
0
230
1
 70
8
 71
1
 72
17
 73
15
 74
0
 40
0.000000000
 40
0.000000000
 40
0.112199738
 40
0.224399475
 40
0.336599213
 40
0.448798951
 40
0.560998688
 40
0.673198426
 40
0.785398163
 40
0.897597901
 40
1.009797639
 40
1.121997376
 40
1.234197114
 40
1.346396852
 40
1.458596589
 40
1.570796327
 40
1.570796327
 10
216.171226582
 20
170.442138897
 30
0.000000000
 10
216.171226582
 20
170.304171333
 30
0.000000000
 10
216.171226582
 20
169.892003664
 30
0.000000000
 10
216.171226582
 20
169.210819136
 30
0.000000000
 10
216.171226582
 20
168.269184042
 30
0.000000000
 10
216.171226582
 20
167.078939987
 30
0.000000000
 10
216.171226582
 20
165.655054982
 30
0.000000000
 10
216.171226582
 20
164.015435208
 30
0.000000000
 10
216.171226582
 20
162.180699833
 30
0.000000000
 10
216.171226582
 20
160.173921721
 30
0.000000000
 10
216.171226582
 20
158.020337269
 30
0.000000000
 10
216.171226582
 20
155.747029052
 30
0.000000000
 10
216.171226582
 20
153.382585240
 30
0.000000000
 10
216.171226582
 20
150.956740086
 30
0.000000000
 10
216.171226582
 20
148.500000000
 30
0.000000000
  0
SPLINE
  5
BBF
330
A02
100
AcDbEntity
  8
V_05_Cradle_El_Bearing_Cap_R_1
100
AcDbSpline
210
0
220
0
230
1
 70
8
 71
1
 72
17
 73
15
 74
0
 40
0.000000000
 40
0.000000000
 40
0.112199738
 40
0.224399475
 40
0.336599213
 40
0.448798951
 40
0.560998688
 40
0.673198426
 40
0.785398163
 40
0.897597901
 40
1.009797639
 40
1.121997376
 40
1.234197114
 40
1.346396852
 40
1.458596589
 40
1.570796327
 40
1.570796327
 10
216.171226582
 20
148.500000000
 30
0.000000000
 10
216.171226582
 20
146.043259914
 30
0.000000000
 10
216.171226582
 20
143.617414760
 30
0.000000000
 10
216.171226582
 20
141.252970948
 30
0.000000000
 10
216.171226582
 20
138.979662731
 30
0.000000000
 10
216.171226582
 20
136.826078279
 30
0.000000000
 10
216.171226582
 20
134.819300167
 30
0.000000000
 10
216.171226582
 20
132.984564792
 30
0.000000000
 10
216.171226582
 20
131.344945018
 30
0.000000000
 10
216.171226582
 20
129.921060013
 30
0.000000000
 10
216.171226582
 20
128.730815958
 30
0.000000000
 10
216.171226582
 20
127.789180864
 30
0.000000000
 10
216.171226582
 20
127.107996336
 30
0.000000000
 10
216.171226582
 20
126.695828667
 30
0.000000000
 10
216.171226582
 20
126.557861103
 30
0.000000000
  0
SPLINE
  5
BC0
330
A02
100
AcDbEntity
  8
V_05_Cradle_El_Bearing_Cap_R_1
100
AcDbSpline
210
0
220
0
230
1
 70
8
 71
1
 72
17
 73
15
 74
0
 40
0.000000000
 40
0.000000000
 40
0.112199738
 40
0.224399475
 40
0.336599213
 40
0.448798951
 40
0.560998688
 40
0.673198426
 40
0.785398163
 40
0.897597901
 40
1.009797639
 40
1.121997376
 40
1.234197114
 40
1.346396852
 40
1.458596589
 40
1.570796327
 40
1.570796327
 10
216.171226582
 20
148.500000000
 30
0.000000000
 10
216.708638476
 20
148.500000000
 30
0.000000000
 10
217.239292103
 20
148.500000000
 30
0.000000000
 10
217.756514187
 20
148.500000000
 30
0.000000000
 10
218.253800360
 20
148.500000000
 30
0.000000000
 10
218.724896958
 20
148.500000000
 30
0.000000000
 10
219.163879671
 20
148.500000000
 30
0.000000000
 10
219.565228034
 20
148.500000000
 30
0.000000000
 10
219.923894859
 20
148.500000000
 30
0.000000000
 10
220.235369704
 20
148.500000000
 30
0.000000000
 10
220.495735591
 20
148.500000000
 30
0.000000000
 10
220.701718268
 20
148.500000000
 30
0.000000000
 10
220.850727383
 20
148.500000000
 30
0.000000000
 10
220.940889061
 20
148.500000000
 30
0.000000000
 10
220.971069466
 20
148.500000000
 30
0.000000000
  0
SPLINE
  5
BC1
330
A02
100
AcDbEntity
  8
V_05_Cradle_El_Bearing_Cap_R_2
100
AcDbSpline
210
0
220
0
230
1
 70
8
 71
1
 72
4
 73
2
 74
0
 40
0.003772279
 40
0.003772279
 40
0.017622470
 40
0.017622470
 10
225.116153932
 20
153.433626388
 30
0.000000000
 10
225.228898242
 20
153.325706098
 30
0.000000000
  0
SPLINE
  5
BC2
330
A02
100
AcDbEntity
  8
V_05_Cradle_El_Bearing_Cap_R_2
100
AcDbSpline
210
0
220
0
230
1
 70
8
 71
1
 72
4
 73
2
 74
0
 40
0.018522833
 40
0.018522833
 40
0.034132328
 40
0.034132328
 10
225.236175128
 20
153.318687574
 30
0.000000000
 10
225.361097321
 20
153.197183437
 30
0.000000000
  0
SPLINE
  5
BC3
330
A02
100
AcDbEntity
  8
V_05_Cradle_El_Bearing_Cap_R_2
100
AcDbSpline
210
0
220
0
230
1
 70
8
 71
1
 72
4
 73
2
 74
0
 40
0.045906984
 40
0.045906984
 40
0.053913778
 40
0.053913778
 10
225.453531284
 20
153.106023674
 30
0.000000000
 10
225.515351107
 20
153.044449860
 30
0.000000000
  0
SPLINE
  5
BC4
330
A02
100
AcDbEntity
  8
V_05_Cradle_El_Bearing_Cap_R_2
100
AcDbSpline
210
0
220
0
230
1
 70
8
 71
1
 72
4
 73
2
 74
0
 40
0.119259206
 40
0.119259206
 40
0.121576933
 40
0.121576933
 10
225.978217337
 20
152.567349022
 30
0.000000000
 10
225.992951853
 20
152.551678316
 30
0.000000000
  0
SPLINE
  5
BC5
330
A02
100
AcDbEntity
  8
V_05_Cradle_El_Bearing_Cap_R_2
100
AcDbSpline
210
0
220
0
230
1
 70
8
 71
2
 72
6
 73
3
 74
0
 40
0.121604303
 40
0.121604303
 40
0.121604303
 40
0.156456254
 40
0.156456254
 40
0.156456254
 10
225.993125030
 20
152.551493954
 30
0.000000000
 10
226.103806763
 20
152.433536361
 30
0.000000000
 10
226.196355481
 20
152.332157515
 30
0.000000000
  0
SPLINE
  5
BC6
330
A02
100
AcDbEntity
  8
V_05_Cradle_El_Bearing_Cap_R_2
100
AcDbSpline
210
0
220
0
230
1
 70
8
 71
2
 72
6
 73
3
 74
0
 40
0.746662192
 40
0.746662192
 40
0.746662192
 40
0.756869227
 40
0.756869227
 40
0.756869227
 10
223.683010638
 20
154.682142470
 30
0.000000000
 10
223.679553055
 20
154.684900218
 30
0.000000000
 10
223.679552220
 20
154.684900662
 30
0.000000000
  0
SPLINE
  5
BC7
330
A02
100
AcDbEntity
  8
V_05_Cradle_El_Bearing_Cap_R_2
100
AcDbSpline
210
0
220
0
230
1
 70
8
 71
3
 72
11
 73
7
 74
0
 40
0.756869227
 40
0.756869227
 40
0.756869227
 40
0.756869227
 40
0.847505351
 40
0.847505351
 40
0.847505351
 40
0.925145161
 40
0.925145161
 40
0.925145161
 40
0.925145161
 10
223.679552220
 20
154.684900662
 30
0.000000000
 10
223.678641703
 20
154.685438263
 30
0.000000000
 10
223.773903913
 20
154.610417608
 30
0.000000000
 10
223.939127798
 20
154.474672660
 30
0.000000000
 10
224.079893887
 20
154.358952508
 30
0.000000000
 10
224.268899110
 20
154.200247199
 30
0.000000000
 10
224.473142775
 20
154.020916412
 30
0.000000000
  0
SPLINE
  5
BC8
330
A02
100
AcDbEntity
  8
V_05_Cradle_El_Bearing_Cap_R_2
100
AcDbSpline
210
0
220
0
230
1
 70
8
 71
1
 72
4
 73
2
 74
0
 40
0.958771399
 40
0.958771399
 40
0.970074007
 40
0.970074007
 10
224.745115987
 20
153.778207887
 30
0.000000000
 10
224.838352417
 20
153.693111847
 30
0.000000000
  0
SPLINE
  5
BC9
330
A02
100
AcDbEntity
  8
V_05_Cradle_El_Bearing_Cap_R_2
100
AcDbSpline
210
0
220
0
230
1
 70
8
 71
1
 72
4
 73
2
 74
0
 40
0.999877852
 40
0.999877852
 40
1.000000000
 40
1.000000000
 10
225.084219555
 20
153.463916582
 30
0.000000000
 10
225.085220492
 20
153.462969026
 30
0.000000000
  0
SPLINE
  5
BCA
330
A02
100
AcDbEntity
  8
V_05_Cradle_El_Bearing_Cap_R_2
100
AcDbSpline
210
0
220
0
230
1
 70
8
 71
1
 72
4
 73
2
 74
0
 40
0.000000000
 40
0.000000000
 40
0.009321433
 40
0.009321433
 10
194.914779508
 20
153.462969026
 30
0.000000000
 10
194.991398585
 20
153.535158805
 30
0.000000000
  0
SPLINE
  5
BCB
330
A02
100
AcDbEntity
  8
V_05_Cradle_El_Bearing_Cap_R_2
100
AcDbSpline
210
0
220
0
230
1
 70
8
 71
1
 72
4
 73
2
 74
0
 40
0.038201076
 40
0.038201076
 40
0.053239074
 40
0.053239074
 10
195.229952896
 20
153.755549668
 30
0.000000000
 10
195.353257205
 20
153.866934862
 30
0.000000000
  0
SPLINE
  5
BCC
330
A02
100
AcDbEntity
  8
V_05_Cradle_El_Bearing_Cap_R_2
100
AcDbSpline
210
0
220
0
230
1
 70
8
 71
1
 72
4
 73
2
 74
0
 40
0.074855344
 40
0.074855344
 40
0.075075249
 40
0.075075249
 10
195.526857409
 20
154.020916574
 30
0.000000000
 10
195.528592194
 20
154.022438836
 30
0.000000000
  0
SPLINE
  5
BCD
330
A02
100
AcDbEntity
  8
V_05_Cradle_El_Bearing_Cap_R_2
100
AcDbSpline
210
0
220
0
230
1
 70
8
 71
3
 72
11
 73
7
 74
0
 40
0.075295099
 40
0.075295099
 40
0.075295099
 40
0.075295099
 40
0.152441470
 40
0.152441470
 40
0.152441470
 40
0.243128172
 40
0.243128172
 40
0.243128172
 40
0.243128172
 10
195.530325798
 20
154.023959740
 30
0.000000000
 10
195.733099157
 20
154.201922219
 30
0.000000000
 10
195.920651032
 20
154.359394866
 30
0.000000000
 10
196.060587747
 20
154.474438671
 30
0.000000000
 10
196.225983514
 20
154.610329378
 30
0.000000000
 10
196.321360309
 20
154.685439504
 30
0.000000000
 10
196.320447779
 20
154.684900661
 30
0.000000000
  0
SPLINE
  5
BCE
330
A02
100
AcDbEntity
  8
V_05_Cradle_El_Bearing_Cap_R_2
100
AcDbSpline
210
0
220
0
230
1
 70
8
 71
2
 72
6
 73
3
 74
0
 40
0.733059937
 40
0.733059937
 40
0.733059937
 40
0.743266849
 40
0.743266849
 40
0.743266849
 10
193.512569051
 20
152.007261948
 30
0.000000000
 10
193.509113700
 20
152.003326530
 30
0.000000000
 10
193.509111235
 20
152.003323358
 30
0.000000000
  0
SPLINE
  5
BCF
330
A02
100
AcDbEntity
  8
V_05_Cradle_El_Bearing_Cap_R_2
100
AcDbSpline
210
0
220
0
230
1
 70
8
 71
3
 72
8
 73
4
 74
0
 40
0.847770219
 40
0.847770219
 40
0.847770219
 40
0.847770219
 40
0.981946536
 40
0.981946536
 40
0.981946536
 40
0.981946536
 10
193.826320806
 20
152.356929767
 30
0.000000000
 10
194.070239352
 20
152.623533110
 30
0.000000000
 10
194.406582979
 20
152.974762097
 30
0.000000000
 10
194.767624380
 20
153.322352990
 30
0.000000000
  0
SPLINE
  5
BD0
330
A02
100
AcDbEntity
  8
V_05_Cradle_El_Bearing_Cap_R_2
100
AcDbSpline
210
0
220
0
230
1
 70
8
 71
2
 72
30
 73
27
 74
0
 40
3.141592654
 40
3.141592654
 40
3.141592654
 40
3.253792391
 40
3.253792391
 40
3.365992129
 40
3.365992129
 40
3.478191866
 40
3.478191866
 40
3.590391604
 40
3.590391604
 40
3.702591342
 40
3.702591342
 40
3.814791079
 40
3.814791079
 40
3.926990817
 40
3.926990817
 40
4.039190555
 40
4.039190555
 40
4.151390292
 40
4.151390292
 40
4.263590030
 40
4.263590030
 40
4.375789768
 40
4.375789768
 40
4.487989505
 40
4.487989505
 40
4.712388980
 40
4.712388980
 40
4.712388980
 10
231.942138897
 20
137.528930551
 30
0.000000000
 10
231.927048695
 20
137.528930551
 30
0.000000000
 10
231.911958493
 20
137.528930551
 30
0.000000000
 10
231.866877654
 20
137.528930551
 30
0.000000000
 10
231.821796815
 20
137.528930551
 30
0.000000000
 10
231.747292257
 20
137.528930551
 30
0.000000000
 10
231.672787699
 20
137.528930551
 30
0.000000000
 10
231.569796361
 20
137.528930551
 30
0.000000000
 10
231.466805022
 20
137.528930551
 30
0.000000000
 10
231.336622079
 20
137.528930551
 30
0.000000000
 10
231.206439136
 20
137.528930551
 30
0.000000000
 10
231.050701713
 20
137.528930551
 30
0.000000000
 10
230.894964291
 20
137.528930551
 30
0.000000000
 10
230.715630878
 20
137.528930551
 30
0.000000000
 10
230.536297465
 20
137.528930551
 30
0.000000000
 10
230.335623284
 20
137.528930551
 30
0.000000000
 10
230.134949102
 20
137.528930551
 30
0.000000000
 10
229.915457746
 20
137.528930551
 30
0.000000000
 10
229.695966390
 20
137.528930551
 30
0.000000000
 10
229.460418090
 20
137.528930551
 30
0.000000000
 10
229.224869791
 20
137.528930551
 30
0.000000000
 10
228.976226705
 20
137.528930551
 30
0.000000000
 10
228.727583619
 20
137.528930551
 30
0.000000000
 10
228.468972577
 20
137.528930551
 30
0.000000000
 10
228.210361535
 20
137.528930551
 30
0.000000000
 10
227.681603052
 20
137.528930551
 30
0.000000000
 10
227.142296013
 20
137.528930551
 30
0.000000000
  0
ARC
  5
BD1
330
A02
100
AcDbEntity
  8
V_05_Cradle_El_Bearing_Cap_R_2
100
AcDbCircle
 10
210.000000000
 20
137.528930551
 30
0.000000000
 40
21.942138897
100
AcDbArc
 50
0.000000000
 51
90.000000000
  0
LINE
  5
BD2
330
A02
100
AcDbEntity
  8
V_05_Cradle_El_Bearing_Cap_R_2
100
AcDbLine
 10
223.782405995
 20
137.528930551
 30
0.000000000
 11
227.142296013
 21
137.528930551
 31
0.000000000
  0
LINE
  5
BD3
330
A02
100
AcDbEntity
  8
V_05_Cradle_El_Bearing_Cap_R_2
100
AcDbLine
 10
216.239795749
 20
137.528930551
 30
0.000000000
 11
223.782405995
 21
137.528930551
 31
0.000000000
  0
LINE
  5
BD4
330
A02
100
AcDbEntity
  8
V_05_Cradle_El_Bearing_Cap_R_2
100
AcDbLine
 10
196.217594005
 20
137.528930551
 30
0.000000000
 11
203.760204251
 21
137.528930551
 31
0.000000000
  0
LINE
  5
BD5
330
A02
100
AcDbEntity
  8
V_05_Cradle_El_Bearing_Cap_R_2
100
AcDbLine
 10
192.857703987
 20
137.528930551
 30
0.000000000
 11
196.217594005
 21
137.528930551
 31
0.000000000
  0
SPLINE
  5
BD6
330
A02
100
AcDbEntity
  8
V_05_Cradle_El_Bearing_Cap_R_2
100
AcDbSpline
210
0
220
0
230
1
 70
8
 71
2
 72
30
 73
27
 74
0
 40
0.000000000
 40
0.000000000
 40
0.000000000
 40
0.112199738
 40
0.112199738
 40
0.224399475
 40
0.224399475
 40
0.336599213
 40
0.336599213
 40
0.448798951
 40
0.448798951
 40
0.560998688
 40
0.560998688
 40
0.673198426
 40
0.673198426
 40
0.785398163
 40
0.785398163
 40
0.897597901
 40
0.897597901
 40
1.009797639
 40
1.009797639
 40
1.121997376
 40
1.121997376
 40
1.234197114
 40
1.234197114
 40
1.346396852
 40
1.346396852
 40
1.570796327
 40
1.570796327
 40
1.570796327
 10
188.057861103
 20
137.528930551
 30
0.000000000
 10
188.072951305
 20
137.528930551
 30
0.000000000
 10
188.088041507
 20
137.528930551
 30
0.000000000
 10
188.133122346
 20
137.528930551
 30
0.000000000
 10
188.178203185
 20
137.528930551
 30
0.000000000
 10
188.252707743
 20
137.528930551
 30
0.000000000
 10
188.327212301
 20
137.528930551
 30
0.000000000
 10
188.430203639
 20
137.528930551
 30
0.000000000
 10
188.533194978
 20
137.528930551
 30
0.000000000
 10
188.663377921
 20
137.528930551
 30
0.000000000
 10
188.793560864
 20
137.528930551
 30
0.000000000
 10
188.949298287
 20
137.528930551
 30
0.000000000
 10
189.105035709
 20
137.528930551
 30
0.000000000
 10
189.284369122
 20
137.528930551
 30
0.000000000
 10
189.463702535
 20
137.528930551
 30
0.000000000
 10
189.664376716
 20
137.528930551
 30
0.000000000
 10
189.865050898
 20
137.528930551
 30
0.000000000
 10
190.084542254
 20
137.528930551
 30
0.000000000
 10
190.304033610
 20
137.528930551
 30
0.000000000
 10
190.539581910
 20
137.528930551
 30
0.000000000
 10
190.775130209
 20
137.528930551
 30
0.000000000
 10
191.023773295
 20
137.528930551
 30
0.000000000
 10
191.272416381
 20
137.528930551
 30
0.000000000
 10
191.531027423
 20
137.528930551
 30
0.000000000
 10
191.789638465
 20
137.528930551
 30
0.000000000
 10
192.318396948
 20
137.528930551
 30
0.000000000
 10
192.857703987
 20
137.528930551
 30
0.000000000
  0
ARC
  5
BD7
330
A02
100
AcDbEntity
  8
V_05_Cradle_El_Bearing_Cap_R_2
100
AcDbCircle
 10
210.000000000
 20
137.528930551
 30
0.000000000
 40
21.942138897
100
AcDbArc
 50
90.000000000
 51
180.000000000
  0
ARC
  5
BD8
330
A02
100
AcDbEntity
  8
V_05_Cradle_El_Bearing_Cap_R_2
100
AcDbCircle
 10
210.000000000
 20
137.528930551
 30
0.000000000
 40
13.782405995
100
AcDbArc
 50
0.000000000
 51
90.000000000
  0
ARC
  5
BD9
330
A02
100
AcDbEntity
  8
V_05_Cradle_El_Bearing_Cap_R_2
100
AcDbCircle
 10
210.000000000
 20
137.528930551
 30
0.000000000
 40
13.782405995
100
AcDbArc
 50
90.000000000
 51
180.000000000
  0
ARC
  5
BDA
330
A02
100
AcDbEntity
  8
V_05_Cradle_El_Bearing_Cap_R_2
100
AcDbCircle
 10
210.000000000
 20
137.528930551
 30
0.000000000
 40
6.239795749
100
AcDbArc
 50
0.000000000
 51
90.000000000
  0
ARC
  5
BDB
330
A02
100
AcDbEntity
  8
V_05_Cradle_El_Bearing_Cap_R_2
100
AcDbCircle
 10
210.000000000
 20
137.528930551
 30
0.000000000
 40
6.239795749
100
AcDbArc
 50
90.000000000
 51
180.000000000
  0
ARC
  5
BDC
330
A02
100
AcDbEntity
  8
V_05_Cradle_El_Bearing_Cap_R_2
100
AcDbCircle
 10
210.000000000
 20
137.528930551
 30
0.000000000
 40
21.942138897
100
AcDbArc
 50
0.000000000
 51
90.000000000
  0
ARC
  5
BDD
330
A02
100
AcDbEntity
  8
V_05_Cradle_El_Bearing_Cap_R_2
100
AcDbCircle
 10
210.000000000
 20
137.528930551
 30
0.000000000
 40
21.942138897
100
AcDbArc
 50
90.000000000
 51
180.000000000
  0
ARC
  5
BDE
330
A02
100
AcDbEntity
  8
V_05_Cradle_El_Bearing_Cap_R_2
100
AcDbCircle
 10
210.000000000
 20
137.528930551
 30
0.000000000
 40
17.142296013
100
AcDbArc
 50
0.000000000
 51
90.000000000
  0
SPLINE
  5
BDF
330
A02
100
AcDbEntity
  8
V_05_Cradle_El_Bearing_Cap_R_2
100
AcDbSpline
210
0
220
0
230
1
 70
8
 71
2
 72
30
 73
27
 74
0
 40
0.000000000
 40
0.000000000
 40
0.000000000
 40
0.112199738
 40
0.112199738
 40
0.224399475
 40
0.224399475
 40
0.336599213
 40
0.336599213
 40
0.448798951
 40
0.448798951
 40
0.560998688
 40
0.560998688
 40
0.673198426
 40
0.673198426
 40
0.785398163
 40
0.785398163
 40
0.897597901
 40
0.897597901
 40
1.009797639
 40
1.009797639
 40
1.121997376
 40
1.121997376
 40
1.234197114
 40
1.234197114
 40
1.346396852
 40
1.346396852
 40
1.570796327
 40
1.570796327
 40
1.570796327
 10
210.000000000
 20
159.471069449
 30
0.000000000
 10
210.000000000
 20
159.455979246
 30
0.000000000
 10
210.000000000
 20
159.440889044
 30
0.000000000
 10
210.000000000
 20
159.395808205
 30
0.000000000
 10
210.000000000
 20
159.350727366
 30
0.000000000
 10
210.000000000
 20
159.276222809
 30
0.000000000
 10
210.000000000
 20
159.201718251
 30
0.000000000
 10
210.000000000
 20
159.098726912
 30
0.000000000
 10
210.000000000
 20
158.995735574
 30
0.000000000
 10
210.000000000
 20
158.865552630
 30
0.000000000
 10
210.000000000
 20
158.735369687
 30
0.000000000
 10
210.000000000
 20
158.579632265
 30
0.000000000
 10
210.000000000
 20
158.423894842
 30
0.000000000
 10
210.000000000
 20
158.244561429
 30
0.000000000
 10
210.000000000
 20
158.065228017
 30
0.000000000
 10
210.000000000
 20
157.864553835
 30
0.000000000
 10
210.000000000
 20
157.663879653
 30
0.000000000
 10
210.000000000
 20
157.444388297
 30
0.000000000
 10
210.000000000
 20
157.224896941
 30
0.000000000
 10
210.000000000
 20
156.989348642
 30
0.000000000
 10
210.000000000
 20
156.753800342
 30
0.000000000
 10
210.000000000
 20
156.505157256
 30
0.000000000
 10
210.000000000
 20
156.256514170
 30
0.000000000
 10
210.000000000
 20
155.997903128
 30
0.000000000
 10
210.000000000
 20
155.739292086
 30
0.000000000
 10
210.000000000
 20
155.210533603
 30
0.000000000
 10
210.000000000
 20
154.671226565
 30
0.000000000
  0
ARC
  5
BE0
330
A02
100
AcDbEntity
  8
V_05_Cradle_El_Bearing_Cap_R_2
100
AcDbCircle
 10
210.000000000
 20
137.528930551
 30
0.000000000
 40
17.142296013
100
AcDbArc
 50
90.000000000
 51
180.000000000
  0
ELLIPSE
  5
BE1
330
A02
100
AcDbEntity
  8
V_05_Cradle_El_Bearing_Cap_R_3
100
AcDbEllipse
 10
203.236362423
 20
146.868737954
 30
0.000000000
 11
-10.971069449
 21
-19.002449698
 31
0.000000000
 40
0.577350269
 41
3.141592654
 42
3.926990817
  0
SPLINE
  5
BE2
330
A02
100
AcDbEntity
  8
V_05_Cradle_El_Bearing_Cap_R_3
100
AcDbSpline
210
0
220
0
230
1
 70
8
 71
2
 72
6
 73
3
 74
0
 40
0.000000000
 40
0.000000000
 40
0.000000000
 40
0.053924751
 40
0.053924751
 40
0.053924751
 10
220.666984164
 20
162.132282688
 30
0.000000000
 10
220.824690316
 20
162.050807197
 30
0.000000000
 10
221.018888784
 20
161.938591170
 30
0.000000000
  0
SPLINE
  5
BE3
330
A02
100
AcDbEntity
  8
V_05_Cradle_El_Bearing_Cap_R_3
100
AcDbSpline
210
0
220
0
230
1
 70
8
 71
3
 72
8
 73
4
 74
0
 40
0.053924751
 40
0.053924751
 40
0.053924751
 40
0.053924751
 40
0.202449662
 40
0.202449662
 40
0.202449662
 40
0.202449662
 10
221.018888784
 20
161.938591170
 30
0.000000000
 10
221.371202010
 20
161.736069484
 30
0.000000000
 10
221.809557825
 20
161.456286643
 30
0.000000000
 10
222.231723420
 20
161.194905117
 30
0.000000000
  0
SPLINE
  5
BE4
330
A02
100
AcDbEntity
  8
V_05_Cradle_El_Bearing_Cap_R_3
100
AcDbSpline
210
0
220
0
230
1
 70
8
 71
3
 72
17
 73
13
 74
0
 40
0.459732631
 40
0.459732631
 40
0.459732631
 40
0.459732631
 40
0.588755140
 40
0.588755140
 40
0.588755140
 40
0.683804521
 40
0.683804521
 40
0.683804521
 40
0.795918983
 40
0.795918983
 40
0.795918983
 40
0.872851053
 40
0.872851053
 40
0.872851053
 40
0.872851053
 10
222.911410167
 20
160.845943440
 30
0.000000000
 10
222.754454339
 20
160.937166786
 30
0.000000000
 10
222.479330589
 20
161.076254974
 30
0.000000000
 10
222.121531281
 20
161.248170167
 30
0.000000000
 10
221.859725427
 20
161.374439741
 30
0.000000000
 10
221.553559304
 20
161.519587779
 30
0.000000000
 10
221.264381340
 20
161.664602213
 30
0.000000000
 10
220.922842452
 20
161.835206898
 30
0.000000000
 10
220.615539386
 20
162.003974298
 30
0.000000000
 10
220.439247754
 20
162.121951272
 30
0.000000000
 10
220.316427385
 20
162.204718264
 30
0.000000000
 10
220.255102621
 20
162.257852291
 30
0.000000000
 10
220.255273460
 20
162.281353354
 30
0.000000000
  0
SPLINE
  5
BE5
330
A02
100
AcDbEntity
  8
V_05_Cradle_El_Bearing_Cap_R_3
100
AcDbSpline
210
0
220
0
230
1
 70
8
 71
3
 72
8
 73
4
 74
0
 40
0.872851053
 40
0.872851053
 40
0.872851053
 40
0.872851053
 40
1.000000000
 40
1.000000000
 40
1.000000000
 40
1.000000000
 10
220.255273460
 20
162.281353354
 30
0.000000000
 10
220.254842485
 20
162.319000053
 30
0.000000000
 10
220.421413865
 20
162.259723405
 30
0.000000000
 10
220.666984164
 20
162.132282688
 30
0.000000000
  0
LINE
  5
BE6
330
A02
100
AcDbEntity
  8
V_05_Cradle_El_Bearing_Cap_R_3
100
AcDbLine
 10
187.720927215
 20
137.910897260
 30
0.000000000
 11
199.842360971
 21
130.912584218
 31
0.000000000
  0
ELLIPSE
  5
BE7
330
A02
100
AcDbEntity
  8
V_05_Cradle_El_Bearing_Cap_R_3
100
AcDbEllipse
 10
203.236362423
 20
146.868737954
 30
0.000000000
 11
-10.971069449
 21
-19.002449698
 31
0.000000000
 40
0.577350269
 41
3.926990817
 42
5.497787144
  0
SPLINE
  5
BE8
330
A02
100
AcDbEntity
  8
V_05_Cradle_El_Bearing_Cap_R_3
100
AcDbSpline
210
0
220
0
230
1
 70
8
 71
3
 72
17
 73
13
 74
0
 40
0.000000000
 40
0.000000000
 40
0.000000000
 40
0.000000000
 40
0.084325170
 40
0.084325170
 40
0.084325170
 40
0.173424755
 40
0.173424755
 40
0.173424755
 40
0.284452685
 40
0.284452685
 40
0.284452685
 40
0.359110028
 40
0.359110028
 40
0.359110028
 40
0.359110028
 10
199.333260754
 20
149.815251734
 30
0.000000000
 10
199.495916159
 20
150.087331619
 30
0.000000000
 10
199.705024133
 20
150.337280763
 30
0.000000000
 10
199.944809682
 20
150.530682842
 30
0.000000000
 10
200.197402001
 20
150.735562987
 30
0.000000000
 10
200.484803253
 20
150.873553422
 30
0.000000000
 10
200.754303612
 20
150.909305859
 30
0.000000000
 10
201.090773572
 20
150.956715645
 30
0.000000000
 10
201.389933154
 20
150.839950806
 30
0.000000000
 10
201.559584024
 20
150.592792665
 30
0.000000000
 10
201.675091616
 20
150.428042232
 30
0.000000000
 10
201.733333343
 20
150.207939084
 30
0.000000000
 10
201.732886595
 20
149.964322394
 30
0.000000000
  0
SPLINE
  5
BE9
330
A02
100
AcDbEntity
  8
V_05_Cradle_El_Bearing_Cap_R_3
100
AcDbSpline
210
0
220
0
230
1
 70
8
 71
3
 72
20
 73
16
 74
0
 40
0.359110028
 40
0.359110028
 40
0.359110028
 40
0.359110028
 40
0.480872256
 40
0.480872256
 40
0.480872256
 40
0.608835195
 40
0.608835195
 40
0.608835195
 40
0.666740835
 40
0.666740835
 40
0.666740835
 40
0.743266849
 40
0.743266849
 40
0.743266849
 40
0.864372653
 40
0.864372653
 40
0.864372653
 40
0.864372653
 10
201.732886595
 20
149.964322394
 30
0.000000000
 10
201.733341328
 20
149.565438683
 30
0.000000000
 10
201.580509968
 20
149.115491859
 30
0.000000000
 10
201.351906393
 20
148.719872928
 30
0.000000000
 10
201.110975078
 20
148.302901863
 30
0.000000000
 10
200.789280964
 20
147.934364123
 30
0.000000000
 10
200.437533555
 20
147.683781144
 30
0.000000000
 10
200.277002844
 20
147.568622131
 30
0.000000000
 10
200.113206056
 20
147.485134324
 30
0.000000000
 10
199.946143191
 20
147.433317725
 30
0.000000000
 10
199.727506683
 20
147.367000366
 30
0.000000000
 10
199.507979194
 20
147.373652744
 30
0.000000000
 10
199.333260754
 20
147.475732698
 30
0.000000000
 10
199.052026914
 20
147.635361268
 30
0.000000000
 10
198.918573541
 20
148.017777072
 30
0.000000000
 10
198.921550055
 20
148.421940396
 30
0.000000000
  0
SPLINE
  5
BEA
330
A02
100
AcDbEntity
  8
V_05_Cradle_El_Bearing_Cap_R_3
100
AcDbSpline
210
0
220
0
230
1
 70
8
 71
3
 72
8
 73
4
 74
0
 40
0.864372653
 40
0.864372653
 40
0.864372653
 40
0.864372653
 40
1.000000000
 40
1.000000000
 40
1.000000000
 40
1.000000000
 10
198.921550055
 20
148.421940396
 30
0.000000000
 10
198.922574157
 20
148.878570336
 30
0.000000000
 10
199.071395593
 20
149.376854828
 30
0.000000000
 10
199.333260754
 20
149.815251734
 30
0.000000000
  0
ELLIPSE
  5
BEB
330
A02
100
AcDbEntity
  8
V_05_Cradle_El_Bearing_Cap_R_3
100
AcDbEllipse
 10
227.479229935
 20
146.868737954
 30
0.000000000
 11
-4.799842884
 21
0.000000000
 31
0.000000000
 40
0.577350269
 41
-3.926990817
 42
-3.141592654
  0
LINE
  5
BEC
330
A02
100
AcDbEntity
  8
V_05_Cradle_El_Bearing_Cap_R_3
100
AcDbLine
 10
228.497430371
 20
143.537540946
 30
0.000000000
 11
230.873231387
 21
144.909210302
 31
0.000000000
  0
LINE
  5
BED
330
A02
100
AcDbEntity
  8
V_05_Cradle_El_Bearing_Cap_R_3
100
AcDbLine
 10
227.770144346
 20
143.957439728
 30
0.000000000
 11
228.497430371
 21
143.537540946
 31
0.000000000
  0
LINE
  5
BEE
330
A02
100
AcDbEntity
  8
V_05_Cradle_El_Bearing_Cap_R_3
100
AcDbLine
 10
222.436713493
 20
140.878181990
 30
0.000000000
 11
227.770144346
 21
143.957439728
 31
0.000000000
  0
LINE
  5
BEF
330
A02
100
AcDbEntity
  8
V_05_Cradle_El_Bearing_Cap_R_3
100
AcDbLine
 10
218.024511606
 20
143.425567937
 30
0.000000000
 11
222.436713493
 21
140.878181990
 31
0.000000000
  0
LINE
  5
BF0
330
A02
100
AcDbEntity
  8
V_05_Cradle_El_Bearing_Cap_R_3
100
AcDbLine
 10
209.033340318
 20
133.139740879
 30
0.000000000
 11
213.612309718
 21
135.783410095
 31
0.000000000
  0
LINE
  5
BF1
330
A02
100
AcDbEntity
  8
V_05_Cradle_El_Bearing_Cap_R_3
100
AcDbLine
 10
206.630363875
 20
130.912584218
 30
0.000000000
 11
209.006164891
 21
132.284253574
 31
0.000000000
  0
ELLIPSE
  5
BF2
330
A02
100
AcDbEntity
  8
V_05_Cradle_El_Bearing_Cap_R_3
100
AcDbEllipse
 10
203.236362423
 20
132.872111870
 30
0.000000000
 11
4.799842884
 21
0.000000000
 31
0.000000000
 40
0.577350269
 41
3.926990817
 42
5.497787144
  0
ELLIPSE
  5
BF3
330
A02
100
AcDbEntity
  8
V_05_Cradle_El_Bearing_Cap_R_3
100
AcDbEllipse
 10
218.751797631
 20
137.910897260
 30
0.000000000
 11
-6.891202997
 21
-11.935913717
 31
0.000000000
 40
0.577350269
 41
2.356194490
 42
3.141592654
  0
ELLIPSE
  5
BF4
330
A02
100
AcDbEntity
  8
V_05_Cradle_El_Bearing_Cap_R_3
100
AcDbEllipse
 10
218.751797631
 20
137.910897260
 30
0.000000000
 11
-6.891202997
 21
-11.935913717
 31
0.000000000
 40
0.577350269
 41
3.141592654
 42
3.926990817
  0
ELLIPSE
  5
BF5
330
A02
100
AcDbEntity
  8
V_05_Cradle_El_Bearing_Cap_R_3
100
AcDbEllipse
 10
218.751797631
 20
137.910897260
 30
0.000000000
 11
-6.891202997
 21
-11.935913717
 31
0.000000000
 40
0.577350269
 41
3.926990817
 42
5.497787144
  0
ELLIPSE
  5
BF6
330
A02
100
AcDbEntity
  8
V_05_Cradle_El_Bearing_Cap_R_3
100
AcDbEllipse
 10
218.024511606
 20
138.330796043
 30
0.000000000
 11
-3.119897874
 21
-5.403821633
 31
0.000000000
 40
0.577350269
 41
2.356194490
 42
3.141592654
  0
ELLIPSE
  5
BF7
330
A02
100
AcDbEntity
  8
V_05_Cradle_El_Bearing_Cap_R_3
100
AcDbEllipse
 10
218.024511606
 20
138.330796043
 30
0.000000000
 11
-3.119897874
 21
-5.403821633
 31
0.000000000
 40
0.577350269
 41
3.141592654
 42
3.926990817
  0
ELLIPSE
  5
BF8
330
A02
100
AcDbEntity
  8
V_05_Cradle_El_Bearing_Cap_R_3
100
AcDbEllipse
 10
218.024511606
 20
138.330796043
 30
0.000000000
 11
-3.119897874
 21
-5.403821633
 31
0.000000000
 40
0.577350269
 41
3.926990817
 42
5.497787144
  0
ELLIPSE
  5
BF9
330
A02
100
AcDbEntity
  8
V_05_Cradle_El_Bearing_Cap_R_3
100
AcDbEllipse
 10
218.024511606
 20
138.330796043
 30
0.000000000
 11
-6.891202997
 21
-11.935913717
 31
0.000000000
 40
0.577350269
 41
2.356194490
 42
3.088798970
  0
LINE
  5
BFA
330
A02
100
AcDbEntity
  8
V_05_Cradle_El_Bearing_Cap_R_3
100
AcDbLine
 10
214.207431872
 20
165.871187652
 30
0.000000000
 11
221.018888784
 21
161.938591170
 31
0.000000000
  0
LINE
  5
BFB
330
A02
100
AcDbEntity
  8
V_05_Cradle_El_Bearing_Cap_R_3
100
AcDbLine
 10
222.911410167
 20
160.845943440
 30
0.000000000
 11
226.328865628
 21
158.872874610
 31
0.000000000
  0
SPLINE
  5
BFC
330
A02
100
AcDbEntity
  8
V_05_Cradle_El_Bearing_Cap_R_3
100
AcDbSpline
210
0
220
0
230
1
 70
8
 71
3
 72
11
 73
7
 74
0
 40
0.000000000
 40
0.000000000
 40
0.000000000
 40
0.000000000
 40
0.500000000
 40
0.500000000
 40
0.500000000
 40
1.000000000
 40
1.000000000
 40
1.000000000
 40
1.000000000
 10
232.279072819
 20
146.868737954
 30
0.000000000
 10
232.278829058
 20
149.639251174
 30
0.000000000
 10
231.730510825
 20
152.256407688
 30
0.000000000
 10
230.523982864
 20
154.489378801
 30
0.000000000
 10
229.546052375
 20
156.307735270
 30
0.000000000
 10
228.102943377
 20
157.853670008
 30
0.000000000
 10
226.328865628
 20
158.872874610
 30
0.000000000
  0
ELLIPSE
  5
BFD
330
A02
100
AcDbEntity
  8
V_05_Cradle_El_Bearing_Cap_R_3
100
AcDbEllipse
 10
215.357796179
 20
139.870424912
 30
0.000000000
 11
-10.971069449
 21
-19.002449698
 31
0.000000000
 40
0.577350269
 41
3.141592654
 42
3.926990817
  0
ELLIPSE
  5
BFE
330
A02
100
AcDbEntity
  8
V_05_Cradle_El_Bearing_Cap_R_3
100
AcDbEllipse
 10
215.357796179
 20
139.870424912
 30
0.000000000
 11
-10.971069449
 21
-19.002449698
 31
0.000000000
 40
0.577350269
 41
3.926990817
 42
5.497787144
  0
ELLIPSE
  5
BFF
330
A02
100
AcDbEntity
  8
V_05_Cradle_El_Bearing_Cap_R_3
100
AcDbEllipse
 10
218.751797631
 20
137.910897260
 30
0.000000000
 11
-8.571148007
 21
-14.845663827
 31
0.000000000
 40
0.577350269
 41
2.356194490
 42
3.926990817
  0
ELLIPSE
  5
C00
330
A02
100
AcDbEntity
  8
V_05_Cradle_El_Bearing_Cap_R_3
100
AcDbEllipse
 10
215.357796179
 20
153.867050996
 30
0.000000000
 11
2.399921442
 21
-4.156785872
 31
0.000000000
 40
0.577350269
 41
-5.497787144
 42
-3.926990817
  0
ELLIPSE
  5
C01
330
A02
100
AcDbEntity
  8
V_05_Cradle_El_Bearing_Cap_R_3
100
AcDbEllipse
 10
218.751797631
 20
137.910897260
 30
0.000000000
 11
-8.571148007
 21
-14.845663827
 31
0.000000000
 40
0.577350269
 41
3.926990817
 42
5.497787144
  0
TEXT
  5
C02
330
A02
100
AcDbEntity
  8
A_05_Cradle_El_Bearing_Cap_R
100
AcDbText
 10
210.000000000
 20
148.500000000
 30
0.000000000
 40
3.500000000
  1
El_Bearing_Cap_R  (white)
  7
STANDARD
 72
1
 11
210.000000000
 21
148.500000000
 31
0.000000000
100
AcDbText
  0
SPLINE
  5
C03
330
A02
100
AcDbEntity
  8
V_05_Cradle_El_Bushing_R_Lower_0
100
AcDbSpline
210
0
220
0
230
1
 70
8
 71
1
 72
17
 73
15
 74
0
 40
1.570796327
 40
1.570796327
 40
1.682996064
 40
1.795195802
 40
1.907395540
 40
2.019595277
 40
2.131795015
 40
2.243994753
 40
2.356194490
 40
2.468394228
 40
2.580593965
 40
2.692793703
 40
2.804993441
 40
2.917193178
 40
3.029392916
 40
3.141592654
 40
3.141592654
 10
230.000000000
 20
157.500000000
 30
0.000000000
 10
230.000000000
 20
155.484639430
 30
0.000000000
 10
230.000000000
 20
153.494623189
 30
0.000000000
 10
230.000000000
 20
151.554976885
 30
0.000000000
 10
230.000000000
 20
149.690092696
 30
0.000000000
 10
230.000000000
 20
147.923422623
 30
0.000000000
 10
230.000000000
 20
146.277183567
 30
0.000000000
 10
230.000000000
 20
144.772077939
 30
0.000000000
 10
230.000000000
 20
143.427033316
 30
0.000000000
 10
230.000000000
 20
142.258964414
 30
0.000000000
 10
230.000000000
 20
141.282560378
 30
0.000000000
 10
230.000000000
 20
140.510100054
 30
0.000000000
 10
230.000000000
 20
139.951297581
 30
0.000000000
 10
230.000000000
 20
139.613180222
 30
0.000000000
 10
230.000000000
 20
139.500000000
 30
0.000000000
  0
SPLINE
  5
C04
330
A02
100
AcDbEntity
  8
V_05_Cradle_El_Bushing_R_Lower_0
100
AcDbSpline
210
0
220
0
230
1
 70
8
 71
1
 72
17
 73
15
 74
0
 40
1.570796327
 40
1.570796327
 40
1.682996064
 40
1.795195802
 40
1.907395540
 40
2.019595277
 40
2.131795015
 40
2.243994753
 40
2.356194490
 40
2.468394228
 40
2.580593965
 40
2.692793703
 40
2.804993441
 40
2.917193178
 40
3.029392916
 40
3.141592654
 40
3.141592654
 10
190.000000000
 20
157.500000000
 30
0.000000000
 10
190.000000000
 20
155.484639430
 30
0.000000000
 10
190.000000000
 20
153.494623189
 30
0.000000000
 10
190.000000000
 20
151.554976885
 30
0.000000000
 10
190.000000000
 20
149.690092696
 30
0.000000000
 10
190.000000000
 20
147.923422623
 30
0.000000000
 10
190.000000000
 20
146.277183567
 30
0.000000000
 10
190.000000000
 20
144.772077939
 30
0.000000000
 10
190.000000000
 20
143.427033316
 30
0.000000000
 10
190.000000000
 20
142.258964414
 30
0.000000000
 10
190.000000000
 20
141.282560378
 30
0.000000000
 10
190.000000000
 20
140.510100054
 30
0.000000000
 10
190.000000000
 20
139.951297581
 30
0.000000000
 10
190.000000000
 20
139.613180222
 30
0.000000000
 10
190.000000000
 20
139.500000000
 30
0.000000000
  0
LINE
  5
C05
330
A02
100
AcDbEntity
  8
V_05_Cradle_El_Bushing_R_Lower_0
100
AcDbLine
 10
190.000000000
 20
157.500000000
 30
0.000000000
 11
230.000000000
 21
157.500000000
 31
0.000000000
  0
LINE
  5
C06
330
A02
100
AcDbEntity
  8
V_05_Cradle_El_Bushing_R_Lower_0
100
AcDbLine
 10
190.000000000
 20
139.500000000
 30
0.000000000
 11
230.000000000
 21
139.500000000
 31
0.000000000
  0
LINE
  5
C07
330
A02
100
AcDbEntity
  8
V_05_Cradle_El_Bushing_R_Lower_1
100
AcDbLine
 10
190.000000000
 20
166.500000000
 30
0.000000000
 11
230.000000000
 21
166.500000000
 31
0.000000000
  0
LINE
  5
C08
330
A02
100
AcDbEntity
  8
V_05_Cradle_El_Bushing_R_Lower_1
100
AcDbLine
 10
190.000000000
 20
130.500000000
 30
0.000000000
 11
230.000000000
 21
130.500000000
 31
0.000000000
  0
LINE
  5
C09
330
A02
100
AcDbEntity
  8
V_05_Cradle_El_Bushing_R_Lower_1
100
AcDbLine
 10
230.000000000
 20
130.500000000
 30
0.000000000
 11
230.000000000
 21
133.250000000
 31
0.000000000
  0
SPLINE
  5
C0A
330
A02
100
AcDbEntity
  8
V_05_Cradle_El_Bushing_R_Lower_1
100
AcDbSpline
210
0
220
0
230
1
 70
8
 71
1
 72
17
 73
15
 74
0
 40
1.570796327
 40
1.570796327
 40
1.795195802
 40
2.019595277
 40
2.243994753
 40
2.468394228
 40
2.692793703
 40
2.917193178
 40
3.141592654
 40
3.365992129
 40
3.590391604
 40
3.814791079
 40
4.039190555
 40
4.263590030
 40
4.487989505
 40
4.712388980
 40
4.712388980
 10
230.000000000
 20
133.250000000
 30
0.000000000
 10
230.000000000
 20
133.632349339
 30
0.000000000
 10
230.000000000
 20
134.760224764
 30
0.000000000
 10
230.000000000
 20
136.577069892
 30
0.000000000
 10
230.000000000
 20
138.991780522
 30
0.000000000
 10
230.000000000
 20
141.883272978
 30
0.000000000
 10
230.000000000
 20
145.106555757
 30
0.000000000
 10
230.000000000
 20
148.500000000
 30
0.000000000
 10
230.000000000
 20
151.893444243
 30
0.000000000
 10
230.000000000
 20
155.116727022
 30
0.000000000
 10
230.000000000
 20
158.008219478
 30
0.000000000
 10
230.000000000
 20
160.422930108
 30
0.000000000
 10
230.000000000
 20
162.239775236
 30
0.000000000
 10
230.000000000
 20
163.367650661
 30
0.000000000
 10
230.000000000
 20
163.750000000
 30
0.000000000
  0
LINE
  5
C0B
330
A02
100
AcDbEntity
  8
V_05_Cradle_El_Bushing_R_Lower_1
100
AcDbLine
 10
230.000000000
 20
163.750000000
 30
0.000000000
 11
230.000000000
 21
166.500000000
 31
0.000000000
  0
LINE
  5
C0C
330
A02
100
AcDbEntity
  8
V_05_Cradle_El_Bushing_R_Lower_1
100
AcDbLine
 10
190.000000000
 20
163.750000000
 30
0.000000000
 11
190.000000000
 21
166.500000000
 31
0.000000000
  0
LINE
  5
C0D
330
A02
100
AcDbEntity
  8
V_05_Cradle_El_Bushing_R_Lower_1
100
AcDbLine
 10
190.000000000
 20
163.750000000
 30
0.000000000
 11
230.000000000
 21
163.750000000
 31
0.000000000
  0
LINE
  5
C0E
330
A02
100
AcDbEntity
  8
V_05_Cradle_El_Bushing_R_Lower_1
100
AcDbLine
 10
190.000000000
 20
130.500000000
 30
0.000000000
 11
190.000000000
 21
133.250000000
 31
0.000000000
  0
SPLINE
  5
C0F
330
A02
100
AcDbEntity
  8
V_05_Cradle_El_Bushing_R_Lower_1
100
AcDbSpline
210
0
220
0
230
1
 70
8
 71
1
 72
17
 73
15
 74
0
 40
1.570796327
 40
1.570796327
 40
1.795195802
 40
2.019595277
 40
2.243994753
 40
2.468394228
 40
2.692793703
 40
2.917193178
 40
3.141592654
 40
3.365992129
 40
3.590391604
 40
3.814791079
 40
4.039190555
 40
4.263590030
 40
4.487989505
 40
4.712388980
 40
4.712388980
 10
190.000000000
 20
133.250000000
 30
0.000000000
 10
190.000000000
 20
133.632349339
 30
0.000000000
 10
190.000000000
 20
134.760224764
 30
0.000000000
 10
190.000000000
 20
136.577069892
 30
0.000000000
 10
190.000000000
 20
138.991780522
 30
0.000000000
 10
190.000000000
 20
141.883272978
 30
0.000000000
 10
190.000000000
 20
145.106555757
 30
0.000000000
 10
190.000000000
 20
148.500000000
 30
0.000000000
 10
190.000000000
 20
151.893444243
 30
0.000000000
 10
190.000000000
 20
155.116727022
 30
0.000000000
 10
190.000000000
 20
158.008219478
 30
0.000000000
 10
190.000000000
 20
160.422930108
 30
0.000000000
 10
190.000000000
 20
162.239775236
 30
0.000000000
 10
190.000000000
 20
163.367650661
 30
0.000000000
 10
190.000000000
 20
163.750000000
 30
0.000000000
  0
LINE
  5
C10
330
A02
100
AcDbEntity
  8
V_05_Cradle_El_Bushing_R_Lower_1
100
AcDbLine
 10
190.000000000
 20
133.250000000
 30
0.000000000
 11
230.000000000
 21
133.250000000
 31
0.000000000
  0
ARC
  5
C11
330
A02
100
AcDbEntity
  8
V_05_Cradle_El_Bushing_R_Lower_2
100
AcDbCircle
 10
210.000000000
 20
157.500000000
 30
0.000000000
 40
18.000000000
100
AcDbArc
 50
-180.000000000
 51
-0.000000000
  0
LINE
  5
C12
330
A02
100
AcDbEntity
  8
V_05_Cradle_El_Bushing_R_Lower_2
100
AcDbLine
 10
192.000000000
 20
157.500000000
 30
0.000000000
 11
194.750000000
 21
157.500000000
 31
0.000000000
  0
ARC
  5
C13
330
A02
100
AcDbEntity
  8
V_05_Cradle_El_Bushing_R_Lower_2
100
AcDbCircle
 10
210.000000000
 20
157.500000000
 30
0.000000000
 40
15.250000000
100
AcDbArc
 50
-180.000000000
 51
-0.000000000
  0
LINE
  5
C14
330
A02
100
AcDbEntity
  8
V_05_Cradle_El_Bushing_R_Lower_2
100
AcDbLine
 10
225.250000000
 20
157.500000000
 30
0.000000000
 11
228.000000000
 21
157.500000000
 31
0.000000000
  0
ELLIPSE
  5
C15
330
A02
100
AcDbEntity
  8
V_05_Cradle_El_Bushing_R_Lower_3
100
AcDbEllipse
 10
224.142135624
 20
144.876637939
 30
0.000000000
 11
-9.000000000
 21
-15.588457268
 31
0.000000000
 40
0.577350269
 41
5.497787144
 42
0.000000000
  0
ELLIPSE
  5
C16
330
A02
100
AcDbEntity
  8
V_05_Cradle_El_Bushing_R_Lower_3
100
AcDbEllipse
 10
224.142135624
 20
144.876637939
 30
0.000000000
 11
-9.000000000
 21
-15.588457268
 31
0.000000000
 40
0.577350269
 41
0.000000000
 42
2.356194490
  0
LINE
  5
C17
330
A02
100
AcDbEntity
  8
V_05_Cradle_El_Bushing_R_Lower_3
100
AcDbLine
 10
208.585786438
 20
168.555038786
 30
0.000000000
 11
236.870057685
 21
152.225107167
 31
0.000000000
  0
ELLIPSE
  5
C18
330
A02
100
AcDbEntity
  8
V_05_Cradle_El_Bushing_R_Lower_3
100
AcDbEllipse
 10
195.857864376
 20
161.206569558
 30
0.000000000
 11
-9.000000000
 21
-15.588457268
 31
0.000000000
 40
0.577350269
 41
5.497787144
 42
0.000000000
  0
LINE
  5
C19
330
A02
100
AcDbEntity
  8
V_05_Cradle_El_Bushing_R_Lower_3
100
AcDbLine
 10
183.129942315
 20
153.858100329
 30
0.000000000
 11
211.414213562
 21
137.528168711
 31
0.000000000
  0
LINE
  5
C1A
330
A02
100
AcDbEntity
  8
V_05_Cradle_El_Bushing_R_Lower_3
100
AcDbLine
 10
211.414213562
 20
137.528168711
 30
0.000000000
 11
213.358757211
 21
138.650851510
 31
0.000000000
  0
ELLIPSE
  5
C1B
330
A02
100
AcDbEntity
  8
V_05_Cradle_El_Bushing_R_Lower_3
100
AcDbEllipse
 10
224.142135624
 20
144.876637939
 30
0.000000000
 11
-7.625000000
 21
-13.206887408
 31
0.000000000
 40
0.577350269
 41
5.497787144
 42
0.000000000
  0
ELLIPSE
  5
C1C
330
A02
100
AcDbEntity
  8
V_05_Cradle_El_Bushing_R_Lower_3
100
AcDbEllipse
 10
224.142135624
 20
144.876637939
 30
0.000000000
 11
-7.625000000
 21
-13.206887408
 31
0.000000000
 40
0.577350269
 41
0.000000000
 42
2.356194490
  0
LINE
  5
C1D
330
A02
100
AcDbEntity
  8
V_05_Cradle_El_Bushing_R_Lower_3
100
AcDbLine
 10
234.925514037
 20
151.102424369
 30
0.000000000
 11
236.870057685
 21
152.225107167
 31
0.000000000
  0
LINE
  5
C1E
330
A02
100
AcDbEntity
  8
V_05_Cradle_El_Bushing_R_Lower_3
100
AcDbLine
 10
206.641242789
 20
167.432355987
 30
0.000000000
 11
208.585786438
 21
168.555038786
 31
0.000000000
  0
LINE
  5
C1F
330
A02
100
AcDbEntity
  8
V_05_Cradle_El_Bushing_R_Lower_3
100
AcDbLine
 10
206.641242789
 20
167.432355987
 30
0.000000000
 11
234.925514037
 21
151.102424369
 31
0.000000000
  0
LINE
  5
C20
330
A02
100
AcDbEntity
  8
V_05_Cradle_El_Bushing_R_Lower_3
100
AcDbLine
 10
183.129942315
 20
153.858100329
 30
0.000000000
 11
185.074485963
 21
154.980783128
 31
0.000000000
  0
ELLIPSE
  5
C21
330
A02
100
AcDbEntity
  8
V_05_Cradle_El_Bushing_R_Lower_3
100
AcDbEllipse
 10
195.857864376
 20
161.206569558
 30
0.000000000
 11
-7.625000000
 21
-13.206887408
 31
0.000000000
 40
0.577350269
 41
0.785398163
 42
2.356194490
  0
LINE
  5
C22
330
A02
100
AcDbEntity
  8
V_05_Cradle_El_Bushing_R_Lower_3
100
AcDbLine
 10
185.074485963
 20
154.980783128
 30
0.000000000
 11
213.358757211
 21
138.650851510
 31
0.000000000
  0
LINE
  5
C23
330
A02
100
AcDbEntity
  8
V_05_Cradle_El_Bushing_R_Lower_3
100
AcDbLine
 10
186.857864376
 20
145.618112290
 30
0.000000000
 11
215.142135624
 21
129.288180671
 31
0.000000000
  0
TEXT
  5
C24
330
A02
100
AcDbEntity
  8
A_05_Cradle_El_Bushing_R_Lower
100
AcDbText
 10
210.000000000
 20
148.500000000
 30
0.000000000
 40
3.500000000
  1
El_Bushing_R_Lower  (white)
  7
STANDARD
 72
1
 11
210.000000000
 21
148.500000000
 31
0.000000000
100
AcDbText
  0
ENDSEC
  0
SECTION
  2
OBJECTS
  0
DICTIONARY
  5
F000
330
0
100
AcDbDictionary
  3
ACAD_GROUP
350
F001
  0
DICTIONARY
  5
F001
330
F000
100
AcDbDictionary
  0
ENDSEC
  0
EOF