999
FreeCAD v1.1 44987 (Git)
  0
SECTION
  2
HEADER
  9
$ACADVER
  1
AC1014
  9
$ACADMAINTVER
 70
     9
  9
$DWGCODEPAGE
  3
ANSI_1252
  9
$TEXTSTYLE
  7
STANDARD
  9
$DIMSTYLE
  2
STANDARD
  9
$DIMTXSTY
  7
STANDARD
  9
$CMLSTYLE
  2
STANDARD
  9
$LUNITS
 70
2
  9
$INSUNITS
 70
4
  9
$PEXTMAX
 10
50
 20
50
 30
50
  9
$PEXTMIN
 10
0
 20
0
 30
0
  9
$HANDSEED
  5
FFFF
  0
ENDSEC
  0
SECTION
  2
CLASSES
  0
CLASS
  1
ACDBDICTIONARYWDFLT
  2
AcDbDictionaryWithDefault
  3
ObjectDBX Classes
 90
        0
280
     0
281
     0
  0
CLASS
  1
XRECORD
  2
AcDbXrecord
  3
ObjectDBX Classes
 90
        0
280
     0
281
     0
  0
CLASS
  1
LWPOLYLINE
  2
AcDbPolyline
  3
ObjectDBX Classes
 90
        0
280
     0
281
     1
  0
ENDSEC
  0
SECTION
  2
TABLES
  0
TABLE
  2
VPORT
  5
20
330
0
100
AcDbSymbolTable
 70
     1
  0
VPORT
  5
21
330
20
100
AcDbSymbolTableRecord
100
AcDbViewportTableRecord
  2
*ACTIVE
 70
     0
  0
ENDTAB
  0
TABLE
  2
LTYPE
  5
22
330
0
100
AcDbSymbolTable
 70
     1
  0
LTYPE
  5
23
330
21
100
AcDbSymbolTableRecord
100
AcDbLinetypeTableRecord
  2
BYBLOCK
 70
     0
  3

 72
    65
 73
     0
 40
0.0
  0
LTYPE
  5
24
330
21
100
AcDbSymbolTableRecord
100
AcDbLinetypeTableRecord
  2
BYLAYER
 70
     0
  3

 72
    65
 73
     0
 40
0.0
  0
LTYPE
  5
25
330
21
100
AcDbSymbolTableRecord
100
AcDbLinetypeTableRecord
  2
CONTINUOUS
 70
     0
  3
Solid line
 72
    65
 73
     0
 40
0.0
  0
ENDTAB
  0
TABLE
  2
LAYER
  5
BEE
330
0
100
AcDbSymbolTable
 70
31
  0
LAYER
  5
BEF
330
BEE
100
AcDbSymbolTableRecord
100
AcDbLayerTableRecord
  2
0
 70
   0
 62
   7
  6
CONTINUOUS
  0
LAYER
  5
BF0
330
BEE
100
AcDbSymbolTableRecord
100
AcDbLayerTableRecord
  2
V_09_Adapters_Small_Dish_Adapter_Plate_0
 70
    0
 62
    7
  6
CONTINUOUS
  0
LAYER
  5
BF1
330
BEE
100
AcDbSymbolTableRecord
100
AcDbLayerTableRecord
  2
V_09_Adapters_Small_Dish_Adapter_Plate_1
 70
    0
 62
    7
  6
CONTINUOUS
  0
LAYER
  5
BF2
330
BEE
100
AcDbSymbolTableRecord
100
AcDbLayerTableRecord
  2
V_09_Adapters_Small_Dish_Adapter_Plate_2
 70
    0
 62
    7
  6
CONTINUOUS
  0
LAYER
  5
BF3
330
BEE
100
AcDbSymbolTableRecord
100
AcDbLayerTableRecord
  2
V_09_Adapters_Small_Dish_Adapter_Plate_3
 70
    0
 62
    7
  6
CONTINUOUS
  0
LAYER
  5
BF4
330
BEE
100
AcDbSymbolTableRecord
100
AcDbLayerTableRecord
  2
A_09_Adapters_Small_Dish_Adapter_Plate
 70
    0
 62
    7
  6
CONTINUOUS
  0
LAYER
  5
BF5
330
BEE
100
AcDbSymbolTableRecord
100
AcDbLayerTableRecord
  2
V_09_Adapters_Small_Dish_Adapter_PipeStub_0
 70
    0
 62
    7
  6
CONTINUOUS
  0
LAYER
  5
BF6
330
BEE
100
AcDbSymbolTableRecord
100
AcDbLayerTableRecord
  2
V_09_Adapters_Small_Dish_Adapter_PipeStub_1
 70
    0
 62
    7
  6
CONTINUOUS
  0
LAYER
  5
BF7
330
BEE
100
AcDbSymbolTableRecord
100
AcDbLayerTableRecord
  2
V_09_Adapters_Small_Dish_Adapter_PipeStub_2
 70
    0
 62
    7
  6
CONTINUOUS
  0
LAYER
  5
BF8
330
BEE
100
AcDbSymbolTableRecord
100
AcDbLayerTableRecord
  2
V_09_Adapters_Small_Dish_Adapter_PipeStub_3
 70
    0
 62
    7
  6
CONTINUOUS
  0
LAYER
  5
BF9
330
BEE
100
AcDbSymbolTableRecord
100
AcDbLayerTableRecord
  2
A_09_Adapters_Small_Dish_Adapter_PipeStub
 70
    0
 62
    7
  6
CONTINUOUS
  0
LAYER
  5
BFA
330
BEE
100
AcDbSymbolTableRecord
100
AcDbLayerTableRecord
  2
V_09_Adapters_Small_SlipRing_Stub_Clamp_0
 70
    0
 62
    7
  6
CONTINUOUS
  0
LAYER
  5
BFB
330
BEE
100
AcDbSymbolTableRecord
100
AcDbLayerTableRecord
  2
V_09_Adapters_Small_SlipRing_Stub_Clamp_1
 70
    0
 62
    7
  6
CONTINUOUS
  0
LAYER
  5
BFC
330
BEE
100
AcDbSymbolTableRecord
100
AcDbLayerTableRecord
  2
V_09_Adapters_Small_SlipRing_Stub_Clamp_2
 70
    0
 62
    7
  6
CONTINUOUS
  0
LAYER
  5
BFD
330
BEE
100
AcDbSymbolTableRecord
100
AcDbLayerTableRecord
  2
V_09_Adapters_Small_SlipRing_Stub_Clamp_3
 70
    0
 62
    7
  6
CONTINUOUS
  0
LAYER
  5
BFE
330
BEE
100
AcDbSymbolTableRecord
100
AcDbLayerTableRecord
  2
A_09_Adapters_Small_SlipRing_Stub_Clamp
 70
    0
 62
    7
  6
CONTINUOUS
  0
LAYER
  5
BFF
330
BEE
100
AcDbSymbolTableRecord
100
AcDbLayerTableRecord
  2
V_09_Adapters_Small_Az_Servo_Clamp_0
 70
    0
 62
    7
  6
CONTINUOUS
  0
LAYER
  5
C00
330
BEE
100
AcDbSymbolTableRecord
100
AcDbLayerTableRecord
  2
V_09_Adapters_Small_Az_Servo_Clamp_1
 70
    0
 62
    7
  6
CONTINUOUS
  0
LAYER
  5
C01
330
BEE
100
AcDbSymbolTableRecord
100
AcDbLayerTableRecord
  2
V_09_Adapters_Small_Az_Servo_Clamp_2
 70
    0
 62
    7
  6
CONTINUOUS
  0
LAYER
  5
C02
330
BEE
100
AcDbSymbolTableRecord
100
AcDbLayerTableRecord
  2
V_09_Adapters_Small_Az_Servo_Clamp_3
 70
    0
 62
    7
  6
CONTINUOUS
  0
LAYER
  5
C03
330
BEE
100
AcDbSymbolTableRecord
100
AcDbLayerTableRecord
  2
A_09_Adapters_Small_Az_Servo_Clamp
 70
    0
 62
    7
  6
CONTINUOUS
  0
LAYER
  5
C04
330
BEE
100
AcDbSymbolTableRecord
100
AcDbLayerTableRecord
  2
V_09_Adapters_Small_Sensor_Gear_Keeper_0
 70
    0
 62
    7
  6
CONTINUOUS
  0
LAYER
  5
C05
330
BEE
100
AcDbSymbolTableRecord
100
AcDbLayerTableRecord
  2
V_09_Adapters_Small_Sensor_Gear_Keeper_1
 70
    0
 62
    7
  6
CONTINUOUS
  0
LAYER
  5
C06
330
BEE
100
AcDbSymbolTableRecord
100
AcDbLayerTableRecord
  2
V_09_Adapters_Small_Sensor_Gear_Keeper_2
 70
    0
 62
    7
  6
CONTINUOUS
  0
LAYER
  5
C07
330
BEE
100
AcDbSymbolTableRecord
100
AcDbLayerTableRecord
  2
V_09_Adapters_Small_Sensor_Gear_Keeper_3
 70
    0
 62
    7
  6
CONTINUOUS
  0
LAYER
  5
C08
330
BEE
100
AcDbSymbolTableRecord
100
AcDbLayerTableRecord
  2
A_09_Adapters_Small_Sensor_Gear_Keeper
 70
    0
 62
    7
  6
CONTINUOUS
  0
LAYER
  5
C09
330
BEE
100
AcDbSymbolTableRecord
100
AcDbLayerTableRecord
  2
V_09_Adapters_Small_Status_Window_0
 70
    0
 62
    7
  6
CONTINUOUS
  0
LAYER
  5
C0A
330
BEE
100
AcDbSymbolTableRecord
100
AcDbLayerTableRecord
  2
V_09_Adapters_Small_Status_Window_1
 70
    0
 62
    7
  6
CONTINUOUS
  0
LAYER
  5
C0B
330
BEE
100
AcDbSymbolTableRecord
100
AcDbLayerTableRecord
  2
V_09_Adapters_Small_Status_Window_2
 70
    0
 62
    7
  6
CONTINUOUS
  0
LAYER
  5
C0C
330
BEE
100
AcDbSymbolTableRecord
100
AcDbLayerTableRecord
  2
V_09_Adapters_Small_Status_Window_3
 70
    0
 62
    7
  6
CONTINUOUS
  0
LAYER
  5
C0D
330
BEE
100
AcDbSymbolTableRecord
100
AcDbLayerTableRecord
  2
A_09_Adapters_Small_Status_Window
 70
    0
 62
    7
  6
CONTINUOUS
  0
ENDTAB
  0
TABLE
  2
STYLE
  5
70
330
0
100
AcDbSymbolTable
 70
     2
  0
STYLE
  5
71
330
70
100
AcDbSymbolTableRecord
100
AcDbTextStyleTableRecord
  2
STANDARD
 70
     0
 40
0.0
 41
1.0
 50
0.0
 71
     0
 42
2.5
  3
arial.ttf
  4

  0
STYLE
  5
72
330
70
100
AcDbSymbolTableRecord
100
AcDbTextStyleTableRecord
  2
ANNOTATIVE
 70
     0
 40
0.0
 41
1.0
 50
0.0
 71
     0
 42
2.5
  3
arial.ttf
  4

  0
ENDTAB
  0
TABLE
  2
VIEW
  5
73
330
0
100
AcDbSymbolTable
 70
     0
  0
ENDTAB
  0
TABLE
  2
UCS
  5
74
330
0
100
AcDbSymbolTable
 70
     0
  0
ENDTAB
  0
TABLE
  2
APPID
  5
75
330
0
100
AcDbSymbolTable
 70
     2
  0
APPID
  5
76
330
75
100
AcDbSymbolTableRecord
100
AcDbRegAppTableRecord
  2
ACAD
 70
     0
  0
APPID
  5
77
330
75
100
AcDbSymbolTableRecord
100
AcDbRegAppTableRecord
  2
ACADANNOTATIVE
 70
     0
  0
ENDTAB
  0
TABLE
  2
DIMSTYLE
  5
78
330
0
100
AcDbSymbolTable
 70
     2
  0
DIMSTYLE
105
79
330
78
100
AcDbSymbolTableRecord
100
AcDbDimStyleTableRecord
  2
STANDARD
 70
     0
  3

  4

  5

  6

  7

 40
0.0
 41
2.5
 42
0.625
 43
3.75
 44
1.25
 45
0.0
 46
0.0
 47
0.0
 48
0.0
140
2.5
141
2.5
142
0.0
143
0.03937007874016
144
1.0
145
0.0
146
1.0
147
0.625
 71
     0
 72
     0
 73
     0
 74
     0
 75
     0
 76
     0
 77
     1
 78
     8
170
     0
171
     3
172
     1
173
     0
174
     0
175
     0
176
     0
177
     0
178
     0
270
     2
271
     2
272
     2
273
     2
274
     3
340
71
275
     0
280
     0
281
     0
282
     0
283
     0
284
     8
285
     0
286
     0
287
     3
288
     0
  0
ENDTAB
  0
TABLE
  2
BLOCK_RECORD
  5
A01
330
0
100
AcDbSymbolTable
  70
5
  0
BLOCK_RECORD
  5
A02
330
A01
100
AcDbSymbolTableRecord
100
AcDbBlockTableRecord
  2
*MODEL_SPACE
  0
BLOCK_RECORD
  5
A03
330
A01
100
AcDbSymbolTableRecord
100
AcDbBlockTableRecord
  2
*PAPER_SPACE
  0
ENDTAB
  0
ENDSEC
  0
SECTION
  2
BLOCKS
  0
BLOCK
  5
A04
330
A02
100
AcDbEntity
  8
0
100
AcDbBlockBegin
  2
*MODEL_SPACE
 70
   0
 10
0
 20
0
 30
0
  3
*MODEL_SPACE
  1
 
  0
ENDBLK
  5
A05
330
A02
100
AcDbEntity
  8
0
100
AcDbBlockEnd
  0
BLOCK
  5
A06
330
A03
100
AcDbEntity
 67
1
  8
0
100
AcDbBlockBegin
  2
*PAPER_SPACE
 70
   0
 10
0
 20
0
 30
0
  3
*PAPER_SPACE
  1
 
  0
ENDBLK
  5
A07
330
A03
100
AcDbEntity
 67
    1
  8
0
100
AcDbBlockEnd
  0
ENDSEC
  0
SECTION
  2
ENTITIES
  0
CIRCLE
  5
A08
330
A02
100
AcDbEntity
  8
V_09_Adapters_Small_Dish_Adapter_Plate_0
100
AcDbCircle
 10
210.000000000
 20
148.500000000
 30
0.000000000
 40
23.750000000
  0
LINE
  5
A09
330
A02
100
AcDbEntity
  8
V_09_Adapters_Small_Dish_Adapter_Plate_0
100
AcDbLine
 10
194.745644335
 20
131.286369295
 30
0.000000000
 11
192.786369295
 21
133.245644335
 31
0.000000000
  0
LINE
  5
A0A
330
A02
100
AcDbEntity
  8
V_09_Adapters_Small_Dish_Adapter_Plate_0
100
AcDbLine
 10
194.745644335
 20
131.286369295
 30
0.000000000
 11
201.463158756
 21
138.003883717
 31
0.000000000
  0
LINE
  5
A0B
330
A02
100
AcDbEntity
  8
V_09_Adapters_Small_Dish_Adapter_Plate_0
100
AcDbLine
 10
192.786369295
 20
133.245644335
 30
0.000000000
 11
199.503883717
 21
139.963158756
 31
0.000000000
  0
LINE
  5
A0C
330
A02
100
AcDbEntity
  8
V_09_Adapters_Small_Dish_Adapter_Plate_0
100
AcDbLine
 10
201.463158756
 20
138.003883717
 30
0.000000000
 11
199.503883717
 21
139.963158756
 31
0.000000000
  0
LINE
  5
A0D
330
A02
100
AcDbEntity
  8
V_09_Adapters_Small_Dish_Adapter_Plate_0
100
AcDbLine
 10
187.041666667
 20
147.114583333
 30
0.000000000
 11
187.041666667
 21
149.885416667
 31
0.000000000
  0
LINE
  5
A0E
330
A02
100
AcDbEntity
  8
V_09_Adapters_Small_Dish_Adapter_Plate_0
100
AcDbLine
 10
187.041666667
 20
147.114583333
 30
0.000000000
 11
196.541666667
 21
147.114583333
 31
0.000000000
  0
LINE
  5
A0F
330
A02
100
AcDbEntity
  8
V_09_Adapters_Small_Dish_Adapter_Plate_0
100
AcDbLine
 10
187.041666667
 20
149.885416667
 30
0.000000000
 11
196.541666667
 21
149.885416667
 31
0.000000000
  0
LINE
  5
A10
330
A02
100
AcDbEntity
  8
V_09_Adapters_Small_Dish_Adapter_Plate_0
100
AcDbLine
 10
196.541666667
 20
147.114583333
 30
0.000000000
 11
196.541666667
 21
149.885416667
 31
0.000000000
  0
LINE
  5
A11
330
A02
100
AcDbEntity
  8
V_09_Adapters_Small_Dish_Adapter_Plate_0
100
AcDbLine
 10
192.749246600
 20
140.497610155
 30
0.000000000
 11
192.143331165
 21
141.960419415
 31
0.000000000
  0
LINE
  5
A12
330
A02
100
AcDbEntity
  8
V_09_Adapters_Small_Dish_Adapter_Plate_0
100
AcDbLine
 10
192.749246600
 20
140.497610155
 30
0.000000000
 11
199.356295572
 21
143.234339447
 31
0.000000000
  0
LINE
  5
A13
330
A02
100
AcDbEntity
  8
V_09_Adapters_Small_Dish_Adapter_Plate_0
100
AcDbLine
 10
192.143331165
 20
141.960419415
 30
0.000000000
 11
198.750380138
 21
144.697148707
 31
0.000000000
  0
ARC
  5
A14
330
A02
100
AcDbEntity
  8
V_09_Adapters_Small_Dish_Adapter_Plate_0
100
AcDbCircle
 10
210.000000000
 20
148.500000000
 30
0.000000000
 40
11.875000000
100
AcDbArc
 50
-161.322553729
 51
-153.677446271
  0
LINE
  5
A15
330
A02
100
AcDbEntity
  8
V_09_Adapters_Small_Dish_Adapter_Plate_0
100
AcDbLine
 10
203.460419415
 20
130.643331165
 30
0.000000000
 11
201.997610155
 21
131.249246600
 31
0.000000000
  0
LINE
  5
A16
330
A02
100
AcDbEntity
  8
V_09_Adapters_Small_Dish_Adapter_Plate_0
100
AcDbLine
 10
203.460419415
 20
130.643331165
 30
0.000000000
 11
206.197148707
 21
137.250380138
 31
0.000000000
  0
LINE
  5
A17
330
A02
100
AcDbEntity
  8
V_09_Adapters_Small_Dish_Adapter_Plate_0
100
AcDbLine
 10
201.997610155
 20
131.249246600
 30
0.000000000
 11
204.734339447
 21
137.856295572
 31
0.000000000
  0
ARC
  5
A18
330
A02
100
AcDbEntity
  8
V_09_Adapters_Small_Dish_Adapter_Plate_0
100
AcDbCircle
 10
210.000000000
 20
148.500000000
 30
0.000000000
 40
11.875000000
100
AcDbArc
 50
-116.322553729
 51
-108.677446271
  0
CIRCLE
  5
A19
330
A02
100
AcDbEntity
  8
V_09_Adapters_Small_Dish_Adapter_Plate_0
100
AcDbCircle
 10
203.282485579
 20
141.782485579
 30
0.000000000
 40
1.088541667
  0
LINE
  5
A1A
330
A02
100
AcDbEntity
  8
V_09_Adapters_Small_Dish_Adapter_Plate_0
100
AcDbLine
 10
192.143331165
 20
155.039580585
 30
0.000000000
 11
192.749246600
 21
156.502389845
 31
0.000000000
  0
LINE
  5
A1B
330
A02
100
AcDbEntity
  8
V_09_Adapters_Small_Dish_Adapter_Plate_0
100
AcDbLine
 10
192.143331165
 20
155.039580585
 30
0.000000000
 11
198.750380138
 21
152.302851293
 31
0.000000000
  0
LINE
  5
A1C
330
A02
100
AcDbEntity
  8
V_09_Adapters_Small_Dish_Adapter_Plate_0
100
AcDbLine
 10
192.749246600
 20
156.502389845
 30
0.000000000
 11
199.356295572
 21
153.765660553
 31
0.000000000
  0
ARC
  5
A1D
330
A02
100
AcDbEntity
  8
V_09_Adapters_Small_Dish_Adapter_Plate_0
100
AcDbCircle
 10
210.000000000
 20
148.500000000
 30
0.000000000
 40
11.875000000
100
AcDbArc
 50
153.677446271
 51
161.322553729
  0
LINE
  5
A1E
330
A02
100
AcDbEntity
  8
V_09_Adapters_Small_Dish_Adapter_Plate_0
100
AcDbLine
 10
192.786369295
 20
163.754355665
 30
0.000000000
 11
194.745644335
 21
165.713630705
 31
0.000000000
  0
LINE
  5
A1F
330
A02
100
AcDbEntity
  8
V_09_Adapters_Small_Dish_Adapter_Plate_0
100
AcDbLine
 10
192.786369295
 20
163.754355665
 30
0.000000000
 11
199.503883717
 21
157.036841244
 31
0.000000000
  0
LINE
  5
A20
330
A02
100
AcDbEntity
  8
V_09_Adapters_Small_Dish_Adapter_Plate_0
100
AcDbLine
 10
194.745644335
 20
165.713630705
 30
0.000000000
 11
201.463158756
 21
158.996116283
 31
0.000000000
  0
LINE
  5
A21
330
A02
100
AcDbEntity
  8
V_09_Adapters_Small_Dish_Adapter_Plate_0
100
AcDbLine
 10
199.503883717
 20
157.036841244
 30
0.000000000
 11
201.463158756
 21
158.996116283
 31
0.000000000
  0
CIRCLE
  5
A22
330
A02
100
AcDbEntity
  8
V_09_Adapters_Small_Dish_Adapter_Plate_0
100
AcDbCircle
 10
203.282485579
 20
155.217514421
 30
0.000000000
 40
1.088541667
  0
LINE
  5
A23
330
A02
100
AcDbEntity
  8
V_09_Adapters_Small_Dish_Adapter_Plate_0
100
AcDbLine
 10
201.997610155
 20
165.750753400
 30
0.000000000
 11
203.460419415
 21
166.356668835
 31
0.000000000
  0
LINE
  5
A24
330
A02
100
AcDbEntity
  8
V_09_Adapters_Small_Dish_Adapter_Plate_0
100
AcDbLine
 10
201.997610155
 20
165.750753400
 30
0.000000000
 11
204.734339447
 21
159.143704428
 31
0.000000000
  0
LINE
  5
A25
330
A02
100
AcDbEntity
  8
V_09_Adapters_Small_Dish_Adapter_Plate_0
100
AcDbLine
 10
203.460419415
 20
166.356668835
 30
0.000000000
 11
206.197148707
 21
159.749619862
 31
0.000000000
  0
ARC
  5
A26
330
A02
100
AcDbEntity
  8
V_09_Adapters_Small_Dish_Adapter_Plate_0
100
AcDbCircle
 10
210.000000000
 20
148.500000000
 30
0.000000000
 40
11.875000000
100
AcDbArc
 50
108.677446271
 51
116.322553729
  0
LINE
  5
A27
330
A02
100
AcDbEntity
  8
V_09_Adapters_Small_Dish_Adapter_Plate_0
100
AcDbLine
 10
211.385416667
 20
125.541666667
 30
0.000000000
 11
208.614583333
 21
125.541666667
 31
0.000000000
  0
LINE
  5
A28
330
A02
100
AcDbEntity
  8
V_09_Adapters_Small_Dish_Adapter_Plate_0
100
AcDbLine
 10
211.385416667
 20
125.541666667
 30
0.000000000
 11
211.385416667
 21
135.041666667
 31
0.000000000
  0
LINE
  5
A29
330
A02
100
AcDbEntity
  8
V_09_Adapters_Small_Dish_Adapter_Plate_0
100
AcDbLine
 10
208.614583333
 20
125.541666667
 30
0.000000000
 11
208.614583333
 21
135.041666667
 31
0.000000000
  0
LINE
  5
A2A
330
A02
100
AcDbEntity
  8
V_09_Adapters_Small_Dish_Adapter_Plate_0
100
AcDbLine
 10
211.385416667
 20
135.041666667
 30
0.000000000
 11
208.614583333
 21
135.041666667
 31
0.000000000
  0
LINE
  5
A2B
330
A02
100
AcDbEntity
  8
V_09_Adapters_Small_Dish_Adapter_Plate_0
100
AcDbLine
 10
218.002389845
 20
131.249246600
 30
0.000000000
 11
216.539580585
 21
130.643331165
 31
0.000000000
  0
LINE
  5
A2C
330
A02
100
AcDbEntity
  8
V_09_Adapters_Small_Dish_Adapter_Plate_0
100
AcDbLine
 10
218.002389845
 20
131.249246600
 30
0.000000000
 11
215.265660553
 21
137.856295572
 31
0.000000000
  0
LINE
  5
A2D
330
A02
100
AcDbEntity
  8
V_09_Adapters_Small_Dish_Adapter_Plate_0
100
AcDbLine
 10
216.539580585
 20
130.643331165
 30
0.000000000
 11
213.802851293
 21
137.250380138
 31
0.000000000
  0
ARC
  5
A2E
330
A02
100
AcDbEntity
  8
V_09_Adapters_Small_Dish_Adapter_Plate_0
100
AcDbCircle
 10
210.000000000
 20
148.500000000
 30
0.000000000
 40
11.875000000
100
AcDbArc
 50
-71.322553729
 51
-63.677446271
  0
CIRCLE
  5
A2F
330
A02
100
AcDbEntity
  8
V_09_Adapters_Small_Dish_Adapter_Plate_0
100
AcDbCircle
 10
216.717514421
 20
141.782485579
 30
0.000000000
 40
1.088541667
  0
LINE
  5
A30
330
A02
100
AcDbEntity
  8
V_09_Adapters_Small_Dish_Adapter_Plate_0
100
AcDbLine
 10
227.213630705
 20
133.245644335
 30
0.000000000
 11
225.254355665
 21
131.286369295
 31
0.000000000
  0
LINE
  5
A31
330
A02
100
AcDbEntity
  8
V_09_Adapters_Small_Dish_Adapter_Plate_0
100
AcDbLine
 10
227.213630705
 20
133.245644335
 30
0.000000000
 11
220.496116283
 21
139.963158756
 31
0.000000000
  0
LINE
  5
A32
330
A02
100
AcDbEntity
  8
V_09_Adapters_Small_Dish_Adapter_Plate_0
100
AcDbLine
 10
225.254355665
 20
131.286369295
 30
0.000000000
 11
218.536841244
 21
138.003883717
 31
0.000000000
  0
LINE
  5
A33
330
A02
100
AcDbEntity
  8
V_09_Adapters_Small_Dish_Adapter_Plate_0
100
AcDbLine
 10
220.496116283
 20
139.963158756
 30
0.000000000
 11
218.536841244
 21
138.003883717
 31
0.000000000
  0
LINE
  5
A34
330
A02
100
AcDbEntity
  8
V_09_Adapters_Small_Dish_Adapter_Plate_0
100
AcDbLine
 10
227.856668835
 20
141.960419415
 30
0.000000000
 11
227.250753400
 21
140.497610155
 31
0.000000000
  0
LINE
  5
A35
330
A02
100
AcDbEntity
  8
V_09_Adapters_Small_Dish_Adapter_Plate_0
100
AcDbLine
 10
227.856668835
 20
141.960419415
 30
0.000000000
 11
221.249619862
 21
144.697148707
 31
0.000000000
  0
LINE
  5
A36
330
A02
100
AcDbEntity
  8
V_09_Adapters_Small_Dish_Adapter_Plate_0
100
AcDbLine
 10
227.250753400
 20
140.497610155
 30
0.000000000
 11
220.643704428
 21
143.234339447
 31
0.000000000
  0
ARC
  5
A37
330
A02
100
AcDbEntity
  8
V_09_Adapters_Small_Dish_Adapter_Plate_0
100
AcDbCircle
 10
210.000000000
 20
148.500000000
 30
0.000000000
 40
11.875000000
100
AcDbArc
 50
-26.322553729
 51
-18.677446271
  0
CIRCLE
  5
A38
330
A02
100
AcDbEntity
  8
V_09_Adapters_Small_Dish_Adapter_Plate_0
100
AcDbCircle
 10
210.000000000
 20
148.500000000
 30
0.000000000
 40
2.375000000
  0
CIRCLE
  5
A39
330
A02
100
AcDbEntity
  8
V_09_Adapters_Small_Dish_Adapter_Plate_0
100
AcDbCircle
 10
216.717514421
 20
155.217514421
 30
0.000000000
 40
1.088541667
  0
LINE
  5
A3A
330
A02
100
AcDbEntity
  8
V_09_Adapters_Small_Dish_Adapter_Plate_0
100
AcDbLine
 10
208.614583333
 20
171.458333333
 30
0.000000000
 11
211.385416667
 21
171.458333333
 31
0.000000000
  0
LINE
  5
A3B
330
A02
100
AcDbEntity
  8
V_09_Adapters_Small_Dish_Adapter_Plate_0
100
AcDbLine
 10
208.614583333
 20
171.458333333
 30
0.000000000
 11
208.614583333
 21
161.958333333
 31
0.000000000
  0
LINE
  5
A3C
330
A02
100
AcDbEntity
  8
V_09_Adapters_Small_Dish_Adapter_Plate_0
100
AcDbLine
 10
211.385416667
 20
171.458333333
 30
0.000000000
 11
211.385416667
 21
161.958333333
 31
0.000000000
  0
LINE
  5
A3D
330
A02
100
AcDbEntity
  8
V_09_Adapters_Small_Dish_Adapter_Plate_0
100
AcDbLine
 10
208.614583333
 20
161.958333333
 30
0.000000000
 11
211.385416667
 21
161.958333333
 31
0.000000000
  0
LINE
  5
A3E
330
A02
100
AcDbEntity
  8
V_09_Adapters_Small_Dish_Adapter_Plate_0
100
AcDbLine
 10
216.539580585
 20
166.356668835
 30
0.000000000
 11
218.002389845
 21
165.750753400
 31
0.000000000
  0
LINE
  5
A3F
330
A02
100
AcDbEntity
  8
V_09_Adapters_Small_Dish_Adapter_Plate_0
100
AcDbLine
 10
216.539580585
 20
166.356668835
 30
0.000000000
 11
213.802851293
 21
159.749619862
 31
0.000000000
  0
LINE
  5
A40
330
A02
100
AcDbEntity
  8
V_09_Adapters_Small_Dish_Adapter_Plate_0
100
AcDbLine
 10
218.002389845
 20
165.750753400
 30
0.000000000
 11
215.265660553
 21
159.143704428
 31
0.000000000
  0
ARC
  5
A41
330
A02
100
AcDbEntity
  8
V_09_Adapters_Small_Dish_Adapter_Plate_0
100
AcDbCircle
 10
210.000000000
 20
148.500000000
 30
0.000000000
 40
11.875000000
100
AcDbArc
 50
63.677446271
 51
71.322553729
  0
LINE
  5
A42
330
A02
100
AcDbEntity
  8
V_09_Adapters_Small_Dish_Adapter_Plate_0
100
AcDbLine
 10
227.250753400
 20
156.502389845
 30
0.000000000
 11
227.856668835
 21
155.039580585
 31
0.000000000
  0
LINE
  5
A43
330
A02
100
AcDbEntity
  8
V_09_Adapters_Small_Dish_Adapter_Plate_0
100
AcDbLine
 10
227.250753400
 20
156.502389845
 30
0.000000000
 11
220.643704428
 21
153.765660553
 31
0.000000000
  0
LINE
  5
A44
330
A02
100
AcDbEntity
  8
V_09_Adapters_Small_Dish_Adapter_Plate_0
100
AcDbLine
 10
227.856668835
 20
155.039580585
 30
0.000000000
 11
221.249619862
 21
152.302851293
 31
0.000000000
  0
ARC
  5
A45
330
A02
100
AcDbEntity
  8
V_09_Adapters_Small_Dish_Adapter_Plate_0
100
AcDbCircle
 10
210.000000000
 20
148.500000000
 30
0.000000000
 40
11.875000000
100
AcDbArc
 50
18.677446271
 51
26.322553729
  0
LINE
  5
A46
330
A02
100
AcDbEntity
  8
V_09_Adapters_Small_Dish_Adapter_Plate_0
100
AcDbLine
 10
232.958333333
 20
149.885416667
 30
0.000000000
 11
232.958333333
 21
147.114583333
 31
0.000000000
  0
LINE
  5
A47
330
A02
100
AcDbEntity
  8
V_09_Adapters_Small_Dish_Adapter_Plate_0
100
AcDbLine
 10
232.958333333
 20
149.885416667
 30
0.000000000
 11
223.458333333
 21
149.885416667
 31
0.000000000
  0
LINE
  5
A48
330
A02
100
AcDbEntity
  8
V_09_Adapters_Small_Dish_Adapter_Plate_0
100
AcDbLine
 10
232.958333333
 20
147.114583333
 30
0.000000000
 11
223.458333333
 21
147.114583333
 31
0.000000000
  0
LINE
  5
A49
330
A02
100
AcDbEntity
  8
V_09_Adapters_Small_Dish_Adapter_Plate_0
100
AcDbLine
 10
223.458333333
 20
149.885416667
 30
0.000000000
 11
223.458333333
 21
147.114583333
 31
0.000000000
  0
LINE
  5
A4A
330
A02
100
AcDbEntity
  8
V_09_Adapters_Small_Dish_Adapter_Plate_0
100
AcDbLine
 10
225.254355665
 20
165.713630705
 30
0.000000000
 11
227.213630705
 21
163.754355665
 31
0.000000000
  0
LINE
  5
A4B
330
A02
100
AcDbEntity
  8
V_09_Adapters_Small_Dish_Adapter_Plate_0
100
AcDbLine
 10
225.254355665
 20
165.713630705
 30
0.000000000
 11
218.536841244
 21
158.996116283
 31
0.000000000
  0
LINE
  5
A4C
330
A02
100
AcDbEntity
  8
V_09_Adapters_Small_Dish_Adapter_Plate_0
100
AcDbLine
 10
227.213630705
 20
163.754355665
 30
0.000000000
 11
220.496116283
 21
157.036841244
 31
0.000000000
  0
LINE
  5
A4D
330
A02
100
AcDbEntity
  8
V_09_Adapters_Small_Dish_Adapter_Plate_0
100
AcDbLine
 10
218.536841244
 20
158.996116283
 30
0.000000000
 11
220.496116283
 21
157.036841244
 31
0.000000000
  0
SPLINE
  5
A4E
330
A02
100
AcDbEntity
  8
V_09_Adapters_Small_Dish_Adapter_Plate_1
100
AcDbSpline
210
0
220
0
230
1
 70
8
 71
1
 72
17
 73
15
 74
0
 40
0.000000000
 40
0.000000000
 40
0.112199738
 40
0.224399475
 40
0.336599213
 40
0.448798951
 40
0.560998688
 40
0.673198426
 40
0.785398163
 40
0.897597901
 40
1.009797639
 40
1.121997376
 40
1.234197114
 40
1.346396852
 40
1.458596589
 40
1.570796327
 40
1.570796327
 10
210.000000000
 20
150.083333333
 30
0.000000000
 10
212.659156307
 20
150.083333333
 30
0.000000000
 10
215.284872181
 20
150.083333333
 30
0.000000000
 10
217.844127721
 20
150.083333333
 30
0.000000000
 10
220.304738804
 20
150.083333333
 30
0.000000000
 10
222.635761817
 20
150.083333333
 30
0.000000000
 10
224.807882794
 20
150.083333333
 30
0.000000000
 10
226.793786053
 20
150.083333333
 30
0.000000000
 10
228.568497709
 20
150.083333333
 30
0.000000000
 10
230.109699732
 20
150.083333333
 30
0.000000000
 10
231.398010613
 20
150.083333333
 30
0.000000000
 10
232.417229095
 20
150.083333333
 30
0.000000000
 10
233.154537914
 20
150.083333333
 30
0.000000000
 10
233.600664985
 20
150.083333333
 30
0.000000000
 10
233.750000000
 20
150.083333333
 30
0.000000000
  0
SPLINE
  5
A4F
330
A02
100
AcDbEntity
  8
V_09_Adapters_Small_Dish_Adapter_Plate_1
100
AcDbSpline
210
0
220
0
230
1
 70
8
 71
1
 72
17
 73
15
 74
0
 40
4.712388980
 40
4.712388980
 40
4.824588718
 40
4.936788456
 40
5.048988193
 40
5.161187931
 40
5.273387669
 40
5.385587406
 40
5.497787144
 40
5.609986881
 40
5.722186619
 40
5.834386357
 40
5.946586094
 40
6.058785832
 40
6.170985570
 40
6.283185307
 40
6.283185307
 10
186.250000000
 20
150.083333333
 30
0.000000000
 10
186.399335015
 20
150.083333333
 30
0.000000000
 10
186.845462086
 20
150.083333333
 30
0.000000000
 10
187.582770905
 20
150.083333333
 30
0.000000000
 10
188.601989387
 20
150.083333333
 30
0.000000000
 10
189.890300268
 20
150.083333333
 30
0.000000000
 10
191.431502291
 20
150.083333333
 30
0.000000000
 10
193.206213947
 20
150.083333333
 30
0.000000000
 10
195.192117206
 20
150.083333333
 30
0.000000000
 10
197.364238183
 20
150.083333333
 30
0.000000000
 10
199.695261196
 20
150.083333333
 30
0.000000000
 10
202.155872279
 20
150.083333333
 30
0.000000000
 10
204.715127819
 20
150.083333333
 30
0.000000000
 10
207.340843693
 20
150.083333333
 30
0.000000000
 10
210.000000000
 20
150.083333333
 30
0.000000000
  0
SPLINE
  5
A50
330
A02
100
AcDbEntity
  8
V_09_Adapters_Small_Dish_Adapter_Plate_1
100
AcDbSpline
210
0
220
0
230
1
 70
8
 71
1
 72
17
 73
15
 74
0
 40
0.000000000
 40
0.000000000
 40
0.112199738
 40
0.224399475
 40
0.336599213
 40
0.448798951
 40
0.560998688
 40
0.673198426
 40
0.785398163
 40
0.897597901
 40
1.009797639
 40
1.121997376
 40
1.234197114
 40
1.346396852
 40
1.458596589
 40
1.570796327
 40
1.570796327
 10
210.000000000
 20
146.916666667
 30
0.000000000
 10
212.659156307
 20
146.916666667
 30
0.000000000
 10
215.284872181
 20
146.916666667
 30
0.000000000
 10
217.844127721
 20
146.916666667
 30
0.000000000
 10
220.304738804
 20
146.916666667
 30
0.000000000
 10
222.635761817
 20
146.916666667
 30
0.000000000
 10
224.807882794
 20
146.916666667
 30
0.000000000
 10
226.793786053
 20
146.916666667
 30
0.000000000
 10
228.568497709
 20
146.916666667
 30
0.000000000
 10
230.109699732
 20
146.916666667
 30
0.000000000
 10
231.398010613
 20
146.916666667
 30
0.000000000
 10
232.417229095
 20
146.916666667
 30
0.000000000
 10
233.154537914
 20
146.916666667
 30
0.000000000
 10
233.600664985
 20
146.916666667
 30
0.000000000
 10
233.750000000
 20
146.916666667
 30
0.000000000
  0
SPLINE
  5
A51
330
A02
100
AcDbEntity
  8
V_09_Adapters_Small_Dish_Adapter_Plate_1
100
AcDbSpline
210
0
220
0
230
1
 70
8
 71
1
 72
17
 73
15
 74
0
 40
4.712388980
 40
4.712388980
 40
4.824588718
 40
4.936788456
 40
5.048988193
 40
5.161187931
 40
5.273387669
 40
5.385587406
 40
5.497787144
 40
5.609986881
 40
5.722186619
 40
5.834386357
 40
5.946586094
 40
6.058785832
 40
6.170985570
 40
6.283185307
 40
6.283185307
 10
186.250000000
 20
146.916666667
 30
0.000000000
 10
186.399335015
 20
146.916666667
 30
0.000000000
 10
186.845462086
 20
146.916666667
 30
0.000000000
 10
187.582770905
 20
146.916666667
 30
0.000000000
 10
188.601989387
 20
146.916666667
 30
0.000000000
 10
189.890300268
 20
146.916666667
 30
0.000000000
 10
191.431502291
 20
146.916666667
 30
0.000000000
 10
193.206213947
 20
146.916666667
 30
0.000000000
 10
195.192117206
 20
146.916666667
 30
0.000000000
 10
197.364238183
 20
146.916666667
 30
0.000000000
 10
199.695261196
 20
146.916666667
 30
0.000000000
 10
202.155872279
 20
146.916666667
 30
0.000000000
 10
204.715127819
 20
146.916666667
 30
0.000000000
 10
207.340843693
 20
146.916666667
 30
0.000000000
 10
210.000000000
 20
146.916666667
 30
0.000000000
  0
LINE
  5
A52
330
A02
100
AcDbEntity
  8
V_09_Adapters_Small_Dish_Adapter_Plate_1
100
AcDbLine
 10
233.750000000
 20
146.916666667
 30
0.000000000
 11
233.750000000
 21
150.083333333
 31
0.000000000
  0
LINE
  5
A53
330
A02
100
AcDbEntity
  8
V_09_Adapters_Small_Dish_Adapter_Plate_1
100
AcDbLine
 10
186.250000000
 20
146.916666667
 30
0.000000000
 11
186.250000000
 21
150.083333333
 31
0.000000000
  0
SPLINE
  5
A54
330
A02
100
AcDbEntity
  8
V_09_Adapters_Small_Dish_Adapter_Plate_2
100
AcDbSpline
210
0
220
0
230
1
 70
8
 71
1
 72
17
 73
15
 74
0
 40
0.000000000
 40
0.000000000
 40
0.224399475
 40
0.448798951
 40
0.673198426
 40
0.897597901
 40
1.121997376
 40
1.346396852
 40
1.570796327
 40
1.795195802
 40
2.019595277
 40
2.243994753
 40
2.468394228
 40
2.692793703
 40
2.917193178
 40
3.141592654
 40
3.141592654
 10
211.583333333
 20
172.250000000
 30
0.000000000
 10
211.583333333
 20
171.654537914
 30
0.000000000
 10
211.583333333
 20
169.898010613
 30
0.000000000
 10
211.583333333
 20
167.068497709
 30
0.000000000
 10
211.583333333
 20
163.307882794
 30
0.000000000
 10
211.583333333
 20
158.804738804
 30
0.000000000
 10
211.583333333
 20
153.784872181
 30
0.000000000
 10
211.583333333
 20
148.500000000
 30
0.000000000
 10
211.583333333
 20
143.215127819
 30
0.000000000
 10
211.583333333
 20
138.195261196
 30
0.000000000
 10
211.583333333
 20
133.692117206
 30
0.000000000
 10
211.583333333
 20
129.931502291
 30
0.000000000
 10
211.583333333
 20
127.101989387
 30
0.000000000
 10
211.583333333
 20
125.345462086
 30
0.000000000
 10
211.583333333
 20
124.750000000
 30
0.000000000
  0
LINE
  5
A55
330
A02
100
AcDbEntity
  8
V_09_Adapters_Small_Dish_Adapter_Plate_2
100
AcDbLine
 10
208.416666667
 20
172.250000000
 30
0.000000000
 11
211.583333333
 21
172.250000000
 31
0.000000000
  0
SPLINE
  5
A56
330
A02
100
AcDbEntity
  8
V_09_Adapters_Small_Dish_Adapter_Plate_2
100
AcDbSpline
210
0
220
0
230
1
 70
8
 71
1
 72
17
 73
15
 74
0
 40
0.000000000
 40
0.000000000
 40
0.224399475
 40
0.448798951
 40
0.673198426
 40
0.897597901
 40
1.121997376
 40
1.346396852
 40
1.570796327
 40
1.795195802
 40
2.019595277
 40
2.243994753
 40
2.468394228
 40
2.692793703
 40
2.917193178
 40
3.141592654
 40
3.141592654
 10
208.416666667
 20
172.250000000
 30
0.000000000
 10
208.416666667
 20
171.654537914
 30
0.000000000
 10
208.416666667
 20
169.898010613
 30
0.000000000
 10
208.416666667
 20
167.068497709
 30
0.000000000
 10
208.416666667
 20
163.307882794
 30
0.000000000
 10
208.416666667
 20
158.804738804
 30
0.000000000
 10
208.416666667
 20
153.784872181
 30
0.000000000
 10
208.416666667
 20
148.500000000
 30
0.000000000
 10
208.416666667
 20
143.215127819
 30
0.000000000
 10
208.416666667
 20
138.195261196
 30
0.000000000
 10
208.416666667
 20
133.692117206
 30
0.000000000
 10
208.416666667
 20
129.931502291
 30
0.000000000
 10
208.416666667
 20
127.101989387
 30
0.000000000
 10
208.416666667
 20
125.345462086
 30
0.000000000
 10
208.416666667
 20
124.750000000
 30
0.000000000
  0
LINE
  5
A57
330
A02
100
AcDbEntity
  8
V_09_Adapters_Small_Dish_Adapter_Plate_2
100
AcDbLine
 10
208.416666667
 20
124.750000000
 30
0.000000000
 11
211.583333333
 21
124.750000000
 31
0.000000000
  0
ELLIPSE
  5
A58
330
A02
100
AcDbEntity
  8
V_09_Adapters_Small_Dish_Adapter_Plate_3
100
AcDbEllipse
 10
211.119585737
 20
149.146393127
 30
0.000000000
 11
11.875000000
 21
-20.568103340
 31
0.000000000
 40
0.577350269
 41
-0.000000000
 42
-3.926990817
  0
ELLIPSE
  5
A59
330
A02
100
AcDbEntity
  8
V_09_Adapters_Small_Dish_Adapter_Plate_3
100
AcDbEllipse
 10
211.119585737
 20
149.146393127
 30
0.000000000
 11
11.875000000
 21
-20.568103340
 31
0.000000000
 40
0.577350269
 41
-3.926990817
 42
-3.141592654
  0
ELLIPSE
  5
A5A
330
A02
100
AcDbEntity
  8
V_09_Adapters_Small_Dish_Adapter_Plate_3
100
AcDbEllipse
 10
208.880414263
 20
147.853606873
 30
0.000000000
 11
11.875000000
 21
-20.568103340
 31
0.000000000
 40
0.577350269
 41
-0.000000000
 42
-3.926990817
  0
ELLIPSE
  5
A5B
330
A02
100
AcDbEntity
  8
V_09_Adapters_Small_Dish_Adapter_Plate_3
100
AcDbEllipse
 10
208.880414263
 20
147.853606873
 30
0.000000000
 11
11.875000000
 21
-20.568103340
 31
0.000000000
 40
0.577350269
 41
-3.141592654
 42
-0.000000000
  0
ELLIPSE
  5
A5C
330
A02
100
AcDbEntity
  8
V_09_Adapters_Small_Dish_Adapter_Plate_3
100
AcDbEllipse
 10
208.880414263
 20
147.853606873
 30
0.000000000
 11
11.875000000
 21
-20.568103340
 31
0.000000000
 40
0.577350269
 41
-3.926990817
 42
-3.141592654
  0
LINE
  5
A5D
330
A02
100
AcDbEntity
  8
V_09_Adapters_Small_Dish_Adapter_Plate_3
100
AcDbLine
 10
200.333127404
 20
141.319087133
 30
0.000000000
 11
198.947710737
 21
143.718699190
 31
0.000000000
  0
ELLIPSE
  5
A5E
330
A02
100
AcDbEntity
  8
V_09_Adapters_Small_Dish_Adapter_Plate_3
100
AcDbEllipse
 10
211.119585737
 20
149.146393127
 30
0.000000000
 11
1.187500000
 21
-2.056810334
 31
0.000000000
 40
0.577350269
 41
-1.910633236
 42
-1.230959417
  0
LINE
  5
A5F
330
A02
100
AcDbEntity
  8
V_09_Adapters_Small_Dish_Adapter_Plate_3
100
AcDbLine
 10
217.156044070
 20
154.231285341
 30
0.000000000
 11
218.541460737
 21
151.831673285
 31
0.000000000
  0
LINE
  5
A60
330
A02
100
AcDbEntity
  8
V_09_Adapters_Small_Dish_Adapter_Plate_3
100
AcDbLine
 10
198.093955930
 20
140.026300880
 30
0.000000000
 11
196.708539263
 21
142.425912937
 31
0.000000000
  0
LINE
  5
A61
330
A02
100
AcDbEntity
  8
V_09_Adapters_Small_Dish_Adapter_Plate_3
100
AcDbLine
 10
198.093955930
 20
140.026300880
 30
0.000000000
 11
202.843955930
 21
142.768714659
 31
0.000000000
  0
LINE
  5
A62
330
A02
100
AcDbEntity
  8
V_09_Adapters_Small_Dish_Adapter_Plate_3
100
AcDbLine
 10
196.708539263
 20
142.425912937
 30
0.000000000
 11
201.458539263
 21
145.168326715
 31
0.000000000
  0
LINE
  5
A63
330
A02
100
AcDbEntity
  8
V_09_Adapters_Small_Dish_Adapter_Plate_3
100
AcDbLine
 10
202.843955930
 20
142.768714659
 30
0.000000000
 11
201.458539263
 21
145.168326715
 31
0.000000000
  0
LINE
  5
A64
330
A02
100
AcDbEntity
  8
V_09_Adapters_Small_Dish_Adapter_Plate_3
100
AcDbLine
 10
192.646421078
 20
156.095119237
 30
0.000000000
 11
192.646421078
 21
158.357495180
 31
0.000000000
  0
LINE
  5
A65
330
A02
100
AcDbEntity
  8
V_09_Adapters_Small_Dish_Adapter_Plate_3
100
AcDbLine
 10
192.646421078
 20
156.095119237
 30
0.000000000
 11
199.363935500
 21
152.216760478
 31
0.000000000
  0
LINE
  5
A66
330
A02
100
AcDbEntity
  8
V_09_Adapters_Small_Dish_Adapter_Plate_3
100
AcDbLine
 10
192.646421078
 20
158.357495180
 30
0.000000000
 11
199.363935500
 21
154.479136421
 31
0.000000000
  0
LINE
  5
A67
330
A02
100
AcDbEntity
  8
V_09_Adapters_Small_Dish_Adapter_Plate_3
100
AcDbLine
 10
199.363935500
 20
152.216760478
 30
0.000000000
 11
199.363935500
 21
154.479136421
 31
0.000000000
  0
LINE
  5
A68
330
A02
100
AcDbEntity
  8
V_09_Adapters_Small_Dish_Adapter_Plate_3
100
AcDbLine
 10
196.682289553
 20
148.362273511
 30
0.000000000
 11
196.253842640
 21
149.804016210
 31
0.000000000
  0
LINE
  5
A69
330
A02
100
AcDbEntity
  8
V_09_Adapters_Small_Dish_Adapter_Plate_3
100
AcDbLine
 10
196.682289553
 20
148.362273511
 30
0.000000000
 11
201.354178685
 21
147.899487172
 31
0.000000000
  0
LINE
  5
A6A
330
A02
100
AcDbEntity
  8
V_09_Adapters_Small_Dish_Adapter_Plate_3
100
AcDbLine
 10
196.253842640
 20
149.804016210
 30
0.000000000
 11
200.925731773
 21
149.341229872
 31
0.000000000
  0
ELLIPSE
  5
A6B
330
A02
100
AcDbEntity
  8
V_09_Adapters_Small_Dish_Adapter_Plate_3
100
AcDbEllipse
 10
208.880414263
 20
147.853606873
 30
0.000000000
 11
5.937500000
 21
-10.284051670
 31
0.000000000
 40
0.577350269
 41
-2.030211557
 42
-1.896779260
  0
LINE
  5
A6C
330
A02
100
AcDbEntity
  8
V_09_Adapters_Small_Dish_Adapter_Plate_3
100
AcDbLine
 10
204.256232485
 20
135.943470417
 30
0.000000000
 11
203.221870138
 21
137.035387677
 31
0.000000000
  0
LINE
  5
A6D
330
A02
100
AcDbEntity
  8
V_09_Adapters_Small_Dish_Adapter_Plate_3
100
AcDbLine
 10
204.256232485
 20
135.943470417
 30
0.000000000
 11
206.191392326
 21
140.220838259
 31
0.000000000
  0
LINE
  5
A6E
330
A02
100
AcDbEntity
  8
V_09_Adapters_Small_Dish_Adapter_Plate_3
100
AcDbLine
 10
203.221870138
 20
137.035387677
 30
0.000000000
 11
205.157029979
 21
141.312755519
 31
0.000000000
  0
ELLIPSE
  5
A6F
330
A02
100
AcDbEntity
  8
V_09_Adapters_Small_Dish_Adapter_Plate_3
100
AcDbEllipse
 10
208.880414263
 20
147.853606873
 30
0.000000000
 11
5.937500000
 21
-10.284051670
 31
0.000000000
 40
0.577350269
 41
-1.244813394
 42
-1.111381097
  0
ELLIPSE
  5
A70
330
A02
100
AcDbEntity
  8
V_09_Adapters_Small_Dish_Adapter_Plate_3
100
AcDbEllipse
 10
204.130414263
 20
145.111193095
 30
0.000000000
 11
-0.544270833
 21
0.942704736
 31
0.000000000
 40
0.577350269
 41
2.356194490
 42
3.141592654
  0
ELLIPSE
  5
A71
330
A02
100
AcDbEntity
  8
V_09_Adapters_Small_Dish_Adapter_Plate_3
100
AcDbEllipse
 10
204.130414263
 20
145.111193095
 30
0.000000000
 11
-0.544270833
 21
0.942704736
 31
0.000000000
 40
0.577350269
 41
3.141592654
 42
0.000000000
  0
ELLIPSE
  5
A72
330
A02
100
AcDbEntity
  8
V_09_Adapters_Small_Dish_Adapter_Plate_3
100
AcDbEllipse
 10
204.130414263
 20
145.111193095
 30
0.000000000
 11
-0.544270833
 21
0.942704736
 31
0.000000000
 40
0.577350269
 41
0.000000000
 42
2.356194490
  0
LINE
  5
A73
330
A02
100
AcDbEntity
  8
V_09_Adapters_Small_Dish_Adapter_Plate_3
100
AcDbLine
 10
196.253842640
 20
160.483106587
 30
0.000000000
 11
196.682289553
 21
161.430121406
 31
0.000000000
  0
LINE
  5
A74
330
A02
100
AcDbEntity
  8
V_09_Adapters_Small_Dish_Adapter_Plate_3
100
AcDbLine
 10
196.253842640
 20
160.483106587
 30
0.000000000
 11
200.925731773
 21
155.551260029
 31
0.000000000
  0
LINE
  5
A75
330
A02
100
AcDbEntity
  8
V_09_Adapters_Small_Dish_Adapter_Plate_3
100
AcDbLine
 10
196.682289553
 20
161.430121406
 30
0.000000000
 11
201.354178685
 21
156.498274848
 31
0.000000000
  0
ELLIPSE
  5
A76
330
A02
100
AcDbEntity
  8
V_09_Adapters_Small_Dish_Adapter_Plate_3
100
AcDbEllipse
 10
208.880414263
 20
147.853606873
 30
0.000000000
 11
5.937500000
 21
-10.284051670
 31
0.000000000
 40
0.577350269
 41
-2.815609720
 42
-2.682177423
  0
LINE
  5
A77
330
A02
100
AcDbEntity
  8
V_09_Adapters_Small_Dish_Adapter_Plate_3
100
AcDbLine
 10
196.708539263
 20
167.336171426
 30
0.000000000
 11
198.093955930
 21
168.136042111
 31
0.000000000
  0
LINE
  5
A78
330
A02
100
AcDbEntity
  8
V_09_Adapters_Small_Dish_Adapter_Plate_3
100
AcDbLine
 10
196.708539263
 20
167.336171426
 30
0.000000000
 11
201.458539263
 21
159.108930090
 31
0.000000000
  0
LINE
  5
A79
330
A02
100
AcDbEntity
  8
V_09_Adapters_Small_Dish_Adapter_Plate_3
100
AcDbLine
 10
198.093955930
 20
168.136042111
 30
0.000000000
 11
202.843955930
 21
159.908800775
 31
0.000000000
  0
LINE
  5
A7A
330
A02
100
AcDbEntity
  8
V_09_Adapters_Small_Dish_Adapter_Plate_3
100
AcDbLine
 10
201.458539263
 20
159.108930090
 30
0.000000000
 11
202.843955930
 21
159.908800775
 31
0.000000000
  0
ELLIPSE
  5
A7B
330
A02
100
AcDbEntity
  8
V_09_Adapters_Small_Dish_Adapter_Plate_3
100
AcDbEllipse
 10
204.130414263
 20
156.080848209
 30
0.000000000
 11
-0.544270833
 21
0.942704736
 31
0.000000000
 40
0.577350269
 41
2.356194490
 42
3.141592654
  0
ELLIPSE
  5
A7C
330
A02
100
AcDbEntity
  8
V_09_Adapters_Small_Dish_Adapter_Plate_3
100
AcDbEllipse
 10
204.130414263
 20
156.080848209
 30
0.000000000
 11
-0.544270833
 21
0.942704736
 31
0.000000000
 40
0.577350269
 41
3.141592654
 42
0.000000000
  0
ELLIPSE
  5
A7D
330
A02
100
AcDbEntity
  8
V_09_Adapters_Small_Dish_Adapter_Plate_3
100
AcDbEllipse
 10
204.130414263
 20
156.080848209
 30
0.000000000
 11
-0.544270833
 21
0.942704736
 31
0.000000000
 40
0.577350269
 41
0.000000000
 42
2.356194490
  0
LINE
  5
A7E
330
A02
100
AcDbEntity
  8
V_09_Adapters_Small_Dish_Adapter_Plate_3
100
AcDbLine
 10
203.221870138
 20
165.205750017
 30
0.000000000
 11
204.256232485
 21
165.103288518
 31
0.000000000
  0
LINE
  5
A7F
330
A02
100
AcDbEntity
  8
V_09_Adapters_Small_Dish_Adapter_Plate_3
100
AcDbLine
 10
203.221870138
 20
165.205750017
 30
0.000000000
 11
205.157029979
 21
158.693852066
 31
0.000000000
  0
LINE
  5
A80
330
A02
100
AcDbEntity
  8
V_09_Adapters_Small_Dish_Adapter_Plate_3
100
AcDbLine
 10
204.256232485
 20
165.103288518
 30
0.000000000
 11
206.191392326
 21
158.591390567
 31
0.000000000
  0
ELLIPSE
  5
A81
330
A02
100
AcDbEntity
  8
V_09_Adapters_Small_Dish_Adapter_Plate_3
100
AcDbEllipse
 10
208.880414263
 20
147.853606873
 30
0.000000000
 11
5.937500000
 21
-10.284051670
 31
0.000000000
 40
0.577350269
 41
-3.601007884
 42
-3.467575587
  0
LINE
  5
A82
330
A02
100
AcDbEntity
  8
V_09_Adapters_Small_Dish_Adapter_Plate_3
100
AcDbLine
 10
209.860051783
 20
128.542612217
 30
0.000000000
 11
207.900776743
 21
129.673800189
 31
0.000000000
  0
LINE
  5
A83
330
A02
100
AcDbEntity
  8
V_09_Adapters_Small_Dish_Adapter_Plate_3
100
AcDbLine
 10
209.860051783
 20
128.542612217
 30
0.000000000
 11
209.860051783
 21
136.299329736
 31
0.000000000
  0
LINE
  5
A84
330
A02
100
AcDbEntity
  8
V_09_Adapters_Small_Dish_Adapter_Plate_3
100
AcDbLine
 10
207.900776743
 20
129.673800189
 30
0.000000000
 11
207.900776743
 21
137.430517708
 31
0.000000000
  0
LINE
  5
A85
330
A02
100
AcDbEntity
  8
V_09_Adapters_Small_Dish_Adapter_Plate_3
100
AcDbLine
 10
209.860051783
 20
136.299329736
 30
0.000000000
 11
207.900776743
 21
137.430517708
 31
0.000000000
  0
LINE
  5
A86
330
A02
100
AcDbEntity
  8
V_09_Adapters_Small_Dish_Adapter_Plate_3
100
AcDbLine
 10
214.538958388
 20
130.501463730
 30
0.000000000
 11
213.504596041
 21
130.603925229
 31
0.000000000
  0
LINE
  5
A87
330
A02
100
AcDbEntity
  8
V_09_Adapters_Small_Dish_Adapter_Plate_3
100
AcDbLine
 10
214.538958388
 20
130.501463730
 30
0.000000000
 11
212.603798548
 21
137.013361681
 31
0.000000000
  0
LINE
  5
A88
330
A02
100
AcDbEntity
  8
V_09_Adapters_Small_Dish_Adapter_Plate_3
100
AcDbLine
 10
213.504596041
 20
130.603925229
 30
0.000000000
 11
211.569436200
 21
137.115823180
 31
0.000000000
  0
ELLIPSE
  5
A89
330
A02
100
AcDbEntity
  8
V_09_Adapters_Small_Dish_Adapter_Plate_3
100
AcDbEllipse
 10
208.880414263
 20
147.853606873
 30
0.000000000
 11
5.937500000
 21
-10.284051670
 31
0.000000000
 40
0.577350269
 41
-0.459415230
 42
-0.325982933
  0
ELLIPSE
  5
A8A
330
A02
100
AcDbEntity
  8
V_09_Adapters_Small_Dish_Adapter_Plate_3
100
AcDbEllipse
 10
213.630414263
 20
139.626365537
 30
0.000000000
 11
-0.544270833
 21
0.942704736
 31
0.000000000
 40
0.577350269
 41
2.356194490
 42
3.141592654
  0
ELLIPSE
  5
A8B
330
A02
100
AcDbEntity
  8
V_09_Adapters_Small_Dish_Adapter_Plate_3
100
AcDbEllipse
 10
213.630414263
 20
139.626365537
 30
0.000000000
 11
-0.544270833
 21
0.942704736
 31
0.000000000
 40
0.577350269
 41
3.141592654
 42
0.000000000
  0
ELLIPSE
  5
A8C
330
A02
100
AcDbEntity
  8
V_09_Adapters_Small_Dish_Adapter_Plate_3
100
AcDbEllipse
 10
213.630414263
 20
139.626365537
 30
0.000000000
 11
-0.544270833
 21
0.942704736
 31
0.000000000
 40
0.577350269
 41
0.000000000
 42
2.356194490
  0
LINE
  5
A8D
330
A02
100
AcDbEntity
  8
V_09_Adapters_Small_Dish_Adapter_Plate_3
100
AcDbLine
 10
221.052289263
 20
128.371042321
 30
0.000000000
 11
219.666872596
 21
127.571171635
 31
0.000000000
  0
LINE
  5
A8E
330
A02
100
AcDbEntity
  8
V_09_Adapters_Small_Dish_Adapter_Plate_3
100
AcDbLine
 10
221.052289263
 20
128.371042321
 30
0.000000000
 11
216.302289263
 21
136.598283657
 31
0.000000000
  0
LINE
  5
A8F
330
A02
100
AcDbEntity
  8
V_09_Adapters_Small_Dish_Adapter_Plate_3
100
AcDbLine
 10
219.666872596
 20
127.571171635
 30
0.000000000
 11
214.916872596
 21
135.798412971
 31
0.000000000
  0
LINE
  5
A90
330
A02
100
AcDbEntity
  8
V_09_Adapters_Small_Dish_Adapter_Plate_3
100
AcDbLine
 10
216.302289263
 20
136.598283657
 30
0.000000000
 11
214.916872596
 21
135.798412971
 31
0.000000000
  0
LINE
  5
A91
330
A02
100
AcDbEntity
  8
V_09_Adapters_Small_Dish_Adapter_Plate_3
100
AcDbLine
 10
221.506985886
 20
135.224107160
 30
0.000000000
 11
221.078538973
 21
134.277092341
 31
0.000000000
  0
LINE
  5
A92
330
A02
100
AcDbEntity
  8
V_09_Adapters_Small_Dish_Adapter_Plate_3
100
AcDbLine
 10
221.506985886
 20
135.224107160
 30
0.000000000
 11
216.835096753
 21
140.155953718
 31
0.000000000
  0
LINE
  5
A93
330
A02
100
AcDbEntity
  8
V_09_Adapters_Small_Dish_Adapter_Plate_3
100
AcDbLine
 10
221.078538973
 20
134.277092341
 30
0.000000000
 11
216.406649841
 21
139.208938899
 31
0.000000000
  0
ELLIPSE
  5
A94
330
A02
100
AcDbEntity
  8
V_09_Adapters_Small_Dish_Adapter_Plate_3
100
AcDbEllipse
 10
208.880414263
 20
147.853606873
 30
0.000000000
 11
5.937500000
 21
-10.284051670
 31
0.000000000
 40
0.577350269
 41
-5.957202374
 42
-5.823770077
  0
ELLIPSE
  5
A95
330
A02
100
AcDbEntity
  8
V_09_Adapters_Small_Dish_Adapter_Plate_3
100
AcDbEllipse
 10
208.880414263
 20
147.853606873
 30
0.000000000
 11
1.187500000
 21
-2.056810334
 31
0.000000000
 40
0.577350269
 41
-0.000000000
 42
-3.926990817
  0
ELLIPSE
  5
A96
330
A02
100
AcDbEntity
  8
V_09_Adapters_Small_Dish_Adapter_Plate_3
100
AcDbEllipse
 10
208.880414263
 20
147.853606873
 30
0.000000000
 11
1.187500000
 21
-2.056810334
 31
0.000000000
 40
0.577350269
 41
-3.141592654
 42
-0.000000000
  0
ELLIPSE
  5
A97
330
A02
100
AcDbEntity
  8
V_09_Adapters_Small_Dish_Adapter_Plate_3
100
AcDbEllipse
 10
208.880414263
 20
147.853606873
 30
0.000000000
 11
1.187500000
 21
-2.056810334
 31
0.000000000
 40
0.577350269
 41
-3.926990817
 42
-3.141592654
  0
ELLIPSE
  5
A98
330
A02
100
AcDbEntity
  8
V_09_Adapters_Small_Dish_Adapter_Plate_3
100
AcDbEllipse
 10
213.630414263
 20
150.596020652
 30
0.000000000
 11
-0.544270833
 21
0.942704736
 31
0.000000000
 40
0.577350269
 41
2.356194490
 42
3.141592654
  0
ELLIPSE
  5
A99
330
A02
100
AcDbEntity
  8
V_09_Adapters_Small_Dish_Adapter_Plate_3
100
AcDbEllipse
 10
213.630414263
 20
150.596020652
 30
0.000000000
 11
-0.544270833
 21
0.942704736
 31
0.000000000
 40
0.577350269
 41
3.141592654
 42
0.000000000
  0
ELLIPSE
  5
A9A
330
A02
100
AcDbEntity
  8
V_09_Adapters_Small_Dish_Adapter_Plate_3
100
AcDbEllipse
 10
213.630414263
 20
150.596020652
 30
0.000000000
 11
-0.544270833
 21
0.942704736
 31
0.000000000
 40
0.577350269
 41
0.000000000
 42
2.356194490
  0
LINE
  5
A9B
330
A02
100
AcDbEntity
  8
V_09_Adapters_Small_Dish_Adapter_Plate_3
100
AcDbLine
 10
207.900776743
 20
167.164601530
 30
0.000000000
 11
209.860051783
 21
166.033413558
 31
0.000000000
  0
LINE
  5
A9C
330
A02
100
AcDbEntity
  8
V_09_Adapters_Small_Dish_Adapter_Plate_3
100
AcDbLine
 10
207.900776743
 20
167.164601530
 30
0.000000000
 11
207.900776743
 21
159.407884011
 31
0.000000000
  0
LINE
  5
A9D
330
A02
100
AcDbEntity
  8
V_09_Adapters_Small_Dish_Adapter_Plate_3
100
AcDbLine
 10
209.860051783
 20
166.033413558
 30
0.000000000
 11
209.860051783
 21
158.276696039
 31
0.000000000
  0
LINE
  5
A9E
330
A02
100
AcDbEntity
  8
V_09_Adapters_Small_Dish_Adapter_Plate_3
100
AcDbLine
 10
207.900776743
 20
159.407884011
 30
0.000000000
 11
209.860051783
 21
158.276696039
 31
0.000000000
  0
LINE
  5
A9F
330
A02
100
AcDbEntity
  8
V_09_Adapters_Small_Dish_Adapter_Plate_3
100
AcDbLine
 10
213.504596041
 20
159.763743330
 30
0.000000000
 11
214.538958388
 21
158.671826070
 31
0.000000000
  0
LINE
  5
AA0
330
A02
100
AcDbEntity
  8
V_09_Adapters_Small_Dish_Adapter_Plate_3
100
AcDbLine
 10
213.504596041
 20
159.763743330
 30
0.000000000
 11
211.569436200
 21
155.486375488
 31
0.000000000
  0
LINE
  5
AA1
330
A02
100
AcDbEntity
  8
V_09_Adapters_Small_Dish_Adapter_Plate_3
100
AcDbLine
 10
214.538958388
 20
158.671826070
 30
0.000000000
 11
212.603798548
 21
154.394458228
 31
0.000000000
  0
ELLIPSE
  5
AA2
330
A02
100
AcDbEntity
  8
V_09_Adapters_Small_Dish_Adapter_Plate_3
100
AcDbEllipse
 10
208.880414263
 20
147.853606873
 30
0.000000000
 11
5.937500000
 21
-10.284051670
 31
0.000000000
 40
0.577350269
 41
-4.386406047
 42
-4.252973750
  0
LINE
  5
AA3
330
A02
100
AcDbEntity
  8
V_09_Adapters_Small_Dish_Adapter_Plate_3
100
AcDbLine
 10
221.078538973
 20
147.344940236
 30
0.000000000
 11
221.506985886
 21
145.903197537
 31
0.000000000
  0
LINE
  5
AA4
330
A02
100
AcDbEntity
  8
V_09_Adapters_Small_Dish_Adapter_Plate_3
100
AcDbLine
 10
221.078538973
 20
147.344940236
 30
0.000000000
 11
216.406649841
 21
147.807726575
 31
0.000000000
  0
LINE
  5
AA5
330
A02
100
AcDbEntity
  8
V_09_Adapters_Small_Dish_Adapter_Plate_3
100
AcDbLine
 10
221.506985886
 20
145.903197537
 30
0.000000000
 11
216.835096753
 21
146.365983875
 31
0.000000000
  0
ELLIPSE
  5
AA6
330
A02
100
AcDbEntity
  8
V_09_Adapters_Small_Dish_Adapter_Plate_3
100
AcDbEllipse
 10
208.880414263
 20
147.853606873
 30
0.000000000
 11
5.937500000
 21
-10.284051670
 31
0.000000000
 40
0.577350269
 41
-5.171804210
 42
-5.038371914
  0
LINE
  5
AA7
330
A02
100
AcDbEntity
  8
V_09_Adapters_Small_Dish_Adapter_Plate_3
100
AcDbLine
 10
225.114407448
 20
139.612094510
 30
0.000000000
 11
225.114407448
 21
137.349718567
 31
0.000000000
  0
LINE
  5
AA8
330
A02
100
AcDbEntity
  8
V_09_Adapters_Small_Dish_Adapter_Plate_3
100
AcDbLine
 10
225.114407448
 20
139.612094510
 30
0.000000000
 11
218.396893027
 21
143.490453269
 31
0.000000000
  0
LINE
  5
AA9
330
A02
100
AcDbEntity
  8
V_09_Adapters_Small_Dish_Adapter_Plate_3
100
AcDbLine
 10
225.114407448
 20
137.349718567
 30
0.000000000
 11
218.396893027
 21
141.228077326
 31
0.000000000
  0
LINE
  5
AAA
330
A02
100
AcDbEntity
  8
V_09_Adapters_Small_Dish_Adapter_Plate_3
100
AcDbLine
 10
218.396893027
 20
143.490453269
 30
0.000000000
 11
218.396893027
 21
141.228077326
 31
0.000000000
  0
LINE
  5
AAB
330
A02
100
AcDbEntity
  8
V_09_Adapters_Small_Dish_Adapter_Plate_3
100
AcDbLine
 10
219.666872596
 20
155.680912867
 30
0.000000000
 11
221.052289263
 21
153.281300810
 31
0.000000000
  0
LINE
  5
AAC
330
A02
100
AcDbEntity
  8
V_09_Adapters_Small_Dish_Adapter_Plate_3
100
AcDbLine
 10
219.666872596
 20
155.680912867
 30
0.000000000
 11
214.916872596
 21
152.938499088
 31
0.000000000
  0
LINE
  5
AAD
330
A02
100
AcDbEntity
  8
V_09_Adapters_Small_Dish_Adapter_Plate_3
100
AcDbLine
 10
221.052289263
 20
153.281300810
 30
0.000000000
 11
216.302289263
 21
150.538887032
 31
0.000000000
  0
LINE
  5
AAE
330
A02
100
AcDbEntity
  8
V_09_Adapters_Small_Dish_Adapter_Plate_3
100
AcDbLine
 10
214.916872596
 20
152.938499088
 30
0.000000000
 11
216.302289263
 21
150.538887032
 31
0.000000000
  0
LINE
  5
AAF
330
A02
100
AcDbEntity
  8
V_09_Adapters_Small_Dish_Adapter_Plate_3
100
AcDbLine
 10
192.646421078
 20
156.095119237
 30
0.000000000
 11
194.605696118
 21
157.226307209
 31
0.000000000
  0
LINE
  5
AB0
330
A02
100
AcDbEntity
  8
V_09_Adapters_Small_Dish_Adapter_Plate_3
100
AcDbLine
 10
196.682289553
 20
148.362273511
 30
0.000000000
 11
198.751014247
 21
149.556652270
 31
0.000000000
  0
LINE
  5
AB1
330
A02
100
AcDbEntity
  8
V_09_Adapters_Small_Dish_Adapter_Plate_3
100
AcDbLine
 10
203.221870138
 20
137.035387677
 30
0.000000000
 11
205.290594833
 21
138.229766437
 31
0.000000000
  0
LINE
  5
AB2
330
A02
100
AcDbEntity
  8
V_09_Adapters_Small_Dish_Adapter_Plate_3
100
AcDbLine
 10
196.253842640
 20
160.483106587
 30
0.000000000
 11
197.110736466
 21
160.977834468
 31
0.000000000
  0
LINE
  5
AB3
330
A02
100
AcDbEntity
  8
V_09_Adapters_Small_Dish_Adapter_Plate_3
100
AcDbLine
 10
196.708539263
 20
167.336171426
 30
0.000000000
 11
198.093955930
 21
168.136042111
 31
0.000000000
  0
LINE
  5
AB4
330
A02
100
AcDbEntity
  8
V_09_Adapters_Small_Dish_Adapter_Plate_3
100
AcDbLine
 10
201.458539263
 20
159.108930090
 30
0.000000000
 11
202.843955930
 21
159.908800775
 31
0.000000000
  0
LINE
  5
AB5
330
A02
100
AcDbEntity
  8
V_09_Adapters_Small_Dish_Adapter_Plate_3
100
AcDbLine
 10
205.157029979
 20
158.693852066
 30
0.000000000
 11
206.013923804
 21
159.188579947
 31
0.000000000
  0
LINE
  5
AB6
330
A02
100
AcDbEntity
  8
V_09_Adapters_Small_Dish_Adapter_Plate_3
100
AcDbLine
 10
207.900776743
 20
129.673800189
 30
0.000000000
 11
209.860051783
 21
130.804988160
 31
0.000000000
  0
LINE
  5
AB7
330
A02
100
AcDbEntity
  8
V_09_Adapters_Small_Dish_Adapter_Plate_3
100
AcDbLine
 10
213.504596041
 20
130.603925229
 30
0.000000000
 11
214.361489866
 21
131.098653109
 31
0.000000000
  0
LINE
  5
AB8
330
A02
100
AcDbEntity
  8
V_09_Adapters_Small_Dish_Adapter_Plate_3
100
AcDbLine
 10
219.666872596
 20
127.571171635
 30
0.000000000
 11
221.052289263
 21
128.371042321
 31
0.000000000
  0
LINE
  5
AB9
330
A02
100
AcDbEntity
  8
V_09_Adapters_Small_Dish_Adapter_Plate_3
100
AcDbLine
 10
214.916872596
 20
135.798412971
 30
0.000000000
 11
216.302289263
 21
136.598283657
 31
0.000000000
  0
LINE
  5
ABA
330
A02
100
AcDbEntity
  8
V_09_Adapters_Small_Dish_Adapter_Plate_3
100
AcDbLine
 10
216.406649841
 20
139.208938899
 30
0.000000000
 11
217.263543666
 21
139.703666780
 31
0.000000000
  0
LINE
  5
ABB
330
A02
100
AcDbEntity
  8
V_09_Adapters_Small_Dish_Adapter_Plate_3
100
AcDbLine
 10
207.900776743
 20
159.407884011
 30
0.000000000
 11
209.860051783
 21
160.539071982
 31
0.000000000
  0
LINE
  5
ABC
330
A02
100
AcDbEntity
  8
V_09_Adapters_Small_Dish_Adapter_Plate_3
100
AcDbLine
 10
211.569436200
 20
155.486375488
 30
0.000000000
 11
213.638160895
 21
156.680754247
 31
0.000000000
  0
LINE
  5
ABD
330
A02
100
AcDbEntity
  8
V_09_Adapters_Small_Dish_Adapter_Plate_3
100
AcDbLine
 10
216.835096753
 20
146.365983875
 30
0.000000000
 11
218.903821448
 21
147.560362634
 31
0.000000000
  0
LINE
  5
ABE
330
A02
100
AcDbEntity
  8
V_09_Adapters_Small_Dish_Adapter_Plate_3
100
AcDbLine
 10
218.396893027
 20
141.228077326
 30
0.000000000
 11
220.356168066
 21
142.359265298
 31
0.000000000
  0
ELLIPSE
  5
ABF
330
A02
100
AcDbEntity
  8
V_09_Adapters_Small_Dish_Adapter_Plate_3
100
AcDbEllipse
 10
204.827356384
 20
145.513572816
 30
0.000000000
 11
-0.544270833
 21
0.942704736
 31
0.000000000
 40
0.577350269
 41
2.356194490
 42
2.446765012
  0
ELLIPSE
  5
AC0
330
A02
100
AcDbEntity
  8
V_09_Adapters_Small_Dish_Adapter_Plate_3
100
AcDbEllipse
 10
204.827356384
 20
145.513572816
 30
0.000000000
 11
-0.544270833
 21
0.942704736
 31
0.000000000
 40
0.577350269
 41
0.694827641
 42
2.356194490
  0
ELLIPSE
  5
AC1
330
A02
100
AcDbEntity
  8
V_09_Adapters_Small_Dish_Adapter_Plate_3
100
AcDbEllipse
 10
204.827356384
 20
156.483227931
 30
0.000000000
 11
-0.544270833
 21
0.942704736
 31
0.000000000
 40
0.577350269
 41
2.356194490
 42
2.446765012
  0
ELLIPSE
  5
AC2
330
A02
100
AcDbEntity
  8
V_09_Adapters_Small_Dish_Adapter_Plate_3
100
AcDbEllipse
 10
204.827356384
 20
156.483227931
 30
0.000000000
 11
-0.544270833
 21
0.942704736
 31
0.000000000
 40
0.577350269
 41
0.694827641
 42
2.356194490
  0
ELLIPSE
  5
AC3
330
A02
100
AcDbEntity
  8
V_09_Adapters_Small_Dish_Adapter_Plate_3
100
AcDbEllipse
 10
214.327356384
 20
140.028745259
 30
0.000000000
 11
-0.544270833
 21
0.942704736
 31
0.000000000
 40
0.577350269
 41
2.356194490
 42
2.446765012
  0
ELLIPSE
  5
AC4
330
A02
100
AcDbEntity
  8
V_09_Adapters_Small_Dish_Adapter_Plate_3
100
AcDbEllipse
 10
214.327356384
 20
140.028745259
 30
0.000000000
 11
-0.544270833
 21
0.942704736
 31
0.000000000
 40
0.577350269
 41
0.694827641
 42
2.356194490
  0
ELLIPSE
  5
AC5
330
A02
100
AcDbEntity
  8
V_09_Adapters_Small_Dish_Adapter_Plate_3
100
AcDbEllipse
 10
214.327356384
 20
150.998400373
 30
0.000000000
 11
-0.544270833
 21
0.942704736
 31
0.000000000
 40
0.577350269
 41
2.356194490
 42
2.446765012
  0
ELLIPSE
  5
AC6
330
A02
100
AcDbEntity
  8
V_09_Adapters_Small_Dish_Adapter_Plate_3
100
AcDbEllipse
 10
214.327356384
 20
150.998400373
 30
0.000000000
 11
-0.544270833
 21
0.942704736
 31
0.000000000
 40
0.577350269
 41
0.694827641
 42
2.356194490
  0
LINE
  5
AC7
330
A02
100
AcDbEntity
  8
V_09_Adapters_Small_Dish_Adapter_Plate_3
100
AcDbLine
 10
220.755414263
 20
127.285503534
 30
0.000000000
 11
222.994585737
 21
128.578289787
 31
0.000000000
  0
LINE
  5
AC8
330
A02
100
AcDbEntity
  8
V_09_Adapters_Small_Dish_Adapter_Plate_3
100
AcDbLine
 10
197.005414263
 20
168.421710213
 30
0.000000000
 11
199.244585737
 21
169.714496466
 31
0.000000000
  0
TEXT
  5
AC9
330
A02
100
AcDbEntity
  8
A_09_Adapters_Small_Dish_Adapter_Plate
100
AcDbText
 10
210.000000000
 20
148.500000000
 30
0.000000000
 40
3.500000000
  1
Dish_Adapter_Plate  (grey)
  7
STANDARD
 72
1
 11
210.000000000
 21
148.500000000
 31
0.000000000
100
AcDbText
  0
CIRCLE
  5
ACA
330
A02
100
AcDbEntity
  8
V_09_Adapters_Small_Dish_Adapter_PipeStub_0
100
AcDbCircle
 10
210.000000000
 20
148.500000000
 30
0.000000000
 40
14.074074074
  0
CIRCLE
  5
ACB
330
A02
100
AcDbEntity
  8
V_09_Adapters_Small_Dish_Adapter_PipeStub_0
100
AcDbCircle
 10
202.536095087
 20
141.036095087
 30
0.000000000
 40
1.209490741
  0
CIRCLE
  5
ACC
330
A02
100
AcDbEntity
  8
V_09_Adapters_Small_Dish_Adapter_PipeStub_0
100
AcDbCircle
 10
202.536095087
 20
155.963904913
 30
0.000000000
 40
1.209490741
  0
CIRCLE
  5
ACD
330
A02
100
AcDbEntity
  8
V_09_Adapters_Small_Dish_Adapter_PipeStub_0
100
AcDbCircle
 10
217.463904913
 20
141.036095087
 30
0.000000000
 40
1.209490741
  0
CIRCLE
  5
ACE
330
A02
100
AcDbEntity
  8
V_09_Adapters_Small_Dish_Adapter_PipeStub_0
100
AcDbCircle
 10
217.463904913
 20
155.963904913
 30
0.000000000
 40
1.209490741
  0
ARC
  5
ACF
330
A02
100
AcDbEntity
  8
V_09_Adapters_Small_Dish_Adapter_PipeStub_0
100
AcDbCircle
 10
210.000000000
 20
148.500000000
 30
0.000000000
 40
10.621527778
100
AcDbArc
 50
128.461474778
 51
141.538525222
  0
ARC
  5
AD0
330
A02
100
AcDbEntity
  8
V_09_Adapters_Small_Dish_Adapter_PipeStub_0
100
AcDbCircle
 10
210.000000000
 20
148.500000000
 30
0.000000000
 40
10.621527778
100
AcDbArc
 50
-141.538525222
 51
-128.461474778
  0
ARC
  5
AD1
330
A02
100
AcDbEntity
  8
V_09_Adapters_Small_Dish_Adapter_PipeStub_0
100
AcDbCircle
 10
210.000000000
 20
148.500000000
 30
0.000000000
 40
10.621527778
100
AcDbArc
 50
-51.538525222
 51
-38.461474778
  0
ARC
  5
AD2
330
A02
100
AcDbEntity
  8
V_09_Adapters_Small_Dish_Adapter_PipeStub_0
100
AcDbCircle
 10
210.000000000
 20
148.500000000
 30
0.000000000
 40
10.621527778
100
AcDbArc
 50
38.461474778
 51
51.538525222
  0
SPLINE
  5
AD3
330
A02
100
AcDbEntity
  8
V_09_Adapters_Small_Dish_Adapter_PipeStub_1
100
AcDbSpline
210
0
220
0
230
1
 70
8
 71
1
 72
17
 73
15
 74
0
 40
0.000000000
 40
0.000000000
 40
0.112199738
 40
0.224399475
 40
0.336599213
 40
0.448798951
 40
0.560998688
 40
0.673198426
 40
0.785398163
 40
0.897597901
 40
1.009797639
 40
1.121997376
 40
1.234197114
 40
1.346396852
 40
1.458596589
 40
1.570796327
 40
1.570796327
 10
210.000000000
 20
128.268518519
 30
0.000000000
 10
211.575796330
 20
128.268518519
 30
0.000000000
 10
213.131776108
 20
128.268518519
 30
0.000000000
 10
214.648371983
 20
128.268518519
 30
0.000000000
 10
216.106511884
 20
128.268518519
 30
0.000000000
 10
217.487858855
 20
128.268518519
 30
0.000000000
 10
218.775041656
 20
128.268518519
 30
0.000000000
 10
219.951873217
 20
128.268518519
 30
0.000000000
 10
221.003554198
 20
128.268518519
 30
0.000000000
 10
221.916859100
 20
128.268518519
 30
0.000000000
 10
222.680302585
 20
128.268518519
 30
0.000000000
 10
223.284283908
 20
128.268518519
 30
0.000000000
 10
223.721207653
 20
128.268518519
 30
0.000000000
 10
223.985579250
 20
128.268518519
 30
0.000000000
 10
224.074074074
 20
128.268518519
 30
0.000000000
  0
SPLINE
  5
AD4
330
A02
100
AcDbEntity
  8
V_09_Adapters_Small_Dish_Adapter_PipeStub_1
100
AcDbSpline
210
0
220
0
230
1
 70
8
 71
1
 72
17
 73
15
 74
0
 40
4.712388980
 40
4.712388980
 40
4.824588718
 40
4.936788456
 40
5.048988193
 40
5.161187931
 40
5.273387669
 40
5.385587406
 40
5.497787144
 40
5.609986881
 40
5.722186619
 40
5.834386357
 40
5.946586094
 40
6.058785832
 40
6.170985570
 40
6.283185307
 40
6.283185307
 10
195.925925926
 20
128.268518519
 30
0.000000000
 10
196.014420750
 20
128.268518519
 30
0.000000000
 10
196.278792347
 20
128.268518519
 30
0.000000000
 10
196.715716092
 20
128.268518519
 30
0.000000000
 10
197.319697415
 20
128.268518519
 30
0.000000000
 10
198.083140900
 20
128.268518519
 30
0.000000000
 10
198.996445802
 20
128.268518519
 30
0.000000000
 10
200.048126783
 20
128.268518519
 30
0.000000000
 10
201.224958344
 20
128.268518519
 30
0.000000000
 10
202.512141145
 20
128.268518519
 30
0.000000000
 10
203.893488116
 20
128.268518519
 30
0.000000000
 10
205.351628017
 20
128.268518519
 30
0.000000000
 10
206.868223892
 20
128.268518519
 30
0.000000000
 10
208.424203670
 20
128.268518519
 30
0.000000000
 10
210.000000000
 20
128.268518519
 30
0.000000000
  0
SPLINE
  5
AD5
330
A02
100
AcDbEntity
  8
V_09_Adapters_Small_Dish_Adapter_PipeStub_1
100
AcDbSpline
210
0
220
0
230
1
 70
8
 71
1
 72
17
 73
15
 74
0
 40
0.000000000
 40
0.000000000
 40
0.112199738
 40
0.224399475
 40
0.336599213
 40
0.448798951
 40
0.560998688
 40
0.673198426
 40
0.785398163
 40
0.897597901
 40
1.009797639
 40
1.121997376
 40
1.234197114
 40
1.346396852
 40
1.458596589
 40
1.570796327
 40
1.570796327
 10
210.000000000
 20
124.750000000
 30
0.000000000
 10
211.575796330
 20
124.750000000
 30
0.000000000
 10
213.131776108
 20
124.750000000
 30
0.000000000
 10
214.648371983
 20
124.750000000
 30
0.000000000
 10
216.106511884
 20
124.750000000
 30
0.000000000
 10
217.487858855
 20
124.750000000
 30
0.000000000
 10
218.775041656
 20
124.750000000
 30
0.000000000
 10
219.951873217
 20
124.750000000
 30
0.000000000
 10
221.003554198
 20
124.750000000
 30
0.000000000
 10
221.916859100
 20
124.750000000
 30
0.000000000
 10
222.680302585
 20
124.750000000
 30
0.000000000
 10
223.284283908
 20
124.750000000
 30
0.000000000
 10
223.721207653
 20
124.750000000
 30
0.000000000
 10
223.985579250
 20
124.750000000
 30
0.000000000
 10
224.074074074
 20
124.750000000
 30
0.000000000
  0
SPLINE
  5
AD6
330
A02
100
AcDbEntity
  8
V_09_Adapters_Small_Dish_Adapter_PipeStub_1
100
AcDbSpline
210
0
220
0
230
1
 70
8
 71
1
 72
17
 73
15
 74
0
 40
4.712388980
 40
4.712388980
 40
4.824588718
 40
4.936788456
 40
5.048988193
 40
5.161187931
 40
5.273387669
 40
5.385587406
 40
5.497787144
 40
5.609986881
 40
5.722186619
 40
5.834386357
 40
5.946586094
 40
6.058785832
 40
6.170985570
 40
6.283185307
 40
6.283185307
 10
195.925925926
 20
124.750000000
 30
0.000000000
 10
196.014420750
 20
124.750000000
 30
0.000000000
 10
196.278792347
 20
124.750000000
 30
0.000000000
 10
196.715716092
 20
124.750000000
 30
0.000000000
 10
197.319697415
 20
124.750000000
 30
0.000000000
 10
198.083140900
 20
124.750000000
 30
0.000000000
 10
198.996445802
 20
124.750000000
 30
0.000000000
 10
200.048126783
 20
124.750000000
 30
0.000000000
 10
201.224958344
 20
124.750000000
 30
0.000000000
 10
202.512141145
 20
124.750000000
 30
0.000000000
 10
203.893488116
 20
124.750000000
 30
0.000000000
 10
205.351628017
 20
124.750000000
 30
0.000000000
 10
206.868223892
 20
124.750000000
 30
0.000000000
 10
208.424203670
 20
124.750000000
 30
0.000000000
 10
210.000000000
 20
124.750000000
 30
0.000000000
  0
SPLINE
  5
AD7
330
A02
100
AcDbEntity
  8
V_09_Adapters_Small_Dish_Adapter_PipeStub_1
100
AcDbSpline
210
0
220
0
230
1
 70
8
 71
1
 72
17
 73
15
 74
0
 40
0.000000000
 40
0.000000000
 40
0.112199738
 40
0.224399475
 40
0.336599213
 40
0.448798951
 40
0.560998688
 40
0.673198426
 40
0.785398163
 40
0.897597901
 40
1.009797639
 40
1.121997376
 40
1.234197114
 40
1.346396852
 40
1.458596589
 40
1.570796327
 40
1.570796327
 10
210.000000000
 20
172.250000000
 30
0.000000000
 10
211.189233793
 20
172.250000000
 30
0.000000000
 10
212.363512281
 20
172.250000000
 30
0.000000000
 10
213.508068231
 20
172.250000000
 30
0.000000000
 10
214.608508187
 20
172.250000000
 30
0.000000000
 10
215.650993479
 20
172.250000000
 30
0.000000000
 10
216.622414250
 20
172.250000000
 30
0.000000000
 10
217.510554318
 20
172.250000000
 30
0.000000000
 10
218.304244809
 20
172.250000000
 30
0.000000000
 10
218.993504602
 20
172.250000000
 30
0.000000000
 10
219.569665857
 20
172.250000000
 30
0.000000000
 10
220.025483012
 20
172.250000000
 30
0.000000000
 10
220.355223901
 20
172.250000000
 30
0.000000000
 10
220.554741840
 20
172.250000000
 30
0.000000000
 10
220.621527778
 20
172.250000000
 30
0.000000000
  0
SPLINE
  5
AD8
330
A02
100
AcDbEntity
  8
V_09_Adapters_Small_Dish_Adapter_PipeStub_1
100
AcDbSpline
210
0
220
0
230
1
 70
8
 71
1
 72
17
 73
15
 74
0
 40
4.712388980
 40
4.712388980
 40
4.824588718
 40
4.936788456
 40
5.048988193
 40
5.161187931
 40
5.273387669
 40
5.385587406
 40
5.497787144
 40
5.609986881
 40
5.722186619
 40
5.834386357
 40
5.946586094
 40
6.058785832
 40
6.170985570
 40
6.283185307
 40
6.283185307
 10
199.378472222
 20
172.250000000
 30
0.000000000
 10
199.445258160
 20
172.250000000
 30
0.000000000
 10
199.644776099
 20
172.250000000
 30
0.000000000
 10
199.974516988
 20
172.250000000
 30
0.000000000
 10
200.430334143
 20
172.250000000
 30
0.000000000
 10
201.006495398
 20
172.250000000
 30
0.000000000
 10
201.695755191
 20
172.250000000
 30
0.000000000
 10
202.489445682
 20
172.250000000
 30
0.000000000
 10
203.377585750
 20
172.250000000
 30
0.000000000
 10
204.349006521
 20
172.250000000
 30
0.000000000
 10
205.391491813
 20
172.250000000
 30
0.000000000
 10
206.491931769
 20
172.250000000
 30
0.000000000
 10
207.636487719
 20
172.250000000
 30
0.000000000
 10
208.810766207
 20
172.250000000
 30
0.000000000
 10
210.000000000
 20
172.250000000
 30
0.000000000
  0
LINE
  5
AD9
330
A02
100
AcDbEntity
  8
V_09_Adapters_Small_Dish_Adapter_PipeStub_1
100
AcDbLine
 10
224.074074074
 20
124.750000000
 30
0.000000000
 11
224.074074074
 21
128.268518519
 31
0.000000000
  0
LINE
  5
ADA
330
A02
100
AcDbEntity
  8
V_09_Adapters_Small_Dish_Adapter_PipeStub_1
100
AcDbLine
 10
195.925925926
 20
124.750000000
 30
0.000000000
 11
195.925925926
 21
128.268518519
 31
0.000000000
  0
LINE
  5
ADB
330
A02
100
AcDbEntity
  8
V_09_Adapters_Small_Dish_Adapter_PipeStub_1
100
AcDbLine
 10
220.621527778
 20
128.268518519
 30
0.000000000
 11
220.621527778
 21
172.250000000
 31
0.000000000
  0
LINE
  5
ADC
330
A02
100
AcDbEntity
  8
V_09_Adapters_Small_Dish_Adapter_PipeStub_1
100
AcDbLine
 10
199.378472222
 20
128.268518519
 30
0.000000000
 11
199.378472222
 21
172.250000000
 31
0.000000000
  0
SPLINE
  5
ADD
330
A02
100
AcDbEntity
  8
V_09_Adapters_Small_Dish_Adapter_PipeStub_2
100
AcDbSpline
210
0
220
0
230
1
 70
8
 71
1
 72
17
 73
15
 74
0
 40
0.000000000
 40
0.000000000
 40
0.224399475
 40
0.448798951
 40
0.673198426
 40
0.897597901
 40
1.121997376
 40
1.346396852
 40
1.570796327
 40
1.795195802
 40
2.019595277
 40
2.243994753
 40
2.468394228
 40
2.692793703
 40
2.917193178
 40
3.141592654
 40
3.141592654
 10
189.768518519
 20
162.574074074
 30
0.000000000
 10
189.768518519
 20
162.221207653
 30
0.000000000
 10
189.768518519
 20
161.180302585
 30
0.000000000
 10
189.768518519
 20
159.503554198
 30
0.000000000
 10
189.768518519
 20
157.275041656
 30
0.000000000
 10
189.768518519
 20
154.606511884
 30
0.000000000
 10
189.768518519
 20
151.631776108
 30
0.000000000
 10
189.768518519
 20
148.500000000
 30
0.000000000
 10
189.768518519
 20
145.368223892
 30
0.000000000
 10
189.768518519
 20
142.393488116
 30
0.000000000
 10
189.768518519
 20
139.724958344
 30
0.000000000
 10
189.768518519
 20
137.496445802
 30
0.000000000
 10
189.768518519
 20
135.819697415
 30
0.000000000
 10
189.768518519
 20
134.778792347
 30
0.000000000
 10
189.768518519
 20
134.425925926
 30
0.000000000
  0
LINE
  5
ADE
330
A02
100
AcDbEntity
  8
V_09_Adapters_Small_Dish_Adapter_PipeStub_2
100
AcDbLine
 10
186.250000000
 20
162.574074074
 30
0.000000000
 11
189.768518519
 21
162.574074074
 31
0.000000000
  0
SPLINE
  5
ADF
330
A02
100
AcDbEntity
  8
V_09_Adapters_Small_Dish_Adapter_PipeStub_2
100
AcDbSpline
210
0
220
0
230
1
 70
8
 71
1
 72
17
 73
15
 74
0
 40
0.000000000
 40
0.000000000
 40
0.224399475
 40
0.448798951
 40
0.673198426
 40
0.897597901
 40
1.121997376
 40
1.346396852
 40
1.570796327
 40
1.795195802
 40
2.019595277
 40
2.243994753
 40
2.468394228
 40
2.692793703
 40
2.917193178
 40
3.141592654
 40
3.141592654
 10
186.250000000
 20
162.574074074
 30
0.000000000
 10
186.250000000
 20
162.221207653
 30
0.000000000
 10
186.250000000
 20
161.180302585
 30
0.000000000
 10
186.250000000
 20
159.503554198
 30
0.000000000
 10
186.250000000
 20
157.275041656
 30
0.000000000
 10
186.250000000
 20
154.606511884
 30
0.000000000
 10
186.250000000
 20
151.631776108
 30
0.000000000
 10
186.250000000
 20
148.500000000
 30
0.000000000
 10
186.250000000
 20
145.368223892
 30
0.000000000
 10
186.250000000
 20
142.393488116
 30
0.000000000
 10
186.250000000
 20
139.724958344
 30
0.000000000
 10
186.250000000
 20
137.496445802
 30
0.000000000
 10
186.250000000
 20
135.819697415
 30
0.000000000
 10
186.250000000
 20
134.778792347
 30
0.000000000
 10
186.250000000
 20
134.425925926
 30
0.000000000
  0
LINE
  5
AE0
330
A02
100
AcDbEntity
  8
V_09_Adapters_Small_Dish_Adapter_PipeStub_2
100
AcDbLine
 10
189.768518519
 20
159.121527778
 30
0.000000000
 11
233.750000000
 21
159.121527778
 31
0.000000000
  0
SPLINE
  5
AE1
330
A02
100
AcDbEntity
  8
V_09_Adapters_Small_Dish_Adapter_PipeStub_2
100
AcDbSpline
210
0
220
0
230
1
 70
8
 71
1
 72
17
 73
15
 74
0
 40
0.000000000
 40
0.000000000
 40
0.224399475
 40
0.448798951
 40
0.673198426
 40
0.897597901
 40
1.121997376
 40
1.346396852
 40
1.570796327
 40
1.795195802
 40
2.019595277
 40
2.243994753
 40
2.468394228
 40
2.692793703
 40
2.917193178
 40
3.141592654
 40
3.141592654
 10
233.750000000
 20
159.121527778
 30
0.000000000
 10
233.750000000
 20
158.855223901
 30
0.000000000
 10
233.750000000
 20
158.069665857
 30
0.000000000
 10
233.750000000
 20
156.804244809
 30
0.000000000
 10
233.750000000
 20
155.122414250
 30
0.000000000
 10
233.750000000
 20
153.108508187
 30
0.000000000
 10
233.750000000
 20
150.863512281
 30
0.000000000
 10
233.750000000
 20
148.500000000
 30
0.000000000
 10
233.750000000
 20
146.136487719
 30
0.000000000
 10
233.750000000
 20
143.891491813
 30
0.000000000
 10
233.750000000
 20
141.877585750
 30
0.000000000
 10
233.750000000
 20
140.195755191
 30
0.000000000
 10
233.750000000
 20
138.930334143
 30
0.000000000
 10
233.750000000
 20
138.144776099
 30
0.000000000
 10
233.750000000
 20
137.878472222
 30
0.000000000
  0
LINE
  5
AE2
330
A02
100
AcDbEntity
  8
V_09_Adapters_Small_Dish_Adapter_PipeStub_2
100
AcDbLine
 10
186.250000000
 20
134.425925926
 30
0.000000000
 11
189.768518519
 21
134.425925926
 31
0.000000000
  0
LINE
  5
AE3
330
A02
100
AcDbEntity
  8
V_09_Adapters_Small_Dish_Adapter_PipeStub_2
100
AcDbLine
 10
189.768518519
 20
137.878472222
 30
0.000000000
 11
233.750000000
 21
137.878472222
 31
0.000000000
  0
ELLIPSE
  5
AE4
330
A02
100
AcDbEntity
  8
V_09_Adapters_Small_Dish_Adapter_PipeStub_3
100
AcDbEllipse
 10
196.914841700
 20
141.816396844
 30
0.000000000
 11
7.037037037
 21
-12.188505683
 31
0.000000000
 40
0.577350269
 41
-0.000000000
 42
-3.926990817
  0
ELLIPSE
  5
AE5
330
A02
100
AcDbEntity
  8
V_09_Adapters_Small_Dish_Adapter_PipeStub_3
100
AcDbEllipse
 10
196.914841700
 20
141.816396844
 30
0.000000000
 11
7.037037037
 21
-12.188505683
 31
0.000000000
 40
0.577350269
 41
-3.926990817
 42
-3.141592654
  0
ELLIPSE
  5
AE6
330
A02
100
AcDbEntity
  8
V_09_Adapters_Small_Dish_Adapter_PipeStub_3
100
AcDbEllipse
 10
194.426873396
 20
140.379967674
 30
0.000000000
 11
7.037037037
 21
-12.188505683
 31
0.000000000
 40
0.577350269
 41
-0.000000000
 42
-3.926990817
  0
ELLIPSE
  5
AE7
330
A02
100
AcDbEntity
  8
V_09_Adapters_Small_Dish_Adapter_PipeStub_3
100
AcDbEllipse
 10
194.426873396
 20
140.379967674
 30
0.000000000
 11
7.037037037
 21
-12.188505683
 31
0.000000000
 40
0.577350269
 41
-3.141592654
 42
-0.000000000
  0
ELLIPSE
  5
AE8
330
A02
100
AcDbEntity
  8
V_09_Adapters_Small_Dish_Adapter_PipeStub_3
100
AcDbEllipse
 10
194.426873396
 20
140.379967674
 30
0.000000000
 11
7.037037037
 21
-12.188505683
 31
0.000000000
 40
0.577350269
 41
-3.926990817
 42
-3.141592654
  0
ELLIPSE
  5
AE9
330
A02
100
AcDbEntity
  8
V_09_Adapters_Small_Dish_Adapter_PipeStub_3
100
AcDbEllipse
 10
189.149095618
 20
137.332841254
 30
0.000000000
 11
-0.604745370
 21
1.047449707
 31
0.000000000
 40
0.577350269
 41
2.356194490
 42
3.141592654
  0
ELLIPSE
  5
AEA
330
A02
100
AcDbEntity
  8
V_09_Adapters_Small_Dish_Adapter_PipeStub_3
100
AcDbEllipse
 10
189.149095618
 20
137.332841254
 30
0.000000000
 11
-0.604745370
 21
1.047449707
 31
0.000000000
 40
0.577350269
 41
3.141592654
 42
0.000000000
  0
ELLIPSE
  5
AEB
330
A02
100
AcDbEntity
  8
V_09_Adapters_Small_Dish_Adapter_PipeStub_3
100
AcDbEllipse
 10
189.149095618
 20
137.332841254
 30
0.000000000
 11
-0.604745370
 21
1.047449707
 31
0.000000000
 40
0.577350269
 41
0.000000000
 42
2.356194490
  0
ELLIPSE
  5
AEC
330
A02
100
AcDbEntity
  8
V_09_Adapters_Small_Dish_Adapter_PipeStub_3
100
AcDbEllipse
 10
189.149095618
 20
149.521346936
 30
0.000000000
 11
-0.604745370
 21
1.047449707
 31
0.000000000
 40
0.577350269
 41
2.356194490
 42
3.141592654
  0
ELLIPSE
  5
AED
330
A02
100
AcDbEntity
  8
V_09_Adapters_Small_Dish_Adapter_PipeStub_3
100
AcDbEllipse
 10
189.149095618
 20
149.521346936
 30
0.000000000
 11
-0.604745370
 21
1.047449707
 31
0.000000000
 40
0.577350269
 41
3.141592654
 42
0.000000000
  0
ELLIPSE
  5
AEE
330
A02
100
AcDbEntity
  8
V_09_Adapters_Small_Dish_Adapter_PipeStub_3
100
AcDbEllipse
 10
189.149095618
 20
149.521346936
 30
0.000000000
 11
-0.604745370
 21
1.047449707
 31
0.000000000
 40
0.577350269
 41
0.000000000
 42
2.356194490
  0
ELLIPSE
  5
AEF
330
A02
100
AcDbEntity
  8
V_09_Adapters_Small_Dish_Adapter_PipeStub_3
100
AcDbEllipse
 10
199.704651174
 20
131.238588412
 30
0.000000000
 11
-0.604745370
 21
1.047449707
 31
0.000000000
 40
0.577350269
 41
2.356194490
 42
3.141592654
  0
ELLIPSE
  5
AF0
330
A02
100
AcDbEntity
  8
V_09_Adapters_Small_Dish_Adapter_PipeStub_3
100
AcDbEllipse
 10
199.704651174
 20
131.238588412
 30
0.000000000
 11
-0.604745370
 21
1.047449707
 31
0.000000000
 40
0.577350269
 41
3.141592654
 42
0.000000000
  0
ELLIPSE
  5
AF1
330
A02
100
AcDbEntity
  8
V_09_Adapters_Small_Dish_Adapter_PipeStub_3
100
AcDbEllipse
 10
199.704651174
 20
131.238588412
 30
0.000000000
 11
-0.604745370
 21
1.047449707
 31
0.000000000
 40
0.577350269
 41
0.000000000
 42
2.356194490
  0
ELLIPSE
  5
AF2
330
A02
100
AcDbEntity
  8
V_09_Adapters_Small_Dish_Adapter_PipeStub_3
100
AcDbEllipse
 10
199.704651174
 20
143.427094095
 30
0.000000000
 11
-0.604745370
 21
1.047449707
 31
0.000000000
 40
0.577350269
 41
2.356194490
 42
3.141592654
  0
ELLIPSE
  5
AF3
330
A02
100
AcDbEntity
  8
V_09_Adapters_Small_Dish_Adapter_PipeStub_3
100
AcDbEllipse
 10
199.704651174
 20
143.427094095
 30
0.000000000
 11
-0.604745370
 21
1.047449707
 31
0.000000000
 40
0.577350269
 41
3.141592654
 42
0.000000000
  0
ELLIPSE
  5
AF4
330
A02
100
AcDbEntity
  8
V_09_Adapters_Small_Dish_Adapter_PipeStub_3
100
AcDbEllipse
 10
199.704651174
 20
143.427094095
 30
0.000000000
 11
-0.604745370
 21
1.047449707
 31
0.000000000
 40
0.577350269
 41
0.000000000
 42
2.356194490
  0
ELLIPSE
  5
AF5
330
A02
100
AcDbEntity
  8
V_09_Adapters_Small_Dish_Adapter_PipeStub_3
100
AcDbEllipse
 10
228.014445502
 20
159.771761471
 30
0.000000000
 11
5.310763889
 21
-9.198512883
 31
0.000000000
 40
0.577350269
 41
-0.000000000
 42
-3.926990817
  0
ELLIPSE
  5
AF6
330
A02
100
AcDbEntity
  8
V_09_Adapters_Small_Dish_Adapter_PipeStub_3
100
AcDbEllipse
 10
228.014445502
 20
159.771761471
 30
0.000000000
 11
5.310763889
 21
-9.198512883
 31
0.000000000
 40
0.577350269
 41
-3.926990817
 42
-3.141592654
  0
ELLIPSE
  5
AF7
330
A02
100
AcDbEntity
  8
V_09_Adapters_Small_Dish_Adapter_PipeStub_3
100
AcDbEllipse
 10
189.923475753
 20
137.779929833
 30
0.000000000
 11
-0.604745370
 21
1.047449707
 31
0.000000000
 40
0.577350269
 41
2.356194490
 42
2.446765012
  0
ELLIPSE
  5
AF8
330
A02
100
AcDbEntity
  8
V_09_Adapters_Small_Dish_Adapter_PipeStub_3
100
AcDbEllipse
 10
189.923475753
 20
137.779929833
 30
0.000000000
 11
-0.604745370
 21
1.047449707
 31
0.000000000
 40
0.577350269
 41
0.694827641
 42
2.356194490
  0
ELLIPSE
  5
AF9
330
A02
100
AcDbEntity
  8
V_09_Adapters_Small_Dish_Adapter_PipeStub_3
100
AcDbEllipse
 10
189.923475753
 20
149.968435516
 30
0.000000000
 11
-0.604745370
 21
1.047449707
 31
0.000000000
 40
0.577350269
 41
2.356194490
 42
2.446765012
  0
ELLIPSE
  5
AFA
330
A02
100
AcDbEntity
  8
V_09_Adapters_Small_Dish_Adapter_PipeStub_3
100
AcDbEllipse
 10
189.923475753
 20
149.968435516
 30
0.000000000
 11
-0.604745370
 21
1.047449707
 31
0.000000000
 40
0.577350269
 41
0.694827641
 42
2.356194490
  0
ELLIPSE
  5
AFB
330
A02
100
AcDbEntity
  8
V_09_Adapters_Small_Dish_Adapter_PipeStub_3
100
AcDbEllipse
 10
200.479031309
 20
131.685676991
 30
0.000000000
 11
-0.604745370
 21
1.047449707
 31
0.000000000
 40
0.577350269
 41
2.356194490
 42
2.446765012
  0
ELLIPSE
  5
AFC
330
A02
100
AcDbEntity
  8
V_09_Adapters_Small_Dish_Adapter_PipeStub_3
100
AcDbEllipse
 10
200.479031309
 20
131.685676991
 30
0.000000000
 11
-0.604745370
 21
1.047449707
 31
0.000000000
 40
0.577350269
 41
0.694827641
 42
2.356194490
  0
ELLIPSE
  5
AFD
330
A02
100
AcDbEntity
  8
V_09_Adapters_Small_Dish_Adapter_PipeStub_3
100
AcDbEllipse
 10
200.479031309
 20
143.874182674
 30
0.000000000
 11
-0.604745370
 21
1.047449707
 31
0.000000000
 40
0.577350269
 41
2.356194490
 42
2.446765012
  0
ELLIPSE
  5
AFE
330
A02
100
AcDbEntity
  8
V_09_Adapters_Small_Dish_Adapter_PipeStub_3
100
AcDbEllipse
 10
200.479031309
 20
143.874182674
 30
0.000000000
 11
-0.604745370
 21
1.047449707
 31
0.000000000
 40
0.577350269
 41
0.694827641
 42
2.356194490
  0
LINE
  5
AFF
330
A02
100
AcDbEntity
  8
V_09_Adapters_Small_Dish_Adapter_PipeStub_3
100
AcDbLine
 10
201.463910433
 20
128.191461991
 30
0.000000000
 11
203.951878737
 21
129.627891162
 31
0.000000000
  0
LINE
  5
B00
330
A02
100
AcDbEntity
  8
V_09_Adapters_Small_Dish_Adapter_PipeStub_3
100
AcDbLine
 10
187.389836359
 20
152.568473357
 30
0.000000000
 11
189.877804663
 21
154.004902527
 31
0.000000000
  0
LINE
  5
B01
330
A02
100
AcDbEntity
  8
V_09_Adapters_Small_Dish_Adapter_PipeStub_3
100
AcDbLine
 10
206.842496012
 20
135.283446890
 30
0.000000000
 11
233.325209391
 21
150.573248589
 31
0.000000000
  0
LINE
  5
B02
330
A02
100
AcDbEntity
  8
V_09_Adapters_Small_Dish_Adapter_PipeStub_3
100
AcDbLine
 10
196.220968234
 20
153.680472655
 30
0.000000000
 11
222.703681614
 21
168.970274354
 31
0.000000000
  0
TEXT
  5
B03
330
A02
100
AcDbEntity
  8
A_09_Adapters_Small_Dish_Adapter_PipeStub
100
AcDbText
 10
210.000000000
 20
148.500000000
 30
0.000000000
 40
3.500000000
  1
Dish_Adapter_PipeStub  (grey)
  7
STANDARD
 72
1
 11
210.000000000
 21
148.500000000
 31
0.000000000
100
AcDbText
  0
LINE
  5
B04
330
A02
100
AcDbEntity
  8
V_09_Adapters_Small_SlipRing_Stub_Clamp_0
100
AcDbLine
 10
210.000000000
 20
143.500000000
 30
0.000000000
 11
221.000000000
 21
143.500000000
 31
0.000000000
  0
LINE
  5
B05
330
A02
100
AcDbEntity
  8
V_09_Adapters_Small_SlipRing_Stub_Clamp_0
100
AcDbLine
 10
199.000000000
 20
143.500000000
 30
0.000000000
 11
210.000000000
 21
143.500000000
 31
0.000000000
  0
LINE
  5
B06
330
A02
100
AcDbEntity
  8
V_09_Adapters_Small_SlipRing_Stub_Clamp_0
100
AcDbLine
 10
210.000000000
 20
153.500000000
 30
0.000000000
 11
221.000000000
 21
153.500000000
 31
0.000000000
  0
LINE
  5
B07
330
A02
100
AcDbEntity
  8
V_09_Adapters_Small_SlipRing_Stub_Clamp_0
100
AcDbLine
 10
199.000000000
 20
153.500000000
 30
0.000000000
 11
210.000000000
 21
153.500000000
 31
0.000000000
  0
LINE
  5
B08
330
A02
100
AcDbEntity
  8
V_09_Adapters_Small_SlipRing_Stub_Clamp_0
100
AcDbLine
 10
221.000000000
 20
143.500000000
 30
0.000000000
 11
221.000000000
 21
153.500000000
 31
0.000000000
  0
LINE
  5
B09
330
A02
100
AcDbEntity
  8
V_09_Adapters_Small_SlipRing_Stub_Clamp_0
100
AcDbLine
 10
210.000000000
 20
143.500000000
 30
0.000000000
 11
210.000000000
 21
153.500000000
 31
0.000000000
  0
LINE
  5
B0A
330
A02
100
AcDbEntity
  8
V_09_Adapters_Small_SlipRing_Stub_Clamp_0
100
AcDbLine
 10
199.000000000
 20
143.500000000
 30
0.000000000
 11
199.000000000
 21
153.500000000
 31
0.000000000
  0
LINE
  5
B0B
330
A02
100
AcDbEntity
  8
V_09_Adapters_Small_SlipRing_Stub_Clamp_1
100
AcDbLine
 10
221.000000000
 20
155.024058042
 30
0.000000000
 11
210.600000000
 21
161.028500841
 31
0.000000000
  0
LINE
  5
B0C
330
A02
100
AcDbEntity
  8
V_09_Adapters_Small_SlipRing_Stub_Clamp_1
100
AcDbLine
 10
210.600000000
 20
152.222852951
 30
0.000000000
 11
210.600000000
 21
161.028500841
 31
0.000000000
  0
LINE
  5
B0D
330
A02
100
AcDbEntity
  8
V_09_Adapters_Small_SlipRing_Stub_Clamp_1
100
AcDbLine
 10
221.000000000
 20
142.322352120
 30
0.000000000
 11
221.000000000
 21
155.024058042
 31
0.000000000
  0
LINE
  5
B0E
330
A02
100
AcDbEntity
  8
V_09_Adapters_Small_SlipRing_Stub_Clamp_1
100
AcDbLine
 10
210.000000000
 20
135.971499159
 30
0.000000000
 11
221.000000000
 21
142.322352120
 31
0.000000000
  0
LINE
  5
B0F
330
A02
100
AcDbEntity
  8
V_09_Adapters_Small_SlipRing_Stub_Clamp_1
100
AcDbLine
 10
199.000000000
 20
142.322352120
 30
0.000000000
 11
210.000000000
 21
135.971499159
 31
0.000000000
  0
LINE
  5
B10
330
A02
100
AcDbEntity
  8
V_09_Adapters_Small_SlipRing_Stub_Clamp_1
100
AcDbLine
 10
199.000000000
 20
155.024058042
 30
0.000000000
 11
199.000000000
 21
142.322352120
 31
0.000000000
  0
LINE
  5
B11
330
A02
100
AcDbEntity
  8
V_09_Adapters_Small_SlipRing_Stub_Clamp_1
100
AcDbLine
 10
209.400000000
 20
161.028500841
 30
0.000000000
 11
199.000000000
 21
155.024058042
 31
0.000000000
  0
LINE
  5
B12
330
A02
100
AcDbEntity
  8
V_09_Adapters_Small_SlipRing_Stub_Clamp_1
100
AcDbLine
 10
209.400000000
 20
152.222852951
 30
0.000000000
 11
209.400000000
 21
161.028500841
 31
0.000000000
  0
ARC
  5
B13
330
A02
100
AcDbEntity
  8
V_09_Adapters_Small_SlipRing_Stub_Clamp_1
100
AcDbCircle
 10
210.000000000
 20
148.673205081
 30
0.000000000
 40
3.600000000
100
AcDbArc
 50
99.594068227
 51
-0.000000000
  0
ARC
  5
B14
330
A02
100
AcDbEntity
  8
V_09_Adapters_Small_SlipRing_Stub_Clamp_1
100
AcDbCircle
 10
210.000000000
 20
148.673205081
 30
0.000000000
 40
3.600000000
100
AcDbArc
 50
0.000000000
 51
80.405931773
  0
LINE
  5
B15
330
A02
100
AcDbEntity
  8
V_09_Adapters_Small_SlipRing_Stub_Clamp_2
100
AcDbLine
 10
216.524058042
 20
143.500000000
 30
0.000000000
 11
222.528500841
 21
143.500000000
 31
0.000000000
  0
LINE
  5
B16
330
A02
100
AcDbEntity
  8
V_09_Adapters_Small_SlipRing_Stub_Clamp_2
100
AcDbLine
 10
222.528500841
 20
143.500000000
 30
0.000000000
 11
222.528500841
 21
153.500000000
 31
0.000000000
  0
LINE
  5
B17
330
A02
100
AcDbEntity
  8
V_09_Adapters_Small_SlipRing_Stub_Clamp_2
100
AcDbLine
 10
216.524058042
 20
153.500000000
 30
0.000000000
 11
222.528500841
 21
153.500000000
 31
0.000000000
  0
LINE
  5
B18
330
A02
100
AcDbEntity
  8
V_09_Adapters_Small_SlipRing_Stub_Clamp_2
100
AcDbLine
 10
216.524058042
 20
151.450000000
 30
0.000000000
 11
216.524058042
 21
153.500000000
 31
0.000000000
  0
LINE
  5
B19
330
A02
100
AcDbEntity
  8
V_09_Adapters_Small_SlipRing_Stub_Clamp_2
100
AcDbLine
 10
217.973207218
 20
151.450000000
 30
0.000000000
 11
216.524058042
 21
151.450000000
 31
0.000000000
  0
LINE
  5
B1A
330
A02
100
AcDbEntity
  8
V_09_Adapters_Small_SlipRing_Stub_Clamp_2
100
AcDbLine
 10
217.973207218
 20
149.999998860
 30
0.000000000
 11
217.973207218
 21
151.450000000
 31
0.000000000
  0
SPLINE
  5
B1B
330
A02
100
AcDbEntity
  8
V_09_Adapters_Small_SlipRing_Stub_Clamp_2
100
AcDbSpline
210
0
220
0
230
1
 70
8
 71
1
 72
17
 73
15
 74
0
 40
2.060755078
 40
2.060755078
 40
2.215160446
 40
2.369565814
 40
2.523971182
 40
2.678376550
 40
2.832781918
 40
2.987187286
 40
3.141592654
 40
3.295998022
 40
3.450403390
 40
3.604808758
 40
3.759214126
 40
3.913619494
 40
4.068024862
 40
4.222430230
 40
4.222430230
 10
217.973207218
 20
149.999998860
 30
0.000000000
 10
218.194378394
 20
149.859119223
 30
0.000000000
 10
218.391252091
 20
149.685901126
 30
0.000000000
 10
218.559143955
 20
149.484466066
 30
0.000000000
 10
218.694059221
 20
149.259606927
 30
0.000000000
 10
218.792787756
 20
149.016673936
 30
0.000000000
 10
218.852980445
 20
148.761447367
 30
0.000000000
 10
218.873205081
 20
148.500000000
 30
0.000000000
 10
218.852980445
 20
148.238552633
 30
0.000000000
 10
218.792787756
 20
147.983326064
 30
0.000000000
 10
218.694059221
 20
147.740393073
 30
0.000000000
 10
218.559143955
 20
147.515533934
 30
0.000000000
 10
218.391252091
 20
147.314098874
 30
0.000000000
 10
218.194378394
 20
147.140880777
 30
0.000000000
 10
217.973207218
 20
147.000001140
 30
0.000000000
  0
LINE
  5
B1C
330
A02
100
AcDbEntity
  8
V_09_Adapters_Small_SlipRing_Stub_Clamp_2
100
AcDbLine
 10
217.973207218
 20
145.550000000
 30
0.000000000
 11
217.973207218
 21
147.000001140
 31
0.000000000
  0
LINE
  5
B1D
330
A02
100
AcDbEntity
  8
V_09_Adapters_Small_SlipRing_Stub_Clamp_2
100
AcDbLine
 10
216.524058042
 20
145.550000000
 30
0.000000000
 11
217.973207218
 21
145.550000000
 31
0.000000000
  0
LINE
  5
B1E
330
A02
100
AcDbEntity
  8
V_09_Adapters_Small_SlipRing_Stub_Clamp_2
100
AcDbLine
 10
216.524058042
 20
143.500000000
 30
0.000000000
 11
216.524058042
 21
145.550000000
 31
0.000000000
  0
LINE
  5
B1F
330
A02
100
AcDbEntity
  8
V_09_Adapters_Small_SlipRing_Stub_Clamp_2
100
AcDbLine
 10
203.822352120
 20
143.500000000
 30
0.000000000
 11
216.524058042
 21
143.500000000
 31
0.000000000
  0
LINE
  5
B20
330
A02
100
AcDbEntity
  8
V_09_Adapters_Small_SlipRing_Stub_Clamp_2
100
AcDbLine
 10
197.471499159
 20
143.500000000
 30
0.000000000
 11
203.822352120
 21
143.500000000
 31
0.000000000
  0
LINE
  5
B21
330
A02
100
AcDbEntity
  8
V_09_Adapters_Small_SlipRing_Stub_Clamp_2
100
AcDbLine
 10
203.822352120
 20
153.500000000
 30
0.000000000
 11
216.524058042
 21
153.500000000
 31
0.000000000
  0
LINE
  5
B22
330
A02
100
AcDbEntity
  8
V_09_Adapters_Small_SlipRing_Stub_Clamp_2
100
AcDbLine
 10
197.471499159
 20
153.500000000
 30
0.000000000
 11
203.822352120
 21
153.500000000
 31
0.000000000
  0
LINE
  5
B23
330
A02
100
AcDbEntity
  8
V_09_Adapters_Small_SlipRing_Stub_Clamp_2
100
AcDbLine
 10
215.470021787
 20
145.550000000
 30
0.000000000
 11
216.524058042
 21
145.550000000
 31
0.000000000
  0
LINE
  5
B24
330
A02
100
AcDbEntity
  8
V_09_Adapters_Small_SlipRing_Stub_Clamp_2
100
AcDbLine
 10
213.766838493
 20
148.500000000
 30
0.000000000
 11
215.470021787
 21
145.550000000
 31
0.000000000
  0
LINE
  5
B25
330
A02
100
AcDbEntity
  8
V_09_Adapters_Small_SlipRing_Stub_Clamp_2
100
AcDbLine
 10
215.470021787
 20
151.450000000
 30
0.000000000
 11
213.766838493
 21
148.500000000
 31
0.000000000
  0
LINE
  5
B26
330
A02
100
AcDbEntity
  8
V_09_Adapters_Small_SlipRing_Stub_Clamp_2
100
AcDbLine
 10
216.524058042
 20
151.450000000
 30
0.000000000
 11
215.470021787
 21
151.450000000
 31
0.000000000
  0
LINE
  5
B27
330
A02
100
AcDbEntity
  8
V_09_Adapters_Small_SlipRing_Stub_Clamp_2
100
AcDbLine
 10
203.822352120
 20
143.500000000
 30
0.000000000
 11
203.822352120
 21
153.500000000
 31
0.000000000
  0
ARC
  5
B28
330
A02
100
AcDbEntity
  8
V_09_Adapters_Small_SlipRing_Stub_Clamp_2
100
AcDbCircle
 10
217.173205081
 20
148.500000000
 30
0.000000000
 40
1.700000000
100
AcDbArc
 50
61.927431446
 51
90.000000000
  0
ARC
  5
B29
330
A02
100
AcDbEntity
  8
V_09_Adapters_Small_SlipRing_Stub_Clamp_2
100
AcDbCircle
 10
217.173205081
 20
148.500000000
 30
0.000000000
 40
1.700000000
100
AcDbArc
 50
90.000000000
 51
-61.927431446
  0
LINE
  5
B2A
330
A02
100
AcDbEntity
  8
V_09_Adapters_Small_SlipRing_Stub_Clamp_2
100
AcDbLine
 10
197.471499159
 20
143.500000000
 30
0.000000000
 11
197.471499159
 21
153.500000000
 31
0.000000000
  0
LINE
  5
B2B
330
A02
100
AcDbEntity
  8
V_09_Adapters_Small_SlipRing_Stub_Clamp_3
100
AcDbLine
 10
222.268905788
 20
150.684476574
 30
0.000000000
 11
219.160777485
 21
157.381562303
 31
0.000000000
  0
LINE
  5
B2C
330
A02
100
AcDbEntity
  8
V_09_Adapters_Small_SlipRing_Stub_Clamp_3
100
AcDbLine
 10
222.268905788
 20
149.010658583
 30
0.000000000
 11
222.268905788
 21
150.684476574
 31
0.000000000
  0
SPLINE
  5
B2D
330
A02
100
AcDbEntity
  8
V_09_Adapters_Small_SlipRing_Stub_Clamp_3
100
AcDbSpline
210
0
220
0
230
1
 70
8
 71
3
 72
8
 73
4
 74
0
 40
3.836639770
 40
3.836639770
 40
3.836639770
 40
3.836639770
 40
4.222430230
 40
4.222430230
 40
4.222430230
 40
4.222430230
 10
221.257033559
 20
147.893341789
 30
0.000000000
 10
221.329548757
 20
147.600024138
 30
0.000000000
 10
221.418925782
 20
147.292772242
 30
0.000000000
 10
221.518770976
 20
146.993565611
 30
0.000000000
  0
LINE
  5
B2E
330
A02
100
AcDbEntity
  8
V_09_Adapters_Small_SlipRing_Stub_Clamp_3
100
AcDbLine
 10
221.518770976
 20
145.809644638
 30
0.000000000
 11
221.518770976
 21
146.993565611
 31
0.000000000
  0
LINE
  5
B2F
330
A02
100
AcDbEntity
  8
V_09_Adapters_Small_SlipRing_Stub_Clamp_3
100
AcDbLine
 10
222.268905788
 20
144.193328756
 30
0.000000000
 11
221.518770976
 21
145.809644638
 31
0.000000000
  0
LINE
  5
B30
330
A02
100
AcDbEntity
  8
V_09_Adapters_Small_SlipRing_Stub_Clamp_3
100
AcDbLine
 10
222.268905788
 20
142.519510765
 30
0.000000000
 11
222.268905788
 21
144.193328756
 31
0.000000000
  0
LINE
  5
B31
330
A02
100
AcDbEntity
  8
V_09_Adapters_Small_SlipRing_Stub_Clamp_3
100
AcDbLine
 10
213.287443398
 20
137.334061036
 30
0.000000000
 11
222.268905788
 21
142.519510765
 31
0.000000000
  0
LINE
  5
B32
330
A02
100
AcDbEntity
  8
V_09_Adapters_Small_SlipRing_Stub_Clamp_3
100
AcDbLine
 10
201.018537610
 20
139.232067367
 30
0.000000000
 11
213.287443398
 21
137.334061036
 31
0.000000000
  0
LINE
  5
B33
330
A02
100
AcDbEntity
  8
V_09_Adapters_Small_SlipRing_Stub_Clamp_3
100
AcDbLine
 10
197.731094212
 20
146.315523426
 30
0.000000000
 11
201.018537610
 21
139.232067367
 31
0.000000000
  0
LINE
  5
B34
330
A02
100
AcDbEntity
  8
V_09_Adapters_Small_SlipRing_Stub_Clamp_3
100
AcDbLine
 10
212.934244148
 20
151.378294204
 30
0.000000000
 11
212.934244148
 21
153.786671605
 31
0.000000000
  0
LINE
  5
B35
330
A02
100
AcDbEntity
  8
V_09_Adapters_Small_SlipRing_Stub_Clamp_3
100
AcDbLine
 10
212.934244148
 20
153.786671605
 30
0.000000000
 11
219.160777485
 21
157.381562303
 31
0.000000000
  0
LINE
  5
B36
330
A02
100
AcDbEntity
  8
V_09_Adapters_Small_SlipRing_Stub_Clamp_3
100
AcDbLine
 10
213.287443398
 20
145.499026845
 30
0.000000000
 11
222.268905788
 21
150.684476574
 31
0.000000000
  0
LINE
  5
B37
330
A02
100
AcDbEntity
  8
V_09_Adapters_Small_SlipRing_Stub_Clamp_3
100
AcDbLine
 10
201.018537610
 20
147.397033176
 30
0.000000000
 11
213.287443398
 21
145.499026845
 31
0.000000000
  0
LINE
  5
B38
330
A02
100
AcDbEntity
  8
V_09_Adapters_Small_SlipRing_Stub_Clamp_3
100
AcDbLine
 10
197.731094212
 20
154.480489235
 30
0.000000000
 11
201.018537610
 21
147.397033176
 31
0.000000000
  0
LINE
  5
B39
330
A02
100
AcDbEntity
  8
V_09_Adapters_Small_SlipRing_Stub_Clamp_3
100
AcDbLine
 10
206.712556602
 20
159.665938964
 30
0.000000000
 11
197.731094212
 21
154.480489235
 31
0.000000000
  0
LINE
  5
B3A
330
A02
100
AcDbEntity
  8
V_09_Adapters_Small_SlipRing_Stub_Clamp_3
100
AcDbLine
 10
218.312249347
 20
157.871460251
 30
0.000000000
 11
206.712556602
 21
159.665938964
 31
0.000000000
  0
LINE
  5
B3B
330
A02
100
AcDbEntity
  8
V_09_Adapters_Small_SlipRing_Stub_Clamp_3
100
AcDbLine
 10
212.085716011
 20
154.276569554
 30
0.000000000
 11
218.312249347
 21
157.871460251
 31
0.000000000
  0
ELLIPSE
  5
B3C
330
A02
100
AcDbEntity
  8
V_09_Adapters_Small_SlipRing_Stub_Clamp_3
100
AcDbEllipse
 10
210.000000000
 20
152.582482905
 30
0.000000000
 11
3.600000000
 21
0.000000000
 31
0.000000000
 40
0.577350269
 41
0.952846243
 42
3.141592654
  0
ELLIPSE
  5
B3D
330
A02
100
AcDbEntity
  8
V_09_Adapters_Small_SlipRing_Stub_Clamp_3
100
AcDbEllipse
 10
210.000000000
 20
152.582482905
 30
0.000000000
 11
3.600000000
 21
0.000000000
 31
0.000000000
 40
0.577350269
 41
3.141592654
 42
5.497787144
  0
ELLIPSE
  5
B3E
330
A02
100
AcDbEntity
  8
V_09_Adapters_Small_SlipRing_Stub_Clamp_3
100
AcDbEllipse
 10
210.000000000
 20
152.582482905
 30
0.000000000
 11
3.600000000
 21
0.000000000
 31
0.000000000
 40
0.577350269
 41
5.497787144
 42
0.000000000
  0
ELLIPSE
  5
B3F
330
A02
100
AcDbEntity
  8
V_09_Adapters_Small_SlipRing_Stub_Clamp_3
100
AcDbEllipse
 10
210.000000000
 20
152.582482905
 30
0.000000000
 11
3.600000000
 21
0.000000000
 31
0.000000000
 40
0.577350269
 41
0.000000000
 42
0.617950084
  0
LINE
  5
B40
330
A02
100
AcDbEntity
  8
V_09_Adapters_Small_SlipRing_Stub_Clamp_3
100
AcDbLine
 10
221.523589604
 20
143.763020256
 30
0.000000000
 11
222.268905788
 21
144.193328756
 31
0.000000000
  0
LINE
  5
B41
330
A02
100
AcDbEntity
  8
V_09_Adapters_Small_SlipRing_Stub_Clamp_3
100
AcDbLine
 10
220.319257148
 20
145.476363502
 30
0.000000000
 11
221.523589604
 21
143.763020256
 31
0.000000000
  0
LINE
  5
B42
330
A02
100
AcDbEntity
  8
V_09_Adapters_Small_SlipRing_Stub_Clamp_3
100
AcDbLine
 10
221.523589604
 20
148.580350084
 30
0.000000000
 11
220.319257148
 21
145.476363502
 31
0.000000000
  0
LINE
  5
B43
330
A02
100
AcDbEntity
  8
V_09_Adapters_Small_SlipRing_Stub_Clamp_3
100
AcDbLine
 10
222.268905788
 20
149.010658583
 30
0.000000000
 11
221.523589604
 21
148.580350084
 31
0.000000000
  0
LINE
  5
B44
330
A02
100
AcDbEntity
  8
V_09_Adapters_Small_SlipRing_Stub_Clamp_3
100
AcDbLine
 10
213.287443398
 20
137.334061036
 30
0.000000000
 11
213.287443398
 21
145.499026845
 31
0.000000000
  0
LINE
  5
B45
330
A02
100
AcDbEntity
  8
V_09_Adapters_Small_SlipRing_Stub_Clamp_3
100
AcDbLine
 10
220.498886395
 20
145.220814001
 30
0.000000000
 11
221.518770976
 21
145.809644638
 31
0.000000000
  0
ELLIPSE
  5
B46
330
A02
100
AcDbEntity
  8
V_09_Adapters_Small_SlipRing_Stub_Clamp_3
100
AcDbEllipse
 10
220.953084041
 20
147.891710047
 30
0.000000000
 11
-0.850000000
 21
-1.472243186
 31
0.000000000
 40
0.577350269
 41
0.547262877
 42
1.275356914
  0
LINE
  5
B47
330
A02
100
AcDbEntity
  8
V_09_Adapters_Small_SlipRing_Stub_Clamp_3
100
AcDbLine
 10
201.018537610
 20
139.232067367
 30
0.000000000
 11
201.018537610
 21
147.397033176
 31
0.000000000
  0
LINE
  5
B48
330
A02
100
AcDbEntity
  8
V_09_Adapters_Small_SlipRing_Stub_Clamp_3
100
AcDbLine
 10
197.731094212
 20
146.315523426
 30
0.000000000
 11
197.731094212
 21
154.480489235
 31
0.000000000
  0
LINE
  5
B49
330
A02
100
AcDbEntity
  8
V_09_Adapters_Small_SlipRing_Stub_Clamp_3
100
AcDbLine
 10
218.312249347
 20
156.891664354
 30
0.000000000
 11
218.312249347
 21
157.871460251
 31
0.000000000
  0
LINE
  5
B4A
330
A02
100
AcDbEntity
  8
V_09_Adapters_Small_SlipRing_Stub_Clamp_3
100
AcDbLine
 10
212.085716011
 20
150.888396256
 30
0.000000000
 11
212.085716011
 21
154.276569554
 31
0.000000000
  0
TEXT
  5
B4B
330
A02
100
AcDbEntity
  8
A_09_Adapters_Small_SlipRing_Stub_Clamp
100
AcDbText
 10
210.000000000
 20
148.500000000
 30
0.000000000
 40
3.500000000
  1
SlipRing_Stub_Clamp  (white)
  7
STANDARD
 72
1
 11
210.000000000
 21
148.500000000
 31
0.000000000
100
AcDbText
  0
LINE
  5
B4C
330
A02
100
AcDbEntity
  8
V_09_Adapters_Small_Az_Servo_Clamp_0
100
AcDbLine
 10
228.925781250
 20
141.078125000
 30
0.000000000
 11
228.925781250
 21
155.921875000
 31
0.000000000
  0
LINE
  5
B4D
330
A02
100
AcDbEntity
  8
V_09_Adapters_Small_Az_Servo_Clamp_0
100
AcDbLine
 10
228.925781250
 20
141.078125000
 30
0.000000000
 11
233.750000000
 21
141.078125000
 31
0.000000000
  0
LINE
  5
B4E
330
A02
100
AcDbEntity
  8
V_09_Adapters_Small_Az_Servo_Clamp_0
100
AcDbLine
 10
233.750000000
 20
138.109375000
 30
0.000000000
 11
233.750000000
 21
141.078125000
 31
0.000000000
  0
LINE
  5
B4F
330
A02
100
AcDbEntity
  8
V_09_Adapters_Small_Az_Servo_Clamp_0
100
AcDbLine
 10
190.703125000
 20
155.921875000
 30
0.000000000
 11
190.703125000
 21
158.890625000
 31
0.000000000
  0
LINE
  5
B50
330
A02
100
AcDbEntity
  8
V_09_Adapters_Small_Az_Servo_Clamp_0
100
AcDbLine
 10
190.703125000
 20
155.921875000
 30
0.000000000
 11
191.074218750
 21
155.921875000
 31
0.000000000
  0
LINE
  5
B51
330
A02
100
AcDbEntity
  8
V_09_Adapters_Small_Az_Servo_Clamp_0
100
AcDbLine
 10
191.074218750
 20
141.078125000
 30
0.000000000
 11
191.074218750
 21
155.921875000
 31
0.000000000
  0
LINE
  5
B52
330
A02
100
AcDbEntity
  8
V_09_Adapters_Small_Az_Servo_Clamp_0
100
AcDbLine
 10
186.250000000
 20
141.078125000
 30
0.000000000
 11
191.074218750
 21
141.078125000
 31
0.000000000
  0
LINE
  5
B53
330
A02
100
AcDbEntity
  8
V_09_Adapters_Small_Az_Servo_Clamp_0
100
AcDbLine
 10
186.250000000
 20
138.109375000
 30
0.000000000
 11
186.250000000
 21
141.078125000
 31
0.000000000
  0
LINE
  5
B54
330
A02
100
AcDbEntity
  8
V_09_Adapters_Small_Az_Servo_Clamp_0
100
AcDbLine
 10
186.250000000
 20
138.109375000
 30
0.000000000
 11
194.785156250
 21
138.109375000
 31
0.000000000
  0
LINE
  5
B55
330
A02
100
AcDbEntity
  8
V_09_Adapters_Small_Az_Servo_Clamp_0
100
AcDbLine
 10
194.785156250
 20
138.109375000
 30
0.000000000
 11
194.785156250
 21
155.921875000
 31
0.000000000
  0
LINE
  5
B56
330
A02
100
AcDbEntity
  8
V_09_Adapters_Small_Az_Servo_Clamp_0
100
AcDbLine
 10
194.785156250
 20
155.921875000
 30
0.000000000
 11
225.214843750
 21
155.921875000
 31
0.000000000
  0
LINE
  5
B57
330
A02
100
AcDbEntity
  8
V_09_Adapters_Small_Az_Servo_Clamp_0
100
AcDbLine
 10
225.214843750
 20
138.109375000
 30
0.000000000
 11
225.214843750
 21
155.921875000
 31
0.000000000
  0
LINE
  5
B58
330
A02
100
AcDbEntity
  8
V_09_Adapters_Small_Az_Servo_Clamp_0
100
AcDbLine
 10
225.214843750
 20
138.109375000
 30
0.000000000
 11
233.750000000
 21
138.109375000
 31
0.000000000
  0
LINE
  5
B59
330
A02
100
AcDbEntity
  8
V_09_Adapters_Small_Az_Servo_Clamp_0
100
AcDbLine
 10
228.925781250
 20
155.921875000
 30
0.000000000
 11
229.296875000
 21
155.921875000
 31
0.000000000
  0
LINE
  5
B5A
330
A02
100
AcDbEntity
  8
V_09_Adapters_Small_Az_Servo_Clamp_0
100
AcDbLine
 10
229.296875000
 20
155.921875000
 30
0.000000000
 11
229.296875000
 21
158.890625000
 31
0.000000000
  0
LINE
  5
B5B
330
A02
100
AcDbEntity
  8
V_09_Adapters_Small_Az_Servo_Clamp_0
100
AcDbLine
 10
190.703125000
 20
158.890625000
 30
0.000000000
 11
229.296875000
 21
158.890625000
 31
0.000000000
  0
ARC
  5
B5C
330
A02
100
AcDbEntity
  8
V_09_Adapters_Small_Az_Servo_Clamp_1
100
AcDbCircle
 10
230.781250000
 20
148.500000000
 30
0.000000000
 40
2.486328125
100
AcDbArc
 50
-126.656405243
 51
126.656405243
  0
LINE
  5
B5D
330
A02
100
AcDbEntity
  8
V_09_Adapters_Small_Az_Servo_Clamp_1
100
AcDbLine
 10
229.296875000
 20
152.953125000
 30
0.000000000
 11
233.750000000
 21
152.953125000
 31
0.000000000
  0
LINE
  5
B5E
330
A02
100
AcDbEntity
  8
V_09_Adapters_Small_Az_Servo_Clamp_1
100
AcDbLine
 10
233.750000000
 20
144.046875000
 30
0.000000000
 11
233.750000000
 21
152.953125000
 31
0.000000000
  0
LINE
  5
B5F
330
A02
100
AcDbEntity
  8
V_09_Adapters_Small_Az_Servo_Clamp_1
100
AcDbLine
 10
229.296875000
 20
144.046875000
 30
0.000000000
 11
233.750000000
 21
144.046875000
 31
0.000000000
  0
LINE
  5
B60
330
A02
100
AcDbEntity
  8
V_09_Adapters_Small_Az_Servo_Clamp_1
100
AcDbLine
 10
190.703125000
 20
144.046875000
 30
0.000000000
 11
190.703125000
 21
152.953125000
 31
0.000000000
  0
LINE
  5
B61
330
A02
100
AcDbEntity
  8
V_09_Adapters_Small_Az_Servo_Clamp_1
100
AcDbLine
 10
186.250000000
 20
152.953125000
 30
0.000000000
 11
190.703125000
 21
152.953125000
 31
0.000000000
  0
ARC
  5
B62
330
A02
100
AcDbEntity
  8
V_09_Adapters_Small_Az_Servo_Clamp_1
100
AcDbCircle
 10
189.218750000
 20
148.500000000
 30
0.000000000
 40
2.486328125
100
AcDbArc
 50
53.343594757
 51
180.000000000
  0
ARC
  5
B63
330
A02
100
AcDbEntity
  8
V_09_Adapters_Small_Az_Servo_Clamp_1
100
AcDbCircle
 10
189.218750000
 20
148.500000000
 30
0.000000000
 40
2.486328125
100
AcDbArc
 50
180.000000000
 51
-53.343594757
  0
LINE
  5
B64
330
A02
100
AcDbEntity
  8
V_09_Adapters_Small_Az_Servo_Clamp_1
100
AcDbLine
 10
186.250000000
 20
144.046875000
 30
0.000000000
 11
190.703125000
 21
144.046875000
 31
0.000000000
  0
LINE
  5
B65
330
A02
100
AcDbEntity
  8
V_09_Adapters_Small_Az_Servo_Clamp_1
100
AcDbLine
 10
186.250000000
 20
144.046875000
 30
0.000000000
 11
186.250000000
 21
152.953125000
 31
0.000000000
  0
CIRCLE
  5
B66
330
A02
100
AcDbEntity
  8
V_09_Adapters_Small_Az_Servo_Clamp_1
100
AcDbCircle
 10
189.218750000
 20
148.500000000
 30
0.000000000
 40
1.261718750
  0
LINE
  5
B67
330
A02
100
AcDbEntity
  8
V_09_Adapters_Small_Az_Servo_Clamp_1
100
AcDbLine
 10
229.296875000
 20
144.046875000
 30
0.000000000
 11
229.296875000
 21
152.953125000
 31
0.000000000
  0
CIRCLE
  5
B68
330
A02
100
AcDbEntity
  8
V_09_Adapters_Small_Az_Servo_Clamp_1
100
AcDbCircle
 10
230.781250000
 20
148.500000000
 30
0.000000000
 40
1.261718750
  0
LINE
  5
B69
330
A02
100
AcDbEntity
  8
V_09_Adapters_Small_Az_Servo_Clamp_1
100
AcDbLine
 10
190.703125000
 20
144.046875000
 30
0.000000000
 11
229.296875000
 21
144.046875000
 31
0.000000000
  0
LINE
  5
B6A
330
A02
100
AcDbEntity
  8
V_09_Adapters_Small_Az_Servo_Clamp_1
100
AcDbLine
 10
190.703125000
 20
152.953125000
 30
0.000000000
 11
229.296875000
 21
152.953125000
 31
0.000000000
  0
LINE
  5
B6B
330
A02
100
AcDbEntity
  8
V_09_Adapters_Small_Az_Servo_Clamp_2
100
AcDbLine
 10
205.546875000
 20
141.078125000
 30
0.000000000
 11
205.546875000
 21
155.921875000
 31
0.000000000
  0
LINE
  5
B6C
330
A02
100
AcDbEntity
  8
V_09_Adapters_Small_Az_Servo_Clamp_2
100
AcDbLine
 10
214.453125000
 20
141.078125000
 30
0.000000000
 11
214.453125000
 21
155.921875000
 31
0.000000000
  0
LINE
  5
B6D
330
A02
100
AcDbEntity
  8
V_09_Adapters_Small_Az_Servo_Clamp_2
100
AcDbLine
 10
205.546875000
 20
141.078125000
 30
0.000000000
 11
214.453125000
 21
141.078125000
 31
0.000000000
  0
LINE
  5
B6E
330
A02
100
AcDbEntity
  8
V_09_Adapters_Small_Az_Servo_Clamp_2
100
AcDbLine
 10
205.546875000
 20
138.109375000
 30
0.000000000
 11
205.546875000
 21
141.078125000
 31
0.000000000
  0
LINE
  5
B6F
330
A02
100
AcDbEntity
  8
V_09_Adapters_Small_Az_Servo_Clamp_2
100
AcDbLine
 10
214.453125000
 20
138.109375000
 30
0.000000000
 11
214.453125000
 21
141.078125000
 31
0.000000000
  0
LINE
  5
B70
330
A02
100
AcDbEntity
  8
V_09_Adapters_Small_Az_Servo_Clamp_2
100
AcDbLine
 10
205.546875000
 20
138.109375000
 30
0.000000000
 11
214.453125000
 21
138.109375000
 31
0.000000000
  0
LINE
  5
B71
330
A02
100
AcDbEntity
  8
V_09_Adapters_Small_Az_Servo_Clamp_2
100
AcDbLine
 10
205.546875000
 20
155.921875000
 30
0.000000000
 11
214.453125000
 21
155.921875000
 31
0.000000000
  0
LINE
  5
B72
330
A02
100
AcDbEntity
  8
V_09_Adapters_Small_Az_Servo_Clamp_2
100
AcDbLine
 10
205.546875000
 20
155.921875000
 30
0.000000000
 11
205.546875000
 21
158.890625000
 31
0.000000000
  0
LINE
  5
B73
330
A02
100
AcDbEntity
  8
V_09_Adapters_Small_Az_Servo_Clamp_2
100
AcDbLine
 10
205.546875000
 20
158.890625000
 30
0.000000000
 11
214.453125000
 21
158.890625000
 31
0.000000000
  0
LINE
  5
B74
330
A02
100
AcDbEntity
  8
V_09_Adapters_Small_Az_Servo_Clamp_2
100
AcDbLine
 10
214.453125000
 20
155.921875000
 30
0.000000000
 11
214.453125000
 21
158.890625000
 31
0.000000000
  0
LINE
  5
B75
330
A02
100
AcDbEntity
  8
V_09_Adapters_Small_Az_Servo_Clamp_3
100
AcDbLine
 10
220.233713376
 20
133.804656263
 30
0.000000000
 11
220.233713376
 21
145.924527386
 31
0.000000000
  0
LINE
  5
B76
330
A02
100
AcDbEntity
  8
V_09_Adapters_Small_Az_Servo_Clamp_3
100
AcDbLine
 10
226.531383146
 20
137.440617600
 30
0.000000000
 11
226.531383146
 21
149.257491945
 31
0.000000000
  0
LINE
  5
B77
330
A02
100
AcDbEntity
  8
V_09_Adapters_Small_Az_Servo_Clamp_3
100
AcDbLine
 10
226.531383146
 20
137.440617600
 30
0.000000000
 11
224.552818158
 21
136.298292572
 31
0.000000000
  0
LINE
  5
B78
330
A02
100
AcDbEntity
  8
V_09_Adapters_Small_Az_Servo_Clamp_3
100
AcDbLine
 10
224.552818158
 20
136.298292572
 30
0.000000000
 11
224.552818158
 21
136.292232636
 31
0.000000000
  0
LINE
  5
B79
330
A02
100
AcDbEntity
  8
V_09_Adapters_Small_Az_Servo_Clamp_3
100
AcDbLine
 10
222.212278364
 20
134.940921356
 30
0.000000000
 11
224.552818158
 21
136.292232636
 31
0.000000000
  0
LINE
  5
B7A
330
A02
100
AcDbEntity
  8
V_09_Adapters_Small_Az_Servo_Clamp_3
100
AcDbLine
 10
222.212278364
 20
134.946981292
 30
0.000000000
 11
222.212278364
 21
134.940921356
 31
0.000000000
  0
LINE
  5
B7B
330
A02
100
AcDbEntity
  8
V_09_Adapters_Small_Az_Servo_Clamp_3
100
AcDbLine
 10
222.212278364
 20
134.946981292
 30
0.000000000
 11
220.233713376
 21
133.804656263
 31
0.000000000
  0
ELLIPSE
  5
B7C
330
A02
100
AcDbEntity
  8
V_09_Adapters_Small_Az_Servo_Clamp_3
100
AcDbEllipse
 10
224.694562797
 20
134.865144986
 30
0.000000000
 11
-2.486328125
 21
0.000000000
 31
0.000000000
 40
0.577350269
 41
-3.141592654
 42
-1.513755774
  0
ELLIPSE
  5
B7D
330
A02
100
AcDbEntity
  8
V_09_Adapters_Small_Az_Servo_Clamp_3
100
AcDbEllipse
 10
224.694562797
 20
134.865144986
 30
0.000000000
 11
-2.486328125
 21
0.000000000
 31
0.000000000
 40
0.577350269
 41
-0.000000000
 42
-3.141592654
  0
ELLIPSE
  5
B7E
330
A02
100
AcDbEntity
  8
V_09_Adapters_Small_Az_Servo_Clamp_3
100
AcDbEllipse
 10
224.694562797
 20
134.865144986
 30
0.000000000
 11
-2.486328125
 21
0.000000000
 31
0.000000000
 40
0.577350269
 41
-0.057040553
 42
-0.000000000
  0
LINE
  5
B7F
330
A02
100
AcDbEntity
  8
V_09_Adapters_Small_Az_Servo_Clamp_3
100
AcDbLine
 10
226.531383146
 20
137.440617600
 30
0.000000000
 11
229.942620938
 21
135.471138543
 31
0.000000000
  0
LINE
  5
B80
330
A02
100
AcDbEntity
  8
V_09_Adapters_Small_Az_Servo_Clamp_3
100
AcDbLine
 10
223.644951168
 20
131.835177206
 30
0.000000000
 11
229.942620938
 21
135.471138543
 31
0.000000000
  0
LINE
  5
B81
330
A02
100
AcDbEntity
  8
V_09_Adapters_Small_Az_Servo_Clamp_3
100
AcDbLine
 10
220.233713376
 20
133.804656263
 30
0.000000000
 11
223.644951168
 21
131.835177206
 31
0.000000000
  0
LINE
  5
B82
330
A02
100
AcDbEntity
  8
V_09_Adapters_Small_Az_Servo_Clamp_3
100
AcDbLine
 10
223.644951168
 20
129.411202981
 30
0.000000000
 11
223.644951168
 21
131.835177206
 31
0.000000000
  0
LINE
  5
B83
330
A02
100
AcDbEntity
  8
V_09_Adapters_Small_Az_Servo_Clamp_3
100
AcDbLine
 10
229.942620938
 20
133.047164318
 30
0.000000000
 11
229.942620938
 21
135.471138543
 31
0.000000000
  0
LINE
  5
B84
330
A02
100
AcDbEntity
  8
V_09_Adapters_Small_Az_Servo_Clamp_3
100
AcDbLine
 10
223.644951168
 20
129.411202981
 30
0.000000000
 11
229.942620938
 21
133.047164318
 31
0.000000000
  0
LINE
  5
B85
330
A02
100
AcDbEntity
  8
V_09_Adapters_Small_Az_Servo_Clamp_3
100
AcDbLine
 10
193.206213947
 20
161.528861457
 30
0.000000000
 11
193.206213947
 21
163.952835682
 31
0.000000000
  0
LINE
  5
B86
330
A02
100
AcDbEntity
  8
V_09_Adapters_Small_Az_Servo_Clamp_3
100
AcDbLine
 10
193.206213947
 20
163.952835682
 30
0.000000000
 11
199.503883717
 21
167.588797019
 31
0.000000000
  0
LINE
  5
B87
330
A02
100
AcDbEntity
  8
V_09_Adapters_Small_Az_Servo_Clamp_3
100
AcDbLine
 10
193.206213947
 20
161.528861457
 30
0.000000000
 11
193.468616854
 21
161.377363068
 31
0.000000000
  0
LINE
  5
B88
330
A02
100
AcDbEntity
  8
V_09_Adapters_Small_Az_Servo_Clamp_3
100
AcDbLine
 10
193.468616854
 20
149.257491945
 30
0.000000000
 11
193.468616854
 21
161.377363068
 31
0.000000000
  0
ELLIPSE
  5
B89
330
A02
100
AcDbEntity
  8
V_09_Adapters_Small_Az_Servo_Clamp_3
100
AcDbEllipse
 10
195.305437203
 20
151.832964559
 30
0.000000000
 11
-2.486328125
 21
0.000000000
 31
0.000000000
 40
0.577350269
 41
-0.000000000
 42
-5.543629914
  0
ELLIPSE
  5
B8A
330
A02
100
AcDbEntity
  8
V_09_Adapters_Small_Az_Servo_Clamp_3
100
AcDbEllipse
 10
195.305437203
 20
151.832964559
 30
0.000000000
 11
-2.486328125
 21
0.000000000
 31
0.000000000
 40
0.577350269
 41
-0.739555393
 42
-0.000000000
  0
LINE
  5
B8B
330
A02
100
AcDbEntity
  8
V_09_Adapters_Small_Az_Servo_Clamp_3
100
AcDbLine
 10
190.057379062
 20
151.226971003
 30
0.000000000
 11
193.468616854
 21
149.257491945
 31
0.000000000
  0
LINE
  5
B8C
330
A02
100
AcDbEntity
  8
V_09_Adapters_Small_Az_Servo_Clamp_3
100
AcDbLine
 10
190.057379062
 20
151.226971003
 30
0.000000000
 11
193.468616854
 21
153.196450060
 31
0.000000000
  0
ELLIPSE
  5
B8D
330
A02
100
AcDbEntity
  8
V_09_Adapters_Small_Az_Servo_Clamp_3
100
AcDbEllipse
 10
195.305437203
 20
151.826904623
 30
0.000000000
 11
-2.486328125
 21
0.000000000
 31
0.000000000
 40
0.577350269
 41
-0.739555393
 42
-0.002110768
  0
LINE
  5
B8E
330
A02
100
AcDbEntity
  8
V_09_Adapters_Small_Az_Servo_Clamp_3
100
AcDbLine
 10
190.057379062
 20
148.802996778
 30
0.000000000
 11
190.057379062
 21
151.226971003
 31
0.000000000
  0
LINE
  5
B8F
330
A02
100
AcDbEntity
  8
V_09_Adapters_Small_Az_Servo_Clamp_3
100
AcDbLine
 10
196.092645925
 20
145.318533830
 30
0.000000000
 11
202.390315695
 21
148.954495167
 31
0.000000000
  0
LINE
  5
B90
330
A02
100
AcDbEntity
  8
V_09_Adapters_Small_Az_Servo_Clamp_3
100
AcDbLine
 10
190.057379062
 20
148.802996778
 30
0.000000000
 11
196.092645925
 21
145.318533830
 31
0.000000000
  0
LINE
  5
B91
330
A02
100
AcDbEntity
  8
V_09_Adapters_Small_Az_Servo_Clamp_3
100
AcDbLine
 10
196.092645925
 20
145.318533830
 30
0.000000000
 11
196.092645925
 21
159.862379178
 31
0.000000000
  0
LINE
  5
B92
330
A02
100
AcDbEntity
  8
V_09_Adapters_Small_Az_Servo_Clamp_3
100
AcDbLine
 10
202.390315695
 20
148.954495167
 30
0.000000000
 11
202.390315695
 21
156.226417841
 31
0.000000000
  0
LINE
  5
B93
330
A02
100
AcDbEntity
  8
V_09_Adapters_Small_Az_Servo_Clamp_3
100
AcDbLine
 10
196.092645925
 20
159.862379178
 30
0.000000000
 11
217.609684305
 21
147.439511277
 31
0.000000000
  0
LINE
  5
B94
330
A02
100
AcDbEntity
  8
V_09_Adapters_Small_Az_Servo_Clamp_3
100
AcDbLine
 10
217.609684305
 20
132.895665929
 30
0.000000000
 11
217.609684305
 21
147.439511277
 31
0.000000000
  0
LINE
  5
B95
330
A02
100
AcDbEntity
  8
V_09_Adapters_Small_Az_Servo_Clamp_3
100
AcDbLine
 10
217.609684305
 20
132.895665929
 30
0.000000000
 11
223.644951168
 21
129.411202981
 31
0.000000000
  0
LINE
  5
B96
330
A02
100
AcDbEntity
  8
V_09_Adapters_Small_Az_Servo_Clamp_3
100
AcDbLine
 10
220.496116283
 20
145.773028997
 30
0.000000000
 11
226.793786053
 21
149.408990334
 31
0.000000000
  0
LINE
  5
B97
330
A02
100
AcDbEntity
  8
V_09_Adapters_Small_Az_Servo_Clamp_3
100
AcDbLine
 10
220.233713376
 20
145.924527386
 30
0.000000000
 11
220.496116283
 21
145.773028997
 31
0.000000000
  0
LINE
  5
B98
330
A02
100
AcDbEntity
  8
V_09_Adapters_Small_Az_Servo_Clamp_3
100
AcDbLine
 10
220.496116283
 20
145.773028997
 30
0.000000000
 11
220.496116283
 21
148.197003222
 31
0.000000000
  0
LINE
  5
B99
330
A02
100
AcDbEntity
  8
V_09_Adapters_Small_Az_Servo_Clamp_3
100
AcDbLine
 10
220.496116283
 20
148.197003222
 30
0.000000000
 11
226.793786053
 21
151.832964559
 31
0.000000000
  0
LINE
  5
B9A
330
A02
100
AcDbEntity
  8
V_09_Adapters_Small_Az_Servo_Clamp_3
100
AcDbLine
 10
226.793786053
 20
149.408990334
 30
0.000000000
 11
226.793786053
 21
151.832964559
 31
0.000000000
  0
ELLIPSE
  5
B9B
330
A02
100
AcDbEntity
  8
V_09_Adapters_Small_Az_Servo_Clamp_3
100
AcDbEllipse
 10
224.694562797
 20
134.859085051
 30
0.000000000
 11
-1.261718750
 21
0.000000000
 31
0.000000000
 40
0.577350269
 41
-3.141592654
 42
-0.785398163
  0
ELLIPSE
  5
B9C
330
A02
100
AcDbEntity
  8
V_09_Adapters_Small_Az_Servo_Clamp_3
100
AcDbEllipse
 10
224.694562797
 20
134.859085051
 30
0.000000000
 11
-1.261718750
 21
0.000000000
 31
0.000000000
 40
0.577350269
 41
-0.000000000
 42
-3.141592654
  0
ELLIPSE
  5
B9D
330
A02
100
AcDbEntity
  8
V_09_Adapters_Small_Az_Servo_Clamp_3
100
AcDbEllipse
 10
224.694562797
 20
134.859085051
 30
0.000000000
 11
-1.261718750
 21
0.000000000
 31
0.000000000
 40
0.577350269
 41
-0.785398163
 42
-0.000000000
  0
ELLIPSE
  5
B9E
330
A02
100
AcDbEntity
  8
V_09_Adapters_Small_Az_Servo_Clamp_3
100
AcDbEllipse
 10
224.694562797
 20
134.859085051
 30
0.000000000
 11
-2.486328125
 21
0.000000000
 31
0.000000000
 40
0.577350269
 41
-3.139481886
 42
-1.513755774
  0
ELLIPSE
  5
B9F
330
A02
100
AcDbEntity
  8
V_09_Adapters_Small_Az_Servo_Clamp_3
100
AcDbEllipse
 10
224.694562797
 20
134.859085051
 30
0.000000000
 11
-2.486328125
 21
0.000000000
 31
0.000000000
 40
0.577350269
 41
-0.057040553
 42
-0.002110768
  0
LINE
  5
BA0
330
A02
100
AcDbEntity
  8
V_09_Adapters_Small_Az_Servo_Clamp_3
100
AcDbLine
 10
193.206213947
 20
163.952835682
 30
0.000000000
 11
220.496116283
 21
148.197003222
 31
0.000000000
  0
LINE
  5
BA1
330
A02
100
AcDbEntity
  8
V_09_Adapters_Small_Az_Servo_Clamp_3
100
AcDbLine
 10
199.503883717
 20
167.588797019
 30
0.000000000
 11
226.793786053
 21
151.832964559
 31
0.000000000
  0
TEXT
  5
BA2
330
A02
100
AcDbEntity
  8
A_09_Adapters_Small_Az_Servo_Clamp
100
AcDbText
 10
210.000000000
 20
148.500000000
 30
0.000000000
 40
3.500000000
  1
Az_Servo_Clamp  (white)
  7
STANDARD
 72
1
 11
210.000000000
 21
148.500000000
 31
0.000000000
100
AcDbText
  0
LINE
  5
BA3
330
A02
100
AcDbEntity
  8
V_09_Adapters_Small_Sensor_Gear_Keeper_0
100
AcDbLine
 10
186.250000000
 20
152.865808824
 30
0.000000000
 11
189.044117647
 21
152.865808824
 31
0.000000000
  0
LINE
  5
BA4
330
A02
100
AcDbEntity
  8
V_09_Adapters_Small_Sensor_Gear_Keeper_0
100
AcDbLine
 10
186.250000000
 20
144.134191176
 30
0.000000000
 11
186.250000000
 21
152.865808824
 31
0.000000000
  0
LINE
  5
BA5
330
A02
100
AcDbEntity
  8
V_09_Adapters_Small_Sensor_Gear_Keeper_0
100
AcDbLine
 10
189.044117647
 20
146.229779412
 30
0.000000000
 11
189.044117647
 21
152.865808824
 31
0.000000000
  0
LINE
  5
BA6
330
A02
100
AcDbEntity
  8
V_09_Adapters_Small_Sensor_Gear_Keeper_0
100
AcDbLine
 10
186.250000000
 20
144.134191176
 30
0.000000000
 11
233.750000000
 21
144.134191176
 31
0.000000000
  0
LINE
  5
BA7
330
A02
100
AcDbEntity
  8
V_09_Adapters_Small_Sensor_Gear_Keeper_0
100
AcDbLine
 10
233.750000000
 20
144.134191176
 30
0.000000000
 11
233.750000000
 21
152.865808824
 31
0.000000000
  0
LINE
  5
BA8
330
A02
100
AcDbEntity
  8
V_09_Adapters_Small_Sensor_Gear_Keeper_0
100
AcDbLine
 10
230.955882353
 20
152.865808824
 30
0.000000000
 11
233.750000000
 21
152.865808824
 31
0.000000000
  0
LINE
  5
BA9
330
A02
100
AcDbEntity
  8
V_09_Adapters_Small_Sensor_Gear_Keeper_0
100
AcDbLine
 10
230.955882353
 20
146.229779412
 30
0.000000000
 11
230.955882353
 21
152.865808824
 31
0.000000000
  0
LINE
  5
BAA
330
A02
100
AcDbEntity
  8
V_09_Adapters_Small_Sensor_Gear_Keeper_0
100
AcDbLine
 10
189.044117647
 20
146.229779412
 30
0.000000000
 11
230.955882353
 21
146.229779412
 31
0.000000000
  0
LINE
  5
BAB
330
A02
100
AcDbEntity
  8
V_09_Adapters_Small_Sensor_Gear_Keeper_1
100
AcDbLine
 10
186.250000000
 20
145.007352941
 30
0.000000000
 11
186.250000000
 21
151.992647059
 31
0.000000000
  0
LINE
  5
BAC
330
A02
100
AcDbEntity
  8
V_09_Adapters_Small_Sensor_Gear_Keeper_1
100
AcDbLine
 10
186.250000000
 20
151.992647059
 30
0.000000000
 11
189.044117647
 21
151.992647059
 31
0.000000000
  0
LINE
  5
BAD
330
A02
100
AcDbEntity
  8
V_09_Adapters_Small_Sensor_Gear_Keeper_1
100
AcDbLine
 10
189.044117647
 20
145.007352941
 30
0.000000000
 11
189.044117647
 21
151.992647059
 31
0.000000000
  0
LINE
  5
BAE
330
A02
100
AcDbEntity
  8
V_09_Adapters_Small_Sensor_Gear_Keeper_1
100
AcDbLine
 10
186.250000000
 20
145.007352941
 30
0.000000000
 11
189.044117647
 21
145.007352941
 31
0.000000000
  0
LINE
  5
BAF
330
A02
100
AcDbEntity
  8
V_09_Adapters_Small_Sensor_Gear_Keeper_1
100
AcDbLine
 10
189.044117647
 20
151.992647059
 30
0.000000000
 11
230.955882353
 21
151.992647059
 31
0.000000000
  0
LINE
  5
BB0
330
A02
100
AcDbEntity
  8
V_09_Adapters_Small_Sensor_Gear_Keeper_1
100
AcDbLine
 10
230.955882353
 20
151.992647059
 30
0.000000000
 11
233.750000000
 21
151.992647059
 31
0.000000000
  0
LINE
  5
BB1
330
A02
100
AcDbEntity
  8
V_09_Adapters_Small_Sensor_Gear_Keeper_1
100
AcDbLine
 10
230.955882353
 20
145.007352941
 30
0.000000000
 11
233.750000000
 21
145.007352941
 31
0.000000000
  0
LINE
  5
BB2
330
A02
100
AcDbEntity
  8
V_09_Adapters_Small_Sensor_Gear_Keeper_1
100
AcDbLine
 10
189.044117647
 20
145.007352941
 30
0.000000000
 11
230.955882353
 21
145.007352941
 31
0.000000000
  0
ARC
  5
BB3
330
A02
100
AcDbEntity
  8
V_09_Adapters_Small_Sensor_Gear_Keeper_1
100
AcDbCircle
 10
189.044117647
 20
148.500000000
 30
0.000000000
 40
1.187500000
100
AcDbArc
 50
-90.000000000
 51
0.000000000
  0
ARC
  5
BB4
330
A02
100
AcDbEntity
  8
V_09_Adapters_Small_Sensor_Gear_Keeper_1
100
AcDbCircle
 10
189.044117647
 20
148.500000000
 30
0.000000000
 40
1.187500000
100
AcDbArc
 50
0.000000000
 51
90.000000000
  0
ARC
  5
BB5
330
A02
100
AcDbEntity
  8
V_09_Adapters_Small_Sensor_Gear_Keeper_1
100
AcDbCircle
 10
230.955882353
 20
148.500000000
 30
0.000000000
 40
1.187500000
100
AcDbArc
 50
90.000000000
 51
-90.000000000
  0
LINE
  5
BB6
330
A02
100
AcDbEntity
  8
V_09_Adapters_Small_Sensor_Gear_Keeper_1
100
AcDbLine
 10
230.955882353
 20
145.007352941
 30
0.000000000
 11
230.955882353
 21
151.992647059
 31
0.000000000
  0
LINE
  5
BB7
330
A02
100
AcDbEntity
  8
V_09_Adapters_Small_Sensor_Gear_Keeper_1
100
AcDbLine
 10
233.750000000
 20
145.007352941
 30
0.000000000
 11
233.750000000
 21
151.992647059
 31
0.000000000
  0
LINE
  5
BB8
330
A02
100
AcDbEntity
  8
V_09_Adapters_Small_Sensor_Gear_Keeper_2
100
AcDbLine
 10
213.492647059
 20
144.134191176
 30
0.000000000
 11
213.492647059
 21
152.865808824
 31
0.000000000
  0
LINE
  5
BB9
330
A02
100
AcDbEntity
  8
V_09_Adapters_Small_Sensor_Gear_Keeper_2
100
AcDbLine
 10
206.507352941
 20
144.134191176
 30
0.000000000
 11
206.507352941
 21
152.865808824
 31
0.000000000
  0
LINE
  5
BBA
330
A02
100
AcDbEntity
  8
V_09_Adapters_Small_Sensor_Gear_Keeper_2
100
AcDbLine
 10
206.507352941
 20
144.134191176
 30
0.000000000
 11
213.492647059
 21
144.134191176
 31
0.000000000
  0
LINE
  5
BBB
330
A02
100
AcDbEntity
  8
V_09_Adapters_Small_Sensor_Gear_Keeper_2
100
AcDbLine
 10
206.507352941
 20
152.865808824
 30
0.000000000
 11
213.492647059
 21
152.865808824
 31
0.000000000
  0
LINE
  5
BBC
330
A02
100
AcDbEntity
  8
V_09_Adapters_Small_Sensor_Gear_Keeper_3
100
AcDbLine
 10
190.736539527
 20
160.334697685
 30
0.000000000
 11
195.675888366
 21
163.186432067
 31
0.000000000
  0
LINE
  5
BBD
330
A02
100
AcDbEntity
  8
V_09_Adapters_Small_Sensor_Gear_Keeper_3
100
AcDbLine
 10
195.675888366
 20
163.186432067
 30
0.000000000
 11
197.651627902
 21
162.045738314
 31
0.000000000
  0
LINE
  5
BBE
330
A02
100
AcDbEntity
  8
V_09_Adapters_Small_Sensor_Gear_Keeper_3
100
AcDbLine
 10
192.712279063
 20
159.194003932
 30
0.000000000
 11
197.651627902
 21
162.045738314
 31
0.000000000
  0
LINE
  5
BBF
330
A02
100
AcDbEntity
  8
V_09_Adapters_Small_Sensor_Gear_Keeper_3
100
AcDbLine
 10
190.736539527
 20
160.334697685
 30
0.000000000
 11
192.712279063
 21
159.194003932
 31
0.000000000
  0
LINE
  5
BC0
330
A02
100
AcDbEntity
  8
V_09_Adapters_Small_Sensor_Gear_Keeper_3
100
AcDbLine
 10
190.736539527
 20
153.205361730
 30
0.000000000
 11
190.736539527
 21
160.334697685
 31
0.000000000
  0
LINE
  5
BC1
330
A02
100
AcDbEntity
  8
V_09_Adapters_Small_Sensor_Gear_Keeper_3
100
AcDbLine
 10
197.651627902
 20
156.627442988
 30
0.000000000
 11
197.651627902
 21
162.045738314
 31
0.000000000
  0
LINE
  5
BC2
330
A02
100
AcDbEntity
  8
V_09_Adapters_Small_Sensor_Gear_Keeper_3
100
AcDbLine
 10
197.651627902
 20
156.627442988
 30
0.000000000
 11
222.595339540
 21
142.226184360
 31
0.000000000
  0
LINE
  5
BC3
330
A02
100
AcDbEntity
  8
V_09_Adapters_Small_Sensor_Gear_Keeper_3
100
AcDbLine
 10
227.287720937
 20
144.935332023
 30
0.000000000
 11
229.263460473
 21
143.794638270
 31
0.000000000
  0
LINE
  5
BC4
330
A02
100
AcDbEntity
  8
V_09_Adapters_Small_Sensor_Gear_Keeper_3
100
AcDbLine
 10
229.263460473
 20
136.665302315
 30
0.000000000
 11
229.263460473
 21
143.794638270
 31
0.000000000
  0
LINE
  5
BC5
330
A02
100
AcDbEntity
  8
V_09_Adapters_Small_Sensor_Gear_Keeper_3
100
AcDbLine
 10
192.712279063
 20
153.775708607
 30
0.000000000
 11
192.712279063
 21
159.194003932
 31
0.000000000
  0
LINE
  5
BC6
330
A02
100
AcDbEntity
  8
V_09_Adapters_Small_Sensor_Gear_Keeper_3
100
AcDbLine
 10
196.021642785
 20
155.686370642
 30
0.000000000
 11
197.651627902
 21
156.627442988
 31
0.000000000
  0
LINE
  5
BC7
330
A02
100
AcDbEntity
  8
V_09_Adapters_Small_Sensor_Gear_Keeper_3
100
AcDbLine
 10
196.021642785
 20
155.686370642
 30
0.000000000
 11
196.021642785
 21
155.692074111
 31
0.000000000
  0
LINE
  5
BC8
330
A02
100
AcDbEntity
  8
V_09_Adapters_Small_Sensor_Gear_Keeper_3
100
AcDbLine
 10
196.021642785
 20
155.692074111
 30
0.000000000
 11
194.342264180
 21
154.722484421
 31
0.000000000
  0
LINE
  5
BC9
330
A02
100
AcDbEntity
  8
V_09_Adapters_Small_Sensor_Gear_Keeper_3
100
AcDbLine
 10
194.342264180
 20
154.716780953
 30
0.000000000
 11
194.342264180
 21
154.722484421
 31
0.000000000
  0
LINE
  5
BCA
330
A02
100
AcDbEntity
  8
V_09_Adapters_Small_Sensor_Gear_Keeper_3
100
AcDbLine
 10
192.712279063
 20
153.775708607
 30
0.000000000
 11
194.342264180
 21
154.716780953
 31
0.000000000
  0
LINE
  5
BCB
330
A02
100
AcDbEntity
  8
V_09_Adapters_Small_Sensor_Gear_Keeper_3
100
AcDbLine
 10
190.736539527
 20
153.205361730
 30
0.000000000
 11
224.324111634
 21
133.813567933
 31
0.000000000
  0
LINE
  5
BCC
330
A02
100
AcDbEntity
  8
V_09_Adapters_Small_Sensor_Gear_Keeper_3
100
AcDbLine
 10
224.324111634
 20
133.813567933
 30
0.000000000
 11
224.324111634
 21
140.942903888
 31
0.000000000
  0
LINE
  5
BCD
330
A02
100
AcDbEntity
  8
V_09_Adapters_Small_Sensor_Gear_Keeper_3
100
AcDbLine
 10
222.348372098
 20
142.083597641
 30
0.000000000
 11
224.324111634
 21
140.942903888
 31
0.000000000
  0
LINE
  5
BCE
330
A02
100
AcDbEntity
  8
V_09_Adapters_Small_Sensor_Gear_Keeper_3
100
AcDbLine
 10
222.348372098
 20
136.665302315
 30
0.000000000
 11
222.348372098
 21
142.083597641
 31
0.000000000
  0
LINE
  5
BCF
330
A02
100
AcDbEntity
  8
V_09_Adapters_Small_Sensor_Gear_Keeper_3
100
AcDbLine
 10
192.712279063
 20
153.775708607
 30
0.000000000
 11
222.348372098
 21
136.665302315
 31
0.000000000
  0
LINE
  5
BD0
330
A02
100
AcDbEntity
  8
V_09_Adapters_Small_Sensor_Gear_Keeper_3
100
AcDbLine
 10
224.324111634
 20
133.813567933
 30
0.000000000
 11
229.263460473
 21
136.665302315
 31
0.000000000
  0
LINE
  5
BD1
330
A02
100
AcDbEntity
  8
V_09_Adapters_Small_Sensor_Gear_Keeper_3
100
AcDbLine
 10
194.566107218
 20
154.817499447
 30
0.000000000
 11
195.820337992
 21
154.623469271
 31
0.000000000
  0
LINE
  5
BD2
330
A02
100
AcDbEntity
  8
V_09_Adapters_Small_Sensor_Gear_Keeper_3
100
AcDbLine
 10
194.367324190
 20
154.702732012
 30
0.000000000
 11
194.566107218
 21
154.817499447
 31
0.000000000
  0
ELLIPSE
  5
BD3
330
A02
100
AcDbEntity
  8
V_09_Adapters_Small_Sensor_Gear_Keeper_3
100
AcDbEllipse
 10
195.181953482
 20
155.201575798
 30
0.000000000
 11
1.187500000
 21
0.000000000
 31
0.000000000
 40
0.577350269
 41
3.926990817
 42
5.497787144
  0
ELLIPSE
  5
BD4
330
A02
100
AcDbEntity
  8
V_09_Adapters_Small_Sensor_Gear_Keeper_3
100
AcDbEllipse
 10
195.181953482
 20
155.201575798
 30
0.000000000
 11
1.187500000
 21
0.000000000
 31
0.000000000
 40
0.577350269
 41
5.497787144
 42
0.000000000
  0
ELLIPSE
  5
BD5
330
A02
100
AcDbEntity
  8
V_09_Adapters_Small_Sensor_Gear_Keeper_3
100
AcDbEllipse
 10
195.181953482
 20
155.201575798
 30
0.000000000
 11
1.187500000
 21
0.000000000
 31
0.000000000
 40
0.577350269
 41
0.000000000
 42
0.785398163
  0
LINE
  5
BD6
330
A02
100
AcDbEntity
  8
V_09_Adapters_Small_Sensor_Gear_Keeper_3
100
AcDbLine
 10
222.348372098
 20
142.083597641
 30
0.000000000
 11
227.287720937
 21
144.935332023
 31
0.000000000
  0
LINE
  5
BD7
330
A02
100
AcDbEntity
  8
V_09_Adapters_Small_Sensor_Gear_Keeper_3
100
AcDbLine
 10
224.324111634
 20
140.942903888
 30
0.000000000
 11
229.263460473
 21
143.794638270
 31
0.000000000
  0
ELLIPSE
  5
BD8
330
A02
100
AcDbEntity
  8
V_09_Adapters_Small_Sensor_Gear_Keeper_3
100
AcDbEllipse
 10
195.181953482
 20
155.195872329
 30
0.000000000
 11
1.187500000
 21
0.000000000
 31
0.000000000
 40
0.577350269
 41
0.004159464
 42
0.797163141
  0
LINE
  5
BD9
330
A02
100
AcDbEntity
  8
V_09_Adapters_Small_Sensor_Gear_Keeper_3
100
AcDbLine
 10
194.566107218
 20
154.817499447
 30
0.000000000
 11
194.566107218
 21
154.851720259
 31
0.000000000
  0
TEXT
  5
BDA
330
A02
100
AcDbEntity
  8
A_09_Adapters_Small_Sensor_Gear_Keeper
100
AcDbText
 10
210.000000000
 20
148.500000000
 30
0.000000000
 40
3.500000000
  1
Sensor_Gear_Keeper  (white)
  7
STANDARD
 72
1
 11
210.000000000
 21
148.500000000
 31
0.000000000
100
AcDbText
  0
SPLINE
  5
BDB
330
A02
100
AcDbEntity
  8
V_09_Adapters_Small_Status_Window_0
100
AcDbSpline
210
0
220
0
230
1
 70
8
 71
1
 72
17
 73
15
 74
0
 40
0.000000000
 40
0.000000000
 40
0.224399475
 40
0.448798951
 40
0.673198426
 40
0.897597901
 40
1.121997376
 40
1.346396852
 40
1.570796327
 40
1.795195802
 40
2.019595277
 40
2.243994753
 40
2.468394228
 40
2.692793703
 40
2.917193178
 40
3.141592654
 40
3.141592654
 10
211.000000000
 20
168.200000000
 30
0.000000000
 10
211.000000000
 20
167.706079870
 30
0.000000000
 10
211.000000000
 20
166.249086698
 30
0.000000000
 10
211.000000000
 20
163.902080205
 30
0.000000000
 10
211.000000000
 20
160.782749097
 30
0.000000000
 10
211.000000000
 20
157.047509661
 30
0.000000000
 10
211.000000000
 20
152.883662399
 30
0.000000000
 10
211.000000000
 20
148.500000000
 30
0.000000000
 10
211.000000000
 20
144.116337601
 30
0.000000000
 10
211.000000000
 20
139.952490339
 30
0.000000000
 10
211.000000000
 20
136.217250903
 30
0.000000000
 10
211.000000000
 20
133.097919795
 30
0.000000000
 10
211.000000000
 20
130.750913302
 30
0.000000000
 10
211.000000000
 20
129.293920130
 30
0.000000000
 10
211.000000000
 20
128.800000000
 30
0.000000000
  0
LINE
  5
BDC
330
A02
100
AcDbEntity
  8
V_09_Adapters_Small_Status_Window_0
100
AcDbLine
 10
209.000000000
 20
168.200000000
 30
0.000000000
 11
211.000000000
 21
168.200000000
 31
0.000000000
  0
SPLINE
  5
BDD
330
A02
100
AcDbEntity
  8
V_09_Adapters_Small_Status_Window_0
100
AcDbSpline
210
0
220
0
230
1
 70
8
 71
1
 72
17
 73
15
 74
0
 40
0.000000000
 40
0.000000000
 40
0.224399475
 40
0.448798951
 40
0.673198426
 40
0.897597901
 40
1.121997376
 40
1.346396852
 40
1.570796327
 40
1.795195802
 40
2.019595277
 40
2.243994753
 40
2.468394228
 40
2.692793703
 40
2.917193178
 40
3.141592654
 40
3.141592654
 10
209.000000000
 20
168.200000000
 30
0.000000000
 10
209.000000000
 20
167.706079870
 30
0.000000000
 10
209.000000000
 20
166.249086698
 30
0.000000000
 10
209.000000000
 20
163.902080205
 30
0.000000000
 10
209.000000000
 20
160.782749097
 30
0.000000000
 10
209.000000000
 20
157.047509661
 30
0.000000000
 10
209.000000000
 20
152.883662399
 30
0.000000000
 10
209.000000000
 20
148.500000000
 30
0.000000000
 10
209.000000000
 20
144.116337601
 30
0.000000000
 10
209.000000000
 20
139.952490339
 30
0.000000000
 10
209.000000000
 20
136.217250903
 30
0.000000000
 10
209.000000000
 20
133.097919795
 30
0.000000000
 10
209.000000000
 20
130.750913302
 30
0.000000000
 10
209.000000000
 20
129.293920130
 30
0.000000000
 10
209.000000000
 20
128.800000000
 30
0.000000000
  0
LINE
  5
BDE
330
A02
100
AcDbEntity
  8
V_09_Adapters_Small_Status_Window_0
100
AcDbLine
 10
209.000000000
 20
128.800000000
 30
0.000000000
 11
211.000000000
 21
128.800000000
 31
0.000000000
  0
SPLINE
  5
BDF
330
A02
100
AcDbEntity
  8
V_09_Adapters_Small_Status_Window_1
100
AcDbSpline
210
0
220
0
230
1
 70
8
 71
1
 72
17
 73
15
 74
0
 40
0.000000000
 40
0.000000000
 40
0.112199738
 40
0.224399475
 40
0.336599213
 40
0.448798951
 40
0.560998688
 40
0.673198426
 40
0.785398163
 40
0.897597901
 40
1.009797639
 40
1.121997376
 40
1.234197114
 40
1.346396852
 40
1.458596589
 40
1.570796327
 40
1.570796327
 10
211.000000000
 20
148.500000000
 30
0.000000000
 10
211.000000000
 20
146.294299821
 30
0.000000000
 10
211.000000000
 20
144.116337601
 30
0.000000000
 10
211.000000000
 20
141.993502479
 30
0.000000000
 10
211.000000000
 20
139.952490339
 30
0.000000000
 10
211.000000000
 20
138.018968093
 30
0.000000000
 10
211.000000000
 20
136.217250903
 30
0.000000000
 10
211.000000000
 20
134.569996411
 30
0.000000000
 10
211.000000000
 20
133.097919795
 30
0.000000000
 10
211.000000000
 20
131.819533275
 30
0.000000000
 10
211.000000000
 20
130.750913302
 30
0.000000000
 10
211.000000000
 20
129.905498393
 30
0.000000000
 10
211.000000000
 20
129.293920130
 30
0.000000000
 10
211.000000000
 20
128.923869465
 30
0.000000000
 10
211.000000000
 20
128.800000000
 30
0.000000000
  0
SPLINE
  5
BE0
330
A02
100
AcDbEntity
  8
V_09_Adapters_Small_Status_Window_1
100
AcDbSpline
210
0
220
0
230
1
 70
8
 71
1
 72
17
 73
15
 74
0
 40
4.712388980
 40
4.712388980
 40
4.824588718
 40
4.936788456
 40
5.048988193
 40
5.161187931
 40
5.273387669
 40
5.385587406
 40
5.497787144
 40
5.609986881
 40
5.722186619
 40
5.834386357
 40
5.946586094
 40
6.058785832
 40
6.170985570
 40
6.283185307
 40
6.283185307
 10
211.000000000
 20
168.200000000
 30
0.000000000
 10
211.000000000
 20
168.076130535
 30
0.000000000
 10
211.000000000
 20
167.706079870
 30
0.000000000
 10
211.000000000
 20
167.094501607
 30
0.000000000
 10
211.000000000
 20
166.249086698
 30
0.000000000
 10
211.000000000
 20
165.180466725
 30
0.000000000
 10
211.000000000
 20
163.902080205
 30
0.000000000
 10
211.000000000
 20
162.430003589
 30
0.000000000
 10
211.000000000
 20
160.782749097
 30
0.000000000
 10
211.000000000
 20
158.981031907
 30
0.000000000
 10
211.000000000
 20
157.047509661
 30
0.000000000
 10
211.000000000
 20
155.006497521
 30
0.000000000
 10
211.000000000
 20
152.883662399
 30
0.000000000
 10
211.000000000
 20
150.705700179
 30
0.000000000
 10
211.000000000
 20
148.500000000
 30
0.000000000
  0
SPLINE
  5
BE1
330
A02
100
AcDbEntity
  8
V_09_Adapters_Small_Status_Window_1
100
AcDbSpline
210
0
220
0
230
1
 70
8
 71
1
 72
17
 73
15
 74
0
 40
0.000000000
 40
0.000000000
 40
0.112199738
 40
0.224399475
 40
0.336599213
 40
0.448798951
 40
0.560998688
 40
0.673198426
 40
0.785398163
 40
0.897597901
 40
1.009797639
 40
1.121997376
 40
1.234197114
 40
1.346396852
 40
1.458596589
 40
1.570796327
 40
1.570796327
 10
209.000000000
 20
148.500000000
 30
0.000000000
 10
209.000000000
 20
146.294299821
 30
0.000000000
 10
209.000000000
 20
144.116337601
 30
0.000000000
 10
209.000000000
 20
141.993502479
 30
0.000000000
 10
209.000000000
 20
139.952490339
 30
0.000000000
 10
209.000000000
 20
138.018968093
 30
0.000000000
 10
209.000000000
 20
136.217250903
 30
0.000000000
 10
209.000000000
 20
134.569996411
 30
0.000000000
 10
209.000000000
 20
133.097919795
 30
0.000000000
 10
209.000000000
 20
131.819533275
 30
0.000000000
 10
209.000000000
 20
130.750913302
 30
0.000000000
 10
209.000000000
 20
129.905498393
 30
0.000000000
 10
209.000000000
 20
129.293920130
 30
0.000000000
 10
209.000000000
 20
128.923869465
 30
0.000000000
 10
209.000000000
 20
128.800000000
 30
0.000000000
  0
SPLINE
  5
BE2
330
A02
100
AcDbEntity
  8
V_09_Adapters_Small_Status_Window_1
100
AcDbSpline
210
0
220
0
230
1
 70
8
 71
1
 72
17
 73
15
 74
0
 40
4.712388980
 40
4.712388980
 40
4.824588718
 40
4.936788456
 40
5.048988193
 40
5.161187931
 40
5.273387669
 40
5.385587406
 40
5.497787144
 40
5.609986881
 40
5.722186619
 40
5.834386357
 40
5.946586094
 40
6.058785832
 40
6.170985570
 40
6.283185307
 40
6.283185307
 10
209.000000000
 20
168.200000000
 30
0.000000000
 10
209.000000000
 20
168.076130535
 30
0.000000000
 10
209.000000000
 20
167.706079870
 30
0.000000000
 10
209.000000000
 20
167.094501607
 30
0.000000000
 10
209.000000000
 20
166.249086698
 30
0.000000000
 10
209.000000000
 20
165.180466725
 30
0.000000000
 10
209.000000000
 20
163.902080205
 30
0.000000000
 10
209.000000000
 20
162.430003589
 30
0.000000000
 10
209.000000000
 20
160.782749097
 30
0.000000000
 10
209.000000000
 20
158.981031907
 30
0.000000000
 10
209.000000000
 20
157.047509661
 30
0.000000000
 10
209.000000000
 20
155.006497521
 30
0.000000000
 10
209.000000000
 20
152.883662399
 30
0.000000000
 10
209.000000000
 20
150.705700179
 30
0.000000000
 10
209.000000000
 20
148.500000000
 30
0.000000000
  0
LINE
  5
BE3
330
A02
100
AcDbEntity
  8
V_09_Adapters_Small_Status_Window_1
100
AcDbLine
 10
209.000000000
 20
128.800000000
 30
0.000000000
 11
211.000000000
 21
128.800000000
 31
0.000000000
  0
LINE
  5
BE4
330
A02
100
AcDbEntity
  8
V_09_Adapters_Small_Status_Window_1
100
AcDbLine
 10
209.000000000
 20
168.200000000
 30
0.000000000
 11
211.000000000
 21
168.200000000
 31
0.000000000
  0
CIRCLE
  5
BE5
330
A02
100
AcDbEntity
  8
V_09_Adapters_Small_Status_Window_2
100
AcDbCircle
 10
210.000000000
 20
148.500000000
 30
0.000000000
 40
19.700000000
  0
ELLIPSE
  5
BE6
330
A02
100
AcDbEntity
  8
V_09_Adapters_Small_Status_Window_3
100
AcDbEllipse
 10
210.707106781
 20
148.091751710
 30
0.000000000
 11
-9.850000000
 21
-17.060700455
 31
0.000000000
 40
0.577350269
 41
3.926990817
 42
0.000000000
  0
ELLIPSE
  5
BE7
330
A02
100
AcDbEntity
  8
V_09_Adapters_Small_Status_Window_3
100
AcDbEllipse
 10
210.707106781
 20
148.091751710
 30
0.000000000
 11
-9.850000000
 21
-17.060700455
 31
0.000000000
 40
0.577350269
 41
0.000000000
 42
3.141592654
  0
ELLIPSE
  5
BE8
330
A02
100
AcDbEntity
  8
V_09_Adapters_Small_Status_Window_3
100
AcDbEllipse
 10
210.707106781
 20
148.091751710
 30
0.000000000
 11
-9.850000000
 21
-17.060700455
 31
0.000000000
 40
0.577350269
 41
3.141592654
 42
3.926990817
  0
ELLIPSE
  5
BE9
330
A02
100
AcDbEntity
  8
V_09_Adapters_Small_Status_Window_3
100
AcDbEllipse
 10
209.292893219
 20
148.908248290
 30
0.000000000
 11
-9.850000000
 21
-17.060700455
 31
0.000000000
 40
0.577350269
 41
3.926990817
 42
0.000000000
  0
ELLIPSE
  5
BEA
330
A02
100
AcDbEntity
  8
V_09_Adapters_Small_Status_Window_3
100
AcDbEllipse
 10
209.292893219
 20
148.908248290
 30
0.000000000
 11
-9.850000000
 21
-17.060700455
 31
0.000000000
 40
0.577350269
 41
3.141592654
 42
3.926990817
  0
LINE
  5
BEB
330
A02
100
AcDbEntity
  8
V_09_Adapters_Small_Status_Window_3
100
AcDbLine
 10
199.442893219
 20
131.847547836
 30
0.000000000
 11
200.857106781
 21
131.031051255
 31
0.000000000
  0
LINE
  5
BEC
330
A02
100
AcDbEntity
  8
V_09_Adapters_Small_Status_Window_3
100
AcDbLine
 10
219.142893219
 20
165.968948745
 30
0.000000000
 11
220.557106781
 21
165.152452164
 31
0.000000000
  0
TEXT
  5
BED
330
A02
100
AcDbEntity
  8
A_09_Adapters_Small_Status_Window
100
AcDbText
 10
210.000000000
 20
148.500000000
 30
0.000000000
 40
3.500000000
  1
Status_Window  (clear)
  7
STANDARD
 72
1
 11
210.000000000
 21
148.500000000
 31
0.000000000
100
AcDbText
  0
ENDSEC
  0
SECTION
  2
OBJECTS
  0
DICTIONARY
  5
F000
330
0
100
AcDbDictionary
  3
ACAD_GROUP
350
F001
  0
DICTIONARY
  5
F001
330
F000
100
AcDbDictionary
  0
ENDSEC
  0
EOF